<?xml version="1.0" encoding="UTF-8"?>
<svg width="18px" height="16px" viewBox="0 0 18 16" version="1.1" xmlns="http://www.w3.org/2000/svg" xmlns:xlink="http://www.w3.org/1999/xlink">
    <!-- Generator: Sketch 44.1 (41455) - http://www.bohemiancoding.com/sketch -->
    <title>Group 18</title>
    <desc>Created with Sketch.</desc>
    <defs></defs>
    <g id="2" stroke="none" stroke-width="1" fill="none" fill-rule="evenodd">
        <g id="Artboard-Copy-4" transform="translate(-449.000000, -616.000000)" stroke="#66B574" stroke-width="1.2">
            <g id="Group-18" transform="translate(449.000000, 615.000000)">
                <path d="M1.41612251,13.6 L16.583863,13.6 C16.5495873,13.4300187 16.4854603,13.2440107 16.390931,13.0432174 C16.1411975,12.5127491 15.7008628,11.9231641 15.1253048,11.3143217 C14.7793226,10.9483314 14.4068213,10.5985916 14.0342919,10.2783632 C13.8116252,10.0869577 13.6401165,9.94924121 13.5458915,9.87758368 L13.3090909,9.69749831 L13.3090909,4.79504496 C13.3090909,3.04550761 11.7522355,1.6 9.81639306,1.6 L8.18360694,1.6 C6.23946281,1.6 4.69090909,3.0380298 4.69090909,4.79504496 L4.69090909,9.69538886 L4.45427135,9.87547779 C4.36004009,9.94719081 4.18852491,10.0850054 3.96585135,10.2765389 C3.59331129,10.5969806 3.22079907,10.9469374 2.87480534,11.313136 C2.29985418,11.9216622 1.85981338,12.5109319 1.60990174,13.0411991 C1.51490458,13.2427659 1.45049576,13.4294533 1.41612251,13.6 Z" id="Combined-Shape"></path>
                <path d="M10.843894,14.8 L7.15621287,14.8 C7.25613528,15.6979266 8.04001261,16.4 9,16.4 C9.96484511,16.4 10.744724,15.69974 10.843894,14.8 Z" id="Combined-Shape"></path>
            </g>
        </g>
    </g>
</svg>