<svg width="418" height="512" xmlns="http://www.w3.org/2000/svg"><path d="M348.748 272.046c-.646-64.841 52.88-95.938 55.271-97.483-30.075-44.01-76.925-50.039-93.62-50.736-39.871-4.037-77.798 23.474-98.033 23.474-20.184 0-51.409-22.877-84.476-22.276-43.458.646-83.529 25.269-105.906 64.19-45.152 78.35-11.563 194.42 32.445 257.963 21.504 31.104 47.146 66.038 80.813 64.79 32.421-1.294 44.681-20.979 83.878-20.979 39.196 0 50.215 20.979 84.524 20.335 34.888-.648 56.991-31.699 78.347-62.898 24.694-36.084 34.862-71.019 35.462-72.812-.775-.354-68.031-26.119-68.705-103.568zM284.28 81.761C302.149 60.082 314.21 30.005 310.92 0c-25.739 1.048-56.938 17.145-75.405 38.775-16.57 19.188-31.075 49.813-27.188 79.218 28.734 2.242 58.065-14.602 75.953-36.232z" fill="#888"/></svg>