<svg width="320" height="194" viewBox="0 0 320 194" fill="none" xmlns="http://www.w3.org/2000/svg">
<g clip-path="url(#clip0_432_1534)">
<rect width="320" height="194" fill="black"/>
<path d="M309.939 129.484L294.817 127.282C294.093 127.177 293.426 127.672 293.327 128.387L279.068 231.082C278.969 231.797 279.475 232.463 280.199 232.568L295.321 234.77C296.044 234.876 296.711 234.381 296.811 233.665L311.069 130.971C311.169 130.255 310.663 129.59 309.939 129.484Z" fill="#568040"/>
<path d="M302.81 190.407L294.622 189.214L294.247 191.914L302.436 193.106L302.81 190.407Z" fill="#FFE4B7"/>
<path d="M310.495 135.075L302.307 133.883L301.932 136.582L310.121 137.775L310.495 135.075Z" fill="#FFE4B7"/>
<path d="M308.245 151.274L300.056 150.082L299.681 152.781L307.87 153.974L308.245 151.274Z" fill="#FFE4B7"/>
<path d="M305.63 170.169L297.441 168.976L297.067 171.676L305.255 172.868L305.63 170.169Z" fill="#FFE4B7"/>
<path d="M268.797 13.5302L281.515 18.0747L270.254 34.4153L266.99 39.1406L267.421 32.8823L267.446 32.8087L268.784 13.5329L268.797 13.5302Z" fill="#E8D4BA"/>
<path d="M268.797 13.5302L274.162 -1.51635L281.569 -22.232L281.582 -22.2348L289.796 -45.2762C291.05 -48.7875 294.908 -50.6221 298.435 -49.3577C300.722 -48.5421 302.302 -46.6092 302.769 -44.3876C303.016 -43.2115 302.953 -41.9564 302.514 -40.7316L291.995 -11.2562L289.449 -4.08923L289.436 -4.08648L281.528 18.0719C281.528 18.0719 278.855 20.6124 277.307 20.0646C276.949 19.9214 276.755 19.5803 276.659 19.1229C276.56 18.7206 276.54 18.2336 276.533 17.744L276.524 17.7048C276.503 17.1497 276.175 17.0768 276.066 16.6903C275.925 16.215 275.635 16.0031 275.004 16.3131C272.893 17.3029 273.1 22.0545 272.099 19.9587C271.11 17.847 268.797 13.5302 268.797 13.5302Z" fill="#C43510"/>
<path d="M267.431 32.8664L267.456 32.7929C268.264 30.5352 270.264 34.3995 270.264 34.3995L267 39.1248L267.431 32.8664Z" fill="#C43510"/>
<path d="M276.659 19.1229L276.533 17.744L276.524 17.7048L276.379 16.2343C276.379 16.2343 306.509 -43.2773 298.435 -49.3577C300.722 -48.5421 302.302 -46.6092 302.769 -44.3876C303.016 -43.2115 302.953 -41.9564 302.514 -40.7316L281.528 18.0719C281.528 18.0719 278.855 20.6124 277.307 20.0646C276.949 19.9214 276.755 19.5803 276.659 19.1229Z" fill="#993A21"/>
<path d="M0.718931 161.168L73.3648 262.392L145.475 243.502L153.029 229.977L77.1056 244.979L5.10109 148.84L0.718931 161.168Z" fill="#E8D4BA"/>
<path d="M153.036 229.977L81.7418 130.889L5.1079 148.839L79.3309 249.477L153.036 229.977Z" fill="#A4D1AF"/>
<path d="M-0.157612 161.776L1.57828 160.542L73.7874 261.188L144.877 242.562C145.798 241.517 149.657 236.947 151.47 231.486L79.594 250.49C79.1773 250.597 78.7213 250.452 78.4475 250.086L4.22459 149.447C4.00615 149.158 3.96834 148.777 4.07061 148.46C4.19075 148.119 4.47868 147.881 4.83514 147.805L81.4691 129.856L81.966 131.93L6.89947 149.51L79.7466 248.273L152.745 228.967C153.099 228.87 153.506 228.98 153.763 229.241C154.021 229.503 154.146 229.892 154.051 230.251C152.256 237.774 146.466 243.996 146.224 244.248C146.095 244.397 145.914 244.489 145.706 244.542L73.5958 263.432C73.1579 263.543 72.6987 263.377 72.4493 263.028L-0.196624 161.803L-0.157612 161.776Z" fill="#3D6D49"/>
<path d="M-3.64492 120.2L81.3027 238.613L165.65 216.491L174.494 200.682L85.687 218.241L1.47281 105.78L-3.64492 120.2Z" fill="#E8D4BA"/>
<path d="M174.501 200.683L91.1149 84.7826L1.47925 105.781L88.3081 223.475L174.501 200.683Z" fill="#67B279"/>
<path d="M102.424 121.261L90.2546 105.085L58.5135 112.521L28.0002 119.5L41.3804 137.403L102.424 121.261Z" fill="#294730"/>
<path d="M-4.52144 120.83L-2.78554 119.596L81.7398 237.385L165.048 215.551C166.079 214.382 170.823 208.816 172.952 202.188L88.5505 224.512C88.1339 224.619 87.6779 224.474 87.404 224.107L0.596249 106.41C0.377806 106.121 0.339983 105.739 0.442254 105.423C0.562394 105.082 0.850316 104.844 1.20678 104.768L90.8214 83.7729L91.3183 85.8473L3.27119 106.473L88.7031 222.295L174.186 199.676C174.539 199.579 174.946 199.689 175.204 199.95C175.461 200.212 175.587 200.601 175.491 200.96C173.411 209.709 166.676 216.958 166.377 217.262C166.248 217.41 166.068 217.503 165.859 217.556L81.5092 239.657C81.0714 239.767 80.6121 239.601 80.3627 239.252L-4.60284 120.864L-4.52144 120.83Z" fill="#294730"/>
<path d="M55.2931 34.92L68.594 33.0028L66.2881 52.6139L65.6146 58.2885L63.0831 52.583L63.0712 52.5064L55.2829 34.9285L55.2931 34.92Z" fill="#E8D4BA"/>
<path d="M55.2931 34.92L53.0147 19.1893L51.3642 7.70559L49.8959 -2.47812L49.9062 -2.48662L46.416 -26.5753C45.8861 -30.2473 48.4266 -33.6553 52.1172 -34.1835C54.5079 -34.5295 56.7967 -33.5639 58.2407 -31.827C59.0052 -30.9074 59.533 -29.7737 59.7169 -28.4925L64.1724 2.32753L65.2661 9.81603L65.2559 9.82453L68.6042 32.9944C68.6042 32.9944 67.4348 36.4721 65.8183 36.7101C65.4372 36.7505 65.1074 36.5409 64.8101 36.1833C64.5366 35.875 64.2921 35.4562 64.0578 35.0289L64.0323 34.9983C63.7555 34.5199 63.4328 34.6085 63.1575 34.3189C62.8125 33.9664 62.4588 33.9149 62.0481 34.4809C60.6509 36.3337 63.0427 40.4173 61.1882 39.0388C59.3355 37.6417 55.2931 34.92 55.2931 34.92Z" fill="#708AD1"/>
<path d="M63.0847 52.5644L63.0729 52.4878C62.7337 50.126 66.2899 52.5953 66.2899 52.5953L65.6164 58.2699L63.0847 52.5644Z" fill="#708AD1"/>
<path opacity="0.65" d="M64.8101 36.1833L64.0578 35.0289L64.0323 34.9983L63.2205 33.7724C63.2205 33.7724 62.0473 -32.5898 52.1172 -34.1835C54.5079 -34.5295 56.7967 -33.5639 58.2407 -31.827C59.0052 -30.9074 59.533 -29.7737 59.7169 -28.4925L68.6042 32.9944C68.6042 32.9944 67.4348 36.4721 65.8183 36.7101C65.4372 36.7505 65.1074 36.5409 64.8101 36.1833Z" fill="#374A7E"/>
<path d="M31.7257 79.5565L16.1098 74.7982L4.71134 71.3141L-5.39414 68.2282L-29.3051 60.9215C-32.9454 59.8066 -36.1524 56.7973 -36.4513 54.1854C-36.6377 52.4907 -35.5623 51.3836 -33.7559 51.1335C-32.8078 51.0035 -31.652 51.1027 -30.3889 51.4909L0.206108 60.8283L7.63606 63.088L30.6418 70.1259C30.6418 70.1259 33.9852 72.2678 34.1259 73.4142C34.1438 73.6734 33.9135 73.8031 33.5541 73.8631C33.2346 73.923 32.806 73.9132 32.3675 73.8935L32.3474 73.9135C31.8491 73.8938 31.3806 73.884 31.081 73.9439C30.7114 74.0338 30.64 74.2432 31.1647 74.7315C32.8967 76.3757 37.6 76.6925 36.1293 77.3612C34.6388 78.0099 31.7156 79.5664 31.7156 79.5664L31.7257 79.5565Z" fill="#999999"/>
<path d="M33.5442 73.8531L32.3576 73.8835L32.3375 73.9035L31.0711 73.934C31.0711 73.934 -34.2927 48.3423 -36.4712 54.1854C-36.6576 52.4907 -35.5823 51.3836 -33.7758 51.1336C-32.8277 51.0035 -31.672 51.1027 -30.4088 51.4909L30.632 70.1159C30.632 70.1159 33.9753 72.2578 34.116 73.4042C34.1339 73.6634 33.9036 73.7931 33.5442 73.8531Z" fill="#666666"/>
<path d="M16.1014 74.7869L4.70288 71.3028L-5.4026 68.2169C-5.4026 68.2169 0.445757 64.8445 0.197649 60.817L7.6276 63.0767L16.1014 74.7869Z" fill="#666666"/>
<path d="M62.2286 84.2167C62.2286 84.2167 54.7708 80.4018 49.4354 72.8374C44.1001 65.273 30.7978 65.618 28.8662 74.3422C26.9346 83.0664 35.3083 89.6523 45.8714 87.6935C56.4345 85.7347 62.2385 84.2266 62.2385 84.2266L62.2286 84.2167Z" fill="#C43510"/>
<g opacity="0.3">
<path fill-rule="evenodd" clip-rule="evenodd" d="M226 159L270 186.396H226V159Z" stroke="#D8D8D8" stroke-width="1.5"/>
<g clip-path="url(#clip1_432_1534)">
<rect x="226" y="181.415" width="4.98113" height="4.98113" stroke="#D8D8D8" stroke-width="1.5"/>
<path d="M240.698 178.881L239.655 178.887C239.691 178.551 239.761 178.254 239.866 177.996C239.976 177.738 240.118 177.5 240.294 177.281C240.47 177.062 240.683 176.842 240.933 176.619C241.12 176.451 241.306 176.281 241.489 176.109C241.677 175.937 241.837 175.75 241.97 175.547C242.107 175.34 242.192 175.101 242.228 174.832C242.255 174.601 242.239 174.392 242.181 174.205C242.122 174.017 242.017 173.867 241.864 173.754C241.712 173.64 241.513 173.58 241.267 173.572C241.013 173.564 240.784 173.607 240.581 173.701C240.378 173.795 240.208 173.931 240.071 174.111C239.939 174.287 239.847 174.498 239.796 174.744L238.741 174.75C238.796 174.301 238.944 173.916 239.187 173.596C239.429 173.275 239.735 173.033 240.107 172.869C240.482 172.701 240.89 172.621 241.331 172.629C241.765 172.64 242.136 172.738 242.444 172.922C242.757 173.101 242.989 173.353 243.142 173.678C243.298 174.002 243.357 174.381 243.317 174.814C243.282 175.193 243.171 175.535 242.983 175.84C242.8 176.144 242.573 176.424 242.304 176.678C242.038 176.931 241.769 177.172 241.495 177.398C241.257 177.594 241.075 177.814 240.95 178.06C240.829 178.306 240.745 178.58 240.698 178.881ZM239.239 180.756C239.243 180.572 239.302 180.42 239.415 180.299C239.532 180.174 239.683 180.109 239.866 180.105C240.05 180.101 240.2 180.158 240.317 180.275C240.435 180.392 240.491 180.543 240.487 180.726C240.487 180.906 240.429 181.056 240.312 181.178C240.194 181.295 240.044 181.355 239.86 181.359C239.681 181.363 239.532 181.308 239.415 181.195C239.298 181.082 239.239 180.935 239.239 180.756Z" fill="#D8D8D8"/>
</g>
</g>
<path opacity="0.3" d="M263.134 102.26L266.14 95.4688H267.522L263.643 104H262.237L261.716 100.936H260.391L260.632 99.5527H262.817L263.134 102.26ZM269.551 98.9844L270.342 98.9902C270.744 98.9902 271.08 98.8789 271.35 98.6562C271.623 98.4336 271.781 98.1348 271.824 97.7598C271.863 97.4434 271.803 97.1914 271.643 97.0039C271.482 96.8125 271.242 96.7129 270.922 96.7051C270.602 96.6973 270.326 96.7852 270.096 96.9688C269.869 97.1484 269.73 97.3828 269.68 97.6719L268.027 97.6836C268.062 96.9961 268.357 96.4336 268.912 95.9961C269.471 95.5547 270.148 95.3379 270.945 95.3457C271.75 95.3613 272.387 95.5859 272.855 96.0195C273.324 96.4531 273.537 97.0273 273.494 97.7422C273.439 98.5547 272.922 99.1914 271.941 99.6523C272.324 99.8359 272.604 100.098 272.779 100.438C272.959 100.773 273.037 101.148 273.014 101.562C272.986 102.078 272.828 102.531 272.539 102.922C272.25 103.312 271.863 103.613 271.379 103.824C270.895 104.031 270.371 104.129 269.809 104.117C269.047 104.109 268.426 103.881 267.945 103.432C267.465 102.982 267.229 102.391 267.236 101.656H268.877C268.869 101.973 268.957 102.232 269.141 102.436C269.328 102.635 269.588 102.738 269.92 102.746C270.303 102.754 270.631 102.646 270.904 102.424C271.178 102.197 271.338 101.902 271.385 101.539C271.436 101.148 271.365 100.85 271.174 100.643C270.986 100.436 270.699 100.326 270.312 100.314L269.34 100.309L269.551 98.9844ZM279.788 104H274.105L274.298 102.77L277.327 99.9277C277.948 99.3457 278.36 98.873 278.564 98.5098C278.767 98.1465 278.843 97.791 278.792 97.4434C278.71 96.959 278.431 96.7109 277.954 96.6992C277.579 96.6914 277.265 96.8223 277.011 97.0918C276.761 97.3613 276.609 97.7148 276.554 98.1523L274.901 98.1582C274.933 97.627 275.091 97.1445 275.376 96.7109C275.661 96.2773 276.04 95.9414 276.513 95.7031C276.989 95.4609 277.503 95.3418 278.054 95.3457C278.847 95.3613 279.464 95.584 279.905 96.0137C280.347 96.4434 280.542 97.0156 280.491 97.7305C280.429 98.5352 279.954 99.375 279.068 100.25L278.224 101.053L276.478 102.623L280.005 102.635L279.788 104Z" fill="#D8D8D8"/>
<path opacity="0.3" d="M157.741 11C157.69 10.8398 157.669 10.6484 157.677 10.4258C157.2 10.9023 156.661 11.1328 156.059 11.1172C155.505 11.1094 155.044 10.9297 154.677 10.5781C154.313 10.2227 154.143 9.78516 154.167 9.26562C154.194 8.57422 154.483 8.04492 155.034 7.67773C155.589 7.30664 156.331 7.12109 157.261 7.12109L158.034 7.13281L158.116 6.75195C158.14 6.62305 158.145 6.5 158.134 6.38281C158.114 6.19922 158.044 6.05664 157.923 5.95508C157.806 5.84961 157.649 5.79492 157.454 5.79102C157.196 5.7832 156.977 5.84766 156.798 5.98438C156.618 6.11719 156.503 6.31055 156.452 6.56445L154.794 6.57031C154.821 5.96484 155.099 5.47461 155.626 5.09961C156.157 4.7207 156.811 4.53516 157.589 4.54297C158.307 4.55859 158.87 4.77344 159.276 5.1875C159.682 5.59766 159.852 6.12695 159.786 6.77539L159.3 9.81055L159.27 10.1855C159.263 10.4629 159.296 10.6973 159.37 10.8887L159.364 11H157.741ZM156.47 9.83398C156.946 9.84961 157.362 9.64258 157.718 9.21289L157.923 8.11719L157.349 8.11133C156.739 8.12695 156.3 8.3125 156.03 8.66797C155.932 8.79688 155.872 8.95508 155.849 9.14258C155.817 9.35352 155.86 9.52148 155.977 9.64648C156.099 9.76758 156.263 9.83008 156.47 9.83398ZM164.814 6.22461H166.865L166.596 7.75391H164.551L164.135 10.1445H162.559L162.975 7.75391H160.912L161.182 6.22461H163.238L163.637 3.93359H165.213L164.814 6.22461ZM173.446 7.84766C173.329 8.84766 173.025 9.64844 172.532 10.25C172.04 10.8516 171.403 11.1426 170.622 11.123C169.954 11.1074 169.446 10.8379 169.099 10.3145L168.859 11H167.353L168.911 2H170.569L169.931 5.24023C170.376 4.75977 170.892 4.52734 171.478 4.54297C172.091 4.55078 172.571 4.77148 172.919 5.20508C173.271 5.63477 173.458 6.23047 173.482 6.99219C173.489 7.23438 173.478 7.51953 173.446 7.84766ZM171.806 7.72461C171.841 7.39258 171.853 7.13477 171.841 6.95117C171.798 6.27148 171.517 5.92578 170.997 5.91406C170.509 5.89844 170.105 6.11914 169.784 6.57617L169.327 9.0957C169.476 9.51758 169.792 9.73633 170.276 9.75195C171.089 9.77539 171.587 9.18555 171.771 7.98242L171.806 7.72461ZM160.167 21.8477C160.05 22.8477 159.745 23.6484 159.253 24.25C158.761 24.8516 158.124 25.1426 157.343 25.123C156.675 25.1074 156.167 24.8379 155.819 24.3145L155.579 25H154.073L155.632 16H157.29L156.651 19.2402C157.097 18.7598 157.612 18.5273 158.198 18.543C158.811 18.5508 159.292 18.7715 159.64 19.2051C159.991 19.6348 160.179 20.2305 160.202 20.9922C160.21 21.2344 160.198 21.5195 160.167 21.8477ZM158.526 21.7246C158.561 21.3926 158.573 21.1348 158.561 20.9512C158.518 20.2715 158.237 19.9258 157.718 19.9141C157.229 19.8984 156.825 20.1191 156.505 20.5762L156.048 23.0957C156.196 23.5176 156.513 23.7363 156.997 23.752C157.809 23.7754 158.307 23.1855 158.491 21.9824L158.526 21.7246ZM165.119 20.2246H167.17L166.9 21.7539H164.855L164.439 24.1445H162.863L163.279 21.7539H161.217L161.486 20.2246H163.543L163.941 17.9336H165.518L165.119 20.2246ZM171.325 25C171.275 24.8398 171.253 24.6484 171.261 24.4258C170.784 24.9023 170.245 25.1328 169.644 25.1172C169.089 25.1094 168.628 24.9297 168.261 24.5781C167.898 24.2227 167.728 23.7852 167.751 23.2656C167.778 22.5742 168.068 22.0449 168.618 21.6777C169.173 21.3066 169.915 21.1211 170.845 21.1211L171.618 21.1328L171.7 20.752C171.724 20.623 171.73 20.5 171.718 20.3828C171.698 20.1992 171.628 20.0566 171.507 19.9551C171.39 19.8496 171.234 19.7949 171.038 19.791C170.78 19.7832 170.562 19.8477 170.382 19.9844C170.202 20.1172 170.087 20.3105 170.036 20.5645L168.378 20.5703C168.405 19.9648 168.683 19.4746 169.21 19.0996C169.741 18.7207 170.396 18.5352 171.173 18.543C171.892 18.5586 172.454 18.7734 172.86 19.1875C173.267 19.5977 173.437 20.127 173.37 20.7754L172.884 23.8105L172.855 24.1855C172.847 24.4629 172.88 24.6973 172.954 24.8887L172.948 25H171.325ZM170.054 23.834C170.53 23.8496 170.946 23.6426 171.302 23.2129L171.507 22.1172L170.933 22.1113C170.323 22.127 169.884 22.3125 169.614 22.668C169.517 22.7969 169.456 22.9551 169.433 23.1426C169.401 23.3535 169.444 23.5215 169.562 23.6465C169.683 23.7676 169.847 23.8301 170.054 23.834Z" fill="#D8D8D8"/>
<path opacity="0.3" d="M84.4255 72.1523C84.3591 72.7422 84.1579 73.2656 83.822 73.7227C83.4861 74.1758 83.0486 74.5254 82.5095 74.7715C81.9704 75.0137 81.3884 75.1289 80.7634 75.1172C80.2009 75.1055 79.7107 74.9766 79.2927 74.7305C78.8747 74.4805 78.5447 74.1211 78.3025 73.6523C78.0642 73.1797 77.9294 72.6367 77.8982 72.0234C77.8708 71.543 77.9197 70.9453 78.0447 70.2305C78.1736 69.5156 78.4001 68.8809 78.7244 68.3262C79.0525 67.7715 79.4412 67.332 79.8904 67.0078C80.5232 66.5547 81.2458 66.3359 82.0583 66.3516C82.9412 66.3672 83.6404 66.6406 84.156 67.1719C84.6755 67.6992 84.9607 68.4336 85.0115 69.375L83.3005 69.3691C83.3005 68.8301 83.1931 68.4355 82.9783 68.1855C82.7634 67.9355 82.4294 67.8027 81.9763 67.7871C81.3904 67.7676 80.9079 67.9766 80.529 68.4141C80.154 68.8516 79.9021 69.4902 79.7732 70.3301C79.6482 71.1465 79.5935 71.7578 79.6091 72.1641C79.6287 72.6797 79.7439 73.0605 79.9548 73.3066C80.1658 73.5488 80.4607 73.6758 80.8396 73.6875C81.363 73.707 81.781 73.584 82.0935 73.3184C82.4099 73.0488 82.6189 72.6641 82.7204 72.1641L84.4255 72.1523ZM91.3114 70.6289H86.2196L86.4657 69.2461H91.5575L91.3114 70.6289ZM90.8719 73.166H85.7801L86.0262 71.7832H91.118L90.8719 73.166ZM98.0039 75H92.3203L92.5137 73.7695L95.543 70.9277C96.1641 70.3457 96.5762 69.873 96.7793 69.5098C96.9824 69.1465 97.0586 68.791 97.0078 68.4434C96.9258 67.959 96.6465 67.7109 96.1699 67.6992C95.7949 67.6914 95.4805 67.8223 95.2266 68.0918C94.9766 68.3613 94.8242 68.7148 94.7695 69.1523L93.1172 69.1582C93.1484 68.627 93.3066 68.1445 93.5918 67.7109C93.877 67.2773 94.2559 66.9414 94.7285 66.7031C95.2051 66.4609 95.7187 66.3418 96.2695 66.3457C97.0625 66.3613 97.6797 66.584 98.1211 67.0137C98.5625 67.4434 98.7578 68.0156 98.707 68.7305C98.6445 69.5352 98.1699 70.375 97.2832 71.25L96.4395 72.0527L94.6934 73.623L98.2207 73.6348L98.0039 75ZM106.735 69.9551H105.763L105.235 73.0312C105.212 73.2305 105.228 73.3828 105.282 73.4883C105.337 73.5938 105.47 73.6504 105.681 73.6582C105.802 73.6621 105.97 73.6504 106.185 73.623L106.068 74.918C105.794 75.0156 105.48 75.0605 105.124 75.0527C104.589 75.0449 104.185 74.877 103.911 74.5488C103.642 74.2207 103.532 73.7695 103.583 73.1953L104.11 69.9551H102.552L101.679 75H100.021L100.9 69.9551H99.8917L100.114 68.6602H106.964L106.735 69.9551ZM110.944 71.877H109.549L109.004 75H107.287L108.77 66.4688L111.594 66.4746C112.539 66.4746 113.266 66.6973 113.774 67.1426C114.285 67.5879 114.512 68.207 114.453 69C114.371 70.1719 113.746 70.9863 112.578 71.4434L113.78 74.9062V75H111.951L110.944 71.877ZM109.795 70.4531L111.073 70.4648C111.526 70.457 111.899 70.3359 112.192 70.1016C112.489 69.8633 112.666 69.541 112.725 69.1348C112.78 68.7559 112.719 68.459 112.543 68.2441C112.367 68.0293 112.088 67.9141 111.705 67.8984L110.24 67.8926L109.795 70.4531Z" fill="#D8D8D8"/>
<path opacity="0.3" d="M11.2455 16.916L11.7729 13.6406C11.8002 13.3984 11.7768 13.1855 11.7026 13.002C11.6323 12.8184 11.5131 12.6758 11.3452 12.5742C11.1811 12.4727 10.9741 12.418 10.7241 12.4102C10.5053 12.4062 10.2905 12.4414 10.0795 12.5156C9.8725 12.5898 9.69281 12.7012 9.54046 12.8496C9.38812 12.998 9.28851 13.1855 9.24164 13.4121L8.18695 13.418C8.21429 13.1016 8.3139 12.8262 8.48578 12.5918C8.65765 12.3535 8.8725 12.1562 9.13031 12C9.38812 11.8398 9.66546 11.7227 9.96234 11.6484C10.2592 11.5703 10.5483 11.5332 10.8295 11.5371C11.2553 11.5449 11.6244 11.6367 11.9369 11.8125C12.2534 11.9844 12.4916 12.2266 12.6518 12.5391C12.8119 12.8516 12.8705 13.2266 12.8276 13.6641L12.3412 16.6172C12.3061 16.832 12.2846 17.0488 12.2768 17.2676C12.2729 17.4824 12.2983 17.6934 12.353 17.9004L12.3412 18L11.269 18.0059C11.226 17.8262 11.2045 17.6445 11.2045 17.4609C11.2084 17.2773 11.2221 17.0957 11.2455 16.916ZM11.8959 14.1562L11.7729 14.918L10.7709 14.9121C10.56 14.9121 10.3373 14.9277 10.103 14.959C9.86859 14.9902 9.64593 15.0488 9.435 15.1348C9.22406 15.2207 9.04632 15.3457 8.90179 15.5098C8.75726 15.6699 8.66937 15.8789 8.63812 16.1367C8.61468 16.3477 8.64007 16.5312 8.71429 16.6875C8.79242 16.8398 8.9096 16.959 9.06585 17.0449C9.2221 17.1309 9.40375 17.1758 9.61078 17.1797C9.88031 17.1836 10.1459 17.1309 10.4077 17.0215C10.6694 16.9121 10.8979 16.7559 11.0932 16.5527C11.2885 16.3496 11.4233 16.1152 11.4975 15.8496L11.8842 16.3711C11.81 16.6289 11.6889 16.8672 11.5209 17.0859C11.353 17.3008 11.1537 17.4863 10.9233 17.6426C10.6967 17.7988 10.4526 17.9199 10.1909 18.0059C9.92914 18.0918 9.66742 18.1328 9.4057 18.1289C9.05023 18.1211 8.72796 18.041 8.4389 17.8887C8.15375 17.7363 7.92718 17.5234 7.75921 17.25C7.59515 16.9727 7.52484 16.6504 7.54828 16.2832C7.57171 15.8809 7.67718 15.543 7.86468 15.2695C8.05218 14.9961 8.29242 14.7773 8.58539 14.6133C8.88226 14.4492 9.20648 14.332 9.55804 14.2617C9.9096 14.1875 10.2573 14.1504 10.601 14.1504L11.8959 14.1562ZM10.1498 9.72656C10.1537 9.49219 10.2143 9.2793 10.3315 9.08789C10.4487 8.89648 10.6049 8.74414 10.8002 8.63086C10.9955 8.51367 11.2084 8.45508 11.4389 8.45508C11.767 8.45508 12.0424 8.57031 12.2651 8.80078C12.4877 9.03125 12.5971 9.30859 12.5932 9.63281C12.5893 9.86719 12.5287 10.0801 12.4116 10.2715C12.2944 10.459 12.1381 10.6074 11.9428 10.7168C11.7475 10.8262 11.5346 10.8809 11.3041 10.8809C10.976 10.8809 10.7006 10.7715 10.478 10.5527C10.2553 10.3301 10.1459 10.0547 10.1498 9.72656ZM10.7123 9.71484C10.6967 9.88281 10.7397 10.0312 10.8412 10.1602C10.9428 10.2891 11.0815 10.3535 11.2573 10.3535C11.4487 10.3535 11.6186 10.2832 11.767 10.1426C11.9194 9.99805 12.0053 9.83203 12.0248 9.64453C12.0483 9.47266 12.0092 9.32031 11.9077 9.1875C11.8061 9.05469 11.6655 8.98828 11.4858 8.98828C11.2905 8.98828 11.1186 9.0625 10.9702 9.21094C10.8217 9.35938 10.7358 9.52734 10.7123 9.71484ZM16.192 11.4785L15.0845 18H14.0298L15.1431 11.4844C15.19 11.1289 15.2779 10.793 15.4068 10.4766C15.5396 10.1602 15.7134 9.88086 15.9283 9.63867C16.1431 9.39648 16.4009 9.20898 16.7017 9.07617C17.0025 8.94336 17.3482 8.88086 17.7388 8.88867C18.1295 8.90039 18.4713 8.98242 18.7642 9.13477C19.0572 9.2832 19.2798 9.5 19.4322 9.78516C19.5845 10.0703 19.6451 10.4141 19.6138 10.8164C19.5904 11.0625 19.5298 11.2852 19.4322 11.4844C19.3345 11.6836 19.2232 11.875 19.0982 12.0586C18.9732 12.2422 18.858 12.4297 18.7525 12.6211C18.647 12.8125 18.5748 13.0215 18.5357 13.248C18.5006 13.4707 18.5279 13.6738 18.6177 13.8574C18.7076 14.0371 18.8287 14.2109 18.981 14.3789C19.1334 14.543 19.2877 14.7109 19.4439 14.8828C19.6041 15.0508 19.7369 15.2324 19.8423 15.4277C19.9478 15.623 19.9927 15.8438 19.9771 16.0898C19.9537 16.5352 19.8287 16.9121 19.6021 17.2207C19.3756 17.5254 19.0826 17.7539 18.7232 17.9062C18.3638 18.0586 17.9713 18.1328 17.5455 18.1289C17.358 18.125 17.1646 18.1074 16.9654 18.0762C16.7701 18.0488 16.5767 18.0039 16.3853 17.9414C16.1978 17.8789 16.022 17.7988 15.858 17.7012L16.1802 16.7871C16.3638 16.916 16.567 17.0234 16.7896 17.1094C17.0123 17.1914 17.2388 17.2344 17.4693 17.2383C17.7037 17.2422 17.9263 17.2051 18.1373 17.127C18.3482 17.0449 18.524 16.9238 18.6646 16.7637C18.8091 16.5996 18.899 16.3945 18.9341 16.1484C18.9654 15.918 18.9322 15.7109 18.8345 15.5273C18.7408 15.3438 18.6158 15.168 18.4595 15C18.3033 14.832 18.1451 14.6621 17.9849 14.4902C17.8287 14.3184 17.6998 14.1328 17.5982 13.9336C17.4966 13.7305 17.4556 13.5 17.4752 13.2422C17.4947 13.0156 17.5552 12.8086 17.6568 12.6211C17.7623 12.4297 17.8814 12.2461 18.0142 12.0703C18.147 11.8906 18.2681 11.709 18.3775 11.5254C18.4869 11.3379 18.5572 11.1309 18.5884 10.9043C18.6158 10.7012 18.6021 10.5156 18.5474 10.3477C18.4927 10.1758 18.397 10.0371 18.2603 9.93164C18.1275 9.82617 17.9517 9.76953 17.733 9.76172C17.397 9.75 17.1236 9.82812 16.9127 9.99609C16.7017 10.1641 16.5396 10.3828 16.4263 10.6523C16.3131 10.918 16.2349 11.1934 16.192 11.4785Z" fill="#D8D8D8"/>
</g>
<defs>
<clipPath id="clip0_432_1534">
<rect width="320" height="194" fill="white"/>
</clipPath>
<clipPath id="clip1_432_1534">
<rect width="17.434" height="14.1132" fill="white" transform="translate(226 172.283)"/>
</clipPath>
</defs>
</svg>
