<svg xmlns="http://www.w3.org/2000/svg" width="320" height="194" fill="none"><g clip-path="url(#a)"><path fill="#FEFEF6" d="M0 0h320v194H0z"/><path stroke="#E3BD00" stroke-miterlimit="10" stroke-width="2" d="M47.96 46.91S24.93 114.57 20.26 160"/><path fill="#F9D563" d="M53.88 26.72a15.6 15.6 0 0 1-9.47-2.5c-13.93-8.85-17.69-33.83-2.13-42.84C56.92-28.3 77.62-15.83 75.7 1.82c-1 11.22-10.6 24.1-21.82 24.9Z"/><path fill="#C3213C" d="M53.88 26.72C39.91 27.3 31.14 10.49 32.1-1.94a21.93 21.93 0 0 1 23.7-19.94C36.2-6.36 63.64 26.26 75.36 4.28c-1.96 10.34-11.1 21.77-21.48 22.44Z" opacity=".13"/><path fill="#C3213C" d="M71.82 13.58c-4 7-10.68 12.68-17.94 13.14-21.28.12-30.16-35.04-11.6-45.34 0 0-14.51 24.1 11.64 34.24 7.3 2.8 13.73.55 17.9-2.04Z" opacity=".13"/><path fill="#F9D563" d="M-.66 47.71a19.5 19.5 0 0 1-11.85-3.13C-29.95 33.5-34.64 2.25-15.18-9.02c18.33-12.11 44.21 3.5 41.81 25.57-1.25 14.04-13.25 30.17-27.3 31.16Z"/><path fill="#EADF59" d="M8.07 3.03C7.78-.27 9.32-3.11 11.5-3.3c2.18-.19 4.19 2.33 4.48 5.64.28 3.3-1.25 6.13-3.43 6.32-2.19.2-4.19-2.33-4.48-5.63Z" opacity=".45"/><path fill="#C3213C" d="M-.66 47.71c-17.49.73-28.45-20.3-27.25-35.86A27.44 27.44 0 0 1 1.74-13.1c-24.54 19.42 9.8 60.24 24.48 32.73C23.76 32.57 12.33 46.88-.66 47.71Z" opacity=".13"/><path fill="#C3213C" d="M21.78 31.27C16.77 40.04 8.42 47.14-.66 47.7c-26.62.16-37.74-43.84-14.51-56.74 0 0-18.17 30.17 14.56 42.86 9.13 3.5 17.17.67 22.39-2.56Z" opacity=".13"/><path fill="#4398B5" d="M51.19 65.97a3.41 3.41 0 0 1-1.42-4.6c.15-.3.37-.6.63-.9l1.83-1.82c.64.44 1.28.86 1.99 1.23.7.37 1.42.67 2.16.9l-.07.56-.19 1.83a3.44 3.44 0 0 1-4.93 2.8Z"/><path fill="#4F596C" d="M56.35 61.34s-.83-.08-1.5-.49c-.37-.22-.75-.07-1 .08l-1.1 2.13-.3-.15 1.13-2.17c0-.79-.6-.56-1.12-.19l-2.02 2.25-.22-.23 1.75-1.94c.53-1.27-1.57-.19-1.57-.19l1.83-1.83c.64.45 1.28.86 1.99 1.23.7.38 1.42.68 2.16.9l-.03.6Z" opacity=".25"/><path fill="#3C8FC5" d="M86.52 45.86c-4.75 9.23-16.67 16.94-26.84 15.78-23.3-3.63-19.82-45.14 2.87-47.9 4.72-.9 9.73-.26 14.33 2.1a22.29 22.29 0 0 1 9.64 30.02Z"/><path fill="#253A62" d="M59.68 61.67c-23.3-3.62-19.82-45.13 2.87-47.9-15.18 9.54 15.19 16.3 3.63 32.39-2.1 2.58-5.3 4.26-6.92 7.21a8.44 8.44 0 0 0 .42 8.3Z" opacity=".25"/><path fill="#7CD1D1" d="M76.8 35.08c-2.1-.34-3.41-3.12-2.92-6.22.5-3.1 2.6-5.34 4.7-5 2.1.33 3.4 3.11 2.9 6.21-.48 3.1-2.59 5.34-4.69 5ZM77.74 39.62c-.66-.6-.48-1.86.4-2.83.87-.96 2.1-1.26 2.77-.66.65.6.48 1.86-.4 2.83-.87.96-2.11 1.26-2.77.66Z" opacity=".45"/><path fill="#EE7782" d="M36.45 74.01a4.14 4.14 0 0 1-4.13-4.13c0-.41.05-.87.23-1.29l.96-2.93c.92.13 1.89.22 2.85.22.96 0 1.93-.09 2.85-.22l.27.64.83 2.06a4.15 4.15 0 0 1-3.86 5.65Z"/><path fill="#C3213C" d="M36.54 67.26v2.85h-.4v-2.9c-.42-.87-.97-.22-1.34.47l-.96 3.44-.37-.1.82-3.02c-.13-1.66-1.79.64-1.79.64l.97-2.94c.96.14 1.88.23 2.84.23.97 0 1.93-.1 2.85-.23l.28.64s-.92.37-1.89.33c-.5-.1-.82.27-1 .6Z" opacity=".13"/><path fill="#FFCEE8" d="M39.2 65.66c-.96.13-1.88.22-2.84.22s-1.93-.09-2.85-.22a20.08 20.08 0 0 1-6.38-2.12C16.53 58.13 9 44.12 9 32.24c0-8.96 4.27-16.9 10.93-21.86A27.36 27.36 0 0 1 63.58 35.4c-.41 4-1.6 8.08-3.4 11.94-4.26 9.18-11.98 16.94-20.97 18.31Z"/><path fill="#FFFEFE" d="M42.38 24.05c-1.27-3.96-.17-7.85 2.46-8.7 2.63-.84 5.8 1.68 7.07 5.64 1.27 3.96.17 7.86-2.46 8.7-2.63.85-5.8-1.68-7.07-5.64ZM52 32.74c-.86-.44-1-1.86-.33-3.16.67-1.31 1.9-2.02 2.76-1.58.86.44 1.01 1.86.34 3.17-.67 1.3-1.91 2.01-2.77 1.57Z" opacity=".45"/><path fill="#F4546F" d="M39.2 65.66c-.96.13-1.88.22-2.84.22s-1.93-.09-2.85-.22a20.08 20.08 0 0 1-6.38-2.12C16.53 58.13 9 44.12 9 32.24c0-8.96 4.27-16.9 10.93-21.86a27.36 27.36 0 0 1 16.48-5.5S23 16.4 33.24 34.94c4.86 8.82 24.56 18.23 30.39.42-.41 4-1.6 8.08-3.4 11.93-4.31 9.23-12.03 16.99-21.02 18.37Z" opacity=".13"/><path fill="#EA3351" d="M60.19 47.34C55.92 56.52 48.2 64.28 39.2 65.65c-.97.14-1.89.23-2.85.23a20.08 20.08 0 0 1-9.23-2.34C16.53 58.13 9 44.13 9 32.24c0-8.96 4.27-16.9 10.93-21.86 0 0-6.2 31.9 18.17 41.41 9.1 3.58 17.17-.78 22.09-4.45Z" opacity=".13"/><path fill="#E3BD00" d="M39.28 64.3c.88 0 1.75-.12 2.46-.5l-.58-1.12c-1.34.67-3.88.2-4.76-.04l-.33 1.2c.08.05 1.62.47 3.2.47ZM56.63 61.39l.3-1.21c-3.18-.8-4.1-2.63-4.13-2.67l-1.13.54c.04.08 1.2 2.42 4.96 3.34Z"/><path stroke="#E3BD00" stroke-miterlimit="10" stroke-width="2" d="M54.46 59.13s-16.52 82.77-35.83 99.74M39.45 62.89S11.08 140.02 17.3 158.7"/><path fill="#474C2F" d="M86 111.36c-.54 2.67-1.93 5.11-3.27 7.46-1 1.51-1.83 3.33-3.09 4.6l-.26-.01-.1-.18-1.66-3.05s3.59-12.17 7.12-11.62c1.34.22 1.52 1.59 1.29 2.8H86Z"/><path fill="#676D54" d="M86.01 111.36c-.4 2.08-1.4 4.02-2.39 5.88-1.23 2.08-2.38 4.42-3.98 6.19l-.26-.02-.1-.17c2.06-3.3 9.2-13.31 4.63-15.05l.3.08.02-.02c1.65.53 2.12 1.48 1.79 3.11Z"/><path fill="#2B6B40" d="M89.44 254.06c0 .23-.01.43-.07.6-.1.42-.35.7-.72.9l-.01.02-.28.12-.33.11c-.1.03-.2.06-.31.07l-.06.02c-.07 0-.13.02-.2.03l-.2.03-.1.01c-.6.08-1.28.1-2.02.12l-.3.01c-2.76.1-6.21.27-8.8 2.79-2.72 2.63-.65 7.4-3.82 11.09a16.92 16.92 0 0 1-3.24 2.87 27.96 27.96 0 0 1-2.54 1.54l-.03.02-.88.46-.88.41-.9.4c-.6.24-1.2.48-1.8.7l-.05.01c-.3.11-.59.21-.9.3l-.9.3-.07.02c-.6.2-1.21.37-1.81.52l-1.14.3c-.5.13-1 .24-1.5.35-16.51.08-12.78 3.66-21.5.6-16.78-5.9-14.28 7.03-28.93 5-.94-.13-1.94-.31-3.02-.58h-.01a60.36 60.36 0 0 0-11.85-1.6c-4.72-.3-9.46-.31-14.19-.47-1.72-.06-3.48 0-5-.24a.24.24 0 0 0-.06-.01l-.31-.06-.23-.05-.3-.08-.1-.02-.3-.1a4.44 4.44 0 0 1-2.24-1.66c-.7-1.08-1.06-2.67-.9-5.05.09-1.35.34-2.95.8-4.85-1.47.2-4.61.98-7.4.45l-.05-.01a6.13 6.13 0 0 1-3.38-1.72l-.1-.1-.18-.2a5.91 5.91 0 0 1-1.15-2.2c-.67-2.14-.04-5.67.82-9.28l1.04-4.22.39-1.61c5.12-22.2 21.91-150.86 24.78-172.94a9.35 9.35 0 0 1 5.08-3.12l76.98 1.7 2.85.07c6.93 8.22 10.77 21.35 11.43 32.5 1.56 26.8.3 52.58 1.87 79.38l9.02 66.35Z"/><g opacity=".33"><path fill="#8D9280" d="m-12.66 74.06 76.87 1.62c6.5 7.7 8.78 18.7 9.39 29.23 1.84 31.86 8.03 84.88 13.41 131.32l2.42 17.83c0 .38-.06.72-.24 1.02-1.3 1.4-3.5.83-5.2 1.05-9.82-14.6-16.16 8.96-15 20.9-3.26 2.26-16.78.55-20.55 1.56-.78-6.6-7.44-32.1-11.4-38.91-17.16-28.8-26.63 31.17-31.88 44.1-9.53-2.35-19.33-2.48-29.07-2.65-2.88-.2-6.57.52-8.54-2.22-.8-1.29-1.03-2.66-.9-5.04 5.99-1.05 12.34-2.27 17.03-6.66 2.57-2.15 4.94-6.32 2.74-9.6-1.83-2.32-5.09-1.9-7.56-1.26-6.96 1.75-12.36 7.28-16.39 13.29-6.64.35-8.73-4.68-6.98-11.3 7.22-26.92 22.93-153.55 26.74-181.16a9.41 9.41 0 0 1 5.11-3.12Z" opacity=".4" style="mix-blend-mode:multiply"/></g><path fill="#3B754B" d="m81.81 147-2.38 22.4-2.2 61.3-2.51 9.03c-1.3.49-2.22 3.04-2.35 4.54-.13 1.5.35 2.7 1.73 2.62 13.07-.67 15.06 5.03 15.34 7.17L81.8 146.99Z"/><path fill="#3E8E5B" d="m87.76 240.52-.47-.22c-.5-.21-1.05-.38-1.67-.5l-.36-.07a15.94 15.94 0 0 0-3.67-.14h-.13c-4.35.32-8.93 2.04-9.07 4.81 0-1.35 1.2-56.6-.73-104.48-.13-3.47-.3-6.9-.46-10.27v-.06l-.3-5.36c-.88-14.87-2.13-28.23-3.93-37.91l9.74-1.47a702.1 702.1 0 0 1 4.83 51.14v.11l.12 1.96.1 1.93.2 3.83.25 5.6.12 3.2c.2 5.08.33 9.97.43 14.65l.07 3.64.05 2.61.05 3.17.01.33.04 2.78.1 8.7.01 1.63.04 2.8.02 2.47a782.9 782.9 0 0 0 .27 12.93 278.53 278.53 0 0 0 .57 11.6c.1 1.26.2 2.49.32 3.68l.02.17c.12 1.25.26 2.45.42 3.63v.07a63.28 63.28 0 0 0 3 13.04Z"/><path fill="#3B754B" d="M87.76 240.52a9.2 9.2 0 0 0-2.14-.73l-.36-.06a15.94 15.94 0 0 0-3.67-.14h-.13c.69-4.61 3.02-94-9.8-99.67-.13-3.47-.3-6.9-.46-10.27v-.06c-.88-17.02-2.22-32.45-4.23-43.28l9.74-1.47A702.53 702.53 0 0 1 81.54 136v.11l.12 1.96.1 1.93.2 3.83.25 5.6.12 3.2a907 907 0 0 1 .43 14.65l.07 3.64.05 2.61.05 3.17.01.33.04 2.78.1 8.7.01 1.63.04 2.8.02 2.47a782.74 782.74 0 0 0 .27 12.93 278.78 278.78 0 0 0 .57 11.6c.1 1.26.2 2.49.32 3.67l.02.18a111.08 111.08 0 0 0 .43 3.7 54.52 54.52 0 0 0 3 13.04Z" opacity=".65"/><path fill="#3B754B" d="M81.54 136.1a58.23 58.23 0 0 0-4.93-7.27 26.99 26.99 0 0 0-4.24-4.28c-.12-.1-.7-.2-1.47-.31-.88-14.88-2.13-28.23-3.93-37.92l9.74-1.47A702.17 702.17 0 0 1 81.54 136v.12Z" opacity=".65"/><path fill="#00C55E" d="M30.57 204.33c-5.06-.6-10.07-1.68-15.2-1.94-5.4-.57-16.31-.6-20.52-4-.04-2.46 1.71-9.14 2.13-11.63 3.36.1 51 5.78 69.04 4.51-.02 2.12 1.01 5.02.69 7.1-4.62 1.75-9.78 1.34-14.34 3.29-7 2.51-14.69.75-21.8 2.67Z"/><path fill="#06B253" d="M-5.17 197.4c.43-1.94 1.66-8.72 2.14-10.64 3.37.11 51.01 5.78 69.05 4.52.05 1.56.48 3.62.68 5.38-4.53-1.94-9.28-.46-11.51 4.02-.77.23-1.5.51-2.26.79-2.2-3.82-8.05-3.22-7.73 1.64-3.35.45-6.8-.3-10.12.28-1.12-3.1-4.37-2.14-4.3.96-5.03-.51-9.98-1.67-15.06-1.92-1.36-2.63-4.95-3.5-6.42-.57-5.56-.7-14.85-1.1-14.5-4.46h.03Z" opacity=".5"/><path fill="#06B253" d="M-4.86 195.87c.55-2.77 1.44-7.55 1.83-9.1 3.37.1 51.01 5.77 69.05 4.5.05 1.64.62 4.4.8 6.2-.08-.05-2.65-2.82-6.7-.34-1.44.87-2.43 1.5-2.78 3.12-.82.1-1.64.25-2.42.51-6.36-4.9-12.67-1.45-13.65 2.5-.86 0-1.7-.04-2.55-.08-1.96-3.06-7.96-4.32-10.62.85-3.06-.56-6.16-1.01-9.27-1.33-1.56-1.82-6.79-5.52-14.53-1.43l-2.76-.38c-.02-.02 1.37-5.09-6.4-5.02Z" opacity=".4"/><path fill="#3E8E5B" d="M-3.86 188.16c1.47-9.9 1.82-20.06 5.52-29.43 19.65-.97 39.27 2.03 58.89.97 3.1 11.59 6.13 30.88 6.12 34.32 0 0-1.28.29-2.47.89-2.77 1.54-5.98 1.33-9.07 1.76-3.79 1.45-7.92 1.05-11.86 1.72-7.95 1.55-16.11 3.33-24.18 1.76-4.5-.05-5.12.21-7-2.16-.88-1.09-2.55-1.05-3.9-1.03-3.44.04-11.48-2.18-13.39-5 .3-1.31.96-2.52 1.34-3.8Z"/><path fill="#00C55E" d="M58.34 189.98c-.08-1.57-1.12-5.72.66-6.05 3.4-.63 3.19 8.24 4.83 11.15a14.7 14.7 0 0 1-4.9 1.25c-.19-2.12-.3-4.24-.6-6.36v.01ZM44.27 196.93c1.3-12.53 6.7-10.04 4.23.94-1.6.1-3.18.23-4.76.46.2-.46.4-.92.54-1.4ZM21.06 199.47c3.32-9.56 7.02-7.38 3.72 1.37-1.44.03-2.84-.32-4.23-.55.19-.26.36-.54.52-.82ZM6 187.26c1.21-1.11.8 6.93-.44 9.46a30.15 30.15 0 0 1-3.33-.76c.13-.4 2.94-7.87 3.77-8.7Z" opacity=".1"/><path fill="#3B754B" d="M-4.48 189.88c1.72-4.2 1.19-8.86 1.99-13.25.47-3.06 2.3-17.18 6.36-21.51 10.56-11.25 54.18 9.44 57.12 6.23 2.9 11.64 5.7 29.42 5.68 32.67.01 0-1.35.31-2.52.9-1.18-4.12-1.8-12.88-3.77-16.06-8.4-9.33-3.6 14.62-2.96 17.57-2.28-.12-4.27 1.1-6.51 1.24.4-5.2 1.59-18.8-3.55-17.97-4.34.68-3.86 8.6-11.37 20.07-2.6.4-5.24.66-7.85.92-.09-4.17 4.74-21.96-3.13-20.4-5.44 1-6.67 16-10.15 19.7-2.06-.15-2.68-3.1-5.18-3.01.6-6.66 4.82-16.81.27-18.78-4.53-1.95-5.21 5.7-10.91 16.62-1.9-.8-3.51-1.8-4.24-2.86.16-.71.45-1.42.72-2.1v.01Z" opacity=".4"/><path fill="#3B754B" d="M-4.48 189.88c1.72-4.2 1.19-8.86 1.99-13.25.47-3.06 1.53-10.72 3.81-17.18 1.91 1.7 17.93 10.17 24.3 11.23-4.65 3.18-6.7 8.61-8.36 13.76-1.6 4.8-3.47 9.57-4.23 14.61-.84-.98-1.8-2.11-3.33-2.05.6-6.65 4.82-16.8.27-18.77-4.53-1.96-5.22 5.7-10.91 16.61-1.9-.8-3.52-1.79-4.24-2.85.16-.72.45-1.43.71-2.1l-.01-.01ZM35.33 173.67h7.25c-4.47 8.73-6.3 18.3-11.28 26.71l-2.23.23c4.38-8.2 5.95-17.71 6.26-26.94Z" opacity=".4"/><path fill="#3B754B" d="M2 158.03c13.53 2.37 56.85 3.93 58.88 2.98l.48 1.72c-1.86 3.54-2.48 8.03-.57 11.68.1.18.37.45.14.6-10.23 4.6-21.84 5.4-32.94 4.85-17.97-.37-26.22-10.67-32.7 12.7-.18-.2-.34-.38-.48-.59 2.15-4.91 1.99-10.12 2.7-15.34.46-3.06 2.76-16.19 4.5-18.6Z" opacity=".4"/><path fill="#C6C7B3" d="M9.7 145.17c1.13-1.75-.09-8.08-.55-10.73-.84-.84-4.8-12.99-5.17-13.78-3.94-7.63-2.5-24.13-2.64-32.4.46.12 29.12-6.98 44.59-15.18.08.85 16.3 9.43 18.06 11.54-3.32 7.18.38 25.48-2.81 31.18-3.5 3.73-2.18 5.96-2.46 10.51-.12.9-6.74 14.35-3.43 20.81 1.3 4.33 5.36 10.7 6.54 14.85-.18 2.18-.88 10.21-.7 12.16-3.47.7-15.03 3.35-27.3 2.9-11.86.04-30.63-3.99-31.1-4.27-.72-.45-.52-1.36-.5-2.03-.14-3.61-.14-7.3-1.22-10.78 1.21-3.34 8.49-12.74 8.69-14.8v.02Z"/><path fill="#C2C2AC" d="M52.86 85.5c-2.12 1.86-4.87 3.49-7.78 3.41-5.88-.43-12.3-3.57-13.6-9.8 6.78 4.9 13.76 4.31 16.3-4.45.9.58 2.13 1.14 3.77 1.6.3.09.68 8.96 1.31 9.24Z"/><path fill="#BBB99D" d="M48.6 75.13c.63.32 1.38.64 2.26.92-.61.88-1.22 8.64-.8 11.43-1.7.95-3.58 1.67-5.55 1.4-.08-4.6 2.83-11.87 4.08-13.75Z"/><path fill="#C2C2AC" d="M1.27 86.4c2.26 1.06 14.18 4.23 17.67 5.21-11.73 26.44 16.14 41.67 39.7 35.1-.29.84-3.92 10.01-4.28 14.01-14.53 1.8-29.35 2.38-43.93 1.08.05-2.44-6.07-20.35-6.44-21.14-4.27-8.25-2.23-26.92-2.73-34.26Z"/><path fill="#BBB99D" d="M9.7 145.17c.18-.48.75-3.26.71-3.97 14.43 3 29.7 3.17 43.98-.74-.5 2.32 1.83 8.69 2.02 9.6-4.37-.52-4.74 4.25-9.34 3.84-25.1-2.8-25.88-4.87-45.1 11.35-.15-1.8-.38-3.57-.95-5.28 1.21-3.34 7.07-10.66 8.68-14.8Z"/><path fill="#BBB99D" d="M1.28 87.84c.15.07 10.63 3.6 11.67 4.03-9.8 26.23 8.5 37.57 19.11 43.91-7.11 2.07-23.06 1.37-23.2-.04-.28-2.91-3-11.06-4.87-15.09-3.82-8.2-2.62-21.21-2.71-32.81Z" opacity=".68"/><path fill="#BBB99D" d="M60.06 117.24c-1.23-2.44-6.39-3.23-4.63-3.06 2.33.22 3.5-9.12 3.4-10.2l-6.02-.68a36.5 36.5 0 0 1-1.76-1.96c-1.26 1.14-2.76 1.95-4.18 2.83-3.36 2.44-1.05 4.91 0 5.94 3.8 4 8.5 7.16 11.86 11.56-.14 1.7.36 3.44-.1 5.1-.28.83-1.39 5.05-1.83 6.27-1.48 3.9-3.65 8.38-2.06 12.49H9.64c1.42-3.87-1.56-14.12-2.34-15.52 1.85-4.44 4.95-5.55 8.17-8.69 2.3-2.32 31.24-21.07 33.55-22.61-2.37-3.29-4.5-7.06-5.09-9.85 3.33.62 6.6-1.18 9.02-3.34 4.62 1.84 7.7 5.24 10.75 8.88-3.31 7.14.7 15.72-2.5 21.4l-1.14 1.44Zm-18.79-9.22-17.59 10.24c.82 1.79-2.04 4.05-4.93 3.3-3.62 1.74-3.82 6.23-3.7 5.98-6.8 2.74-4.07 5.36 2.44 5.51 6.42 0 30.85 7.79 37.5-5.75 2.66-4.59-13.8-19.34-13.72-19.28Z"/><path fill="#CCD1C0" d="M33.27 77.1c2.11 3.23 9.47 4.47 11.9-.58 1.03-2.15 1.2-6.47-.46-6.2 1.6 2.3-4.24 5.73-11.45 6.77h.01ZM21.97 172.31c.7-12.38 9.95-12.45 20.87-12.16 8.01.2 8.22-5.18 14.54-7.62 6.5 10.57 3.55 10.44 3.74 21.6-2.02.42-4.05.83-6.09 1.2-1.77-3.97-12.98-9.23-19.16 1.76-4.65-.07-9.3-.52-13.9-1.09-.01-.52-.06-2.76 0-3.69Z"/><path fill="#BBB99D" d="M1.25 86.47c1.3 1.48 33.07 3.54 40.67 3.12 2.25-.19 9.01-2.35 10.72-3.8-2.51 9.4-26.94 12.78-42.38 9.06-2.87-.7-7.4-2.28-9.05 8.3-.29-4.38-.6-7.38.04-16.68Z" opacity=".68"/><path fill="#CE8000" d="M50.62 79.41a2.52 2.52 0 0 1-.61 1.26l-.09.1-.16.16c-.28.27-.58.49-.89.7-3.82 2.55-8.34 3.58-12.85 4.04l-.8.1c-.83.06-1.67.14-2.5.19a116.76 116.76 0 0 1-20.18-.3 136.72 136.72 0 0 1-12.2-1.7H.32c-2.93-.53-5.84-1.23-8.8-1.63-2.08-.45-1.45-3.29-.8-4.71v-.02c.31-.51.71-.97 1.04-1.47.28-.71.29-1.6.77-2.32.88-.14 3.6-.18 3.67-.28 5.61-9.02 14.09-17.3 18.44-32.4 1.18-4.04 2.28-8.4 5.01-11.86 2.63-3.35 8.59-6.31 16.69-3.9 1.35.4 2.38 1.58 3.9 2.68l.68.55c.34.3.67.62.98.95l.51.6.28.38.27.4a12.4 12.4 0 0 1 1.63 9.38l-.25 1.32-3.06 15.89 2.59.15c-.22 5.62 1.48 11.37 3.87 16.42.36.68.73 1.3 1.2 1.91l.28.37c.68.83 1.51 1.86 1.38 3.02l.02.02Z"/><path fill="#C07500" d="m.45 74.62 45.85-2.9a36.2 36.2 0 0 1-2.93-12.1c.04-2.3.31-5.34.66-7.72-9.07.06-18.15.46-27.2 1.03-.87.06-1.72.01-2.54-.1-.88 7.02-5.06 6.73-6.84 12.55a4.62 4.62 0 0 1 1.93-.87 30.3 30.3 0 0 1-1.03 3.54c-1.74 2.88-4.95 4.7-7.9 6.57Z"/><path fill="#A05A07" d="M24.35 72.24c1.12-9.15 1.07-18.45-1.14-27.44-1.73-.22-3.33.9-4.56 2 .36 2.57-.14 5.2-.92 7.66-1.69 5.36-3.62 6.18-3.74 8.73-.03.74.68 5.07-4.88 8.19C8 72 7.75 72.6 7.45 73.3l16.9-1.07ZM44.78 65.86a11.62 11.62 0 0 0-2.46 3.79l-.13.35a11.9 11.9 0 0 0-.49 2.06v.02l-.06.46v.07l-.03.24c-.06.62-.14 1.24-.1 1.86l.02.2c.07.52.22 1.04.4 1.54a3.7 3.7 0 0 1-1.6-.88v-.02c-.05-.04-.1-.07-.13-.11a7.17 7.17 0 0 1-1.5-2.37l-.05-.12-.01-.04-.02-.03-.13-.35-.02-.05a12.77 12.77 0 0 1-.58-2.13v-.05l-.01-.03a5.82 5.82 0 0 1-.06-1.03c.02-.63.13-1.24.3-1.84a20.22 20.22 0 0 1 2.85-6.02 24 24 0 0 1 2.9-3.5l.01-.02v.02l-.02.29v1.23l.01.22a23.5 23.5 0 0 0 .12 1.53l.03.32c0 .1.02.22.04.33l.05.42.12.78v.05l.01.04.01.02v.05l.02.05v.04l.18 1 .05.3.03.13.05.28.1.45v.03l.1.42Z" opacity=".6"/><path fill="#B4B296" d="M18.49 66.73s-2.35-.16-2.5 2.45c-.15 2.6 2.63 3.27 2.76 3.3.14.02-.27-5.75-.26-5.75Z"/><path fill="#E8D4BA" d="M12.86 73.13a9.9 9.9 0 0 0-1.47 2.25c.05.28.32.44.57.57 13.32 6.76 38.9 14.61 30.28 2.33-4.66-6.63-6.82-9.01-4.65-22.37.13-.77-8.77-4.72-9.75-5.2-1.95-.93-6.9-4.37-8.9-2.57-.02.02.22 22.48-4.9 24.94l-1.18.05Z"/><path fill="#CEB79B" d="M42.24 78.28c-4.66-6.63-6.82-9.01-4.65-22.37.13-.77-8.77-4.72-9.75-5.2-1.95-.93-6.9-4.37-8.9-2.57-.02.01.6 6.13-.35 12.3.24.44-.4.8-.2 1.25.4.96.68 1.98.92 3 .14.6.26 1.19.34 1.79.05.36.08.74.02 1.1-.1.56-.45.97-1.07.9-.8-.1-1.5-.64-2.04-1.22-.08-.08.6 1.98.53 1.89-.86 3.03-2.75 3.26-4.23 3.97a9.9 9.9 0 0 0-1.47 2.26c.05.27.32.44.57.56 13.33 6.77 38.91 14.62 30.28 2.34Z" opacity=".4"/><path fill="#CEB79B" d="M11.96 75.95c-.25-.13-.52-.3-.57-.56a9.66 9.66 0 0 1 1.47-2.26c1.37-.65 2.92-.77 3.76-3.48.37.47.31-1.08.78-.71.7.54 1.55.95 2.46.86 1.16-.1 1.31-1.35 1.26-2.31a9.64 9.64 0 0 0-.16-1.32c-.16-.89-.42-1.77-.7-2.63-.13-.46-.29-.91-.43-1.37-.2-.7-.38-1.4-.6-2.07-.19-.56-.4-1.1-.65-1.63v-.1l-.02-.43v-.25l-.01-.17-.02-.5-.06-.9c0-.18-.02-.35-.04-.53 0-.07 0-.15-.02-.22l-.03-.3a155.67 155.67 0 0 0 .51-6.25l.02-.42.02-.26c2-1.8 6.95 1.64 8.9 2.57.93.44 8.82 3.95 9.68 5.02.06.07.09.13.08.18a69 69 0 0 0-.75 6.06v.1c-.28 3.8.05 6.4.86 8.64.93 2.57 2.49 4.66 4.53 7.57 1.05 1.5 1.6 2.69 1.72 3.63.89 6.76-20.28-.02-32-5.96Z" opacity=".4"/><path fill="#CEB79B" d="M43.95 81.9c-.66 2.32-5.23 2.18-11.04.81.09-2.47-7.32-2.76-7.83-5.19a74.1 74.1 0 0 0-2.8-9.73c-1.09-3.05-2.33-6.19-3.71-9.86l-.01-.25v-.17l-.03-.5-.05-.9-.04-.52-.02-.22-.03-.3-.01-.08-.02-.14a130.79 130.79 0 0 0 .54-6.04l.02-.42.01-.26.07-1.02c2-1.8 6.95 1.64 8.9 2.57.98.48 9.88 4.42 9.76 5.2l-.14.84c-.37 2.43-.6 4.47-.67 6.25l-.01.09c-.15 3.39.21 5.77 1 7.86.94 2.45 2.48 4.5 4.45 7.33 1.49 2.11 1.97 3.63 1.66 4.66Z" opacity=".4"/><path fill="#BBB99D" d="M17.18 67s-1.01-.18-1.16 2.4c-.15 2.59 1.35 3.51 1.32 3.37-.7-4.28-.16-5.76-.16-5.76Z"/><path fill="#3B754B" d="M71.4 82.94c-.9-1.15-1.83-2.4-2.37-3.15h-.01l-.12-.16-.37-.5v-.01l.03-.03c.08-.05.33-.21.67-.35l.1-.04a2.19 2.19 0 0 1 1.56-.05c.31.12.6.34.87.7a3 3 0 0 1 .38.72s1.34 3.47 1.72 5.18l.02.1c.18.83-1.12-.68-2.49-2.41Z"/><path fill="#CCD1C0" d="M11.76 98.9c-1.7.12-3.42.6-4.86 1.43-2.13 1.23-3.3 3.52-3.75 5.68-.51 2.4-.28 4.97.8 7.22.51-.41 1.04-.8 1.57-1.2a65.8 65.8 0 0 0 7.7-6.69 13.85 13.85 0 0 0 2.7-3.61c.22-.5.37-1.07.27-1.59-1.1-1.1-2.86-1.35-4.43-1.24ZM59.35 83.66c-.13-.1-.27-.2-.42-.28l.04-.1.01-.04.02-.03a.07.07 0 0 1 .04-.03h.04s.02 0 .02.02c.02 0 .03.02.04.03a.3.3 0 0 1 .06.1l.03.05.04.1c.03.04.04.08.06.13l.03.06v-.01Z"/><path fill="#C6C7B3" d="M-.6 107.2c-.36 4.04.04 7.56 3.05 10.54a5.4 5.4 0 0 1 1.06 3.33c.3 1.93-.1 3.87.18 5.79.14.93 1.2 2.26 1.24 3.13.05.86.23 1.7.47 2.53 1.68 4.58 4.38 9.5 3.16 14.35l47.01-2.98a.28.28 0 0 0-.15-.1c-.76-2.78.35-5.58.78-8.31.03-2.8 1.67-5.05 2.78-7.5.4-.9.49-1.85.54-2.82.29-1.49.88-2.93 1.43-4.34 2.27-5.11 2.95-10.79 3.3-16.33-.3-5.21-7.39-8.84-7.34-14.03-.45-6.1 8.4-9.15 2.58-6.7l-.12-.1v.02c0 .03.03.07.04.1-.3.1-.62-.05-.48-.4-4.5-1.97-9.54-2.48-14.37-3.26 0-2.27-.81-6.76-2.69-8.09-6.61 2-14.35 3.03-20.67.06-1.53-.77-3.16-1.76-3.9-3.16-.7-1.8.1 2.36-7.2 4.55-.33.1-.34.37-.3.62.68 2.75-.17 5.76 1.2 8.36-2.2.85-4.34 1.9-6.27 3.28-2.82 1.94-4.85 4.75-7.04 7.32 1.84 4.45 1.92 9.38 1.7 14.13Z"/><path fill="#C2C2AC" d="M9.8 74.1c.67 2.69-.13 5.6 1.11 8.18l.1.18c-.72.27-1.41.56-2.09.87.36.33.74.64 1.12.91 1.17.83 2.45 1.45 3.77 1.99 1.1.45 2.25.63 3.43.55 1.13-.08 2.25-.35 3.34-.66 1-.28 2.02-.56 2.98-.96.84-.35 1.66-.76 2.42-1.26 1.46-.96 2.75-2.2 3.7-3.68.83-1.28 1.4-2.69 1.72-4.18-.44.3-.88.62-1.34.9-1.86 1.19-3.9 2.23-6.12 2.52a7.72 7.72 0 0 1-5.7-1.32 11.84 11.84 0 0 1-3.28-4.17c-.36-.72-.67-1.48-.9-2.27-.95.63-2.22 1.25-3.94 1.77-.24.07-.32.26-.3.44a.43.43 0 0 0 0 .18H9.8Z"/><path fill="#BBB99D" d="M13.2 72.21c-.82.45-1.83.89-3.09 1.26-.24.07-.33.26-.3.44a.36.36 0 0 0 0 .18c.66 2.7-.14 5.6 1.1 8.2l.1.17c-.71.27-1.4.56-2.08.87.35.33.73.64 1.12.91 1.17.83 2.45 1.45 3.77 1.99a7.68 7.68 0 0 0 4.04.49c-.03-4.89-3.29-12.54-4.65-14.5h-.01Z"/><path fill="#C2C2AC" d="M34.12 123.97c-8.52 4.6-19.76 6.01-30.32 3.31.31.9 1.08 1.98 1.13 2.71.33 4.24 3.25 7.83 3.72 12.08 8.82.9 17.73 1.37 26.64 1.29-.82-6.43-.93-12.92-1.17-19.39Z"/><path fill="#BBB99D" d="M47.52 121.93c-.5-.66-1.07-1.28-1.72-1.81v-.02c-.75-.66-1.63-1.12-2.48-1.61l.3-.43c-.33-.03-.66-.15-.98 0-.14-.1-.27-.19-.41-.27l-.33.38-.02.03a1.2 1.2 0 0 1-.69-.33c-.1.02-.57.1-.68.1l-.03-.02c-.03.47.1.9.37 1.33 2.05 3.17 4.64.27 6.78 2.8l-.11-.15Zm0 0c-.5-.66-1.07-1.28-1.72-1.81v-.02l-.17-.1v-.03c-.7-.6-1.52-1.02-2.3-1.49l.29-.42c-.33-.04-.66-.16-.98-.02l-.41-.25-.33.38-.02.02c-.36.02-.5-.39-.8-.44-.14-.16-.23-.34-.45-.38v.02c.2.05.14.18-.04.07-.24.62-.09 1.25.26 1.82 2.05 3.17 4.64.27 6.78 2.8l-.11-.15Zm10.7 7.64c-1.22-2.42-2.83-4.67-5.22-6.03-2.1-1.46-3.82-3.42-5.99-4.8l-.6-.36c-4.88-2.37-10.03-4.34-14.48-7.5a92.78 92.78 0 0 0-8.98-6.4c-1.6-.6-2.22-.82-3.29-2.29-1.8-1.96-4.05-3.44-6.28-4.88l-.02-.01a41.65 41.65 0 0 0 4.2-7.57c.44-1.06.77-2.1.95-3.01-2.15.48-4.3-.08-6.2-1.07-.82-.39-1.6-.84-2.33-1.36l-.28-.2v-.02l-.45-.36-.36-.33c-.57.25-1.12.55-1.67.84-.4.21-.77.44-1.15.67h-.01v.01a21.5 21.5 0 0 0-3.63 2.79c-.95.9-1.8 1.9-2.63 2.9-.68.82-1.36 1.66-2.05 2.47a20.96 20.96 0 0 1 .97 3.05c2.08 6.3-1.1 14.2 2.16 19.63l.24.32.99 1.19c1.22-2.6 6.69-3.59 4.83-3.37-2.76-.42-3.65-8.55-3.84-10.76l6.36-.86c.59-.63 1.2-1.34 1.82-2.12 1.37 1.19 2.98 2 4.5 2.93 3.78 3.84.5 5.9-2.29 8.78-3.14 2.9-6.28 5.83-9.12 9.03-.26.34-.51.69-.73 1.06.1 1.1-.03 2.21-.02 3.31 0 .5.02 1 .1 1.48.14 1.16 1.09 2.1 1.25 3.24.14 2.3 1.13 4.45 2.04 6.54a25.01 25.01 0 0 1 1.16 3.24c.45 1.96 1.12 4.44.57 6.4-.14.34-.24.7-.34 1.05l47.73-1.06c-.15-.74-.38-1.48-.5-2.2l-.02-.03a.3.3 0 0 0-.15-.1c-.86-3.18.7-6.38.93-9.53.15-1.72 1.08-3.21 1.86-4.7l-.03-.01Zm-50.56-1.76c-1.05-1.68-.75-3.67.09-5.4 3.09-5.69 7.42-9.08 13.84-15.39-.14-.06-.02-.13.07-.05.04-.08.15-.03.07.03.9.55 14.31 8.6 18.82 10.37.06-.22.41-.58.15-.11l-.08.13c.21.05.15.19-.03.08-.24.61-.09 1.25.26 1.82.88 1.4 2.72 1.96 4.33 1.67.36-.03.78-.21 1.1.05 2.03 1.18 3.78 4.07 3.65 6.13 3.82 1.04 7.22 4.85-.17 5.62-7.05.8-14.21.22-21.3.37-3.96-.27-7.98.1-11.9-.58-5.88-.36-5.8.26-8.9-4.74Zm39.86-5.88c-.5-.66-1.07-1.28-1.72-1.81v-.02c-.75-.66-1.63-1.12-2.48-1.61l.3-.43c-.33-.03-.66-.15-.98 0-.14-.1-.27-.19-.41-.27l-.33.38-.02.03a1.2 1.2 0 0 1-.69-.33c-.1.02-.57.1-.68.1l-.03-.02c-.03.47.1.9.37 1.33 2.05 3.17 4.64.27 6.78 2.8l-.11-.15Z"/><path fill="#CCD1C0" d="M16.3 69.53c-.65 2.95 1.15 6.08 3.85 7.3 3.28 1.54 7.05-.45 9.31-2.9-7.2-1.85-10.82-3.83-12.15-5-.69-.61-.33-.38-1 .6ZM27.78 115.28c-1.74-1.49-2.85-4.01-5.16-4.66-2.83-.86-4.73 2.49-5.64 4.89-.63 1.26-1.66 2.25-2.52 3.36-2.36 2.57-1.95 6.66 1.57 7.88 1.81.76 3.66-.1 5.45-.5 1.87-.42 3.92.4 5.7-.52 3.64-2.2 3.63-7.7.6-10.45ZM7.24 103.5c-.25-.04-.5-.05-.76-.1-.46-.07-1-.22-1.44.02-.2.11-.4.3-.51.5a.28.28 0 0 1 .08-.08s.02.01.01.02c-.23.23-.23.59-.19.9.05.34.16.67.24 1 .1.44.05.9.07 1.34.01.49.13 1.01.5 1.36.4.36 1 .4 1.48.23.26-.09.5-.25.67-.47.2-.23.36-.52.55-.76.2-.25.46-.43.7-.63.24-.18.46-.38.57-.66.18-.45.1-.98-.1-1.42-.21-.48-.6-.86-1.09-1.05-.25-.1-.51-.16-.78-.2Z"/><path fill="#BBB99D" d="m10.54 84.67-.14-.09-.13-.09-.1-.06-.15-.1-.07-.05c-.27-.2-.53-.4-.8-.63 2.89 9.92 28.82 12.95 45.07 8.63 3.02-.8 7.79-2.59 9.77 8.62-.46-5.72-1.77-13.87-2.89-17.28-1.06-3.23-.33-4.11-1.53-3.82-.04-.03-.16 3.92-.2 3.9l.05.1c-.36.07-.57 0-.5-.35l.01-.06a10.9 10.9 0 0 0-2.81-1.05 94.96 94.96 0 0 0-11.56-2.22c.03-.63-.03-1.27-.12-1.9-.3-2.07-.95-4.2-2.17-5.98a.48.48 0 0 0-.52-.18 43.63 43.63 0 0 1-7.4 1.64c-.3.3-.6.6-.93.87-.5.42-1.02.8-1.55 1.16l-.37.26a12.53 12.53 0 0 1-4.05 6.91 14.37 14.37 0 0 1-4.53 2.6c-1.04.38-2.11.67-3.18.94-1.05.27-2.13.47-3.21.45a7.41 7.41 0 0 1-3.16-.75c-.86-.35-1.7-.75-2.48-1.23l-.25-.15a.96.96 0 0 0-.1-.06l.01-.01-.01-.02Z"/><path fill="#CCD1C0" d="M17.86 69.75c-.34-.38-.48-.5-.7-1.13-.34-1.04-.67-1.32.02-1.6-.72-.12-1.1 1.04-1.21 3.05-.15 2.6.9 2.8 1.05 2.83.04 0 .03-.6 0-1.43-.3-.11 1.06-1.48.84-1.72Z"/><path fill="#D58500" d="m23.98 102.6-.9-.7v.2l-3.95.1-.09-4.16a.4.4 0 0 0-.34.03c-.17-.13-.4-.16-.59.05-4.23 4.82-8.33 9.83-13.25 13.98-1.03.87-2.07 1.72-2.98 2.73a7.66 7.66 0 0 0-2 5.45c.03.68.23 1.37.65 1.9.35.42.83.72 1.12 1.18.28.47.34 1.03.45 1.57.16.78.68 1.81 1.58 1.91-.9-4.84 2.59-3.45 17.97-21.01.8-.9 1.7-1.69 2.4-2.67.12-.15.08-.44-.07-.55Z"/><path fill="#A05A07" d="m23.98 102.6-.9-.7v.2l-3.95.1-.09-4.16a.39.39 0 0 0-.34.03c-.17-.13-.4-.16-.59.05l-3.63 4.18c.51.43.85 1.16.97 1.77.14.74-.05 1.5-.35 2.17a9.87 9.87 0 0 1-1.33 2.1c-.7.84-1.47 1.62-2.24 2.4-.81.8-1.57 1.65-2.35 2.49-.81.88-1.65 1.71-2.52 2.53-.69.64-1.37 1.3-2.19 1.77-.72.42-1.62.7-2.42.3-.69-.34-1.02-1.06-1.04-1.8a7.44 7.44 0 0 0-1.13 4.25c.04.68.23 1.37.66 1.9.34.42.82.73 1.1 1.18.3.47.35 1.04.46 1.57.16.8.68 1.81 1.58 1.92-.9-4.85 2.59-3.45 17.97-21.02.8-.9 1.7-1.68 2.4-2.67.12-.15.07-.44-.07-.55Z" opacity=".3"/><path fill="#A05A07" d="m23.98 102.6-.9-.7v.2l-3.95.1-.09-4.16a.4.4 0 0 0-.34.03c-.17-.13-.4-.16-.58.05-1.1 1.24-2.18 2.5-3.27 3.74.4.3.68.74.88 1.18.32.7.59 1.55.43 2.32-.18.96-.91 1.75-1.5 2.48-.75.92-1.54 1.8-2.35 2.65-.83.87-1.7 1.67-2.54 2.52-.8.82-1.54 1.7-2.37 2.5-.72.68-1.5 1.3-2.29 1.92a5.71 5.71 0 0 1-2.43 1.34c-.53.08-1.19 0-1.57-.42a2.06 2.06 0 0 1-.43-1.43c0-.14.01-.27.03-.4a7.35 7.35 0 0 0-.84 3.75c.04.68.23 1.37.65 1.9.35.42.83.73 1.12 1.18.28.47.34 1.04.45 1.57.16.79.68 1.81 1.57 1.92h.01c-.32-1.74-.08-2.67 1.07-3.97-.15-.23-.27-.5-.34-.76-.53-1.96.93-3.73 2.32-4.9.42-.35.86-.69 1.27-1.06.46-.41.9-.85 1.34-1.29.86-.86 1.73-1.7 2.6-2.55 1.67-1.6 3.06-3.5 4.95-4.86a6.89 6.89 0 0 1 2.92-1.3 4.43 4.43 0 0 1 1.53.03l.32-.37c.79-.9 1.7-1.68 2.4-2.67.11-.16.06-.44-.08-.56v.03Z" opacity=".3"/><path fill="#A05A07" d="m23.98 102.6-.9-.7v.2l-3.95.1-.09-4.16a.39.39 0 0 0-.34.03c-.17-.13-.4-.16-.58.05l-2.7 3.1c.12.1.23.22.33.34.52.63.83 1.4 1.29 2.08.24.36.51.7.88.95.43.3.93.44 1.43.55.75.17 1.56.34 2.12.89l.18-.2c.8-.9 1.7-1.69 2.41-2.68.11-.14.07-.42-.08-.55Z" opacity=".3"/><path fill="#A05A07" d="m45.5 110.9-.5-.44s-.4-.16-.7.09c-.3.24-4.16 5.88-4.2 6.38-.05.5.4 1.04.4 1.04l1.61-.26 3.6-2.9-.21-3.9Z"/><path fill="#D58500" d="m59.6 125.42-.03-.09v-.01a1 1 0 0 1-.05-.12v-.01a11.34 11.34 0 0 0-1.5-2.76l-.18-.22a2.4 2.4 0 0 0-.1-.14l-.19-.22-.13-.16-.14-.17-.3-.34a18.78 18.78 0 0 0-.76-.8v-.01a33.1 33.1 0 0 0-1.16-1.15l-.5-.45-.06-.06-.19-.17-.11-.11-.15-.13-.4-.36-.13-.12-.34-.29a12.84 12.84 0 0 1-.35-.3l-.19-.16v-.01a.76.76 0 0 1-.08-.06.96.96 0 0 0-.08-.07c-.1-.1-.21-.17-.32-.27a13.36 13.36 0 0 1-.37-.3l-.04-.03a.5.5 0 0 1-.06-.05l-.31-.27a83.21 83.21 0 0 0-2.32-1.83l-.07-.05-.68-.52-.03-.03-1.03-.77-.25-.19-1.02-.75-.1-.07-.32-.24a35.83 35.83 0 0 0-.71-.51l-.52-.37-.08-.06-1.9-1.35c-10.51-7.35-22.38-14.49-24.5-16.16a21.97 21.97 0 0 0-1.7-1.08l-.19-.11-.2-.12-.2-.12-.05-.03-.52-.32-1.36-.78h-.01l-.67-.37a9.47 9.47 0 0 0-.33-.18l-.18-.1c-.68-.35-1.25-.63-1.58-.74l-.08-.02-.08-.02h-.08a.5.5 0 0 0-.1 0l-.04.02-.04.01a.7.7 0 0 0-.1.07.38.38 0 0 0-.07.08c-.15-.01-.3.05-.4.18l-.03.06a16.6 16.6 0 0 1-1.6 3.33l-.48.67c-.3.43-.6.86-.74 1.34a.43.43 0 0 0-.3.17l-.04.07a.5.5 0 0 0-.03.38c.02.07.06.13.1.18l.06.04c.02.02.05.03.07.03.02.02.05.03.07.03l.08.03h.02l.05.02h.01l.1.04.2.08.11.05.33.16.17.08.09.04.05.03c.14.07.29.14.44.23a37.1 37.1 0 0 1 1.25.7l.35.2.1.06 1.2.73.03.01c.03.03.06.04.1.06l.02.02.04.02.01.01.07.05a54.31 54.31 0 0 1 .75.47l.3.18c1.14.73 2.18 1.42 2.87 1.91.17.13.32.22.44.32l.2.15a78.25 78.25 0 0 0 5.72 4.02c3.76 2.44 8.1 5 12.43 7.58l.08.05 2.81 1.68 2.75 1.68.06.03.11.08.45.28.24.15H41l.11.06.04.03.24.15.77.48.11.08.42.25.68.44.25.17h.01l.01.01.26.16.47.3 1.14.77.16.1.16.11h.01l.44.3.05.04.36.24a305.32 305.32 0 0 1 .8.56l.13.1.1.06.16.11v.01l.08.05.14.1.14.11h.02l.11.1.13.09c.1.06.18.13.26.19.02 0 .04.02.05.03l.02.02.16.12.36.27.8.6.28.22.07.07.17.13.25.21.35.29.15.12.03.02.21.19.24.2.32.29.06.05.28.26h.02l.21.2a.5.5 0 0 0 .05.06l.08.06.13.13.06.06.26.25.09.09.16.16v.01l.17.17.02.02a4.73 4.73 0 0 0 .35.37l.02.04.15.16.19.23.01.01.03.03.08.1.1.13.07.08.12.15.02.03.07.1.08.1c0 .02.02.03.03.04l.03.06.04.04c0 .01 0 .02.02.03v.01l.05.08.08.11.08.12.04.05v.01l-.04-1.74 4.62-.1-.44-1.27Zm-20.72-12.8c-.02-.52.31-1.07.86-1.2a1.58 1.58 0 0 1 1.33.34 1.1 1.1 0 0 1 .18 1.27l-.01.02a1.39 1.39 0 0 1-1.26.66 1.15 1.15 0 0 1-.86-.43.99.99 0 0 1-.19-.37v-.02a.76.76 0 0 1-.05-.26Zm-6.8-6.35c.02.88-1.26 1.6-1.89.83a1.57 1.57 0 0 1-.33-.66c-.5-1.88 2.19-1.63 2.22-.17ZM20.6 99.9c.06-.41.34-.84.76-.96.51-.13 1.13.1 1.32.63.08.2.07.43 0 .64-.24 1.03-2.32 1.4-2.08-.3Z"/><path fill="#C77500" d="M12.9 98.64c.33-1.07.76-2.1 1.24-3.12.54-1.11 1.1-2.23 1.82-3.26l.16-.22c-1.99-1.2-5.02-2.93-5.54-2.92a.41.41 0 0 0-.35.19.44.44 0 0 0-.47.32 13.28 13.28 0 0 1-1.58 3.26c-.42.65-.99 1.26-1.2 2-.45.05-.58.78-.07.9.92.24 3.58 1.81 5.86 3.26l.13-.41Z"/><path fill="#D58500" d="M58.5 123.14c-1.55-2.42-5.1-5.6-9.52-9-.18.29-.36.57-.53.87-.52.88-1.07 1.75-1.61 2.63a14.6 14.6 0 0 0-1.2 2.36c4.64 3.12 8.35 6.1 9.93 8.74.92 1.53 1.5 3.27 1.8 5.03.31 1.77-.55 2.85-.99 3.64l.67-.01a2.52 2.52 0 0 0 .55-1.49c.02-.25.03-.5.1-.75.16-.52.46-1 .66-1.5.24-.61.45-1.22.65-1.83.17-.55.34-1.09.56-1.63.22-.54.45-1.1.56-1.68.07-.38.1-.78.1-1.17a15.4 15.4 0 0 0-1.72-4.22h-.01Z"/><path fill="#C77500" d="M59.56 129.3c-1.13.4-1.96-.46-2.39-1.43a8.83 8.83 0 0 1-.48-4.53l.14-1.2c.03-.25.05-.5.1-.76l.05-.2c-2-2.21-5.09-4.83-8.69-7.56a17.6 17.6 0 0 1-1.13 4.74c-.27.7-.58 1.39-.92 2.05 4.36 2.97 7.82 5.8 9.32 8.33.92 1.53.11 2.33.42 4.08.34 1.97-.04 3.91-.21 4.83.15-.07.97-.15 1.17-.09.15-.2.3-.46.42-.69.15-.3.2-.62.22-.96.02-.25.03-.5.1-.75.16-.52.46-1 .66-1.51.25-.6.45-1.2.65-1.82a25 25 0 0 1 .57-1.63c.14-.37.3-.73.41-1.11a1.9 1.9 0 0 1-.4.2Z"/><path fill="#D58500" d="M55.99 121.75c0-.08-.06-.21-.15-.4v-.02a19.78 19.78 0 0 0-3.2-4.25l-.01-.02-.45-.45a26.1 26.1 0 0 0-3.42-2.89l-.43-.3-.28-.17-.37-.24-.4-.25h-.01l-.04.05-.16.24-.82 1.18-.03.04-.72 1.05-.51.73-.12.18-.02.02-.13.2-.11.15-.47.69-.11.16-.1.16-.3.43h-.01l-.3.43-.02.03h.01l.27.13.02.01.13.07.14.07c.07.04.13.08.2.1l.14.09.17.1.06.04.24.15.22.14.3.21.2.15.05.05.08.06.12.1.05.03.1.09h.01a11.1 11.1 0 0 1 3.65 5.92l.37-.03a6.39 6.39 0 0 1 4.07 1.35c.1-.16.19-.3.27-.46.37-.65.67-1.26.9-1.81.52-1.2.76-2.13.85-2.7.06-.33.07-.54.07-.6Zm-5.18-2.57c.25.7-.32 1.43-.94 1.5h-.05a1.23 1.23 0 0 1-.27.02.95.95 0 0 1-.89-.61 1.5 1.5 0 0 1 .17-1.41l.05-.07c.36-.36.96-.4 1.37-.1.3.2.47.43.56.67Z"/><path fill="#C77500" d="M46.21 118.56c.64-1.67 1.64-3.3 2.99-4.52a21.9 21.9 0 0 0-1.93-1.27l-3.97 5.76c.9.4 1.73.93 2.47 1.56.11-.53.26-1.04.44-1.53Z"/><path fill="#D58500" d="M48.3 112.6c-.07-.11-2.08-1.96-2.75-2.2-.41-.15-.9-.13-1.24.13.16-.1.4-.02.51.15.8 1.25-4.23 6.89-4.45 6.82-.21-.07-.27-.35-.28-.57-.16.56.2 1.15.6 1.58.9.96 2.06 1.42 2.32 1.43 1.3.01 5.11-5.24 5.37-6.75.03-.2.04-.41-.07-.59Z"/><path fill="#C77500" d="M48.3 112.6c-.07-.11-2.08-1.96-2.75-2.2-.41-.15-.9-.13-1.24.13.16-.1.4-.02.51.15.14.22.1.57-.06 1 .6.02.99.48 1.07 1.05.14.9-.27 1.77-.79 2.47-.42.59-1.1 1.4-1.93 1.17a1.51 1.51 0 0 1-.97-.73 11.28 11.28 0 0 1-1.77 1.87c-.21-.07-.27-.35-.28-.58-.16.57.2 1.15.6 1.58.9.96 2.06 1.43 2.32 1.43 1.3.02 5.11-5.24 5.37-6.74.03-.2.04-.43-.07-.6Z" opacity=".3"/><path fill="#C77500" d="M48.3 112.6c-.07-.11-2.08-1.96-2.75-2.2-.41-.15-.9-.13-1.24.13.16-.1.4-.02.51.15.05.08.08.17.09.28.54.02 1.17.16 1.53.59.36.42.56 1.01.63 1.55a3.4 3.4 0 0 1-.25 1.76c-.2.48-.48.91-.78 1.32-.3.38-.62.77-.97 1.11-.33.3-.7.6-1.15.72-.22.06-.4.04-.63 0-.28-.08-.5-.04-.76.07-.41.17-.83.16-1.2-.11-.26-.2-.48-.47-.58-.78-.2.2-.34.32-.38.3-.21-.06-.27-.34-.28-.57-.16.57.2 1.15.6 1.58.9.96 2.06 1.43 2.32 1.43 1.3.01 5.11-5.24 5.37-6.74.03-.2.04-.42-.07-.59Z" opacity=".3"/><path fill="#3E8E5B" d="M71.48 80.61c-.1-.02-.21-.06-.31-.1-.02 0-.04 0-.06-.02-.04 0-.08-.02-.12-.04h-.02l-.02-.01c-.1-.04-.21-.08-.32-.1l-.45-.16-.22-.08h-.01a.31.31 0 0 1-.07-.02l-.69-.24-.05-.01-.1-.04-.38-.12-.2-.07-.58-.19-.25-.07-.56-.15-.18-.05-.2-.04-.28-.04h-.02c-.29-.03-.56-.03-.81 0h-.01a2.83 2.83 0 0 0-.62.17l-.12.05-.27.15-.1.06-.22.14-.3.24a7.92 7.92 0 0 0-.41.36l-.45.43-.06.06-.01.02-.1.1-.12.13-.15.16-.07.08c-.03.02-.06.06-.08.1l-.04.02-1.12 1.26-.03.03-.07.07-.06.07-.13.15-.1.11-.13.15-.12.14-.24.27-.1.11-.17.2-.13.14-.02.04-.08.1-.09.1-.25.28-.56.63-.28.3-.32.37-.1.1a.65.65 0 0 1-.07.08.85.85 0 0 0-.1.1l-.06.08-.25.26-.06.06-.01.01a6.9 6.9 0 0 1-.67.65l-.05.05-.29.25a8.51 8.51 0 0 1-.67.57l-.04.03c-.54.44-1.13.85-1.73 1.22l-.06.04-.44.27a11.76 11.76 0 0 1-.92.5 12.42 12.42 0 0 1-1.18.59l-.25.1-.09.04c-.46.2-.93.4-1.41.57-.03 0-.05.02-.08.03-.1.04-.2.08-.3.1a27.28 27.28 0 0 1-1.28.41l-.02.02h-.02a.1.1 0 0 0-.04.01l-.06.02h-.01l-.85.24-.43.11-.42.1-.3.08-.23.05-.33.07-.43.09-.44.08-.26.05-.34.06-.28.05h-.05l-.2.03a17.82 17.82 0 0 1-.92.13l-.39.05-.39.04-.4.04-.35.04-.4.03-.3.02c-.13 0-.26.02-.38.03h-.2c-.11.01-.22.03-.34.03h-.02l-.4.02h-.27l-.26.01-.64.02-.62.01h-.54a32.46 32.46 0 0 1-1.68-.04l-.38-.02-.4-.02-.24-.02h-.28l-.17-.02h-.1l-.34-.03a8 8 0 0 1-.71-.06l-.18-.01-.21-.02-.36-.04-.12-.01-.4-.04-.13-.02-.09-.01-.36-.05-.55-.07L30 93l-.27-.04c-.14-.02-.28-.05-.43-.06l-.19-.03-.62-.1h-.02l-.46-.08-.46-.08-.9-.18-.91-.18-.7-.16-.08-.02-.25-.06-.87-.21a54.54 54.54 0 0 1-2.26-.64l-.6-.19-.38-.12a19.39 19.39 0 0 1-.79-.26l-.65-.24-.2-.07c-.3-.1-.57-.2-.85-.32l-.21-.08-.22-.09a2.93 2.93 0 0 1-.14-.06l-.1-.04h-.03l-.01-.01-.02-.01-.05-.03c-.04 0-.07-.02-.1-.04a.16.16 0 0 1-.06-.02l-.6-.26-.18-.07-.02-.01a.6.6 0 0 1-.1-.05l-.66-.29-.47-.23h-.01l-.28-.13c-.05-.03-.22 0-.4.04h-.01l-.08.01-.18.02h-.12l-.04-.02h-.01l-.1-.05a.14.14 0 0 1-.03-.08V88.27l-.02-.1-.01-.03a.1.1 0 0 0-.02-.04l-.01-.04-.02-.06-.08-.16v-.04l-.01-.01v-.01l-.02-.06-.01-.07-.04-.43v-.07l-.02-.08-.01-.06-.02-.13c0-.06 0-.11-.02-.17a16.6 16.6 0 0 0-.08-.55v-.01a120.73 120.73 0 0 0-.05-.3l-.02-.12-.04-.3-.01-.06c0-.03 0-.06-.02-.1l-.05-.34-.07-.43a.33.33 0 0 1 0-.08c-.02-.07-.03-.14-.03-.22l-.02-.14v-.02l.03.1.03.06.01.03v.01l.06.12v.02l.03.06.05.07.01.02h.01l.07.11v.01l.05.05.1.11.1.09a1.4 1.4 0 0 0 .17.1l.06.04.12.06a.1.1 0 0 0 .02 0l.04.02c.05.03.1.04.17.06h.02l.06.02h.05l.1.02.07.01.13.02h.14l.05.01H15.08c.08 0 .17 0 .26-.02h.04l.24-.03.3-.06.28-.06h.04l.32-.1c.22-.06.45-.13.68-.22l.37-.14c.03 0 .05-.02.07-.03l.06-.02.03-.01.08-.04c.03 0 .05-.02.08-.03l.43-.19a21.66 21.66 0 0 0 1.67-.83l.19-.1.18-.09a40.2 40.2 0 0 0 2.05-1.2l.18-.12.16-.1.38-.24a65.7 65.7 0 0 0 3.65-2.49l.03-.02.48-.35.28-.2.77-.57.44-.33.92-.7.32-.24.43-.33.02-.02.19-.14c.05-.05.1-.1.16-.13l.32-.25.3-.24.15-.11.16-.13.17-.14.14-.11a.3.3 0 0 1 .05-.04c.13-.1.27-.2.4-.32l.12-.1h.01l.11-.1.43-.34.02-.02h.01l.15-.13.42-.34.03-.03.08-.06.5-.4.76-.65.16-.13.7-.58 1.17-1.03.4-.34.17-.16.06-.05.1-.09a.94.94 0 0 0 .1-.1l.54-.48.29-.26.08-.08a.14.14 0 0 1 .03-.03l.12-.1.35-.35.07.04a.8.8 0 0 0 .13.05l.05.03.12.06.12.06.14.06.3.15.03.01.32.14.18.09h.02l.23.1.17.08.11.04.46.18.26.1.24.1c.08.03.17.05.25.09h.04l.22.08.26.09.25.07.08.03.4.12h.03l.09.04.4.1.02.01.03.01a10.8 10.8 0 0 0 .5.12 18.32 18.32 0 0 0 1.44.3h.04l.1.02.19.03.14.02.2.03.54.07h.08l.1.01h.86l1.83-.12.37-.03h.19l.12-.01.2-.01.4-.03.44-.01H53.33c.36.01.73.04 1.08.1h.14l.1.02.2.04H54.93l.23.05.05.01.1.03.05.01.12.03.04.02.07.01.07.02h.01l.25.07.12.04.1.04.25.1.19.08.03.02.14.07.04.02c.04.02.09.04.12.07l.02.01h.01a.8.8 0 0 1 .12.08l.2.13.44.31.02.02.21.15.13.08.03.02.02.02h.02c0 .02.02.02.03.03l.04.02.07.04.04.03.08.04h.01l.05.03h.03l.01.01.02.01h.01v.01h.02l.05.03.04.02.01.01.03.01.24.1h.04l.03.01.03.01.03.01c.07.02.14.04.2.04h.02l.1.02h.07l.1.02H59.98l.22-.01c.14-.01.3-.02.43-.01h.08l.14.02.16.01c.03 0 .07 0 .1.02h.02a63.88 63.88 0 0 1 .11.03l.08.01.04.01.05.02h.02l.03.02.77.28.15.06.07.04.23.1h.03l.22.1.02.02.11.05a1.74 1.74 0 0 1 .2.1l.14.07.13.07.02.01.05.02.16.1.33.18.02.02.02.01.04.02.02.01.27.17.02.02.04.02.16.1.09.05.04.03.04.03a21.36 21.36 0 0 1 .56.36l.15.1.07.04.08.04.08.05.04.02.02.02a12.58 12.58 0 0 0 .7.34l.06.03.08.04.1.05.1.04c.08.05.17.08.27.13l.47.22.35.16.08.04.32.16.1.06.13.06.5.28c.03.03.06.04.1.06l.33.2.22.15.11.07a5.54 5.54 0 0 1 .84.68l.01.01.08.09h.01l.07.08s0 .02.02.02l.08.1c.06.08.11.15.15.23l.12.2.04.1s.02.02.02.05l.03.08.04.12.02.12.02.07v.07c.03.2 0 .42-.06.64v.02s-.12 0 .03.02h.02l.03.03.04.09v-.05Z"/><path fill="#3B754B" d="M72.06 80.9a3.75 3.75 0 0 0-.58-.28l-.31-.1-.06-.02-.12-.04h-.02l-.02-.02c-.31-.07-.62-.17-.93-.28H70a25.76 25.76 0 0 1-.83-.3l-.05-.02-.1-.04a9.85 9.85 0 0 0-2.63-.72h-.02c-.36-.02-.7 0-1.05.08h-.02c-.26.07-.51.16-.76.3l-.1.06-.22.14-.19.18-.92.91c-.69.7-1.33 1.4-1.95 2.07l-.13.14-.09.1-.01.02-.02.02-.1.1-.14.15-.23.26-.1.11-.18.2-.16.17-.05.07c-.5.56-1 1.1-1.5 1.61a28.2 28.2 0 0 1-2.9 2.67s-.02 0-.02.02c-.38.3-.77.58-1.19.86l-.06.04a18.32 18.32 0 0 1-5.33 2.45h-.03l-.58.17h-.04a.1.1 0 0 0-.04.02l-.06.02h-.02c-.28.09-.56.16-.85.24-.14.04-.28.08-.42.1-.15.05-.28.08-.43.11l-.3.08-.22.05-.34.07-.43.08-.43.09-.26.05-.34.06a234.25 234.25 0 0 0-.53.09l-.53.07-.4.05-.38.05-.4.05-.38.03-.36.04c-.14 0-.27.02-.4.03l-.3.02-.39.03h-.08l-.11.01-.34.02h-.02l-.41.02-.26.01h-.26l-.64.02-.63.01H37.13c-.53 0-1.05 0-1.58-.02l-.42-.01-.38-.02-.4-.02-.24-.02-.24-.02h-.2l-.44-.04-.89-.08-.21-.01-.37-.04-.11-.01-.4-.05-.14-.01-.08-.02c-.12 0-.24-.02-.36-.04l-.56-.07c-.03 0-.06 0-.09-.02l-.27-.04-.42-.06a891.25 891.25 0 0 1-.74-.11h-.01a18.5 18.5 0 0 1-.55-.09l-.46-.08a49.84 49.84 0 0 1-5.96-1.46l-.6-.18a53.48 53.48 0 0 1-3.3-1.18l-.12-.05-.02-.01-.1-.04-.03-.01-.03-.02-.2-.06c-.27-.1-.53-.22-.79-.35l-.02-.01c-.4-.22-.8-.44-1.23-.57-.23-.07-.45-.1-.68-.1h-.02l-.08.01-.18.02-.06.01-.06-.01-.04-.01h-.01a.22.22 0 0 1-.09-.07.13.13 0 0 1-.03-.06v-.01a.24.24 0 0 1 0-.13l-.01-.04c0-.03 0-.06-.02-.09l-.01-.04a.1.1 0 0 0-.01-.04.27.27 0 0 0-.02-.03c0-.03-.01-.04-.03-.07l-.07-.15v-.03l-.02-.1-.02-.1a3.79 3.79 0 0 0-.03-.24l-.03-.17V87.17a4.23 4.23 0 0 0-.05-.24v-.01l-.02-.17-.08-.58v-.01l-.01-.08-.05-.33v-.01l-.03-.29-.02-.06-.01-.1-.17-1.2v-.04l.04.1.02.07.01.03h.01l.02.06.08.16.04.06.01.02c.04.04.05.08.08.12a1.89 1.89 0 0 0 .84.43h.01c.38.1.8.11 1.29.06.54-.06 1.15-.21 1.8-.44l.19-.07.08-.03.06-.02.02-.01.09-.03.08-.04c.75-.29 1.55-.67 2.38-1.13h.01a38.24 38.24 0 0 0 3.79-2.3 78.61 78.61 0 0 0 3.5-2.45l.78-.6.6-.45h.01l1.08-.84.44-.34.2-.16.47-.37.3-.24.14-.11.17-.14.3-.24.03-.03.02-.01.14-.12.07-.05.07-.06.1-.09.15-.11.54-.45.13-.1.43-.36.03-.02a183.8 183.8 0 0 0 1.56-1.32l.67-.58 1.56-1.35.24-.22.09-.08a112.95 112.95 0 0 0 1.4-1.27l.03-.03.02-.02.03-.03.03-.03.08.04a.8.8 0 0 0 .12.06c.02 0 .04.01.05.03.03 0 .05.02.08.03l.31.15c.68.32 1.38.62 2.09.88l.25.1.24.1h.04l.21.07.27.1a19.22 19.22 0 0 0 3.2.78h.03l.04.01.1.02.2.02.11.02h.05c.5.07.99.1 1.48.12h.22l2.22-.17c.46-.03.91-.05 1.38-.05h.07c.9-.01 1.8.04 2.66.21h.01l.11.02h.01l.12.03.07.02a4.96 4.96 0 0 1 .86.24 7.43 7.43 0 0 1 .61.25h.01l.08.04.07.03.02.01V72l.12.07.2.13.45.32.02.01.2.15.13.09.04.02h.01l.02.02.03.02.04.02.07.05.05.02.09.04v.01l.05.02h.01l.02.01h.01l.02.01.02.01.02.01.04.03.04.01.02.02h.02l.24.1h.02l.02.01h.03l.03.02h.03l.21.05h.01l.11.01H59.48l.1.01h.16l.07.01h.44l.5-.01.15.01.16.02.1.01h.02l.04.01a.1.1 0 0 1 .04 0l.04.02.08.02h.04l.05.02.02.01.03.01.2.07.19.06c.28.1.56.22.83.34l.03.02.22.1.02.01.25.13h.02l.26.14.05.03.09.04.03.02.04.03h.02l.03.02.02.02c.14.07.29.15.43.24l.07.05.19.11.02.02.04.03.18.1.08.05.05.03.04.03c.02 0 .03.02.05.03l.05.04.75.48.08.04.04.02.02.02.22.1.28.15.2.1.06.03.08.04.1.05h.01l.08.04.28.13.47.22.43.2.32.16.11.06.12.06.5.28c.03.03.06.04.1.06a.9.9 0 0 1 .1.06l.2.11.23.13.13.08.37.22.15.1c.02 0 .04.01.05.03l.22.15.04.03.24.18h.01l.05.04.2.18.1.1.18.18.1.13.07.1c.03.03.06.07.08.12l.03.05.04.07.04.07c.13.3.16.63.06.98v.01c0 .04.04.17.09.28 0 .02.02.03.03.05 0 .03.02.05.04.07l-.06-.03Z" opacity=".4"/><path fill="#3B754B" d="M72.15 80.96a.16.16 0 0 1-.08-.06l.06.04.02.02ZM18.25 89.3c.04-.91.02-1.84.33-2.7.3-.86.81-1.56 1.47-2.19.82-.77 1.76-1.33 2.75-1.89.99-.55 2.06-1.05 3.09-1.58 1.1-.55 2.17-1.13 3.27-1.7 1-.52 2.02-.97 3.03-1.5 1.64-.87 3.2-1.79 4.67-2.96a16.5 16.5 0 0 0 4.34-5.17c-.59-.25-1.16-.5-1.73-.8-3.43 3.44-24.57 21.23-26.3 15.25.17 1.2.33 2.39.51 3.58.04.27.07.52.24.75.17.23.46.34.73.43l3.6 1.12c-.03-.2-.19-.52 0-.65Z" opacity=".4"/><path fill="#3B754B" d="M64.54 74.86h-.02l-.1.05c-.36.15-.68.3-1.02.51-1.32.82-2.24 1.77-3.38 2.88a34.75 34.75 0 0 1-4.65 3.8l-.01.02h-.01l-.11.07a19.7 19.7 0 0 1-.97.54c-.37.17-.77.29-1.2.31-.64.03-1.34-.08-1.81-.64a2.06 2.06 0 0 1-.4-.77l-.04-.13a3.22 3.22 0 0 1-.06-.4v-.02c-.05-.39-.01-.8.06-1.16a8.13 8.13 0 0 1 1.08-2.77c.79-1.26 1.69-2.34 2.53-3.5l.66-.96c.37-.02.48-.66.55-1.07l.03-.14v-.03l.25.07.13.05.1.03.25.1.19.08.02.01.15.09h.01l.36.23c.32.22.65.45.97.65h.01l.02.02.03.02.04.02.07.05.05.02.08.04h.01l.05.03h.01l.02.01h.01l.01.01h.02V73h.02l.05.04.03.01.02.01.02.01.25.1h.04l.02.01.04.01.02.01c.07.02.15.04.21.04h.01l.11.02h.06l.1.02h.07c.28.02.54 0 .8 0h.54l.12.02h.02l.11.02c.08.02.17.03.25.06h.02l.03.02.2.06.18.07.38.15.15.07c.03 0 .05.02.07.03.24.1.47.2.7.32l.3.16a1.35 1.35 0 0 0 .2.1l.04.02.02.02h.02v.01h.03l.33.19.02.02h.03l.03.03.34.2.01.02ZM31.2 84.72c5.16 6.55 17.06-9.12 19.09-13.45-.5-.05-1.07.07-1.63.06-.33 0-.67.02-1.03-.01-1.3-.08-6.9-2.14-8.16-2.52-.12 3.28-.53 3.89-3.22 5.29-.03.04-7.21 7.89-5.05 10.63ZM32.72 90.34c-3.27-.07-15.05-1.12-18.35-1.75 1.79.72 10.1 3.78 14.18 4.2 1.44.14 2.89.5 4.37.64l-.2-3.1ZM72.15 80.96c-.03 0-.06-.02-.08-.05l.06.03.02.02Z"/><path fill="#2B6B40" d="M63.77 74.41v.01h-.01a.56.56 0 0 1-.06.06l-.16.14c-4.3 3.74-6.08 4.34-6.4-1.86 0-.16-.02-.3-.03-.47v-.17l.06.02.07.03c.16.1.3.21.45.32l.02.01.36.23.3.2.06.03.01.01h.02v.01h.03V73h.01l.02.01.05.03.04.02h.01l.03.02.24.09h.01l.04.01.02.01.03.01h.03c.17.04.34.07.5.08h.66a5.7 5.7 0 0 1 .51 0h.14l.16.03.1.01h.02l.08.02h.03l.09.03h.04l.04.02h.02l.03.02.2.07.19.06c.29.1.56.22.83.34l.03.01c.08.04.15.08.23.1l.01.02.12.06.17.08h.02a10.15 10.15 0 0 1 .26.14l.05.02.02.01.2.1ZM17.57 89.69c.2-.89-.39-1.77-.74-2.63.16-.9 2.03-1.99 1.92-2.91-1.48.37-4.99 2.23-5.59-.09.73 4.49-.35 4.42 4.4 5.67v-.04Z"/><path fill="#E8D4BA" d="M20.12 45.7c.1.42.17.84.22 1.27.05.43.08.87.1 1.3l.03.55c.03.87.06 1.74.18 2.63v.01c.4 3.09 1.6 6.1 3.56 8.5.98 1.21 2.18 2.22 3.5 3.02 1.45.88 3.02 1.72 4.7 2.06a15.81 15.81 0 0 0 4.7.4 6.93 6.93 0 0 0 3.57-1.64 6.74 6.74 0 0 0 1.38-1.57 10.46 10.46 0 0 0 1.6-4.55c.3-2.02.55-4.7.86-6.18l.03-.15.04-.17.04-.15v-.04c.21-.72.41-1.53.58-2.4l.02-.84a51.67 51.67 0 0 1-.31-4.58v-.06l-.1-1.26c-.12-.33.08-1.2-.08-1.47-.06-.26-.34-2.57-.48-2.88a26.9 26.9 0 0 0-.17-.4c-2.08-4.46-3.77-3.95-7.44-3.8-1.18.05-2.36 0-3.53-.1-3.5-.34-6.54-1.38-8.93-.59-1.26.42-3.48 1.94-4.28 3.34-1.36 2.38-1.57 5.67-1.7 6.75-.44 1.63 1.57 1.46 1.91 3Z"/><path fill="#CEB79B" d="M30.88 40.38a5.28 5.28 0 0 1 2.48 3.5c.1.68-.03 1.61-.68 1.98-.66.36-1.45-.28-2.02-.58-3.52-1.86-6.3-1.86-6.45-2.27-.17-.46 3.73-1.42 3.89-1.87.05-.15.11-.3.2-.44.2-.21.46-.4.73-.55a.7.7 0 0 1 .22.02c.05.02.07-.06.02-.08l-.08-.02.4-.16c.45.05.9.24 1.29.47Z" opacity=".4"/><path fill="#CEB79B" d="M40.18 58.77c.44.03.87.03 1.3.02-.32.62-.67 1.21-1.06 1.78-1.8 2.69-4.6 5.15-8.03 4.47a14.97 14.97 0 0 1-4.69-2.06c-1.31-.8-2.52-1.8-3.5-3.01a17.08 17.08 0 0 1-3.56-8.51c-.26-1.95-.14-3.88-.19-5.84-.05-1.96-2.68-1.28-2.25-2.92.42-6.95 2.69-9.2 5.45-10.7.47-.26 2.79.3 3.37.85-.07.33-3.61 2.13-4.33 7.58-.44 4 1.83 27.23 14.17 14.06 1.27-1.37 1.47 4.18 3.32 4.28Z" opacity=".4"/><path fill="#CEB79B" d="M33.81 55.81c-.03.43.54.95 1.15 1.46.32.26.65.52.9.77h.01l.05.05c.17.16.3.32.39.46a6.55 6.55 0 0 0 1.39 2.02c.53.52 1.18.9 1.85 1.19.32-.39.61-.78.88-1.19.22-.3.45-.49.68-.6.72-.32 1.5 0 2.02-.8l.1-.15.05-.14c.14-.31.26-.73.36-1.2v-.01c.44-2.05.59-5.2.99-6.64.22-.78.44-1.68.62-2.64l-.02-.64v-.02.01a51.67 51.67 0 0 1-.31-4.58v-.05l-.08-.61-.01-.09-.05-.36v-.02l-.05-.4h-.37c-.38.03-1.03.07-1.76.15-1.87.17-4.31.46-4.38.7-.1.33-.1.2-.12.54l.02-.01h.06c.04.02.05.08 0 .11l-.08.05c0 .07-1.22.5-1.25.48l-.21.14-.06.05-.06.15a3.46 3.46 0 0 0-.1 1.97c.07.3.16.62.2.94.06.74-.07 1.47-.1 2.21v.53c.01.2.04.38.08.57.08.33.2.65.32.97l-.01.05c.22.55.45 1.06.62 1.37.13.23.24.31.3.36.11.08.13.09 0 .51-.14.52-.54.78-.98 1.03-.12.07-.26.14-.38.23a1.72 1.72 0 0 0-.35.35c-.18.3-2.01.35-2.28.66a.12.12 0 0 0-.03.07Z" opacity=".4"/><path fill="#CEB79B" d="M40.95 57.52a2.34 2.34 0 0 0 .56 1.2c-.33.64-.7 1.27-1.1 1.86-1.8 2.68-4.6 5.15-8.02 4.47a14.97 14.97 0 0 1-4.7-2.06c-1.3-.8-2.52-1.81-3.5-3.02a17.08 17.08 0 0 1-3.56-8.5c-.1-.74.89-7.82.86-8.54 1.54 6.85 3.93 13.67 9.73 8.68-.07.35-.25.67-.33 1.02-.08.33 0 .7.18.99.12.2.33.3.56.34.37.05.76-.02 1.13 0a4 4 0 0 1 2.74 1.38c-.3.17-.63.32-.92.52-.02.01-.03.04 0 .07.27.37.71.56 1.14.71.5.17 1.03.26 1.55.32.6.06 1.17.06 1.76-.01.68-.1 1.34-.25 2-.38-.06.3-.12.63-.08.95Z" opacity=".4"/><path fill="#CEB79B" d="M32.7 55.59c.66.67 1.26 1.32 1.06 1.45.17.2 1.03.58 2.11 1l.09.03.99.37c1.3.48 2.7.96 3.59 1.3l.07.02.03.01.08.03h.03l.04.03c.03 0 .06.02.08.03l.04.01.03.01.09.04.03.02c.02 0 .04 0 .05.02.19.07.3.14.33.17.08-.14.16-.21.25-.24h.01c.32-.09.7.35 1 .26l.02-.01c.08-.03.15-.11.22-.25a4.5 4.5 0 0 0 .3-.93l.1-.43a31.42 31.42 0 0 0 .23-1.16l.04-.3c.38-2.2.69-4.9 1.01-6.05.05-.18.09-.55.12-1.06v-.21l.03-.33.02-.83.01-.37v-.2l.01-.18V47.28l.01-.2v-.22l.01-.4V42.4c-.06-.03-.05-.2-.05-.36.01-.21.02-.43-.05-.43h-.39a11.3 11.3 0 0 0-1.76.15c-.92.18-1.79.5-2.66.87-.49.2-1.14.25-1.76.36-.48.1-.93.22-1.26.48a1.54 1.54 0 0 0-.4.5c0 .02-.01.02-.02.03a3 3 0 0 0-.16.73c-.04.43-.04.8.06 1.21.09.31.18.63.2.95.05.43.02.85-.02 1.27l-.02.27-.05.66v.53l.17.36c.35.7.73 1.42.98 2.18.08.25.16.51.18.78v.25c-.03.35-.2.51-.47.71-.24.18-.59.28-.72.55a1.06 1.06 0 0 1-.37.43c-.6.38-1.62.06-2.53-.79-.76-.7-2.35-.4-2.45-.31-.2.18.65 1.02 1.41 1.8Zm11.1-8.92c.15 1-.15 2-.47 2.94l-.07.22-.23.7c-.35 1.07-.68 2.15-1.02 3.23-.05.16-.45.33-1.05.51.07-.09.13-.19.17-.3.13-.31.09-.66-.02-.98a8.04 8.04 0 0 0-1.63-2.46l-.13-.15-.79-.9-.04-.05c-.24-.3-.5-.59-.67-.93-.22-.44-.4-.92-.45-1.41-.04-.4-.05-.88.18-1.22.4-.6 1.32-.76 1.98-.86A6.59 6.59 0 0 1 41.9 45c.89.2 1.76.69 1.9 1.68Z" opacity=".4"/><path fill="#CEB79B" d="m43.07 59.58-.06.16v.01l-.06.15c-.36.82-1.09-.55-1.5.25v-.02h-.01l-.02-.01h-.01l-.02-.02-.01-.01-.02-.01-.03-.01-.02-.01-.02-.01-.02-.01a.1.1 0 0 0-.03-.02h-.03l-.03-.02a.1.1 0 0 0-.02 0l-.04-.03h-.02a.36.36 0 0 1-.04-.02l-.04-.01-.04-.02-.03-.01-.05-.02h-.03a.19.19 0 0 0-.05-.03l-.03-.01-.06-.02-.03-.02a.3.3 0 0 0-.07-.02h-.03l-.06-.03-.04-.01-.07-.03-.02-.01-.09-.03-.02-.01a1.47 1.47 0 0 0-.08-.04h-.02a1.2 1.2 0 0 1-.1-.04l-.12-.04-1.43-.51a50.1 50.1 0 0 1-4.29-1.66l.4-.06c1.31-.19 2.66-.21 3.92-.63l.53-.2v-.53c.01-.2-.15-.5.1-.5s2.12 1.16 3.65-1.36c.3-.5.53-1.05.69-1.62.32-1.2.37-2.49.47-3.73.04-.66.1-1.32.2-1.97.08-.53.2-1.05.32-1.57.15-.75.21-1.54.15-2.3a3.3 3.3 0 0 0-.33-1.27h.38c.14 0-.03.79.1.8 0 0 .06 7.66-.2 8.6-.43 1.54-.83 5.7-1.4 7.94l-.05.21-.01.02-.05.19-.01.02-.05.16Z" opacity=".4"/><path fill="#CEB79B" d="M20.46 45.63c.98 1.67-.07 3.88.18 5.83.19 1.42.54 2.82 1.06 4.16.43-.11.88-.17 1.32-.22-.84-4.95-.4-11.85.32-12.29.95-.57 2.64-.3 3.5-.4a6.83 6.83 0 0 1 1.54 0c1.17.15 2.39-.09 3.5.42.24.1.5.28.54.55.04.28-.4.39-.38.68.83.42 1.22-.3 1.66-.66 1.67-1.35 1.89-.77 3.9.74.73.54 1.44-.04 2.94-.35 1.13-.23 3.06-.19 3.73-.08l.2.04c.19.03.19-.04.37 0v-3.2c-.08-.16-.02-.32-.1-.46-.09-.29-.29-.5-.3-.69-.27-7.6-6.14-6.65-8.88-6.48-.88.05-1.75.03-2.62-.07-.7-.07-1.32-.17-1.9-.28 3.32.78 6.85 1.83 7.84 2.91 2 2.2.84 5.92-2.44 5.08-3.29-.85-3.6 2.46-3.6 2.46-2.2-1.37-8.83-2.35-8.83-2.35s-2.63 3.27-5-.65a2.96 2.96 0 0 1-.36-.8c-.18.99-.3 2.06-.44 3.19-.44 1.62 1.61 1.83 2.25 2.92ZM29.1 60.34c-1.01-.63-5.47 3.76-5.75-3.8l.37-.04c.46-.05.24-1.04.47-.64 1.96 3.32 4.57 4 4.92 4.48Z" opacity=".4"/><path fill="#E8D4BA" d="M24.97 39.93c-.11-.49.8-.8 1.58-.8 1.01.01 1.57.58.71 1.1-.33.21-.83.33-1.26.3-.56-.03-.96-.29-1.03-.6Z"/><path fill="#D58500" d="M24.2 32.6c-1.26.43-3.49 1.94-4.29 3.34-1.35 2.38-1.57 5.68-1.7 6.76-.44 1.64 1.57 1.47 1.92 3 .1.43.16.85.2 1.27.38.06.94.21 1.45.54-1.3-5.98.28-9.37 2.42-14.9Z" opacity=".3"/><g fill="#C77500" opacity=".3"><path d="M32.2 57.44c.61-.23 1.27-.21 1.93-.2 1.39.04 2.8.22 4.15.57-.51.61-1.44.72-2.17.75-.4.01-.8-.02-1.18-.06-.29-.03-.58-.12-.86-.15-.6-.08-1.22-.06-1.83-.12a5.27 5.27 0 0 1-.93-.15c-.16-.05-.4-.13-.46-.32.12 0 .25 0 .37-.02.34-.04.65-.19.97-.3ZM34.66 60.2c.08-.01.77-.08.77.01.03.29-.06.57-.21.8-.33.5-.98.6-1.5.33-.47-.26-.58-.8-.57-1.3.48.25 1 .2 1.51.15Z" opacity=".3"/></g><path fill="#CEB79B" d="M18.84 53.28c2-1.29 2.45-4.56 1.87-7.24a7.88 7.88 0 0 0-1.2-2.8c1.15 3.78-.28 9.5-1.72 10.49a3 3 0 0 0 1.05-.45Z" opacity=".4"/><path fill="#3E875B" d="M38.85 45.26c.3-.09.68-.05.99-.04.32 0 .75-.04 1.05.12.07.02.13.05.17.12.29.5-.18 1.2-.63 1.44-.53.29-1.28.12-1.7-.3-.37-.37-.45-1.17.12-1.34ZM29.04 44.7c.56.26.36 1.07-.08 1.39-.5.36-1.27.42-1.77.04-.42-.31-.8-1.08-.43-1.56.05-.06.12-.09.19-.09.33-.12.76-.01 1.09.03.31.04.7.06 1 .2Z"/><path fill="#3B754B" d="M29.04 44.7c.56.26.36 1.07-.08 1.39-.37.27-.9.37-1.37.24l.13-.02c.3-.06.82-.2.87-.57.06-.48-.5-.57-.85-.59l-.8-.03h-.32a.75.75 0 0 1 .14-.54c.06-.07.12-.1.2-.1.33-.12.76 0 1.09.03.3.04.7.06.99.2Z"/><path fill="#676D54" d="M31.59 46.32c-.12-.04-3.01-2.72-6.42-1.21-.3.14-.52-.33-.22-.46 3.84-1.7 6.55 1.09 6.81 1.18.3.13.14.61-.17.5Z"/><path fill="#3B754B" d="M40.44 46.9c-.37.2-.84.18-1.23.02h.02c.24-.08.62-.22.61-.53-.01-.53-.8-.45-1.39-.36-.05-.33.06-.66.4-.77.3-.09.68-.05.99-.04.32 0 .75-.04 1.05.12.07.02.13.05.17.12.3.51-.18 1.2-.62 1.44Z"/><path fill="#676D54" d="M37.11 46.51c.13-.03 3.11-2.26 6-.3.25.18.52-.25.27-.43-3.26-2.22-6.1.16-6.36.23-.29.06-.2.57.1.5Z"/><path fill="#CEB79B" d="M32.02 54.33c.21.16 0 .52-.22.35-.53-.4-.98-1.04-1-1.73-.01-.5.05-1.13.5-1.43.24-.15.44.23.21.37-.3.2-.32.75-.29 1.07.03.54.37 1.04.8 1.37Z"/><path fill="#CEB79B" d="M37.83 52.07c.1.45.75 1.6.07 1.88-2.03.82-1 1.7-3.22 1.22-.24-.05-.84-1.4-2.47-1.19-.26.04-.37-.37-.1-.4 1.6-.22 2.32.8 2.79 1.2 1.23.25 1.7-.3 1.8-1.63.06-.64.05-1.29-.21-1.89-.11-.24.25-.45.36-.2.36.83.35 1.78.2 2.69.96-.83.87.7.37-1.57-.06-.27.35-.37.4-.1ZM36.78 47.74a9.2 9.2 0 0 0-.03 1.9.23.23 0 0 1-.05.18.24.24 0 0 1-.2.08c-.1 0-.17-.06-.18-.17-.07-.58-.02-1.16.03-1.72.03-.4.07-.8.05-1.19 0-.25-.06-.5-.12-.75a3.07 3.07 0 0 1 .07-1.95.2.2 0 0 1 .2-.16c.08 0 .15.04.2.1a.2.2 0 0 1 .02.19c-.18.62-.2 1.09-.06 1.63.11.4.15.79.13 1.18-.02.23-.03.46-.06.68Z"/><path fill="#E8D4BA" d="M18.75 53.08a2.96 2.96 0 0 1-1.24.44 1.88 1.88 0 0 1-1.35-.34 3.3 3.3 0 0 1-.91-1.05l-.03-.08c0-.04-.02-.09-.04-.15l-.08-.36c-.25-1.1-.77-2.46-.84-3.51v-.02c-.08-1.14-.14-3.17.72-4.47l.01-.02c.1-.14.2-.27.32-.39.19-.2.5-.28.78-.35l.1-.03.08-.02c.3-.1.6-.17.93-.28.3-.1.62-.15.93-.1.6.12 1.13.55 1.54 1.18.1.15.2.31.29.48a7.8 7.8 0 0 1 .72 2.4c.4 2.54-.13 5.54-1.91 6.67h-.02Z"/><path fill="#CEB79B" d="M17.41 49.23c.06-.46.77-1.56 1.15-1.78 0-.4.12-.75-.08-1.2-.54-1.17-1.06-1.47-2.17-1.86-.63-.22-1.04 1.25-.9 2 .19.99 1.31-.76 1.8-.57.88.34-.4 2.19-.58 2.71-.2.57.18 1.23.45 1.77.18.38.58.41.85.11.1-.1.16-.22.22-.35-.22-.34-.8-.36-.74-.84Z"/><path fill="#CEB79B" d="M18.75 53.08a2.98 2.98 0 0 1-1.24.44 1.88 1.88 0 0 1-1.15-.21l-.2-.13a3.3 3.3 0 0 1-.92-1.05l-.02-.07-.05-.16c.38-.5 1.11-1.35 1.27-1.48a6.16 6.16 0 0 0 .97-1.03c.31-.44.56-.93.71-1.47l.02-.05a6.02 6.02 0 0 0 .18-1.92 6.77 6.77 0 0 0-.08-.84l-.01-.05a3.04 3.04 0 0 0-.85-1.8c-.11-.12-.24-.2-.38-.28a2.3 2.3 0 0 0-.75-.25c.3-.1.6-.17.93-.28.3-.1.62-.15.93-.09.75.14 1.37.76 1.82 1.66.3.6.53 1.3.67 2.05l.03.18c.44 2.58-.06 5.68-1.89 6.84h.01Z" opacity=".4"/><path fill="#CEB79B" d="M18.75 53.08c-.28.18-.6.32-.95.39 1.32-.9 2.77-6.28 1.86-9.94a7.8 7.8 0 0 1 .98 2.72c.44 2.57-.06 5.67-1.89 6.83Z" opacity=".4"/><path fill="#CEB79B" d="M20.66 46.42c-.3-.35-.85-.65-1.1-.97a5.05 5.05 0 0 0-2.52-1.96c-.44-.12-1.3-.2-2.07.06l.02-.03.3-.39c.2-.2.52-.27.8-.34l.1-.03.08-.03.93-.28c.3-.1.61-.15.92-.09.61.11 1.13.54 1.55 1.17a7.8 7.8 0 0 1 .95 2.53l.03.19.01.17Z"/><path fill="#676D54" d="M17.37 53.46c-.12.4-.58 1.76-1.15 1.3-.67-.52 1.62-2.55 1.62-2.55s-.62-1.94-2.47.13c-2.41 2.7.3 4.9 1.5 3.57.6-.67 1.06-1.9 1.25-2.45-.2.02-.38.04-.75 0Z"/><path fill="#474C2F" d="M17.37 53.46c-.12.4-.58 1.76-1.15 1.3-.67-.52 1.62-2.55 1.62-2.55s-.05-.15-.17-.33c-.29.36-.6.68-.93 1-.39.38-.78.85-1.26 1.08-.32.15-.72.22-1-.06-.48 1.89 1.43 3.06 2.38 2 .6-.67 1.06-1.9 1.25-2.44-.19.02-.37.04-.74 0Z" opacity=".4"/><path fill="#474C2F" d="M17.37 53.45c-.12.41-.58 1.77-1.15 1.32-.67-.53 1.62-2.56 1.62-2.56l-.08-.16c-.34.13-.64.5-.9.78-.37.4-.72.86-.92 1.4-.18.5-.34 1.13-.16 1.67.03.1.09.26.16.4.33 0 .66-.11.92-.4.6-.67 1.06-1.9 1.25-2.45-.19.03-.37.04-.74 0Z"/><path fill="#949984" d="M15.33 53.27c.44 0 .88-.19 1.23-.48.32-.26.7-.68.9-1.15-.36-.34-1.02-.51-2.1.7-.22.26-.4.51-.55.76.15.12.34.17.52.17Z" opacity=".69"/><path fill="#CE8000" d="M29.09 34.71s10 3.12 12.96-.62c2.95-3.73-8.7-6.28-8.7-6.28s-13.31 2.95-4.26 6.9Z"/><path fill="#C77500" d="m16.82 36.8-.11 4.8c.16-.06 1.2.06 1.53.2.2-4.42 2.86-8.73 6.39-9.37l-.03.01c2.33 1.16 4.45 2.6 7.05 3 .4.08.8.15 1.22.2-1.75-.28-5.4-2.87-7.6-4.54-1.47-1.2-3.24-.2-4.46.86l-1.43-1.03s1.35 4.02-1.06 3.97c-.45-.01-.05 2.62-.05 2.62l-1.45-.73Z"/><path fill="#CE8000" d="M17.68 55.2c.15 1.62.72 3.3.66 4.95.12 2.15.43 9.4 3.4 8.6.02.05.32.79.74 1.55.18.33.39.68.6.96.43.54.89.87 1.29.53.41 1.38.92 2.8 1.78 4v.01c.34.54.8.97 1.36 1.31l.14.09.03.01.13.08c.7.38 1.49.62 2.32.78 1.8.33 3.73.23 5.11-.01l.14-.03c.96-.19 1.7-.55 2.27-1.02l.02-.01c2.09-1.72 1.96-4.83 2.05-5.88.5-.24 1.84-.25 2.35-2.58l.08-.1c1.68-2.13 2.6-4.84 3.1-7.26.15-1.52.21-3.32.62-5.86l.03-.24-.03.02c-.01-.75-.05-1.5-.1-2.26-.13-1.66-.34-3.37-.52-5.08a51.67 51.67 0 0 1-.3-4.58v-.03c-.02-.61 0-1.23.03-1.84a13.95 13.95 0 0 0-.43-3.32c-.15-.47-.29-.96-.48-1.26l.04.39c.06.48.13.97.22 1.47l.12.72c.12.77.24 1.55.3 2.32.03.57.04 1.13-.02 1.69-.06.63-.2 1.25-.43 1.85a4.7 4.7 0 0 1 .56.8l.2.37-.2-.15-.45-.34-.12-.1-.01.77-.02.37c.15.12.32.6.35.78l-.36-.27c-.35 2.37.5 5.8-1.03 7.68l-.02.03-.16.17c.27 1.33-.41 2.94-1.13 4.08.43-.97-.74-3.14-2.03-3.45.32.15.3.82.3.84-.08-.18-.66-1.19-.98-1.28l-.09.02c-1.58.38-3.32.46-5.26.26a22.76 22.76 0 0 1-2.78-.46l-1.24.82c.09-.42.28-.64.58-.85-3.6-.9-4.82 2.72-5.13 3.9-.49-1.26-1.37-2.09-1.08-3.26-3.23-.64-2-6.78-2.08-8.52l-.9.56c.43-.48 1-1.45.84-2.26l-.62.38c.17-.16.5-.67.6-.88v-.53a75 75 0 0 0-.64-.42l-2.25-1.49-.04-.02c.82.99 1.28 2.38 1.4 3.85v.01c.07.75.05 1.51-.04 2.26a8.84 8.84 0 0 1-1.2 3.55c-.42.66-.93 1.2-1.53 1.55l-.05.04c-.06.4-.05.8 0 1.23Z"/><path fill="#A05A07" d="M27.8 77.28c.7.38 1.49.62 2.32.78 1.79.33 3.73.23 5.11-.01l.14-.03a5.06 5.06 0 0 0 2.29-1.03c2.09-1.72 1.96-4.83 2.05-5.88.5-.24 1.84-.25 2.35-2.58l.07-.1c1.68-2.13 2.6-4.84 3.11-7.26.58-2.77.62-5.15.61-5.86v-.23c-.02-.74-.05-1.5-.1-2.25-.13-1.66-.34-3.37-.52-5.08a51.67 51.67 0 0 1-.3-4.58v-.03c-.02-.62 0-1.23.03-1.84a13.46 13.46 0 0 0-.43-3.32c-.16-.47-.3-.96-.48-1.26l.04.39c.06.48.13.97.22 1.47l.12.72c.12.77.24 1.55.3 2.32.03.57.03 1.13-.02 1.69-.06.63-.2 1.25-.43 1.85a4.69 4.69 0 0 1 .56.8l.2.37-.21-.15-.45-.34-.11-.1a34.65 34.65 0 0 1-.03 1.13c.14.13.32.62.35.79l-.36-.27c-.35 2.37.5 5.8-1.03 7.67l-.03.03.01.19.02 1.61c0 .76-.03 1.51-.07 2.28l-.02.22a35.45 35.45 0 0 1-.62 4.75c-.2-.7-.37-1.21-.44-1.92-.05-.4-.06-.85-.03-1.43-.03.6-.08 1.16-.14 1.69-.73 5.54-3.68 7.13-6.4 10.76.78-2.23 1.86-5.12 1.61-7.8-.02-.31-.07-.62-.14-.92a17.15 17.15 0 0 1-6.94 11.37l-.24.17-.45.31-.11.08c-.37.24-.75.47-1.14.68l-.07.04c-.07.05-.13.08-.2.11ZM21.39 44.19l-2.29-1.51a5.46 5.46 0 0 1 1.33 2.93c.27 2.7-.36 7.42-2.79 8.36-.28 1.06.37 2.08.4 3.16 3.09-2.55 2.75-8.1 3.35-12.94Z" opacity=".3"/><path fill="#995A07" d="M37.85 57.61c.28-.18.54.26.27.44-.5.34-1.2.4-1.78.5a25.14 25.14 0 0 1-6.22-.14c-.32-.06-.2-.56.13-.5 1.3.2 2.6.26 3.9.25.63 0 1.26 0 1.88-.08.56-.1 1.34-.14 1.82-.47ZM33.5 59.95c.17.22.73.15.96.15.32-.01.68-.03.99-.15.3-.1.42.4.12.5-.41.15-.9.16-1.33.16-.34 0-.88 0-1.1-.3-.2-.26.16-.62.37-.36Z"/><path fill="#D58500" d="M28.4 86.6v.28l.02.15v.06l.02.08.01.1.02.11c0 .04.02.08.03.11l.11.37.07.16.05.1c.03.08.06.15.1.21 0 .03.02.06.04.1l.1.2v.06c.01.33.04.64.07.94a6.84 6.84 0 0 0 1.49 3.61l.01.03.14.17.03.04.34.4c.12.12.22.22.32.29.19.14.35.16.5.15h.04c.28-.02.55-.14.99-.02l.08.02a1.65 1.65 0 0 0 1-.25l.18-.11.13-.09c.18-.13.36-.27.54-.43l.17-.18.1-.12.22-.28.1-.13.18-.28a1.75 1.75 0 0 0 .1-.2l.07-.11.01-.03.16-.36.08-.2a.87.87 0 0 1 .04-.12l.05-.15.04-.16v-.01l.04-.17.02-.12.02-.08.02-.13.04-.42v-.25c0-.4-.04-.82-.15-1.26h.01a.63.63 0 0 0 .16-.07h.01v-.01l.02-.01.06-.04h.01l.03-.02v-.01c.22-.17.39-.43.5-.74l.01-.02a4.17 4.17 0 0 0 .04-2.51l-.06-.18v-.02a2.23 2.23 0 0 0-.26-.5l-.04-.05a.42.42 0 0 0-.06-.08l-.04-.05a.12.12 0 0 0-.02-.03 4.68 4.68 0 0 0 .66-1.93l.02-.17.01-.37v-.23l-.02-.18v-.06l-.03-.18v-.07a3.46 3.46 0 0 0-.1-.42l-.08-.28-.07-.18-.07-.17v-.02a2.59 2.59 0 0 0-.22-.4v-.01l.09-.14.01-.02c.3-.43.55-.66.75-.9l-8.6-.27-.03.15-.02.1-.01.1v.07l-.01.14v.25l.03.12c0 .03 0 .07.02.1.04.18.09.38.17.63l-.08.14-.02.03v.01l-.01.02-.01.02-.01.02a5.09 5.09 0 0 0-.03 3.67l.1.28.07.18.07.18-.18.31-.08.16c-.28.6-.4 1.12-.42 1.58Z"/><path fill="#A05A07" d="M28.85 85.04a3.86 3.86 0 0 0-.44 1.84v.15l.02.06.01.08.02.1.02.12.03.1.11.37.07.16.04.1.03.06.07.15.05.1.1.2v.28l.01.06.01.05.02.26v.12l.02.17v.05a6.8 6.8 0 0 0 1.5 3.61v.02c.03.02.05.04.06.07l.08.1.04.04c.24.3.42.55.65.7.15.09.32.14.53.15h.02c.15 0 .34-.02.56-.07a2.05 2.05 0 0 0 1.46-.17l.04-.02.19-.1a1.83 1.83 0 0 0 .22-.16l.1-.07c0-.01 0-.02.02-.02v-.01c.11-.08.22-.17.31-.27l.02-.01.1-.1v-.01l.06-.06.1-.12.22-.28.1-.13.07-.11.08-.13.02-.02.01-.03.03-.06c0-.02.03-.04.04-.06 0-.03.02-.05.03-.07l.06-.1v-.03a1 1 0 0 0 .06-.12l.02-.03.02-.04.01-.04.06-.13.08-.2c0-.04.01-.07.03-.1v-.02l.02-.05.01-.05.02-.05.01-.04.01-.03.02-.08v-.03l.01-.02.04-.13.02-.14c0-.05.02-.09.03-.13v-.07l.02-.08v-.12l.02-.21v-.04l.01-.06V89.93c.02-.42-.04-.85-.14-1.27.01 0 .04 0 .05-.02h.01l.07-.04.03-.01.02-.01v-.01l.04-.02.02-.02h.01l.09-.08.02-.02.05-.05a.58.58 0 0 0 .05-.06l.02-.03.06-.07c.1-.14.18-.29.25-.45v-.02c.13-.3.2-.64.23-.99l.01-.13v-.3l-.02-.3-.02-.19v-.02l-.04-.15-.03-.15a3.02 3.02 0 0 0-.07-.24l-.02-.03v-.02l-.04-.12-.02-.04v-.02l-.01-.02a3.27 3.27 0 0 0-.25-.47c0-.02-.02-.04-.03-.05-.04-.06-.09-.11-.12-.17.45-.67.68-1.48.7-2.3v-.26l-.01-.08v-.07l-.01-.04v-.02l-.01-.09-.02-.18V81.25l-.01-.02v-.03l-.02-.09-.02-.08-.05-.23a12 12 0 0 0-.12-.4l-.02-.04-.01-.02-.01-.03v-.01l-.02-.02v-.02l-.03-.06a.11.11 0 0 0-.02-.04v-.01l-.01-.02-.01-.02-.03-.06-.06-.1c0-.03-.02-.05-.03-.08l-.05-.08-.01-.01-.01-.02a.11.11 0 0 0-.03-.03v-.01l.09-.13v-.01l.02-.01.06-.09c.2-.29.47-.55.7-.81h-.02l-1.26-.04-6.68-.2c-.23 0-.45-.02-.66-.03l-.04.14v.06l-.01.02v.03l-.02.1v.06l-.01.11v.19l.01.03.01.07.02.11c0 .04 0 .08.02.1l.02.1.02.07c0 .06.03.12.04.18l.04.13.01.03.02.06.02.06-.02.03c-.01.04-.04.06-.06.1v.01l-.01.03v.01l-.01.02v.01h-.01v.03l-.02.01v.01c0 .03-.02.05-.03.07l-.02.05v.03l-.02.04v.02l-.03.06-.04.1a.55.55 0 0 0-.02.08c-.02.03-.02.06-.03.1l-.03.09-.02.1v.02l-.01.02-.01.05-.02.1v.07l-.02.07-.01.07-.01.09v.09a5.5 5.5 0 0 0 0 .73v.13l.01.12.01.03.01.1v.02l.02.1v.02l.02.1v.07l.03.09.01.1.03.14.04.13.13.44v.02l.1.27.07.18.02.05.01.04v.02h.01l.03.08a.93.93 0 0 1-.05.08l-.02.04-.02.03-.02.04-.02.04-.03.04-.02.04c0 .02-.02.08-.05.12Zm5.34 6.65s.22-2.13 1.4-1.32c.95.67-1.16 2.4-1.4 1.32Zm1.99-8.4c-1.36 1.19-1.83.2-1.75-.33.35-2.17 3.49-1.1 1.75.33Zm-6.14-2.04c1.04-.21 2.04.59 2.3 1.7.04.16.05.29.05.4-.05.73-1.06.57-1.88-.08-.26-.2-.5-.46-.68-.75-.42-.64-.39-1.16.2-1.27Zm4.17 6.18c-.07-1.07 2.1-3.28 2.5-1.34.46 1.98-2.26 2.52-2.5 1.34Zm-4.42 2.32c1.36 0 2.14.78 2.42 1.5.34.88-.07 1.7-1.05 1.07-.17-.1-.34-.25-.54-.44-.57-.56-1.25-2.13-.83-2.13Zm-.37-3.05c-.16-.79.68-1.4 1.38-1.06 2.19 1.05 1.44 2.91-.79 1.77-.36-.18-.54-.44-.6-.71Z" opacity=".3"/><path fill="#995A07" d="M34.76 89.8c-1.29.5-.58 2.32-1.22 3.86.09.34-.42.67-.5.34.51-1.25.3-2.1-.03-3.08 0-.02-.49-1.79-1.59-1.7-.33.07-.45-.45-.12-.53 1.22.02 1.85 1.15 2.05 1.72.33-.4.34-.65.74-.88.32-.18 1.15-.18.67.26Z"/><path fill="#995A07" d="M34.83 85.1c.32-.1.89-.03.64.2-.1.12-.72.21-1.05.64-.58.75-.64 1.7-.6 2.6-.03.34-.47 1.01-.46-.05.28-1.3-1.03-3.64-1.63-3.62-.34.03-.32-.51.02-.53.72-.04 1.48 1.15 1.83 1.81.43-.63.64-.85 1.25-1.05Z"/><path fill="#A05A07" d="M28.4 86.6v.28l.02.15.01.07.01.07.02.1.02.11c0 .04.02.08.03.11l.11.37.07.16.04.1c.03.07.06.15.1.21l.05.1.1.2v.06c.02.02.03.25.04.59v.03l.02.25v.06a6.82 6.82 0 0 0 1.49 3.61l.01.02.06.06c.02.04.05.08.08.1 0 .03.02.04.03.05.24.3.43.55.66.69l.05.03c.13.07.28.11.47.12h.02c.16 0 .34-.02.56-.07.18.05.35.06.51.06H33c.14 0 .28-.01.41-.04.17-.04.33-.1.5-.17l.02-.02a.3.3 0 0 0 .04-.02l.19-.1c.02-.03.04-.04.07-.05l.01-.01.03-.02.02-.02.1-.07.09-.07.35-.3.1-.1c.17-.19.33-.39.48-.6l.16-.22c0-.02.02-.04.03-.05a.6.6 0 0 0 .03-.06l.14-.25v-.02l.02-.04.02-.05.02-.03.02-.04.03-.07.06-.14.08-.2.07-.21.02-.05.02-.08c0-.03 0-.05.02-.08.06-.23.1-.46.12-.69l.02-.23v-.35c0-.4-.05-.78-.14-1.16l.06-.02h.01l.07-.04.03-.02.01-.01.02-.01a.36.36 0 0 0 .06-.04h.01l.02-.02h.01l.05-.06.02-.02.05-.05.05-.06.02-.03.06-.07c.12-.18.22-.38.3-.59l.02-.06c.09-.26.14-.54.17-.81v-.43l-.01-.32-.03-.17v-.03l-.03-.15-.04-.15-.05-.18-.02-.05v-.04l-.02-.02-.1-.24c-.07-.19-.17-.37-.29-.53l-.03-.04-.04-.05a.22.22 0 0 1-.02-.03h-.01a4.63 4.63 0 0 0 .7-2.42l-.01-.29-.01-.15-.03-.2v-.04l-.01-.07a.94.94 0 0 0-.04-.17l-.04-.2v-.03l-.07-.21-.08-.22-.04-.1-.04-.1v-.01l-.02-.04-.03-.06-.06-.11a35.64 35.64 0 0 0-.09-.15v-.02l-.01-.02-.03-.03.08-.12.02-.03v-.01h.01l-.26-.07c-2.44-.6-5.07-.46-7.53-.08l-.08.01.08.35.04.12.01.03.02.06.03.06-.04.06-.04.07v.01l-.02.03v.03l-.01.02v.02l-.02.02-.03.07-.02.05v.03l-.03.06-.03.07-.03.08a.56.56 0 0 0-.03.1l-.02.09-.03.09-.02.1v.02l-.01.02-.02.05-.01.1-.01.07-.01.07-.01.07-.01.09-.01.09c-.02.24-.02.48 0 .73l.01.13.01.12v.03l.02.1v.02l.01.1v.02l.02.1.01.07.02.1.01.08c0 .04.01.07.03.1v.05l.03.1v.03l.03.06.03.12v.02l.03.1.02.05.02.1.1.28.02.05.03.07.03.06.01.04.02.05v.01l.01.01.03.08a.93.93 0 0 1-.05.07c.03 0-.01.06-.08.16l-.02.04-.03.03-.08.16c-.29.58-.42 1.1-.43 1.56Zm.97 2.94c.26-.28.9-.33 1.52-.19.36.08.72.22 1 .41.63.43 1.2 1.74 1.25 2.13.08.62-.13 1.2-.6 1.4a1.03 1.03 0 0 1-.63.03l-.15-.06a3.68 3.68 0 0 1-1.35-.95c-.83-.85-1.25-2.52-1.04-2.77Zm3.37-1.9c-.22 1.48-2.94.63-3.35-.66-1.25-3.84 3.57-1.47 3.35.66Zm3.15-3.27h-.01a5.22 5.22 0 0 1-2.3.08c0-.56-.33-2.4 1.3-3.1.17-.08.35-.14.55-.18 1.3-.3 1.96 1.07 1.36 2.2l-.07.13-.1.16a1.8 1.8 0 0 1-.73.7Zm-.03 4.14c-.54.3-1.56.06-2.04-.12l-.24-.1c-.12-1.26.6-2.79 1.6-3.23.2-.1.43-.14.65-.13 1.48-.08 1.5 2.06.76 2.93-.2.27-.44.5-.73.65Zm-2.04 4.03h-.05c0-1.08.43-2.77.43-2.77.2-.08.45-.16.7-.22.62-.14 1.27-.12 1.32.54.03.19.01.39-.03.58-.14.7-.32 2.06-2.37 1.87ZM28.98 82.3c0-.85.03-1.7.85-1.9.83-.21 1.86.23 2.72 1.7.62 1.07.41 1.7-.01 2.13-.65 0-3.56.2-3.56-1.93Z" opacity=".3"/><path fill="#995A07" d="M35.05 81.17c-.4.42-.7.88-1.03 1.36-.36.53-.22 1.28-.22 1.92 0 .35-.63.42-.63-.43 0-.67.12-1.32 0-1.7-.3-.58-.92-1.88-1.58-1.77-.33.06-.42-.47-.08-.53.79-.13 1.63 1.4 2.09 2.08.38-.5.74-.92 1.26-1.27.64-.41.42.1.19.34Z"/><path fill="#D58500" d="M31.7 102.16c.06.26.08.53.04.77l-.01.05c-.03.13-.07.25-.14.36a6.4 6.4 0 0 0 .84-.58c1.67-1.36 3.01-3.78 2.56-5.77a3.21 3.21 0 0 0-.47-1.08l-.06-.1a.37.37 0 0 1-.18-.3c-.04-.3.15-.65-.23-.7a3.02 3.02 0 0 0-.99.05c-.76.16-1.54.55-2.16.93-.65.4-.72 1.28-.56 2.26.27 1.66 1.23 3.62 1.35 4.11Z"/><path fill="#A05A07" d="M31.7 102.16a1.84 1.84 0 0 1 .03.82c-.03.13-.07.25-.14.36a6.35 6.35 0 0 0 .8-.54l.04-.03c-.6-1.16-1.16-2.36-.79-3.7.4-1.44 1.94-2.1 3.35-2.08a3.2 3.2 0 0 0-.47-1.08l-.06-.1a.37.37 0 0 1-.19-.3l-.29-.17a7.2 7.2 0 0 0-.93-.47 7.1 7.1 0 0 0-2.15.93c-.65.4-.73 1.28-.56 2.26.27 1.65 1.23 3.6 1.35 4.1Z" opacity=".3"/><path fill="#A05A07" d="M30.34 98.06a5.29 5.29 0 0 1 4.19-2.15l-.07-.09a.37.37 0 0 1-.19-.3l-.29-.18a9.3 9.3 0 0 0-.62-.33l-.31-.14a7.1 7.1 0 0 0-2.16.92c-.64.4-.72 1.28-.55 2.27Z" opacity=".3"/><path fill="#995A07" d="M34.14 97.85c.01 1.04-.22 1.99-.73 2.9-.17.3-.61.02-.45-.28.45-.8.66-1.62.65-2.54 0-.54 0-1.42-.56-1.67-.3-.15-.03-.6.28-.46.71.33.8 1.35.81 2.05ZM31.55 98.23c-.24.24-.63-.12-.38-.36.5-.51 1.32-1.13.93-1.95-.15-.3.29-.6.44-.3.53 1.12-.26 1.87-.99 2.6Z"/><path fill="#00C55E" d="M34.58 95.92h-.54c-1.68-.02-1.09-.02-3.29 0-.31-.32-.3-1.76-.15-2.58l.82-.02c1.71-.04 1.03-.05 3.54 0 .14.82-.07 2.28-.38 2.6Z"/><path fill="#06B253" d="M34.58 95.92h-.54c.38-1.97-2.63-2.6-2.63-2.6 1.72-.04 1.04-.05 3.54 0 .15.82-.06 2.28-.37 2.6Z"/><path fill="#995A07" d="M28.75 74.3c.02-.35.54-.34.53 0-.06.8.28 1.58.8 2.16.43.48 1.06.72 1.66.96-.64-.7-1-1.47-1-2.47 0-.35.52-.33.52.01 0 1 .42 1.68 1.1 2.35.21.2-.03.5-.26.44.01.18-.12.35-.33.27-.8-.33-1.58-.63-2.17-1.3a3.44 3.44 0 0 1-.85-2.43ZM33.96 77.24c.73.06 1.42-1.03 1.48-1.7.02-.3.49-.28.46.02-.05.7-.58 1.63-1.27 2 .27-.1.55-.14.82-.27.38-.2.7-.47.99-.78.55-.6 1.08-1.48.98-2.33-.03-.3.41-.41.45-.1.1.95-.35 1.83-.93 2.55a4.5 4.5 0 0 1-.94.88 3 3 0 0 1-.62.32c-.19.07-.4.08-.58.16-.25.1-.46-.24-.27-.38-.19.08-.38.12-.58.1-.3-.02-.29-.49 0-.47Z"/><path fill="#CE8000" d="M43.87 41.14c.62.19.43 1.73.28 1.93-1.4-.19-4.06.15-6.44 1.06-.38.02-.28.16-.94-1.27-.34-.74-.31-1.05.47-1.3l.44.68.02-.8c1.72-.4 4.57-.8 6.17-.3Z"/><path fill="#C77500" d="M43.86 41.13c.62.2.43 1.74.28 1.93-1.4-.18-4.05.15-6.44 1.06-.18.01-.25.05-.34-.06.38-.28.72-.64 1.06-.88.57-.4 1.25-.79 1.57-1.4 0 .2.02.4.17.51.21.16.56-.17.7-.29.37-.3.7-.68.94-1.1.77-.01 1.5.06 2.06.23Z" opacity=".3"/><path fill="#C77500" d="M40.3 43.28c.4-.28.85-.53 1.09-.95v.23c0 .02.03.04.06.04.36 0 .68-.26.94-.47.05.28.06.61 0 .92-.68.05-1.45.16-2.24.34l.15-.1ZM42.92 42.06c0-.37-.05-.75-.08-1.12.38.04.72.1 1.01.2.1.02.19.1.25.19-.15.25-.34.48-.54.67-.13.1-.26.2-.41.27l-.2.05c-.06 0-.02-.2-.03-.26Z" opacity=".3"/><path fill="#A05A07" d="M43.87 41.14c.62.19.43 1.73.28 1.93a9.72 9.72 0 0 0-2.42.06 3.82 3.82 0 0 0 .67-2.22c.55.03 1.05.1 1.47.23Z" opacity=".6"/><path fill="#CE8000" d="M31.93 40.4c1.49.31 1.6.18 1.46 1.25-.11.82-.54 1.74-1.1 1.6-.95-.22-4.27-.78-6.35-.93.27-.37.5-.63.5-.63s-.79-.03-1.57.38c-.12.06-.23.14-.3.23l-.13.02c-.57.1-.45-1.9-.35-1.94 1.63-.71 5.54-.47 7.44-.09l-.04.7.44-.6Z"/><path fill="#C77500" d="M31.94 40.4c1.48.32 1.6.2 1.45 1.26-.1.82-.53 1.74-1.1 1.6-.94-.23-4.27-.78-6.35-.93l.15-.2c.87-.07 1.74-.24 2.57-.51.72-.23 1.41-.57 2.04-.98.18-.11.33-.24.52-.4l.32.06-.04.7.44-.6Z" opacity=".3"/><path fill="#A05A07" d="M32.6 40.54c.86.17.91.24.8 1.12-.12.82-.54 1.74-1.1 1.6-.29-.07-.78-.17-1.4-.28.24-.19.45-.4.67-.6.54-.52.88-1.15 1.03-1.84Z" opacity=".6"/><path fill="#C77500" d="M24.63 32.43v.03c.72.35 1.45.71 2.07 1.09 1.54.9 3.2 1.57 4.95 1.9 3.4.63 8.34 1.06 10.44-1.25l-.04-.11.08.07a5.03 5.03 0 0 1 1.15 1.44c.53-.4.79-.9.86-1.44A12.32 12.32 0 0 0 42 29.6a12.2 12.2 0 0 0-.26-.28c.46.73-.06 1.8-.97 2.8-1.24 1.36-3.2 2.59-4.4 2.67-2.06.14-8.38-4.96-11.42-4.56-6.32.85-.32 2.2-.32 2.2Z" opacity=".3"/><path fill="#C77500" d="M31.8 35.47c2.7.54 6.05 1.03 8.62-.22a5.91 5.91 0 0 0 1.77-1.3v.01l.24.46.6.71.23.41c.28.47.48.97.62 1.48l.4 1.54.43.25-.18-.84a13.06 13.06 0 0 0-3.6-9.61 11.48 11.48 0 0 0-4.91-2.99c-.29.42-1.44.1-1.51.07l2.97 1.89-1.17.49c1.26 3.01.06 7.89-4.5 7.65Z"/><path fill="#A05A07" d="M38.89 35.77c.44-.1.99-.27 1.53-.52.7-.32 1.38-.75 1.78-1.29.25-.32.4-.67.4-1.06a6.94 6.94 0 0 0-.38-2.97 12.2 12.2 0 0 0-1.29-1.57 8.83 8.83 0 0 1-.43 3.21 39.5 39.5 0 0 1-1.61 4.2ZM35.8 36.01c.81.03 1.59 0 2.37-.1 1.34-1.6 1.51-4.9 1.36-6.68a5.24 5.24 0 0 0-.86-2.66l-.5-.3c.17.7.41 1.82.38 2.68-.04 1.35-.52 5.32-2.74 7.06Z" opacity=".3"/><path fill="#00C55E" d="m37.35 79.77-.97.01c-4.6.05-2.92.03-8.27.12-.76-.33-.78-1.87-.42-2.75l1.89-.04h.01c4.29-.1 2.15-.06 8.11-.1.39.87.41 2.4-.35 2.76Z"/><path fill="#06B253" d="m37.35 79.77-.97.01c1.07-2.58-6.39-2.67-6.79-2.67 4.29-.1 2.15-.07 8.11-.1.39.87.41 2.4-.35 2.76Z"/><path fill="#3E8E5B" d="M59.72 154.82c-.19-1.62-.57-3.1-1.42-4.53-.42-.7-.87-1.37-1.17-2.11a4.15 4.15 0 0 1-.02-2.7c.22-.8.46-1.53.5-2.36.07-.9 0-1.8.41-2.65.5-1.04 1.34-1.93 1.73-3.02.99-2.77-2.77-.8-5.8-.1-.84.2-1.6.19-2.44.01-.82-.17-1.6-.35-2.44-.27-.82.07-1.62.28-2.43.44-.95.18-1.9.2-2.87.16-1.93-.09-3.86-.1-5.77.28-.87.17-1.75.45-2.64.46-.9.01-1.8-.34-2.66-.57-1.79-.49-3.75-.41-5.59-.42-2.33 0-4.65.03-6.97-.04-1.2-.05-2.38-.04-3.59.08-1.17.1-2.31.23-3.45-.12-.97-.3-1.91-.86-2.76-1.4a4.95 4.95 0 0 0-2.26-.95c-.9-.08-1.74.43-2.55.73-1 .36-1.95.04-2.72-.58-.6-.48-2.26.56-.65 4.14.36.8.58 1.46.61 2.35.02.58 0 1.17.1 1.75.1.64.33 1.23.62 1.82.57 1.17 1.28 2.29 1.45 3.6.17 1.33-.74 2.46-1.07 3.7-.14.56-.06 1.13-.16 1.7-.22 1.3-2.6 1.72-.98 3.14 0 0 2.2-1.47 4.15.16 1.22 1.02 1.41 1.5 3.61 1.56 3.13.09 6.76.93 11.2.67 1.8-.1 3.53-.5 5.34-.5 1.73.02 3.38.62 5.12.59 1.75-.03 3.45-.72 5.18-1 9.55-1.56 4.72.57 11.67-1.05 1.69-.4 3.2-1.27 5-1.15.81.06 1.56.23 2.37-.03.36-.1.68-.28 1.06-.32.72-.07 2.54.58 2.3-1.47Z"/><path fill="#3B754B" d="M58.3 150.3c-.42-.7-.87-1.38-1.17-2.12a4.15 4.15 0 0 1-.02-2.7c.22-.8.46-1.52.5-2.35.07-.91 0-1.8.41-2.65.5-1.04 1.34-1.93 1.73-3.03.99-2.76-2.77-.8-5.8-.1l-.3.07c-.16.52-.38 1-.68 1.45-.59.88-1.6 1.67-2.78 1.54-.92-.1-1.47-.92-1.66-1.7a4 4 0 0 1-.07-1.54c-.6.1-1.21.25-1.81.36-.8.15-1.6.2-2.4.18 0 .19-.03.38-.07.58-.28 1.63-1.37 3.06-2.64 4.17a12.43 12.43 0 0 1-3.89 2.36c-1.68.6-3.47.83-5.27.89-1.83.05-3.66-.04-5.49.01-.97.03-1.95-.03-2.93-.06-1-.03-1.98.01-2.97.17-1.9.3-1.6 2.1-8.2.61-12.1-2.7-8.75-1.01-8.75-1.01l-.53-.16c.57 1.15 1.26 2.26 1.43 3.55.17 1.34-.74 2.47-1.07 3.7-.14.56-.06 1.13-.16 1.7-.1.6-.68 1.02-1.1 1.43 2.22-.5 4.62-.29 6.86-.03 1.01.11 2.03.27 3.05.38 1.66.19 3.3.39 4.94.7 2.94.57 5.8 1.44 8.53 2.59a12.66 12.66 0 0 1 2.43.08c.34-.62.8-1.16 1.34-1.6.85-.68 2.02-1.22 3.15-.9a5.44 5.44 0 0 1 2.93 2.28c.5-.12 1-.24 1.5-.32 9.55-1.55 4.72.58 11.67-1.05 1.69-.4 3.21-1.26 5-1.14.82.05 1.57.22 2.37-.03.36-.11.68-.29 1.06-.32.73-.07 2.55.58 2.3-1.48-.2-1.62-.58-3.1-1.44-4.52Z"/><path fill="#D58500" d="M57.5 147.96c.25-.26.92-.53-.54-1.21-.1-.05.07-.29.08-.34.04-.24.01-.44-.05-.67a.75.75 0 0 0-.26-.41.52.52 0 0 0-.6-.3c-17.89 3.24-45.73 2.93-49.93.8-.84-.43-1.92-.83-2.85-.4-.95.43-.42 1.5.2 1.97.08.4.1.86.08 1.37-.22 3.9 45.7 4.03 54.03-.04.42-.2.22-.68-.16-.77Z"/><path fill="#A05A07" d="M3.54 147.39c.07.36.1.75.1 1.18l.11-.12c.26-.25.56-.36.87-.52.28-.15.64-.38.31-.7-.53-.51-1.45-.47-1.88-1.13-.06-.08-.1-.17-.15-.27-.24.5.18 1.2.64 1.56ZM57.5 147.96c.25-.26.92-.53-.54-1.21-.1-.05.07-.29.08-.34.04-.24.01-.44-.05-.67a.75.75 0 0 0-.26-.41.52.52 0 0 0-.6-.31c-11.33 2.06-26.64 2.69-37.43 2.33a31.9 31.9 0 0 1-14.96 1.77c2 2.88 30.8 3.43 45.99 1.44.4-.7 1.04-1.29 1.77-1.69a5.24 5.24 0 0 1 3.5-.65c.67.14 1.23.46 1.65.93a9.9 9.9 0 0 0 1-.4c.43-.22.22-.69-.15-.78v-.01Z" opacity=".3"/><path fill="#A05A07" d="M57.79 148.64c.23-.23.04-.6-.29-.68.25-.26.91-.53-.54-1.21-.1-.05.07-.29.08-.34.04-.24.01-.44-.05-.67a.75.75 0 0 0-.26-.41.52.52 0 0 0-.6-.31c-8.01 1.45-18.02 2.2-27 2.38-1.74.7-3.54 1.23-5.33 1.76a46.63 46.63 0 0 1-10.66 2.05c9.78.83 24.98.69 35.16-.48 1.74-2.37 6.96-4.24 9.49-2.1Z" opacity=".3"/><path fill="#A05A07" d="M56.14 145.01c-3.78.7-8.01 1.22-12.36 1.6l-.33.33a22.54 22.54 0 0 1-6.56 3.9c-.18.06-.36.1-.54.17-.03.18-.04.38-.04.57 3.3-.13 6.52-.32 9.43-.59a53.47 53.47 0 0 0 3.65-1.68c1.38-.69 2.77-1.36 4.1-2.13.69-.4 1.4-.8 2.01-1.29l1-.82c-.11-.06-.23-.08-.36-.06Z"/><path fill="#D58500" d="M4.89 149.5c-.4-.06-.8.16-1.03.45-.35.48-.35 1.47-.48 2.03-.13.6.32 1.2.9 1.5.6.32 1.3.4 1.97.47 18.2 1.81 40.01-3.28 49.33-8.76.9-.53 1.89-1.4 1.52-2.3-.07-.16-.18-.31-.19-.48-.02-.44.63-.78.55-1.22-.06-.31-.47-.47-.8-.42-.35.05-.64.25-.91.45-6.4 4.38-33.4 11.48-50.86 8.29Z"/><path fill="#D58500" d="M56.92 142.4c-.02-.45.63-.78.54-1.22-.05-.3-.46-.47-.8-.42-.34.05-.63.26-.9.45-2.56 1.75-8.38 3.93-15.59 5.72-.31.55-.65 1.1-1 1.62-.65.93-1.39 1.74-2.25 2.48-.38.33-.78.65-1.17.96 8.26-1.73 15.44-4.23 19.83-6.82.9-.52 1.9-1.39 1.52-2.29-.06-.15-.17-.3-.18-.48Z"/><path fill="#A05A07" d="M56.92 142.4c-.02-.45.63-.78.54-1.21-.05-.31-.46-.47-.8-.42-.34.05-.63.25-.9.44-1 .7-2.5 1.44-4.4 2.21l-.05.45a2.63 2.63 0 0 1-.58 1.18c-.19.2-.46.47-.74.54-.26.07-.57.09-.7.39-.03.1-.04.19-.04.29-.02.21-.07.44-.23.6a.37.37 0 0 1-.25.12.34.34 0 0 1-.21-.08c-.25-.15-.37-.44-.44-.72-.06-.28-.08-.58-.2-.85-.08-.19-.3-.5-.54-.5-.1 0-.2.09-.3.12l-.36.12c-1.87.6-3.76 1.13-5.66 1.62-2.1.54-4.22 1.02-6.36 1.45-6.88 4.9-24.13 7.8-29.5 1.6-.07-.07-.14-.15-.2-.24l-.1-.01a.97.97 0 0 0-.45.03l-.08.03h-.01a.31.31 0 0 0-.07.03l-.02.02c-.01 0-.04.01-.05.03l-.03.01-.06.04a.1.1 0 0 0-.02.02l-.04.03-.03.03-.02.01-.15.16c-.36.48-.35 1.47-.48 2.03-.08.36.05.71.29 1l.06.09.01.01.07.07.02.02.06.06.02.02.07.04c0 .02.02.03.03.03l.06.04.05.03c.02 0 .03.02.05.03l.1.06c2.53 1.33 27.03 1.63 44.48-5.07-.19-.28-.13-.8.24-.86.34-.06.5.23.58.54a45.03 45.03 0 0 0 6-2.91c.9-.53 1.88-1.4 1.51-2.3-.06-.16-.18-.31-.18-.48Z" opacity=".3"/><path fill="#A05A07" d="M48 147.85a1.6 1.6 0 0 1-.5-.78.47.47 0 0 1 .05-.34c.08-.16 0-.42-.1-.56a.98.98 0 0 1-.23-.92c.02-.12.05-.25.1-.37l-.97.32c-.1.16-.2.34-.24.52-.18.65.04 1.34.38 1.9.31.54.73.91 1.33 1.1l.06.03 1.59-.6c-.53.05-1.09.05-1.47-.3ZM56.92 142.4c-.02-.45.63-.78.54-1.22-.05-.3-.46-.47-.8-.42-.34.05-.63.26-.9.45a21.7 21.7 0 0 1-3.6 1.87c.17.2.3.44.38.71.07.3.05.58 0 .87-.07.38-.11.72-.03 1.1.07.32.14.63.11.95v.04c1.03-.5 2.02-1.01 2.96-1.57.9-.53 1.9-1.4 1.52-2.3-.06-.15-.17-.3-.18-.48ZM3.57 152.79c-.03-.62.44-.85.89-1.16.35-.24.62-.62.45-1.06-.13-.33-.41-.57-.54-.9l-.03-.09-.06.03h-.02l-.05.04-.03.01-.06.04-.03.02a.1.1 0 0 1-.03.03l-.03.02-.02.02-.15.16c-.36.47-.35 1.46-.48 2.03-.07.3.02.6.19.87v-.06Z" opacity=".3"/><path fill="#A05A07" d="M47.83 146.12c-.25-.25-.66-.25-.97-.1a.63.63 0 0 0-.36.57c-.06.27.08.56.3.75.31.26.84.32 1.15.02.36-.35.2-.93-.12-1.24Z" opacity=".3"/><path fill="#A05A07" d="M47.72 146.24c-.2-.19-.53-.2-.76-.07a.5.5 0 0 0-.29.45c-.05.22.07.45.24.6.25.2.67.26.92.01.28-.28.15-.73-.1-.99Z"/><path fill="#CCD1C0" d="M48.75 148.33c0 .03.02.05.03.08-1.62.71-3.7-2.28-1.55-3.58 0 .03.02.05.03.08l.83-.28c-.19-.44-.45-.82-.76-.7-4.04 1.6-.63 6.86 2.14 5 .3-.22.25-.46.08-.9l-.8.3Z"/><path fill="#C2C2AC" d="M47.33 143.93c-.43.17-.78.39-1.05.63.26.07.5.26.63.5.1-.08.2-.16.32-.23l.03.07.83-.27c-.19-.45-.45-.82-.76-.7ZM46.56 148.63c.14-.26.34-.5.57-.6a2.33 2.33 0 0 1-.81-1.72.94.94 0 0 1-.83-.2 3.1 3.1 0 0 0 1.07 2.52ZM49.54 148.03l-.8.3.03.08c-.23.1-.47.13-.7.1a1.52 1.52 0 0 1 .02.8c.45.03.92-.08 1.37-.38.32-.22.26-.46.08-.9Z"/><path fill="#BBB99D" d="m47.33 144.88.77-.26c-.2-.44-.45-.82-.76-.7l-.42.2c.23.19.38.47.41.76Z"/><path fill="#C2C2AC" d="m47.33 143.93-.3.13-.24.25c-.3.3-.6.62-.75 1.02-.32.85-.05 1.87.43 2.6.43.69 1.1 1.11 1.92 1 .42-.05.7-.24 1-.53l.2-.2-.06-.17-.8.3.03.08c-1.62.7-3.7-2.28-1.55-3.58l.04.07.82-.27c-.18-.44-.45-.82-.76-.7h.02Z" opacity=".3"/><path fill="#BBB99D" d="M46.77 147.66a2.46 2.46 0 0 1-.32-.6l-.78.26c.1.26.22.5.38.73.15-.2.44-.35.72-.4ZM49.54 148.03l-.8.3.03.08a1.6 1.6 0 0 1 .25.75c.15-.06.3-.14.44-.24.32-.21.26-.45.08-.9Z"/><path fill="#CCD1C0" d="M47.99 146.83a.88.88 0 0 0-.27-.59.44.44 0 0 0-.13-.09c-.68.27-1.94.56-2.51.91-.35.22-.1.6.24.65.12.01 1.56-.43 2.66-.88Z"/><path fill="#C2C2AC" d="M47.72 146.24a.44.44 0 0 0-.13-.09c-.21.09-.47.17-.76.25a1.4 1.4 0 0 1-.6.76c-.38.23-.84.38-1.29.3.07.13.21.22.37.24.13.02 1.57-.43 2.66-.87h.01a.88.88 0 0 0-.26-.6v.01Z"/><path fill="#BBB99D" d="M47.72 146.24a.44.44 0 0 0-.13-.09l-.31.11c.06.28-.12.59-.3.8-.04.07-.1.14-.17.2.38-.13.79-.28 1.15-.43h.01c0-.22-.1-.44-.25-.59Z"/><path fill="#A05A07" d="M51.19 144.54c-.42-.1-.86.33-.86.72 0 .36.3.71.68.82a.7.7 0 0 0 .64-.15c.52-.37.18-1.23-.46-1.4Z" opacity=".3"/><path fill="#A05A07" d="M51.17 144.75c-.3-.08-.63.24-.63.52 0 .27.22.53.5.6.17.05.35 0 .47-.1.38-.28.12-.9-.34-1.03Z"/><path fill="#A05A07" d="M55.25 143.05a.7.7 0 0 0-.68-.36c-.95.06-.99 1.29-.29 1.58a.6.6 0 0 0 .2.07c.68.12 1.18-.66.77-1.29Z" opacity=".3"/><path fill="#A05A07" d="M55.07 143.18a.51.51 0 0 0-.5-.27c-.68.05-.7.94-.2 1.15.04.03.09.04.14.05.5.1.85-.48.56-.93Z"/><path fill="#A05A07" d="M43.05 147.48c-.27-.16-.62-.14-.9-.01-.33.15-.43.53-.34.83.24.77 1.34.83 1.62.04.12-.34-.07-.68-.38-.86Z" opacity=".3"/><path fill="#A05A07" d="M42.95 147.63a.76.76 0 0 0-.69 0c-.26.11-.33.4-.26.63.19.6 1.03.63 1.24.03.1-.26-.05-.52-.3-.66Z"/><path fill="#A05A07" d="M37.72 148.69h-.04c-.34-.07-.7-.01-.92.3-.06.1-.09.2-.09.3-.08.4.1.79.48 1 .22.14.47.14.73.1.3-.05.48-.32.58-.55.24-.61-.27-1.1-.74-1.15Z" opacity=".3"/><path fill="#A05A07" d="M37.68 148.91h-.02c-.25-.05-.52 0-.67.22a.37.37 0 0 0-.07.23.7.7 0 0 0 .35.74c.17.09.35.1.54.07.22-.04.35-.24.42-.4.18-.45-.2-.82-.55-.86Z"/><g filter="url(#b)" opacity=".4" style="mix-blend-mode:multiply"><path fill="#8D9280" d="M57.34 146.8c15.94-1 27.74-19.48 26.36-41.25-1.38-21.77-15.42-38.6-31.35-37.6C36.4 68.97 24.6 87.44 25.98 109.2c1.38 21.78 15.42 38.61 31.36 37.6Z"/></g><path fill="#CCD1C0" d="M-24.14 107.2c.42 3.71.84 7.43 1.12 10.52.95 10.08-1.66 18.99 3.59 26.46.82 1.15 1.9 2.6 3.04 3.53.25.2.54.4.8.52 4.02 1.19 10.11-.47 13.57-1.12.89-.26 1.16-1.09 1.59-2.24.98-3.23 1.22-7.11 1.41-10.55.04-2.19 1-4.19.99-6.38-.25-4.08-1-8.16-.7-12.25v-.01c.05-1.13.12-2.28.23-3.4.43-3.7-.39-7.44-.48-11.16v-.26l-25.16 6.33Z"/><path fill="#C2C2AC" d="M-20.97 141.58c1.37 2.83 3.03 5.13 5.23 6.3 5.2-4.6 10.08-9.58 15.33-14.15.54-.48 1.1-.9 1.67-1.28l.23-2.45c.25-3 .19-6.03.13-9.04-.75-9.74 1.12-20.55-2.55-29.76-3.99-8.13-12.36-8.18-19.58-6.82-.95.19-2.44 1.13-2.88 2.08-.93 1.96.63 3.4-1 5.12-.8.46-1.41 1.1-1.17 2.2.7 6.64 1.43 13.41 2.17 20.1 0 0 8.79 1.19 12.08 3.37 8.8 5.63 6.25 15.13-1.56 19.45-2.64 1.83-6.2 3.52-9.24 1.48.52.38.85 2.74 1.14 3.4Z" opacity=".4"/><path fill="#C2C2AC" d="M-.85 127.69c-.53 2.4-1.2 4.8-.92 7.22a11.9 11.9 0 0 1 3.2-.17c.06-.58.14-1.21.19-1.92.62-8.2.47-17.21.37-25.5-.06-4.8-.77-10.76-2.5-15.09-3.33-8.7-12.21-9.05-19.48-8.2-1.62.13-3.39 1.18-3.64 2.95-.03 2.98 1.25 2.85-1.52 5.17-1.26 3.95.75 15.1 1.52 19.64 9.04-.86 26.77-2.22 22.78 15.9Z"/><path fill="#BBB99D" d="M2 126.1c-.02 1.12-.05 3.9 0 5.02 0 0-16.12 10.38-16.36 7.15-.36-4.76 9.3-10.32 11.25-11.34 1.15-.92 3.8-1.63 5.11-.83ZM2.04 111.76s-2.11-8.68-6.27-9.55c-6.77.8-7.31 2.63-10.74 4.85l-9.87-3.98S-30.73 87.32.62 91.65c0 0 2.09 13 1.42 20.1Z"/><path fill="#9EA58E" d="M-1.5 98.66c.1-.2.36-.31.56-.4.27-.12.54-.21.8-.33.85-.4 1.7-.77 2.57-1.07.4-.15.82-.26 1.23-.4.34-.1.68-.21 1.03-.27a1.8 1.8 0 0 1 1 .07l.02.01.02-.01c.63-.52 1.22-1.08 1.75-1.68C6 88.08-6.21 71.72-6.21 71.72c-8.73.34-17.64 3.79-21.78 9.17 11.81.13 21.15 9.03 25.94 18 .18.04.38-.1.53-.22l.01-.01Z"/><path fill="#9EA58E" d="M5.63 95.9c.64-.52 1.22-1.08 1.75-1.68C5.92 87.7-6.3 71.36-6.3 71.36c-8.73.34-17.65 3.78-21.78 9.16 11.95.14 21.4 9.3 26.13 18.37a14.35 14.35 0 0 0 7.58-3Z"/><path fill="#949984" d="M-6.3 71.36a36.3 36.3 0 0 0-15.33 3.97c5.92 1.7 12.72 6.85 13.12 14.43a39.6 39.6 0 0 1 6.57 9.13 14.3 14.3 0 0 0 7.57-3c.64-.52 1.22-1.08 1.75-1.68C5.92 87.71-6.3 71.36-6.3 71.36Z" opacity=".4"/><path fill="#949984" d="M-6.3 71.36a37 37 0 0 0-14 3.3c6.15-.13 19.33 13.89 22.19 23.19l.04.14a13.86 13.86 0 0 0 5.45-3.78C5.92 87.71-6.3 71.36-6.3 71.36Z"/><path fill="#9EA58E" d="M-22.87 73.39c-.25.1-.1.31-.34.41 12.38-.42 23.88 9.45 27.38 24.76l.07.02 5.86-.4L8.23 68.6c-7.5-.93-21.57 1.14-31.1 4.79Z"/><path fill="#9EA58E" d="M11.17 98.66c2.99-6.41 6.5-21.82 1.85-28.55-2.8-4.07-23.72-1.7-36.26 3.32 12.48-.42 24.08 9.62 27.47 25.15 2.97.32 5.1.31 6.94.08Z"/><path fill="#949984" d="M13.02 70.11c-1.42-2.05-7.45-2.46-14.69-1.73.9 4.41.1 9.53-3.26 12.75 4.31 4.33 7.6 10.3 9.16 17.44 2.96.32 5.09.31 6.94.08 2.99-6.4 6.5-21.8 1.85-28.54Z" opacity=".4"/><path fill="#949984" d="M9.87 89.42a24.16 24.16 0 0 1-3.43 9.35c1.88.1 3.39.06 4.74-.11 2.99-6.41 6.5-21.82 1.85-28.55-.7-1-2.46-1.6-4.93-1.88a64.44 64.44 0 0 1 2.15 13.4c.14 2.6.03 5.23-.38 7.8v-.01Z"/><path fill="#C68734" d="m42.46 151.86-20.8-6.55-.22-15.4 21.54 6.6-.52 15.35Z"/><path fill="#BA792B" d="m24.26 146.13 6.46-4.66h-5.95l-1.53-9.5-1.67 7.32.09 6.02 2.6.81ZM32.87 135.51l7.1 5.96-7.1 2.68 7.45.57-3.09 5.56 5.34-1.64.41-14.11-10.11.98Z"/><path fill="#9E6420" d="m42.96 137.4-21.56-6.3.04-1.18 21.54 6.23-.02 1.25Z"/><path fill="#EABA42" d="m41.59 130.55 51.5-.4-.2 5.98-1.61.01-.53 15.35-48.3.37.54-15.34h-1.6l.2-5.97Z"/><path fill="#EABA42" d="m41.59 130.55 51.5-.4-.2 5.98-1.61.01-.53 15.35-48.3.37.54-15.34h-1.6l.2-5.97Z"/><path fill="#DD983C" d="m90.9 146.87-3.2-8.83-.56 7.77-4.35-2.19 2.82 5.66-7.42 2.3 12.56-.1.16-4.6ZM70.76 133.34l7.43 5.57-6.87-.7.16 9.78-7-9.39-1.1 6.12L59 138.6l-3.32 5.33-2-9.92 17.08-.67Z"/><path fill="#DDA040" d="m42.98 136.52 6.44-.09s4.7 15.74 27.3 15.26l-34.25.17.52-15.34Z"/><path fill="#A45CAE" d="M56.7 127.57v24.18h-1.42v-24.18h1.42Z"/><path fill="#86458F" d="M28.48 129.75v17.7l-1.41-.34v-17.36h1.41Z"/><path fill="#A45CAE" d="m91.1 140.98-.04 1.42H42.78l.05-1.42h48.28Z"/><path fill="#86458F" d="m42.8 142.4-21.3-6.47v-1.4l21.35 6.43-.05 1.44Z"/><path fill="#FDCB4D" d="m41.59 130.55-21.54-6.6 51.5-.4 21.54 6.6-51.5.4Z"/><path fill="#FFD876" d="m93.1 130.15-21.94.17c-3.87-1.08-6.28-2.53-6.23-4.05.05-1.03 1.23-1.96 3.26-2.69l3.36-.02 21.55 6.6Z"/><path fill="#C68734" d="m41.39 136.53-21.55-6.6.2-5.98 21.55 6.6-.2 5.97Z"/><path fill="#DDA040" d="M43.36 128.69s34.17.72 37.56 0l-46.29-4.85-14.6.12 15.33 4.73h8Z"/><path fill="#C68734" d="m42.96 137.4 48.28-.2.04-1.05-48.3.37-.02.88Z"/><path fill="#EABA42" d="m41.39 136.52 51.5-.39.2-5.98-51.5.4-.2 5.97Z"/><path fill="#3B896B" d="m43.57 87.73-.4 40.97-9.54-2.88.4-40.97 3.64 1.1 1.82.55 4.08 1.23Z"/><path fill="#2F6E56" d="M43.57 90.22 34 87.62l.03-2.77 9.47 1.83.07 3.54Z"/><path fill="#61B997" d="m41.23 81.51 42.66.04-.06 6.2h-2.4l-.4 40.98-37.86-.03.4-40.97h-2.4l.06-6.22Z"/><path fill="#48A07E" d="M45.93 87.78s1.61 34.28 35.15 30.98l-.05 9.97-37.86-.03.34-41.07 2.42.15Z"/><path fill="#6ACCA6" d="m41.23 81.51-9.54-2.87 42.66.03 9.54 2.88-42.66-.04Z"/><path fill="#3B896B" d="m41.18 87.73-9.54-2.89.05-6.2 9.54 2.87-.05 6.22ZM43.38 87.73l38.1.02-.03 2.46H43.38v-2.48Z"/><path fill="#304DBA" d="m37.3 80.32 1.17 47.05-1.83-.55L35 79.63l2.3.7Z"/><path fill="#718FFF" d="m51.55 78.64 9.55 2.87h5.27L55.7 78.64h-4.14Z"/><path fill="#718FFF" d="m79.95 80.36-42.65-.04-2.3-.69h42.55l2.4.73Z"/><path fill="#526FDF" d="M65.08 128.84h-4.05V81.5h5.26l-1.2 47.36Z"/><path fill="#334489" d="M46.34 72.06s.58 6.04 6.89 8.05h5.74s-9.5-4.9-8.88-8.9l-3.75.85Z"/><path fill="#526FDF" d="M58.16 79.89s-1.63-10.24-11.82-7.83l2.61-3.04c.2-.24.5-.38.82-.4 1.95-.08 8.91.38 10.16 11.2l-1.76.06Z"/><path fill="#334489" d="M58.4 79.83s9.36-2.28 9.87-5.81l3.03.5s.28 4.16-6.6 5.6l-6.3-.29Z"/><path fill="#526FDF" d="M55.53 80.11s4.12-9.51 12.72-9.05c.35.02.67.2.87.47l2.18 2.99s-9.7-2.08-12.43 5.78l-3.34-.19Z"/><path fill="#718FFF" d="m55.04 70.09-3.27 1.93a9.5 9.5 0 0 0-3.47-.28l4.53-2.71c.7.22 1.47.55 2.2 1.05ZM56.77 71.6l-2.24 1.85c-.3-.24-.63-.47-.99-.67l2.69-1.74c.18.17.36.36.54.56ZM62.98 72.15l-.46 3.58c-.43.25-.84.54-1.23.89l.62-3.82c.33-.23.7-.45 1.07-.65ZM67.48 74.31c-1 .07-2.1.24-3.19.6l.31-3.43a9.74 9.74 0 0 1 1.98-.38l.9 3.21Z"/><path fill="#474C2F" d="M25.39 144.77c-.9 2.22-2.53 4.12-4.1 5.94-1.12 1.16-2.14 2.6-3.46 3.51l-.23-.05-.06-.17-1.01-2.88s5.1-9.97 8.17-8.96c1.16.39 1.1 1.6.7 2.6l-.01.01Z"/><path fill="#676D54" d="M25.4 144.77a19.03 19.03 0 0 1-3.06 4.72c-1.42 1.6-2.8 3.45-4.51 4.74l-.24-.05-.06-.17c2.36-2.54 10.28-10.1 6.48-12.3l.27.11c1.4.7 1.67 1.6 1.12 2.95Z"/><path fill="#E8D4BA" d="M36.1 155.86c1.27-.18-2.48-7.33-1.34-7.98.39-.21 1.1-.47 1.87-.69 1.35-.38 2.91-.65 3.35-.45 4.69 4.34 7.84.55 7.84-.1 0-.07-3.02-2.16-5.1-3.6l-1.97-1.34c-2.3-.53-4.5-.63-6.62-.53-3.72.18-7.17 1-10.37 1.36l-.17.07-.7-.18c-2.73-.8-4.87-3.02-7.43-4.28-.06-.04-.13-.07-.2-.06-.09.01-.16.1-.22.17a26 26 0 0 0-4.35 8.76c-.46 1.68-.72 3.64.25 5.03.15.22.33.42.54.55.27.17.59.22.9.28l8.05 1.52c3.42.64 6.98 5.44 12.25 6.92 2.13.61-5.3-4.24 3.41-5.45Z"/><path fill="#CEB79B" d="M24.6 156.6s-.48-3.26 1.2-5.53c0 0-.5 4.23.19 6.56l-1.38-1.03ZM23.47 155.8a8.58 8.58 0 0 0-3.04-1.42l-1.85-.34c-2.06-.4-4.13-.78-6.2-1.17-.3-.06-.62-.12-.88-.28-.22-.14-.4-.33-.55-.55-.96-1.4-.72-3.36-.24-5.03a26.04 26.04 0 0 1 4.34-8.77c.07-.07.13-.15.22-.17.08 0 .14.03.2.06 2.57 1.27 4.7 3.48 7.43 4.28.26.08.5.14.7.18l.18-.07c.74-.08 1.5-.19 2.29-.3 0 0-2.45.93-4.79 4.77-2.96 4.86 1.59 8.37 2.19 8.8Z" opacity=".4"/><path fill="#CEB79B" d="M23.6 142.6s-6.3 5.1-5.02 11.44c-2.08-.68-6.24-.51-7.63-2-2.2-2.85 2.02-12.3 4.51-13.92 2.78 1.39 5.07 3.85 8.14 4.47Z"/><path fill="#E8D4BA" d="M37.96 164.71c2.12-.04 4.9-.25 5.17-.36.62-.24 4.63-3.44 5.14-3.86.2-.16.22-.37.1-.6a1.82 1.82 0 0 0-.83-.72 4.24 4.24 0 0 0-1.89-.41h-.06c-1.2.05-2.4.44-3.57.76l-.52.14a7.6 7.6 0 0 1-3.06.25c-2.53-.42-4.51-2.85-7-3.5-.7-.16-1.47-.19-2.07.3-.13.1-.24.27-.35.48-.36.71-.62 1.87-.52 1.91 2.8 1.62 5.59 4.95 7.14 5.48.3.12 1.22.15 2.32.13Z"/><path fill="#CEB79B" d="M43.86 162.06c2.68-1.16 3.65-2.04 4.4-2.55-.5-.25-3.63-1.3-5.94.06-1.11.66-2.46.58-3.68.38-.8-.13-3.07.62-3.88.3-3.21-1.27 1.7 2.11 2.62 2.38 3.28.94 4 .5 6.48-.57Z"/><path fill="#CEB79B" d="M45.76 162.07c0-1.44 1.02-1.87 2.23-1.93-2.41-.37-2.53.8-2.23 1.94Z"/><path fill="#E8D4BA" d="M40.99 162.71c.7-.07 3.7-1.24 5.8-2.12a49.04 49.04 0 0 0 2.17-.98c.29-.26.18-.13 3.23-5.85a.52.52 0 0 0 0-.5.49.49 0 0 0-.15-.18 3.12 3.12 0 0 0-.7-.38 4.74 4.74 0 0 0-2.26-.2 6.6 6.6 0 0 0-1.67.5l-.28.12c-1.4.67-2.68 1.65-4.1 2.29-.1.06-.23.1-.34.15l-.26.1c-1.36.5-2.83.64-4.24.41-1.16-.19-2.27-.62-3.39-.94-.38-.11-.77-.22-1.16-.28a5.73 5.73 0 0 0-2.31 0 3.49 3.49 0 0 0-2.61 2.27c.08.02.18.04.26.08 4.49 1.36 8.77 5.84 12 5.51Z"/><path fill="#CEB79B" d="M51.8 152.91c-1.94 4.48-2.51 5.73-8.67 6.12-.92-.02-1.61.59-2.46.84-1.14.35-8.31-1.76-6.17-3.59.62-.53 12.59-5.58 17.3-3.37Z"/><path fill="#E8D4BA" d="M40.98 159.06c.13 0 .67-.05 1.45-.14 1.4-.17 3.56-.5 5.32-1.18l.74-.3c1.59-.76 2.48-2.06 3.7-4.17l.02-.03s.3-.3-.09-1.2l-.04-.1-.17-.32c-.23.03-.44.1-.63.19-.4.17-.76.43-1.14.65-.34.19-.67.35-1.08.4l-.37.07-1.56.2a26.48 26.48 0 0 1-5.04.19c-1.96-.18-3.86-.7-5.82-.84-.25-.02-.85.28-1.39.65-.47.32-.89.7-.99.95a10.3 10.3 0 0 0-.57 2.36c2.4 1.2 5.97 2.76 7.66 2.62Z"/><path fill="#CEB79B" d="M46.8 160.58c3.93-2.01.99.82 5.4-6.82a.52.52 0 0 0 0-.5c0-.02.02-.03.02-.03.02.08.28-.56-.14-1.3l-2.1-.33c-.8.85-2.64 2.72-3.47 3.58 0 0 1.98 1.86 1.25 2.56-.68.7-.13.52-.13.52.26.27.75 1.34-.84 2.32Z" opacity=".4"/><path fill="#CEB79B" d="M47.83 155.7c-8.92.13-4.27 2.05-12.68-1.96-.95-.45.56-1.4 1.14-1.28 1.96.14 3.86.67 5.82.84 2.31.2 4.65-.11 6.96-.44 1.1-.16 1.64-.9 2.73-1.07 0 .04.08.03.21 0 .19.36.27.64.3.86-2.9.73-3.04 3.42-4.48 3.06Z"/><path fill="#E8D4BA" d="m42.44 155.67.16.01c.82.02 6.14-.72 6.54-1.09.62-.57 1.44-1.24 2.21-1.88l.78-.67c.76-.67 1.3-1.24 1.24-1.52-2.16-2.01-6.27 1-6.37 1.03-1.04.4-4.97-.23-4.97-.23-.56-.06-6.1-5.83-9.28-7.3 0 0-4.93 5.17-4.9 6.7 1.98.37 4.54 1.39 7.03 2.4 3 1.21 5.9 2.43 7.56 2.55Z"/><path fill="#CEB79B" d="M37.96 164.7c2.12-.03 4.9-.24 5.16-.35.62-.24 4.62-3.45 5.14-3.87.2-.16.22-.37.1-.6.33-.14.54-.25.6-.29.29-.25.18-.12 3.23-5.84a.52.52 0 0 0 0-.5l.02-.04s.3-.3-.09-1.2c.76-.67 1.3-1.24 1.24-1.51-2.16-2.02-6.26 1-6.37 1.03-1.04.39-4.96-.24-4.96-.24s.51 1 .85 2.05c.27.8.43 1.64.17 2.06-.1.15-.24.23-.45.27 0 0 2.44 2.5-.18 3.24l-1 .65.05.11c.24.49 1.05 2.43-.49 3.03l-1.91.32c.01.01.63 1.39-1.11 1.69Z" opacity=".4"/><path fill="#CEB79B" d="M46.58 146.9a7.2 7.2 0 0 1-2.35-.37c-1.2-.42-.7-1.61-.66-2.07-1.23 2.25 1 3.45 3.01 2.44Z"/><path fill="#EDDAC5" d="M33.55 152.01c.33.56 1.09 1.16 1.85.95 1.04-.3 1.11-1.39.71-2.16-1.17-2.29-3.38-.14-2.56 1.21ZM33.96 156.28c.5.18 1.21.17 1.42-.32.3-.67-.35-1.36-1-1.63-1.94-.8-1.63 1.54-.42 1.95ZM33.65 159.56c.43.15 1.02.15 1.1-.24.14-.53-.49-1.1-1.07-1.32-1.7-.68-1.09 1.2-.03 1.56ZM33.05 162.39c.52.37 1.22.63 1.37.2.21-.6-.5-1.56-1.19-2.1-2-1.54-1.42 1.01-.18 1.9Z"/><path fill="#CEB79B" d="M47.83 146.64c-2.64 2.71-6.64-.16-9.57-1.86-2.92-1.7-6.24.71-4.3 1.17.77.19 1.77.7 2.68 1.25 1.35-.38 2.9-.65 3.34-.45 4.7 4.33 7.84.53 7.85-.11Z" opacity=".4"/><path fill="#CEB79B" d="M37.35 147.3s-2.42-1.17-3.23-1.5c-.8-.3-.4-1.09.3-.8.7.3 1.13 1.24 1.75 1.27.64.03 1.18 1.04 1.18 1.04Z"/><path fill="#EDDAC5" d="M41.18 144.65a2 2 0 0 0 1.54-1.6l-1.96-1.35c-2.3-.53-4.5-.63-6.62-.53l-.05.07c-.02 0 4.35 4.16 7.1 3.4ZM34.09 143.76c.03-.33-.26-.62-.65-.66-.39-.03-.73.2-.76.52-.03.33.26.62.65.66.39.03.73-.2.76-.52Z"/><path fill="#CEB79B" d="M50.76 151.16c.45-.58.84-.93 2.47-.49-.46-.44-1.58-.52-2.1-.36-.73.23-1.24 1.24-.62 2.72.04-.12-.32-1.12.25-1.87ZM50.75 155.46c-.45-1.13-.16-2.08.34-2.45.28-.2.8-.37 1.21-.34-.03.11-.07.16-.07.16v.01c-.85.1-1.08.5-1.33 1.07a2.42 2.42 0 0 0-.1 1.47l-.05.08Z"/><path fill="#949984" d="M41.01 150s-2.75 2.4-1.66 5.3l-3.1-1.34s-.85-4.1 2.58-5.69L41 150Z"/><path fill="#676D54" d="M36.34 151.29s.45 2.8 2.77 2.78c0 0-.03.5.24 1.24l-3.1-1.35s-.28-1.33.1-2.67Z"/><path fill="#9EA58E" d="M39.11 150.77c-.02-.96-2.12-.9-1.92.15.2 1.05 1.97 2.15 1.92-.15Z"/><path fill="#676D54" d="m38.18 148.64 2.22 2.02.61-.67-2.19-1.72-.64.37Z"/><path fill="#4F543A" d="M39.35 155.3s.15.21.3-.33l-.47-.16.17.5Z"/><path fill="#676D54" d="M24.88 141.99c-.06.01-.99.21-2 .9-3.16 2.38-4.31 7.82-5.02 11.62-.88-.16-1.75-.58-2.58-.85l4.06-14.41c1.72.97 3.82 1.51 5.54 2.75V142Z"/><path fill="#9EA58E" d="M24.33 141.54c-.6-.26-1.74.92-2.13 1.27a9.82 9.82 0 0 0-2.03 2.63 19.97 19.97 0 0 0-1.66 4.3c-.1.4-1.1 4.64-.92 4.7-3.6-.98-7.3-1.3-11.02-1.4-6.77-.42-13.86.98-20.4-1.3h-.01c-3.5-1.33-6.85-4.17-9.2-9.63a34.47 34.47 0 0 1-1.5-4.28c.63-1.82 3.94-2.64 5.69-3.55.05-.03.11-.06.18-.08 6.15-2.4 12.87-5.17 19.6-4.29 4.57.94 8.44 3.47 12.29 5.87a64.62 64.62 0 0 0 5.32 3.05c1.89.96 3.8 1.85 5.79 2.7Z"/><path fill="#B1B7A5" d="M24.52 141.7c-.47-.06-2.3.48-4.1 3.29a14.1 14.1 0 0 0-1.48 3.36c-6.4-3.3-9.58-9.79-8.03-14.04 3.9 2.6 13.61 7.38 13.61 7.38Z"/><path fill="#949984" d="M13.2 153.54c-4.71-.65-9.49-.57-14.25-.53-4.27 0-8.67.3-12.77-1.28h-.01c-4.28-1.27-8.97-6.81-10.7-13.9.72-2.82 17.17-7.87 20.52-7.96-.63 6.03 4.02 20.83 17.21 23.68Z"/><path fill="#474C2F" d="M-13.83 151.73c-3.98-1.53-7.7-4.86-10.1-12.01.37.18 2.35 4.43 3.37 5.8a23.12 23.12 0 0 0 5.12 4.95c1.06.48 3.66 1.47 4.87 1.67a38.26 38.26 0 0 0 4.07.34c1.38.05 2.76.03 4.14.03 1.31 0 2.6.03 3.91.03 2.54-.02 5.08-.13 7.6-.1h.48c1.99.03 3.96.15 5.86.45.64.1 1.28.24 1.9.38l.37.1c-.01.05-.01.09-.03.13 0 .09-.02.16-.03.24v.01l-.02.1-.05.33-.02.13-.02.12-.2-.05-.24-.07c-.04 0-.06 0-.1-.02l-.65-.15-.08-.02-.4-.1-.24-.05-.46-.1-.51-.09-.49-.08-.04-.01-.45-.07-.5-.08-.45-.06h-.03l-.5-.06-1.01-.11-.2-.02-.1-.01-.2-.02-.5-.04-.52-.04a76.88 76.88 0 0 0-3.43-.16l-.73-.02-.74-.01-.74-.01H1.87l-1.42.01h-1.5c-1.5.02-3 .03-4.47.02h-.28c-1.88-.03-3.66-.1-5.33-.45-.86-.18-1.68-.42-2.48-.77h-.02l-.2-.08v.02Z" opacity=".14"/><path fill="#676D54" d="M20.37 142.12c-.87 1.1-1.86.08-1.7-.55.26-.91 2.44-.38 1.7.55Z"/><path fill="#474C2F" d="M20.37 142.12a1.2 1.2 0 0 1-.64.47c.1-.08.22-.18.33-.32.55-.69-.49-1.15-1.18-1 .59-.45 2.12.05 1.5.85Z"/><path fill="#676D54" d="M13.53 139.32c-.15.6-1.38.36-1.7.1a.61.61 0 0 1-.24-.51c-.14-1.12 2.3-.97 1.94.41Z"/><path fill="#474C2F" d="M11.92 138.29c.63-.33 1.87.02 1.6 1.03-.06.24-.3.35-.58.37.1-.06.17-.15.2-.26.22-.83-.58-1.22-1.22-1.14Z"/><path fill="#676D54" d="M5.89 135.07c.82-.49 1.78.14 1.86.81.04.3-.2.55-.47.6-.7.13-1.56-.35-1.64-.9a.55.55 0 0 1 .25-.51Z"/><path fill="#474C2F" d="M7.75 135.88c.03.31-.2.55-.47.6l-.09.02a.51.51 0 0 0 .2-.47c-.07-.57-.77-1.12-1.5-.96.83-.48 1.78.15 1.86.81Z"/><path fill="#676D54" d="M.44 132.17c.22-.05.43-.06.63-.02.46.01.8.3.83.76 0 .05 0 .1-.02.16a.77.77 0 0 1-.44.53c-.34.13-1.03.02-1.3-.25-.35-.26-.27-1.06.3-1.18Z"/><path fill="#474C2F" d="M.44 132.17c.22-.05.43-.06.63-.02.46.01.8.3.83.76 0 .05 0 .1-.02.16a.77.77 0 0 1-.44.53l-.05.01c.1-.1.18-.24.21-.37.02-.05.02-.1.02-.15-.03-.47-.38-.75-.83-.77-.2-.03-.41-.02-.63.02l-.03.01a.65.65 0 0 1 .31-.18Z"/><path fill="#48A07E" d="m77.16 92.43 2.51-.35 5.24 21.31s-1.8-3.43-4.23-4.43c-4.37-1.44-3.87-2.85-3.87-2.85s3.74-.47.06-.29-4-3.3-4-3.3l4.17-.57s-2.3-.14-3.76-.66c-1.45-.53-.88-2.65-.88-2.65l6.35-2.36s-1.98-.23-2.85-1.18c-.88-.95 1.25-2.67 1.25-2.67h.01Z"/><path fill="#E8D4BA" d="M83.55 92.58c1.58.14 1.67 1.43 1.75 1.64.15 1.3 1.78 3.7 1.43 4.78-.87.05-3.12-1.7-3.87-2.16-.52-.88-1.06-1.08-1.91-1.3-1.42-.38-6.21-.4-5.38-2.43.84-2.05 7.98-.53 7.98-.53Z"/><path fill="#DEC8AE" d="M80.8 97.43c-.53-.88-.6-2.02-.6-2.02-1.42-.37-5.46-.27-4.63-2.3 2.11 2.4 6.92 1.9 6.92 1.9 1.78 1.85 3.04.07 3.04.07.48 1.32 1.48 3.05 1.2 3.92-.87.05-5.19-1.11-5.94-1.57Z"/><path fill="#CEB79B" d="M86.52 98.8s-1.66-3.67-6.45-3.42l.33 1.78 6.12 1.64ZM78.25 93.6c-.58.22-1 .3-1.76-.67.04.5.68 1 1.09 1.1.56.15 1.4-.34 1.83-1.62-.1.07-.41.9-1.16 1.19Z"/><path fill="#E8D4BA" d="M80.6 95.91c1.92-.44 4.1 1.06 6.75 3.69.48.47-.37 3.7-.8 3.39a31.5 31.5 0 0 0-4.4-2.1c-2.6-.8-5.52.37-8.08-.56-.78-.28-1.55-.86-1.68-1.69-.1-2.26 7.28-2.47 8.2-2.73Z"/><path fill="#DEC8AE" d="M74.08 100.33c-.78-.28-1.56-.86-1.69-1.69 0-.08 0-.16.02-.24 2.82 2.38 8.83-.36 8.83-.36s2.14 1.43 3.27.93c1.65-.74-.95-2.42-.97-2.45 1.16.64 2.42 1.7 3.81 3.07.48.47-.37 3.71-.8 3.4a31.4 31.4 0 0 0-4.4-2.1c-2.6-.8-5.52.37-8.08-.56Z"/><path fill="#CEB79B" d="M74.08 100.32a3.16 3.16 0 0 1-.42-.18h.01c.5.03 1 0 1.5-.03l1.66-.1c.65-.06 1.3-.16 1.93-.3.63-.16 1.11-.24 1.71-.45.24-.08 4.15 1.28 4.54 1.65 0 0-8.37.34-10.93-.59ZM75.1 98.47c-.59.21-1 .3-1.76-.67.04.49.67 1 1.08 1.1.56.15 1.42-.34 1.83-1.62-.09.07-.4.9-1.15 1.19Z"/><path fill="#E8D4BA" d="M81.65 104.95c-1.49-.7-3.31-.9-4.89-.95-4.88-.2-4.25-3.03-3.6-3.21v-.01c2.23-.31 9.5-.54 10.73-.29 1.7.32 2.15.14 3.74 4.48.13.35.22.67.26.97.21.85.2 1.84-.26 2.46-.5.7-1.37 1.13-1.46 1.5-.08.37-3.4-4.3-4.52-4.95Z"/><path fill="#DEC8AE" d="M81.7 104.98c.13-.23.42-.3.94-.16 3.63.94 3.75-2.67 3.76-2.75.34.62.73 1.54 1.23 2.9.13.35.22.67.26.96.21.85.2 1.84-.26 2.47-.5.7-1.37 1.13-1.46 1.5-.08.36-3.29-4.17-4.46-4.92Z"/><path fill="#CEB79B" d="M86.48 108.51c.06.27-.2 1.92-1.29.59-.76-.84-1.37-2.41-2.2-3.17a5.65 5.65 0 0 0-1.34-.98 4.9 4.9 0 0 0-2.36-.35c-.66.03-1.32.12-1.99.13l.72-.25a8.28 8.28 0 0 1 3.76-.36c1.08.16 2.4.82 3.32 2.15.5.7 1.19 1.43 1.37 2.24ZM75.26 102.16c-.65.1-1.1.12-1.6-.98-.08.49.41 1.11.8 1.29.53.24 1.51-.08 2.28-1.26-.12.05-.66.82-1.48.95Z"/><path fill="#E8D4BA" d="M84.64 106.16c.82.8 1.2 2.82 1.53 3.73.23 1.69-.75 2.85-1.26 3.5-.94-1.43-2.62-3.33-3.28-4.09-.6-.7-2.26-1.4-3.06-1.83-.87-.47-3.19-1.78-1.22-3.19 1.5-1.08 7.29 1.88 7.29 1.88Z"/><path fill="#DEC8AE" d="M84.91 113.4c-.94-1.44-2.86-3.24-3.51-4-.6-.69-2.02-1.5-2.83-1.93-.87-.46-3.19-1.78-1.22-3.19 0 0 1.67 3.22 3.93 4.2 2.27.96 2.88-.47 2.95-1.52.06-.9-1.11-1.5-1.4-1.64 1.04.45 1.8.84 1.8.84.83.8 1.2 2.82 1.54 3.73.22 1.69-.75 2.85-1.26 3.5Z"/><path fill="#CEB79B" d="M78.86 106.04c-.54-.15-.89-.31-.9-1.38-.23.36-.06 1.05.18 1.33.33.4 1.2.5 2.2-.18-.11 0-.79.42-1.48.23Z"/><path fill="#DEC8AE" d="M84.91 113.4c-.18 1.34-1.38 3.75-3.86 3.83l.2-7.98c1.07-.47 3.84 2.78 3.66 4.14Z"/><path fill="#CEB79B" d="M81.06 115.44s3.47-.67 1.47-5.02l-1.47-1.37v6.39Z"/><path fill="#FEE2F1" d="M218.95 168.67a7.97 7.97 0 0 0 4.1 4.92 7.98 7.98 0 0 0-4.33 4.56 7.97 7.97 0 0 0-4.1-4.91c2-.86 3.57-2.51 4.33-4.57ZM143.33 185a7.97 7.97 0 0 0 4.1 4.91 7.98 7.98 0 0 0-4.33 4.57 7.97 7.97 0 0 0-4.1-4.91c2-.86 3.58-2.52 4.33-4.57ZM115.33 159a7.97 7.97 0 0 0 4.1 4.91 7.98 7.98 0 0 0-4.33 4.57 7.97 7.97 0 0 0-4.1-4.91c2-.86 3.58-2.52 4.33-4.57ZM300.33 151a7.97 7.97 0 0 0 4.1 4.91 7.98 7.98 0 0 0-4.33 4.57 7.97 7.97 0 0 0-4.1-4.91c2-.86 3.58-2.52 4.33-4.57ZM244.36 177.84a6.17 6.17 0 0 0 3.18 3.8 6.17 6.17 0 0 0-3.35 3.53 6.16 6.16 0 0 0-3.18-3.8 6.17 6.17 0 0 0 3.35-3.53ZM201.19 185.48a4.03 4.03 0 0 0 2.07 2.49 4.03 4.03 0 0 0-2.19 2.3 4.03 4.03 0 0 0-2.07-2.48 4.03 4.03 0 0 0 2.19-2.3ZM187.71 10a8.67 8.67 0 0 0 4.47 5.35 8.68 8.68 0 0 0-4.72 4.96 8.67 8.67 0 0 0-4.46-5.34A8.68 8.68 0 0 0 187.7 10ZM167.08 22a5.67 5.67 0 0 0 2.92 3.5 5.68 5.68 0 0 0-3.08 3.24 5.68 5.68 0 0 0-2.92-3.49 5.68 5.68 0 0 0 3.08-3.25Z"/><path fill="#F4AF14" d="M311.75 49.42a3.37 3.37 0 0 0-2.65-2.38c-3.98-.56-3.84 5.35-1.71 6.6a2.85 2.85 0 0 0-3.04 1.06 2 2 0 0 0-.35.87c-.04.63.6 1.68 2.55 1.4a6.51 6.51 0 0 0 4.49-2.93 6.88 6.88 0 0 0 .7-4.62Z"/><path fill="#FFD474" d="M309.24 49.95c.28-.84-.03-2.07-1.12-1.79-1.32.35-1.29 1.82-1.05 2.24.42.7 1.85.5 2.17-.45Z"/><path fill="#BA720C" d="M309.7 53.58a5 5 0 0 0-1.44 2.3c-.03.22-.07.43.1.57.07.07.21.1.32.1.52 0 1-.27 1.46-.56.39-.27.8-.55 1.15-.87.39-.31.77-.66 1.05-1.12.39-.56.84-1.92-.17-2.06-.94-.15-1.92 1.08-2.48 1.64Z"/><path fill="#F4AF14" d="M315.62 50.88c1.3-.03 2.51.67 2.96 1.75 1.43 3.54-4.5 5.18-6.27 3.6.56.91.42 2.25-.39 3.15-.21.25-.49.46-.8.56-.63.21-1.85-.07-1.96-1.96-.1-1.75.6-3.74 1.95-5.07a8.16 8.16 0 0 1 4.5-2.03h.01Z"/><path fill="#FFD474" d="M315.9 53.63c.28-.84-.04-2.07-1.12-1.79-1.32.35-1.3 1.82-1.05 2.24.42.7 1.85.5 2.16-.45Z"/><path fill="#F4AF14" d="M131.05 8.42a3.37 3.37 0 0 1 2.65-2.38c3.98-.56 3.84 5.35 1.71 6.6 1.08-.3 2.37.12 3.04 1.06a2 2 0 0 1 .35.87c.03.63-.6 1.68-2.55 1.4a6.51 6.51 0 0 1-4.49-2.93 6.88 6.88 0 0 1-.7-4.62Z"/><path fill="#FFD474" d="M133.56 8.95c-.28-.84.03-2.07 1.12-1.79 1.32.35 1.29 1.82 1.05 2.24-.42.7-1.85.5-2.17-.45Z"/><path fill="#BA720C" d="M133.1 12.58a5.01 5.01 0 0 1 1.44 2.3c.03.22.07.43-.1.57a.5.5 0 0 1-.32.1c-.52 0-1-.27-1.46-.56-.39-.27-.8-.55-1.15-.87a4.58 4.58 0 0 1-1.05-1.12c-.39-.56-.84-1.92.17-2.06.94-.15 1.92 1.08 2.48 1.64Z"/><path fill="#F4AF14" d="M127.18 9.88c-1.3-.03-2.51.67-2.96 1.75-1.43 3.54 4.5 5.18 6.28 3.6-.57.91-.43 2.25.38 3.15.21.25.49.46.8.56.63.21 1.85-.07 1.96-1.96.1-1.75-.6-3.74-1.95-5.07a8.16 8.16 0 0 0-4.5-2.03h-.01Z"/><path fill="#FFD474" d="M126.9 12.63c-.28-.84.04-2.07 1.12-1.79 1.32.35 1.3 1.82 1.05 2.24-.42.7-1.85.5-2.16-.45Z"/><path fill="#F9D563" d="M326.66 127.44c2.77.2 5.5-.6 7.86-2.08 11.56-7.34 14.68-28.08 1.76-35.56-12.15-8.03-29.32 2.32-27.73 16.97.83 9.3 8.8 20 18.1 20.67Z"/><path fill="#FFF6D9" d="M320.86 97.8c.2-2.2-.83-4.07-2.27-4.2-1.45-.13-2.78 1.55-2.97 3.74-.2 2.19.82 4.07 2.27 4.2 1.45.12 2.78-1.55 2.97-3.74Z" opacity=".45"/><path fill="#C3213C" d="M326.66 127.44c11.6.48 18.86-13.47 18.07-23.79a18.2 18.2 0 0 0-19.67-16.55c16.28 12.88-6.5 39.96-16.23 21.7 1.62 8.6 9.2 18.08 17.83 18.64Z" opacity=".13"/><path fill="#C3213C" d="M311.77 116.53c3.32 5.81 8.86 10.52 14.89 10.9 17.65.1 25.03-29.08 9.62-37.63 0 0 12.05 20.01-9.66 28.42-6.06 2.33-11.39.45-14.85-1.7Z" opacity=".13"/><path fill="#43A4E4" d="M296.3 141.35c4.39 8.55 15.44 15.69 24.85 14.61 21.57-3.36 18.35-41.79-2.66-44.35a20.64 20.64 0 0 0-22.2 29.74Z"/><path fill="#4269B4" d="M321.15 156c21.57-3.36 18.35-41.8-2.66-44.35 14.05 8.83-14.06 15.1-3.36 29.98 1.94 2.39 4.91 3.95 6.4 6.68a7.82 7.82 0 0 1-.38 7.69Z" opacity=".25"/><path fill="#84CEFF" d="M305.3 131.37c1.95-.3 3.15-2.88 2.7-5.76-.46-2.86-2.4-4.94-4.35-4.63-1.95.3-3.15 2.89-2.7 5.76.46 2.87 2.4 4.94 4.35 4.63ZM304.43 135.58c.6-.56.44-1.73-.37-2.62-.8-.89-1.96-1.17-2.57-.61-.6.55-.44 1.72.37 2.61.8.9 1.96 1.17 2.57.62Z" opacity=".45"/><path fill="#FEE2F1" fill-rule="evenodd" d="M96.68 60.58S86.24 46.44 74.1 54.83l1.46 5.22s9.68-9.27 21.12.53Z" clip-rule="evenodd"/><path fill="#BAFB6F" fill-rule="evenodd" d="M237.97 31.88s3.53-16.77 17.7-14.25l.82 5.22s-12.34-4.3-18.52 9.02Z" clip-rule="evenodd"/><path fill="#FFD474" fill-rule="evenodd" d="M253.66 173.45s19.85-7.62 26.77 8.83l-4.89 4.38s-3.84-15.76-21.89-13.22Z" clip-rule="evenodd"/><path fill="#32B858" d="M195.58 178.31a3.12 3.12 0 1 0 0-6.23 3.12 3.12 0 0 0 0 6.23Z"/><path fill="#BAFB6F" d="M171.12 95.23a3.12 3.12 0 1 0 0-6.23 3.12 3.12 0 0 0 0 6.23Z"/><path fill="#F4AF14" d="M105 177a2 2 0 1 0 0-4 2 2 0 0 0 0 4ZM278 97a2 2 0 1 0 0-4 2 2 0 0 0 0 4Z"/><path fill="#BAFB6F" d="M123.5 36a2.5 2.5 0 1 0 0-5 2.5 2.5 0 0 0 0 5Z"/><path fill="#F17F7F" d="M223.5 116a4.5 4.5 0 1 0 0-9 4.5 4.5 0 0 0 0 9Z"/><path fill="#FEE2F1" d="M128 103a2 2 0 1 0 0-4 2 2 0 0 0 0 4Z"/><path fill="#FEE2F1" fill-rule="evenodd" d="M264.26 59.62a3.39 3.39 0 1 0 0 6.78 3.39 3.39 0 0 0 0-6.78ZM260.31 63a3.96 3.96 0 1 1 7.91 0 3.96 3.96 0 0 1-7.92 0Z" clip-rule="evenodd"/><path fill="#F17F7F" fill-rule="evenodd" d="M298.96 182.57a3.39 3.39 0 1 0 0 6.78 3.39 3.39 0 0 0 0-6.78Zm-3.96 3.39a3.96 3.96 0 1 1 7.92 0 3.96 3.96 0 0 1-7.92 0Z" clip-rule="evenodd"/><path fill="#BAFB6F" fill-rule="evenodd" d="M158.96 167.57a3.39 3.39 0 1 0 0 6.78 3.39 3.39 0 0 0 0-6.78Zm-3.96 3.39a3.96 3.96 0 1 1 7.92 0 3.96 3.96 0 0 1-7.92 0Z" clip-rule="evenodd"/></g><defs><clipPath id="a"><path fill="#fff" d="M0 0h320v194H0z"/></clipPath><filter id="b" width="120.74" height="141.73" x="-5.52" y="36.51" color-interpolation-filters="sRGB" filterUnits="userSpaceOnUse"><feFlood flood-opacity="0" result="BackgroundImageFix"/><feBlend in="SourceGraphic" in2="BackgroundImageFix" result="shape"/><feGaussianBlur result="effect1_foregroundBlur_1573_26538" stdDeviation="15.7"/></filter></defs></svg>
