<svg width="320" height="194" fill="none" xmlns="http://www.w3.org/2000/svg">
  <g clip-path="url(#a)">
    <path fill="#67B279" d="M0 0h320v194H0z"/>
    <path d="M-17.5535 170.464c4.7895-39.967 56.9822-76.6575 110.5329-45.791" stroke="#F9EFE5" stroke-width="2" stroke-dasharray="15 15"/>
    <path d="M63.1444 166.219c.909 4.093-1.2655 8.241-5.1123 10.541 2.1846-2.325 3.2341-5.419 2.5512-8.482-1.1751-5.298-7.0809-8.497-13.1775-7.141-1.3911.311-2.6716.828-3.8066 1.506 1.592-1.702 3.7916-2.998 6.3678-3.565 6.1016-1.356 12.0023 1.848 13.1774 7.146v-.005Z" fill="#C8C6C6"/>
    <path d="m71.1445 140.115-9.1549-1.833-31.2814 73.902c-1.9635 4.64-2.1242 10.24-.3364 12.515 1.155 1.476 2.8524 1.175 4.4393-.513.8387-.894 1.6472-2.169 2.3302-3.791l34.0032-80.28Z" fill="#D58500"/>
    <path d="M109.753 166.57c.929-8.773-7.769-19.229-16.0453-25.22-14.674-10.631-62.1258-22.387-86.78325 9.105-7.035669 8.989-10.82216 18.461-10.86233 27.309-.06027 14.046 5.6697 26.521 15.91938 32.657 26.2695 15.729 41.8173 3.019 52.087-9.506 10.2698-12.525 14.4028-15.287 34.5707-19.791 8.7938-1.969 10.4258-8.05 11.1138-14.554Zm-57.6265-7.096c5.8002 0 10.5007 4.008 10.5007 8.959 0 4.952-4.7005 8.954-10.5007 8.954-5.8003 0-10.5008-4.007-10.5008-8.954 0-4.946 4.7005-8.959 10.5008-8.959Z" fill="#C8C6C6"/>
    <path opacity=".5" d="M109.753 166.57c-.688 6.504-2.32 12.585-11.1138 14.554-5.0219 1.12-9.0494 2.134-12.4241 3.214.2561-.417 11.922-19.771 23.5229-20.53.1.934.105 1.858.01 2.762h.005ZM45.9695 203.742c1.2052 14.348-15.0908 13.745-15.0908 13.745-6.9252-.507-14.222-4.268-18.8923-7.066C1.73672 204.285-3.99326 191.81-3.933 177.764c.00502-.638 49.0488 15.789 49.9075 25.978h-.005Z" fill="#E5E3E3"/>
    <path d="M93.7076 136.831c-14.6739-10.632-62.1257-22.388-86.78321 9.104-8.25598 10.541-11.41976 21.77-10.86233 31.829.66289 12.193 6.78456 22.669 15.91934 28.138 26.2695 15.728 41.8173 3.018 52.0871-9.507 10.2697-12.524 14.4027-13.78 34.5706-18.284 7.2569-1.622 10.5509-6.047 11.1139-11.541 1.004-9.772-6.649-22.935-16.0454-29.739Zm-41.5812 40.556c-5.8003 0-10.5008-4.007-10.5008-8.954 0-4.946 4.7005-8.959 10.5008-8.959s10.5008 4.008 10.5008 8.959c0 4.952-4.7005 8.954-10.5008 8.954Z" fill="#E5E3E3"/>
    <path opacity=".46" d="M73.2786 128.193c-20.5496-5.157-49.0588-4.349-66.35421 17.742-8.25598 10.541-11.41976 21.77-10.86233 31.829.66289 12.193 6.78456 22.669 15.91934 28.138 26.2695 15.728 41.8173 3.018 52.0871-9.507 6.8398-8.341 10.9577-11.686 18.9023-14.317-9.8328-6.755-11.6407-12.013-6.6741-18.27 8.3414-10.511 28.7603-18.541-3.0181-35.615Zm-21.1522 49.194c-5.8003 0-10.5008-4.007-10.5008-8.954 0-4.946 4.7005-8.959 10.5008-8.959s10.5008 4.008 10.5008 8.959c0 4.952-4.7005 8.954-10.5008 8.954Z" fill="#F7F7F7"/>
    <path d="M63.2449 126.285c-2.3904 4.163-3.0935 8.522-1.5518 11.806-.0653-.05-.1306-.1-.1908-.151-.2109.267-.3917.573-.5374.909l-5.8806 13.72c-.2611.608-.8236 2.155-.3766 2.893l.015-.015-1.7175 4.057c2.4005.171 4.57 1.025 6.2372 2.341.7282.572 1.3559 1.225 1.8682 1.953 0 0 .01.005.01.01l2.2197-5.228c.8437-.07 1.5467-1.089 1.8079-1.697l5.8806-13.72c.1456-.336.2461-.678.2913-1.009-.1356-.02-.2712-.04-.4068-.065 4.0326-1.592 7.4475-6.725 8.1556-12.224-4.7508-1.562-10.1242-2.837-15.824-3.58Z" fill="#E5E3E3"/>
    <path d="m71.1442 140.115-.7935 1.878-.1456.342-6.88 16.235-2.2146 5.228-5.5442 13.097c-.6981.206-1.4363.352-2.1946.427-.4067.045-.8236.065-1.2454.065-2.2347 0-4.3038-.597-6.0062-1.612l6.885-16.271 1.7175-4.057 7.1763-16.949.0753-.186.0151-.03 6.5686 1.316 2.5863.517Z" fill="#D58500"/>
    <path d="m61.1207 163.808-5.5442 13.082c-.693.211-2.6917.422-3.45.497 4.4092-11.379 13.2025-31.838 16.743-41.792.4017-.316 3.0281.191 2.0639 3.792-1.6823 6.297-7.9144 19.957-9.8127 24.421Z" fill="#B45F00"/>
    <path d="M79.159 126.591c.0854 1.09.0502 2.19-.0904 3.274-2.767 19.5-25.3253 14.614-15.8239-3.58 1.155-2.019 2.7068-3.988 4.59-5.765C75.3223 113.454 80.083 108 80.083 108s-1.6773 9.2-.924 18.591Z" fill="#2B2B37"/>
    <path d="M77.7128 110.601c-.9743 23.558-15.4574 17.642-15.4574 17.642.2862-.653.6177-1.31.9893-1.958 1.155-2.019 2.7068-3.988 4.59-5.765 4.3439-4.098 7.7689-7.654 9.8781-9.919Z" fill="#45424D"/>
    <path d="M79.0687 129.85v.01c-.7081 5.504-4.123 10.637-8.1556 12.229-.231.095-.457.17-.688.241 0 0-.0151 0-.0201.005-1.2454.351-2.531.366-3.8066-.051-.457-.145-.9089-.346-1.3559-.607-1.4262-.829-2.4607-1.919-3.1437-3.179-.0753-.136-.1406-.271-.2059-.407-.3867-.818-.6277-1.707-.7382-2.646 1.0797.195 13.0971 2.189 18.114-5.595Z" fill="#1F1F28"/>
    <path d="M71.3201 142.154c.2963.04-6.0815 14.332-6.1719 14.729-.2611.608-10.325-3.706-10.0639-4.314.3666-.607 5.9811-14.468 6.418-14.629 2.4306 1.979 5.7199 3.486 8.8486 4.053.005.005.01.005.015 0 .3214.065.6328.111.9542.161Z" fill="#C8C6C6"/>
    <path d="m66.4286 140.828-6.1869 14.488c-1.4514-.607-2.9128-1.285-3.9121-1.823l6.2874-14.719c1.1601.799 2.4607 1.497 3.8116 2.054Z" fill="#D8D5D0"/>
    <path opacity=".74" d="M19.7452 164.627c-7.8543 1.21-15.4323.803-22.07625-.899 1.682328-5.931 4.69043-11.967 9.25533-17.793 12.59992-16.09 31.15072-20.891 48.24022-20.318.5374 1.381.9291 2.822 1.1601 4.314 2.4105 15.683-13.9659 31.221-36.5794 34.696Z" fill="#F7F7F7"/>
    <path d="M30.9843 142.485c-2.5512-3.093.6829-13.719 9.0193-11.696 6.0765 1.477 10.0086 0 11.5302 3.435 1.5217 3.43-.8939 8.834-7.3872 11.721-5.0269 2.23-10.7669-.547-13.1623-3.46Z" fill="#5391E5"/>
    <path d="M98.6996 154.061c0 3.605-3.2793 10.089-9.7224 7.005-4.0677-1.948-9.1298-3.164-9.1298-6.769 0-3.606 3.4249-7.839 9.0946-7.839 4.3841 0 9.7576 4.002 9.7576 7.608v-.005Z" fill="#3E8E5B"/>
    <path d="M25.2644 155.532c7.4675 2.586 3.3195 12.801-5.74 13.318-5.72.327-10.84229-1.757-12.67527-5.474-1.83299-3.716-1.02948-9.451 5.56427-12.705 5.0972-2.516 8.959 3.51 12.856 4.861h-.005Z" fill="#F79C31"/>
    <path d="M1.96792 185.181c.38167-4.971 5.84046-11.193 11.23398-4.539 3.5906 4.429 9.6169 2.35 10.8272 7.879 1.371 6.247-5.3785 9.828-11.9471 8.602-5.07711-.949-10.43044-7.829-10.11909-11.942h.00501Z" fill="#EA4335"/>
    <path opacity=".14" d="M11.7405 161.654c-3.68603-1.406-4.92644-8.492 1.3409-9.225 6.2673-.734 10.561 3.003 8.482 5.172-2.0791 2.17-4.7357 5.991-9.8229 4.053ZM35.2832 140.903c-3.0985-1.406-4.1431-8.492 1.1249-9.225 5.2679-.733 8.8837 3.003 7.1361 5.173-1.7476 2.169-3.9824 5.991-8.261 4.052ZM85.3913 154.874c-3.0985-1.12-4.143-6.774 1.1249-7.357 5.268-.582 8.8838 2.396 7.1361 4.123-1.7476 1.728-3.9823 4.781-8.261 3.234ZM6.60311 190.269c-3.00811-1.12-4.02253-6.775 1.09477-7.357 5.11732-.583 9.38592 4.253 7.68852 5.986-1.6974 1.732-4.6302 2.922-8.78329 1.376v-.005Z" fill="#fff"/>
    <path d="M80.8735 70.1507 9.37164 93.5953c-2.68391.88-5.56927-.5804-6.86476-3.1281L-23.4075 11.4329c-.88-2.6839.5804-5.56925 3.2643-6.44928L46.9173-17.0047c2.6839-.88 5.5693.5804 6.4493 3.2643l27.5069 83.8911Z" fill="#ABCDF4"/>
    <path d="M-18.8969 4.57499 47.7482-17.2771c2.6798-.8787 5.5706.5845 6.4493 3.2643l27.5069 83.8911-71.5019 23.4446c-2.67975.8786-5.57062-.5846-6.44929-3.2643L-22.1612 11.0243c-.8786-2.67977.5846-5.57065 3.2643-6.44931Z" fill="#E1F0FF"/>
    <path d="M46.3054-7.54622 12.5612 3.5181c-.6746.2212-1.0422.94738-.821 1.62198.2212.6746.9474 1.04216 1.622.82097L47.1064-5.10328c.6746-.22119 1.0422-.94737.821-1.62197-.2212-.67461-.9474-1.04217-1.622-.82097ZM48.5464-.71178 14.8022 10.3525c-.6746.2212-1.0422.9474-.821 1.622.2212.6746.9474 1.0422 1.622.821L49.3474 1.73116c.6746-.22119 1.0422-.94737.821-1.621971-.2212-.6746-.9474-1.042163-1.622-.820969ZM50.7856 6.11851 17.0414 17.1828c-.6746.2212-1.0421.9474-.8209 1.622.2211.6746.9473 1.0422 1.6219.821L51.5867 8.56146c.6746-.2212 1.0421-.94738.8209-1.62198-.2212-.6746-.9474-1.04216-1.622-.82097ZM35.5366 41.9292 1.7924 52.9936c-.6746.2212-1.042164.9473-.820971 1.6219.221191.6746.947381 1.0422 1.621981.821L36.3376 44.3722c.6746-.2212 1.0422-.9474.821-1.622-.2212-.6746-.9474-1.0422-1.622-.821ZM38.3658 50.5585 4.62162 61.6228c-.6746.2212-1.04216.9474-.82097 1.622.22119.6746.94738 1.0422 1.62198.821L39.1669 53.0015c.6746-.2212 1.0421-.9474.8209-1.622-.2212-.6746-.9474-1.0422-1.622-.821ZM62.7373 42.5674l-18.9121 6.2011c-.6746.2212-1.0421.9473-.8209 1.6219.2212.6746.9473 1.0422 1.6219.821l18.9121-6.201c.6746-.2212 1.0422-.9474.821-1.622-.2212-.6746-.9474-1.0422-1.622-.821ZM54.2505 16.6838-4.03121 35.7936c-.6746.2212-1.04216.9474-.82097 1.622.22119.6746.94738 1.0422 1.62198.821l58.2817-19.1099c.6746-.2212 1.0422-.9474.821-1.622-.2212-.6746-.9474-1.0421-1.622-.8209ZM57.0795 25.3131-1.20223 44.4229c-.6746.2212-1.04217.9474-.82097 1.622.22119.6746.94738 1.0422 1.621979.821L57.8805 27.756c.6746-.2212 1.0421-.9474.8209-1.622-.2212-.6746-.9473-1.0421-1.6219-.8209ZM65.5653 51.1925 7.28361 70.3024c-.6746.2212-1.04216.9474-.82097 1.622.22119.6746.94738 1.0421 1.62198.8209L66.3663 53.6355c.6746-.2212 1.0422-.9474.821-1.622-.2212-.6746-.9474-1.0422-1.622-.821Z" fill="#ABCDF4"/>
    <path d="M3.59216 4.31479-11.2732 9.18898c-1.4135.46345-2.1836 1.98502-1.7202 3.39842l4.87422 14.8654c.46346 1.4135 1.98499 2.1836 3.39844 1.7201l14.86544-4.8742c1.4134-.4634 2.1835-1.9849 1.7201-3.3984L6.99059 6.03491c-.46345-1.41345-1.98498-2.18357-3.39843-1.72012Z" fill="#F5F9FC"/>
    <path d="M3.55954 12.0465c-.51029-.8266-1.18071-1.4258-1.46589-1.636-.48249-.2927-.69214-.3988-1.84298-.0215l-1.2464.4087 3.00243 9.1569c.53674 1.6369.77015 1.6892 2.5476 1.2583l.23567.7187-6.46881 2.1211-.23567-.7188c1.612754-.6806 1.749104-.8542 1.212372-2.4911l-3.002432-9.1569-1.18824.3896c-1.09268.3583-1.34706.6349-1.56289 1.2257-.15297.4596-.1928 1.2503-.19149 2.1103l-.73953.2425c-.32879-1.4658-.69028-3.0314-.95939-3.9785l.58581-.192c.43795.3533.68702.3131 1.26868.1223l7.79416-2.55558c.52764-.17301.75955-.37789.97068-.85663l.56504-.18527c.28914.81166.92654 2.50298 1.44038 3.73338l-.72046.3006.00136.0042Z" fill="#ABCDF4"/>
    <path d="m83.3388 58.276 1.4032 4.2793c1.0353 3.1576-.7028 6.5573-3.877 7.5981L9.22608 93.6429l-.02997-.0914c1.86679-1.1688 2.55699-4.3124 1.51619-7.4865-.2629-.8019-.6146-1.5378-1.0304-2.1883-.3883-.6089-.08427-1.4218.6054-1.6479L83.3388 58.276Z" fill="#569ACC"/>
    <path d="M83.1564 58.336c.5858-.1921 1.2202.129 1.4123.7148l1.0544 3.2158c1.0353 3.1575-.7028 6.5572-3.877 7.598L10.1072 93.3542l-.03-.0914c1.8668-1.1689 2.557-4.3125 1.5162-7.4866-.2629-.8019-.6146-1.5378-1.0304-2.1883-.3883-.6089-.0843-1.4218.6054-1.6479l71.988-23.604Z" fill="#ABCDF4"/>
    <path d="M31.0783 67.2902C23.6806 37.2488 46.0172 8.28938 59.7396-4.0001c.4712 5.70302.8339 10.96306.8339 10.96306s2.2507-8.40383 4.0219-14.8881c2.1284-1.49389 3.6864-2.29926 4.5088-2.24686 7.4634.33672 7.9079 14.84162 3.3801 32.2285L59.925 31.1854s5.037-1.6746 11.0295-3.6625c-4.572 14.8384-12.3675 30.904-22.1486 41.6297-7.4647 8.1072-15.1678 8.4565-17.729-1.8665l.0014.0041Z" fill="#4D4F68"/>
    <path d="M35.2211 44.9957c3.7276 8.183 8.9968 15.5245 16.3904 20.7706 5.1974-6.4757 9.7299-14.3761 13.4343-22.5986-9.3348-8.3598-15.0227-19.9813-19.2827-31.5281-5.5458 7.6023-10.676 16.711-13.6023 26.6891.9747 2.271 1.9995 4.4841 3.0575 6.6726l.0028-.0056Z" fill="#45424D"/>
    <path d="M40.7436 74.8054c-.439-4.0755 2.6769-20.2816 8.5861-36.5707 0 0-10.2274 25.3202-14.9403 35.3366 1.3302 1.9657 4.6397 1.8008 6.3542 1.2341Z" fill="#3B363F"/>
    <path d="M32.6446 95.2359s3.5403-38.4593 16.6864-56.9971c0 0-12.2061 28.1547-14.3889 56.2438l-2.3017.7547.0042-.0014Z" fill="#D8E0E0"/>
    <path d="M37.2728 77.9865c-.9386 5.3048-1.3968 11.0502-2.3264 16.4947l-2.7083 2.7562c.3331-4.7658 1.1777-10.3573 3.3282-21.1577l1.7024 1.9081.0041-.0013Z" fill="#7F8A90"/>
    <path d="M316.057 162.123c.409-.359.383-1.058-.059-1.561-.441-.503-1.131-.62-1.54-.261-.409.359-.383 1.058.058 1.561.442.503 1.131.62 1.541.261Z" fill="#4D4F68"/>
    <path d="M315.326 160.947s.491 1.19 3.179.92c2.684-.269 3.511 3.214 3.511 3.214l-1.364-.14-1.356-2.305s-1.197.621-2.131-.419c0 0-1.46.932-2.642-.39l.811-.879-.008-.001ZM314.751 170.184c.503-.289.624-1.023.269-1.641-.354-.617-1.049-.884-1.552-.595-.503.289-.624 1.023-.27 1.641.354.617 1.049.884 1.553.595Z" fill="#4D4F68"/>
    <path d="M314.349 168.628s-.849 1.073.8 3.422c1.643 2.352-1.155 4.925-1.155 4.925l-.578-1.342 1.432-2.456s-1.197-.789-.719-2.196c0 0-1.626-.87-1.014-2.653l1.235.292-.001.008ZM303.905 153.862c.157-.521-.235-1.1-.876-1.293-.641-.193-1.288.073-1.445.595-.157.521.235 1.1.876 1.293.641.193 1.288-.073 1.445-.595Z" fill="#4D4F68"/>
    <path d="M303.003 153.354s-1.286.048-2.155-2.51c-.869-2.554-4.381-1.861-4.381-1.861l.696 1.183 2.66.274s-.064 1.347 1.265 1.768c0 0-.242 1.716 1.451 2.245l.465-1.103-.001.004ZM296.038 158.887c.708.066 1.327-.348 1.381-.926.054-.578-.477-1.1-1.186-1.166-.709-.066-1.327.349-1.381.926-.054.578.477 1.1 1.186 1.166Z" fill="#4D4F68"/>
    <path d="M296.421 157.429s-.625 1.217-3.447.694c-2.822-.523-4 3.095-4 3.095l1.459-.03 1.637-2.323s1.213.763 2.297-.254c0 0 1.466 1.119 2.834-.178l-.78-1.004ZM309.104 175.954c.296-.43.066-1.103-.515-1.503-.581-.4-1.291-.376-1.588.054-.296.43-.065 1.103.515 1.503.581.4 1.292.376 1.588-.054Z" fill="#4D4F68"/>
    <path d="M308.167 174.479s-.903.84.476 3.271c1.378 2.43-.895 4.012-.895 4.012l-.717-1.015 1.23-2.009s-1.082-.923-.504-2.131c0 0-1.486-1.066-.744-2.6l1.162.473-.008-.001ZM293.887 165.026c-.574-.041-1.198.49-1.389 1.192-.192.703.118 1.305.692 1.347.574.041 1.197-.49 1.389-1.193.191-.702-.118-1.304-.692-1.346Z" fill="#4D4F68"/>
    <path d="M293.884 165.969s-.54 1.304-3.126.6c-2.583-.704-3.619 2.842-3.619 2.842l.963-.104 1.849-1.965s1.124.889 2.086-.176c0 0 1.361 1.292 2.579-.065l-.732-1.136v.004ZM310.016 159.604c2.831.426 5.472-1.523 5.898-4.353.427-2.831-1.522-5.472-4.353-5.898-2.831-.427-5.471 1.522-5.898 4.353-.427 2.831 1.522 5.471 4.353 5.898Z" fill="#4D4F68"/>
    <path d="M314.623 152.053s4.123-.004 5.585-3.121c0 0 .956 1.194-.776 2.199 0 0 1.027 3.052-4.25 1.901l-.56-.975.001-.004ZM311.119 149.952s-1.94-3.638.119-6.4c0 0-1.503-.28-1.576 1.723 0 0-3.173.531.33 4.646l1.126.035.001-.004Z" fill="#4D4F68"/>
    <path d="M315.765 153.014s-3.133 3.985-7.099.858l6.327 3.671s1.614-2.2.768-4.526l.004-.003Z" fill="#45424D"/>
    <path d="M314.567 169.876c3.464-5.778 1.997-13.023-3.276-16.184-5.272-3.16-12.354-1.038-15.817 4.739-3.463 5.778-1.996 13.024 3.276 16.184 5.273 3.161 12.354 1.039 15.817-4.739Z" fill="#E9653A"/>
    <path d="m296.555 172.856 11.57-13.933-6.833 16.771s-3.283-.879-4.737-2.838Z" fill="#45424D"/>
    <path d="m297.202 173.579 9.482-12.247-6.257 14.113s-1.724-.521-3.225-1.866ZM309.742 166.708c-3.208-1.921-3.037-6.067-.116-5.247 2.917.816 1.261-2.134 3.86-1.841 2.599.294 3.345 4.917 1.393 6.784-1.953 1.867-3.844 1.079-5.137.304ZM298.216 164.432c-3.715-.531 1.159 4.269-2.079 4.337-.893.016-1.661-.394-2.269-1.045-.612-2.719-.273-5.732 1.131-8.487 1.634-.837 3.33-.377 4.576.216 2.748 1.312 2.35 5.502-1.362 4.975l.003.004ZM304.677 173.81c-1.424-1.751-.47-4.067 1.015-3.001 1.486 1.066 1.157-.949 2.567-.247 1.41.703.881 3.479-.611 4.137-1.493.658-2.4-.182-2.975-.89l.004.001ZM305.02 156.261c1.946 1.294 2.049 3.377.325 2.672-1.724-.705-.622.956-2.138.548-1.515-.408-2.173-2.824-1.136-3.579 1.037-.755 2.166-.164 2.95.355l-.001.004ZM306.756 154.97c-1.561-1.408.944-.63-1.076-2.189-.264-.199-.45-.378-.577-.536 1.117-.089 2.243-.001 3.334.269.061.034.117.067.177.101 1.121.671 2.572 1.67 2.603 2.819.036 1.145-2.896.944-4.457-.464h-.004Z" fill="#4D4F68"/>
    <path opacity=".11" d="M314.546 169.859c-3.465 5.778-10.546 7.902-15.819 4.742-1.604-.961-2.856-2.302-3.723-3.866 16.243 3.125 17.91-13.877 18.043-15.708 3.783 3.581 4.534 9.77 1.499 14.836v-.004Z" fill="#1F1F21"/>
    <path d="M330.283 158.94c-2.593-14.025-15.716-23.356-29.299-20.843l-.002.012c-13.59 2.528-22.509 15.925-19.91 29.942 2.581 14.023 15.708 23.355 29.292 20.838.614-.12 1.21-.247 1.81-.405 3.965-1.045 7.456-3.036 10.332-5.692 6.233-5.765 9.462-14.671 7.777-23.852Zm-20.903 23.656c-4.586.849-9.089.146-12.979-1.743-.011-.01-.019-.015-.019-.015-5.809-2.82-10.255-8.266-11.517-15.104-2.123-11.429 5.435-22.404 16.862-24.514 8.755-1.623 17.239 2.43 21.678 9.546 1.359 2.178 2.336 4.642 2.836 7.315 2.111 11.427-5.434 22.404-16.861 24.515Z" fill="#A05A07"/>
    <path d="M329.932 157.069c-2.595-14.021-15.713-23.352-29.301-20.84-13.591 2.512-22.508 15.918-19.914 29.943 2.594 14.02 15.713 23.351 29.304 20.839 13.588-2.512 22.504-15.918 19.911-29.942Zm-20.553 25.527c-4.585.849-9.088.146-12.979-1.743-.011-.01-.018-.015-.018-.015-5.81-2.82-10.256-8.266-11.518-15.104-2.122-11.429 5.435-22.404 16.862-24.514 8.755-1.623 17.239 2.43 21.679 9.546 1.359 2.178 2.336 4.642 2.836 7.315 2.11 11.427-5.435 22.404-16.862 24.515Z" fill="#C77500"/>
    <path d="M326.08 157.305c-.533-2.376-1.448-4.573-2.675-6.539-4.44-7.116-12.924-11.169-21.679-9.546-11.224 2.071-18.713 12.697-16.961 23.903-.726-3.1-.758-6.415.043-9.722 2.727-11.294 14.098-18.239 25.392-15.507 8.598 2.076 14.671 9.164 15.88 17.411Z" fill="#A05A07"/>
    <path opacity=".39" d="M309.38 182.596c-4.586.849-9.088.146-12.979-1.743-.011-.01-.018-.015-.018-.015-5.81-2.82-10.256-8.266-11.518-15.104-.039-.202-.073-.407-.1-.611 1.752 7.491 7.563 13.743 15.551 15.67 11.293 2.731 22.66-4.213 25.392-15.507.651-2.697.751-5.395.373-7.981.059.259.114.516.16.776 2.111 11.427-5.434 22.404-16.861 24.515Z" fill="#CCECFA"/>
    <path opacity=".15" d="M301.723 141.219c-11.427 2.111-18.985 13.086-16.862 24.515 1.261 6.841 5.712 12.284 11.517 15.103 0 0 .008.005.018.015 3.891 1.89 8.395 2.589 12.979 1.743 11.427-2.11 18.973-13.087 16.862-24.514-.504-2.675-1.477-5.138-2.836-7.316-4.439-7.116-12.927-11.169-21.682-9.551l.004.005Z" fill="#3FAEE1"/>
    <path opacity=".15" d="M323.404 150.77c3.021 7.801 1.007 17.074-5.185 23.483-.97 1.018-2.064 1.961-3.248 2.824-3.346 2.413-7.084 3.815-10.806 4.251-2.631.323-5.273.154-7.769-.472 3.891 1.89 8.394 2.589 12.979 1.743 11.427-2.11 18.972-13.087 16.862-24.514-.505-2.675-1.478-5.138-2.837-7.316l.004.001Z" fill="#3FAEE1"/>
    <path d="M293.995 150.747s-2.361-3.58-4.55-.228c-2.192 3.351 5.416 2.863 4.55.228ZM295.747 145.221s5.788-5.035 11.407-2.632c5.618 2.391-.745 1.751-4.688 3.052-3.943 1.302-10.132 2.927-6.719-.42ZM320.933 169.53c-2.714-.858-4.006 8.042-19.629 9.014-6.764.419.676 4.596 9.416 2.718 8.584-1.841 13.189-10.793 10.213-11.732Z" fill="#fff"/>
    <path d="M271.234 137.025c.077-.221-.007-.452-.188-.515-.181-.064-.39.064-.468.285-.077.221.007.452.188.515.181.064.391-.064.468-.285Z" fill="#4D4F68"/>
    <path d="M270.807 136.794s.339.296-.052 1.156c-.391.861.673 1.528.673 1.528l.108-.47-.613-.71s.34-.328.102-.756c0 0 .474-.378.168-.923l-.381.171-.005.004ZM272.796 139.077c.164-.165.198-.396.076-.518-.122-.121-.353-.086-.517.079-.164.164-.198.395-.076.517.122.121.353.086.517-.078Z" fill="#4D4F68"/>
    <path d="M272.493 138.625s.342.219.044 1.089c-.299.87.531 1.245.531 1.245l.171-.371-.522-.577s.296-.364.035-.722c0 0 .417-.436.085-.886l-.349.225.005-.003ZM277.746 137.623c.172.05.294.273.272.498-.021.226-.177.366-.349.315-.173-.05-.294-.273-.273-.498.022-.226.178-.366.35-.315Z" fill="#4D4F68"/>
    <path d="M277.644 137.893s.012.439.837.519c.826.079.735 1.222.735 1.222l-.265-.138-.317-.771s-.424.132-.587-.281c0 0-.536.226-.739-.303l.34-.247-.004-.001ZM272.633 135.799c1.214-.195 2.055-1.246 1.878-2.347-.177-1.102-1.304-1.837-2.518-1.642-1.214.195-2.055 1.246-1.878 2.348.177 1.101 1.304 1.836 2.518 1.641Z" fill="#4D4F68"/>
    <path d="M277.269 139.021c1.148-1.311.642-3.631-1.129-5.182-1.771-1.55-4.137-1.744-5.285-.433-1.148 1.311-.643 3.631 1.129 5.182 1.771 1.55 4.137 1.744 5.285.433Z" fill="#E9653A"/>
    <path d="M274.902 134.481s.627 1.37.922 2.991c.138.768.201 1.595.086 2.358.004.001.008.001.013-.002.008.001.012-.002.021-.005.008.001.012-.002.021-.005.008.001.017-.006.025-.004.008.001.017-.006.021-.005.107-.029.21-.063.31-.101.268-.102.609-.276.851-.55 0 0-.027-.531-.209-1.249-.253-1.002-.822-2.403-2.066-3.424l.005-.004Z" fill="#45424D"/>
    <path d="M273.006 131.875s1.168-.535 1.315-1.918c0 0 .722.198.119.863 0 0 1.294.739-1.066 1.245l-.368-.19ZM271.701 131.891s-1.338-1.072-1.006-2.464c0 0-.617.14-.318.916 0 0-1.126.725.889 1.72l.435-.172Z" fill="#8E030A"/>
    <path d="m273.01 131.876.368.19c.536-.115.882-.243 1.098-.37.739-.436-.036-.876-.036-.876.603-.665-.119-.863-.119-.863-.036.321-.122.594-.239.826-.386.775-1.076 1.092-1.076 1.092l.004.001ZM271.701 131.891s-1.338-1.072-1.006-2.464c0 0-.617.14-.318.916 0 0-1.126.725.889 1.72l.435-.172Z" fill="#4D4F68"/>
    <path d="m281.003 187.19.01.067s5.33 3.835 6.037 7.087c.015.064.026.127.041.186.106-.188.21-.389.317-.61.125-.259.257-.537.385-.845.092-.121.175-.239.261-.352 1.058-1.435 1.685-2.288 1.685-2.288.466-.547.552-1.224.188-1.52l-.866-.703-4.39-3.57c-.36-.295-1.031-.094-1.502.452 0 0-.257.57-.991 1.24-.252.231-.562.471-.937.708-.081.054-.162.103-.243.152l.005-.004Z" fill="#A05A07"/>
    <path d="M256.345 214.256c1.534 4.493 4.318 9.876 8.485 4.131 1.441-1.405 3.575-1.247 4.984-2.845.11-.106.209-.222.307-.333.864-.908 1.372-2.135 2.336-2.95 1.199-1.392 2.02-3.18 3.507-4.374 2.994-2.756 5.689-6.056 7.718-9.546.784-1.324 2.459-1.701 3.405-3.805 1.464-3.265-3.516-5.408-6.079-7.273l-.01-.067c-3.824 2.034-4.01 4.323-6.091 6.881-3.968 2.912-7.309 7.05-10.798 10.577-3.359 6.129-10.431-.436-7.765 9.608l.001-.004Z" fill="#C77500"/>
    <path d="M276.523 191.671c.937 1.976 3.323.591 4.329-.446 2.473-1.773.683-4.179-.42-3.667-2.113.985-3.312 2.998-3.909 4.113Z" fill="#D58500"/>
    <path opacity=".12" d="M266.387 202.217c.995 1.098 2.95 1.818 5.618.949 3.717-1.213 2.905-1.654 6.309.023.532.264 1.074.411 1.608.471 1.136-1.463 2.208-2.989 3.369-4.379 1.941-4.181 7.27-4.947 2.06-10.308-.488.388-1.664 2.148-2.05 3.221-2.588 5.894-4.566 3.917-8.393 1.877-2.958 1.978-5.84 5.568-8.521 8.146Z" fill="#A05A07"/>
    <path d="M281.246 187.035c1.523.36 2.916 1.473 4.026 2.649 1.51 1.609 2.488 3.333 2.521 3.387.111-.028.226-.064.34-.116.048-.021.101-.042.149-.067 2.504-1.212 5.626-6.752 5.626-6.752-.008-.054-.145-1.178-.811-2.451-.086-.164-.183-.334-.288-.501-.385-.618-.904-1.243-1.592-1.772-.077-.061-.162-.118-.243-.176-.993-.68-2.088-.98-2.848-1.111-.036-.005-.076-.011-.108-.016-.12-.018-.232-.035-.328-.046-.028-.004-.052-.007-.081-.004h-.004c-.296-.016-.587.071-.826.243-1.253.918-2.225 1.781-2.975 2.559-.891.924-1.475 1.735-1.852 2.389-.646 1.12-.701 1.782-.701 1.782l-.005.003Z" fill="#9EA58E"/>
    <path d="M281.246 187.035c1.523.36 2.916 1.473 4.026 2.649 1.51 1.609 2.489 3.333 2.521 3.387.111-.028.226-.064.341-.116.048-.021.1-.042.149-.067.009-.007.017-.01.031-.016 2.498-1.237 5.595-6.736 5.595-6.736-.009-.054-.146-1.178-.812-2.451-.086-.164-.183-.334-.288-.501-.281.321-.621.675-1.022 1.031-.122.108-.249.216-.383.322-1.976 1.59-5.16 2.924-9.388.751-.026-.012-.049-.024-.072-.035-.371.642-.546 1.131-.629 1.433-.062.223-.072.344-.072.344l.003.005Z" fill="#949984"/>
    <path d="M281.246 187.035c1.523.36 2.916 1.473 4.026 2.649 1.51 1.609 2.488 3.333 2.521 3.387.111-.028.226-.064.34-.116.049-.021.101-.042.149-.067.01-.007.018-.01.031-.016-1.77-4.03-5.363-6.026-6.997-6.19-.062.223-.073.344-.073.344l.003.009Z" fill="#949984" style="mix-blend-mode:multiply" opacity=".25"/>
    <path d="M283.799 182.864c3.255 3.293 7.378-1.401 7.378-1.401.014-.014.028-.028.039-.043-.077-.061-.162-.118-.243-.176-.067-.046-.134-.089-.201-.132-.66-.422-1.463-.76-2.428-.942-.076-.011-.151-.031-.223-.042-.036-.005-.076-.011-.108-.016-.131-.02-.267-.04-.409-.049l-.004-.001c-.296-.016-.587.071-.825.243-1.254.919-2.225 1.782-2.976 2.559Z" fill="#9EA58E" style="mix-blend-mode:screen" opacity=".1"/>
    <path d="M287.477 182.344c.503.076.962-.203 1.025-.622.063-.419-.293-.82-.796-.896-.503-.076-.962.202-1.026.622-.063.419.294.82.797.896Z" fill="#CCD1C0"/>
    <path opacity=".12" d="M259.223 219.748c1.829 2.617 4.228.359 5.689-1.447 1.467-1.307 3.52-1.206 4.902-2.759.11-.106.209-.222.307-.333.314-.317.571-.695.822-1.061.576.409 2.438-.859 2.125-2.634.023-.042.049-.079.071-.12 1.529-2.851 4.36-4.532 6.279-7.07 3.422-.04 2.975-2.502 2.755-3.266.102.06 2.008-1.07 1.265-2.102.232-.782.756-1.52 1.419-1.931 1.472-.959 2.231-2.311 2.94-3.949 2.694-.742 6.075-6.917 6.114-6.931-.008-.051-.145-1.174-.812-2.447-1.962 2.474-4.262 5.809-7.539 5.973-.444-.035-.439.146-.531.786.769 5.035-5.142 7.527-6.532 8.102.551.083.196 1.272-1.056 2.317-.223.207-.645.348-.593.601.449 1.763-1.387 2.831-2.906 2.798-2.432-.125-2.436 9.013-5.339 6.072.866 3.174-4.278 6.019-6.736 8.1-.345.336.284 2.041-2.64 1.306l-.004-.005Z" fill="#000"/>
    <path fill-rule="evenodd" clip-rule="evenodd" d="M180.441 163.972c2.615-1.123 4.678-3.288 5.667-5.972.815 2.818 2.788 5.144 5.371 6.429-2.615 1.122-4.678 3.286-5.667 5.969-.816-2.817-2.79-5.142-5.371-6.426ZM215 174.618c2.023-.869 3.618-2.542 4.382-4.618.63 2.179 2.156 3.977 4.153 4.971-2.022.868-3.617 2.541-4.382 4.616-.631-2.178-2.156-3.976-4.153-4.969ZM160 183.018c1.322-.568 2.364-1.662 2.864-3.018.412 1.424 1.409 2.599 2.714 3.249-1.321.567-2.364 1.66-2.864 3.016-.412-1.423-1.409-2.598-2.714-3.247ZM113 11.9633c2.174-.9338 3.888-2.73264 4.71-4.9633.677 2.34172 2.317 4.2747 4.463 5.3426-2.173.9333-3.887 2.7312-4.709 4.9609-.678-2.3408-2.318-4.2728-4.464-5.3402ZM94 22.2465c1.422-.6109 2.5433-1.7878 3.0805-3.2472.4429 1.532 1.5156 2.7966 2.9195 3.4953-1.4213.6102-2.5425 1.7859-3.0804 3.244-.4436-1.5307-1.5162-2.7941-2.9196-3.4921Z" fill="#FFFEFD"/>
  </g>
  <defs>
    <clipPath id="a">
      <path fill="#fff" d="M0 0h320v194H0z"/>
    </clipPath>
  </defs>
</svg>
