<svg width="304" height="194" fill="none" xmlns="http://www.w3.org/2000/svg">
  <g clip-path="url(#a)">
    <path fill="#67B279" d="M0 0h304v194H0z"/>
    <path d="M-17.5535 170.464c4.7895-39.967 56.9822-76.6575 110.5329-45.791" stroke="#F9EFE5" stroke-width="2" stroke-dasharray="15 15"/>
    <path d="M63.1444 166.219c.909 4.093-1.2655 8.241-5.1123 10.541 2.1846-2.325 3.2341-5.419 2.5512-8.482-1.1751-5.298-7.0809-8.497-13.1775-7.141-1.3911.311-2.6716.828-3.8066 1.506 1.592-1.702 3.7916-2.998 6.3678-3.565 6.1016-1.356 12.0023 1.848 13.1774 7.146v-.005Z" fill="#C8C6C6"/>
    <path d="m71.1445 140.115-9.1549-1.833-31.2814 73.902c-1.9635 4.64-2.1242 10.24-.3364 12.515 1.155 1.476 2.8524 1.175 4.4393-.513.8387-.894 1.6472-2.169 2.3302-3.791l34.0032-80.28Z" fill="#D58500"/>
    <path d="M109.753 166.57c.929-8.773-7.769-19.229-16.0453-25.22-14.674-10.631-62.1258-22.387-86.78325 9.105-7.035669 8.989-10.82216 18.461-10.86233 27.309-.06027 14.046 5.6697 26.521 15.91938 32.657 26.2695 15.729 41.8173 3.019 52.087-9.506 10.2698-12.525 14.4028-15.287 34.5707-19.791 8.7938-1.969 10.4258-8.05 11.1138-14.554Zm-57.6265-7.096c5.8002 0 10.5007 4.008 10.5007 8.959 0 4.952-4.7005 8.954-10.5007 8.954-5.8003 0-10.5008-4.007-10.5008-8.954 0-4.946 4.7005-8.959 10.5008-8.959Z" fill="#C8C6C6"/>
    <path opacity=".5" d="M109.753 166.57c-.688 6.504-2.32 12.585-11.1138 14.554-5.0219 1.12-9.0494 2.134-12.4241 3.214.2561-.417 11.922-19.771 23.5229-20.53.1.934.105 1.858.01 2.762h.005ZM45.9695 203.742c1.2052 14.348-15.0908 13.745-15.0908 13.745-6.9252-.507-14.222-4.268-18.8923-7.066C1.73672 204.285-3.99326 191.81-3.933 177.764c.00502-.638 49.0488 15.789 49.9075 25.978h-.005Z" fill="#E5E3E3"/>
    <path d="M93.7076 136.831c-14.6739-10.632-62.1257-22.388-86.78321 9.104-8.25598 10.541-11.41976 21.77-10.86233 31.829.66289 12.193 6.78456 22.669 15.91934 28.138 26.2695 15.728 41.8173 3.018 52.0871-9.507 10.2697-12.524 14.4027-13.78 34.5706-18.284 7.2569-1.622 10.5509-6.047 11.1139-11.541 1.004-9.772-6.649-22.935-16.0454-29.739Zm-41.5812 40.556c-5.8003 0-10.5008-4.007-10.5008-8.954 0-4.946 4.7005-8.959 10.5008-8.959s10.5008 4.008 10.5008 8.959c0 4.952-4.7005 8.954-10.5008 8.954Z" fill="#E5E3E3"/>
    <path opacity=".46" d="M73.2786 128.193c-20.5496-5.157-49.0588-4.349-66.35421 17.742-8.25598 10.541-11.41976 21.77-10.86233 31.829.66289 12.193 6.78456 22.669 15.91934 28.138 26.2695 15.728 41.8173 3.018 52.0871-9.507 6.8398-8.341 10.9577-11.686 18.9023-14.317-9.8328-6.755-11.6407-12.013-6.6741-18.27 8.3414-10.511 28.7603-18.541-3.0181-35.615Zm-21.1522 49.194c-5.8003 0-10.5008-4.007-10.5008-8.954 0-4.946 4.7005-8.959 10.5008-8.959s10.5008 4.008 10.5008 8.959c0 4.952-4.7005 8.954-10.5008 8.954Z" fill="#F7F7F7"/>
    <path d="M63.2449 126.285c-2.3904 4.163-3.0935 8.522-1.5518 11.806-.0653-.05-.1306-.1-.1908-.151-.2109.267-.3917.573-.5374.909l-5.8806 13.72c-.2611.608-.8236 2.155-.3766 2.893l.015-.015-1.7175 4.057c2.4005.171 4.57 1.025 6.2372 2.341.7282.572 1.3559 1.225 1.8682 1.953 0 0 .01.005.01.01l2.2197-5.228c.8437-.07 1.5467-1.089 1.8079-1.697l5.8806-13.72c.1456-.336.2461-.678.2913-1.009-.1356-.02-.2712-.04-.4068-.065 4.0326-1.592 7.4475-6.725 8.1556-12.224-4.7508-1.562-10.1242-2.837-15.824-3.58Z" fill="#E5E3E3"/>
    <path d="m71.1442 140.115-.7935 1.878-.1456.342-6.88 16.235-2.2146 5.228-5.5442 13.097c-.6981.206-1.4363.352-2.1946.427-.4067.045-.8236.065-1.2454.065-2.2347 0-4.3038-.597-6.0062-1.612l6.885-16.271 1.7175-4.057 7.1763-16.949.0753-.186.0151-.03 6.5686 1.316 2.5863.517Z" fill="#D58500"/>
    <path d="m61.1207 163.808-5.5442 13.082c-.693.211-2.6917.422-3.45.497 4.4092-11.379 13.2025-31.838 16.743-41.792.4017-.316 3.0281.191 2.0639 3.792-1.6823 6.297-7.9144 19.957-9.8127 24.421Z" fill="#B45F00"/>
    <path d="M79.1591 126.591c.0854 1.09.0503 2.19-.0903 3.274-2.7671 19.5-25.3254 14.614-15.824-3.58 1.155-2.019 2.7068-3.988 4.59-5.765C75.3224 113.454 80.0832 108 80.0832 108s-1.6773 9.2-.9241 18.591Z" fill="#2B2B37"/>
    <path d="M77.7129 110.601c-.9743 23.558-15.4574 17.642-15.4574 17.642.2862-.653.6177-1.31.9893-1.958 1.1551-2.019 2.7068-3.988 4.59-5.765 4.344-4.098 7.7689-7.654 9.8781-9.919Z" fill="#45424D"/>
    <path d="M79.0688 129.85v.01c-.7081 5.504-4.123 10.637-8.1556 12.229-.231.095-.457.17-.688.241 0 0-.015 0-.0201.005-1.2454.351-2.531.366-3.8066-.051-.4569-.145-.9089-.346-1.3558-.607-1.4263-.829-2.4608-1.919-3.1437-3.179-.0754-.136-.1407-.271-.206-.407-.3866-.818-.6277-1.707-.7382-2.646 1.0797.195 13.0971 2.189 18.114-5.595Z" fill="#1F1F28"/>
    <path d="M71.3201 142.154c.2963.04-6.0815 14.332-6.1719 14.729-.2611.608-10.325-3.706-10.0639-4.314.3666-.607 5.9811-14.468 6.418-14.629 2.4306 1.979 5.7199 3.486 8.8486 4.053.005.005.01.005.015 0 .3214.065.6328.111.9542.161Z" fill="#C8C6C6"/>
    <path d="m66.4286 140.828-6.1869 14.488c-1.4514-.607-2.9128-1.285-3.9121-1.823l6.2874-14.719c1.1601.799 2.4607 1.497 3.8116 2.054Z" fill="#D8D5D0"/>
    <path opacity=".74" d="M19.7452 164.627c-7.8543 1.21-15.4323.803-22.07625-.899 1.682328-5.931 4.69043-11.967 9.25533-17.793 12.59992-16.09 31.15072-20.891 48.24022-20.318.5374 1.381.9291 2.822 1.1601 4.314 2.4105 15.683-13.9659 31.221-36.5794 34.696Z" fill="#F7F7F7"/>
    <path d="M30.9843 142.485c-2.5512-3.093.6829-13.719 9.0193-11.696 6.0765 1.477 10.0086 0 11.5302 3.435 1.5217 3.43-.8939 8.834-7.3872 11.721-5.0269 2.23-10.7669-.547-13.1623-3.46Z" fill="#5391E5"/>
    <path d="M98.6994 154.061c0 3.605-3.2792 10.089-9.7223 7.005-4.0678-1.948-9.1298-3.163-9.1298-6.769 0-3.606 3.4249-7.839 9.0946-7.839 4.3841 0 9.7575 4.002 9.7575 7.608v-.005Z" fill="#3E8E5B"/>
    <path d="M25.2643 155.532c7.4675 2.586 3.3194 12.801-5.74 13.318-5.72.327-10.84231-1.757-12.6753-5.474-1.83299-3.716-1.02948-9.451 5.5643-12.705 5.0972-2.516 8.959 3.51 12.856 4.861h-.005Z" fill="#F79C31"/>
    <path d="M1.9678 185.181c.38167-4.971 5.84046-11.193 11.234-4.539 3.5906 4.429 9.6169 2.35 10.8272 7.879 1.3709 6.247-5.3785 9.828-11.9471 8.602-5.07714-.949-10.43047-7.829-10.11911-11.942h.00501Z" fill="#EA4335"/>
    <path opacity=".14" d="M11.7404 161.654c-3.68605-1.406-4.92646-8.492 1.3409-9.225 6.2673-.734 10.561 3.003 8.4819 5.172-2.079 2.17-4.7356 5.991-9.8228 4.053ZM35.283 140.903c-3.0985-1.406-4.143-8.492 1.125-9.225 5.2679-.733 8.8837 3.003 7.1361 5.173-1.7477 2.169-3.9824 5.991-8.2611 4.052ZM85.3913 154.874c-3.0985-1.12-4.143-6.774 1.1249-7.357 5.268-.582 8.8838 2.396 7.1361 4.123-1.7476 1.728-3.9823 4.781-8.261 3.234ZM6.60311 190.269c-3.00811-1.12-4.02253-6.775 1.09477-7.357 5.11732-.583 9.38592 4.253 7.68852 5.986-1.6974 1.732-4.6302 2.922-8.78329 1.376v-.005Z" fill="#fff"/>
    <path d="M82.8735 66.9915 10.2436 91.5157c-2.72624.9205-5.61622-.4787-6.88164-2.9851L-21.4738 10.5287c-.8434-2.6489.681-5.53868 3.4072-6.45923L50.0519-18.9314c2.7263-.9205 5.6162.4787 6.4596 3.1276l26.362 82.7953Z" fill="#ABCDF4"/>
    <path d="M-16.8199 3.65593 50.8807-19.2037c2.7222-.9192 5.6179.4828 6.4601 3.1277l26.3636 82.7999L11.07 91.2495c-2.72223.9191-5.61792-.4829-6.46006-3.1278L-20.2274 10.1155c-.8421-2.64493.6853-5.5404 3.4075-6.45957Z" fill="#E1F0FF"/>
    <path d="M48.3511-9.54204 14.5628 1.63731c-.6755.22349-1.0544.92393-.8462 1.56446.2081.64054.9244.97862 1.5999.75513L49.1048-7.22245c.6755-.22349 1.0544-.92393.8462-1.56446-.2081-.64054-.9244-.97863-1.5999-.75513ZM50.5921-2.7076 16.8038 8.47175c-.6755.22349-1.0544.92393-.8462 1.56445.2081.6406.9244.9786 1.5999.7551L51.3458-.388007c.6755-.223493 1.0543-.923923.8462-1.564463-.2081-.64054-.9244-.97862-1.5999-.75513ZM52.8313 4.12269 19.043 15.302c-.6755.2235-1.0543.924-.8462 1.5645.2081.6405.9245.9786 1.5999.7551L53.5851 6.44228c.6754-.22349 1.0543-.92392.8462-1.56446-.2082-.64054-.9245-.97862-1.6-.75513ZM37.5835 39.9335 3.79403 51.116c-.6755.2235-1.05466.9233-.84687 1.5629.20779.6396.92384.9769 1.59935.7534L38.336 42.2498c.6755-.2235 1.0547-.9233.8469-1.5629-.2078-.6396-.9239-.9769-1.5994-.7534ZM40.4127 48.5628 6.62326 59.7452c-.67551.2236-1.05467.9233-.84688 1.5629.20779.6397.92384.977 1.59935.7534L41.1652 50.8791c.6755-.2236 1.0547-.9233.8469-1.5629-.2078-.6397-.9238-.977-1.5994-.7534ZM64.7825 40.574l-18.9544 6.3018c-.6761.2248-1.0556.9284-.8476 1.5716.2079.6431.9246.9823 1.6007.7575l18.9545-6.3019c.6761-.2248 1.0556-.9284.8476-1.5715-.208-.6432-.9247-.9823-1.6008-.7575ZM56.2984 14.6865-2.03023 33.9264c-.67514.2227-1.0541.9198-.84642 1.557.20768.6372.92335.9732 1.59849.7505l58.32866-19.24c.6752-.2227 1.0541-.9197.8464-1.5569-.2076-.6372-.9233-.9732-1.5985-.7505ZM59.1275 23.3158.798874 42.5558c-.675144.2227-1.054104.9197-.8464258 1.5569.2076778.6372.9233478.9732 1.5984918.7505l58.32866-19.24c.6752-.2227 1.0541-.9197.8464-1.5569-.2076-.6372-.9233-.9732-1.5985-.7505ZM67.6133 49.1953 9.28459 68.4352c-.67514.2227-1.0541.9198-.84642 1.5569.20768.6372.92335.9732 1.59853.7505l58.3286-19.2399c.6752-.2227 1.0541-.9198.8465-1.557-.2077-.6371-.9234-.9731-1.5985-.7504Z" fill="#ABCDF4"/>
    <path d="M5.86737 2.35655-9.23282 7.47338c-1.43578.48652-2.24208 2.00805-1.80098 3.39842l4.63942 14.6228c.44113 1.3904 1.96266 2.1231 3.39843 1.6366l15.10015-5.1169c1.4358-.4865 2.2421-2.008 1.801-3.3984L9.26579 3.99313c-.44112-1.39038-1.96265-2.1231-3.39842-1.63658Z" fill="#F5F9FC"/>
    <path d="M5.68932 10.0012c-.50025-.80951-1.1667-1.39049-1.45104-1.59329-.48227-.28078-.69222-.38188-1.86293.01481l-1.26791.42963 2.86193 9.02005c.51162 1.6125.74662 1.6598 2.55186 1.1977l.22465.708-6.580457 2.2297-.224643-.708c1.64347-.7064 1.78462-.8812 1.273-2.4937l-2.86193-9.02003-1.20874.40953c-1.11154.3767-1.37397.656-1.60339 1.2459-.16337.4588-.21864 1.2435-.23362 2.0962l-.7523.2549c-.30462-1.447-.64041-2.9921-.89454-3.92582l.59592-.20193c.43609.34175.68868.29696 1.28037.09647l7.92867-2.6866c.53675-.18187.7751-.38955.99765-.86836l.57478-.19476c.27694.79908.88931 2.46354 1.38549 3.67332l-.73412.31221.0013.00407Z" fill="#ABCDF4"/>
    <path d="m85.5169 56.276 1.3269 4.103c.979 3.0275-.8105 6.3357-3.992 7.3933L11.0481 91.643l-.0284-.0877c1.8804-1.1589 2.6211-4.2022 1.6369-7.2456-.2486-.7688-.5869-1.4725-.9904-2.0928-.3769-.5806-.0602-1.3697.6311-1.5995L85.5169 56.276Z" fill="#569ACC"/>
    <path d="M85.3319 56.3417c.5872-.1952 1.2142.1037 1.3959.6653l.9971 3.0833c.979 3.0274-.8105 6.3356-3.992 7.3932L11.9292 91.3542l-.0284-.0877c1.8804-1.1589 2.6211-4.2022 1.6369-7.2456-.2486-.7688-.5869-1.4725-.9904-2.0928-.3769-.5806-.0602-1.3697.6311-1.5995l72.1535-23.9869Z" fill="#ABCDF4"/>
    <path d="M32.179 65.433C25.2684 35.7906 48.4008 6.6391 62.5078-5.81493c.3684 5.645528.6355 10.85395.6355 10.85395s2.4348-8.37675 4.3484-14.84081c2.1802-1.52291 3.7708-2.35191 4.6013-2.31601 7.5396.1877 7.7143 14.56116 2.8071 31.8895l-12.8712 9.2974s5.1244-1.759 11.2209-3.8473c-4.9036 14.8023-13.0897 30.8845-23.1822 41.7108-7.7009 8.1847-15.4959 8.6818-17.8899-1.5037l.0013.0041Z" fill="#4D4F68"/>
    <path d="M36.8808 43.2239c3.6371 8.0783 8.859 15.288 16.2825 20.3687 5.4121-6.5531 10.1748-14.5124 14.101-22.7762-9.3395-8.1441-14.9058-19.6093-19.0205-31.02805-5.7882 7.68225-11.182 16.85685-14.3499 26.85425.9485 2.2431 1.949 4.4276 2.984 6.5869l.0029-.0056Z" fill="#45424D"/>
    <path d="M42.3932 72.7127c-.3673-4.0378 3.0954-20.1893 9.3883-36.478 0 0-10.837 25.34-15.7995 35.3772 1.3097 1.9257 4.6642 1.6971 6.4112 1.1008Z" fill="#3B363F"/>
    <path d="M33.987 93.2358s4.3166-38.3089 18.0016-56.997c0 0-12.9128 28.2318-15.6568 56.2033l-2.349.7952.0042-.0015Z" fill="#D8E0E0"/>
    <path d="M39.4835 75.9635c-1.0551 5.3024-1.6299 11.0343-2.6785 16.4757l-2.8071 2.7982c.429-4.7537 1.3939-10.3397 3.7857-21.1399l1.6957 1.8674.0042-.0014Z" fill="#7F8A90"/>
    <path d="M302.885 167.97c.349-.305.316-.912-.073-1.356-.39-.444-.989-.556-1.338-.251-.349.304-.316.911.073 1.355.39.444.989.557 1.338.252Z" fill="#4D4F68"/>
    <path d="M302.199 166.944s.445 1.009 2.785.825c2.336-.185 3.108 2.759 3.108 2.759l-1.191-.139-1.216-1.961s-1.034.503-1.864-.386c0 0-1.26.761-2.309-.37l.694-.727-.007-.001ZM301.752 174.971c.43-.243.524-.881.209-1.425-.314-.543-.918-.786-1.348-.543-.43.243-.524.881-.209 1.425.314.543.918.786 1.348.543Z" fill="#4D4F68"/>
    <path d="M301.335 173.626s-.742.915.766 2.972c1.503 2.059-.959 4.239-.959 4.239l-.537-1.169 1.244-2.101s-1.081-.701-.675-1.91c0 0-1.466-.778-.946-2.31l1.108.272-.001.007ZM292.333 160.799c.129-.445-.222-.948-.786-1.124-.563-.175-1.125.042-1.254.487-.13.444.222.947.785 1.123.564.176 1.126-.042 1.255-.486Z" fill="#4D4F68"/>
    <path d="M291.587 160.365s-1.125.02-1.924-2.171c-.799-2.187-3.863-1.655-3.863-1.655l.627 1.019 2.332.276s-.036 1.145 1.135 1.525c0 0-.187 1.456 1.304 1.933l.39-.93-.001.003ZM285.503 165.128c.624.068 1.161-.275 1.199-.766.039-.491-.435-.944-1.059-1.012-.623-.068-1.16.274-1.199.766-.039.491.435.944 1.059 1.012Z" fill="#4D4F68"/>
    <path d="M285.813 163.972s-.528 1.023-3.006.533c-2.477-.491-3.454 2.563-3.454 2.563l1.277-.001 1.397-1.947s1.073.668 2.007-.178c0 0 1.299.975 2.477-.105l-.698-.865ZM296.846 179.982c.252-.366.041-.951-.469-1.305s-1.128-.345-1.379.021c-.251.366-.04.951.47 1.305.51.355 1.127.345 1.378-.021Z" fill="#4D4F68"/>
    <path d="M295.98 178.706s-.795.713.473 2.836c1.269 2.124-.74 3.456-.74 3.456l-.656-.89 1.07-1.717s-.982-.816-.483-1.851c0 0-1.344-.945-.704-2.261l1.047.428-.007-.001ZM283.606 170.497c-.507-.045-1.049.4-1.208 1-.158.6.124 1.123.631 1.168.507.045 1.05-.401 1.208-1.001.158-.6-.124-1.122-.631-1.167Z" fill="#4D4F68"/>
    <path d="M283.61 171.38s-.453 1.099-2.726.458c-2.27-.64-3.124 2.354-3.124 2.354l.841-.073 1.588-1.638s.998.773 1.823-.115c0 0 1.211 1.12 2.256-.012l-.658-.977v.003ZM297.688 165.704c2.492.407 4.785-1.227 5.122-3.65.337-2.422-1.409-4.715-3.901-5.122-2.492-.406-4.785 1.228-5.122 3.65-.337 2.422 1.41 4.716 3.901 5.122Z" fill="#4D4F68"/>
    <path d="M301.618 159.157s3.616.056 4.857-2.593c0 0 .855 1.036-.652 1.873 0 0 .942 2.628-3.702 1.567l-.504-.843.001-.004ZM298.652 157.389s-1.771-3.171.019-5.527c0 0-1.337-.264-1.375 1.466 0 0-2.809.413.355 4.018l1 .046.001-.003Z" fill="#4D4F68"/>
    <path d="M302.617 160.126s-2.687 3.35-6.195.631l5.579 3.216s1.383-1.851.612-3.844l.004-.003Z" fill="#45424D"/>
    <path d="M301.669 174.784c2.959-4.967 1.606-11.259-3.022-14.055-4.628-2.796-10.778-1.037-13.737 3.929-2.958 4.967-1.605 11.259 3.022 14.055 4.628 2.796 10.778 1.037 13.737-3.929Z" fill="#E9653A"/>
    <path d="m285.92 177.193 10.065-11.918-5.855 14.424s-2.907-.796-4.21-2.506Z" fill="#45424D"/>
    <path d="m286.488 177.835 8.246-10.486-5.379 12.136s-1.527-.47-2.867-1.65ZM297.416 171.875c-2.841-1.693-2.745-5.244-.172-4.499 2.571.74 1.079-1.812 3.364-1.523 2.284.289 3 4.262 1.312 5.834-1.689 1.572-3.359.87-4.504.188ZM287.399 169.971c-3.284-.511 1.078 3.691-1.776 3.703-.787.001-1.47-.362-2.015-.932-.576-2.35-.316-4.939.885-7.29 1.429-.696 2.93-.276 4.038.252 2.44 1.17 2.145 4.77-1.135 4.263l.003.004ZM292.991 178.067c-1.272-1.52-.466-3.491.852-2.557 1.318.935 1.002-.796 2.248-.174 1.246.622.819 2.993-.481 3.535-1.301.542-2.108-.19-2.622-.805l.003.001ZM293.278 162.899c1.721 1.134 1.838 2.915.319 2.288-1.519-.627-.532.808-1.864.438-1.333-.371-1.94-2.444-1.042-3.074.898-.63 1.894-.109 2.587.345v.003ZM294.8 161.711c-1.381-1.218.817-.522-.968-1.874-.233-.173-.397-.328-.511-.464.974-.06 1.959.031 2.915.276.053.03.103.058.156.088.987.586 2.267 1.455 2.31 2.431.046.973-2.517.761-3.898-.457h-.004Z" fill="#4D4F68"/>
    <path opacity=".11" d="M301.682 174.736c-2.978 4.937-9.167 6.688-13.823 3.908-1.416-.845-2.528-2.013-3.305-3.37 14.276 2.871 15.562-11.752 15.659-13.327 3.355 3.125 4.078 8.463 1.469 12.792v-.003Z" fill="#1F1F21"/>
    <path d="M315.375 165.5c-2.418-12.097-14.014-20.271-25.891-18.259l-.002.011c-11.883 2.025-19.56 13.455-17.137 25.546 2.408 12.096 14.007 20.271 25.885 18.255.537-.097 1.058-.199 1.582-.329 3.464-.856 6.502-2.53 8.995-4.784 5.402-4.892 8.14-12.521 6.568-20.44Zm-18.073 20.127c-4.009.68-7.962.025-11.391-1.644-.01-.008-.017-.013-.017-.013-5.12-2.491-9.072-7.226-10.249-13.124-1.979-9.858 4.53-19.219 14.522-20.909 7.655-1.3 15.132 2.281 19.096 8.454 1.214 1.889 2.095 4.02 2.561 6.326 1.968 9.857-4.53 19.219-14.522 20.91Z" fill="#A05A07"/>
    <path d="M315.07 163.875c-2.419-12.093-14.012-20.267-25.892-18.255-11.885 2.011-19.559 13.449-17.141 25.546 2.419 12.093 14.011 20.268 25.896 18.256 11.88-2.012 19.555-13.45 17.137-25.547Zm-17.746 21.741c-4.009.68-7.962.025-11.392-1.644-.009-.008-.016-.013-.016-.013-5.12-2.491-9.072-7.226-10.249-13.124-1.979-9.858 4.53-19.219 14.522-20.909 7.655-1.3 15.132 2.281 19.096 8.454 1.213 1.889 2.095 4.02 2.561 6.326 1.968 9.857-4.53 19.219-14.522 20.91Z" fill="#C77500"/>
    <path d="M311.72 163.955c-.49-2.042-1.312-3.935-2.405-5.633-3.952-6.147-11.405-9.713-19.037-8.419-9.784 1.652-16.216 10.676-14.57 20.297-.666-2.665-.728-5.505-.063-8.33 2.266-9.648 12.127-15.474 22.022-13.01 7.533 1.874 12.912 8.015 14.053 15.095Z" fill="#A05A07"/>
    <path opacity=".39" d="M297.242 185.623c-3.997.677-7.938.026-11.356-1.636-.01-.009-.016-.013-.016-.013-5.105-2.481-9.045-7.196-10.218-13.068-.036-.174-.068-.35-.093-.526 1.607 6.439 6.749 11.86 13.746 13.599 9.894 2.464 19.752-3.362 22.021-13.009.541-2.303.601-4.614.244-6.834.054.222.105.443.148.667 1.962 9.814-4.516 19.137-14.476 20.82Z" fill="#CCECFA"/>
    <path opacity=".15" d="M290.182 149.929c-9.99 1.69-16.497 11.049-14.519 20.905 1.176 5.899 5.131 10.631 10.247 13.121 0 0 .007.004.016.013 3.429 1.668 7.381 2.319 11.389 1.642 9.99-1.689 16.486-11.05 14.519-20.904-.47-2.306-1.348-4.436-2.561-6.325-3.963-6.171-11.441-9.751-19.094-8.456l.003.004Z" fill="#3FAEE1"/>
    <path opacity=".15" d="M309.182 158.387c2.765 6.755 1.114 14.703-4.255 20.128-.841.862-1.793 1.657-2.824 2.382-2.916 2.028-6.19 3.18-9.463 3.502-2.314.239-4.644.056-6.851-.518 3.453 1.681 7.429 2.347 11.457 1.686 10.039-1.651 16.54-10.985 14.529-20.846-.48-2.308-1.37-4.441-2.596-6.334h.003Z" fill="#3FAEE1"/>
    <path d="M283.731 158.122s-2.126-3.092-3.995-.27c-1.871 2.821 4.794 2.532 3.995.27ZM285.212 153.165s4.977-4.152 9.918-2.032c4.94 2.11-.624 1.465-4.046 2.497-3.422 1.033-8.8 2.302-5.872-.465ZM307.098 174.672c-2.39-.775-3.386 6.771-17.051 7.337-5.916.243.662 3.919 8.287 2.467 7.488-1.421 11.384-8.956 8.764-9.804Z" fill="#fff"/>
    <path d="M263.952 146.166c.065-.19-.012-.39-.172-.448-.16-.057-.342.05-.407.239-.064.189.013.39.173.447.16.058.342-.049.406-.238Z" fill="#4D4F68"/>
    <path d="M263.549 145.959s.308.261-.029.999c-.337.739.624 1.332.624 1.332l.09-.404-.559-.624s.3-.279.08-.653c0 0 .419-.319.137-.795l-.339.142-.004.003ZM265.308 147.947c.14-.141.166-.342.058-.449-.107-.108-.308-.081-.449.059-.14.141-.166.342-.058.449.107.108.308.081.449-.059Z" fill="#4D4F68"/>
    <path d="M265.016 147.549s.309.195.056.942c-.254.747.493 1.084.493 1.084l.146-.317-.474-.508s.259-.309.02-.623c0 0 .366-.37.063-.765l-.308.189.004-.002ZM269.598 146.685c.153.046.264.239.248.432-.016.193-.152.311-.305.265-.152-.047-.263-.24-.248-.433.016-.193.152-.311.305-.264Z" fill="#4D4F68"/>
    <path d="M269.497 146.919s.016.374.741.455c.724.081.662 1.053.662 1.053l-.235-.122-.289-.662s-.369.106-.518-.248c0 0-.466.183-.651-.27l.293-.205-.003-.001ZM265.181 145.118c1.044-.157 1.758-1.07 1.594-2.039-.164-.968-1.143-1.626-2.187-1.468-1.044.157-1.758 1.07-1.594 2.038.164.969 1.143 1.626 2.187 1.469Z" fill="#4D4F68"/>
    <path d="M269.214 147.923c.982-1.123.52-3.137-1.033-4.499-1.552-1.363-3.607-1.557-4.589-.434-.983 1.122-.52 3.137 1.032 4.499 1.553 1.362 3.608 1.557 4.59.434Z" fill="#E9653A"/>
    <path d="M267.09 143.952s.567 1.19.844 2.595c.129.665.194 1.38.101 2.038.003.001.007.001.011-.001.007.001.011-.002.018-.005.007.002.011-.001.019-.004.007.002.015-.004.022-.003.007.001.015-.005.019-.004.093-.024.184-.052.271-.084.236-.085.535-.231.745-.465 0 0-.029-.46-.197-1.082-.234-.869-.75-2.086-1.857-2.982l.004-.003Z" fill="#45424D"/>
    <path d="M265.485 141.668s1.022-.444 1.134-1.633c0 0 .638.182.116.746 0 0 1.15.653-.923 1.056l-.327-.169ZM264.378 141.705s-1.194-.943-.919-2.137c0 0-.543.112-.269.785 0 0-.984.608.807 1.493l.381-.141Z" fill="#8E030A"/>
    <path d="m265.489 141.669.326.169c.471-.092.774-.197.962-.303.647-.365-.042-.754-.042-.754.522-.564-.116-.746-.116-.746-.028.277-.1.51-.2.708-.331.662-.934.925-.934.925l.004.001ZM264.378 141.705s-1.194-.943-.919-2.137c0 0-.543.112-.269.785 0 0-.984.608.807 1.493l.381-.141Z" fill="#4D4F68"/>
    <path d="m272.373 189.697.01.058s4.71 3.358 5.363 6.164c.014.055.024.109.038.161.091-.161.18-.333.271-.522.107-.221.22-.459.329-.723.079-.103.15-.204.225-.3.912-1.223 1.453-1.95 1.453-1.95.403-.465.471-1.047.149-1.306l-.767-.614-3.883-3.12c-.318-.258-.904-.093-1.311.372 0 0-.22.488-.856 1.056-.218.197-.487.399-.813.599-.071.045-.141.087-.212.128l.004-.003Z" fill="#A05A07"/>
    <path d="M250.979 213.004c1.393 3.89 3.893 8.562 7.493 3.654 1.251-1.195 3.126-1.035 4.347-2.397.096-.09.182-.189.267-.284.749-.773 1.182-1.825 2.021-2.517 1.038-1.187 1.74-2.72 3.034-3.733 2.6-2.343 4.932-5.158 6.678-8.144.675-1.133 2.141-1.44 2.951-3.243 1.252-2.799-3.144-4.702-5.414-6.338l-.009-.058c-3.337 1.712-3.477 3.683-5.278 5.866-3.454 2.467-6.345 5.997-9.373 9-2.885 5.247-9.163-.491-6.718 8.198l.001-.004Z" fill="#C77500"/>
    <path d="M268.534 193.576c.841 1.711 2.919.545 3.79-.337 2.15-1.499.556-3.591-.406-3.162-1.843.825-2.872 2.545-3.384 3.499Z" fill="#D58500"/>
    <path opacity=".12" d="M259.73 202.602c.882.954 2.6 1.594 4.925.877 3.24-1.002 2.525-1.389 5.52.089.469.233.944.365 1.412.422.979-1.244 1.9-2.543 2.902-3.724 1.656-3.57 6.31-4.17 1.696-8.832-.423.328-1.434 1.826-1.761 2.744-2.203 5.034-3.954 3.314-7.323 1.521-2.568 1.665-5.052 4.718-7.371 6.903Z" fill="#A05A07"/>
    <path d="M272.585 189.496c1.342.331 2.581 1.306 3.572 2.332 1.348 1.402 2.23 2.896 2.26 2.943.097-.023.198-.052.297-.095.042-.018.088-.035.13-.056 2.184-1.004 4.854-5.713 4.854-5.713-.008-.047-.143-1.014-.745-2.116-.078-.142-.165-.289-.26-.434-.347-.536-.811-1.08-1.422-1.544-.069-.053-.144-.104-.217-.154-.88-.598-1.846-.871-2.516-.995-.032-.005-.067-.01-.095-.015-.106-.017-.204-.033-.289-.044-.025-.004-.046-.007-.072-.004l-.003-.001c-.26-.018-.515.053-.722.197-1.089.77-1.932 1.497-2.581 2.153-.77.781-1.272 1.468-1.594 2.024-.554.952-.593 1.519-.593 1.519l-.004.003Z" fill="#9EA58E"/>
    <path d="M272.584 189.512c1.339.33 2.575 1.303 3.564 2.326 1.345 1.398 2.225 2.888 2.255 2.935.096-.023.197-.052.296-.095.042-.017.088-.034.13-.055.008-.006.016-.008.027-.013 2.175-1.024 4.816-5.686 4.816-5.686-.008-.047-.143-1.01-.744-2.11-.077-.141-.164-.288-.259-.433-.242.271-.535.569-.882.868-.106.091-.215.181-.332.271-1.711 1.332-4.484 2.429-8.22.508-.023-.011-.043-.021-.063-.031-.317.544-.464.96-.533 1.217-.051.191-.058.294-.058.294l.003.004Z" fill="#949984"/>
    <path d="M272.582 189.586c1.337.329 2.57 1.298 3.557 2.318 1.342 1.393 2.221 2.878 2.25 2.925.096-.023.197-.052.296-.094.042-.018.087-.035.13-.056.008-.006.015-.008.027-.013-1.603-3.463-4.772-5.217-6.204-5.38-.051.19-.058.293-.058.293l.002.007Z" fill="#949984" style="mix-blend-mode:multiply" opacity=".25"/>
    <path d="M274.85 185.904c2.887 2.849 6.427-1.087 6.427-1.087.012-.011.025-.023.034-.036-.068-.052-.143-.103-.215-.153-.059-.04-.118-.078-.177-.115-.582-.369-1.288-.667-2.134-.836-.066-.011-.132-.028-.195-.039-.031-.005-.066-.01-.094-.015-.116-.019-.235-.038-.359-.048h-.003c-.259-.018-.512.052-.718.195-1.083.763-1.921 1.484-2.566 2.134Z" fill="#9EA58E" style="mix-blend-mode:screen" opacity=".1"/>
    <path d="M278.063 185.507c.442.072.84-.16.89-.518.05-.357-.268-.706-.71-.778-.442-.072-.84.16-.89.518-.05.357.268.706.71.778Z" fill="#CCD1C0"/>
    <path opacity=".12" d="M253.509 217.713c1.635 2.278 3.721.357 4.987-1.186 1.277-1.112 3.082-1.002 4.281-2.327.096-.09.182-.189.268-.284.272-.27.494-.593.711-.907.511.36 2.135-.713 1.841-2.249.02-.035.042-.067.062-.103 1.314-2.442 3.786-3.862 5.447-6.031 3.008.003 2.59-2.126 2.389-2.788.09.053 1.755-.902 1.09-1.8.196-.672.649-1.303 1.228-1.651 1.284-.811 1.938-1.97 2.544-3.375 2.361-.611 5.271-5.902 5.305-5.914-.008-.043-.141-1.015-.74-2.12-1.699 2.113-3.687 4.965-6.567 5.071-.391-.035-.384.121-.459.672.729 4.354-4.443 6.439-5.659 6.92.485.078.186 1.099-.905 1.988-.194.176-.563.293-.515.512.413 1.526-1.19 2.427-2.526 2.382-2.14-.135-2.049 7.751-4.632 5.181.794 2.748-3.699 5.147-5.839 6.915-.3.287.271 1.764-2.308 1.098l-.003-.004Z" fill="#000"/>
    <path fill-rule="evenodd" clip-rule="evenodd" d="M172.44 163.972c2.616-1.123 4.679-3.288 5.668-5.972.815 2.818 2.788 5.144 5.371 6.429-2.615 1.122-4.678 3.286-5.667 5.968-.816-2.816-2.79-5.141-5.372-6.425ZM207 174.618c2.023-.869 3.618-2.542 4.382-4.618.63 2.179 2.156 3.977 4.153 4.971-2.022.868-3.617 2.541-4.382 4.616-.631-2.178-2.156-3.976-4.153-4.969ZM152 183.018c1.322-.568 2.364-1.662 2.864-3.018.412 1.424 1.409 2.599 2.714 3.249-1.321.567-2.364 1.66-2.864 3.016-.412-1.423-1.409-2.598-2.714-3.247ZM113 11.9633c2.174-.9338 3.888-2.73264 4.71-4.9633.677 2.34172 2.317 4.2747 4.463 5.3426-2.173.9333-3.887 2.7312-4.709 4.9609-.678-2.3408-2.318-4.2728-4.464-5.3402ZM94 22.2465c1.422-.6109 2.5433-1.7878 3.0805-3.2472.4429 1.532 1.5156 2.7967 2.9195 3.4953-1.4213.6103-2.5425 1.7859-3.0804 3.244-.4436-1.5307-1.5162-2.7941-2.9196-3.4921Z" fill="#FFFEFD"/>
  </g>
  <defs>
    <clipPath id="a">
      <path fill="#fff" d="M0 0h304v194H0z"/>
    </clipPath>
  </defs>
</svg>
