<svg width="320" height="194" fill="none" xmlns="http://www.w3.org/2000/svg"><g clip-path="url(#a)"><path fill="#BDE0FD" d="M0 0h320v194H0z"/><path d="M196.19 141.46c2.73-1.07 4.88-3.22 7.09-5.16a53.87 53.87 0 0 1 18.84-10.58c2.85-.91 5.96-1.57 8.8-.6 3.88 1.33 6.23 5.46 6.82 9.53.59 4.08-.2 8.2-.66 12.29-.45 4.1-.53 8.44 1.35 12.09.66 1.26 1.56 2.7.97 3.99-.48 1.07-1.75 1.49-2.89 1.76a62.48 62.48 0 0 1-33.96-1.31c-2.66-.87-5.3-1.96-7.43-3.77-3.6-3.1-5-7.71-5.6-12.26-.2-1.56-1.07-5 .36-5.93.97-.59 4.7.57 6.31-.05Z" fill="#F3F3F3"/><path opacity=".64" d="M237 154.17c-7.68-.3-15.25-3.56-20.38-9.34a26.64 26.64 0 0 1-5.43-9.55c-.4-1.22-.8-2.57-1.09-3.97a52.17 52.17 0 0 0-6.82 5.03c-2.22 1.92-4.36 4.08-7.09 5.15-1.59.63-5.32-.53-6.3.09-1.4.91-.54 4.37-.35 5.93.6 4.55 2 9.16 5.6 12.26 2.12 1.81 4.77 2.9 7.43 3.77a62.48 62.48 0 0 0 33.96 1.31c1.14-.27 2.42-.7 2.89-1.76.59-1.3-.31-2.73-.97-4a15.34 15.34 0 0 1-1.45-4.92Z" fill="#F3F3F3"/><path opacity=".64" d="M238.45 159.04c-1.88-3.66-1.81-8-1.35-12.08.45-4.1 1.26-8.22.66-12.3-.57-3.92-2.77-7.9-6.41-9.37.03.6.03 1.2.03 1.73-.15 10.53-8.8 18.57-17.72 22.79a48.8 48.8 0 0 1-17.42 4.51c-1.66.1-3.3.1-4.92.02a14.4 14.4 0 0 0 3.83 5.4c2.13 1.81 4.77 2.9 7.44 3.76a62.49 62.49 0 0 0 33.96 1.32c1.14-.28 2.42-.71 2.89-1.77.55-1.31-.33-2.75-.99-4Z" fill="#E9E9E9"/><path d="M-9.16 77.84c6.6-3.16 11.5-8.92 16.6-14.17 5.9-6.1 12.57-11.85 20.66-14.43 8.1-2.57 17.9-1.27 23.53 5.07 6.93 7.82 5.42 19.63 6.68 30 .94 7.7 3.86 15.46 9.7 20.54 4.03 3.5 9.13 5.48 14.2 7.02 7.96 2.4 16.95 3.79 24.28-.14 7.4-3.97 11.2-12.3 17.07-18.3 4.03-4.1 9.27-7.2 14.99-7.82 5.7-.62 11.84 1.52 15.3 6.12 5.4 7.2 2.95 17.29 3.38 26.28.95 20.13 17.93 36.7 36.99 43.21 3.8 1.3 7.9 2.4 10.72 5.28 5.04 5.13 3.97 13.53 2.14 20.5-1.28 4.86-2.94 9.96-6.84 13.1-4.12 3.33-9.79 3.76-15.06 3.83-32.67.48-64.87-7-96.67-14.44-27.91-6.53-56.05-13.14-82.05-25.23-4.13-1.91-8.33-4.08-11.23-7.59-5.48-6.62-5.05-16.1-5.46-24.67a97.86 97.86 0 0 0-8.85-36.1c-1.21-2.61-8.9-15.1-6.43-16.97 1.2-.91 6.34.95 7.96.92 2.9-.05 5.8-.76 8.39-2Z" fill="#F3F3F3"/><path opacity=".34" d="M204.95 166.51c-2.81-2.87-6.91-3.96-10.71-5.27-19.05-6.52-36.02-23.1-37-43.21-.42-9 2.03-19.07-3.38-26.28a14.75 14.75 0 0 0-2.26-2.39 54.86 54.86 0 0 1-4.76 7.38 39.15 39.15 0 0 1-7.8 7.6c-3.12 2.28-6.56 3.87-9.91 5.75-1.73.97-4.05 2.44-6 1.21-1.35-.84-2.02-2.49-2.45-3.94-.89-3-1.06-6.31-.85-9.51-4.03 5.19-7.59 10.86-13.31 13.92-7.33 3.92-16.32 2.54-24.27.14-5.1-1.54-10.2-3.53-14.2-7.02-5.85-5.09-8.77-12.85-9.7-20.54-1.26-10.38.24-22.19-6.69-30-5.63-6.35-15.43-7.65-23.52-5.07-8.13 2.54-14.8 8.3-20.7 14.39-5.1 5.25-10 11.01-16.6 14.17a20.59 20.59 0 0 1-8.35 2.03c-1.63.03-6.76-1.82-7.97-.92-2.47 1.85 5.22 14.35 6.43 16.96a97.86 97.86 0 0 1 8.85 36.1c.41 8.58-.02 18.08 5.46 24.68 2.9 3.51 7.1 5.67 11.24 7.6 26 12.08 54.13 18.68 82.04 25.22 31.82 7.43 64.02 14.92 96.67 14.44 5.28-.09 10.95-.5 15.06-3.82 3.9-3.15 5.56-8.27 6.84-13.11 1.82-6.99 2.89-15.37-2.16-20.5Z" fill="#D8D8D8"/><path d="M31.6 94.77C64.7 82.6 69.94 54.3 87.93 52.12c32.05-3.91 23.37 50.99 25.36 62.7 1.12 6.53 3.83 13.12 9.1 17.13 21.75 16.51 56.28-14.2 59.57-15.8 7.08-3.45 16.56-4 22.02 1.67 9.88 10.29-1.42 30.07 8.05 40.76 4.69 5.29 12.8 5.96 19.7 4.53 74.48-15.4 91.7 63.25 86.93 70.02-5.67 8.05-40.19-5.32-49.9-3.73-44.96 7.35-90.92 2.06-136.17-3.25-23.49-2.75-47-5.52-70.36-9.18-22.85-3.63-46.3-8.11-68.95-3.27-9.37-29.26-10.92-60.36-11.68-91.07-.16-6.5-.23-31.58 10.5-28.8 6.68 1.72 12.17 4.3 19.33 4.42a55.7 55.7 0 0 0 20.15-3.48Z" fill="#F3F3F3"/><g opacity=".34"><path opacity=".34" d="M175.04 166.63c-.71 2.48-1.1 5.17-.44 7.7 5 19.24 46.45-2.68 67.76-11.17 1.81-.73 3.64-1.42 5.5-2.04-5.05.15-10.41.78-16.12 1.95-6.9 1.44-15.02.76-19.7-4.53-9.47-10.67 1.83-30.47-8.05-40.75-.87-.9-1.84-1.65-2.89-2.25 11.67 17.55-21.03 33.46-26.06 51.1Z" fill="#A4A4A4"/><path opacity=".34" d="M212.04 158.56c-3.37-3.8-4.11-8.75-4.11-14-.57.77-1.18 1.51-1.82 2.22a32.3 32.3 0 0 1-4.96 4.24c-3.63 2.64-7.57 5.08-10.13 8.89-1.99 2.94-3.94 6.57-3.2 10.25.73 3.6 4.12 5.12 7.49 5.33 2.56.15 5.17-.31 7.66-.89a43.72 43.72 0 0 0 6.9-2.2c4.4-1.79 8.36-4.3 12.45-6.67 1.21-.69 2.44-1.38 3.7-2-5.29.1-10.54-1.3-13.98-5.17Z" fill="#888"/><path opacity=".34" d="M263.19 162.24c25.71 17.38-44.77 19.94-85.28 38.08 14.29-.21 76.72 31.38 90.88 29.06 9.7-1.59 44.22 11.78 49.9 3.74 3.99-5.7-7.52-62.15-55.5-70.88Z" fill="#A4A4A4"/><path opacity=".34" d="M292 175.64c1.14 4.67 1.1 9.55-.73 14.18-3.44 8.65-11.53 14-19.4 18.22a106.8 106.8 0 0 1-18.05 7.61 115.13 115.13 0 0 1-27.74 17.3c14.29-.21 28.55-1.27 42.7-3.58 9.72-1.6 44.24 11.77 49.9 3.73 3.03-4.29-2.83-37.7-26.68-57.46Z" fill="#888"/><path opacity=".34" d="M103.4 58.77c10.88 28.9-45 31.58-33.83 84.6 4.56 21.67 27.58 52.97 75.37-6.11.47-.57.97-1.11 1.49-1.63-8.35 2.06-16.87 1.73-24-3.7-5.28-4.01-8.01-10.6-9.12-17.14-1.66-9.6 3.91-48.36-11.82-59.72.76 1.16 1.4 2.39 1.9 3.7Z" fill="#A4A4A4"/><path opacity=".34" d="M121.63 138.54c-.68 1.3-.87 2.78.2 3.92 1.1 1.14 2.72 1.35 4.2 1.1 2.7-.43 5.41-1.98 7.26-3.97.82-.88 1.53-1.85 2.18-2.85a24.04 24.04 0 0 1-9.89-2.77 15.13 15.13 0 0 0-3.95 4.57ZM112.5 83.24a47.83 47.83 0 0 1-4 5.83c-6.85 8.59-15.74 15.2-23.48 22.9-4 3.98-7.78 9.74-5.69 15.6 1.77 4.97 6.93 7.78 11.79 8.94 5.62 1.33 11.3.63 16.82-.81 4.73-1.23 9.38-2.73 14.1-4.05-5.05-4.03-7.67-10.46-8.76-16.84-.87-5.12.31-18.48-.78-31.57Z" fill="#888"/></g><path d="M245.33 143.4c.36 0 .62-.35.52-.7-.23-.69-1.14-.88-1.85-.67-.7.2-1.28.67-1.99.88a2.32 2.32 0 0 0 1.6-2.33c-.11-1.18-1.18-2.13-2.34-2.37a5.8 5.8 0 0 0-3.48.52c-1.17.5-2.24 1.22-3.25 2-.58.47-1.24.99-1.34 1.77-.02.1-.02.24-.02.38.02.29.26.51.53.51h11.62Z" fill="#D8D8D8"/><path d="m-3.2 72.98 1.16 6.34.85 4.63.76 4.07 1.76 9.71c.25 1.46-.45 2.82-1.61 2.92-.76.1-1.51-.35-2.01-1.06-.26-.4-.46-.85-.56-1.36l-2.21-12.42-.55-3.02-1.66-9.3s.3-1.36.8-1.46c.1 0 .25.1.35.25.1.15.2.3.25.45.1.2.2.4.3.5.1.16.26.16.36-.04.4-.7-.45-2.62.15-2.02.5.66 1.86 1.81 1.86 1.81Z" fill="#2B2B37"/><path d="M103.94 98.64c-.4 7.14-9.66 15.24-14.94 20.12-15.5 14.33-26.3 8.45-33.3-4.78-1.86-8.05-6.54-20.52-5.89-28.97 1.41-1.81 6.7-3.02 10.27-2.42 5.33 1.81 11.72 7.45 16.75 11.97 4.37 6.24 12.97 4.18 19.71.3 6.5-2.36 7.75-.8 7.4 3.78Z" fill="#C8CBB8"/><path d="M104.64 100.6C93.78 119.2 79 125.65 79 125.65c-15.54-12.12-2.46-29.58-2.46-29.58.8-1.26 22.73-6.59 22.83-6.54.1.76 6.64 8.65 5.28 11.07Z" fill="#BBB99D"/><path opacity=".4" d="M88.14 119.51c-18.36 16.5-28.72 2.06-32.44-5.53 0 0-7.65-26.71-5.88-28.97 1.76-2.27 9.55-3.57 12.62-1.61 1.1.7 5.94 3.82 11.17 8.25 0 0-3.07 8.8-7.15 6.33 0 0-6.74 30.44 14.5 22.64 3.36-1.2 7.69-1.56 7.18-1.1Z" fill="#C2C2AC"/><path d="m55.55 103.72 3.27 14.89-3.67-3.27.4-11.62Z" fill="#BBB99D"/><path d="M106.66 99.3a110.97 110.97 0 0 1-11.22 13.82 76.73 76.73 0 0 1-10.11 8.86 31.88 31.88 0 0 1-4.98 3.06c-6.74-3.22-6.74-14.38-6.74-14.38l26.8-15.14c.2.2.51.4.76.65.66.5 1.46 1 2.22 1.46 1.66.96 3.27 1.66 3.27 1.66Z" fill="#9EA58E"/><path d="M85.33 121.98a33.83 33.83 0 0 1-4.98 3.06c-6.74-3.22-6.74-14.38-6.74-14.38l.9-.5 25.86-14.64c.2.2.5.4.75.65 0 0-24.2 15.8-15.8 25.8Z" fill="#949984"/><path d="M106.66 99.3a110.97 110.97 0 0 1-11.22 13.82c-6.39-4.98 7.95-15.49 7.95-15.49 1.66.96 3.27 1.66 3.27 1.66Z" fill="#B1B7A5"/><path d="m99.06 94.51-20.12 10.92-5.43 2.96c-.1-.2-.15-.45-.2-.7-.8-4.17 3.57-13.23 4.83-13.48l17.85-3.97c.1.25.2.55.35.8.66 1.3 1.71 2.47 2.27 3.12.3.15.45.35.45.35Z" fill="#9EA58E"/><path d="m78.94 105.38-4.58 2.46-.85.45c-1.56-3.72 3.27-13.93 4.62-14.23.46-.1 2.82-.6 5.64-1.26a2858 2858 0 0 0 12.22-2.71c.1.25.2.55.35.8-.65.25-19.06 5.94-17.4 14.49Z" fill="#949984"/><path opacity=".14" d="m99.06 94.51-20.12 10.92-5.43 2.96c-.1-.2-.15-.45-.2-.7l25.3-13.58c.3.2.45.4.45.4Z" fill="#474C2F"/><path d="M92.68 105.45c.18-.38-.03-.85-.45-1.05-.43-.2-.92-.06-1.1.31-.18.38.02.85.45 1.05.43.2.92.07 1.1-.31ZM88.95 97.29c.17-.38-.03-.85-.45-1.05-.43-.2-.92-.07-1.1.31-.18.38.02.85.45 1.05.43.2.92.06 1.1-.31ZM95.2 94.43c.17-.38-.03-.85-.45-1.05-.43-.2-.92-.06-1.1.31-.18.38.02.85.45 1.05.43.2.92.06 1.1-.31ZM100.06 99.25c.18-.38-.02-.85-.45-1.05-.42-.2-.91-.06-1.1.31-.17.38.03.85.46 1.05.42.2.91.07 1.1-.31ZM78.1 103.15c.17-.38-.03-.85-.45-1.05-.43-.2-.92-.06-1.1.32-.18.37.02.84.45 1.04.43.2.92.07 1.1-.31ZM82.47 111.79c.18-.38-.02-.85-.45-1.05-.42-.2-.91-.06-1.1.31-.17.38.03.85.45 1.05.43.2.92.06 1.1-.31ZM84.79 99.89c.17-.38-.03-.85-.45-1.05-.43-.2-.92-.06-1.1.31-.18.38.02.85.45 1.05.43.2.92.06 1.1-.31ZM89.74 106.35c.18-.38-.02-.84-.44-1.05-.43-.2-.92-.06-1.1.32-.18.37.02.84.45 1.05.42.2.92.06 1.1-.32Z" fill="#474C2F"/><path d="M91.87 105.58c-.16-.1-.3-.25-.3-.45-.6-5.24 2.3-11.02 2.4-11.27.16-.3.51-.35.76-.25.3.15.4.5.25.75-.05.05-2.86 5.73-2.3 10.61.04.3-.21.6-.51.6-.1.06-.2.06-.3 0Z" fill="#3E8E5B"/><path d="M88 97.33c-.3-.15-.4-.45-.26-.76.15-.3.45-.4.76-.25.05.05 5.53 2.57 10.66 1.96.3-.05.6.2.65.5.05.3-.2.61-.5.66-5.53.6-11.07-2.01-11.32-2.11ZM81.66 111.92c-.2-.1-.3-.3-.3-.5-.1-5.19 2.1-11.73 2.16-11.98.1-.3.4-.45.7-.35.3.1.45.4.35.7 0 .05-2.2 6.64-2.1 11.57 0 .3-.26.56-.56.6-.1 0-.2 0-.25-.04Z" fill="#3E8E5B"/><path d="M77.28 103.21a.65.65 0 0 1-.3-.75c.1-.3.45-.45.75-.3.05 0 5.89 2.41 11.22 3.17.3.05.5.35.5.65-.05.3-.35.5-.65.5-5.43-.8-11.22-3.17-11.52-3.27.05 0 .05 0 0 0Z" fill="#3E8E5B"/><path opacity=".14" d="m74.31 107.84-.85.45c-1.56-3.72 3.27-13.93 4.62-14.23.46-.1 2.82-.6 5.64-1.26-.25.2-9.61 5.69-9.4 15.04ZM81.4 124.4l-1.15.6c-6.74-3.22-6.74-14.4-6.74-14.4l.9-.5c.66 8.2 3.32 12.83 7 14.3Z" fill="#474C2F"/><path d="M108.82 98.64c-2.01.7-4.58 1.25-8.35-1.06 0 0-8.3-8.7-5.43-15.14 1-2.31 1.76-3.87 2.96-4.02 2.37-.26 4.13 5.53 4.23 9.3l11.87 1.61c.05.05.05 7.5-5.28 9.3Z" fill="#E8D4BA"/><path opacity=".4" d="M108.82 98.64c-1.86 1-4.58 1.25-8.35-1.06 0 0-8.4-8.75-5.43-15.14.7-1.56 1.55-3.47 2.26-3.77.05 0-1.81 16.9 11.52 19.97Z" fill="#CEB79B"/><path d="m98.46 78.27-.91.3 8.5 20.82 1.51-.25-9.1-20.87Z" fill="#CEB79B"/><path d="M109.77 101.6a2 2 0 0 1-2.61-1.1L89.15 56.89a2 2 0 0 1 1.1-2.62 2 2 0 0 1 2.62 1.1l18 43.62c.41 1.06-.1 2.21-1.1 2.62Z" fill="#B5926E"/><path d="M90 59.05s6.1-7.64 12.38-10.31c6.29-2.67 7.6-4.63 7.6-4.63l7.94 17.86s-2.21 1.91-6.79 3.02c-6.09 1.5-14.28 10.66-14.28 10.66L90 59.05Z" fill="#D9EEFF"/><path d="M112.34 93.15c-.56.5-1.06.7-1.06.7s-7.24-.4-9.56-7.03c-2.31-6.64-.1-8.15.7-8.8.46-.4 2.17-1.06 4.13-.81 1.41.2 2.97.96 4.23 2.67 2.97 4.07 4.17 8.14 3.37 10.6a5.68 5.68 0 0 1-1.81 2.67Z" fill="#E8D4BA"/><path opacity=".4" d="M112.34 93.15c-.56.5-1.06.7-1.06.7s-7.24-.4-9.56-7.03c-2.31-6.64-.1-8.15.7-8.8.46-.4 2.17-1.06 4.13-.81 0 0-2.36 2.36-2.81 3.87-.4 1.66 0 11.67 8.6 12.07Z" fill="#CEB79B"/><path d="M7.81 100.45c-1.05 4.12-10 8.45-17.55 11.37a157.64 157.64 0 0 1-10.66 3.67s-1.36-6.04 1.76-18.61c.85-3.52 3.07-5.99 5.83-7.7.1-.1.25-.15.35-.2 1.51-.9 3.17-1.6 4.83-2.11.05 0 .05-.05.1-.05 1.66-.5 3.32-.86 4.88-1.1 4.18-.66 7.5-.51 7.5-.51s4.83 8 2.96 15.24Z" fill="#6F6389"/><path d="M15.46 100.5c-1.96.75-29.02 12.78-30.58 13.33a88.85 88.85 0 0 1-5.28 1.7s-1.36-6.03 1.76-18.6c.85-3.52 3.07-5.99 5.83-7.7.1-.1.25-.15.35-.2 2.37-1.06 4.18-1.91 4.83-2.11.05 0 .05-.05.1-.05 1.66-.5 3.32-.86 4.88-1.1 0 0-3.42 4.97 3.22 4.12 4.18-.6 21.58.7 14.89 10.6Z" fill="#62597C"/><path d="M17.78 104.72c-3.12 1.11-38.18 10.82-38.18 10.82s-.15-.56-.2-1.71c-.05-.96-.1-2.27-.05-4.03.05-1.35.2-3.01.45-4.88.3-2.26.8-4.92 1.56-8 .4-1.65 1.16-3.11 2.06-4.37 2.21-2.87 5.58-4.63 9.05-5.73-.2.2-4.07 5.03 6.64 5.73 8.4.55 26.26 5.53 18.67 12.17Z" fill="#5B5577"/><path d="M2.23 62.37s-1 26.61-4.17 39.79 30.73.35 27.91-17.15C23.16 67.45 5 27 2.23 62.37Z" fill="#CE8000"/><path opacity=".3" d="M5.05 64.38s4.52 19.22-.5 28.77c-5.04 9.56 18.9-2.26 18.9-2.26L11.45 61.26l-6.4 3.12Z" fill="#A05A07"/><path opacity=".3" d="M9.07 70.62s3.12 13.33-.35 19.92c-3.47 6.64 13.08-1.56 13.08-1.56l-7.6-17.3-5.13-1.06Z" fill="#A05A07"/><path d="M51.98 70.32c0 14.69-9.1 26.6-20.37 26.6-11.27 0-20.38-11.91-20.38-26.6 0-14.69 3.27-26.86 21.94-24.55 16.7 2.11 18.8 9.86 18.8 24.55Z" fill="#E8D4BA"/><path opacity=".4" d="M18.88 60.56s-1.16 13.78 9.4 15.5l-13.02-2.82-1.81-14.49 5.43 1.81Z" fill="#CEB79B"/><path d="M24.31 96.32c.1 1.56-.75 3.98-2.21 7-3.67 7.39-11.32 18.1-18.71 26.6-6.54 7.5-12.93 13.28-16.15 13.54-8.35.55-10.86-2.72-11.77-4.99-1.4-3.52-5.43-12.77 11.02-32.09 7.64-9 14.74-13.68 20.07-16.14 6.08-2.82 9.96-2.67 9.96-2.67s.6 0 1.5.2a7.76 7.76 0 0 1 4.78 3.27 11.56 11.56 0 0 1 1.51 5.28Z" fill="#CCD1C0"/><path opacity=".4" d="M24.31 96.32c.1 1.56-.75 3.98-2.21 7-3.67 7.39-11.32 18.1-18.71 26.6-6.54 7.5-12.93 13.28-16.15 13.54-.6.04-1.15.04-1.66.04-.75 0-1.46-.04-2.06-.1a13.5 13.5 0 0 1-3.22-.65 7.66 7.66 0 0 1-4.78-4.28c-.65-1.66-1.96-4.67-1.25-9.45.35-2.72 1.35-5.99 3.42-9.96.7-1.3 1.45-2.67 2.41-4.13a75.98 75.98 0 0 1 6.44-8.6 96.45 96.45 0 0 1 5.18-5.58c.7-.65 1.36-1.3 2.01-1.91.76-.7 1.51-1.3 2.26-1.91a55.83 55.83 0 0 1 5.69-4.08l.4-.25c1.61-1 3.12-1.76 4.53-2.41 6.08-2.82 9.96-2.67 9.96-2.67s.6 0 1.5.2A7.76 7.76 0 0 1 22.86 91c.7 1.31 1.31 3.02 1.46 5.33Z" fill="#C2C2AC"/><path opacity=".4" d="m-4.81 133.5-9.96 4.67.3 5.34c-.75 0-1.46-.05-2.06-.1a13.5 13.5 0 0 1-3.22-.66 7.66 7.66 0 0 1-4.78-4.28c-.65-1.66-1.96-4.67-1.26-9.45.36-2.72 1.36-5.99 3.42-9.96.4-.05 22.09-3.77 20.38-9.8a46.87 46.87 0 0 0-4.33-10.32c.75-.7 1.5-1.3 2.26-1.91a55.83 55.83 0 0 1 5.69-4.08l10.26 20.88-16.7 19.67Z" fill="#C2C2AC"/><path d="M11.89 112.32c-5.23-8-16-15.34-16-15.34a49.44 49.44 0 0 1 6.09-4.33l9.9 19.67ZM1.13 106.18s-1.16 4.18 1.7 7.35c2.92 3.16 6.2-2.87 6.2-2.87l-7.9-4.48Z" fill="#BBB99D"/><path d="M32.94 66.96c.16-1.15-1.34-2.32-3.35-2.6-2.01-.27-3.77.44-3.93 1.6-.16 1.15 1.34 2.31 3.35 2.6 2 .27 3.77-.44 3.93-1.6ZM47.3 67.9c1.61-.4 2.7-1.6 2.44-2.69-.27-1.07-1.8-1.62-3.42-1.22-1.62.4-2.71 1.6-2.44 2.68s1.8 1.63 3.41 1.23Z" fill="#3E875B"/><path d="M40.56 114.28 22.1 103.26l-11.67-6.94-1.4-.85S6.7 92.95 6.5 90.19c6.08-2.82 9.96-2.67 9.96-2.67l1.05.6 5.24 2.92L38.8 100l1.76 14.28Z" fill="#CCD1C0"/><path d="M40.56 114.28 22.1 103.26l-11.67-6.94-1.4-.85S6.7 92.95 6.5 90.19c6.08-2.82 9.96-2.67 9.96-2.67l1.05.6 5.24 2.92L38.8 100l1.76 14.28ZM52.43 89.99s4.08-2.72 12.22 19.92c0 0 .91-14.04-4.57-22.24-3.12-4.68-8.6-2.66-8.6-2.66l.95 4.98ZM64.76 134.5c-.1.5-.26 1-.36 1.51-.45-.05-4.02-2.51-8.2-5.43-6.63-4.68-14.83-10.67-14.83-10.67l-11.82-7.34-7.9-4.93-.3-3.57 9.6 6.54L57.91 129l6.5 4.44c-.06 0 .2.5.35 1.05Z" fill="#BBB99D"/><path d="M51.23 81.38S77.33 96.32 62.39 143c0 0-51 28.22-57.54-2.26-6.54-30.48 4.88-66.6 46.38-59.36Z" fill="#CCD1C0"/><path opacity=".4" d="M51.23 81.38S77.33 96.32 62.39 143c0 0-51 28.22-57.54-2.26-6.54-30.48 4.88-66.6 46.38-59.36Z" fill="#C2C2AC"/><path opacity=".4" d="M51.22 81.38C14.61 75 1.42 102.41 3.34 129.88c.25 3.62.75 7.29 1.56 10.86l.15.7c7.14 29.33 57.34 1.56 57.34 1.56.76-2.41 1.41-4.73 2.01-6.94.15-.5.25-1 .36-1.5C74.1 94.5 51.22 81.37 51.22 81.37Zm11.52 40.04a19.27 19.27 0 0 1-4.88 7.65c-.55.55-1.15 1.06-1.76 1.56-4.37 3.52-10.06 5.38-15.04 3.77-8.45-2.72-15.84-10.16-13.12-18.56a14.5 14.5 0 0 1 1.56-3.22c.4-.65.9-1.3 1.4-1.96 5.64-7.1 16.95-13.78 23.75-11.57 8.5 2.67 10.81 13.88 8.1 22.33Z" fill="#C2C2AC"/><path d="M39.3 105.83c-6.99 10.31-.4 18.81 7.7 22.64 8.1 3.82 19.72-10.92 13.83-20.83-3.37-5.63-17.8-7.34-21.53-1.8Z" fill="#CCD1C0"/><path d="M27.53 138.93S13.45 142 5.05 141.44l-.15-.7c-.75-3.57-1.3-7.2-1.56-10.87 5.03-6.03 12.63-12.02 12.63-12.02s-5.64 21.08 11.56 21.08ZM40.56 114.28 22.1 103.26l-11.67-6.94-1.4-.85S6.7 92.95 6.5 90.19c6.09-2.82 9.96-2.67 9.96-2.67l1.05.6 5.24 2.92L38.8 100l1.76 14.28Z" fill="#BBB99D"/><path d="M46.9 113.43c1.76-1.97.3-4.98.3-4.98 1.61-1.87 0-4.38 0-4.38.9-1.66 1.51-4.43 0-5.94l-7.14.86 1.7 14.13 4.54 2.27.6-1.96ZM43.98 114.83s1.06 1.11.25 2.52c0 0 1.71 1.81.3 5.38-.65 1.66-2.26 3.47-2.26 3.47l-.5-8.25 2.21-3.12Z" fill="#8D9280"/><path d="M64.5 135.2s-4.27-3.11-11.26-8h-.05c-3.12-2.16-6.74-4.62-10.77-7.34-.5-.35-1-.65-1.5-1-1.57-1-3.13-2.06-4.79-3.12-.85-.55-1.76-1.16-2.66-1.76a342.06 342.06 0 0 0-6.94-4.43A489.22 489.22 0 0 0 9.27 99.1c-2.36-1.4-4.77-2.77-7.19-4.12 0 0 2.21-3.48 4.58-5.19.15-.1.25-.2.4-.25 0 0 11.32 6.9 26.71 17.2 2.11 1.46 4.33 2.92 6.64 4.48.1.1.25.15.35.25a736 736 0 0 1 22.08 15.8c.15.1.25.2.4.3 7.45 5.58 1.26 7.65 1.26 7.65Z" fill="#D58500"/><path d="M40.96 118.86c-.5-.35-1.05-.7-1.56-1.06l-3.17-2.11c-.85-.55-1.76-1.16-2.66-1.76-.05-.2-2.47-6.8-6.94-8.25-4.53-1.51 0 3.82 0 3.82A487.82 487.82 0 0 0 9.37 99.04l-1.55-2.11-1.06-7.2c.15-.1.25-.2.4-.25 0 0 10.87 6.6 25.8 16.6l.91.6c2.11 1.41 4.28 2.92 6.54 4.43.05 0 .05.05.1.05l.45 7.7Z" fill="#C77500"/><path d="M40.66 118.66c.4.5 4.23 2.91 4.23 2.91.7-.95.4-2.51.4-2.51 1.36-1.2 1.05-3.67 1.05-3.67s-5.78-4.23-5.93-4.18l.25 7.45Z" fill="#A05A07"/><path d="M64.5 135.2s-4.27-3.11-11.26-8c.75.46 10.91 6.6 10.5 3.13a10.15 10.15 0 0 0-.85-3.02c.15.1.25.2.4.3 7.4 5.53 1.21 7.6 1.21 7.6Z" fill="#C77500"/><path opacity=".4" d="M20.6 115.49c-.2.25-.41.5-.66.75.3-.35.5-.6.65-.75Z" fill="#CEB79B"/><path d="m13.55 101.45-.15 1.11-.15.9c-.66 3.68-2.27 10.82-4.28 6.04a27 27 0 0 0-1.66-3.12c-3.42-5.58-9.2-11.36-9.2-11.36-.7-1.81 2.26-5.03 5.48-5.84.8-.2 1.66-.25 2.46-.1 3.83.8 7.5 12.37 7.5 12.37Z" fill="#6F6389"/><path d="m14.76 102.66-1.51.76-5.94 2.91c-3.42-5.58-9.2-11.36-9.2-11.36-.7-1.82 2.26-5.03 5.48-5.84-.25.15-5.83 3.67-.05 8.55 4.07 3.47 7.9 4.53 9.86 4.83.85.15 1.36.15 1.36.15Z" fill="#62597C"/><path d="M12.54 114.43c3.27 3.27 4.83 6.94 3.57 8.25-1.25 1.3-4.98-.3-8.25-3.57-3.26-3.27-3.87-6.09-2.56-7.4 1.3-1.3 4.02-.55 7.24 2.72Z" fill="#676D54"/><path d="M22.7 106.38v4.18c0 1.56-.8 3.27-2.16 4.93-.2.25-.4.5-.65.75-.25.3-.56.6-.86.9a30.54 30.54 0 0 1-8.75 6.1c-1.76.8-3.37 1.2-4.58 1.15-3.12-.2-1.9-5.08-1.15-9.46l.15-.95c.05-.25.05-.5.1-.76l.15-1.66A9.35 9.35 0 0 1 7 105.58c2.97-3.82 8.55-5.79 12.17-4.63 2.17.7 3.62 2.41 3.52 5.43Z" fill="#E8D4BA"/><path d="M9.83 112.77c-.86 2.01-.5 4.28-2.82 3.32a4.6 4.6 0 0 1-1.26-.95c-.35-.36-.7-.7-1-1.16-2.07-2.62-4.13-6.74-3.52-8.15.35-.8 1.05-1.1 1.9-1.16.61-.05 1.26.1 1.97.25.65.16 1.36.4 1.96.66.2.05.35.15.5.2.4.15.76.45 1.11.8 1.46 1.61 1.86 4.58 1.16 6.2Z" fill="#E8D4BA"/><path opacity=".4" d="m4.6 114.93.15-.95c-2.07-2.62-4.13-6.74-3.52-8.15.35-.8 1.05-1.1 1.9-1.16 0 .2-.1 4.28 1.72 8.55a16.4 16.4 0 0 0 2.61 4.43c2.12 2.41.05.35-2.86-2.72ZM19.23 100.95c-5.33-.3-8.2 2.36-10.56 5.63l-.3.46c-1.16 1.66-1.91 1.25-2.47.4-.55-.96-.8-2.52-.8-2.52.65.16 1.36.4 1.96.66 2.97-3.82 8.55-5.79 12.17-4.63ZM19.13 117.15a30.52 30.52 0 0 1-8.75 6.08l-1.76.05.55-4.22s6.54 1.05 9.96-1.91Z" fill="#CEB79B"/><path d="M66.87 120.52S62.94 93.5 52.23 85.5c-.25-.2-.5-.35-.75-.5-11.22-7.3 3.17-3.47 3.17-3.47s10.86-.4 12.52 21.98c.4 4.57 1.36 13.53-.3 17Z" fill="#6F6389"/><path d="M66.87 120.52S62.94 93.5 52.23 85.5l2.16-.15s11.27 19.36 12.78 18.1c.4 4.64 1.36 11.78-.3 17.06Z" fill="#62597C"/><path d="M36.59 167.35v.75c.15 7.65 2.66 15.8 5.63 22.69 2.82 7.24 6.79 11.11 14.23 11.42a16.8 16.8 0 0 0 8.15-1.46c1.66-.8 3.07-1.91 4.28-3.32 5.43-7.05 2.61-16.8 2.71-25.2 1.06-13.28-3.32-29.23-20.01-25.3-3.98.95-9.46 2.26-11.77 6.28-2.47 3.67-3.32 9.26-3.22 14.14Z" fill="#3E8E5B"/><path opacity=".3" d="M36.79 171.27c.7 7.7 3.11 14.79 6.48 21.83 1.66 3.32 3.37 6.64 6.04 8.8.5-2.76.5-5.78.6-8.7-1.96-17.4 11.77-17.9 21.88-16.4-.05-1.5-.2-3.06-.2-4.52-11.26-.36-23.59-.7-34.8-1.01Z" fill="#3B754B"/><path opacity=".3" d="M42.12 190.79c.3.8.7 1.56 1.1 2.31 0 .05.06.05.06.1.05.05.1.15.15.2 2.26 3.57 4.32 6.7 8.35 7.55 4.52 1.15 9.7.9 13.83-1.51 4.27-2.37 6.44-7.2 6.54-12.07-4.63 2.46-21.23 5.23-30.03 3.42ZM72.1 182.39c-15.2-4.43-17 4.98-31.8 3.62 0 0-1.35-3.82-2.15-7.1l33.85.91c0 .86.05 1.71.1 2.57Z" fill="#3B754B"/><path d="M45.14 206.43c1.1 4.28 2.56 8.6 3.37 12.53-.56 3.82-1.21 7.74.25 11.46 8.35 1.71 21.63 2.57 30.68 2.47 3.97-.15 10.31.55 10.01-4.98-1.3-7.95-11.37-8.75-17.6-11.02.9-6.54 1.45-13.23 1.7-19.87.06-2.2.1-4.22 0-6.33-2.06 2-26.05 3.16-30.07 3.27-.1 1.05.85 9.5 1.66 12.47Z" fill="#9EA58E"/><path opacity=".4" d="M43.42 194.81c0 3.92.5 7.95 1.66 11.67.81 2.62 10.62 4.53 10.22 7.14-.1.6-6.44 4.48-2.42 5.28 2.06.4-.5 1.86-4.83 2.97-.5 2.87-.3 5.79.66 8.55 12.42 2.87 22.88 1.61 35.96 2.17 2.82.55 5.08-2.02 4.73-4.73-.15-2.07-1.3-4.38-3.12-5.38h-.05c-7.04 4.47-37.67.3-14.03-8.2.1-.9.2-1.97.3-3.07-14.24 2.87-6.44-.56-10.97-2.72-2.31-1.16 7.5-4.63 11.72-6.13l.3-5.39c.1-2.31.1-4.22 0-6.33-2.06 2-8.85 1.9-12.82 2.41-4.88.4-13.23.75-17.25.8-.06.36-.06.66-.06.96Z" fill="#949984"/><path d="M43.27 203.51c.36 1.21.5 2.77 1.66 3.42.56-1.6-.4-3.62.6-4.98.81 1.31 1.37 5.89 3.53 3.47 1.06-.5 1.46-6.53 2.56-4.62.8.95 2.22 8 3.98 5.53.95-1.66 1-3.72 1.4-5.58.06-.25.16-.6.4-.7 1.82-.06 1.97 2.6 2.67 3.86 2.77 4.68 4.48-1.5 4.73-4.02 2.32 4.18 1.76.4 3.32-1.2 1.81-.16 1.91 2.96 1.66 4.27 2.17-1.16 1.26-3.97 1.81-5.89 1.56-1.2.9 2.42.76 3.12.9-2.61 3.92-10.66-.15-11.57-1.71 1.46-3.62 2.67-5.94 3.07-7.54 1.71-15.39 1.66-23.09 1.36-.7 3.42-.7 7 .1 10.46Z" fill="#CCD1C0"/><path opacity=".5" d="M43.27 193s8 .5 15.95-.25c-5.28 3.37-16.1 2.01-16.3 2.01.1-.55.2-1.16.35-1.76ZM65.46 191.84c1.6-.15 3.21-.15 4.42.1 1.06.36 2.92.2 3.12-.75.2-.65.75-.1 1.2-.86.06-.9-1.55-1.8-1.95-1.86-.05.05-.1.1-.2.15a10.18 10.18 0 0 1-4.43 2.62c-.66.25-1.36.45-2.16.6ZM43.27 203.51c.36 1.16.56 2.72 1.66 3.42.56-1.6-.35-3.52.56-4.98 1.1 1.16.7 3.88 2.56 4.13 2.27-.05 2.37-7.25 3.52-5.38.86.95 2.27 8.04 3.98 5.58.95-1.66 1.05-3.67 1.4-5.53.06-.3.16-.66.46-.76 2.11.1 1.76 3.52 3.22 4.73 2.71 3.12 3.82-2.97 4.07-4.83 2.87 5.08 1.66-1.8 4.03-1.2 1.25.9 1.1 2.81 1.05 4.27 2.11-1.2 1.2-3.97 1.76-5.89 1.56-1.2.86 2.47.76 3.17a20.99 20.99 0 0 0 1.6-5.58c0-.3.56-2.82-.1-2.06-.65.85-1.25 1.6-2.3 1.9-.81.51-.61 2.12-1.72 2.22-.85 0-1.1-1.4-1.96-1.56-.9-.2-1.71 1.31-2.62.8-1-.5-1.35 3.38-2.26 3.88-.4-1.56-1.86-4.43-3.77-3.67-.8.7-1.1 1.86-1.66 2.72-1.3-1.81-2.42 2.51-3.02 3.32-1.36-1.26-1.36-3.63-2.77-4.73-1.7.35-3.27 4.22-3.87 5.78-.1.45-.6.76-.8.2-1.06-1.86-.66-4.58-2.12-6.18-.65-.36-1.66-.1-2.2.35-.26 1.96.2 3.97.54 5.88Z" fill="#C2C2AC"/><path d="M-2.85 190.63c.05 6 .66 11.02 7.75 11.63 2.76.55 5.53 1.35 8.35 1.7 8.1 1.51 13.23-4.07 15.6-11.31 2.8-7 5.17-14.14 6.93-21.43.6-2.47 1.1-4.98.96-7.54-1.16-10.87-15.75-14.84-24.85-12.28-14.03 6.24-12.93 26.16-14.74 39.23Z" fill="#3E8E5B"/><path opacity=".3" d="M-2.85 190.63c0 1.06 0 2.12.1 3.17.9 8.3 3.78 7.55 10.62 9.06 9.5 2.46 15.94 1.9 20.02-8.15.8-1.71 1.6-3.67 2.36-5.69-6.9 4.73-22.69 8.96-33.1 1.61ZM34.63 175.8c-.6 2.1-1.26 4.22-1.92 6.33-8.6-1.4-26.2 2.82-35.05 4.38.35-3.67.65-7.64 1.15-11.62l35.82.9Z" fill="#3B754B"/><path opacity=".3" d="M35.78 171.27a161.29 161.29 0 0 1-6.94 21.43c-2.41 7.2-7.54 12.82-15.6 11.31-.8-.1-1.55-.25-2.36-.4.56-.15 15.95-4.88 14.54-27.56-1.36-22.18-7.6-25.15-8.1-25.35 8.55-.15 18.46 4.12 19.42 13.03.15 2.51-.35 5.08-.96 7.54Z" fill="#3B754B"/><path d="M-12.86 231.33c.96 10.51 32.2 3.42 36.57-2.27 1.91-2.66.4-6.13-.1-9.1 1.1-8.2 3.62-16.35 4.78-24.55-9.8 4.23-21.58 3.78-30.68-1.96-1.51 7.85.15 16.15.7 24.05-4.68 3.67-10.61 7.64-11.27 13.83Z" fill="#9AA08A"/><path d="M-5.41 198.38v.05c.5 1.61 1.2 3.22 2.36 4.48H-3v.05c.76-1.71 1.3-2.52 1.76-.15.1.35.15.8.35 1.16.05.15.15.3.3.4.6.6 1.46.3 2.07-.25.3-.3.85-.15.95.25.4 1.76.9 4.07 2.67 3.52.6-.1 1.36-1.4 2.16-1.81.7-.2 1 .85 1.26 1.36.3.5.2 1.2.55 1.7l.2.2c3.02-1.65 4.23-8.9 6.5-2.26.04.16.2.3.35.36.7.15 1.35-.1 1.76-.7.3-.41.5-.96.7-1.47v-.05c.35-1.3 1.56-3.92 2.67-1.66.25.56.35 1.16.25 1.76-.05 1.66 1.76.66 2.26-.15.05-.05.1-.15.15-.2.45-.55.1-1.96 1.16-1.76 1 .45 1.56 1.61 2.01 2.57.15.35.3.7.45 1.1.15.46.76.5 1 .1.36-.6.71-1.25.71-1.9.1-1.67.4-2.57.26-4.59-.1-1.5.8-4.42-.46-5.58-.4-.25-.85-.15-1.3 0h-.06c-9.85 1.91-21.62 2.92-30.43-2.87-.25-.2-.6-.15-.75.1-1.36 1.46-2.62 4.08-1.91 6.24Z" fill="#CCD1C0"/><path opacity=".5" d="M-3.85 192.4s1.4 2.71 4.02 2.86c2.51.1 6.54.36 7.65.46-4.33-.56-8.35-1.71-11.12-3.98l-.55.66Z" fill="#C2C2AC"/><path d="M-5.01 175.55s-1.96 3.97-1.16 5.18c.55.8 4.88 7.09 15.34 3.97 10.47-3.12 11.47-6.29 24-3.12 12.52 3.12 18.8 3.12 22.98 0s13.53-.2 15.65-.2c2.1 0 7.44.9 2.76-6.69-4.73-7.65-72.28-7.24-79.57.86Z" fill="#47A674"/><path d="M77.28 179.47c-.8.8-12.83-1.61-19.41-1.66-1.77 0-3.17.15-3.83.6-2.86 1.91-9.15 2.92-17.35 1.56-.8-.15-1.66-.3-2.47-.5-.45-.1-.85-.2-1.25-.25-.96-.2-1.86-.3-2.72-.4a44.06 44.06 0 0 0-11.27.35c-2.06.25-4.12.6-6.38.95l-3.42.45c-9.41 1.06-15.55-2.1-15.55-3.97 0-1.86 3.02-9.6 3.02-9.6s0-6.3 6.29-10.47c1.6-1.05 6.79-1.3 13.68-1 10.11.5 23.9 2.2 35.46 4.37 11.37 2.16 20.57 4.73 22.13 7.04 2.27 3.37 3.27 6.44 3.57 8.7.26 1.97 0 3.33-.5 3.83Z" fill="#3E8E5B"/><path opacity=".65" d="M77.78 175.65c-.05-.05-.1-.05-.1-.1-7.4-6.4-19.76 2.26-19.76 2.26-1.77 0-3.17.15-3.83.6-5.23-12.32-17.35 1.51-17.35 1.51-.8-.15-1.66-.3-2.47-.5-.45-.1-.85-.2-1.25-.25-7.25-11.32-20.37.85-20.37.85-.86.1-1.77.25-2.67.35 0 0-2.77-9.8-6.94-10.4-4.18-.61-8.15 8.09-8.15 8.09-.76-.55-1.16-1.1-1.16-1.6 0-1.92 3.02-9.62 3.02-9.62s0-6.28 6.29-10.46c1.6-1.06 6.79-1.3 13.68-1l35.46 4.37c11.37 2.16 20.57 4.73 22.13 7.04a24.55 24.55 0 0 1 3.47 8.86Z" fill="#3B754B"/><path d="M30.2 178.76a44.06 44.06 0 0 0-11.27.36c.6-.56 4.48-3.72 7.95-2.37 1.91.8 2.87 1.51 3.32 2.01ZM53.14 178.92c-2.57 1.25-6.94 1.96-12.48 1.5.1-.2 3.22-5.33 8.1-4.87 3.37.35 4.02 2 4.38 3.37ZM77.88 177.16c0 1.15-.25 1.96-.6 2.26-.65.65-8.5-.76-14.99-1.36 0 0 5.84-6.84 15.6-.9ZM8.47 180.57c-5.38.5-9.66-.4-12.22-1.6 0 0 2.81-7.15 6.39-6.4 3.57.76 5.83 8 5.83 8Z" fill="#3E8E5B"/><path d="M77.33 173.78c-2.11 0-9.96-5.43-21.18-2.66-9.96 2.46-27.76 2.87-38.02 2.62-2.07-.06-3.83-.16-5.19-.2-.3 0-.6-.06-.9-.06-.25 0-.45-.05-.65-.05a1.5 1.5 0 0 1-1.26-1.25C9.47 168 5.4 162.06 3.69 159.7c-.35-.45-1.06-.35-1.26.15l-4.52 11.07a.95.95 0 0 1-1.01.6l-2.36-.3v-1.31c0-.15.05-.35.05-.5 0-.2.05-.4.05-.6 0-.2.05-.4.1-.6.1-.86.25-1.72.45-2.57.05-.15.05-.3.1-.46.05-.15.05-.25.1-.4.05-.15.1-.3.1-.45.05-.2.1-.45.2-.66l.45-1.5.3-.96c.16-.45.3-.96.5-1.4.06-.16.11-.31.21-.46l.35-.96c.15-.45.35-.85.5-1.3.3-.7.6-1.41.91-2.07l.25-.55a96.44 96.44 0 0 1 2.97-6.04c.25-.5.5-.95.75-1.4.16-.26.3-.5.4-.76l1.16-2.01c.1-.2.26-.4.36-.6a88 88 0 0 1 2.51-4.08h.25c.05 0 .15-.05.2-.05.2-.05.46-.1.8-.15.16-.05.36-.05.51-.1.3-.05.7-.15 1.1-.2.16-.05.36-.05.56-.1l.8-.15.96-.15c.5-.1 1-.16 1.56-.26.15 0 .25-.05.4-.05l.4-.05c.16 0 .3-.05.46-.05.45-.05.9-.15 1.36-.2l10.81 1.16c5.69.2 11.57.25 17 .2 4.13-.05 9.4-.35 13.38-.65h.05c.15.05.3.15.46.2.15.05.25.15.4.2.05 0 .1.05.1.05.1.05.2.15.3.2l.35.2c.15.1.25.2.4.3.1.1.26.2.36.3.25.26.55.46.75.7.66.71 1.26 1.42 1.91 2.17.1.1.2.25.3.35.16.16.26.36.4.5.06.06.06.1.1.16l.61.8c.2.25.4.5.55.8.16.26.36.46.5.71 1.01 1.46 1.97 2.97 2.87 4.48 6.34 10.51 10.62 22.88 9.06 22.88Z" fill="#CCD1C0"/><path opacity=".4" d="M77.48 173.74c-.05.04-.05.04-.1.04h-.05c-1.36 0-5.28-2.36-11.02-3.16-2.26-.3-4.83-.4-7.64 0-.8.1-1.66.3-2.52.5-7.74 1.81-18.36 2.51-28.22 2.62a276.1 276.1 0 0 1-14.99-.26c-1.1-.1-2.61 0-2.81-1.35-.15-2.37-6.29-14.84-7.7-12.33l-4.52 11.07c-.36 1.1-2.62.25-3.37.25.55-11.42 7.04-22.28 12.77-31.69 3.07-.65 6.24-1.16 9.36-1.66l10.81 1.16c10.16.35 20.37.35 30.33-.46 2.52 1.16 4.18 3.32 5.84 5.44a69.28 69.28 0 0 1 4.52 6.79c2.37 3.97 4.43 8.2 6.04 11.97 2.62 5.83 3.92 10.46 3.27 11.07Z" fill="#C2C2AC"/><path opacity=".4" d="M62.74 144.06s-1.7 7.04-15.8 7.04c-14.08 0-24.64 3.67-28.86 22.43 0 .05 0 .1-.05.1-3.02-.05-5.39-.2-6.74-.35a1.5 1.5 0 0 1-1.26-1.25c-.66-4.18-4.73-10.12-6.44-12.48-.35-.45-1.06-.35-1.26.15l-4.52 11.07a.95.95 0 0 1-1.01.6l-2.37-.3c0-10.51 9.06-25.75 11.93-30.33 13.02.65 56.38 3.32 56.38 3.32Z" fill="#C2C2AC"/><path d="m63.35 143.4-1.82.8s-8.9 5.34-19.06 3.73c-10.16-1.6-16.75-4.53-23.54-1.16-6.79 3.42-11.42 23.34-7.54 26.51a1.5 1.5 0 0 1-1.26-1.25c-.4-2.52-2.01-5.69-3.62-8.3a44.73 44.73 0 0 0-2.82-4.18c-.35-.45-1.06-.35-1.26.15L-.94 168l-1.15 2.82a.95.95 0 0 1-1.01.6l-2.36-.3c0-5.38 2.36-11.92 5.03-17.7 2.1-4.58 4.47-8.66 6.03-11.17 1.3-.05 2.97-.1 4.88-.15 13.88-.25 42 .05 51.91.2.3.3.65.7.96 1.1Z" fill="#C2C2AC"/><path d="m-.99 168.05-1.15 2.82a.95.95 0 0 1-1.01.6l-2.36-.3c0-5.38 2.36-11.92 5.03-17.7a107.2 107.2 0 0 1 6.03-11.17l4.88-.15c2.52 1 4.13 2.21 4.13 2.21S-3.6 155.02-1 168.06ZM38.4 144.76s14.18 5.03 18.56-1.36c3.32-4.83-18.56 1.36-18.56 1.36Z" fill="#BBB99D"/><path d="M77.48 173.74c-.05.04-.05.04-.1.04h-.05c-1.36 0-5.28-2.36-11.02-3.16-.05-.05-.15-.1-.2-.15-9.4-7.4 2.11-19.77 2.11-19.77 2.37 3.97 4.43 8.2 6.04 11.97 2.57 5.83 3.87 10.46 3.22 11.07ZM58.67 170.62c-.8.1-1.66.3-2.52.5-7.74 1.81-18.36 2.51-28.21 2.62.05-.81.75-15.9 12.22-16.1 11.72-.15 18.4 12.78 18.5 12.98Z" fill="#CCD1C0"/><path d="M64.66 140.24c0 3.16-.91 3.62-.91 3.62h-.05c-5.63 1.3-41.3 1.66-52.61.4-2.87-.3-5.03-.6-6.24-.75h-.1c-.56-.16-.96-.66-.9-1.21l.3-5.84v-.4c.7.25 1.45.45 2.26.65 2.36.56 5.23 1.01 8.35 1.36 3.87.4 8.15.7 12.62.86h.05c5.69.2 11.57.25 17 .2 4.13-.05 9.41-.35 13.38-.66 3.42-.25 5.89-.45 5.89-.45s.95 1.26.95 2.22Z" fill="#D58500"/><path d="M63.75 143.86c-5.68 1.3-41.35 1.66-52.61.4-2.87-.3-5.03-.6-6.24-.75h-.1c-.55-.16-.96-.66-.9-1.21l.3-5.84 2.3.25 10.17 1.11 10.81 1.16h-.05c-.65 0-11.67.45-8.4 3.57 3.42 3.07 43.31 1.4 44.72 1.3Z" fill="#C77500"/><path d="M16.62 121.67s-.6 4.33-4.23 9.51a32.58 32.58 0 0 1-5.28 5.89 28.26 28.26 0 0 1-3.97 2.81c-8.45 4.83-19.72 5.64-20.48 4.48-3.67-5.53.1-16.7 6.34-24a19.58 19.58 0 0 1 12.12-6.53c1.97-.3 3.27-.25 3.27-.25s.7 1.56 2.32 3.32a14.39 14.39 0 0 0 9.9 4.77Z" fill="#979E87"/><path d="M3.14 139.88a38.31 38.31 0 0 1-10.97 4.08c-4.98 1.1-9.05 1.05-9.5.4-2.87-4.33-1.21-12.12 2.66-18.81a41.6 41.6 0 0 1 3.62-5.18 18.45 18.45 0 0 1 3.47-3.17 21.24 21.24 0 0 1 8.65-3.42c.05 0-14.13 14.84 2.07 26.1Z" fill="#949984"/><path d="M16.62 121.67s-.6 4.33-4.23 9.51c-10.1 2.77-6.84-10.46-5.88-13.68.15-.45.2-.7.2-.7a14.04 14.04 0 0 0 9.9 4.88Z" fill="#B1B7A5"/><path d="M.12 115.19c.65-.76 1.96-.86 2.41-.46.2.2.05.46-.2.66-.65.45-1.86.6-2.21.25-.1-.1-.1-.3 0-.45Z" fill="#676D54"/><path d="m45.44 72.63-14.69.6c-1.4.06-2.56.91-2.51 1.92l.1 2.76c.05 1.01 1.2 1.76 2.66 1.66l14.7-.6c1.4-.05 2.56-.9 2.5-1.91l-.1-2.77c-.04-.95-1.2-1.7-2.66-1.66Z" fill="#CE8000"/><path d="M54.7 81.54c-.06 7.24-2.72 13.68-7.55 17.5l-.45.35c-.36.25-.7.45-1.06.7a17.64 17.64 0 0 1-8.6 2.57c-1.06.05-2.11 0-3.17-.1-6.94-.7-14.28-4.53-17.65-10.06-1.31-2.11-4.48-10-4.53-11.12l-1.1-19.41-.26-4.13 3.62-6.79 2.27 15.85c1.7 3.97 6.53 7.3 12.12 9.15 7.04 2.37 15.29 2.37 19.82-1.7 3.06-2.82 4.42-7.5 2.51-14.7l.9-4.07 3.17 25c-.05.3-.05.6-.05.96Z" fill="#CE8000"/><path d="M34.02 106.69c.15.6.4 1.1.7 1.55.3.46.66.86 1.06 1.16 1.36 1.06 3.27 1.3 5.38.6.2-.05.4-.15.66-.25.4-.15.75-.35 1.05-.55.46-.3.86-.6 1.21-.9l.05-.06a5.89 5.89 0 0 0 1.61-5.38c-.05-.4-.15-.75-.25-1.05v-.05c-.2-.6-.35-.96-.35-.96s-.66-.4-1.66-.9c-2.72-1.36-7.9-3.22-9.3 1.7-.06.2-.1.46-.16.66 0 .1-.05.15-.05.25 0 .05-.05.15-.05.2 0 .1-.05.25-.05.35v.1a8.1 8.1 0 0 0 .15 3.53Z" fill="#CE8000"/><path d="M37.64 114.13a4.1 4.1 0 0 0 3.78.35c.05-.05.15-.05.2-.1.5-.2.9-.45 1.25-.75 1.92-1.51 1.61-3.93 1.26-5.38-.2-.71-.4-1.21-.4-1.21s-.15-.1-.4-.2c-1.41-.6-6.14-2.37-7.25 1.45-.1.36-.15.7-.2 1.01-.4 2.26.4 3.98 1.76 4.83Z" fill="#CE8000"/><path d="M39.65 118.05c.46.05.91-.05 1.41-.25l.6-.3c1.62-.9 1.52-2.67 1.16-3.82-.2-.7-.45-1.21-.45-1.21s-.05 0-.15-.05c-.7-.2-3.82-.96-4.63 1.71-.65 2.41.4 3.82 2.06 3.92Z" fill="#CE8000"/><path d="M39.65 124.74c.5 1.06.91 1.81.91 1.81s2.52-3.87 2.11-6.89c-.15-1.2-.5-1.9-1-2.16-.25-.15-.56-.15-.9-.1-.36.1-.76.3-1.17.6-.25.2-.5.4-.75.66-1.2 1.15-.1 4.12.8 6.08Z" fill="#CE8000"/><path d="M33.17 76.46s3.77 2.1 8.75 1.35c0 0-3.98 3.62-6.39 1.61-2.41-1.96-2.36-2.96-2.36-2.96ZM39.7 108.1c.16-.06.3-.16.36-.3.9-2.27 2.21-2.77 2.26-2.82.25-.1.36-.36.3-.6-.05-.26-.3-.36-.55-.26-.05 0-1.16.45-2.16 2.01-.25-.5-.76-.95-1.56-1.15a.46.46 0 0 0-.55.35c-.1.25.05.5.3.55 1.46.35 1.2 1.56 1.15 1.66-.05.25.05.45.3.5.06.1.1.1.16.05ZM40.41 112.67c.3-.1.46-.35.35-.6a2 2 0 0 1 1.26-2.42c.25-.1.4-.35.3-.55-.05-.25-.3-.35-.55-.3-.9.3-2.41 1.4-1.91 3.57.1.2.3.35.55.3Z" fill="#A05A07"/><path d="M39.76 111.06c-.4-.6-.66-.7-.7-.75-.2.1-.4.05-.5-.1-.16-.2-.11-.46.04-.66.05-.05.25-.2.55-.15.46.05.86.4 1.36 1.1.15.21.1.51-.15.66-.05.05-.1.05-.2.1-.15 0-.35-.05-.4-.2ZM40.96 117.8c.05 0 .1-.05.15-.05.2-.15.3-.4.16-.65-.86-1.51.7-2.77.75-2.82.2-.15.25-.45.1-.65s-.4-.2-.6-.05c-.8.6-2.01 2.26-1 3.97.1.2.3.3.44.25Z" fill="#A05A07"/><path d="M40.71 116.04c.25-.05.4-.3.4-.55-.1-.6-.4-.86-.6-.96-.45-.25-.95-.05-1-.05-.26.1-.36.35-.3.6.04.26.3.36.55.26 0 0 .15-.05.25 0s.15.2.2.35c.05.25.25.4.5.35Z" fill="#A05A07"/><path opacity=".3" d="M43.28 106.89c-1.36 1.15-3.22 2-3.22 2s1.46.46 2.21.96c.9.6.7 1.61 0 2.52-.3.4-.95.8-2.01 1.2 0 0 .65.36 1.16.91.7.7 1.1 1.76-.9 2.67 0 0 .1.1.24.3.1.1.2.2.25.35.76 1.1 1.61 3.52-1.4 6.94.5 1.06.9 1.81.9 1.81s2.52-3.87 2.11-6.89c-.15-1.2-.5-1.9-1-2.16 1.6-.9 1.5-2.67 1.15-3.82 1.92-1.51 1.61-3.93 1.26-5.39l.05-.05a5.89 5.89 0 0 0 1.61-5.38c-.25-1.66-2.31-1.15-3.37-.95-3.22.6-5.93 2.11-8.5 1.15v.1a8.06 8.06 0 0 0 .15 3.53s2.62-3.47 8.25-2.47c2.77.5 2.26 1.61 1.06 2.67Z" fill="#A05A07"/><path d="M37.9 118.66c0 .25.2.4.45.4l2.26-.25 1.81-.2c.25 0 .4-.25.4-.46l-.05-.95c0-.25-.2-.4-.45-.4l-2.31.25-1.76.2c-.26 0-.4.25-.4.45l.04.96Z" fill="#00C55E"/><path opacity=".58" d="m40.66 118.76 1.76-.15c.25 0 .4-.25.4-.46l-.05-.95c0-.25-.2-.4-.45-.4l-2.31.25c.05 0 2.86.9.65 1.7Z" fill="#06B253"/><path opacity=".3" d="M54.7 81.54c-.06 7.19-2.72 13.68-7.55 17.5l-.45.35a17.48 17.48 0 0 1-9.66 3.27 24.05 24.05 0 0 1-7.7-1c25.36-2.12 23.64-28.17 22.09-38.18-.3-1.96-.6-3.27-.7-3.72 0-.1-.06-.16-.06-.16l.9-4.07 3.18 25c-.05.35-.05.65-.05 1Z" fill="#A05A07"/><path d="M33.02 104.12c0 .4.5.65 1.1.55l5.99-.75 4.78-.6c.65-.1 1.1-.46 1.1-.86v-1.61c0-.4-.5-.65-1.1-.55l-6.14.8-4.63.6c-.65.1-1.1.46-1.1.86v1.56Z" fill="#00C55E"/><path opacity=".58" d="M40.26 103.87c-.05 0-.1.05-.15.05l4.78-.6c.65-.1 1.1-.46 1.1-.86v-1.61c0-.4-.5-.65-1.1-.55l-6.14.8c.05 0 7.4 1.06 1.51 2.77Z" fill="#06B253"/><path d="m52.43 59.66-1.8-.16c-7-.6-13.19-.55-18.57-.15-1.46.1-2.82.25-4.12.46-14.19 1.86-22.19 6.53-25.2 8.7-.96.7-1.41 1.1-1.41 1.1v-1.4c.1-6.7 1.2-19.67 10.16-27.07a22.68 22.68 0 0 1 8.8-4.42 28.46 28.46 0 0 1 5.94-.96c.15 0 .25 0 .4-.05 18.6-1.1 24.1 15.85 25.4 21.88.3 1.26.4 2.07.4 2.07Z" fill="#949984"/><path opacity=".4" d="M32.01 59.35s20.27-5.03 11.67-17.75c0 0 6.8 6.08 8.7 18.05.05 0-10.56-1.25-20.37-.3Z" fill="#676D54"/><path opacity=".4" d="M5.95 66.45s-.05-12.48 7.55-14.9c7.6-2.46 14.44 8.26 14.44 8.26s-12.58 1.25-21.99 6.64Z" fill="#C5CAB9"/><path opacity=".4" d="M37.04 47.88s3.42-.35 3.22-2.46c-.15-1.81-2.01-7.95-7.75-9.46 0 0-3.47-.45-4.22-.25-.8.15 8.75 12.17 8.75 12.17ZM52.43 57.54v2.06l-1.8-.15c-7-.6-13.19-.55-18.57-.15-1.46.1-2.82.25-4.12.46-14.19 1.86-22.19 6.53-25.2 8.7l-1.41.2h-.15s.05-.2.2-.55c.65-1.46 3.62-5.69 17.05-8.6 15.04-3.28 31.08-2.22 33.75-2.07.1.1.25.1.25.1Z" fill="#676D54"/><path d="M38.55 47.43c-.8.45-1.81.5-2.67.35-1.76-.3-3.06-1.25-3.47-2.51-1.8-5.53-10.4-9-10.4-9a3.6 3.6 0 0 1 1.65-.91 9.3 9.3 0 0 1 2.06-.35c2.57-.1 5.18.75 5.18.75 2.37.8 4.08 1.96 5.39 3.22a11.75 11.75 0 0 1 3.42 6.44c.15.75-.26 1.56-1.16 2.01Z" fill="#C2C2AC"/><path d="M38.55 47.43c-.8.45-1.81.5-2.67.35-1.76-.3-3.06-1.25-3.47-2.51-1.8-5.53-10.4-9-10.4-9a3.6 3.6 0 0 1 1.65-.91c.2.1 7.24 3.92 8.55 6.44 1.16 2.21 4.33 6.39 7.5 3.62.15.75-.3 1.56-1.16 2.01Z" fill="#BBB99D"/><path d="M36.29 38.98c-5.18.4-10.32-3.77-10.52-3.97 2.57-.1 5.18.75 5.18.75 2.32.8 4.03 1.96 5.34 3.22ZM37.4 43.96c-1.32.25-2.37-.8-2.67-1.56-.3-.7-.6-2.26.05-2.41 2.71-.3 3.32 3.82 2.61 3.97Z" fill="#C5CAB9"/><path opacity=".4" d="M26 44.96c.4-1.44-1.13-3.14-3.43-3.8-2.3-.64-4.5 0-4.9 1.44-.41 1.44 1.12 3.14 3.42 3.8 2.3.64 4.5 0 4.9-1.44Z" fill="#C5CAB9"/><path d="m35.03 60.06-.3 2.06c-.1.75-1.01 1.2-2.02 1.06l-7.8-1.06-2.56-.35c-1-.15-1.76-.86-1.66-1.56l.3-2.06c.1-.76 1-1.21 2.01-1.06l4.48.6 5.89.8c1 .1 1.76.81 1.66 1.57ZM52.43 60.81l-8.5 1.66c-.8.15-1.61-.25-1.71-.9l-.35-1.86c-.15-.66.45-1.31 1.25-1.46l6.14-1.21 2.36-.45c.81-.15 1.61.25 1.72.9l.35 1.86c.1.66-.46 1.31-1.26 1.46Z" fill="#CE8000"/><path opacity=".3" d="m24.92 62.12-2.57-.35c-1-.15-1.76-.86-1.66-1.56l.3-2.06c.1-.76 1-1.21 2.01-1.06l4.48.6c0-.05-6.94 1.91-2.56 4.43ZM52.43 60.81c1.3-3.67-2.92-3.72-3.17-3.72l2.36-.45c.8-.15 1.61.25 1.71.9l.36 1.86c.1.6-.46 1.26-1.26 1.41Z" fill="#A05A07"/><path d="M11.49 78.62c-.45.7-1.06 1.3-1.81 1.7-.2.16-.45.26-.7.36-2.92 1.16-6.55-.3-8.4-3.52a8.15 8.15 0 0 1-1.11-4.07c0-2.27 1-4.33 2.86-5.39 2.82-1.6 6.54-.45 8.66 2.52l.5 8.4Z" fill="#E8D4BA"/><path d="M8.52 75.85c-.2 0-.35-.1-.4-.3-.56-1.5-1.36-2.47-2.37-2.92-1.46-.6-2.86 0-2.91 0-.26.1-.5 0-.6-.25-.1-.25 0-.5.24-.6.05-.05 1.81-.8 3.63 0 1.3.55 2.26 1.7 2.86 3.47.1.25-.05.5-.25.6h-.2Z" fill="#CEB79B"/><path d="M5.35 75.85c-.2 0-.35-.1-.45-.3 0-.05-.3-.96.15-1.76.3-.55.9-.9 1.66-1.1.25-.06.5.1.55.34.05.26-.1.5-.35.56-.55.1-.9.35-1.1.65-.26.45-.1 1-.1 1 .05.26-.06.51-.3.56.04.05 0 .05-.06.05Z" fill="#CEB79B"/><path opacity=".4" d="M11.49 78.62c-.46.7-1.06 1.3-1.81 1.7-.2.16-.46.26-.7.36 0 0 1.2-1.81-.2-4.88-.36-.75-.81-1.6-1.52-2.51l-.45-.6c-.25-.3-.5-.61-.8-.91-5.14-5.49-6.6 1.25-6.6 1.25 0-2.26 1.01-4.32 2.87-5.38 2.82-1.6 6.54-.45 8.65 2.52l.56 8.45Z" fill="#CEB79B"/><path d="M99.26 62.07c1 1 3.27 2.06 5.48 2.01 4.18-6.19 2.27-10.66 1.86-12.47-3.87.45-7.5 3.02-9.9 6.23.2 1.06 1.1 2.77 2.56 4.23Z" fill="#68B471"/><path d="m104.34 55.13-.35 2.11-.8 3.37-4.28-2.06c.1-.15.6-.76 1.5-.45l1.97.9.8-2.21.5-1.41c.1-.15.26-.35.66-.25Z" fill="#E8E8E8"/><g opacity=".59"><path d="M240.53 45c.77-.77 1.2-1.8.77-2.84a3.14 3.14 0 0 0-1.2-1.38c-1.64-1.12-3.88-1.12-5.78-.52-1.9.6-3.53 1.81-5.16 3.02 1.72-1.47 3.44-3.1 4.3-5.17.86-2.07.7-4.82-1.12-6.2-1.63-1.2-3.87-1.03-5.85-.52a29.18 29.18 0 0 0-10.94 5.52c-2.07 1.72-6.12 4.99-6.55 7.92h31.53V45Z" fill="#F3F3F3"/><path d="M216.67 42.16c3.79.26 8.61.26 11.62-2.41 1.81-1.55 3.28-4.3 2.16-6.63a7.87 7.87 0 0 0-1.47-1.98c-.86 0-1.63.17-2.5.43a29.18 29.18 0 0 0-10.93 5.5c-1.21.95-3.1 2.6-4.57 4.31 1.9.43 3.8.6 5.69.78Z" fill="#fff"/></g><g opacity=".59"><path d="M267.16 23.6c1.02-1.02 1.62-2.47 1.08-3.79-.3-.78-.9-1.32-1.62-1.8-2.23-1.45-5.18-1.45-7.7-.67-2.53.85-4.76 2.41-6.93 3.97 2.23-1.98 4.52-4.09 5.72-6.85 1.2-2.77.9-6.44-1.5-8.25-2.17-1.68-5.18-1.32-7.83-.66a36.94 36.94 0 0 0-14.5 7.4c-2.77 2.29-8.18 6.68-8.78 10.6h42.06v.05Z" fill="#F3F3F3"/><path d="M235.32 19.81c5.06.36 11.44.36 15.47-3.19 2.4-2.1 4.33-5.71 2.89-8.9a7.29 7.29 0 0 0-1.93-2.59c-1.08.06-2.22.24-3.3.54a36.95 36.95 0 0 0-14.5 7.4 50.88 50.88 0 0 0-6.15 5.72c2.47.54 5.06.84 7.52 1.02Z" fill="#fff"/></g></g><defs><clipPath id="a"><path fill="#fff" d="M0 0h320v194H0z"/></clipPath></defs></svg>