<svg width="320" height="194" fill="none" xmlns="http://www.w3.org/2000/svg">
  <g clip-path="url(#a)">
    <path fill="#252F90" d="M0 0h320v194H0z"/>
    <g opacity=".7">
      <path d="M196.99 198.14s2.7-19.07 29.4-15.68c26.72 3.4 58.38 18.91 76.49-11.42 18.1-30.34-20.02-48.64-28.17-64.88-5.23-10.42-3.23-22.56 27.71-17.97 32.04 4.75 41.62 20.88 45.57 40.44" stroke="#2B2B37" stroke-width="3" stroke-miterlimit="10"/>
      <path d="M199.17 197.82a2.03 2.03 0 1 0-3.41-2.19 2.03 2.03 0 0 0 3.4 2.2Zm23.19-14.69a2.02 2.02 0 1 0-3.41-2.19 2.02 2.02 0 1 0 3.4 2.2Zm22.78 3.63a2.02 2.02 0 1 0-3.4-2.2 2.02 2.02 0 1 0 3.4 2.2Zm26.72 3.4a2.03 2.03 0 1 0-3.41-2.2 2.03 2.03 0 0 0 3.4 2.2Zm25.68-10a2.02 2.02 0 1 0-3.41-2.19 2.02 2.02 0 1 0 3.4 2.19Zm11.29-25.08a2.02 2.02 0 1 0-3.4-2.2 2.02 2.02 0 0 0 3.4 2.2Zm-9.54-22.64a2.03 2.03 0 1 0-3.41-2.19 2.03 2.03 0 0 0 3.4 2.19Zm-18.72-19.59a2.03 2.03 0 0 0-3.41-2.19 2.03 2.03 0 0 0 3.4 2.19Zm-5.25-20.22a2.03 2.03 0 1 0-3.4-2.2 2.03 2.03 0 0 0 3.4 2.2Zm21.2-4.62a2.03 2.03 0 1 0-3.41-2.2 2.03 2.03 0 0 0 3.41 2.2Zm25.3 5.59a2.03 2.03 0 1 0-3.4-2.2 2.03 2.03 0 0 0 3.4 2.2Z" fill="#2B2B37"/>
      <path d="M237.96 192.18c.38-3.48 2.7-6.07 5.17-5.8 2.47.28 4.16 3.32 3.77 6.8-.38 3.47-3.25 11.03-5.72 10.75-2.47-.27-3.6-8.28-3.22-11.75Zm76.75-35.6c-3.3 1.16-6.63.19-7.45-2.15-.82-2.35 1.19-5.19 4.49-6.34 3.3-1.15 11.36-1.84 12.17.5.82 2.35-5.9 6.84-9.2 8Zm-38.9-72.5c1.1 3.32.1 6.64-2.25 7.44-2.35.8-5.17-1.25-6.28-4.57-1.12-3.3-1.7-11.38.65-12.17 2.35-.8 6.76 6 7.87 9.3Z" fill="#5FE84B"/>
      <path d="M297.4 171.35c1.25 3.26.38 6.63-1.94 7.52-2.32.88-5.21-1.05-6.46-4.32-1.24-3.26-2.16-11.3.17-12.18 2.32-.89 7 5.71 8.24 8.98Zm-23.7-65.17c3.42.72 5.78 3.29 5.26 5.71-.52 2.43-3.71 3.81-7.13 3.08-3.42-.72-10.66-4.33-10.15-6.76.52-2.43 8.6-2.76 12.02-2.03Zm54.11-12.28c-3.01 1.78-6.48 1.48-7.74-.66-1.26-2.14.16-5.32 3.18-7.09 3.01-1.77 10.78-4 12.04-1.87 1.26 2.14-4.47 7.85-7.48 9.62Zm-105.75 79.6c1.26 3.26.4 6.63-1.92 7.52-2.31.9-5.21-1.02-6.48-4.28-1.26-3.26-2.2-11.3.11-12.19 2.32-.9 7.03 5.69 8.29 8.95Z" fill="#F26467"/>
      <path d="M266.47 196.63c-.34-3.48 1.38-6.5 3.85-6.74 2.48-.24 4.76 2.38 5.1 5.86.35 3.48-.88 11.47-3.35 11.71-2.48.25-5.25-7.35-5.6-10.83Zm37.43-69.77c-1.22 3.28-4.1 5.23-6.43 4.36-2.33-.88-3.22-4.24-1.99-7.51 1.23-3.28 5.86-9.9 8.19-9.03 2.32.87 1.46 8.9.23 12.18Zm-3.8-44.23c-.93 3.37-3.63 5.56-6.02 4.9-2.4-.67-3.58-3.95-2.64-7.31.94-3.37 4.98-10.38 7.37-9.7 2.4.66 2.24 8.74 1.3 12.11ZM196.1 189.35c2.38 2.56 2.83 6 1 7.7-1.81 1.68-5.22.98-7.6-1.59-2.37-2.56-6.22-9.67-4.4-11.36 1.82-1.69 8.62 2.68 11 5.24Z" fill="#2678BC"/>
    </g>
    <path d="m29.9 124.61-.27 10.4c-1.4 1.9-2.86 4.34-5.47 5.07-3.38.95-7.86-.11-8.12-.1a4.46 4.46 0 0 1 0-.5l.25-9.9s3.32-2.62 6.76-3.56c2.67-.72 5.4.54 6.84-1.4Z" fill="#F4DDDC"/>
    <path d="M30.12 115.76h-.01v.02c-1.46 1.95-4.3 5.59-6.99 6.31-3.43.94-6.62-1.36-6.62-1.36l.27-10.39s2.95-2.25 6.17-3.35c.27-.11.52-.19.79-.26 2.62-.74 5.24.54 6.65-1.37l-.19 7.56-.07 2.84Zm.49-19.24c-1.34 1.8-3.9 5.42-6.39 6.16a6.94 6.94 0 0 1-2.31.28c-2.71-.08-4.9-1.47-4.9-1.47l.25-10.4s2.19-1.82 4.85-2.94c.52-.2 1.06-.4 1.6-.53 2.58-.67 5.26.35 6.82-1.11.11-.13.24-.25.34-.4l-.26 10.4Zm.5-23.64c-1.6 2.68-3.7 7.18-5.7 8.71a8.46 8.46 0 0 1-3.04 1.49c-2.35.59-4.28-.06-4.9.11l.21-8.33c.62-.47 1.42-2.9 2.98-6.15.23-.49.47-.99.74-1.5 1.14-2.22 3.43-3.84 4.26-7.49v.02c.02-.01.02 0 .03.02a22.53 22.53 0 0 1 5.42 13.12Zm-31.56-.06c-.7-.54-2.1-.98-3.51-1.3-2-.48-4-.71-4-.71s-3.42-2.59-5.04-3h-.06a22.52 22.52 0 0 1 5.82-9.5h.02c1.1.54 7.1 2.55 7.1 2.55l.56 1.2c.68 1.46 1.79 3.9 2.41 5.28a9.19 9.19 0 0 0-3.3 5.48Z" fill="#FFF3F3"/>
    <path d="m29.62 135-.12 4.8a6.73 6.73 0 0 1-6.66 6.56 6.74 6.74 0 0 1-6.81-6.4c.47-.01 10.38-.61 13.6-4.96Zm-.02-10.05c-3.33 3.87-12.09 4.56-13.2 4.63l-.1.01h-.02l.22-8.86s10.3-.51 13.6-4.95l-.22 8.84a2.82 2.82 0 0 1-.28.33Zm.79-19.59c-1.36 1.84-3.9 3-6.43 3.74a34.79 34.79 0 0 1-7.18 1.24l.22-8.85s2.07-.11 4.65-.62c3.18-.64 7.14-1.9 8.96-4.35l-.22 8.84Z" fill="#AE2B2E"/>
    <path d="M15.97 62.77c-.62 1.4-1.76 2.49-2.62 3.95a9.19 9.19 0 0 0-5.7-1.32v-.01c.11-1.84-1.59-3.1-2.55-5.08a8.3 8.3 0 0 1-.2-.44 31.72 31.72 0 0 1-1.75-7.34l-.01-.01a22.98 22.98 0 0 1 5.98-.65c2.02.06 4.02.37 5.95.95l.01.02c.13.35 1.65 4.66 1.35 8.2a5 5 0 0 1-.46 1.73Z" fill="#FFF3F3"/>
    <path d="M-2.82 82.44a6.84 6.84 0 0 1-4.77 1.82 6.72 6.72 0 0 1-4.67-2.05l-.3-.35a6.39 6.39 0 0 1-1.11-1.83V80a6.55 6.55 0 0 1-.49-2.53l.09-3.56c.05-2.05.38-4.08.99-6.03l.02-.09.06.02c2.22.49 5.88 1.45 9.07 2.95 1.28.6 2.48 1.28 3.47 2.05h.01a9.5 9.5 0 0 0-.15 1.44l-.08 3.57a6.73 6.73 0 0 1-2.14 4.61ZM7.65 65.4a9.07 9.07 0 0 0-4.8 1.95A14.46 14.46 0 0 0-.54 62.8a27.77 27.77 0 0 0-6.68-4.47v-.02a22.71 22.71 0 0 1 10.36-5.78l.01.01a44.6 44.6 0 0 1 3.56 7.61c.63 1.83 1.04 3.7.94 5.25ZM21.3 70.7a16.79 16.79 0 0 1-3.62 4.16v-.14a9.02 9.02 0 0 0-1.11-4.58 9.12 9.12 0 0 0-3.23-3.42c.8-1.37 1.3-3.01 1.6-4.66.8-4.53.11-9.22.11-9.22h.02a22.49 22.49 0 0 1 10.59 6.88v.02A33.35 33.35 0 0 1 21.3 70.7Zm9.22 15.81c-1.93 2.19-5.6 3.37-8.6 3.96a36.2 36.2 0 0 1-4.67.62l.21-7.9c.62-.18 2.58-.77 4.93-2.07a22.74 22.74 0 0 0 8.71-8.24c.05.7.07 1.44.05 2.17l-.28 11.08a3.17 3.17 0 0 1-.35.38Z" fill="#AE2B2E"/>
    <path opacity=".2" d="m30.9 129.89-1.15-.03-13.34-.28-.12.01.2-8.86.28-10.39.23-8.85.26-10.4.2-7.9h.01l.21-8.33v-.14a9.02 9.02 0 0 0-1.1-4.58 9.12 9.12 0 0 0-3.24-3.42 9.19 9.19 0 0 0-5.7-1.32v-.01a9.07 9.07 0 0 0-4.8 1.95 9.19 9.19 0 0 0-3.3 5.48c-.08.48-.13.96-.14 1.44l-.09 3.56a6.73 6.73 0 0 1-2.14 4.62 6.84 6.84 0 0 1-4.76 1.82 6.72 6.72 0 0 1-4.67-2.06l-.3-.34-1.11-1.83-.01-.02s8.9 3.01 9.7-8.5l.05-.74c.15-3.73 1.47-6.3 3.39-7.98a8.64 8.64 0 0 1 .98-.73c1.38-.93 3-1.5 4.66-1.75a16.3 16.3 0 0 1 1.6-.17c3.2-.16 6.36.67 8.24 1.91.34.23.69.47 1.03.72a12.64 12.64 0 0 1 4.68 5.94c.25.6.47 1.26.65 1.99.7 2.55 1.1 5.9 1.1 10.41 0 .64 0 1.28-.03 1.96a104 104 0 0 1-.26 5.09l-.18 2.31-.12 1.26a49.7 49.7 0 0 0-.16 9.14c.07.74.16 1.43.26 2.09.25 1.57.6 2.9 1.03 4.02.31.8.65 1.51 1.02 2.12 2.56 4.23 6.24 3.82 6.24 3.82l.7 16.97Z" fill="#561315"/>
    <path d="m46.7 119.1-3.25 6.5c.24 1.64.35 3.62 1.72 4.93 1.77 1.7 4.89 2.5 5.04 2.6.07-.1.12-.2.17-.31l3.09-6.19s-1.2-2.71-3.01-4.42c-1.41-1.32-3.51-1.43-3.76-3.11Z" fill="#F4DDDC"/>
    <path d="M49.46 113.55v.02c.26 1.68.83 4.86 2.24 6.19 1.82 1.7 4.54 1.33 4.54 1.33l3.24-6.5s-1.09-2.36-2.72-4.1a5.78 5.78 0 0 0-.4-.42c-1.38-1.31-3.42-1.38-3.66-3.02l-2.36 4.72-.88 1.78Zm6-12.04c.23 1.56.63 4.63 1.92 5.9.4.4.87.71 1.34.93 1.7.84 3.51.7 3.51.7l3.25-6.5s-.75-1.85-2.03-3.4a8.37 8.37 0 0 0-.82-.86c-1.37-1.26-3.36-1.5-3.84-2.92L58.7 95l-3.24 6.5Zm7.44-14.76c.1 2.18-.07 5.64.66 7.25a5.9 5.9 0 0 0 1.39 1.9c1.26 1.14 2.67 1.38 3 1.68l2.59-5.21c-.23-.5.07-2.26.17-4.78l.04-1.17c.02-1.74-.87-3.5-.17-6.01h-.04a15.8 15.8 0 0 0-7.64 6.34Zm19.51 10.3a7.3 7.3 0 0 1 2.6.35c1.39.36 2.7.88 2.7.88s2.96-.48 4.09-.2l.04.01c.5-2.59.33-5.26-.48-7.77h-.02c-.86-.04-5.22-.76-5.22-.76l-.74.56c-.9.68-2.38 1.81-3.22 2.47a6.4 6.4 0 0 1 .25 4.47Z" fill="#FFF3F3"/>
    <path d="m43.46 125.6-1.5 3a4.71 4.71 0 0 0 1.96 6.24 4.74 4.74 0 0 0 3.5.41 4.73 4.73 0 0 0 2.8-2.12c-.28-.17-6.2-3.79-6.76-7.53Zm3.3-6.2c.79 3.49 5.98 6.78 6.64 7.19l.06.04h.01l2.77-5.54s-6.2-3.7-6.78-7.52l-2.76 5.53c.01.1.04.2.07.3Zm5.94-12.35c.24 1.57 1.42 3.12 2.74 4.41a24.55 24.55 0 0 0 4.04 3.13l2.76-5.55s-1.25-.74-2.67-1.9c-1.76-1.44-3.8-3.51-4.1-5.62l-2.77 5.53Z" fill="#AE2B2E"/>
    <path d="M75.56 85.46c-.07 1.08.27 2.12.33 3.3a6.44 6.44 0 0 1 3.95 1.05c.54-1.18 2-1.4 3.24-2.3l.27-.21c1.83-1.56 3.4-3.81 3.49-3.95v-.01a16.03 16.03 0 0 0-3.48-2.36 16.02 16.02 0 0 0-3.98-1.37s0 .01-.02.02c-.19.17-2.54 2.33-3.52 4.62a3.5 3.5 0 0 0-.28 1.21Z" fill="#FFF3F3"/>
    <path d="M80.72 103.77a4.75 4.75 0 0 0 2.35 2.68 4.7 4.7 0 0 0 3.56.27 5.17 5.17 0 0 0 1.58-.88h.01c.46-.4.85-.87 1.13-1.42l1.11-2.22a15.5 15.5 0 0 0 1.37-4.05l.01-.06-.04-.01a31.7 31.7 0 0 0-6.58-1.15c-.98-.05-1.94-.02-2.8.13h-.02a6.26 6.26 0 0 1-.37.93l-1.12 2.23a4.7 4.7 0 0 0-.19 3.55Zm-.88-13.96a6.35 6.35 0 0 1 2.33 2.78 10.1 10.1 0 0 1 3.58-1.7c2.34-.63 4.68-.61 5.6-.57v-.01a15.87 15.87 0 0 0-4.5-6.97h-.01c-.18.11-2.67 1.64-4.7 3.54a9.89 9.89 0 0 0-2.3 2.93Zm-10.17-1.2c.18 2.06.66 3.3.87 3.76l.04-.09a6.31 6.31 0 0 1 2.19-2.46 6.35 6.35 0 0 1 3.12-1.05 9.83 9.83 0 0 1 .54-3.4c.98-3.07 2.95-5.74 2.95-5.74h-.02a15.73 15.73 0 0 0-8.79.77v.02a23.37 23.37 0 0 0-.9 8.2Zm-10.88 6.75c.47 1.98 2.35 3.9 4.01 5.26a25.34 25.34 0 0 0 2.68 1.91l2.46-4.94v-.01a16.53 16.53 0 0 1-2.36-2.9 15.9 15.9 0 0 1-2.68-7.94c-.27.42-.51.87-.74 1.33L58.7 95c.02.13.05.25.09.36Z" fill="#AE2B2E"/>
    <path opacity=".2" d="m44.35 122.03.71.36 8.34 4.2.07.03 2.77-5.53 3.24-6.51 2.76-5.54 3.25-6.5 2.46-4.96 2.6-5.21.04-.1a6.31 6.31 0 0 1 2.18-2.46 6.35 6.35 0 0 1 3.12-1.05 6.44 6.44 0 0 1 3.96 1.05 6.35 6.35 0 0 1 2.32 2.77 6.46 6.46 0 0 1 .25 4.47 6.26 6.26 0 0 1-.38.94l-1.12 2.23a4.7 4.7 0 0 0-.19 3.55 4.75 4.75 0 0 0 2.35 2.68 4.7 4.7 0 0 0 3.56.26l.3-.11 1.28-.77h.01s-6.49-1.07-3.2-8.43l.2-.47c1.14-2.36 1.16-4.38.53-6.04a6.03 6.03 0 0 0-.36-.78 8.07 8.07 0 0 0-2.3-2.6 9.63 9.63 0 0 0-.94-.63 10.18 10.18 0 0 0-5.72-1.52c-.29.02-.57.06-.87.1a8.84 8.84 0 0 0-4.84 2.13c-.35.3-.7.63-1.05 1.02a27.48 27.48 0 0 0-4.09 6.07l-.63 1.22c-.49.98-.98 2.05-1.5 3.23l-.64 1.49a49.63 49.63 0 0 0-.34.82 34.64 34.64 0 0 1-2.9 5.7c-.28.42-.57.82-.84 1.2-.67.88-1.33 1.6-1.97 2.14-.45.4-.89.72-1.31.97-2.98 1.77-5.11.32-5.11.32l-6 10.26Z" fill="#561315"/>
    <path d="m35.15 93.51-1.25 9.28c.97 1.88 1.93 4.25 4.14 5.28 2.86 1.33 7 1.02 7.22 1.07.04-.15.06-.3.08-.45l1.19-8.82s-2.58-2.8-5.51-4.13c-2.27-1.03-4.87-.3-5.87-2.23Z" fill="#F4DDDC"/>
    <path d="m36.2 85.61.01.01v.01c1.02 1.94 3.03 5.58 5.3 6.6 2.93 1.33 6.08-.26 6.08-.26l1.24-9.27s-2.3-2.42-5-3.86a7.47 7.47 0 0 0-.67-.34c-2.22-1.03-4.73-.27-5.71-2.16l-.9 6.74-.35 2.53Zm2.3-17.16c.94 1.8 2.7 5.37 4.8 6.38a6.19 6.19 0 0 0 2.02.58c2.42.32 4.57-.6 4.57-.6l1.24-9.28s-1.68-1.93-3.88-3.3c-.43-.25-.88-.5-1.35-.7-2.19-.96-4.72-.44-5.9-1.96-.08-.13-.18-.26-.25-.4l-1.25 9.28Zm2.93-21.08c1.04 2.62 2.26 6.91 3.82 8.56a7.6 7.6 0 0 0 2.48 1.75c2 .85 3.82.56 4.35.8v-.01l.99-7.43c-.48-.5-.85-2.78-1.77-5.89a42.38 42.38 0 0 0-.45-1.44c-.7-2.13-2.5-3.89-2.7-7.25l-.02.01-.02.01a20.34 20.34 0 0 0-6.68 10.9Zm28.05 4.45c.7-.38 2-.57 3.3-.66 1.84-.14 3.66-.05 3.66-.05s3.4-1.82 4.9-1.95h.05a20.27 20.27 0 0 0-3.82-9.27h-.02c-1.06.32-6.67 1.25-6.67 1.25l-.67.99a378.78 378.78 0 0 0-2.9 4.35 8.24 8.24 0 0 1 2.17 5.34Z" fill="#FFF3F3"/>
    <path d="m33.9 102.78-.57 4.28a6.07 6.07 0 0 0 11.94 2.07c-.4-.09-9.13-2.03-11.37-6.35Zm1.46-8.93c2.4 3.92 10.08 5.77 11.06 6l.1.02 1.07-7.9s-9.08-1.93-11.38-6.34l-1.06 7.89c.06.12.13.23.2.33Zm2.09-17.51c.94 1.82 3.03 3.21 5.17 4.23a31.58 31.58 0 0 0 6.21 2.13l1.06-7.9s-1.82-.38-4.04-1.2c-2.74-1.03-6.08-2.7-7.34-5.14l-1.06 7.88Z" fill="#AE2B2E"/>
    <path d="M56.32 40.54c.35 1.34 1.2 2.47 1.77 3.89a8.29 8.29 0 0 1 5.25-.36v-.01c.16-1.66 1.85-2.52 2.99-4.15a7.4 7.4 0 0 0 .23-.37 28.55 28.55 0 0 0 2.6-6.26l.02-.01a20.63 20.63 0 0 0-5.23-1.43 20.61 20.61 0 0 0-5.41 0s0 0-.02.02c-.16.28-2.13 3.9-2.37 7.09-.04.57.03 1.1.17 1.6Z" fill="#FFF3F3"/>
    <path d="M70.21 60.7A6.11 6.11 0 0 0 74.2 63a6.05 6.05 0 0 0 6-2.89l.02-.01c.4-.67.67-1.4.78-2.18l.43-3.18a19.95 19.95 0 0 0-.02-5.5c0-.02-.02-.06 0-.07h-.06c-2.05.12-5.44.46-8.49 1.33a16.5 16.5 0 0 0-3.37 1.33c0 .44-.02.87-.08 1.3l-.43 3.18a6.05 6.05 0 0 0 1.24 4.4Zm-6.87-16.64a8.18 8.18 0 0 1 3.99 2.42 13 13 0 0 1 3.65-3.56 24.94 24.94 0 0 1 6.58-3.03 20.43 20.43 0 0 0-8.38-6.62c-.18.21-2.59 3.1-4.25 6.27a12.7 12.7 0 0 0-1.6 4.52Zm-12.9 2.77a15.18 15.18 0 0 0 2.63 4.22l.02-.13a8.12 8.12 0 0 1 1.63-3.9 8.17 8.17 0 0 1 3.37-2.59 12.73 12.73 0 0 1-.76-4.37c-.08-4.14 1.2-8.2 1.2-8.2h-.01a20.24 20.24 0 0 0-10.39 4.6v.01a30.06 30.06 0 0 0 2.32 10.36ZM40 59.57c1.4 2.22 4.5 3.78 7.08 4.74a32.71 32.71 0 0 0 4.05 1.22l.94-7.05v-.01A21.16 21.16 0 0 1 48 55.93c-2.3-1.8-5-4.58-6.56-8.56a19.02 19.02 0 0 0-.35 1.92l-1.33 9.88c.08.15.16.28.25.4Z" fill="#AE2B2E"/>
    <path opacity=".2" d="m33.5 98.05 1.03.14 11.9 1.65.09.02 1.08-7.9 1.24-9.27 1.06-7.9 1.24-9.27.94-7.05v-.01l1-7.42.01-.13a8.12 8.12 0 0 1 1.64-3.9 8.17 8.17 0 0 1 3.36-2.59 8.29 8.29 0 0 1 5.25-.36v-.01a8.18 8.18 0 0 1 3.99 2.42 8.3 8.3 0 0 1 2.16 5.34h-.01c.01.44-.01.87-.07 1.3l-.43 3.18a6.05 6.05 0 0 0 1.24 4.4 6.11 6.11 0 0 0 3.98 2.29 6.04 6.04 0 0 0 4.76-1.42l1.25-1.47v-.01s-8.34 1.4-7.4-8.93l.06-.67c.4-3.34-.41-5.8-1.88-7.57a7.76 7.76 0 0 0-.76-.8 10.36 10.36 0 0 0-3.89-2.21c-.46-.15-.93-.28-1.4-.38-2.82-.6-5.75-.3-7.6.53-.34.15-.67.32-1.01.48a11.36 11.36 0 0 0-5.01 4.62 14.3 14.3 0 0 0-.86 1.67c-.99 2.17-1.83 5.09-2.45 9.1a48.87 48.87 0 0 0-.26 1.75 88.14 88.14 0 0 0-.49 4.55l-.16 2.08-.08 1.14c-.2 3.28-.61 5.95-1.16 8.14a27.52 27.52 0 0 1-.53 1.81c-.44 1.37-.95 2.5-1.5 3.44a11.4 11.4 0 0 1-1.2 1.73c-2.88 3.4-6.08 2.5-6.08 2.5l-3.05 15Z" fill="#561315"/>
    <path d="M66.6 86.92c-.36 2.44-.78 5.12-1.26 7.99l-.38 2.27a414.97 414.97 0 0 1-6.22 29.8c-6.67.24-28.2-2.08-36.96-5.34.93-18.12 2.53-37.78 6.24-55.78l40.53 5.86c-.34 3.53-1.3 10.95-1.95 15.2Z" fill="#006D3B"/>
    <path d="M66.6 86.92c-.36 2.44-.78 5.12-1.26 7.99l-.38 2.27a417.65 417.65 0 0 1-6.22 29.8c-6.67.24-28.2-2.09-36.96-5.35.2-3.87.43-7.81.7-11.8C51.53 114.24 58.6 79.7 58.6 79.7l9.36-2.7c-.43 3.4-.95 7.27-1.36 9.92Z" fill="#016032"/>
    <path d="m69.07 81.04-1.6-.2a667 667 0 0 1-5.75-.72c-.97-.13-2.01-.26-3.12-.42a760.87 760.87 0 0 1-10.92-1.53l-.26-.04-1.81-.27-.98-.15a508.77 508.77 0 0 1-10.55-1.73 248.66 248.66 0 0 1-7.7-1.48 95.67 95.67 0 0 1-1.89-.41s.67-5.79 2.1-10.04l43.37 6.27c.01 0 .31 4.52-.9 10.72Z" fill="#073F2A"/>
    <path d="m48.22 126.72-1.81-.24 8.18-58.38 1.8.27-8.17 58.35Z" fill="#F5B818"/>
    <path d="m65.3 95.18-.3 1.8-40.88-5.73.21-1.81 40.97 5.74Zm-9.12-26.85V68.12h-.01a19 19 0 0 0-.5-3.7c-.96-3.93-2.9-5.27-3.17-5.44-1.25-.79-2.7-.83-4.32-.15-1.88.8-2.8 2.36-2.46 4.18.33 1.78 1.63 3.25 3.35 4.29a12.53 12.53 0 0 0 4.98 1.7 8.54 8.54 0 0 0 .94.09h.1c.05.02.09.02.13.02l.65.02.34.01-.03-.81Zm-8.66-5.65c-.18-.97.28-1.7 1.38-2.17a3.28 3.28 0 0 1 1.76-.3c.31.05.6.15.86.31 1.75 1.1 2.5 4.59 2.74 6.69-3.76-.47-6.39-2.6-6.74-4.52Z" fill="#F5B818"/>
    <path d="M64.43 61.19c-1.35-1.12-2.76-1.49-4.17-1.1-.31.1-2.56.83-4.59 4.34a19.07 19.07 0 0 0-1.45 3.18l-.1.25-.05.16-.27.77.27.07.47.12.22.06.23.05a.23.23 0 0 0 .1.03 8.22 8.22 0 0 0 1 .19c.37.05.74.09 1.12.1 1.35.1 2.72-.02 3.97-.36 1.95-.51 3.61-1.55 4.43-3.16.83-1.65.4-3.4-1.18-4.7Zm-.45 3.88c-.89 1.73-4.02 3.03-7.75 2.42.82-1.95 2.52-5.07 4.52-5.63.82-.23 1.64 0 2.52.73.92.76 1.16 1.6.7 2.47Z" fill="#F5B818"/>
    <path d="M44.67 74.23a11.5 11.5 0 0 1-3.95-1.4l.89-1.59c3.14 1.75 6.17 1.67 8.99-.25 2.17-1.47 3.38-3.48 3.4-3.5l1.57.94c-.06.07-4.17 6.77-10.9 5.8Z" fill="#F5B818"/>
    <path d="M63.16 75.95c-1.66-.24-3.56-1.42-5.66-3.54-1.76-1.75-3.02-3.5-3.07-3.58l1.49-1.07c1.3 1.84 5.3 6.56 7.97 6.4.74-.04 1.34-.5 1.84-1.4l1.6.88C66.3 75.48 64.95 75.94 64 76a3.8 3.8 0 0 1-.84-.04Z" fill="#F5B818"/>
    <path d="M16.5 139.65s-6.22.91-10.17-3.56c-3.91-4.47-4.25-32.07 2.43-33.9 6.68-1.83 51.63 1.56 57.21 4.16 5.57 2.64 4.03 27.4 1.64 33.03-2.38 5.63-11.96 2.85-11.96 2.85l-39.14-2.58Z" fill="#E4EDEF"/>
    <path d="M61.52 137.73c-.08-.02-.17 0-.26-.02a10.82 10.82 0 0 1-3.9 4.86c-1.66-.51-6.63-.69-8.27-.8l1.1-4.4c-19.23-.88-30.51-2.89-35.86-4.08l-.77 6.48s-6.9-6.29-1.26-6.99c-1.1-.27-1.72-.47-1.79-.53-1.44-.41-.71-2.84.74-2.28.13.03 14.42 4.71 50.33 5.36 1.48 0 1.49 2.49-.06 2.4Z" fill="#D1C4C3"/>
    <path d="m57.5 137.67-10.92 59.08a10.01 10.01 0 0 1-5.04 6.97c-13.65 7.48-57.3 29.91-79.66 23.82-26.69-7.27 47.73-53.9 47.73-53.9l4.72-40.35c6.02 1.36 19.5 3.73 43.17 4.38Z" fill="#F26467"/>
    <path d="M56.58 137.62c-7.55 10.35-22.78 9.97-22.78 9.97-10.7-.6-16.8-3.82-20.28-7.29l.82-7.06c5.97 1.4 19.1 3.68 42.24 4.38Zm-28.3 72.95c-21.36 2.15-38.13 5.46-52.11 17.7 28.8-3.04 52.12-17.7 52.12-17.7Zm-2.35-35.33c3.48-4.24-6.7-7.8-15.31-9.95l-.96 8.37s-1.37.82-3.63 2.32c6.69 1.94 16.3 3.66 19.9-.74Z" fill="#E24B53"/>
    <path d="M48.72 185.22s-19.55 1.45-17.05 23.68l9.57-4.79a10.72 10.72 0 0 0 5.8-7.95l1.68-10.94Z" fill="#E4EDEF"/>
    <g opacity=".6" fill="#E4EDEF">
      <path d="M310.18 178.02v4.92a.86.86 0 0 0-.45 0v-4.92c0-.24.1-.43.22-.43.07 0 .12.04.17.12a.68.68 0 0 1 .06.3Zm-.23 7.28a.9.9 0 0 0 .23-.03V190c0 .23-.1.41-.23.41s-.22-.18-.22-.41v-4.73a.9.9 0 0 0 .22.03Zm-1.09-1.3c0 .08.01.15.03.23h-4.92c-.24 0-.43-.1-.43-.23s.2-.23.43-.23h4.92a.9.9 0 0 0-.03.23Zm7.5 0c0 .06-.04.12-.12.16a.67.67 0 0 1-.3.07H311a1.7 1.7 0 0 0 0-.46h4.94c.23 0 .43.1.43.23Zm-6.72-.63-.32.32-2.9-2.9.32-.33 2.57 2.58.33.33Zm3.85-2.59-2.57 2.58-.33.33-.33-.32.34-.33 2.57-2.58.32.32Zm-3.85 3.85-.33.33-2.57 2.58-.32-.32 2.57-2.58.33-.33.32.32Zm3.85 2.59-.32.32-2.9-2.9.32-.33.33.33 2.57 2.58Z"/>
      <path d="M302.6 185.6 301 184l1.6-1.6 1.61 1.6-1.6 1.6Zm-.94-1.6.95.94.94-.94-.94-.94-.95.94Zm9.67-.23-.41-.41-.32-.32-.42-.42-.23-.23-.96.97-.42.41-.22.23.23.23.41.41.32.32.42.42.22.23.23-.23.42-.42.32-.32.64-.64-.23-.23Zm-1.38 1.17-.3-.3-.33-.33-.3-.31.3-.31.32-.32.31-.31.64.63.3.31-.3.31-.64.63Zm7.44.67-1.6-1.61 1.6-1.6L319 184l-1.6 1.6Zm-.94-1.61.94.94.95-.94-.95-.94-.94.94Zm-6.45-5.79-1.6-1.6L310 175l1.6 1.6-1.6 1.61Zm-.94-1.6.94.94.94-.94-.94-.95-.94.95ZM310 193l-1.6-1.6 1.6-1.61 1.6 1.6L310 193Zm-.94-1.6.94.94.94-.95-.94-.94-.94.94Zm6-10.47h-2.03v-2.04h.47v1.57h1.57v.47Zm-1.37 1.37h-2.04v-2.03h.47v1.56h1.57v.47Zm-6.88 6.93h-.47v-1.57h-1.57v-.47h2.04v2.04Zm1.41-1.42h-.47v-1.56h-1.56v-.47h2.03v2.03Zm5.3 1.4h-.47v-2.04h2.04v.47h-1.57v1.57Zm-1.38-1.38h-.47v-2.04h2.04v.47h-1.57v1.57Zm-5.35-6.88h-2.04v-.47h1.57v-1.57h.47v2.04Zm1.41 1.41h-2.04v-.47h1.57v-1.56h.47v2.03Z"/>
      <path d="m308.85 190.25-.34-.34 1.44-1.44 1.44 1.44-.33.34-1.1-1.11-1.11 1.1Zm0-1.96-.34-.33 1.44-1.44 1.44 1.44-.33.33-1.1-1.1-1.11 1.1Zm1.1-8.65-1.44-1.44.34-.33 1.1 1.11 1.11-1.1.34.32-1.45 1.44Zm0 2-1.44-1.43.34-.34 1.1 1.11 1.11-1.1.34.33-1.45 1.44Zm-5.89 3.8-.33-.33 1.1-1.11-1.1-1.1.33-.34 1.44 1.44-1.44 1.44Zm1.95 0-.33-.33 1.1-1.11-1.1-1.1.33-.34 1.44 1.44-1.44 1.44Zm9.76 0-1.44-1.44 1.44-1.44.34.33L315 184l1.1 1.1-.33.34Zm-2 0-1.44-1.44 1.44-1.44.33.33L313 184l1.1 1.1-.33.34Z"/>
    </g>
    <g opacity=".6" fill="#E4EDEF">
      <path d="M267.1 172.68v2.73a.47.47 0 0 0-.25 0v-2.73c0-.14.05-.24.12-.24.04 0 .07.02.1.07a.38.38 0 0 1 .03.17Zm-.13 4.04a.52.52 0 0 0 .13-.01v2.62c0 .13-.06.23-.13.23s-.12-.1-.12-.23v-2.62l.12.01Zm-.6-.72.01.13h-2.73c-.13 0-.24-.06-.24-.13s.1-.13.24-.13h2.73a.53.53 0 0 0-.01.13Zm4.17 0c0 .04-.03.07-.07.09a.38.38 0 0 1-.17.04h-2.74a.98.98 0 0 0 0-.26h2.74c.13 0 .24.06.24.13Zm-3.74-.35-.18.18-1.61-1.62.18-.18 1.43 1.43.18.19Zm2.14-1.44-1.43 1.43-.18.19-.18-.18.18-.19 1.43-1.43.18.18Zm-2.14 2.14-.18.19-1.43 1.43-.18-.18 1.43-1.43.18-.19.18.18Zm2.14 1.44-.18.18-1.61-1.62.18-.18.18.19 1.43 1.43Z"/>
      <path d="m262.9 176.9-.9-.9.9-.9.89.9-.9.9Zm-.53-.9.52.52.53-.52-.53-.52-.52.52Zm5.37-.13-.23-.23-.18-.17-.23-.24-.13-.12-.53.53-.23.23-.13.13.13.13.23.23.18.17.23.23.12.13.13-.12.23-.24.18-.17.36-.36-.13-.13Zm-.77.65-.17-.17-.18-.18-.17-.17.17-.17.18-.18.18-.17.35.35.17.17-.17.17-.35.35Zm4.14.37-.9-.89.9-.9.89.9-.9.9Zm-.53-.89.53.52.52-.52-.52-.52-.53.52Zm-3.58-3.22-.9-.89.9-.89.9.9-.9.88Zm-.52-.89.52.53.52-.53-.52-.52-.52.52ZM267 181l-.9-.9.9-.88.9.89-.9.89Zm-.52-.9.52.53.52-.52-.52-.53-.52.53Zm3.33-5.8h-1.13v-1.14h.26v.87h.87v.26Zm-.76.76h-1.13v-1.13h.26v.87h.87v.26Zm-3.82 3.84h-.26v-.87h-.88v-.26h1.14v1.13Zm.78-.78h-.26v-.87h-.87v-.26h1.13v1.13Zm2.95.77h-.26v-1.13h1.13v.26h-.87v.87Zm-.77-.76h-.26v-1.14h1.13v.26h-.87v.88Zm-2.98-3.82h-1.13v-.27h.87v-.87h.26v1.14Zm.79.78h-1.13v-.26h.87v-.87h.26v1.13Z"/>
      <path d="m266.36 179.47-.19-.19.8-.8.8.8-.18.19-.62-.62-.61.62Zm0-1.08-.19-.19.8-.8.8.8-.18.19-.62-.62-.61.62Zm.61-4.81-.8-.8.19-.18.61.61.62-.61.18.18-.8.8Zm0 1.11-.8-.8.19-.18.61.61.62-.61.18.18-.8.8Zm-3.27 2.11-.18-.18.61-.62-.61-.62.18-.18.8.8-.8.8Zm1.09 0-.19-.18.62-.62-.62-.62.18-.18.8.8-.8.8Zm5.42 0-.8-.8.8-.8.18.18-.61.62.61.62-.18.18Zm-1.11 0-.8-.8.8-.8.18.18-.62.62.62.62-.18.18Z"/>
    </g>
    <g opacity=".6" fill="#E4EDEF">
      <path d="M19.63 9.18v3.56a.62.62 0 0 0-.33 0V9.18c0-.17.08-.31.17-.31.04 0 .08.03.11.09a.5.5 0 0 1 .05.22Zm-.16 5.26a.65.65 0 0 0 .16-.02v3.41c0 .17-.07.3-.16.3-.1 0-.17-.13-.17-.3v-3.41a.66.66 0 0 0 .17.02Zm-.8-.94c0 .06.02.11.03.17h-3.55c-.18 0-.32-.08-.32-.17 0-.09.14-.17.32-.17h3.55a.66.66 0 0 0-.02.17Zm5.43 0c0 .04-.04.09-.1.12a.5.5 0 0 1-.21.05h-3.57a1.24 1.24 0 0 0 0-.34h3.57c.17 0 .3.08.3.17Zm-4.86-.46-.23.24-2.1-2.1.23-.24L19 12.82l.24.23Zm2.78-1.86-1.86 1.86-.24.24-.23-.24.24-.24 1.86-1.85.23.23Zm-2.78 2.78-.24.24-1.86 1.86-.23-.24 1.86-1.86.24-.24.23.24Zm2.78 1.86-.23.23-2.1-2.1.23-.23.24.24 1.86 1.86Z"/>
      <path d="M14.16 14.66 13 13.5l1.16-1.16 1.16 1.16-1.16 1.16Zm-.68-1.16.68.68.68-.68-.68-.68-.68.68Zm6.98-.16-.3-.3-.23-.24-.3-.3-.16-.16-.7.7-.3.3-.16.16.16.17.3.3.23.23.3.3.17.16.16-.16.3-.3.23-.24.47-.46-.17-.17Zm-1 .84-.22-.22-.23-.24-.22-.22.22-.22.23-.24.23-.22.45.46.23.22-.23.22-.45.46Zm5.38.48-1.16-1.16 1.16-1.16L26 13.5l-1.16 1.16Zm-.68-1.16.68.68.68-.68-.68-.68-.68.68ZM19.5 9.32l-1.16-1.16L19.5 7l1.16 1.16-1.16 1.16Zm-.68-1.16.68.68.68-.68-.68-.68-.68.68ZM19.5 20l-1.16-1.16 1.16-1.16 1.16 1.16L19.5 20Zm-.68-1.16.68.68.68-.68-.68-.68-.68.68Zm4.34-7.56h-1.47V9.81h.34v1.13h1.13v.34Zm-1 1H20.7V10.8h.34v1.12h1.13v.34Zm-4.96 5h-.34v-1.14h-1.14v-.34h1.47v1.48Zm1.02-1.03h-.34v-1.13h-1.13v-.34h1.47v1.47Zm3.82 1h-.34V15.8h1.47v.34h-1.13v1.13Zm-1-.99h-.33V14.8h1.47v.34h-1.13v1.13Zm-3.86-4.96H15.7v-.34h1.13V9.83h.34v1.47Zm1.02 1.02h-1.47v-.34h1.13v-1.13h.34v1.47Z"/>
      <path d="m18.67 18.01-.24-.24 1.04-1.04 1.04 1.04-.24.24-.8-.8-.8.8Zm0-1.4-.24-.25 1.04-1.04 1.04 1.04-.24.24-.8-.8-.8.8Zm.8-6.26-1.04-1.04.24-.24.8.8.8-.8.24.24-1.04 1.04Zm0 1.45-1.04-1.04.24-.24.8.8.8-.8.24.24-1.04 1.04Zm-4.26 2.74-.24-.24.8-.8-.8-.8.24-.24 1.04 1.04-1.04 1.04Zm1.41 0-.24-.24.8-.8-.8-.8.24-.24 1.04 1.04-1.04 1.04Zm7.05 0-1.04-1.04 1.04-1.04.24.24-.8.8.8.8-.24.24Zm-1.45 0-1.04-1.04 1.04-1.04.24.24-.8.8.8.8-.24.24Z"/>
    </g>
    <g opacity=".6" fill="#E4EDEF">
      <path d="M175.63 12.18v3.56a.62.62 0 0 0-.33 0v-3.56c0-.17.08-.31.17-.31.04 0 .08.03.11.09a.5.5 0 0 1 .05.22Zm-.16 5.26a.65.65 0 0 0 .16-.02v3.41c0 .17-.07.3-.16.3-.1 0-.17-.13-.17-.3v-3.41a.66.66 0 0 0 .17.02Zm-.8-.94c0 .06.02.11.03.17h-3.55c-.18 0-.32-.08-.32-.17 0-.09.14-.17.32-.17h3.55a.63.63 0 0 0-.02.17Zm5.43 0c0 .04-.04.09-.1.12a.49.49 0 0 1-.21.04h-3.57a1.2 1.2 0 0 0 0-.33h3.57c.17 0 .3.08.3.17Zm-4.86-.46-.23.24-2.1-2.1.23-.24 1.86 1.87.24.23Zm2.78-1.86-1.86 1.86-.24.24-.23-.24.24-.24 1.86-1.85.23.23Zm-2.78 2.78-.24.24-1.86 1.85-.23-.23 1.86-1.86.24-.24.23.24Zm2.78 1.86-.23.23-2.1-2.1.23-.23.24.24 1.86 1.86Z"/>
      <path d="M170.16 17.66 169 16.5l1.16-1.16 1.16 1.16-1.16 1.16Zm-.68-1.16.68.68.68-.68-.68-.68-.68.68Zm6.98-.16-.3-.3-.23-.24-.3-.3-.16-.16-.7.7-.3.3-.16.16.16.17.3.3.23.23.3.3.17.16.16-.16.3-.3.23-.24.47-.46-.17-.17Zm-1 .84-.22-.22-.23-.24-.22-.22.22-.22.23-.24.23-.22.45.46.23.22-.23.22-.45.46Zm5.38.48-1.16-1.16 1.16-1.16L182 16.5l-1.16 1.16Zm-.68-1.16.68.68.68-.68-.68-.68-.68.68Zm-4.66-4.18-1.16-1.16L175.5 10l1.16 1.16-1.16 1.16Zm-.68-1.16.68.68.68-.68-.68-.68-.68.68ZM175.5 23l-1.16-1.16 1.16-1.16 1.16 1.16L175.5 23Zm-.68-1.16.68.68.68-.68-.68-.68-.68.68Zm4.34-7.56h-1.47v-1.47h.34v1.13h1.13v.34Zm-1 1h-1.47V13.8h.34v1.12h1.13v.34Zm-4.97 5h-.33v-1.14h-1.14v-.34h1.47v1.48Zm1.03-1.03h-.34v-1.13h-1.13v-.34h1.47v1.47Zm3.82 1h-.34V18.8h1.47v.34h-1.13v1.13Zm-1-.99h-.33V17.8h1.47v.34h-1.13v1.13Zm-3.86-4.96h-1.47v-.34h1.13v-1.13h.34v1.47Zm1.02 1.02h-1.47v-.34h1.13v-1.13h.34v1.47Z"/>
      <path d="m174.67 21.01-.24-.24 1.04-1.04 1.04 1.04-.24.24-.8-.8-.8.8Zm0-1.4-.24-.25 1.04-1.04 1.04 1.04-.24.24-.8-.8-.8.8Zm.8-6.26-1.04-1.04.24-.24.8.8.8-.8.24.24-1.04 1.04Zm0 1.45-1.04-1.04.24-.24.8.8.8-.8.24.24-1.04 1.04Zm-4.26 2.74-.24-.24.8-.8-.8-.8.24-.24 1.04 1.04-1.04 1.04Zm1.41 0-.24-.24.8-.8-.8-.8.24-.24 1.04 1.04-1.04 1.04Zm7.05 0-1.04-1.04 1.04-1.04.24.24-.8.8.8.8-.24.24Zm-1.45 0-1.04-1.04 1.04-1.04.24.24-.8.8.8.8-.24.24Z"/>
    </g>
    <g opacity=".6" fill="#E4EDEF">
      <path d="M10.08 21.34v2.2a.38.38 0 0 0-.2 0v-2.2c0-.1.04-.2.1-.2.03 0 .05.03.07.06a.3.3 0 0 1 .03.14Zm-.1 3.24a.4.4 0 0 0 .1-.01v2.1c0 .1-.04.18-.1.18-.06 0-.1-.08-.1-.18v-2.1a.4.4 0 0 0 .1 0ZM9.49 24c0 .04 0 .07.02.1H7.32c-.1 0-.2-.04-.2-.1 0-.06.1-.1.2-.1h2.19a.4.4 0 0 0-.02.1Zm3.34 0c0 .03-.02.05-.06.07a.3.3 0 0 1-.13.03h-2.2a.76.76 0 0 0 0-.2h2.2c.1 0 .19.04.19.1Zm-2.99-.28-.14.14-1.3-1.29.15-.14 1.14 1.14.15.15Zm1.71-1.15-1.14 1.15-.15.14-.14-.14.15-.15 1.14-1.14.14.14Zm-1.7 1.71-.16.15-1.14 1.14-.14-.14 1.14-1.15.15-.14.14.14Zm1.7 1.15-.14.14-1.3-1.29.15-.14.15.14 1.14 1.15Z"/>
      <path d="M6.71 24.71 6 24l.71-.71.72.71-.72.71ZM6.3 24l.42.42.42-.42-.42-.42-.42.42Zm4.3-.1-.18-.18-.14-.15-.19-.18-.1-.1-.43.42-.18.19-.1.1.1.1.18.19.14.14.19.18.1.1.1-.1.18-.18.15-.14.28-.29-.1-.1Zm-.61.52-.14-.14-.14-.14-.14-.14.14-.14.14-.14.14-.14.28.28.14.14-.14.14-.28.28Zm3.3.3-.7-.72.7-.71.72.71-.71.71Zm-.41-.72.42.42.42-.42-.42-.42-.42.42ZM10 21.43l-.71-.72L10 20l.71.71-.71.72Zm-.42-.72.42.42.42-.42-.42-.41-.42.41ZM10 28l-.71-.71.71-.72.71.72L10 28Zm-.42-.71.42.42.42-.42-.42-.42-.42.42Zm2.67-4.66h-.9v-.9h.2v.7h.7v.2Zm-.61.62h-.9v-.9h.2v.69h.7v.2Zm-3.06 3.07h-.2v-.7h-.7v-.2h.9v.9Zm.63-.63h-.2V25h-.7v-.2h.9v.9Zm2.35.62h-.2v-.9h.9v.2h-.7v.7Zm-.6-.61h-.22v-.9h.9v.2h-.69v.7Zm-2.39-3.06h-.9v-.2h.7v-.7h.2v.9Zm.63.63h-.9v-.2H9v-.7h.2v.9Z"/>
      <path d="m9.49 26.77-.15-.14.64-.64.64.64-.15.15-.5-.5-.48.5Zm0-.86-.15-.15.64-.64.64.64-.15.15-.5-.5-.48.5Zm.49-3.85-.64-.64.15-.14.49.49.5-.5.14.15-.64.64Zm0 .9-.64-.65.15-.14.49.49.5-.5.14.15-.64.64Zm-2.62 1.68-.15-.15.5-.49-.5-.5.15-.14L8 24l-.64.64Zm.87 0-.15-.15.5-.49-.5-.5.15-.14.64.64-.64.64Zm4.34 0-.64-.64.64-.64.14.15-.49.49.5.5-.15.14Zm-.9 0-.63-.64.64-.64.14.15-.49.49.5.5-.15.14Z"/>
    </g>
    <g opacity=".6" fill="#E4EDEF">
      <path d="M60.08 50.34v2.2a.38.38 0 0 0-.2 0v-2.2c0-.1.04-.2.1-.2.03 0 .05.03.07.07a.3.3 0 0 1 .03.13Zm-.1 3.24a.4.4 0 0 0 .1-.01v2.1c0 .1-.04.18-.1.18-.06 0-.1-.08-.1-.18v-2.1a.4.4 0 0 0 .1 0Zm-.49-.58c0 .04 0 .07.02.1h-2.19c-.1 0-.2-.04-.2-.1 0-.06.1-.1.2-.1h2.19a.4.4 0 0 0-.02.1Zm3.34 0c0 .03-.02.05-.06.07a.3.3 0 0 1-.13.03h-2.2a.76.76 0 0 0 0-.2h2.2c.1 0 .19.04.19.1Zm-2.99-.28-.14.14-1.3-1.29.15-.14 1.14 1.14.15.15Zm1.71-1.15-1.14 1.14-.15.15-.14-.14.14-.15 1.15-1.14.14.14Zm-1.7 1.71-.16.15-1.14 1.14-.14-.14 1.14-1.14.15-.15.14.14Zm1.7 1.15-.14.14-1.3-1.29.15-.14.15.15 1.14 1.14Z"/>
      <path d="M56.71 53.71 56 53l.71-.71.72.71-.72.71ZM56.3 53l.41.42.42-.42-.42-.42-.42.42Zm4.3-.1-.2-.18-.13-.15-.19-.18-.1-.1-.43.42-.18.19-.1.1.1.1.18.18.14.15.19.18.1.1.1-.1.18-.18.15-.15.28-.28-.1-.1Zm-.62.52-.14-.14-.14-.14-.14-.14.14-.14.14-.14.14-.14.28.28.14.14-.14.14-.28.28Zm3.3.3-.7-.72.7-.71.72.71-.71.71Zm-.41-.72.42.42.41-.42-.41-.42-.42.42ZM60 50.43l-.71-.72L60 49l.71.71-.71.72Zm-.42-.72.42.42.42-.42-.42-.42-.42.42ZM60 57l-.71-.71.71-.72.71.72L60 57Zm-.42-.71.42.42.42-.42-.42-.42-.42.42Zm2.67-4.66h-.9v-.9h.2v.7h.7v.2Zm-.61.62h-.9v-.9h.2v.69h.7v.2Zm-3.06 3.07h-.2v-.7h-.7v-.2h.9v.9Zm.63-.63h-.2V54h-.7v-.2h.9v.9Zm2.35.62h-.2v-.9h.9v.2h-.7v.7Zm-.6-.61h-.22v-.9h.9v.2h-.69v.7Zm-2.39-3.06h-.9v-.2h.7v-.7h.2v.9Zm.63.63h-.9v-.2h.7v-.7h.2v.9Z"/>
      <path d="m59.49 55.77-.15-.14.64-.64.64.64-.15.14-.5-.49-.48.5Zm0-.86-.15-.15.64-.64.64.64-.15.15-.5-.5-.48.5Zm.49-3.85-.64-.64.15-.14.49.49.5-.5.14.15-.64.64Zm0 .9-.64-.65.15-.14.49.49.5-.5.14.15-.64.64Zm-2.62 1.68-.15-.15.5-.49-.5-.5.15-.14.64.64-.64.64Zm.87 0-.15-.15.5-.49-.5-.5.15-.14.64.64-.64.64Zm4.34 0-.64-.64.64-.64.14.15-.49.49.5.5-.15.14Zm-.9 0-.63-.64.64-.64.14.15-.49.49.5.5-.15.14Z"/>
    </g>
    <g opacity=".6" fill="#E4EDEF">
      <path d="M66.08 6.34v2.19a.38.38 0 0 0-.2 0V6.34c0-.1.04-.2.1-.2.03 0 .05.03.07.06a.3.3 0 0 1 .03.14Zm-.1 3.24a.4.4 0 0 0 .1-.01v2.1c0 .1-.04.18-.1.18-.06 0-.1-.08-.1-.18v-2.1a.4.4 0 0 0 .1 0ZM65.49 9c0 .04 0 .07.02.1h-2.19c-.1 0-.2-.04-.2-.1 0-.06.1-.1.2-.1h2.19a.4.4 0 0 0-.02.1Zm3.34 0c0 .03-.02.05-.06.07a.3.3 0 0 1-.13.03h-2.2a.76.76 0 0 0 0-.2h2.2c.1 0 .19.04.19.1Zm-2.99-.28-.14.14-1.3-1.29.15-.14 1.14 1.14.15.15Zm1.71-1.15-1.14 1.14-.15.15-.14-.14.15-.15 1.14-1.14.14.14Zm-1.7 1.71-.16.15-1.14 1.14-.14-.14 1.14-1.15.15-.14.14.14Zm1.7 1.15-.14.14-1.3-1.29.15-.14.15.14 1.14 1.15Z"/>
      <path d="M62.71 9.71 62 9l.71-.71.72.71-.72.71ZM62.3 9l.41.42.42-.42-.42-.42-.42.42Zm4.3-.1-.2-.19-.14-.14-.18-.18-.1-.1-.43.42-.18.19-.1.1.1.1.18.18.14.15.19.18.1.1.1-.1.18-.18.15-.15.28-.28-.1-.1Zm-.62.52-.14-.14-.14-.14-.14-.14.14-.14.14-.14.14-.14.28.28.14.14-.14.14-.28.28Zm3.3.3-.7-.72.7-.71L70 9l-.71.71ZM68.88 9l.42.42.41-.42-.41-.42-.42.42ZM66 6.43l-.71-.72L66 5l.71.71-.71.72Zm-.42-.72.42.42.42-.42L66 5.3l-.42.42ZM66 13l-.71-.71.71-.72.71.72L66 13Zm-.42-.71.42.42.42-.42-.42-.42-.42.42Zm2.67-4.66h-.9v-.9h.2v.7h.7v.2Zm-.61.62h-.9v-.9h.2v.69h.7v.2Zm-3.06 3.07h-.2v-.7h-.7v-.2h.9v.9Zm.63-.63h-.2V10h-.7v-.2h.9v.9Zm2.36.62h-.21v-.9h.9v.2h-.7v.7Zm-.62-.61h-.2v-.9h.9v.2h-.7v.7Zm-2.38-3.06h-.9v-.2h.7v-.7h.2v.9Zm.63.63h-.9v-.2h.7v-.7h.2v.9Z"/>
      <path d="m65.49 11.78-.15-.15.64-.64.64.64-.15.14-.5-.49-.48.5Zm0-.87-.15-.15.64-.64.64.64-.15.15-.5-.5-.48.5Zm.49-3.85-.64-.64.15-.14.49.49.5-.5.14.15-.64.64Zm0 .9-.64-.65.15-.14.49.49.5-.5.14.15-.64.64Zm-2.62 1.68-.15-.15.5-.49-.5-.5.15-.14L64 9l-.64.64Zm.87 0-.15-.15.5-.49-.5-.5.15-.14.64.64-.64.64Zm4.34 0L67.93 9l.64-.64.14.15-.49.49.5.5-.15.14Zm-.9 0L67.05 9l.64-.64.14.15-.49.49.5.5-.16.14Z"/>
    </g>
    <path d="M66.08 177.34v2.2a.37.37 0 0 0-.2 0v-2.2c0-.1.04-.2.1-.2.03 0 .05.03.07.07a.3.3 0 0 1 .03.13Zm-.1 3.24a.37.37 0 0 0 .1-.01v2.1c0 .1-.04.18-.1.18-.06 0-.1-.08-.1-.18v-2.1a.38.38 0 0 0 .1 0Zm-.49-.58c0 .04 0 .07.02.1h-2.19c-.1 0-.2-.04-.2-.1 0-.06.1-.1.2-.1h2.19a.4.4 0 0 0-.02.1Zm3.34 0c0 .03-.02.05-.06.07a.3.3 0 0 1-.13.03h-2.2a.76.76 0 0 0 0-.2h2.2c.1 0 .19.04.19.1Zm-2.99-.28-.14.14-1.3-1.29.15-.14 1.14 1.14.15.15Zm1.71-1.15-1.14 1.15-.15.14-.14-.14.15-.15 1.14-1.14.14.14Zm-1.7 1.71-.16.15-1.14 1.14-.14-.14 1.14-1.15.15-.14.14.14Zm1.7 1.15-.14.14-1.3-1.29.15-.14.15.15 1.14 1.14Z" fill="#E4EDEF"/>
    <path d="M62.71 180.71 62 180l.71-.71.72.71-.72.71Zm-.42-.71.42.42.42-.42-.42-.42-.42.42Zm4.3-.1-.18-.19-.14-.14-.19-.18-.1-.1-.43.43-.18.18-.1.1.1.1.18.19.14.14.19.18.1.1.1-.1.18-.18.15-.15.28-.28-.1-.1Zm-.61.52-.14-.14-.14-.14-.14-.14.14-.14.14-.14.14-.14.28.28.14.14-.14.14-.28.28Zm3.3.3-.7-.72.7-.71.72.71-.71.71Zm-.41-.72.42.42.41-.42-.41-.42-.42.42ZM66 177.43l-.71-.72.71-.71.71.71-.71.72Zm-.42-.72.42.42.42-.42-.42-.42-.42.42ZM66 184l-.71-.71.71-.72.71.72-.71.71Zm-.42-.71.42.42.42-.42-.42-.42-.42.42Zm2.67-4.66h-.9v-.9h.2v.7h.7v.2Zm-.61.62h-.9v-.9h.2v.69h.7v.2Zm-3.06 3.07h-.2v-.7h-.7v-.2h.9v.9Zm.63-.63h-.2v-.7h-.7v-.2h.9v.9Zm2.36.62h-.21v-.9h.9v.2h-.7v.7Zm-.62-.6h-.2v-.91h.9v.2h-.7v.7Zm-2.38-3.07h-.9v-.2h.7v-.7h.2v.9Zm.63.63h-.9v-.2h.7v-.7h.2v.9Z" fill="#E4EDEF"/>
    <path d="m65.49 182.78-.15-.15.64-.64.64.64-.15.15-.5-.5-.48.5Zm0-.87-.15-.15.64-.64.64.64-.15.15-.5-.5-.48.5Zm.49-3.85-.64-.64.15-.14.49.49.5-.5.14.15-.64.64Zm0 .9-.64-.65.15-.14.49.49.5-.5.14.15-.64.64Zm-2.62 1.68-.15-.15.5-.49-.5-.5.15-.14.64.64-.64.64Zm.87 0-.15-.15.5-.49-.5-.5.15-.14.64.64-.64.64Zm4.34 0-.64-.64.64-.64.14.15-.49.49.5.5-.15.14Zm-.9 0-.63-.64.64-.64.14.15-.49.49.5.5-.15.14Zm12.96-25.46v3.56a.6.6 0 0 0-.33 0v-3.56c0-.17.08-.31.17-.31.04 0 .08.03.11.09s.05.13.05.22Zm-.16 5.26a.63.63 0 0 0 .16-.02v3.41c0 .17-.07.3-.16.3-.1 0-.17-.13-.17-.3v-3.41a.64.64 0 0 0 .17.02Zm-.8-.94c0 .06.02.11.03.17h-3.55c-.18 0-.32-.08-.32-.17 0-.09.14-.16.32-.16h3.55a.65.65 0 0 0-.02.16Zm5.43 0c0 .04-.04.09-.1.12a.48.48 0 0 1-.21.05h-3.57a1.25 1.25 0 0 0 0-.33h3.57c.17 0 .3.07.3.16Zm-4.86-.46-.23.24-2.1-2.1.23-.23L80 158.8l.24.24Zm2.78-1.86-1.86 1.86-.24.24-.23-.24.24-.24 1.86-1.85.23.23Zm-2.78 2.78-.24.24-1.86 1.86-.23-.24 1.86-1.86.24-.24.23.24Zm2.78 1.86-.23.23-2.1-2.1.23-.23.24.24 1.86 1.86Z" fill="#E4EDEF"/>
    <path d="M75.16 160.66 74 159.5l1.16-1.16 1.16 1.16-1.16 1.16Zm-.68-1.16.68.68.68-.68-.68-.68-.68.68Zm6.98-.16-.3-.3-.23-.24-.3-.3-.16-.16-.7.7-.3.3-.16.16.16.17.3.3.23.23.3.3.17.16.16-.16.3-.3.23-.24.47-.46-.17-.17Zm-1 .84-.22-.22-.23-.24-.22-.22.22-.22.23-.24.23-.22.45.46.23.22-.23.22-.45.46Zm5.38.48-1.16-1.16 1.16-1.16L87 159.5l-1.16 1.16Zm-.68-1.16.68.68.68-.68-.68-.68-.68.68Zm-4.66-4.18-1.16-1.16L80.5 153l1.16 1.16-1.16 1.16Zm-.68-1.16.68.68.68-.68-.68-.68-.68.68ZM80.5 166l-1.16-1.16 1.16-1.16 1.16 1.16L80.5 166Zm-.68-1.16.68.68.68-.68-.68-.68-.68.68Zm4.34-7.56h-1.47v-1.47h.34v1.13h1.13v.34Zm-1 1H81.7v-1.48h.34v1.14h1.13v.34Zm-4.97 5h-.34v-1.14h-1.13v-.33h1.47v1.47Zm1.03-1.03h-.34v-1.13h-1.13v-.34h1.47v1.47Zm3.82 1h-.34v-1.46h1.47v.34h-1.13v1.13Zm-1-.99h-.33v-1.47h1.47v.34h-1.13v1.13Zm-3.86-4.96H76.7v-.34h1.13v-1.14h.34v1.48Zm1.02 1.02h-1.47v-.34h1.13v-1.13h.34v1.47Z" fill="#E4EDEF"/>
    <path d="m79.67 164.01-.24-.24 1.04-1.04 1.04 1.04-.24.24-.8-.8-.8.8Zm0-1.4-.24-.25 1.04-1.04 1.04 1.04-.24.24-.8-.8-.8.8Zm.8-6.26-1.04-1.04.24-.24.8.8.8-.8.24.24-1.04 1.04Zm0 1.45-1.04-1.04.24-.24.8.8.8-.8.24.24-1.04 1.04Zm-4.26 2.74-.24-.24.8-.8-.8-.8.24-.24 1.04 1.04-1.04 1.04Zm1.41 0-.24-.24.8-.8-.8-.8.24-.24 1.04 1.04-1.04 1.04Zm7.05 0-1.04-1.04 1.04-1.04.24.24-.8.8.8.8-.24.24Zm-1.45 0-1.04-1.04 1.04-1.04.24.24-.8.8.8.8-.24.24Zm28.86 28.8v2.2a.38.38 0 0 0-.2 0v-2.2c0-.1.04-.2.1-.2.03 0 .05.03.07.07a.3.3 0 0 1 .03.13Zm-.1 3.24a.37.37 0 0 0 .1-.01v2.1c0 .1-.04.18-.1.18-.06 0-.1-.08-.1-.18v-2.1a.38.38 0 0 0 .1 0Zm-.49-.58c0 .04 0 .07.02.1h-2.19c-.1 0-.2-.04-.2-.1 0-.06.1-.1.2-.1h2.19a.37.37 0 0 0-.02.1Zm3.34 0c0 .03-.02.05-.06.07a.3.3 0 0 1-.13.03h-2.2a.8.8 0 0 0 0-.2h2.2c.1 0 .19.04.19.1Zm-2.99-.28-.14.14-1.3-1.29.15-.14 1.14 1.14.15.15Zm1.71-1.15-1.14 1.15-.15.14-.14-.14.15-.15 1.14-1.14.14.14Zm-1.7 1.71-.16.15-1.14 1.14-.14-.14 1.14-1.15.15-.14.14.14Zm1.7 1.15-.14.14-1.3-1.29.15-.14.15.15 1.14 1.14Z" fill="#E4EDEF"/>
    <path d="M108.71 192.71 108 192l.71-.71.72.71-.72.71Zm-.41-.71.41.42.42-.42-.42-.42-.41.42Zm4.3-.1-.2-.19-.14-.14-.18-.18-.1-.1-.43.43-.18.18-.1.1.1.1.18.19.14.14.19.18.1.1.1-.1.19-.18.14-.15.28-.28-.1-.1Zm-.62.52-.14-.14-.14-.14-.14-.14.14-.14.14-.14.14-.14.28.28.14.14-.14.14-.28.28Zm3.3.3-.7-.72.7-.71.72.71-.71.71Zm-.41-.72.42.42.41-.42-.41-.42-.42.42Zm-2.87-2.57-.71-.72.71-.71.71.71-.71.72Zm-.42-.72.42.42.42-.42-.42-.42-.42.42Zm2.67 1.92h-.9v-.9h.2v.7h.7v.2Zm-.61.62h-.9v-.9h.2v.69h.7v.2Zm-3.06 3.07h-.2v-.7h-.7v-.2h.9v.9Zm.63-.63h-.2v-.7h-.7v-.2h.9v.9Zm2.36.62h-.21v-.9h.9v.2h-.7v.7Zm-.62-.6h-.2v-.91h.9v.2h-.7v.7Zm-2.38-3.07h-.9v-.2h.7v-.7h.2v.9Zm.63.63h-.9v-.2h.7v-.7h.2v.9Zm.29 3.5-.15-.14.64-.64.64.64-.15.15-.5-.5-.48.5Zm0-.86-.15-.15.64-.64.64.64-.15.15-.5-.5-.48.5Z" fill="#E4EDEF"/>
    <path d="m111.98 190.06-.64-.64.15-.14.49.49.5-.5.14.15-.64.64Zm0 .9-.64-.65.15-.14.49.49.5-.5.14.15-.64.64Zm-2.62 1.68-.15-.15.5-.49-.5-.5.15-.14.64.64-.64.64Zm.87 0-.15-.15.5-.49-.5-.5.15-.14.64.64-.64.64Zm4.33 0-.64-.64.64-.64.15.15-.49.49.5.5-.16.14Zm-.88 0-.64-.64.64-.64.14.15-.49.49.5.5-.15.14Z" fill="#E4EDEF"/>
    <g opacity=".6" fill="#E4EDEF">
      <path d="M232.08 5.34v2.19a.38.38 0 0 0-.2 0V5.34c0-.1.04-.2.1-.2.03 0 .05.03.07.06a.3.3 0 0 1 .03.14Zm-.1 3.24a.4.4 0 0 0 .1-.01v2.1c0 .1-.05.18-.1.18-.06 0-.1-.08-.1-.18v-2.1a.4.4 0 0 0 .1 0Zm-.49-.58c0 .04 0 .07.02.1h-2.19c-.1 0-.2-.04-.2-.1 0-.06.1-.1.2-.1h2.19a.37.37 0 0 0-.02.1Zm3.34 0c0 .03-.02.05-.06.07a.3.3 0 0 1-.13.03h-2.2a.8.8 0 0 0 0-.2h2.2c.1 0 .19.04.19.1Zm-2.99-.28-.14.14-1.3-1.29.15-.14 1.14 1.14.15.15Zm1.71-1.15-1.14 1.14-.15.15-.14-.14.14-.15 1.15-1.14.14.14Zm-1.7 1.71-.16.15-1.14 1.14-.14-.14 1.14-1.15.15-.14.14.14Zm1.7 1.15-.14.14-1.3-1.29.15-.14.15.14 1.14 1.15Z"/>
      <path d="M228.71 8.71 228 8l.71-.71.72.71-.72.71ZM228.3 8l.42.42.42-.42-.42-.42-.42.42Zm4.3-.1-.18-.19-.14-.14-.19-.18-.1-.1-.43.43-.18.18-.1.1.1.1.18.19.14.14.19.18.1.1.1-.1.19-.18.14-.15.28-.28-.1-.1Zm-.61.52-.14-.14-.14-.14-.14-.14.14-.14.14-.14.14-.14.28.28.14.14-.14.14-.28.28Zm3.3.3-.7-.72.7-.71.72.71-.71.71Zm-.41-.72.42.42.42-.42-.42-.42-.42.42ZM232 5.43l-.71-.72L232 4l.71.71-.71.72Zm-.42-.72.42.42.42-.42-.42-.41-.42.41ZM232 12l-.71-.71.71-.72.71.72-.71.71Zm-.42-.71.42.42.42-.42-.42-.42-.42.42Zm2.67-4.66h-.9v-.9h.2v.7h.7v.2Zm-.61.62h-.9v-.9h.2v.69h.7v.2Zm-3.06 3.07h-.2v-.7h-.7v-.2h.9v.9Zm.63-.63h-.2V9h-.7v-.2h.9v.9Zm2.35.62h-.2v-.9h.9v.2h-.7v.7Zm-.6-.61h-.22v-.9h.9V9h-.69v.7Zm-2.39-3.06h-.9v-.2h.7v-.7h.2v.9Zm.63.63h-.9v-.2h.7v-.7h.2v.9Z"/>
      <path d="m231.49 10.78-.15-.15.64-.64.64.64-.15.14-.5-.49-.48.5Zm0-.87-.15-.15.64-.64.64.64-.15.15-.5-.5-.48.5Zm.49-3.85-.64-.64.15-.14.49.49.5-.5.14.15-.64.64Zm0 .9-.64-.65.15-.14.49.49.5-.5.14.15-.64.64Zm-2.62 1.68-.15-.15.5-.49-.5-.5.15-.14.64.64-.64.64Zm.87 0-.15-.15.5-.49-.5-.5.15-.14.64.64-.64.64Zm4.34 0-.64-.64.64-.64.14.15-.49.49.5.5-.16.14Zm-.9 0-.63-.64.64-.64.14.15-.49.49.5.5-.15.14Z"/>
    </g>
    <g opacity=".6" fill="#E4EDEF">
      <path d="M188.08 21.34v2.2a.38.38 0 0 0-.2 0v-2.2c0-.1.04-.2.1-.2.03 0 .05.03.07.06a.3.3 0 0 1 .03.14Zm-.1 3.24a.4.4 0 0 0 .1-.01v2.1c0 .1-.05.18-.1.18-.06 0-.1-.08-.1-.18v-2.1a.4.4 0 0 0 .1 0Zm-.49-.58c0 .04 0 .07.02.1h-2.19c-.1 0-.2-.04-.2-.1 0-.06.1-.1.2-.1h2.19a.37.37 0 0 0-.02.1Zm3.34 0c0 .03-.02.05-.06.07a.3.3 0 0 1-.13.03h-2.2a.8.8 0 0 0 0-.2h2.2c.1 0 .19.04.19.1Zm-2.99-.28-.14.14-1.3-1.29.15-.14 1.14 1.14.15.15Zm1.71-1.15-1.14 1.15-.15.14-.14-.14.14-.15 1.15-1.14.14.14Zm-1.7 1.71-.16.15-1.14 1.14-.14-.14 1.14-1.15.15-.14.14.14Zm1.7 1.15-.14.14-1.3-1.29.15-.14.15.14 1.14 1.15Z"/>
      <path d="M184.71 24.71 184 24l.71-.71.72.71-.72.71Zm-.42-.71.42.42.42-.42-.42-.42-.42.42Zm4.3-.1-.18-.18-.14-.15-.19-.18-.1-.1-.43.42-.18.19-.1.1.1.1.18.19.14.14.19.18.1.1.1-.1.19-.18.14-.14.28-.29-.1-.1Zm-.61.52-.14-.14-.14-.14-.14-.14.14-.14.14-.14.14-.14.28.28.14.14-.14.14-.28.28Zm3.3.3-.7-.72.7-.71.72.71-.71.71Zm-.41-.72.42.42.42-.42-.42-.42-.42.42ZM188 21.43l-.71-.72.71-.71.71.71-.71.72Zm-.42-.72.42.42.42-.42-.42-.41-.42.41ZM188 28l-.71-.71.71-.72.71.72-.71.71Zm-.42-.71.42.42.42-.42-.42-.42-.42.42Zm2.67-4.66h-.9v-.9h.2v.7h.7v.2Zm-.61.62h-.9v-.9h.2v.69h.7v.2Zm-3.06 3.07h-.2v-.7h-.7v-.2h.9v.9Zm.63-.63h-.2V25h-.7v-.2h.9v.9Zm2.35.62h-.2v-.9h.9v.2h-.7v.7Zm-.6-.61h-.22v-.9h.9v.2h-.69v.7Zm-2.39-3.06h-.9v-.2h.7v-.7h.2v.9Zm.63.63h-.9v-.2h.7v-.7h.2v.9Z"/>
      <path d="m187.49 26.77-.15-.14.64-.64.64.64-.15.15-.5-.5-.48.5Zm0-.86-.15-.15.64-.64.64.64-.15.15-.5-.5-.48.5Zm.49-3.85-.64-.64.15-.14.49.49.5-.5.14.15-.64.64Zm0 .9-.64-.65.15-.14.49.49.5-.5.14.15-.64.64Zm-2.62 1.68-.15-.15.5-.49-.5-.5.15-.14.64.64-.64.64Zm.87 0-.15-.15.5-.49-.5-.5.15-.14.64.64-.64.64Zm4.34 0-.64-.64.64-.64.14.15-.49.49.5.5-.16.14Zm-.9 0-.63-.64.64-.64.14.15-.49.49.5.5-.15.14Z"/>
    </g>
    <g opacity=".6" fill="#E4EDEF">
      <path d="M183.06 5v1.65a.3.3 0 0 0-.15 0V5c0-.08.03-.15.08-.15.02 0 .04.02.05.04a.22.22 0 0 1 .02.1ZM183 7.44a.31.31 0 0 0 .07 0V9c0 .08-.03.14-.07.14-.05 0-.08-.06-.08-.14V7.42l.08.01Zm-.37-.43.01.08H181c-.08 0-.14-.04-.14-.08s.06-.08.14-.08h1.64a.27.27 0 0 0 0 .08Zm2.5 0c0 .02-.01.04-.04.05a.23.23 0 0 1-.1.03h-1.65a.55.55 0 0 0 0-.16h1.65c.08 0 .14.04.14.08Zm-2.24-.21-.1.1-.97-.96.1-.1.86.85.11.1Zm1.28-.86-.85.86-.11.1-.11-.1.1-.11.87-.86.1.1Zm-1.28 1.28-.1.11-.87.86-.1-.1.85-.87.11-.1.11.1Zm1.28.86-.1.1-.97-.96.1-.1.12.1.85.86Z"/>
      <path d="M180.53 7.54 180 7l.54-.54.53.54-.53.54Zm-.3-.54.3.31.32-.31-.32-.31-.3.31Zm3.21-.08-.13-.13-.11-.11-.14-.14-.08-.07-.32.32-.14.13-.07.08.07.08.14.13.11.11.14.14.07.07.08-.07.14-.14.1-.1.22-.22-.08-.08Zm-.46.4-.1-.1-.1-.12-.1-.1.1-.1.1-.11.1-.1.21.2.1.11-.1.1-.2.21Zm2.49.21-.54-.53.53-.54.54.54-.54.54Zm-.32-.53.32.31.3-.31-.3-.31-.32.31ZM183 5.07l-.54-.54L183 4l.54.54-.54.53Zm-.31-.54.31.32.31-.31-.31-.32-.31.32ZM183 10l-.54-.54.54-.53.54.54-.54.53Zm-.31-.54.31.32.31-.31-.31-.32-.31.32Zm2-3.49H184V5.3h.16v.52h.52v.15Zm-.46.46h-.68v-.68h.16v.53h.52v.15Zm-2.3 2.31h-.15v-.52h-.52v-.16h.68v.68Zm.48-.47h-.16v-.52h-.52v-.16h.68v.68Zm1.76.46h-.15v-.67h.68v.15h-.53v.52Zm-.46-.45h-.15V7.6h.68v.15h-.53v.53Zm-1.78-2.3h-.68v-.15h.52V5.3h.16v.68Zm.47.47h-.68V6.3h.52v-.52h.16v.68Z"/>
      <path d="m182.62 9.08-.11-.1.48-.49.47.48-.1.11-.38-.37-.37.37Zm0-.65-.11-.1.48-.49.47.48-.1.11-.38-.37-.37.37Zm.37-2.88-.48-.48.1-.11.38.37.36-.37.12.1-.48.49Zm0 .67-.48-.48.1-.12.38.37.36-.37.12.11-.48.48Zm-1.97 1.26-.1-.11.36-.37-.37-.37.11-.11.48.48-.48.48Zm.65 0-.11-.11.37-.37-.37-.37.11-.11.48.48-.48.48Zm3.25 0-.48-.48.48-.48.12.11-.37.37.37.37-.12.11Zm-.66 0-.48-.48.48-.48.1.11L184 7l.37.37-.11.11Z"/>
    </g>
    <path d="M109.62 193.86a565.2 565.2 0 0 1-41.15 1.12 504.32 504.32 0 0 1-34.41-1.3c-4.6-18-4.47-35.68-3.93-48.06 20.76-1.94 67.42-1.06 83.37 0 1.67 16.6-3.85 49.48-3.88 48.24Z" fill="#F5B818"/>
    <path d="M109.62 193.86a565.34 565.34 0 0 1-41.15 1.12c-20.58-.15-34.42-1.3-34.42-1.3a122.03 122.03 0 0 1-1.82-8.44c48.66.81 51.76-34.98 51.94-40.62 12.2.2 23.1.59 29.32 1 1.68 16.6-3.84 49.48-3.87 48.24Z" fill="#E09F0E"/>
    <path d="m116.24 151.15-2.51.02-42.4.26h-2.86l-38.57.24-3.17.02c-.9-6.07-.72-12.41-.72-12.41 12.87-.95 26.3-1.32 38.76-1.36l2.21-.01h4.59l1.19.01c.69 0 1.38.02 2.06.03 23.8.2 41.95 1.42 41.96 1.42.52 5.9-.54 11.78-.54 11.78Z" fill="#2D9161"/>
    <path d="M58.67 137.92V195h-1.45l-1.42-.02v-57.07h2.87Z" fill="#073F2A"/>
    <path d="M90.46 156.94a2.3 2.3 0 0 1-2.33-2.27 2.33 2.33 0 0 1 2.33-2.28c1.28 0 2.34 1 2.34 2.28a2.3 2.3 0 0 1-2.34 2.27ZM66.3 171.27a2.33 2.33 0 0 0-2.33-2.28 2.3 2.3 0 0 0-2.34 2.28 2.3 2.3 0 0 0 2.34 2.28 2.33 2.33 0 0 0 2.33-2.28Zm7.05-12.6c0-.67-.55-1.23-1.27-1.23-.67 0-1.28.56-1.28 1.22 0 .67.56 1.22 1.28 1.22s1.27-.55 1.27-1.22Zm13.39 12.6c0-.67-.56-1.22-1.28-1.22-.66 0-1.27.55-1.27 1.22 0 .67.55 1.22 1.27 1.22s1.28-.55 1.28-1.22Zm17.72-14.33c0-.66-.56-1.22-1.28-1.22-.67 0-1.28.56-1.28 1.22 0 .67.56 1.22 1.28 1.22s1.28-.55 1.28-1.22Zm-58.32 17.89c0-.67-.56-1.23-1.28-1.23-.66 0-1.27.56-1.27 1.23 0 .66.55 1.22 1.27 1.22s1.28-.5 1.28-1.22Zm60.87 2.8c0-.66-.55-1.21-1.28-1.21-.66 0-1.27.55-1.27 1.22 0 .66.55 1.22 1.27 1.22.73 0 1.28-.5 1.28-1.22Zm-28.6 1.23c0-.67-.56-1.22-1.28-1.22-.67 0-1.28.55-1.28 1.22 0 .66.56 1.22 1.28 1.22s1.28-.55 1.28-1.22Zm12.94 7.28a2.3 2.3 0 0 0-2.34-2.28 2.3 2.3 0 0 0-2.33 2.28 2.3 2.3 0 0 0 2.33 2.27c1.28 0 2.34-1 2.34-2.27Zm15.83 3.94a2.33 2.33 0 0 0-2.34-2.28 2.3 2.3 0 0 0-2.33 2.28 2.3 2.3 0 0 0 2.33 2.27c1.28 0 2.34-1 2.34-2.27Zm-33.44-3.94a2.3 2.3 0 0 0-2.33-2.28 2.3 2.3 0 0 0-2.34 2.28 2.3 2.3 0 0 0 2.34 2.27c1.33 0 2.33-1 2.33-2.27ZM38.92 156.3c0-.67-.55-1.22-1.27-1.22-.67 0-1.28.55-1.28 1.22 0 .67.56 1.22 1.28 1.22s1.27-.5 1.27-1.22Zm-1.62 26.05a2.3 2.3 0 0 0-2.33-2.28 2.3 2.3 0 0 0-2.33 2.28 2.3 2.3 0 0 0 2.33 2.28c1.28 0 2.34-1 2.34-2.28Zm14.14 6.58a2.33 2.33 0 0 0-2.33-2.27 2.3 2.3 0 0 0-2.34 2.27 2.3 2.3 0 0 0 2.34 2.28c1.27 0 2.33-1 2.33-2.28Zm-.63-28.61a2.3 2.3 0 0 0-2.34-2.28 2.3 2.3 0 0 0-2.33 2.28 2.3 2.3 0 0 0 2.33 2.27 2.33 2.33 0 0 0 2.34-2.27Zm49.26 11.02a2.33 2.33 0 0 0-2.33-2.27 2.3 2.3 0 0 0-2.34 2.27 2.3 2.3 0 0 0 2.34 2.28c1.27 0 2.33-1 2.33-2.28Z" fill="#fff"/>
    <path d="M113.3 165.02c-.07.96-.15 1.91-.24 2.86H30.2l-.15-2.86h83.26Zm-54.4-27.1-.26-1.3v-.06a27.45 27.45 0 0 0-1.45-5.05c-2.14-5.34-5.14-6.82-5.55-7.01-1.9-.84-3.95-.62-6.07.68-2.47 1.5-3.45 3.88-2.6 6.36 1.16 3.44 4.96 5.6 9.13 6.38.68.13 1.36.22 2.05.26.49.04.98.07 1.46.07h.2c.28 0 .55-.02.82-.03.17 0 .34-.03.5-.04H57.2l.33-.04 1.15-.12.24-.02-.02-.08Zm-13.5-7.21c-.44-1.33.05-2.45 1.5-3.33.87-.52 1.67-.79 2.41-.79.44 0 .86.1 1.27.27 2.68 1.19 4.43 5.92 5.2 8.81-5.37.13-9.49-2.35-10.38-4.96Z" fill="#073F2A"/>
    <path d="M68.8 125.18c-2.12-1.3-4.16-1.53-6.06-.68-.41.18-3.42 1.67-5.55 7a26.7 26.7 0 0 0-1.38 4.7l-.09.42-.25 1.29-.01.09.35.03.71.08.34.03.27.03h.06c.48.05.98.08 1.48.08h.1c.53 0 1.06-.03 1.6-.08a15.98 15.98 0 0 0 1.78-.22c4.22-.76 8.08-2.93 9.26-6.41.84-2.49-.13-4.87-2.6-6.36Zm.16 5.52c-.88 2.62-5.01 5.08-10.37 4.97.77-2.9 2.52-7.61 5.2-8.8 1.1-.5 2.3-.32 3.68.5 1.44.9 1.94 2.01 1.49 3.34Z" fill="#073F2A"/>
    <path d="M43.63 147.34c-1.76 0-3.7-.34-5.82-1.15l.92-2.41c4.77 1.82 9 1.09 12.55-2.17 2.74-2.5 4.04-5.58 4.06-5.6l2.38.99c-.05.12-4.45 10.34-14.09 10.34Z" fill="#073F2A"/>
    <path d="M69.9 146.01c-2.37 0-5.27-1.27-8.66-3.8a45.16 45.16 0 0 1-5.02-4.41l1.87-1.79c2.2 2.3 8.75 8.12 12.48 7.35 1.02-.2 1.77-.97 2.29-2.34l2.42.92c-1.06 2.78-2.87 3.68-4.2 3.95a5.66 5.66 0 0 1-1.18.12Z" fill="#073F2A"/>
  </g>
  <defs>
    <clipPath id="a">
      <path fill="#fff" d="M0 0h320v194H0z"/>
    </clipPath>
  </defs>
</svg>
