<svg width="320" height="194" fill="none" xmlns="http://www.w3.org/2000/svg">
  <g clip-path="url(#a)">
    <path fill="#252F90" d="M0 0h320v194H0z"/>
    <g opacity=".7">
      <path d="M196.989 198.144s2.696-19.079 29.41-15.683c26.713 3.396 58.371 18.912 76.478-11.426 18.107-30.337-20.021-48.632-28.168-64.871-5.232-10.429-3.23-22.566 27.713-17.977 32.035 4.75 41.615 20.878 45.568 40.443" stroke="#2B2B37" stroke-width="3" stroke-miterlimit="10"/>
      <path d="M199.166 197.822a2.026 2.026 0 1 0-3.41-2.189 2.026 2.026 0 0 0 3.41 2.189ZM222.358 183.134a2.025 2.025 0 1 0-3.409-2.189 2.025 2.025 0 1 0 3.409 2.189ZM245.141 186.758a2.025 2.025 0 1 0-3.409-2.189 2.025 2.025 0 1 0 3.409 2.189ZM271.855 190.155a2.026 2.026 0 1 0-3.408-2.19 2.026 2.026 0 0 0 3.408 2.19ZM297.536 180.16a2.025 2.025 0 1 0-3.409-2.189 2.025 2.025 0 1 0 3.409 2.189ZM308.828 155.078a2.025 2.025 0 1 0-3.407-2.19 2.025 2.025 0 0 0 3.407 2.19ZM299.288 132.44a2.026 2.026 0 1 0-3.409-2.19 2.026 2.026 0 0 0 3.409 2.19ZM280.567 112.85a2.028 2.028 0 0 0-3.41-2.19 2.028 2.028 0 0 0 3.41 2.19ZM275.323 92.627a2.026 2.026 0 1 0-3.41-2.19 2.026 2.026 0 0 0 3.41 2.19ZM296.52 88.008a2.026 2.026 0 1 0-3.41-2.189 2.026 2.026 0 0 0 3.41 2.19ZM321.826 93.597a2.027 2.027 0 1 0-3.412-2.19 2.027 2.027 0 0 0 3.412 2.19Z" fill="#2B2B37"/>
      <path d="M237.959 192.179c.384-3.475 2.701-6.07 5.17-5.795 2.468.275 4.157 3.313 3.772 6.788-.384 3.475-3.253 11.037-5.721 10.762-2.469-.274-3.608-8.281-3.221-11.755ZM314.715 156.581c-3.301 1.155-6.639.188-7.459-2.155-.819-2.346 1.192-5.182 4.491-6.335 3.301-1.155 11.359-1.838 12.178.508.82 2.343-5.909 6.827-9.21 7.982ZM275.804 84.085c1.115 3.313.11 6.64-2.243 7.434-2.353.794-5.168-1.251-6.284-4.565-1.115-3.313-1.704-11.38.649-12.173 2.356-.792 6.762 5.99 7.878 9.304Z" fill="#5FE84B"/>
      <path d="M297.407 171.347c1.246 3.267.374 6.632-1.946 7.519-2.323.885-5.213-1.047-6.459-4.314-1.246-3.266-2.157-11.302.166-12.187 2.319-.884 6.993 5.716 8.239 8.982ZM273.704 106.176c3.42.727 5.771 3.29 5.253 5.719-.518 2.43-3.709 3.81-7.129 3.078-3.42-.727-10.659-4.33-10.143-6.761.518-2.43 8.597-2.765 12.019-2.036ZM327.81 93.903c-3.014 1.773-6.478 1.475-7.738-.666-1.261-2.14.161-5.314 3.175-7.087 3.013-1.773 10.785-4.009 12.044-1.866 1.262 2.139-4.468 7.846-7.481 9.62ZM222.056 173.498c1.259 3.261.406 6.631-1.913 7.526-2.316.896-5.216-1.021-6.479-4.282-1.26-3.261-2.207-11.293.109-12.189 2.316-.897 7.023 5.683 8.283 8.945Z" fill="#F26467"/>
      <path d="M266.473 196.633c-.345-3.48 1.381-6.499 3.852-6.742 2.473-.246 4.755 2.376 5.1 5.855.346 3.48-.887 11.473-3.358 11.716-2.473.246-5.248-7.35-5.594-10.829ZM303.904 126.864c-1.226 3.275-4.107 5.222-6.433 4.351-2.326-.872-3.218-4.234-1.99-7.508 1.226-3.275 5.861-9.902 8.187-9.031 2.327.872 1.463 8.913.236 12.188ZM300.107 82.631c-.938 3.367-3.638 5.558-6.031 4.892-2.392-.667-3.572-3.939-2.635-7.306.938-3.367 4.98-10.373 7.372-9.706 2.395.668 2.232 8.753 1.294 12.12ZM196.09 189.345c2.378 2.563 2.83 6.011 1.009 7.7-1.821 1.689-5.226.982-7.605-1.581-2.378-2.563-6.228-9.676-4.407-11.365 1.821-1.689 8.624 2.683 11.003 5.246Z" fill="#2678BC"/>
    </g>
    <path d="m29.892 124.613-.265 10.4c-1.396 1.892-2.861 4.332-5.469 5.065-3.381.954-7.857-.109-8.118-.098a4.463 4.463 0 0 1-.005-.504l.25-9.888s3.326-2.629 6.766-3.568c2.673-.721 5.397.54 6.84-1.407Z" fill="#F4DDDC"/>
    <path d="m30.122 115.759-.015.009-.003.012c-1.454 1.953-4.302 5.588-6.98 6.312-3.435.936-6.625-1.358-6.625-1.358l.272-10.394s2.952-2.253 6.167-3.354c.268-.106.524-.186.791-.259 2.626-.737 5.244.544 6.653-1.365l-.187 7.559-.073 2.838ZM30.61 96.52c-1.341 1.804-3.901 5.417-6.388 6.155a6.943 6.943 0 0 1-2.317.281c-2.706-.078-4.904-1.47-4.904-1.47l.264-10.396s2.182-1.823 4.846-2.935c.52-.208 1.055-.4 1.6-.535 2.574-.67 5.257.35 6.817-1.113.112-.129.244-.248.346-.388l-.265 10.4ZM31.107 72.876c-1.595 2.688-3.69 7.186-5.702 8.717a8.456 8.456 0 0 1-3.032 1.485c-2.352.59-4.287-.057-4.904.115l.003-.012.212-8.322c.615-.468 1.42-2.904 2.975-6.147.23-.487.474-.989.743-1.509 1.138-2.214 3.429-3.828 4.253-7.48l.01.014c.014-.009.011.003.028.02a22.528 22.528 0 0 1 5.414 13.12ZM-.455 72.82c-.702-.542-2.101-.979-3.51-1.308-1.991-.475-3.996-.703-3.996-.703s-3.42-2.588-5.036-2.99l-.06-.015a22.518 22.518 0 0 1 5.82-9.5l.02.006c1.105.536 7.099 2.548 7.099 2.548s.227.479.558 1.204c.68 1.462 1.79 3.89 2.412 5.282A9.186 9.186 0 0 0-.455 72.82Z" fill="#FFF3F3"/>
    <path d="m29.621 135.003-.122 4.803a6.732 6.732 0 0 1-6.655 6.553 6.743 6.743 0 0 1-6.814-6.39c.47-.022 10.38-.619 13.591-4.966ZM29.597 124.949c-3.322 3.872-12.083 4.56-13.192 4.635l-.111.006-.012-.003.217-8.853s10.308-.519 13.605-4.954l-.223 8.842a2.824 2.824 0 0 1-.284.327ZM30.386 105.363c-1.357 1.834-3.897 2.993-6.427 3.732-3.611 1.066-7.183 1.242-7.183 1.242l.225-8.851s2.068-.106 4.649-.613c3.18-.641 7.143-1.894 8.96-4.353l-.224 8.843Z" fill="#AE2B2E"/>
    <path d="M15.97 62.767c-.622 1.408-1.762 2.493-2.624 3.952a9.189 9.189 0 0 0-5.7-1.321l.003-.012c.111-1.84-1.589-3.091-2.548-5.075-.073-.15-.134-.296-.195-.442-1.279-3.196-1.741-7.092-1.757-7.337l-.009-.015a22.975 22.975 0 0 1 5.984-.648c2.018.058 4.015.37 5.946.947 0 0-.003.012.015.025.12.347 1.643 4.655 1.348 8.199a4.998 4.998 0 0 1-.463 1.727Z" fill="#FFF3F3"/>
    <path d="M-2.82 82.444a6.838 6.838 0 0 1-4.766 1.814 6.72 6.72 0 0 1-4.67-2.053c-.102-.115-.205-.225-.306-.347a6.387 6.387 0 0 1-1.108-1.83l-.009-.016a6.554 6.554 0 0 1-.477-2.531l.084-3.562c.053-2.049.385-4.075.99-6.033.005-.02.027-.056.02-.083l.06.015c2.224.49 5.884 1.451 9.076 2.956 1.278.588 2.475 1.279 3.467 2.046l.012.003c-.085.477-.14.953-.152 1.44l-.084 3.563a6.73 6.73 0 0 1-2.138 4.618ZM7.649 65.386a9.072 9.072 0 0 0-4.801 1.957c-.773-1.735-2.012-3.26-3.385-4.548-2.53-2.367-5.492-3.91-6.686-4.478l.003-.012a22.713 22.713 0 0 1 10.36-5.788l.01.015c.152.254 2.29 3.85 3.56 7.609.626 1.833 1.043 3.707.939 5.245ZM21.309 70.7c-1.603 2.47-3.057 3.726-3.621 4.16v-.14a9.015 9.015 0 0 0-1.108-4.576 9.122 9.122 0 0 0-3.234-3.425c.811-1.374 1.303-3.01 1.597-4.664.808-4.523.121-9.215.121-9.215l.02.005a22.49 22.49 0 0 1 10.585 6.872l-.005.02C24.543 64.77 22.86 68.305 21.31 70.7ZM30.527 86.51c-1.93 2.19-5.599 3.365-8.6 3.962a36.209 36.209 0 0 1-4.663.622l.209-7.9.003-.012c.617-.172 2.569-.764 4.925-2.066 2.843-1.561 6.288-4.147 8.71-8.239.051.71.064 1.44.046 2.175l-.281 11.076a3.173 3.173 0 0 1-.349.382Z" fill="#AE2B2E"/>
    <path opacity=".2" d="m30.898 129.887-1.147-.024-13.346-.279-.111.006-.012-.003.217-8.853.272-10.394.225-8.851.264-10.396.209-7.9.002-.012.213-8.322v-.14a9.016 9.016 0 0 0-1.108-4.576 9.122 9.122 0 0 0-3.234-3.425 9.19 9.19 0 0 0-5.7-1.322l.003-.011a9.073 9.073 0 0 0-4.801 1.957 9.186 9.186 0 0 0-3.307 5.477l.012.002c-.085.478-.14.954-.152 1.442l-.084 3.562a6.73 6.73 0 0 1-2.138 4.618 6.838 6.838 0 0 1-4.765 1.814 6.72 6.72 0 0 1-4.67-2.053c-.102-.115-.206-.225-.306-.347l-1.108-1.83-.009-.016s8.91 3.012 9.71-8.501c.018-.245.03-.483.043-.737.147-3.733 1.472-6.306 3.389-7.98a8.64 8.64 0 0 1 .977-.732c1.386-.936 3-1.493 4.66-1.752a16.308 16.308 0 0 1 1.606-.166c3.2-.159 6.36.67 8.237 1.91.345.226.687.463 1.027.712 1.84 1.33 3.507 2.97 4.689 5.946.242.606.46 1.256.646 1.987.7 2.553 1.104 5.902 1.092 10.416.008.632-.002 1.28-.019 1.96a103.993 103.993 0 0 1-.264 5.085c-.055.747-.115 1.514-.183 2.313-.039.412-.077.838-.12 1.263-.36 3.637-.373 6.642-.157 9.138.066.734.155 1.429.255 2.083.25 1.571.61 2.911 1.038 4.027.311.804.647 1.509 1.016 2.112 2.564 4.234 6.24 3.822 6.24 3.822l.7 16.97Z" fill="#561315"/>
    <path d="m46.699 119.099-3.247 6.51c.241 1.627.348 3.61 1.716 4.918 1.775 1.697 4.89 2.506 5.045 2.599.063-.098.118-.202.17-.308l3.086-6.187s-1.192-2.713-3.01-4.421c-1.412-1.323-3.51-1.435-3.76-3.111Z" fill="#F4DDDC"/>
    <path d="m49.457 113.553.006.01-.002.008c.257 1.682.826 4.862 2.242 6.186 1.814 1.706 4.535 1.336 4.535 1.336l3.238-6.509s-1.083-2.356-2.712-4.093a5.781 5.781 0 0 0-.403-.421c-1.38-1.315-3.416-1.383-3.658-3.023l-2.36 4.728-.886 1.778ZM55.458 101.513c.234 1.554.632 4.623 1.925 5.896.406.405.87.711 1.34.933 1.696.841 3.51.701 3.51.701l3.246-6.507s-.75-1.842-2.032-3.4a8.37 8.37 0 0 0-.813-.857c-1.369-1.257-3.36-1.508-3.845-2.921-.03-.118-.068-.233-.085-.351l-3.246 6.506ZM62.901 86.747c.104 2.181-.074 5.648.663 7.251a5.9 5.9 0 0 0 1.385 1.908c1.26 1.133 2.667 1.37 2.992 1.678l.002-.008 2.594-5.21c-.23-.488.076-2.259.178-4.773.017-.376.03-.765.034-1.174.023-1.74-.864-3.49-.172-6.013l-.01.006c-.006-.01-.008-.002-.022.003a15.803 15.803 0 0 0-7.644 6.332ZM82.412 97.058c.61-.106 1.618.086 2.598.343 1.385.361 2.697.878 2.697.878s2.96-.48 4.09-.2l.043.012c.492-2.59.328-5.26-.482-7.776l-.016-.004c-.858-.032-5.22-.755-5.22-.755s-.3.221-.74.56c-.9.68-2.382 1.815-3.222 2.472a6.4 6.4 0 0 1 .252 4.47Z" fill="#FFF3F3"/>
    <path d="m43.458 125.602-1.5 3.007a4.71 4.71 0 0 0 1.96 6.23 4.743 4.743 0 0 0 3.497.414 4.729 4.729 0 0 0 2.806-2.124c-.279-.171-6.202-3.788-6.763-7.527ZM46.767 119.403c.781 3.482 5.97 6.776 6.628 7.185l.067.038.008.002 2.769-5.539s-6.195-3.697-6.778-7.518l-2.759 5.533c.012.104.038.203.065.299ZM52.699 107.046c.237 1.576 1.423 3.126 2.746 4.414 1.883 1.842 4.03 3.125 4.03 3.125l2.762-5.541s-1.244-.741-2.67-1.903c-1.755-1.438-3.791-3.512-4.106-5.623l-2.762 5.528Z" fill="#AE2B2E"/>
    <path d="M75.564 85.462c-.078 1.075.271 2.117.323 3.3a6.441 6.441 0 0 1 3.955 1.052l.002-.007c.537-1.173 1.994-1.389 3.239-2.3.093-.07.177-.138.263-.21 1.836-1.553 3.403-3.808 3.49-3.952l.01-.006a16.033 16.033 0 0 0-3.482-2.362 16.015 16.015 0 0 0-3.983-1.363s-.002.008-.02.012c-.187.173-2.542 2.337-3.52 4.62-.179.413-.255.82-.277 1.216Z" fill="#FFF3F3"/>
    <path d="M80.72 103.774a4.749 4.749 0 0 0 2.35 2.68 4.697 4.697 0 0 0 3.555.264c.101-.034.2-.073.303-.115.471-.178.9-.443 1.285-.766l.01-.006c.46-.388.844-.859 1.123-1.406l1.117-2.228a15.492 15.492 0 0 0 1.363-4.05c.004-.017.003-.046.014-.056l-.044-.011c-1.533-.428-4.112-1.032-6.572-1.15-.98-.054-1.947-.02-2.812.128l-.008-.002a6.257 6.257 0 0 1-.376.937l-1.117 2.228a4.703 4.703 0 0 0-.191 3.553ZM79.843 89.81a6.354 6.354 0 0 1 2.325 2.78c1.048-.816 2.31-1.355 3.583-1.698 2.339-.635 4.675-.615 5.599-.575l.001-.008a15.874 15.874 0 0 0-4.502-6.969l-.01.006c-.179.108-2.674 1.629-4.69 3.535-.995.923-1.862 1.945-2.306 2.93ZM69.667 88.613c.182 2.052.665 3.3.873 3.758l.042-.087a6.31 6.31 0 0 1 2.186-2.464 6.346 6.346 0 0 1 3.118-1.053c-.048-1.115.18-2.288.544-3.406.98-3.06 2.947-5.731 2.947-5.731l-.016-.004a15.728 15.728 0 0 0-8.79.774l-.005.016c-.954 3.476-1.072 6.21-.9 8.197ZM58.79 95.358c.473 1.985 2.355 3.911 4.014 5.262 1.433 1.168 2.676 1.912 2.676 1.912l2.46-4.947.003-.008c-.325-.31-1.338-1.314-2.365-2.892-1.243-1.898-2.526-4.621-2.68-7.943-.265.42-.51.866-.74 1.329L58.701 95c.022.133.053.246.089.356Z" fill="#AE2B2E"/>
    <path opacity=".2" d="m44.348 122.025.717.36 8.335 4.2.067.038.008.002 2.769-5.539 3.238-6.508 2.76-5.541 3.247-6.506 2.46-4.948.003-.008 2.594-5.21.042-.087a6.31 6.31 0 0 1 2.186-2.465 6.347 6.347 0 0 1 3.118-1.053 6.44 6.44 0 0 1 3.955 1.052l.002-.008a6.354 6.354 0 0 1 2.325 2.78 6.456 6.456 0 0 1 .248 4.468l-.008-.002a6.257 6.257 0 0 1-.377.938l-1.116 2.227a4.707 4.707 0 0 0-.191 3.553 4.748 4.748 0 0 0 2.35 2.68 4.697 4.697 0 0 0 3.555.264c.101-.034.2-.073.303-.115l1.285-.766.01-.006s-6.488-1.061-3.209-8.43c.069-.155.136-.308.214-.47 1.132-2.355 1.157-4.377.523-6.039a6.032 6.032 0 0 0-.36-.774c-.55-1.032-1.365-1.903-2.304-2.61a9.625 9.625 0 0 0-.939-.626c-1.924-1.147-4.148-1.67-5.715-1.52-.289.025-.577.063-.87.1-1.57.218-3.14.685-4.845 2.136-.348.294-.697.626-1.051 1.015-1.27 1.349-2.617 3.282-4.086 6.077-.21.387-.417.792-.628 1.217-.49.981-.988 2.049-1.5 3.227-.213.48-.424.972-.645 1.487a49.63 49.63 0 0 0-.34.82c-.969 2.366-1.947 4.222-2.9 5.696-.282.433-.563.832-.84 1.202-.67.89-1.332 1.6-1.963 2.148-.453.395-.894.72-1.319.969-2.973 1.774-5.107.318-5.107.318l-6 10.257Z" fill="#561315"/>
    <path d="M35.148 93.51 33.9 102.79c.97 1.882 1.925 4.253 4.136 5.277 2.867 1.329 6.997 1.019 7.224 1.069.035-.146.06-.297.079-.447l1.186-8.818s-2.58-2.809-5.505-4.133c-2.269-1.024-4.87-.289-5.872-2.226Z" fill="#F4DDDC"/>
    <path d="m36.201 85.61.012.01v.01c1.013 1.942 3.029 5.578 5.303 6.602 2.92 1.324 6.079-.259 6.079-.259l1.238-9.272s-2.298-2.42-5.005-3.858a7.473 7.473 0 0 0-.665-.346c-2.227-1.028-4.736-.263-5.713-2.16l-.909 6.739-.34 2.534ZM38.504 68.451c.932 1.795 2.693 5.368 4.797 6.38a6.19 6.19 0 0 0 2.019.58c2.416.319 4.566-.606 4.566-.606l1.249-9.273s-1.68-1.933-3.887-3.297c-.43-.26-.88-.507-1.348-.706-2.19-.962-4.718-.44-5.897-1.96-.085-.13-.18-.254-.25-.392l-1.249 9.274ZM41.432 47.373c1.033 2.613 2.257 6.91 3.822 8.555a7.595 7.595 0 0 0 2.479 1.748c2.006.857 3.818.56 4.342.8l-.001-.01.993-7.424c-.482-.5-.846-2.783-1.768-5.887a42.376 42.376 0 0 0-.446-1.445c-.695-2.128-2.503-3.89-2.71-7.252l-.01.012c-.01-.01-.01 0-.025.013a20.337 20.337 0 0 0-6.676 10.89ZM69.481 51.82c.699-.383 2.007-.569 3.307-.664 1.836-.135 3.65-.051 3.65-.051s3.403-1.816 4.897-1.943l.057-.005a20.273 20.273 0 0 0-3.819-9.27l-.02.002c-1.06.317-6.673 1.251-6.673 1.251s-.273.394-.668.99a378.776 378.776 0 0 0-2.896 4.35 8.237 8.237 0 0 1 2.165 5.34Z" fill="#FFF3F3"/>
    <path d="m33.904 102.778-.577 4.286a6.065 6.065 0 0 0 11.944 2.07c-.41-.092-9.129-2.034-11.367-6.356ZM35.358 93.853c2.399 3.916 10.087 5.77 11.06 5.995l.096.018h.011l1.07-7.898s-9.083-1.927-11.381-6.338l-1.06 7.886c.058.122.131.232.203.337ZM37.445 76.337c.944 1.82 3.033 3.215 5.18 4.234 3.058 1.46 6.208 2.13 6.208 2.13l1.059-7.896s-1.823-.385-4.043-1.208c-2.735-1.022-6.077-2.701-7.339-5.141l-1.065 7.88Z" fill="#AE2B2E"/>
    <path d="M56.319 40.544c.352 1.341 1.21 2.465 1.766 3.885a8.29 8.29 0 0 1 5.254-.363v-.01c.166-1.651 1.85-2.52 2.988-4.148a7.4 7.4 0 0 0 .233-.364c1.59-2.656 2.561-6.054 2.607-6.265l.01-.011a20.629 20.629 0 0 0-5.222-1.43 20.61 20.61 0 0 0-5.418-.004s0 .01-.02.023c-.155.288-2.124 3.904-2.366 7.091-.046.576.03 1.104.168 1.596Z" fill="#FFF3F3"/>
    <path d="M70.212 60.702a6.112 6.112 0 0 0 3.976 2.288c1.58.21 3.17-.202 4.44-1.157.11-.084.213-.172.321-.266.5-.413.913-.914 1.247-1.467l.01-.012c.398-.664.67-1.397.783-2.18l.433-3.177a19.95 19.95 0 0 0-.023-5.5c-.002-.021-.016-.057-.007-.074l-.057.005c-2.045.116-5.438.453-8.482 1.332-1.215.342-2.38.785-3.372 1.325l-.01.001c.01.439-.011.87-.07 1.298l-.433 3.178a6.05 6.05 0 0 0 1.244 4.406ZM63.339 44.06a8.178 8.178 0 0 1 3.987 2.42c.938-1.43 2.25-2.612 3.658-3.558 2.584-1.746 5.437-2.693 6.579-3.029v-.01a20.43 20.43 0 0 0-8.381-6.616l-.01.012c-.173.205-2.58 3.095-4.243 6.256-.828 1.537-1.46 3.143-1.59 4.525ZM50.447 46.833c1.075 2.423 2.183 3.743 2.626 4.214l.016-.124a8.12 8.12 0 0 1 1.636-3.91 8.168 8.168 0 0 1 3.36-2.58c-.521-1.337-.73-2.86-.754-4.373-.077-4.135 1.208-8.205 1.208-8.205l-.021.002a20.24 20.24 0 0 0-10.386 4.597l.002.021c.284 4.63 1.276 8.01 2.313 10.358ZM40.003 59.57c1.402 2.22 4.496 3.784 7.077 4.74a32.71 32.71 0 0 0 4.054 1.216l.94-7.05v-.01c-.524-.241-2.176-1.043-4.082-2.538-2.304-1.795-4.998-4.579-6.566-8.56a19.024 19.024 0 0 0-.35 1.926l-1.329 9.879c.082.151.167.277.256.396Z" fill="#AE2B2E"/>
    <path opacity=".2" d="m33.502 98.052 1.023.14 11.897 1.65.097.019.01-.001 1.07-7.897 1.238-9.273 1.059-7.896 1.248-9.274.94-7.05v-.01l.993-7.424.016-.123a8.12 8.12 0 0 1 1.637-3.91 8.168 8.168 0 0 1 3.36-2.58 8.289 8.289 0 0 1 5.254-.363v-.01a8.177 8.177 0 0 1 3.986 2.419 8.308 8.308 0 0 1 2.16 5.34h-.01c.011.439-.01.87-.07 1.298l-.433 3.178a6.055 6.055 0 0 0 1.244 4.406 6.11 6.11 0 0 0 3.977 2.287c1.58.21 3.17-.201 4.44-1.157.109-.083.212-.171.321-.265l1.247-1.467.01-.012s-8.344 1.405-7.414-8.932c.019-.22.038-.433.066-.663.398-3.338-.41-5.811-1.874-7.572a7.764 7.764 0 0 0-.761-.793c-1.1-1.029-2.453-1.75-3.892-2.22-.457-.152-.929-.276-1.403-.374-2.82-.596-5.746-.31-7.592.525-.342.151-.677.318-1.018.484-1.823.918-3.54 2.14-5.013 4.617a14.307 14.307 0 0 0-.859 1.672c-.985 2.17-1.822 5.086-2.45 9.1a48.872 48.872 0 0 0-.258 1.744 88.14 88.14 0 0 0-.486 4.553c-.06.673-.112 1.36-.167 2.08-.027.373-.052.756-.072 1.14-.197 3.284-.616 5.951-1.165 8.143a27.517 27.517 0 0 1-.524 1.813c-.445 1.362-.957 2.502-1.497 3.432a11.401 11.401 0 0 1-1.203 1.729c-2.883 3.396-6.088 2.51-6.088 2.51l-3.044 14.987Z" fill="#561315"/>
    <path d="M66.6 86.924c-.363 2.437-.784 5.12-1.263 7.983-.13.754-.254 1.513-.38 2.275h-.003c-1.688 9.863-3.771 19.951-6.217 29.801-6.663.238-28.193-2.087-36.96-5.346.934-18.117 2.53-37.776 6.246-55.78l40.53 5.862c-.34 3.53-1.3 10.946-1.953 15.205Z" fill="#006D3B"/>
    <path d="M66.6 86.924c-.363 2.437-.78 5.12-1.259 7.983h.004c-.129.754-.254 1.513-.383 2.271h-.004c-1.692 9.859-3.775 19.951-6.221 29.801-6.663.238-28.193-2.087-36.96-5.346.2-3.871.43-7.813.704-11.796C51.529 114.233 58.6 79.702 58.6 79.702l9.355-2.704c-.421 3.4-.946 7.271-1.354 9.926Z" fill="#016032"/>
    <path d="M69.066 81.04s-.57-.067-1.604-.196c-1.283-.158-3.27-.404-5.738-.729-.975-.125-2.016-.258-3.129-.412a760.873 760.873 0 0 1-10.917-1.538l-.262-.038c-.596-.087-1.2-.179-1.809-.27-.325-.046-.65-.1-.975-.146a508.772 508.772 0 0 1-10.554-1.73c-.988-.174-1.959-.35-2.909-.529-1.675-.308-3.279-.633-4.783-.95a95.67 95.67 0 0 1-1.892-.416s.667-5.784 2.096-10.038l43.368 6.27c.013 0 .313 4.526-.892 10.722Z" fill="#073F2A"/>
    <path d="M48.216 126.721v.004c-.6-.088-1.205-.163-1.809-.25l8.18-58.373 1.808.263-8.18 58.356Z" fill="#F5B818"/>
    <path d="M65.295 95.178c-.1.6-.204 1.2-.3 1.804-13.558-1.9-27.355-3.833-40.872-5.73.067-.603.138-1.212.208-1.816 13.547 1.9 27.372 3.838 40.964 5.742ZM56.183 68.327l-.009-.17c0-.009-.004-.022 0-.034 0-.004-.004-.004-.004-.004-.062-1.43-.246-2.654-.5-3.692-.962-3.938-2.9-5.28-3.175-5.45-1.246-.783-2.696-.83-4.313-.142-1.879.8-2.796 2.359-2.462 4.18.329 1.775 1.625 3.241 3.354 4.283 1.167.712 2.53 1.23 3.917 1.52.296.072.592.122.883.163.059.009.113.017.171.021a8.544 8.544 0 0 0 .942.088c.033.008.07.008.104.008.046.008.087.008.13.008l.65.025.337.013-.025-.817Zm-8.667-5.642c-.18-.97.287-1.7 1.383-2.17.658-.284 1.246-.38 1.763-.305.308.046.591.15.858.313 1.75 1.104 2.5 4.583 2.742 6.683-3.763-.462-6.388-2.604-6.746-4.52Z" fill="#F5B818"/>
    <path d="M64.433 61.185c-1.354-1.12-2.759-1.483-4.175-1.087-.313.087-2.555.825-4.584 4.329a19.07 19.07 0 0 0-1.458 3.188c-.034.079-.063.162-.088.246l-.054.158-.27.775.266.07.47.121h.005l.217.059c.075.02.15.037.229.05a.23.23 0 0 0 .092.025c.254.062.512.112.775.15.075.016.158.029.237.037.367.055.738.092 1.113.109h.004c1.346.091 2.716-.025 3.967-.367 1.954-.508 3.612-1.55 4.433-3.154.833-1.654.392-3.409-1.18-4.709Zm-.454 3.88c-.888 1.737-4.017 3.037-7.75 2.425.824-1.946 2.525-5.071 4.52-5.63.821-.233 1.642.009 2.521.734.921.758 1.159 1.591.709 2.47Z" fill="#F5B818"/>
    <path d="M44.67 74.227c-1.234-.179-2.55-.612-3.95-1.391l.887-1.596c3.146 1.754 6.171 1.67 8.992-.246 2.167-1.475 3.384-3.488 3.4-3.504l1.567.937c-.054.075-4.167 6.775-10.896 5.8Z" fill="#F5B818"/>
    <path d="M63.158 75.952c-1.654-.237-3.554-1.425-5.663-3.537-1.754-1.755-3.012-3.513-3.066-3.588l1.487-1.062c1.308 1.833 5.3 6.558 7.975 6.4.738-.042 1.338-.5 1.838-1.404l1.596.883c-1.017 1.838-2.375 2.288-3.33 2.342a3.8 3.8 0 0 1-.837-.034Z" fill="#F5B818"/>
    <path d="M16.506 139.652s-6.231.913-10.179-3.564c-3.908-4.467-4.252-32.063 2.432-33.894 6.684-1.831 51.633 1.561 57.215 4.159 5.57 2.641 4.024 27.392 1.638 33.026-2.387 5.634-11.958 2.851-11.958 2.851l-39.148-2.578Z" fill="#E4EDEF"/>
    <path d="M61.524 137.729c-.084-.021-.178.002-.266-.02-.79 2.09-2.252 3.652-3.896 4.857-1.665-.507-6.633-.683-8.268-.802l1.093-4.389c-19.225-.885-30.51-2.891-35.857-4.087l-.765 6.486s-6.902-6.29-1.26-6.99c-1.099-.273-1.72-.474-1.794-.535-1.436-.412-.712-2.843.744-2.278.128.032 14.42 4.709 50.33 5.356 1.478.005 1.484 2.491-.061 2.402Z" fill="#D1C4C3"/>
    <path d="m57.503 137.671-10.923 59.08a10.013 10.013 0 0 1-5.038 6.968c-13.656 7.486-57.3 29.914-79.666 23.824-26.686-7.268 47.736-53.894 47.736-53.894l4.714-40.362c6.023 1.364 19.505 3.731 43.177 4.384Z" fill="#F26467"/>
    <path d="M56.578 137.618c-7.55 10.353-22.78 9.968-22.78 9.968-10.692-.599-16.79-3.82-20.276-7.286l.815-7.056c5.973 1.398 19.112 3.679 42.241 4.374Zm-28.29 72.956c-21.373 2.143-38.139 5.453-52.122 17.699 28.81-3.042 52.122-17.699 52.122-17.699Zm-2.357-35.331c3.477-4.243-6.706-7.808-15.312-9.95l-.962 8.363s-1.371.825-3.625 2.326c6.684 1.934 16.296 3.654 19.899-.739Z" fill="#E24B53"/>
    <path d="M48.715 185.219s-19.547 1.448-17.045 23.683l9.572-4.792a10.716 10.716 0 0 0 5.789-7.948l1.684-10.943Z" fill="#E4EDEF"/>
    <g opacity=".6" fill="#E4EDEF">
      <path d="M310.182 178.019v4.926a.859.859 0 0 0-.456 0v-4.926c0-.239.103-.433.228-.433.063 0 .12.048.161.126a.68.68 0 0 1 .067.307ZM309.954 185.303c.079 0 .155-.01.228-.029v4.725c0 .229-.103.415-.228.415s-.228-.186-.228-.415v-4.725c.073.019.15.029.228.029ZM308.862 184c0 .078.01.155.031.228h-4.921c-.238 0-.433-.103-.433-.228s.195-.228.433-.228h4.92a.902.902 0 0 0-.03.228ZM316.368 184c0 .062-.049.12-.127.161a.672.672 0 0 1-.306.067h-4.933c.021-.073.021-.383.001-.456h4.933c.237 0 .432.103.432.228ZM309.643 183.368l-.321.321-2.905-2.905.321-.321 2.574 2.574.331.331ZM313.49 180.785l-2.572 2.573-.332.331-.322-.321.333-.331 2.572-2.573.321.321ZM309.644 184.632l-.332.331-2.574 2.574-.321-.321 2.574-2.574.332-.332.321.322ZM313.49 187.215l-.321.321-2.905-2.904.322-.322.331.332 2.573 2.573Z"/>
      <path d="M302.606 185.606 301 184l1.606-1.607 1.607 1.607-1.607 1.606Zm-.942-1.606.942.942.943-.942-.943-.943-.942.943ZM311.333 183.772l-.415-.414-.321-.321-.415-.416-.228-.227-.963.964-.416.414-.227.228.228.228.415.414.321.321.414.415.228.228.228-.227.414-.416.321-.321.643-.642-.227-.228Zm-1.379 1.17-.31-.31-.321-.322-.311-.31.31-.31.321-.322.311-.31.632.632.31.31-.31.31-.632.632ZM317.394 185.606 315.787 184l1.607-1.607L319 184l-1.606 1.606Zm-.943-1.606.943.942.942-.942-.942-.943-.943.943ZM309.999 178.213l-1.606-1.607 1.606-1.606 1.607 1.606-1.607 1.607Zm-.942-1.607.942.943.943-.943-.943-.942-.942.942ZM309.999 193l-1.606-1.606 1.606-1.607 1.607 1.607-1.607 1.606Zm-.942-1.606.942.942.943-.942-.943-.943-.942.943ZM315.065 180.926h-2.037v-2.037h.47v1.567h1.567v.47ZM313.687 182.304h-2.037v-2.037h.47v1.567h1.567v.47ZM306.808 189.228h-.469v-1.567h-1.567v-.469h2.036v2.036ZM308.223 187.813h-.47v-1.566h-1.566v-.47h2.036v2.036ZM313.52 189.205h-.469v-2.037h2.036v.47h-1.567v1.567ZM312.142 187.827h-.469v-2.037h2.036v.47h-1.567v1.567ZM306.786 180.948h-2.038v-.469h1.568v-1.567h.47v2.036ZM308.201 182.363h-2.038v-.47h1.568v-1.567h.47v2.037Z"/>
      <path d="m308.846 190.245-.333-.332 1.441-1.44 1.441 1.44-.333.332-1.108-1.108-1.108 1.108ZM308.846 188.295l-.333-.331 1.441-1.44 1.441 1.44-.333.331-1.108-1.107-1.108 1.107ZM309.954 179.644l-1.441-1.44.333-.332 1.108 1.108 1.108-1.108.333.332-1.441 1.44ZM309.954 181.645l-1.441-1.44.333-.332 1.108 1.108 1.108-1.108.333.332-1.441 1.44ZM304.063 185.44l-.331-.332 1.107-1.108-1.107-1.108.331-.333 1.441 1.441-1.441 1.44ZM306.013 185.44l-.332-.332 1.108-1.108-1.108-1.108.332-.333 1.44 1.441-1.44 1.44ZM315.772 185.44l-1.44-1.44 1.44-1.441.333.333-1.109 1.108 1.109 1.108-.333.332ZM313.771 185.44l-1.44-1.44 1.44-1.441.333.333-1.109 1.108 1.109 1.108-.333.332Z"/>
    </g>
    <g opacity=".6" fill="#E4EDEF">
      <path d="M267.101 172.677v2.737a.473.473 0 0 0-.253 0v-2.737c0-.133.057-.24.127-.24.035 0 .066.026.089.07a.375.375 0 0 1 .037.17ZM266.975 176.724a.518.518 0 0 0 .126-.016v2.625c0 .127-.057.23-.126.23-.07 0-.127-.103-.127-.23v-2.625c.04.01.083.016.127.016ZM266.368 176c0 .044.005.086.017.127h-2.734c-.132 0-.24-.057-.24-.127s.108-.127.24-.127h2.733a.532.532 0 0 0-.016.127ZM270.538 176c0 .035-.027.067-.071.09a.382.382 0 0 1-.17.037h-2.74a.982.982 0 0 0 0-.254h2.741c.132 0 .24.057.24.127ZM266.802 175.649l-.179.178-1.614-1.614.179-.178 1.43 1.43.184.184ZM268.939 174.214l-1.429 1.429-.185.184-.178-.178.185-.184 1.429-1.43.178.179ZM266.803 176.351l-.185.184-1.43 1.43-.179-.178 1.43-1.43.185-.185.179.179ZM268.939 177.786l-.178.179-1.614-1.614.178-.179.185.185 1.429 1.429Z"/>
      <path d="M262.892 176.892 262 176l.892-.893.893.893-.893.892Zm-.523-.892.523.523.524-.523-.524-.524-.523.524ZM267.74 175.873l-.23-.23-.178-.178-.231-.231-.126-.126-.536.535-.23.23-.127.127.127.127.23.23.179.178.23.23.127.127.126-.126.23-.231.179-.178.357-.357-.127-.127Zm-.765.65-.173-.172-.178-.178-.173-.173.172-.172.179-.179.173-.172.35.351.173.172-.173.173-.35.35ZM271.108 176.892l-.893-.892.893-.893.892.893-.892.892Zm-.524-.892.524.523.523-.523-.523-.524-.524.524ZM267 172.785l-.893-.893L267 171l.892.892-.892.893Zm-.524-.893.524.524.523-.524-.523-.523-.524.523ZM267 181l-.893-.892.893-.893.892.893L267 181Zm-.524-.892.524.523.523-.523-.523-.524-.524.524ZM269.814 174.292h-1.132v-1.131h.261v.87h.871v.261ZM269.048 175.058h-1.131v-1.132h.261v.871h.87v.261ZM265.227 178.905h-.261v-.871h-.871v-.261h1.132v1.132ZM266.013 178.119h-.261v-.871h-.871v-.261h1.132v1.132ZM268.956 178.892h-.261v-1.132h1.131v.261h-.87v.871ZM268.19 178.126h-.261v-1.132h1.132v.261h-.871v.871ZM265.214 174.305h-1.132v-.261h.871v-.871h.261v1.132ZM266 175.091h-1.132v-.261h.871v-.871H266v1.132Z"/>
      <path d="m266.359 179.469-.185-.184.8-.8.801.8-.185.184-.616-.615-.615.615ZM266.359 178.386l-.185-.184.8-.8.801.8-.185.184-.616-.615-.615.615ZM266.974 173.58l-.8-.8.185-.185.615.616.616-.616.185.185-.801.8ZM266.974 174.692l-.8-.8.185-.185.615.616.616-.616.185.185-.801.8ZM263.702 176.8l-.184-.184.615-.616-.615-.616.184-.184.8.8-.8.8ZM264.785 176.8l-.184-.184.615-.616-.615-.616.184-.184.8.8-.8.8ZM270.207 176.8l-.8-.8.8-.8.185.184-.616.616.616.616-.185.184ZM269.095 176.8l-.8-.8.8-.8.185.184-.616.616.616.616-.185.184Z"/>
    </g>
    <g opacity=".6" fill="#E4EDEF">
      <path d="M19.631 9.18v3.558a.624.624 0 0 0-.329 0V9.18c0-.173.074-.313.165-.313.046 0 .086.034.116.09.03.058.048.136.048.223ZM19.467 14.441a.65.65 0 0 0 .164-.02v3.411c0 .166-.074.3-.164.3-.09 0-.165-.134-.165-.3V14.42a.657.657 0 0 0 .165.021ZM18.678 13.5c0 .057.008.112.022.165h-3.553c-.173 0-.313-.074-.313-.165 0-.09.14-.165.313-.165H18.7a.655.655 0 0 0-.022.165ZM24.099 13.5c0 .045-.035.086-.092.116a.491.491 0 0 1-.22.049h-3.563a1.238 1.238 0 0 0 0-.33h3.563c.172 0 .312.074.312.165ZM19.242 13.044l-.232.232-2.098-2.099.232-.232 1.859 1.86.24.239ZM22.02 11.178l-1.857 1.858-.24.24-.232-.232.24-.24 1.858-1.858.232.232ZM19.243 13.956l-.24.24-1.859 1.859-.232-.232 1.859-1.86.24-.239.232.232ZM22.02 15.822l-.231.232-2.098-2.098.232-.232.24.24 1.858 1.858Z"/>
      <path d="M14.16 14.66 13 13.5l1.16-1.16 1.16 1.16-1.16 1.16Zm-.68-1.16.68.68.68-.68-.68-.68-.68.68ZM20.462 13.335l-.299-.299-.232-.232-.3-.3-.164-.164-.696.696-.3.3-.164.164.165.165.299.299.232.232.3.299.164.165.164-.164.3-.3.232-.232.463-.464-.164-.165Zm-.995.845-.224-.224-.232-.232-.224-.224.223-.224.232-.232.225-.224.456.456.224.224-.224.224-.456.456ZM24.84 14.66l-1.16-1.16 1.16-1.16L26 13.5l-1.16 1.16Zm-.68-1.16.68.68.68-.68-.68-.68-.68.68ZM19.5 9.32l-1.16-1.16L19.5 7l1.16 1.16-1.16 1.16Zm-.68-1.16.68.68.68-.68-.68-.68-.68.68ZM19.5 20l-1.16-1.16 1.16-1.16 1.16 1.16L19.5 20Zm-.68-1.16.68.68.68-.68-.68-.68-.68.68ZM23.158 11.28h-1.471V9.809h.34v1.132h1.13v.339ZM22.163 12.275h-1.471v-1.47h.339v1.13h1.132v.34ZM17.195 17.276h-.34v-1.132h-1.131v-.339h1.47v1.471ZM18.217 16.254h-.34v-1.132h-1.131v-.339h1.47v1.471ZM22.043 17.259h-.34v-1.47h1.471v.338h-1.131v1.132ZM21.047 16.264h-.339v-1.471h1.47v.339h-1.13v1.132ZM17.179 11.296h-1.472v-.34h1.132v-1.13h.34v1.47ZM18.2 12.318H16.73v-.34h1.132v-1.131h.34v1.47Z"/>
      <path d="m18.667 18.01-.24-.24 1.04-1.04 1.04 1.04-.24.24-.8-.8-.8.8ZM18.667 16.602l-.24-.24 1.04-1.04 1.04 1.04-.24.24-.8-.8-.8.8ZM19.466 10.354l-1.04-1.04.24-.24.8.8.801-.8.24.24-1.04 1.04ZM19.466 11.8l-1.04-1.04.24-.24.8.8.801-.8.24.24-1.04 1.04ZM15.212 14.54l-.24-.24.8-.8-.8-.8.24-.24 1.04 1.04-1.04 1.04ZM16.62 14.54l-.24-.24.8-.8-.8-.8.24-.24 1.04 1.04-1.04 1.04ZM23.669 14.54l-1.04-1.04 1.04-1.04.24.24-.8.8.8.8-.24.24ZM22.224 14.54l-1.04-1.04 1.04-1.04.24.24-.8.8.8.8-.24.24Z"/>
    </g>
    <g opacity=".6" fill="#E4EDEF">
      <path d="M175.631 12.18v3.558a.622.622 0 0 0-.329 0V12.18c0-.173.074-.313.165-.313.046 0 .086.034.116.09.03.058.048.136.048.223ZM175.467 17.441a.648.648 0 0 0 .164-.02v3.411c0 .166-.074.3-.164.3-.091 0-.165-.134-.165-.3V17.42a.656.656 0 0 0 .165.021ZM174.678 16.5c0 .057.007.112.022.165h-3.553c-.173 0-.313-.074-.313-.165 0-.09.14-.165.313-.165h3.553a.633.633 0 0 0-.022.165ZM180.099 16.5c0 .045-.035.087-.092.116a.489.489 0 0 1-.221.049h-3.562a1.209 1.209 0 0 0 0-.33h3.563c.172 0 .312.074.312.165ZM175.243 16.044l-.233.232-2.098-2.099.232-.232 1.859 1.86.24.239ZM178.021 14.178l-1.858 1.858-.24.24-.232-.232.24-.24 1.858-1.858.232.232ZM175.243 16.956l-.24.24-1.859 1.859-.232-.232 1.859-1.86.24-.239.232.232ZM178.021 18.822l-.232.232-2.098-2.098.232-.232.24.24 1.858 1.858Z"/>
      <path d="M170.16 17.66 169 16.5l1.16-1.16 1.16 1.16-1.16 1.16Zm-.68-1.16.68.68.681-.68-.681-.68-.68.68ZM176.462 16.335l-.299-.299-.232-.232-.3-.3-.164-.164-.696.696-.3.3-.164.164.165.165.299.299.232.232.299.299.165.165.164-.164.299-.3.232-.232.465-.464-.165-.165Zm-.995.845-.224-.224-.232-.232-.224-.224.223-.224.232-.232.225-.224.456.456.224.224-.224.224-.456.456ZM180.84 17.66l-1.16-1.16 1.16-1.16L182 16.5l-1.16 1.16Zm-.681-1.16.681.68.68-.68-.68-.68-.681.68ZM175.5 12.32l-1.161-1.16L175.5 10l1.16 1.16-1.16 1.16Zm-.681-1.16.681.68.68-.68-.68-.68-.681.68ZM175.5 23l-1.161-1.16 1.161-1.16 1.16 1.16L175.5 23Zm-.681-1.16.681.68.68-.68-.68-.68-.681.68ZM179.158 14.28h-1.471v-1.471h.339v1.132h1.132v.339ZM178.163 15.275h-1.471v-1.47h.339v1.13h1.132v.34ZM173.195 20.276h-.339v-1.132h-1.132v-.339h1.471v1.471ZM174.217 19.254h-.339v-1.132h-1.132v-.339h1.471v1.471ZM178.043 20.259h-.34v-1.47h1.471v.338h-1.131v1.132ZM177.047 19.264h-.339v-1.471h1.471v.339h-1.132v1.132ZM173.179 14.296h-1.472v-.34h1.132v-1.13h.34v1.47ZM174.2 15.318h-1.471v-.34h1.132v-1.131h.339v1.47Z"/>
      <path d="m174.667 21.01-.241-.24 1.04-1.04 1.041 1.04-.24.24-.801-.8-.799.8ZM174.667 19.602l-.241-.24 1.04-1.04 1.041 1.04-.24.24-.801-.8-.799.8ZM175.466 13.354l-1.04-1.04.241-.24.799.8.801-.8.24.24-1.041 1.04ZM175.466 14.8l-1.04-1.04.241-.24.799.8.801-.8.24.24-1.041 1.04ZM171.212 17.54l-.239-.24.8-.8-.8-.8.239-.24 1.04 1.04-1.04 1.04ZM172.62 17.54l-.239-.24.8-.8-.8-.8.239-.24 1.04 1.04-1.04 1.04ZM179.669 17.54l-1.04-1.04 1.04-1.04.24.24-.801.8.801.8-.24.24ZM178.224 17.54l-1.04-1.04 1.04-1.04.24.24-.801.8.801.8-.24.24Z"/>
    </g>
    <g opacity=".6" fill="#E4EDEF">
      <path d="M10.08 21.342v2.189a.382.382 0 0 0-.202 0v-2.19c0-.106.046-.192.102-.192.028 0 .053.022.071.056a.3.3 0 0 1 .03.137ZM9.98 24.58a.4.4 0 0 0 .1-.014v2.1c0 .102-.045.184-.1.184-.056 0-.102-.082-.102-.184v-2.1a.402.402 0 0 0 .102.013ZM9.494 24c0 .035.005.07.014.101H7.321c-.106 0-.192-.045-.192-.101 0-.056.086-.101.192-.101h2.187a.402.402 0 0 0-.014.1ZM12.83 24c0 .028-.022.053-.056.072a.303.303 0 0 1-.136.03h-2.193a.763.763 0 0 0 0-.203h2.193c.106 0 .192.045.192.1ZM9.842 23.72l-.143.142-1.292-1.291.143-.143 1.144 1.144.148.147ZM11.551 22.571l-1.143 1.144-.148.147-.142-.143.147-.147 1.143-1.144.143.143ZM9.842 24.28l-.148.148-1.144 1.144-.143-.143 1.144-1.144.148-.147.143.143ZM11.551 25.429l-.143.143-1.29-1.291.142-.143.148.147 1.143 1.144Z"/>
      <path d="M6.714 24.714 6 24l.714-.714.714.714-.714.714ZM6.295 24l.419.419.419-.42-.42-.418-.418.419ZM10.592 23.899l-.184-.184-.143-.143-.184-.185-.101-.1-.429.428-.184.184-.101.1.101.102.184.184.143.143.184.184.102.102.1-.101.185-.185.143-.143.285-.285-.1-.101Zm-.612.52-.138-.138-.143-.143L9.561 24l.138-.138.143-.143.138-.138.28.281.138.138-.138.138-.28.28ZM13.286 24.714 12.572 24l.714-.714L14 24l-.714.714ZM12.867 24l.42.419.418-.42-.419-.418-.419.419ZM10 21.428l-.714-.714L10 20l.714.714-.714.714Zm-.42-.714.42.419.418-.419-.418-.419-.42.419ZM10 28l-.714-.714.714-.714.714.714L10 28Zm-.42-.714.42.419.418-.419-.418-.419-.42.419ZM12.251 22.634h-.905v-.905h.209v.696h.696v.209ZM11.639 23.246h-.906v-.905h.21v.696h.696v.21ZM8.581 26.324h-.208v-.697h-.697v-.208h.905v.905ZM9.21 25.695h-.209v-.697h-.696v-.208h.905v.905ZM11.565 26.313h-.21v-.905h.906v.209h-.696v.696ZM10.952 25.7h-.209v-.904h.906v.208h-.697v.697ZM8.571 22.644h-.905v-.209h.697v-.696h.208v.905ZM9.2 23.273h-.905v-.21h.697v-.696H9.2v.905Z"/>
      <path d="m9.487 26.775-.148-.147.64-.64.64.64-.147.147-.493-.492-.492.492ZM9.487 25.909l-.148-.147.64-.64.64.64-.147.147-.493-.492-.492.492ZM9.98 22.064l-.64-.64.147-.148.492.493.493-.493.148.148-.64.64ZM9.98 22.953l-.64-.64.147-.147.492.492.493-.492.148.148-.64.64ZM7.361 24.64l-.147-.148.492-.492-.492-.492.147-.148.64.64-.64.64ZM8.228 24.64l-.148-.148.493-.492-.493-.492.148-.148.64.64-.64.64ZM12.566 24.64l-.64-.64.64-.64.147.148-.492.492.492.492-.147.148ZM11.676 24.64l-.64-.64.64-.64.148.148-.493.492.493.492-.148.148Z"/>
    </g>
    <g opacity=".6" fill="#E4EDEF">
      <path d="M60.08 50.342v2.189a.382.382 0 0 0-.202 0v-2.19c0-.106.046-.192.102-.192.028 0 .053.022.071.056a.3.3 0 0 1 .03.137ZM59.98 53.58a.4.4 0 0 0 .1-.014v2.1c0 .102-.045.184-.1.184-.056 0-.102-.082-.102-.184v-2.1a.402.402 0 0 0 .102.013ZM59.494 53c0 .035.005.07.014.101h-2.187c-.106 0-.192-.045-.192-.101 0-.056.086-.101.192-.101h2.187a.404.404 0 0 0-.014.1ZM62.83 53c0 .028-.022.053-.056.072a.303.303 0 0 1-.136.03h-2.193a.763.763 0 0 0 0-.203h2.193c.106 0 .192.045.192.1ZM59.842 52.72l-.143.142-1.292-1.291.143-.143 1.144 1.144.148.147ZM61.551 51.571l-1.143 1.144-.148.147-.142-.143.147-.147 1.143-1.144.143.143ZM59.842 53.28l-.148.148-1.144 1.144-.143-.143 1.144-1.144.148-.147.143.143ZM61.551 54.429l-.143.143-1.29-1.291.142-.143.148.147 1.143 1.144Z"/>
      <path d="M56.714 53.714 56 53l.714-.714.714.714-.714.714ZM56.295 53l.419.419.419-.42-.419-.418-.419.419ZM60.592 52.899l-.184-.184-.143-.143-.184-.185-.101-.1-.429.428-.184.184-.101.1.101.102.184.184.143.143.184.184.102.102.1-.101.185-.185.143-.143.285-.285-.1-.101Zm-.612.52-.138-.138-.143-.143-.138-.138.138-.138.143-.143.138-.138.28.281.138.138-.138.138-.28.28ZM63.286 53.714 62.572 53l.714-.714L64 53l-.714.714ZM62.867 53l.42.419.418-.42-.419-.418-.419.419ZM60 50.428l-.714-.714L60 49l.714.714-.714.714Zm-.42-.714.42.419.419-.419-.42-.419-.418.419ZM60 57l-.714-.714.714-.714.714.714L60 57Zm-.42-.714.42.419.419-.419-.42-.419-.418.419ZM62.251 51.634h-.905v-.906h.209v.697h.696v.209ZM61.639 52.246h-.906v-.905h.21v.696h.696v.21ZM58.581 55.324h-.208v-.697h-.697v-.209h.905v.906ZM59.21 54.695h-.209v-.697h-.696v-.208h.905v.905ZM61.565 55.313h-.21v-.905h.906v.209h-.696v.696ZM60.952 54.7h-.209v-.905h.906v.21h-.697v.696ZM58.572 51.644h-.906v-.209h.697v-.696h.209v.905ZM59.2 52.273h-.905v-.21h.697v-.696h.208v.906Z"/>
      <path d="m59.487 55.775-.148-.147.64-.64.64.64-.147.147-.493-.492-.492.492ZM59.487 54.909l-.148-.147.64-.64.64.64-.147.147-.493-.492-.492.492ZM59.98 51.064l-.64-.64.147-.148.492.493.493-.493.148.148-.64.64ZM59.98 51.953l-.64-.64.147-.147.492.492.493-.492.148.148-.64.64ZM57.361 53.64l-.147-.148.492-.492-.492-.492.148-.148.64.64-.64.64ZM58.228 53.64l-.148-.148.493-.492-.493-.492.148-.148.64.64-.64.64ZM62.566 53.64l-.64-.64.64-.64.147.148-.492.492.492.492-.148.148ZM61.676 53.64l-.64-.64.64-.64.148.148-.493.492.493.492-.148.148Z"/>
    </g>
    <g opacity=".6" fill="#E4EDEF">
      <path d="M66.08 6.342V8.53a.383.383 0 0 0-.202 0V6.34c0-.106.046-.192.102-.192.028 0 .053.022.071.056a.3.3 0 0 1 .03.137ZM65.98 9.58a.402.402 0 0 0 .1-.014v2.1c0 .102-.045.184-.1.184-.056 0-.102-.082-.102-.184v-2.1a.404.404 0 0 0 .102.013ZM65.494 9c0 .035.005.07.014.101h-2.187c-.106 0-.192-.045-.192-.101 0-.056.086-.101.192-.101h2.186a.404.404 0 0 0-.013.1ZM68.83 9c0 .028-.022.053-.056.072a.303.303 0 0 1-.136.03h-2.193a.763.763 0 0 0 0-.203h2.193c.106 0 .192.045.192.1ZM65.841 8.72l-.142.142-1.292-1.291.143-.143 1.144 1.144.147.147ZM67.551 7.571l-1.143 1.144-.148.147-.142-.143.147-.147 1.144-1.144.142.143ZM65.842 9.28l-.148.148-1.144 1.144-.143-.143 1.144-1.144.148-.147.143.143ZM67.551 10.429l-.142.143-1.291-1.291.142-.143.148.147 1.143 1.144Z"/>
      <path d="M62.714 9.714 62 9l.714-.714.714.714-.714.714ZM62.295 9l.419.419.419-.42-.419-.418-.419.419ZM66.592 8.899l-.184-.184-.143-.143-.184-.185-.101-.1-.429.428-.184.184-.101.1.101.102.184.184.143.143.184.184.102.102.1-.101.185-.185.143-.143.285-.285-.1-.101Zm-.612.52-.138-.138-.143-.143L65.561 9l.138-.138.142-.143.139-.137.28.28.138.138-.138.138-.28.28ZM69.286 9.714 68.572 9l.714-.714L70 9l-.714.714ZM68.867 9l.42.419.418-.42-.419-.418-.419.419ZM66 6.428l-.714-.714L66 5l.714.714-.714.714Zm-.42-.714.42.419.418-.42L66 5.296l-.42.419ZM66 13l-.714-.714.714-.714.714.714L66 13Zm-.42-.714.42.419.418-.419-.418-.419-.42.419ZM68.251 7.634h-.905v-.905h.209v.696h.696v.209ZM67.639 8.246h-.906v-.905h.21v.696h.696v.21ZM64.581 11.324h-.208v-.697h-.697v-.209h.905v.906ZM65.21 10.695h-.209v-.697h-.696V9.79h.905v.905ZM67.565 11.313h-.21v-.905h.906v.209h-.696v.696ZM66.952 10.7h-.209v-.904h.906v.208h-.697v.697ZM64.572 7.644h-.906v-.21h.697V6.74h.209v.905ZM65.2 8.273h-.905v-.21h.697v-.696h.208v.906Z"/>
      <path d="m65.487 11.775-.148-.147.64-.64.64.64-.147.147-.493-.492-.492.492ZM65.487 10.91l-.148-.148.64-.64.64.64-.147.147-.493-.492-.492.492ZM65.98 7.064l-.64-.64.147-.148.492.493.493-.493.148.148-.64.64ZM65.98 7.954l-.64-.64.147-.148.492.492.493-.492.148.147-.64.64ZM63.361 9.64l-.147-.148.492-.492-.492-.492.148-.148.64.64-.64.64ZM64.228 9.64l-.148-.148.493-.492-.493-.492.148-.148.64.64-.64.64ZM68.566 9.64l-.64-.64.64-.64.147.148-.492.492.492.492-.147.148ZM67.676 9.64l-.64-.64.64-.64.148.148L67.33 9l.493.492-.148.148Z"/>
    </g>
    <path d="M66.08 177.342v2.189a.374.374 0 0 0-.202 0v-2.189c0-.107.046-.193.102-.193.028 0 .053.022.071.056a.3.3 0 0 1 .03.137ZM65.98 180.579a.374.374 0 0 0 .1-.013v2.1c0 .102-.045.185-.1.185-.056 0-.102-.083-.102-.185v-2.1a.377.377 0 0 0 .102.013ZM65.494 180c0 .035.005.069.014.101h-2.187c-.106 0-.192-.045-.192-.101 0-.056.086-.101.192-.101h2.186a.403.403 0 0 0-.013.101ZM68.83 180c0 .028-.022.053-.056.072a.302.302 0 0 1-.136.029h-2.193a.759.759 0 0 0 0-.202h2.193c.106 0 .192.045.192.101ZM65.841 179.719l-.142.143-1.292-1.291.143-.143 1.144 1.144.147.147ZM67.551 178.571l-1.143 1.144-.148.147-.142-.143.147-.147 1.144-1.144.142.143ZM65.842 180.281l-.148.147-1.144 1.144-.143-.143 1.144-1.144.148-.147.143.143ZM67.551 181.429l-.142.143-1.291-1.291.142-.143.148.147 1.143 1.144Z" fill="#E4EDEF"/>
    <path d="M62.714 180.714 62 180l.714-.714.714.714-.714.714Zm-.419-.714.419.419.419-.419-.419-.419-.419.419ZM66.592 179.899l-.184-.184-.143-.143-.184-.185-.101-.101-.429.429-.184.184-.101.101.101.101.184.184.143.143.184.184.102.102.1-.101.185-.185.143-.143.285-.285-.1-.101Zm-.612.52-.138-.138-.143-.143-.138-.138.138-.138.142-.143.139-.138.28.281.138.138-.138.138-.28.281ZM69.286 180.714l-.714-.714.714-.714L70 180l-.714.714Zm-.419-.714.42.419.418-.419-.419-.419-.419.419ZM66 177.428l-.714-.714L66 176l.714.714-.714.714Zm-.42-.714.42.419.418-.419-.418-.419-.42.419ZM66 184l-.714-.714.714-.714.714.714L66 184Zm-.42-.714.42.419.418-.419-.418-.419-.42.419ZM68.251 178.634h-.905v-.905h.209v.696h.696v.209ZM67.639 179.246h-.906v-.905h.21v.696h.696v.209ZM64.581 182.324h-.208v-.697h-.697v-.209h.905v.906ZM65.21 181.695h-.209v-.697h-.696v-.208h.905v.905ZM67.565 182.313h-.21v-.905h.906v.209h-.696v.696ZM66.952 181.701h-.209v-.905h.906v.208h-.697v.697ZM64.572 178.644h-.906v-.209h.697v-.696h.209v.905ZM65.2 179.273h-.905v-.209h.697v-.697h.208v.906Z" fill="#E4EDEF"/>
    <path d="m65.487 182.775-.148-.147.64-.64.64.64-.147.147-.493-.492-.492.492ZM65.487 181.909l-.148-.147.64-.64.64.64-.147.147-.493-.492-.492.492ZM65.98 178.064l-.64-.64.147-.148.492.493.493-.493.148.148-.64.64ZM65.98 178.953l-.64-.64.147-.147.492.492.493-.492.148.147-.64.64ZM63.361 180.64l-.147-.148.492-.492-.492-.492.148-.148.64.64-.64.64ZM64.228 180.64l-.148-.148.493-.492-.493-.492.148-.148.64.64-.64.64ZM68.566 180.64l-.64-.64.64-.64.147.148-.492.492.492.492-.147.148ZM67.676 180.64l-.64-.64.64-.64.148.148-.493.492.493.492-.148.148ZM80.631 155.181v3.557a.593.593 0 0 0-.329 0v-3.557c0-.173.074-.313.165-.313.046 0 .086.034.116.091.03.057.048.135.048.222ZM80.467 160.441a.633.633 0 0 0 .164-.021v3.412c0 .166-.074.3-.164.3-.09 0-.165-.134-.165-.3v-3.412a.639.639 0 0 0 .165.021ZM79.678 159.5c0 .057.008.112.022.165h-3.553c-.173 0-.313-.074-.313-.165 0-.09.14-.164.313-.164H79.7a.652.652 0 0 0-.022.164ZM85.099 159.5c0 .045-.035.087-.092.116a.48.48 0 0 1-.22.049h-3.564a1.245 1.245 0 0 0 .001-.329h3.563c.171 0 .312.074.312.164ZM80.243 159.044l-.233.232-2.098-2.099.232-.232 1.859 1.859.24.24ZM83.02 157.178l-1.857 1.858-.24.24-.232-.232.24-.24 1.858-1.858.232.232ZM80.243 159.956l-.24.24-1.859 1.859-.232-.232 1.859-1.859.24-.24.232.232ZM83.02 161.822l-.231.232-2.098-2.098.232-.232.24.24 1.858 1.858Z" fill="#E4EDEF"/>
    <path d="M75.16 160.66 74 159.5l1.16-1.16 1.16 1.16-1.16 1.16Zm-.68-1.16.68.68.68-.68-.68-.681-.68.681ZM81.462 159.335l-.299-.299-.232-.232-.3-.3-.164-.164-.696.696-.3.299-.164.165.165.165.299.299.232.232.3.299.164.165.164-.164.3-.3.231-.232.464-.464-.164-.165Zm-.995.845-.224-.224-.232-.232-.224-.224.223-.224.233-.232.224-.224.456.456.224.224-.224.224-.456.456ZM85.84 160.66l-1.16-1.16 1.16-1.16L87 159.5l-1.16 1.16Zm-.68-1.16.68.68.68-.68-.68-.681-.68.681ZM80.5 155.32l-1.16-1.16L80.5 153l1.16 1.16-1.16 1.16Zm-.68-1.16.68.681.68-.681-.68-.68-.68.68ZM80.5 166l-1.16-1.16 1.16-1.16 1.16 1.16L80.5 166Zm-.68-1.16.68.68.68-.68-.68-.681-.68.681ZM84.158 157.28h-1.471v-1.471h.34v1.132h1.13v.339ZM83.163 158.275h-1.471v-1.471h.339v1.132h1.132v.339ZM78.195 163.276h-.34v-1.132h-1.131v-.339h1.47v1.471ZM79.217 162.254h-.34v-1.132h-1.131v-.339h1.47v1.471ZM83.043 163.259h-.34v-1.471h1.471v.339h-1.131v1.132ZM82.047 162.264h-.339v-1.471h1.47v.339h-1.13v1.132ZM78.179 157.296h-1.472v-.339h1.132v-1.132h.34v1.471ZM79.2 158.318H77.73v-.339h1.132v-1.132h.34v1.471Z" fill="#E4EDEF"/>
    <path d="m79.667 164.01-.24-.239 1.04-1.04 1.04 1.04-.24.239-.8-.8-.8.8ZM79.667 162.602l-.24-.239 1.04-1.04 1.04 1.04-.24.239-.8-.8-.8.8ZM80.466 156.354l-1.04-1.04.24-.24.8.801.801-.801.24.24-1.04 1.04ZM80.466 157.799l-1.04-1.04.24-.24.8.801.801-.801.24.24-1.04 1.04ZM76.212 160.54l-.24-.24.8-.8-.8-.8.24-.24 1.04 1.04-1.04 1.04ZM77.62 160.54l-.24-.24.8-.8-.8-.8.24-.24 1.04 1.04-1.04 1.04ZM84.669 160.54l-1.04-1.04 1.04-1.04.24.24-.8.8.8.8-.24.24ZM83.224 160.54l-1.04-1.04 1.04-1.04.24.24-.8.8.8.8-.24.24ZM112.081 189.342v2.189a.38.38 0 0 0-.203 0v-2.189c0-.107.046-.193.102-.193.028 0 .053.022.071.056.019.035.03.083.03.137ZM111.98 192.579a.373.373 0 0 0 .101-.013v2.1c0 .102-.046.185-.101.185-.056 0-.102-.083-.102-.185v-2.1a.38.38 0 0 0 .102.013ZM111.494 192c0 .035.005.069.014.101h-2.187c-.106 0-.192-.045-.192-.101 0-.056.086-.101.192-.101h2.187a.373.373 0 0 0-.014.101ZM114.83 192c0 .028-.022.053-.056.072a.304.304 0 0 1-.136.029h-2.193a.803.803 0 0 0 .001-.202h2.192c.106 0 .192.045.192.101ZM111.842 191.719l-.143.143-1.292-1.291.143-.143 1.144 1.144.148.147ZM113.551 190.571l-1.143 1.144-.148.147-.142-.143.147-.147 1.144-1.144.142.143ZM111.842 192.281l-.148.147-1.144 1.144-.143-.143 1.144-1.144.148-.147.143.143ZM113.551 193.429l-.142.143-1.291-1.291.142-.143.148.147 1.143 1.144Z" fill="#E4EDEF"/>
    <path d="M108.714 192.714 108 192l.714-.714.714.714-.714.714Zm-.419-.714.419.419.419-.419-.419-.419-.419.419ZM112.592 191.899l-.184-.184-.143-.143-.184-.185-.101-.101-.429.429-.184.184-.101.101.101.101.184.184.143.143.184.184.102.102.101-.101.184-.185.143-.143.285-.285-.101-.101Zm-.612.52-.138-.138-.143-.143-.138-.138.138-.138.142-.143.139-.138.28.281.138.138-.138.138-.28.281ZM115.286 192.714l-.714-.714.714-.714.714.714-.714.714Zm-.419-.714.419.419.419-.419-.419-.419-.419.419ZM112 189.428l-.714-.714L112 188l.714.714-.714.714Zm-.419-.714.419.419.418-.419-.418-.419-.419.419ZM114.251 190.634h-.905v-.905h.209v.696h.696v.209ZM113.639 191.246h-.906v-.905h.209v.696h.697v.209ZM110.581 194.324h-.208v-.697h-.697v-.209h.905v.906ZM111.21 193.695h-.209v-.697h-.696v-.208h.905v.905ZM113.565 194.313h-.209v-.905h.905v.209h-.696v.696ZM112.952 193.701h-.209v-.905h.906v.208h-.697v.697ZM110.571 190.644h-.905v-.209h.697v-.696h.208v.905ZM111.2 191.273h-.905v-.209h.697v-.697h.208v.906ZM111.487 194.775l-.148-.147.64-.64.641.64-.148.147-.493-.492-.492.492ZM111.487 193.909l-.148-.147.64-.64.641.64-.148.147-.493-.492-.492.492Z" fill="#E4EDEF"/>
    <path d="m111.979 190.064-.64-.64.148-.148.492.493.493-.493.148.148-.641.64ZM111.979 190.953l-.64-.64.148-.147.492.492.493-.492.148.147-.641.64ZM109.361 192.64l-.147-.148.492-.492-.492-.492.147-.148.641.64-.641.64ZM110.228 192.64l-.148-.148.493-.492-.493-.492.148-.148.64.64-.64.64ZM114.565 192.64l-.64-.64.64-.64.148.148-.492.492.492.492-.148.148ZM113.676 192.64l-.64-.64.64-.64.148.148-.493.492.493.492-.148.148Z" fill="#E4EDEF"/>
    <g opacity=".6" fill="#E4EDEF">
      <path d="M232.081 5.342V7.53a.382.382 0 0 0-.203 0V5.34c0-.106.046-.192.102-.192.028 0 .053.022.071.056.019.035.03.083.03.137ZM231.98 8.58a.4.4 0 0 0 .101-.014v2.1c0 .102-.046.184-.101.184-.056 0-.102-.082-.102-.184v-2.1a.408.408 0 0 0 .102.013ZM231.494 8c0 .035.005.07.014.101h-2.187c-.106 0-.192-.045-.192-.101 0-.056.086-.101.192-.101h2.187a.374.374 0 0 0-.014.1ZM234.83 8c0 .028-.022.053-.056.072a.305.305 0 0 1-.136.03h-2.193a.807.807 0 0 0 .001-.203h2.192c.106 0 .192.045.192.1ZM231.842 7.72l-.143.142-1.292-1.291.143-.143 1.144 1.144.148.147ZM233.551 6.571l-1.143 1.144-.148.147-.142-.143.147-.147 1.144-1.144.142.143ZM231.842 8.28l-.148.148-1.144 1.144-.143-.143 1.144-1.144.148-.147.143.143ZM233.551 9.429l-.142.143-1.291-1.291.142-.143.148.147 1.143 1.144Z"/>
      <path d="M228.714 8.714 228 8l.714-.714.714.714-.714.714ZM228.295 8l.419.419.419-.42-.419-.418-.419.419ZM232.592 7.899l-.184-.184-.143-.143-.184-.185-.101-.1-.429.428-.184.184-.101.1.101.102.184.184.143.143.184.184.102.102.101-.101.184-.185.143-.143.285-.285-.101-.101Zm-.612.52-.138-.138-.143-.143-.138-.138.138-.138.142-.143.139-.138.28.281.138.138-.138.138-.28.28ZM235.286 8.714 234.572 8l.714-.714L236 8l-.714.714ZM234.867 8l.419.419.419-.42-.419-.418-.419.419ZM232 5.428l-.714-.714L232 4l.714.714-.714.714Zm-.419-.714.419.419.418-.42-.418-.418-.419.419ZM232 12l-.714-.714.714-.714.714.714L232 12Zm-.419-.714.419.419.418-.419-.418-.419-.419.419ZM234.251 6.634h-.905v-.905h.209v.696h.696v.209ZM233.639 7.246h-.906v-.905h.209v.696h.697v.21ZM230.581 10.324h-.208v-.697h-.697v-.209h.905v.906ZM231.21 9.695h-.209v-.697h-.696V8.79h.905v.905ZM233.565 10.313h-.209v-.905h.905v.209h-.696v.696ZM232.952 9.7h-.209v-.904h.906v.208h-.697v.697ZM230.571 6.644h-.905v-.21h.697V5.74h.208v.905ZM231.2 7.273h-.905v-.21h.697v-.696h.208v.906Z"/>
      <path d="m231.487 10.775-.148-.147.64-.64.641.64-.148.147-.493-.492-.492.492ZM231.487 9.91l-.148-.148.64-.64.641.64-.148.147-.493-.492-.492.492ZM231.979 6.064l-.64-.64.148-.148.492.493.493-.493.148.148-.641.64ZM231.979 6.954l-.64-.64.148-.148.492.492.493-.492.148.147-.641.64ZM229.361 8.64l-.147-.148.492-.492-.492-.492.147-.148.641.64-.641.64ZM230.228 8.64l-.148-.148.493-.492-.493-.492.148-.148.64.64-.64.64ZM234.565 8.64l-.64-.64.64-.64.148.148-.492.492.492.492-.148.148ZM233.676 8.64l-.64-.64.64-.64.148.148-.493.492.493.492-.148.148Z"/>
    </g>
    <g opacity=".6" fill="#E4EDEF">
      <path d="M188.081 21.342v2.189a.381.381 0 0 0-.203 0v-2.19c0-.106.046-.192.102-.192.028 0 .053.022.071.056.019.035.03.083.03.137ZM187.98 24.58a.398.398 0 0 0 .101-.014v2.1c0 .102-.046.184-.101.184-.056 0-.102-.082-.102-.184v-2.1a.406.406 0 0 0 .102.013ZM187.494 24c0 .035.005.07.014.101h-2.187c-.106 0-.192-.045-.192-.101 0-.056.086-.101.192-.101h2.187a.374.374 0 0 0-.014.1ZM190.83 24c0 .028-.022.053-.056.072a.305.305 0 0 1-.136.03h-2.193a.807.807 0 0 0 .001-.203h2.192c.106 0 .192.045.192.1ZM187.842 23.72l-.143.142-1.292-1.291.143-.143 1.144 1.144.148.147ZM189.551 22.571l-1.143 1.144-.148.147-.142-.143.147-.147 1.144-1.144.142.143ZM187.842 24.28l-.148.148-1.144 1.144-.143-.143 1.144-1.144.148-.147.143.143ZM189.551 25.429l-.142.143-1.291-1.291.142-.143.148.147 1.143 1.144Z"/>
      <path d="M184.714 24.714 184 24l.714-.714.714.714-.714.714Zm-.419-.714.419.419.419-.42-.419-.418-.419.419ZM188.592 23.899l-.184-.184-.143-.143-.184-.185-.101-.1-.429.428-.184.184-.101.1.101.102.184.184.143.143.184.184.102.102.101-.101.184-.185.143-.143.285-.285-.101-.101Zm-.612.52-.138-.138-.143-.143-.138-.138.138-.138.142-.143.139-.138.28.281.138.138-.138.138-.28.28ZM191.286 24.714l-.714-.714.714-.714L192 24l-.714.714Zm-.419-.714.419.419.419-.42-.419-.418-.419.419ZM188 21.428l-.714-.714L188 20l.714.714-.714.714Zm-.419-.714.419.419.418-.419-.418-.419-.419.419ZM188 28l-.714-.714.714-.714.714.714L188 28Zm-.419-.714.419.419.418-.419-.418-.419-.419.419ZM190.251 22.634h-.905v-.905h.209v.696h.696v.209ZM189.639 23.246h-.906v-.905h.209v.696h.697v.21ZM186.581 26.324h-.208v-.697h-.697v-.208h.905v.905ZM187.21 25.695h-.209v-.697h-.696v-.208h.905v.905ZM189.565 26.313h-.209v-.905h.905v.209h-.696v.696ZM188.952 25.7h-.209v-.904h.906v.208h-.697v.697ZM186.571 22.644h-.905v-.209h.697v-.696h.208v.905ZM187.2 23.273h-.905v-.21h.697v-.696h.208v.905Z"/>
      <path d="m187.487 26.775-.148-.147.64-.64.641.64-.148.147-.493-.492-.492.492ZM187.487 25.909l-.148-.147.64-.64.641.64-.148.147-.493-.492-.492.492ZM187.979 22.064l-.64-.64.148-.148.492.493.493-.493.148.148-.641.64ZM187.979 22.953l-.64-.64.148-.147.492.492.493-.492.148.148-.641.64ZM185.361 24.64l-.147-.148.492-.492-.492-.492.147-.148.641.64-.641.64ZM186.228 24.64l-.148-.148.493-.492-.493-.492.148-.148.64.64-.64.64ZM190.565 24.64l-.64-.64.64-.64.148.148-.492.492.492.492-.148.148ZM189.676 24.64l-.64-.64.64-.64.148.148-.493.492.493.492-.148.148Z"/>
    </g>
    <g opacity=".6" fill="#E4EDEF">
      <path d="M183.061 5.006v1.642a.296.296 0 0 0-.152 0V5.006c0-.08.034-.144.076-.144.021 0 .04.016.053.042a.222.222 0 0 1 .023.102ZM182.985 7.434a.31.31 0 0 0 .076-.01V9c0 .077-.035.139-.076.139-.042 0-.076-.062-.076-.139V7.425c.024.006.049.01.076.01ZM182.621 7c0 .026.003.052.01.076h-1.64c-.08 0-.145-.034-.145-.076 0-.042.065-.076.145-.076h1.64a.27.27 0 0 0-.01.076ZM185.123 7c0 .02-.017.04-.043.054a.227.227 0 0 1-.102.022h-1.644a.552.552 0 0 0 0-.152h1.645c.079 0 .144.034.144.076ZM182.881 6.79l-.107.107-.968-.969.107-.107.858.858.11.11ZM184.163 5.928l-.857.858-.111.11-.107-.107.111-.11.857-.858.107.107ZM182.881 7.21l-.11.111-.858.858-.107-.107.858-.858.11-.11.107.107ZM184.163 8.072l-.107.107-.968-.968.107-.108.111.111.857.858Z"/>
      <path d="M180.535 7.535 180 7l.535-.536.536.536-.536.535ZM180.221 7l.314.314.315-.314-.315-.314-.314.314ZM183.444 6.924l-.138-.138-.107-.107-.138-.139-.076-.075-.321.321-.139.138-.076.076.076.076.139.138.107.107.138.138.076.076.076-.075.138-.139.107-.107.214-.214-.076-.076Zm-.459.39-.104-.103-.107-.108-.103-.103.103-.103.107-.108.104-.103.21.21.104.104-.104.103-.21.21ZM185.465 7.535 184.929 7l.536-.536L186 7l-.535.535ZM185.15 7l.315.314.314-.314-.314-.314-.315.314ZM183 5.07l-.536-.535L183 4l.535.535-.535.536Zm-.314-.535.314.315.314-.315-.314-.314-.314.314ZM183 10l-.536-.535.536-.536.535.536L183 10Zm-.314-.535.314.314.314-.314L183 9.15l-.314.315ZM184.688 5.975h-.679v-.679h.157v.523h.522v.156ZM184.229 6.435h-.679v-.68h.157v.523h.522v.157ZM181.936 8.743h-.156V8.22h-.523v-.156h.679v.679ZM182.408 8.271h-.157V7.75h-.522v-.157h.679v.68ZM184.174 8.735h-.157v-.679h.679v.157h-.522v.522ZM183.714 8.276h-.156v-.68h.678v.157h-.522v.523ZM181.929 5.983h-.68v-.157h.523v-.522h.157v.679ZM182.4 6.454h-.679v-.156h.523v-.523h.156v.68Z"/>
      <path d="m182.615 9.082-.11-.11.48-.481.48.48-.111.11-.369-.369-.37.37ZM182.615 8.432l-.11-.11.48-.48.48.48-.111.11-.369-.37-.37.37ZM182.985 5.548l-.48-.48.11-.11.37.369.369-.37.111.111-.48.48ZM182.985 6.215l-.48-.48.11-.11.37.369.369-.37.111.111-.48.48ZM181.021 7.48l-.11-.11.369-.37-.369-.37.11-.11.48.48-.48.48ZM181.671 7.48l-.111-.11.37-.37-.37-.37.111-.11.48.48-.48.48ZM184.924 7.48l-.48-.48.48-.48.111.11-.37.37.37.37-.111.11ZM184.257 7.48l-.48-.48.48-.48.111.11-.37.37.37.37-.111.11Z"/>
    </g>
    <path d="M109.62 193.856c-15.182.977-28.379 1.212-41.148 1.125v-.004c-20.586-.154-34.415-1.306-34.415-1.306-4.589-17.983-4.468-35.671-3.93-48.053 20.762-1.939 67.421-1.054 83.368-.007 1.673 16.607-3.844 49.491-3.875 48.245Z" fill="#F5B818"/>
    <path d="M109.62 193.856c-15.182.98-28.379 1.212-41.151 1.128v-.003c-20.583-.155-34.416-1.306-34.416-1.306a122.029 122.029 0 0 1-1.828-8.43c48.663.805 51.763-34.981 51.948-40.623 12.204.198 23.098.585 29.315.993 1.68 16.603-3.837 49.49-3.868 48.241Z" fill="#E09F0E"/>
    <path d="m116.236 151.153-2.508.013-42.394.259-2.862.014-38.573.229-3.171.023c-.89-6.07-.714-12.415-.714-12.415 12.87-.95 26.292-1.317 38.752-1.36.743-.007 1.477-.007 2.215-.007h2.01c.316 0 .639 0 .956.007h1.619c.397.006.794.006 1.191.006.69.007 1.384.014 2.06.024 23.798.212 41.954 1.421 41.961 1.421.525 5.894-.542 11.786-.542 11.786Z" fill="#2D9161"/>
    <path d="M58.666 137.916v57.082c-.485 0-.963 0-1.441-.007-.478 0-.95-.007-1.421-.007v-57.072h.515c.316 0 .64 0 .956.007h1.39v-.003Z" fill="#073F2A"/>
    <path d="M90.462 156.943c-1.276 0-2.333-1-2.333-2.276 0-1.222 1.053-2.275 2.333-2.275 1.279 0 2.333.999 2.333 2.275 0 1.276-1.057 2.276-2.333 2.276ZM66.3 171.271c0-1.222-1.054-2.276-2.333-2.276-1.276 0-2.333 1-2.333 2.276 0 1.276 1.053 2.275 2.333 2.275 1.275.004 2.333-1.053 2.333-2.275Zm7.052-12.608c0-.666-.555-1.222-1.276-1.222-.666 0-1.275.556-1.275 1.222 0 .667.555 1.222 1.275 1.222.72 0 1.276-.555 1.276-1.222Zm13.385 12.608c0-.667-.555-1.222-1.275-1.222-.667 0-1.276.555-1.276 1.222 0 .666.555 1.222 1.276 1.222.72 0 1.275-.556 1.275-1.222Zm17.718-14.328c0-.667-.555-1.222-1.276-1.222-.666 0-1.276.555-1.276 1.222 0 .667.556 1.222 1.276 1.222.721 0 1.276-.559 1.276-1.222Zm-58.317 17.883c0-.667-.556-1.222-1.276-1.222-.667 0-1.276.555-1.276 1.222 0 .666.555 1.222 1.276 1.222.72 0 1.276-.499 1.276-1.222Zm60.872 2.811c0-.667-.555-1.222-1.276-1.222-.666 0-1.275.555-1.275 1.222 0 .666.555 1.222 1.275 1.222.721 0 1.276-.498 1.276-1.222Zm-28.605 1.222c0-.667-.555-1.222-1.276-1.222-.666 0-1.275.555-1.275 1.222 0 .666.555 1.222 1.275 1.222.72 0 1.276-.556 1.276-1.222Zm12.941 7.278c0-1.276-1.054-2.276-2.333-2.276-1.276 0-2.333 1-2.333 2.276 0 1.276 1.054 2.276 2.333 2.276 1.276 0 2.333-1 2.333-2.276Zm15.829 3.942c0-1.222-1.053-2.276-2.333-2.276-1.276 0-2.333 1-2.333 2.276 0 1.276 1.054 2.276 2.333 2.276 1.28 0 2.333-1 2.333-2.276Zm-33.436-3.942c0-1.276-1.053-2.276-2.332-2.276-1.276 0-2.334 1-2.334 2.276 0 1.276 1.054 2.276 2.334 2.276 1.333 0 2.332-1 2.332-2.276ZM38.924 156.31c0-.667-.555-1.222-1.276-1.222-.666 0-1.275.555-1.275 1.222 0 .667.555 1.222 1.276 1.222.72 0 1.275-.502 1.275-1.222Zm-1.619 26.05c0-1.276-1.054-2.276-2.333-2.276-1.276 0-2.333 1-2.333 2.276 0 1.276 1.054 2.276 2.333 2.276 1.28 0 2.333-1 2.333-2.276Zm14.133 6.581c0-1.222-1.054-2.275-2.333-2.275-1.276 0-2.333.999-2.333 2.275 0 1.276 1.053 2.276 2.333 2.276 1.279 0 2.333-1 2.333-2.276Zm-.633-28.611c0-1.276-1.054-2.276-2.333-2.276-1.28 0-2.333 1-2.333 2.276 0 1.276 1.053 2.275 2.333 2.275 1.279 0 2.333-1.053 2.333-2.275Zm49.265 11.021c0-1.222-1.054-2.275-2.333-2.275-1.276 0-2.333 1-2.333 2.275 0 1.276 1.053 2.276 2.333 2.276 1.276 0 2.333-1 2.333-2.276Z" fill="#fff"/>
    <path d="M113.297 165.022c-.071.957-.149 1.909-.233 2.862H30.188c-.06-.963-.107-1.919-.148-2.862h83.257ZM58.894 137.916l-.249-1.296c-.007-.024-.007-.037-.013-.058-.374-1.979-.882-3.649-1.441-5.056-2.141-5.336-5.137-6.821-5.555-7.006-1.905-.845-3.945-.619-6.07.677-2.47 1.495-3.444 3.878-2.605 6.359 1.171 3.444 4.965 5.609 9.14 6.38.676.131 1.36.222 2.047.266.491.043.98.067 1.464.067h.199c.279 0 .552-.014.824-.03.169-.007.34-.024.502-.037.013 0 .037 0 .044-.007h.013c.111-.007.222-.014.33-.03l1.148-.125.242-.024-.02-.08Zm-13.49-7.211c-.447-1.323.051-2.444 1.495-3.32.87-.528 1.67-.794 2.414-.794.441 0 .862.094 1.266.272 2.68 1.185 4.43 5.915 5.195 8.807-5.363.128-9.484-2.346-10.37-4.965Z" fill="#073F2A"/>
    <path d="M68.805 125.177c-2.128-1.296-4.164-1.522-6.07-.677-.41.185-3.413 1.67-5.547 7.006-.53 1.316-1.007 2.861-1.377 4.686v.007c-.03.141-.061.272-.088.421l-.25 1.289-.013.087.347.037.714.075.34.037c.094.006.175.023.273.03H57.19c.485.05.98.074 1.478.074h.104c.529 0 1.06-.024 1.589-.074 0 0 .007-.007.007 0a15.978 15.978 0 0 0 1.78-.229c4.226-.758 8.08-2.929 9.265-6.41.835-2.481-.135-4.864-2.609-6.359Zm.155 5.528c-.882 2.612-5.013 5.076-10.369 4.965.764-2.892 2.518-7.615 5.195-8.807 1.097-.484 2.302-.316 3.68.516 1.444.882 1.942 2.003 1.494 3.326Z" fill="#073F2A"/>
    <path d="M43.634 147.342c-1.764 0-3.703-.344-5.824-1.152l.922-2.413c4.767 1.821 8.989 1.09 12.55-2.168 2.738-2.505 4.04-5.575 4.054-5.606l2.387.997c-.05.121-4.457 10.342-14.089 10.342Z" fill="#073F2A"/>
    <path d="M69.9 146.012c-2.367 0-5.27-1.276-8.656-3.811a45.155 45.155 0 0 1-5.026-4.403l1.868-1.788c2.209 2.303 8.753 8.117 12.48 7.353 1.023-.209 1.774-.973 2.293-2.34l2.417.916c-1.054 2.78-2.862 3.686-4.195 3.955a5.66 5.66 0 0 1-1.182.118Z" fill="#073F2A"/>
  </g>
  <defs>
    <clipPath id="a">
      <path fill="#fff" d="M0 0h320v194H0z"/>
    </clipPath>
  </defs>
</svg>
