<svg width="304" height="194" fill="none" xmlns="http://www.w3.org/2000/svg">
  <g clip-path="url(#a)">
    <path fill="#252F90" d="M0 0h304v194H0z"/>
    <g opacity=".7">
      <path d="M181 197.39s2.53-19.06 29.4-15.4c26.88 3.65 58.85 19.48 76.75-10.69s-20.59-48.85-28.94-65.17c-5.35-10.49-3.46-22.61 27.68-17.72 32.24 5.07 42.03 21.3 46.19 40.9" stroke="#2B2B37" stroke-width="3" stroke-miterlimit="10"/>
      <path d="M183.18 197.84c.6-.94.31-2.19-.64-2.8a2.02 2.02 0 0 0-2.8.58c-.6.93-.3 2.18.64 2.8.95.61 2.2.35 2.8-.58ZM206.37 183.15c.6-.93.31-2.19-.64-2.8a2.02 2.02 0 0 0-2.8.58c-.6.93-.3 2.19.64 2.8.95.61 2.2.35 2.8-.58ZM229.16 186.77c.6-.93.3-2.18-.64-2.8a2.01 2.01 0 0 0-2.8.58c-.6.94-.31 2.19.64 2.8.95.62 2.2.36 2.8-.58ZM255.87 190.17c.6-.93.31-2.19-.64-2.8a2.02 2.02 0 0 0-2.8.58c-.6.93-.3 2.19.64 2.8.95.61 2.2.35 2.8-.58ZM281.55 180.18c.6-.94.31-2.2-.64-2.8a2.02 2.02 0 0 0-2.8.58c-.6.93-.3 2.18.64 2.8.95.6 2.2.35 2.8-.58ZM292.84 155.1c.6-.94.31-2.2-.64-2.8a2.01 2.01 0 0 0-2.8.57c-.6.94-.3 2.19.64 2.8.95.62 2.2.36 2.8-.58ZM283.3 132.46c.6-.94.31-2.2-.64-2.8a2.02 2.02 0 0 0-2.8.58c-.6.93-.3 2.18.64 2.8.95.6 2.2.35 2.8-.58ZM264.58 112.86c.6-.93.31-2.18-.64-2.8a2.02 2.02 0 0 0-2.8.58c-.6.94-.3 2.2.64 2.8.95.62 2.2.36 2.8-.58ZM259.34 92.64c.6-.93.3-2.18-.64-2.8a2.02 2.02 0 0 0-2.8.58c-.6.93-.31 2.19.64 2.8.95.61 2.2.36 2.8-.58ZM280.54 88.02c.6-.93.3-2.18-.65-2.8a2.02 2.02 0 0 0-2.8.58c-.6.94-.3 2.19.65 2.8.95.62 2.2.36 2.8-.58ZM305.84 93.61c.6-.93.31-2.18-.64-2.8a2.01 2.01 0 0 0-2.8.58c-.6.93-.3 2.19.64 2.8.95.61 2.2.36 2.8-.58Z" fill="#2B2B37"/>
      <path d="M221.91 192.14c.35-3.47 2.65-6.04 5.14-5.74 2.48.3 4.2 3.36 3.86 6.83-.35 3.47-3.15 11-5.64 10.7-2.48-.3-3.7-8.32-3.36-11.79ZM298.77 156.57c-3.3 1.12-6.66.12-7.5-2.23-.85-2.35 1.13-5.16 4.43-6.28s11.38-1.72 12.22.64c.85 2.34-5.85 6.75-9.15 7.87ZM259.82 84.14c1.15 3.31.18 6.62-2.17 7.38-2.35.77-5.19-1.3-6.34-4.61-1.16-3.32-1.83-11.37.52-12.13 2.35-.77 6.83 6.04 7.99 9.36Z" fill="#5FE84B"/>
      <path d="M281.42 171.4c1.28 3.27.44 6.61-1.87 7.47-2.32.86-5.23-1.1-6.52-4.36-1.28-3.27-2.27-11.3.04-12.15 2.32-.86 7.06 5.77 8.35 9.04ZM257.67 106.22c3.42.77 5.8 3.34 5.3 5.75-.48 2.41-3.66 3.75-7.09 2.99-3.42-.76-10.7-4.42-10.2-6.83.48-2.42 8.56-2.67 11.99-1.9ZM311.87 93.9c-3.01 1.75-6.5 1.41-7.78-.74-1.29-2.15.1-5.31 3.11-7.05 3.01-1.74 10.8-3.9 12.08-1.74 1.3 2.15-4.4 7.8-7.41 9.54ZM206.06 173.55c1.3 3.26.48 6.61-1.83 7.48-2.31.87-5.23-1.07-6.53-4.33-1.3-3.27-2.33-11.28-.02-12.15 2.3-.87 7.09 5.74 8.38 9Z" fill="#F26467"/>
      <path d="M250.44 196.59c-.38-3.48 1.32-6.48 3.8-6.7 2.47-.21 4.79 2.43 5.17 5.9.38 3.48-.77 11.45-3.24 11.67-2.48.22-5.35-7.4-5.73-10.87ZM287.96 126.9c-1.2 3.26-4.08 5.18-6.42 4.28-2.35-.9-3.29-4.27-2.09-7.53 1.2-3.27 5.8-9.85 8.15-8.95 2.34.9 1.56 8.93.36 12.2ZM284.16 82.67c-.9 3.36-3.6 5.52-6.01 4.83-2.42-.7-3.64-3.98-2.73-7.34.9-3.36 4.9-10.33 7.31-9.63 2.42.69 2.34 8.78 1.43 12.14ZM180.07 189.41c2.4 2.57 2.89 6 1.09 7.67-1.8 1.66-5.21.92-7.62-1.66-2.4-2.57-6.32-9.68-4.52-11.34 1.8-1.66 8.64 2.76 11.05 5.33Z" fill="#2678BC"/>
    </g>
    <path d="m29.86 124.78-.1 10.32c-1.4 1.86-2.84 4.26-5.46 4.94-3.41.9-7.96-.24-8.22-.23a4.36 4.36 0 0 1-.02-.5l.1-9.81s3.32-2.56 6.8-3.43c2.69-.67 5.46.62 6.9-1.29Z" fill="#F4DDDC"/>
    <path d="m30.25 115.85-.02.01v.01c-1.44 1.92-4.27 5.48-6.97 6.16-3.46.87-6.73-1.46-6.73-1.46l.1-10.32s2.96-2.19 6.2-3.23c.27-.1.53-.17.8-.24 2.65-.69 5.32.63 6.72-1.25l-.07 7.5-.03 2.82ZM30.73 96.61c-1.32 1.77-3.86 5.32-6.37 6-.79.23-1.59.3-2.34.25-2.74-.12-4.99-1.54-4.99-1.54l.1-10.32s2.19-1.77 4.87-2.83c.52-.2 1.06-.38 1.6-.5 2.6-.63 5.34.43 6.9-1 .1-.13.24-.24.34-.38l-.1 10.32ZM31.23 72.98c-1.58 2.65-3.64 7.1-5.67 8.59A8.38 8.38 0 0 1 22.5 83c-2.39.55-4.37-.13-5 .03l.01-.01.08-8.29c.62-.45 1.4-2.87 2.94-6.07.22-.48.46-.98.73-1.5 1.12-2.18 3.43-3.75 4.21-7.38l.01.02c.02-.01.01 0 .03.02a22.95 22.95 0 0 1 5.72 13.16ZM-.3 72.8c-.72-.55-2.14-1-3.57-1.35-2-.5-4.03-.76-4.03-.76s-3.49-2.62-5.12-3.04l-.06-.02a21.25 21.25 0 0 1 5.71-9.28h.02C-6.23 58.9-.15 61-.15 61l.57 1.2c.71 1.45 1.87 3.87 2.52 5.25A8.68 8.68 0 0 0-.31 72.8Z" fill="#FFF3F3"/>
    <path d="m29.6 135.16-.04 4.76a6.4 6.4 0 0 1-1.95 4.53 6.65 6.65 0 0 1-4.66 1.84 7.08 7.08 0 0 1-4.77-1.88 6.86 6.86 0 0 1-2.21-4.55c.47-.02 10.46-.45 13.64-4.7ZM29.7 125.04c-3.3 3.78-12.14 4.32-13.26 4.38h-.12l.07-8.78s10.42-.34 13.69-4.7l-.1 8.78c-.08.11-.17.22-.27.32ZM30.5 105.46c-1.35 1.8-3.9 2.9-6.45 3.6a35.3 35.3 0 0 1-7.25 1.1l.1-8.77s2.08-.07 4.69-.53c3.2-.58 7.2-1.76 8.99-4.17l-.09 8.77Z" fill="#AE2B2E"/>
    <path d="M16.1 62.83c-.61 1.38-1.74 2.44-2.6 3.87a9.61 9.61 0 0 0-5.76-1.4v-.02c.08-1.81-1.65-3.08-2.65-5.06-.08-.15-.14-.3-.2-.44a31.49 31.49 0 0 1-1.9-7.29v-.01a23.39 23.39 0 0 1 12.04.5l.01.02c.13.34 1.73 4.63 1.5 8.13-.05.64-.21 1.2-.45 1.7Z" fill="#FFF3F3"/>
    <path d="M-2.68 82.47a6.78 6.78 0 0 1-4.79 1.72 7.08 7.08 0 0 1-4.74-2.11l-.32-.35a6.58 6.58 0 0 1-1.14-1.83l-.01-.02a6.5 6.5 0 0 1-.53-2.51l.03-3.53c.02-2.03.33-4.03.9-5.95l.03-.09.06.02A47.8 47.8 0 0 1-4 70.9c1.3.6 2.53 1.3 3.54 2.08h.01a9.1 9.1 0 0 0-.13 1.43l-.03 3.52a6.38 6.38 0 0 1-2.08 4.54ZM7.8 65.43a8.95 8.95 0 0 0-4.81 1.86 14.99 14.99 0 0 0-3.48-4.56 29.31 29.31 0 0 0-6.82-4.53v-.02a22.13 22.13 0 0 1 10.37-5.53 45.3 45.3 0 0 1 3.71 7.58c.66 1.82 1.11 3.68 1.03 5.2ZM21.46 70.72a16.06 16.06 0 0 1-3.62 4.08v-.14a9.02 9.02 0 0 0-1.2-4.57 9.6 9.6 0 0 0-3.34-3.47 13.4 13.4 0 0 0 1.55-4.61c.75-4.49-.02-9.17-.02-9.17h.02c4.2 1.3 7.97 3.74 10.87 7.02v.02a31.7 31.7 0 0 1-4.26 10.84ZM30.68 86.58c-1.92 2.15-5.63 3.25-8.66 3.8-2.63.47-4.72.54-4.72.54l.08-7.85v-.02c.63-.16 2.6-.71 4.97-1.97a21.84 21.84 0 0 0 8.7-8.05c.07.71.1 1.44.09 2.17l-.11 11c-.11.15-.23.27-.35.38Z" fill="#AE2B2E"/>
    <path opacity=".2" d="m31.42 129.91-1.16-.03-13.45-.43H16.7l.13-8.8.16-10.33.13-8.8.16-10.34.13-7.86v-.01l.13-8.28v-.14A9.41 9.41 0 0 0 7.3 65.51v-.01a9.01 9.01 0 0 0-8.09 7.3l.01.01c-.08.47-.13.95-.13 1.43l-.05 3.54a6.5 6.5 0 0 1-2.1 4.58 6.8 6.8 0 0 1-9.52-.34l-.3-.35-1.14-1.84-.01-.01s9 3.1 9.69-8.35l.04-.74c.1-3.7 1.41-6.25 3.33-7.9a11.4 11.4 0 0 1 5.65-2.41c.54-.07 1.07-.12 1.62-.14 3.22-.13 6.41.73 8.32 1.98.35.23.7.47 1.04.72 1.87 1.35 3.56 3 4.79 5.97.25.6.47 1.25.67 1.98.73 2.55 1.17 5.88 1.2 10.37a101.81 101.81 0 0 1-.37 9.3l-.1 1.26c-.33 3.62-.3 6.6-.06 9.1.07.72.17 1.41.28 2.07.26 1.56.64 2.9 1.08 4.01.33.8.67 1.51 1.05 2.11 2.63 4.24 6.33 3.87 6.33 3.87l.88 16.9Z" fill="#561315"/>
    <path d="m46.57 119.12-3.19 6.41c.27 1.62.41 3.59 1.82 4.91 1.82 1.71 4.99 2.57 5.15 2.66l.16-.3 3.03-6.09s-1.25-2.71-3.12-4.44c-1.45-1.33-3.57-1.48-3.85-3.15Z" fill="#F4DDDC"/>
    <path d="M49.38 113.48v.01c.3 1.68.92 4.84 2.38 6.18 1.86 1.73 4.6 1.4 4.6 1.4l3.19-6.4s-1.14-2.36-2.82-4.11a6 6 0 0 0-.41-.43c-1.42-1.33-3.48-1.43-3.75-3.06l-2.32 4.66-.87 1.75ZM55.38 101.44c.27 1.54.72 4.6 2.05 5.88.41.41.89.72 1.37.95 1.73.86 3.56.75 3.56.75l3.19-6.4s-.79-1.84-2.11-3.41a8.8 8.8 0 0 0-.84-.87c-1.4-1.27-3.43-1.55-3.94-2.96l-.1-.35-3.18 6.4ZM62.8 86.69c.14 2.17.01 5.62.79 7.23.4.83.91 1.45 1.44 1.92 1.3 1.15 2.74 1.41 3.07 1.73v-.01l2.56-5.15c-.24-.49.05-2.25.11-4.75l.02-1.17c0-1.73-.94-3.5-.27-6l-.01.01h-.03a15.3 15.3 0 0 0-7.68 6.19ZM82.43 96.94a7.6 7.6 0 0 1 2.62.38c1.4.38 2.73.9 2.73.9s2.97-.42 4.12-.12l.04.01c.46-2.55.25-5.19-.6-7.69h-.02c-.87-.05-5.27-.83-5.27-.83l-.74.54c-.9.66-2.37 1.75-3.2 2.39.64 1.4.76 2.98.32 4.42Z" fill="#FFF3F3"/>
    <path d="m43.35 125.61-1.47 2.95a4.55 4.55 0 0 0-.22 3.47 4.9 4.9 0 0 0 5.84 3.2 4.55 4.55 0 0 0 2.8-2.05c-.29-.18-6.32-3.86-6.95-7.57ZM46.7 119.33c.85 3.47 6.15 6.82 6.82 7.24l.07.04 2.72-5.45s-6.33-3.77-6.98-7.57l-2.7 5.44c.01.1.04.2.07.3ZM52.63 106.97c.26 1.57 1.49 3.13 2.85 4.43a25.92 25.92 0 0 0 4.12 3.17l2.7-5.46s-1.26-.75-2.72-1.93c-1.8-1.45-3.9-3.54-4.25-5.64l-2.7 5.43Z" fill="#AE2B2E"/>
    <path d="M75.52 85.37c-.06 1.06.31 2.1.38 3.27 1.4-.07 2.82.32 4 1.1.53-1.15 2-1.34 3.24-2.23.1-.06.18-.13.26-.2a21.03 21.03 0 0 0 3.46-3.85 16.92 16.92 0 0 0-7.58-3.81h-.02c-.18.17-2.53 2.28-3.48 4.52-.17.4-.24.8-.26 1.2Z" fill="#FFF3F3"/>
    <path d="M80.7 103.67a4.96 4.96 0 0 0 6.01 3.02 5.03 5.03 0 0 0 1.59-.85h.01c.46-.38.84-.84 1.11-1.38l1.1-2.19c.62-1.26 1.06-2.6 1.3-3.99.01-.01 0-.04.02-.05l-.04-.01a33.1 33.1 0 0 0-6.66-1.25c-.99-.07-1.96-.05-2.84.08-.1.32-.22.63-.37.92l-1.1 2.19a4.55 4.55 0 0 0-.13 3.51ZM79.81 89.7a6.61 6.61 0 0 1 2.4 2.78 9.9 9.9 0 0 1 3.58-1.62c2.35-.59 4.7-.53 5.63-.48a16.37 16.37 0 0 0-4.64-6.97h-.01a30 30 0 0 0-4.68 3.42c-.99.9-1.84 1.9-2.28 2.86ZM69.65 88.53c.22 2.05.73 3.3.95 3.76l.04-.09a6.03 6.03 0 0 1 2.18-2.41c.93-.6 2.02-.95 3.15-1a9.49 9.49 0 0 1 .5-3.38c.95-3.03 2.9-5.66 2.9-5.66-3.01-.64-6.11-.41-8.93.63v.01c-.92 3.45-1 6.16-.79 8.14ZM58.73 95.27c.51 1.98 2.45 3.93 4.16 5.3a27.02 27.02 0 0 0 2.74 1.95l2.42-4.88v-.01a17.27 17.27 0 0 1-2.44-2.92 16.08 16.08 0 0 1-2.85-7.94c-.26.42-.5.86-.73 1.31l-3.4 6.84.1.35Z" fill="#AE2B2E"/>
    <path opacity=".2" d="m44.33 121.69.73.36 8.44 4.27.07.04 2.74-5.48 3.19-6.44 2.72-5.48 3.2-6.44 2.43-4.9 2.57-5.15.04-.1a6.33 6.33 0 0 1 5.3-3.44c1.41-.07 2.81.32 4 1.1v-.01a6.54 6.54 0 0 1 2.67 7.24c-.1.32-.23.63-.38.92l-1.1 2.2a4.61 4.61 0 0 0-.15 3.54 4.89 4.89 0 0 0 5.98 3l.3-.12 1.29-.75s-6.54-1.13-3.31-8.42l.2-.47c1.12-2.33 1.13-4.34.47-6a8.3 8.3 0 0 0-2.72-3.4 10 10 0 0 0-.95-.63 10.51 10.51 0 0 0-5.78-1.57l-.87.09c-1.58.2-3.16.65-4.86 2.07-.35.29-.7.62-1.05 1a26.54 26.54 0 0 0-4.05 6c-.21.38-.41.78-.62 1.2-.49.97-.98 2.03-1.48 3.2l-.64 1.47-.33.81a33.35 33.35 0 0 1-2.86 5.64c-.28.42-.56.82-.84 1.18-.66.88-1.32 1.58-1.95 2.12-.45.39-.9.7-1.32.95-2.98 1.73-5.14.26-5.14.26l-5.94 10.14Z" fill="#561315"/>
    <path d="m35.17 93.6-1.33 9.23c.96 1.87 1.9 4.22 4.13 5.22 2.88 1.3 7.04.95 7.27 1 .04-.14.06-.3.08-.44l1.27-8.78s-2.58-2.78-5.52-4.07c-2.28-1-4.9-.25-5.9-2.17Z" fill="#F4DDDC"/>
    <path d="m36.14 85.65.01.01v.01c1 1.93 3.01 5.53 5.3 6.53 2.93 1.3 6.13-.3 6.13-.3l1.32-9.24s-2.3-2.4-5.02-3.8a7.43 7.43 0 0 0-.67-.34c-2.24-1-4.77-.22-5.74-2.1l-.97 6.71-.36 2.52ZM38.44 68.5c.93 1.77 2.68 5.31 4.8 6.3.66.32 1.35.5 2.02.56 2.44.3 4.61-.64 4.61-.64l1.33-9.23s-1.68-1.91-3.9-3.25c-.43-.25-.88-.5-1.35-.69-2.2-.94-4.75-.4-5.93-1.9-.08-.13-.18-.25-.25-.39l-1.33 9.24ZM41.37 47.42c1.02 2.6 2.23 6.87 3.8 8.5a7.52 7.52 0 0 0 2.5 1.72c2.02.84 3.86.52 4.38.76l1.06-7.42c-.48-.5-.83-2.76-1.74-5.85a41.4 41.4 0 0 0-.44-1.44c-.69-2.11-2.5-3.85-2.69-7.2-.02 0-.02 0-.03.02a20.64 20.64 0 0 0-6.84 10.91ZM69.41 51.8c.7-.38 2.02-.57 3.33-.68 1.85-.15 3.67-.08 3.67-.08s3.43-1.83 4.94-1.96h.05a19.64 19.64 0 0 0-3.77-9.17h-.02c-1.06.32-6.71 1.3-6.71 1.3l-.68.98c-.83 1.2-2.18 3.2-2.94 4.34a7.98 7.98 0 0 1 2.13 5.28Z" fill="#FFF3F3"/>
    <path d="m33.91 102.86-.61 4.26a5.9 5.9 0 0 0 4.96 6.69 6.16 6.16 0 0 0 7.04-4.73c-.41-.09-9.17-1.95-11.39-6.22ZM35.3 93.9c2.4 3.87 10.12 5.65 11.1 5.87l.1.01h.01l1.14-7.86s-9.14-1.84-11.42-6.2l-1.13 7.84.2.34ZM37.4 76.38c.93 1.8 3.02 3.18 5.18 4.17 3.07 1.43 6.24 2.07 6.24 2.07l1.12-7.86s-1.83-.37-4.06-1.17c-2.75-1-6.1-2.64-7.36-5.05l-1.13 7.84Z" fill="#AE2B2E"/>
    <path d="M56.26 40.58c.34 1.32 1.2 2.43 1.75 3.84a8.47 8.47 0 0 1 5.29-.4V44c.17-1.64 1.88-2.51 3.03-4.14l.24-.36a28.57 28.57 0 0 0 2.67-6.24v-.01a20.73 20.73 0 0 0-10.68-1.34l-.02.02c-.16.3-2.17 3.9-2.44 7.06-.05.58.03 1.1.16 1.59Z" fill="#FFF3F3"/>
    <path d="M70.15 60.71a6.05 6.05 0 0 0 3.98 2.24 6.21 6.21 0 0 0 6.07-2.91v-.02c.41-.66.7-1.39.81-2.17l.46-3.16c.26-1.82.27-3.65.02-5.46 0-.02-.02-.06 0-.07h-.06c-2.06.13-5.48.5-8.55 1.4-1.23.34-2.4.8-3.4 1.34h-.01c0 .43-.02.86-.08 1.29l-.46 3.16a5.88 5.88 0 0 0 1.22 4.36ZM63.27 44.08a8.08 8.08 0 0 1 3.99 2.37 13.29 13.29 0 0 1 3.7-3.56 25.7 25.7 0 0 1 6.64-3.06 20.05 20.05 0 0 0-8.38-6.5c-.18.21-2.62 3.1-4.32 6.25a12.7 12.7 0 0 0-1.63 4.5ZM50.37 46.84a14.78 14.78 0 0 0 2.62 4.18l.02-.13a8.43 8.43 0 0 1 5.1-6.5 12.38 12.38 0 0 1-.73-4.35c-.05-4.12 1.28-8.19 1.28-8.19h-.02a20.95 20.95 0 0 0-10.53 4.67v.02a29.27 29.27 0 0 0 2.26 10.3ZM39.93 59.6c1.4 2.2 4.5 3.73 7.1 4.66a33 33 0 0 0 4.09 1.18l1-7.02v-.01a21.05 21.05 0 0 1-4.1-2.5 19.97 19.97 0 0 1-6.57-8.47 18.9 18.9 0 0 0-.36 1.92l-1.42 9.85c.08.15.17.27.26.4Z" fill="#AE2B2E"/>
    <path opacity=".2" d="m33.29 98.06 1.02.14 11.94 1.59.1.02h.01l1.1-7.88 1.3-9.25 1.09-7.88 1.29-9.25.97-7.03 1.03-7.41.02-.13a8.3 8.3 0 0 1 10.32-6.88 8.13 8.13 0 0 1 6.14 7.7h-.01c0 .44-.01.87-.07 1.3l-.45 3.17a5.97 5.97 0 0 0 5.21 6.65 6.14 6.14 0 0 0 4.79-1.44l1.26-1.47V60s-8.38 1.44-7.4-8.87l.07-.66c.41-3.33-.39-5.8-1.85-7.54-.24-.29-.5-.55-.76-.8a10.32 10.32 0 0 0-3.9-2.19c-.46-.15-.93-.27-1.41-.36-2.83-.59-5.77-.29-7.63.55l-1.02.49a11.53 11.53 0 0 0-5.05 4.62c-.3.5-.6 1.05-.87 1.67-1 2.17-1.85 5.08-2.5 9.09-.1.56-.18 1.13-.27 1.74-.2 1.4-.36 2.9-.5 4.54-.07.67-.12 1.35-.18 2.07L47 65.5a44.2 44.2 0 0 1-1.2 8.12c-.17.65-.35 1.25-.54 1.81a18 18 0 0 1-1.51 3.43c-.4.67-.8 1.25-1.22 1.73-2.9 3.4-6.12 2.53-6.12 2.53l-3.12 14.95Z" fill="#561315"/>
    <path d="M66.6 86.92a444.76 444.76 0 0 1-1.64 10.26 414.83 414.83 0 0 1-6.22 29.8c-6.67.24-28.2-2.08-36.96-5.34.93-18.12 2.53-37.78 6.24-55.78l40.53 5.86c-.34 3.53-1.3 10.95-1.95 15.2Z" fill="#006D3B"/>
    <path d="M66.6 86.92a442.7 442.7 0 0 1-1.26 7.99l-.38 2.27a417.55 417.55 0 0 1-6.22 29.8c-6.67.24-28.2-2.09-36.96-5.35.2-3.87.43-7.81.7-11.8C51.53 114.24 58.6 79.7 58.6 79.7l9.35-2.7c-.42 3.4-.94 7.27-1.35 9.92Z" fill="#016032"/>
    <path d="m69.07 81.04-1.6-.2c-1.3-.15-3.28-.4-5.75-.73l-3.12-.4c-3.24-.44-7-.96-10.92-1.55l-.26-.03-1.81-.27-.98-.15a508.1 508.1 0 0 1-13.46-2.26 191.4 191.4 0 0 1-6.68-1.36s.67-5.79 2.1-10.04l43.37 6.27c.01 0 .31 4.52-.9 10.72Z" fill="#073F2A"/>
    <path d="m48.22 126.72-1.81-.25 8.18-58.37 1.8.26-8.17 58.36Z" fill="#F5B818"/>
    <path d="m65.3 95.18-.3 1.8-40.88-5.73.21-1.81 40.97 5.74ZM56.18 68.33V68.12h-.01a19.02 19.02 0 0 0-.5-3.7c-.96-3.93-2.9-5.27-3.18-5.44-1.24-.79-2.7-.83-4.3-.14-1.89.8-2.8 2.35-2.47 4.17.33 1.78 1.62 3.25 3.35 4.29a12.55 12.55 0 0 0 4.8 1.68l.18.02a8.54 8.54 0 0 0 1.04.1h.13l.65.03.34.01-.03-.81Zm-8.66-5.64c-.18-.98.28-1.7 1.38-2.18a3.28 3.28 0 0 1 1.76-.3c.31.05.6.15.86.31 1.75 1.1 2.5 4.59 2.74 6.69-3.76-.47-6.39-2.6-6.74-4.52Z" fill="#F5B818"/>
    <path d="M64.43 61.19c-1.35-1.13-2.76-1.49-4.17-1.1-.31.1-2.56.83-4.59 4.34a19.06 19.06 0 0 0-1.54 3.43l-.06.16-.27.77.27.07.47.13.22.05.23.05c.03.02.06.02.1.03a7.96 7.96 0 0 0 1 .19c.37.05.74.09 1.12.1 1.35.1 2.72-.02 3.97-.36 1.95-.51 3.61-1.55 4.43-3.16.84-1.65.4-3.4-1.18-4.7Zm-.45 3.87c-.89 1.74-4.02 3.04-7.75 2.43.82-1.95 2.52-5.07 4.52-5.63.82-.23 1.64 0 2.52.73.92.76 1.16 1.6.7 2.47Z" fill="#F5B818"/>
    <path d="M44.67 74.23a11.5 11.5 0 0 1-3.95-1.4l.89-1.59c3.14 1.75 6.17 1.67 8.99-.25 2.17-1.47 3.38-3.48 3.4-3.5l1.57.94c-.06.07-4.17 6.77-10.9 5.8Z" fill="#F5B818"/>
    <path d="M63.16 75.95c-1.66-.24-3.56-1.42-5.66-3.54-1.76-1.75-3.02-3.5-3.07-3.58l1.49-1.07c1.3 1.84 5.3 6.56 7.97 6.4.74-.04 1.34-.5 1.84-1.4l1.6.88C66.3 75.48 64.94 75.94 64 76c-.28.02-.55 0-.84-.04Z" fill="#F5B818"/>
    <path d="M16.61 139.26s-6.24.84-10.25-3.63c-3.97-4.47-4.6-31.8 2.09-33.54 6.69-1.74 51.84 2.1 57.47 4.73 5.61 2.68 4.32 27.17 1.98 32.72-2.33 5.56-11.97 2.7-11.97 2.7l-39.32-2.98Z" fill="#E4EDEF"/>
    <path d="M61.54 138c-.08-.03-.17 0-.26-.03a10.35 10.35 0 0 1-3.85 4.73c-1.67-.52-6.64-.74-8.28-.88l1.05-4.3c-19.25-1.07-30.56-3.16-35.92-4.39l-.7 6.36s-6.97-6.25-1.33-6.88c-1.1-.28-1.73-.48-1.8-.54-1.44-.42-.74-2.8.72-2.23.13.03 14.48 4.78 50.41 5.8 1.48.02 1.51 2.46-.04 2.35Z" fill="#D1C4C3"/>
    <path d="m57.46 138.4-10.4 58.7a9.7 9.7 0 0 1-5 6.88c-13.7 7.3-57.48 29.17-80.1 22.86-27-7.52 47.58-53.13 47.58-53.13l4.33-40.13c6.09 1.42 19.7 3.92 43.6 4.82Z" fill="#F26467"/>
    <path d="M56.58 138.17c-7.53 10.25-22.95 9.7-22.95 9.7-10.82-.72-17.03-4-20.6-7.49l.76-7.03c6.06 1.46 19.38 3.88 42.79 4.82Zm-27.86 72.46c-21.6 1.9-38.53 5.03-52.55 17.09 29.12-2.72 52.55-17.09 52.55-17.09Zm-2.76-35.26c3.48-4.2-6.86-7.86-15.6-10.1l-.88 8.34s-1.38.8-3.64 2.28c6.78 2 16.52 3.82 20.12-.52Z" fill="#E24B53"/>
    <path d="M48.7 185.34s-19.77 1.24-17 23.44l9.63-4.67a10.4 10.4 0 0 0 5.78-7.87l1.59-10.9Z" fill="#E4EDEF"/>
    <g opacity=".6" fill="#E4EDEF">
      <path d="M294.18 178.02v4.92a.86.86 0 0 0-.45 0v-4.92c0-.24.1-.43.22-.43.07 0 .12.04.17.12.04.08.06.19.06.3ZM293.95 185.3a.9.9 0 0 0 .23-.03V190c0 .23-.1.41-.23.41-.12 0-.22-.18-.22-.41v-4.73a.9.9 0 0 0 .22.03ZM292.86 184c0 .08.01.16.03.23h-4.92c-.24 0-.43-.1-.43-.23s.2-.23.43-.23h4.92a.9.9 0 0 0-.03.23ZM300.37 184c0 .06-.05.12-.13.16a.67.67 0 0 1-.3.07H295a1.7 1.7 0 0 0 0-.46h4.94c.23 0 .43.1.43.23ZM293.64 183.37l-.32.32-2.9-2.9.32-.33 2.57 2.58.33.33ZM297.49 180.78l-2.57 2.58-.33.33-.33-.32.34-.33 2.57-2.58.32.32ZM293.64 184.63l-.33.33-2.57 2.58-.32-.32 2.57-2.58.33-.33.32.32ZM297.49 187.22l-.32.32-2.9-2.9.32-.33.33.33 2.57 2.58Z"/>
      <path d="M286.6 185.6 285 184l1.6-1.6 1.61 1.6-1.6 1.6Zm-.94-1.6.95.94.94-.94-.94-.94-.95.94ZM295.33 183.77l-.41-.41-.32-.32-.42-.42-.23-.23-.96.97-.42.41-.22.23.23.23.41.41.32.32.42.42.22.23.23-.23.42-.42.32-.32.64-.64-.23-.23Zm-1.38 1.17-.3-.3-.33-.33-.3-.31.3-.31.32-.32.31-.31.64.63.3.31-.3.31-.63.63ZM301.4 185.6l-1.61-1.6 1.6-1.6L303 184l-1.6 1.6Zm-.95-1.6.94.94.95-.94-.95-.94-.94.94ZM294 178.21l-1.6-1.6L294 175l1.6 1.6-1.6 1.61Zm-.94-1.6.94.94.94-.94-.94-.95-.94.95ZM294 193l-1.6-1.6 1.6-1.61 1.6 1.6L294 193Zm-.94-1.6.94.94.94-.95-.94-.94-.94.94ZM299.06 180.93h-2.03v-2.04h.47v1.57h1.56v.47ZM297.69 182.3h-2.04v-2.03h.47v1.56h1.57v.47ZM290.8 189.23h-.46v-1.57h-1.57v-.47h2.04v2.04ZM292.22 187.81h-.47v-1.56h-1.56v-.47h2.03v2.03ZM297.52 189.2h-.47v-2.03h2.04v.47h-1.57v1.57ZM296.14 187.83h-.47v-2.04h2.04v.47h-1.57v1.57ZM290.79 180.95h-2.04v-.47h1.57v-1.57h.47v2.04ZM292.2 182.36h-2.04v-.47h1.57v-1.56h.47v2.03Z"/>
      <path d="m292.85 190.25-.34-.34 1.44-1.44 1.44 1.44-.33.34-1.1-1.11-1.11 1.1ZM292.85 188.3l-.34-.34 1.44-1.44 1.44 1.44-.33.33-1.1-1.1-1.11 1.1ZM293.95 179.64l-1.44-1.44.34-.33 1.1 1.11 1.11-1.1.33.32-1.44 1.44ZM293.95 181.65l-1.44-1.44.34-.34 1.1 1.11 1.11-1.1.33.33-1.44 1.44ZM288.06 185.44l-.33-.33 1.1-1.11-1.1-1.1.33-.34 1.44 1.44-1.44 1.44ZM290.01 185.44l-.33-.33 1.1-1.11-1.1-1.1.33-.34 1.44 1.44-1.44 1.44ZM299.77 185.44l-1.44-1.44 1.44-1.44.34.33L299 184l1.1 1.1-.33.34ZM297.77 185.44l-1.44-1.44 1.44-1.44.33.33L297 184l1.1 1.1-.33.34Z"/>
    </g>
    <g opacity=".6" fill="#E4EDEF">
      <path d="M251.1 172.68v2.73a.47.47 0 0 0-.25 0v-2.73c0-.14.06-.24.13-.24.03 0 .06.02.08.07.03.04.04.1.04.17ZM250.97 176.72l.13-.01v2.62c0 .13-.06.23-.13.23-.06 0-.12-.1-.12-.23v-2.62l.13.01ZM250.37 176l.01.13h-2.73c-.13 0-.24-.06-.24-.13s.1-.13.24-.13h2.73a.53.53 0 0 0-.01.13ZM254.54 176c0 .03-.03.07-.07.09a.38.38 0 0 1-.17.04h-2.74a.98.98 0 0 0 0-.26h2.74c.13 0 .24.06.24.13ZM250.8 175.65l-.18.18-1.61-1.62.18-.18 1.43 1.44.18.18ZM252.94 174.21l-1.43 1.43-.19.19-.17-.18.18-.19 1.43-1.43.18.18ZM250.8 176.35l-.18.19-1.43 1.43-.18-.18 1.43-1.43.18-.19.18.18ZM252.94 177.79l-.18.18-1.61-1.62.17-.18.19.19 1.43 1.43Z"/>
      <path d="m246.9 176.9-.9-.9.9-.9.88.9-.89.9Zm-.53-.9.52.52.53-.52-.53-.52-.52.52ZM251.74 175.87l-.23-.23-.18-.17-.23-.24-.13-.12-.53.53-.23.23-.13.13.13.13.23.23.18.17.23.23.13.13.12-.12.23-.24.18-.17.36-.36-.13-.13Zm-.77.65-.17-.17-.18-.18-.17-.17.17-.17.18-.18.17-.17.35.35.18.17-.18.17-.34.35ZM255.1 176.9l-.88-.9.89-.9.89.9-.9.9Zm-.52-.9.53.52.52-.52-.52-.52-.53.52ZM251 172.78l-.9-.89.9-.89.9.9-.9.88Zm-.52-.89.52.53.52-.53-.52-.52-.52.52ZM251 181l-.9-.9.9-.88.9.89-.9.89Zm-.52-.9.52.53.52-.52-.52-.53-.52.53ZM253.81 174.3h-1.13v-1.14h.26v.87h.87v.26ZM253.05 175.06h-1.13v-1.13h.26v.87h.87v.26ZM249.23 178.9h-.26v-.87h-.88v-.26h1.14v1.13ZM250.01 178.12h-.26v-.87h-.87v-.26h1.13v1.13ZM252.96 178.9h-.27v-1.14h1.14v.26h-.87v.87ZM252.19 178.13h-.26v-1.14h1.13v.26h-.87v.88ZM249.21 174.3h-1.13v-.26h.87v-.87h.26v1.14ZM250 175.1h-1.13v-.27h.87v-.87h.26v1.13Z"/>
      <path d="m250.36 179.47-.19-.19.8-.8.8.8-.18.19-.62-.62-.61.62ZM250.36 178.39l-.19-.19.8-.8.8.8-.18.19-.62-.62-.61.62ZM250.97 173.58l-.8-.8.19-.19.61.62.62-.62.19.19-.8.8ZM250.97 174.7l-.8-.8.19-.2.61.62.62-.61.19.18-.8.8ZM247.7 176.8l-.18-.18.61-.62-.61-.62.18-.18.8.8-.8.8ZM248.78 176.8l-.18-.18.62-.62-.62-.62.19-.18.8.8-.8.8ZM254.2 176.8l-.8-.8.8-.8.2.18-.62.62.61.62-.18.18ZM253.1 176.8l-.8-.8.8-.8.18.18-.62.62.62.62-.19.18Z"/>
    </g>
    <g opacity=".6" fill="#E4EDEF">
      <path d="M19.63 9.18v3.56a.62.62 0 0 0-.33 0V9.18c0-.17.08-.31.17-.31.04 0 .08.03.11.09s.05.13.05.22ZM19.47 14.44c.05 0 .1 0 .16-.02v3.41c0 .17-.07.3-.16.3-.1 0-.17-.13-.17-.3v-3.41l.17.02ZM18.68 13.5c0 .06 0 .11.02.16h-3.55c-.18 0-.32-.07-.32-.16 0-.1.14-.16.32-.16h3.55a.66.66 0 0 0-.02.16ZM24.1 13.5c0 .05-.04.09-.1.12a.5.5 0 0 1-.21.04h-3.57c.02-.05.02-.27 0-.32h3.57c.17 0 .3.07.3.16ZM19.24 13.04l-.23.24-2.1-2.1.23-.23L19 12.8l.24.24ZM22.02 11.18l-1.86 1.86-.24.24-.23-.24.24-.24 1.86-1.85.23.23ZM19.24 13.96l-.24.24-1.86 1.85-.23-.23 1.86-1.86.24-.24.23.24ZM22.02 15.82l-.23.23-2.1-2.1.23-.23.24.24 1.86 1.86Z"/>
      <path d="M14.16 14.66 13 13.5l1.16-1.16 1.16 1.16-1.16 1.16Zm-.68-1.16.68.68.68-.68-.68-.68-.68.68ZM20.46 13.34l-.3-.3-.23-.24-.3-.3-.16-.16-.7.7-.3.3-.16.16.16.16.3.3.23.24.3.3.17.16.16-.16.3-.3.23-.24.47-.46-.17-.16Zm-1 .84-.22-.22-.23-.24-.22-.22.22-.22.23-.24.23-.22.45.46.23.22-.23.22-.45.46ZM24.84 14.66l-1.16-1.16 1.16-1.16L26 13.5l-1.16 1.16Zm-.68-1.16.68.68.68-.68-.68-.68-.68.68ZM19.5 9.32l-1.16-1.16L19.5 7l1.16 1.16-1.16 1.16Zm-.68-1.16.68.68.68-.68-.68-.68-.68.68ZM19.5 20l-1.16-1.16 1.16-1.16 1.16 1.16L19.5 20Zm-.68-1.16.68.68.68-.68-.68-.68-.68.68ZM23.16 11.28h-1.47V9.81h.34v1.13h1.13v.34ZM22.16 12.28H20.7V10.8h.34v1.14h1.13v.34ZM17.2 17.28h-.34v-1.14h-1.14v-.33h1.47v1.47ZM18.22 16.25h-.34v-1.13h-1.13v-.34h1.47v1.47ZM22.04 17.26h-.34v-1.47h1.47v.34h-1.13v1.13ZM21.05 16.26h-.34V14.8h1.47v.34h-1.13v1.13ZM17.18 11.3H15.7v-.34h1.13V9.83h.34v1.47ZM18.2 12.32h-1.47v-.34h1.13v-1.13h.34v1.47Z"/>
      <path d="m18.67 18.01-.24-.24 1.04-1.04 1.04 1.04-.24.24-.8-.8-.8.8ZM18.67 16.6l-.24-.24 1.04-1.04 1.04 1.04-.24.24-.8-.8-.8.8ZM19.47 10.35l-1.04-1.04.24-.24.8.8.8-.8.24.24-1.04 1.04ZM19.47 11.8l-1.04-1.04.24-.24.8.8.8-.8.24.24-1.04 1.04ZM15.21 14.54l-.24-.24.8-.8-.8-.8.24-.24 1.04 1.04-1.04 1.04ZM16.62 14.54l-.24-.24.8-.8-.8-.8.24-.24 1.04 1.04-1.04 1.04ZM23.67 14.54l-1.04-1.04 1.04-1.04.24.24-.8.8.8.8-.24.24ZM22.22 14.54l-1.04-1.04 1.04-1.04.24.24-.8.8.8.8-.24.24Z"/>
    </g>
    <g opacity=".6" fill="#E4EDEF">
      <path d="M167.63 12.18v3.56a.62.62 0 0 0-.33 0v-3.56c0-.17.08-.31.17-.31.04 0 .08.03.11.09s.05.13.05.22ZM167.47 17.44c.05 0 .1 0 .16-.02v3.41c0 .17-.07.3-.16.3-.1 0-.17-.13-.17-.3v-3.41l.17.02ZM166.68 16.5c0 .06 0 .11.02.16h-3.55c-.18 0-.32-.07-.32-.16 0-.1.14-.16.32-.16h3.55a.63.63 0 0 0-.02.16ZM172.1 16.5c0 .05-.04.09-.1.12a.49.49 0 0 1-.21.04h-3.57a1.2 1.2 0 0 0 0-.32h3.57c.17 0 .3.07.3.16ZM167.24 16.04l-.23.24-2.1-2.1.23-.23L167 15.8l.24.24ZM170.02 14.18l-1.86 1.86-.24.24-.23-.24.24-.24 1.86-1.85.23.23ZM167.24 16.96l-.24.24-1.86 1.85-.23-.23 1.86-1.86.24-.24.23.24ZM170.02 18.82l-.23.23-2.1-2.1.23-.23.24.24 1.86 1.86Z"/>
      <path d="M162.16 17.66 161 16.5l1.16-1.16 1.16 1.16-1.16 1.16Zm-.68-1.16.68.68.68-.68-.68-.68-.68.68ZM168.46 16.34l-.3-.3-.23-.24-.3-.3-.16-.16-.7.7-.3.3-.16.16.16.16.3.3.23.24.3.3.17.16.16-.16.3-.3.23-.24.47-.46-.17-.16Zm-1 .84-.22-.22-.23-.24-.22-.22.22-.22.23-.24.23-.22.45.46.23.22-.23.22-.45.46ZM172.84 17.66l-1.16-1.16 1.16-1.16L174 16.5l-1.16 1.16Zm-.68-1.16.68.68.68-.68-.68-.68-.68.68ZM167.5 12.32l-1.16-1.16L167.5 10l1.16 1.16-1.16 1.16Zm-.68-1.16.68.68.68-.68-.68-.68-.68.68ZM167.5 23l-1.16-1.16 1.16-1.16 1.16 1.16L167.5 23Zm-.68-1.16.68.68.68-.68-.68-.68-.68.68ZM171.16 14.28h-1.47v-1.47h.34v1.13h1.13v.34ZM170.16 15.28h-1.47V13.8h.34v1.14h1.13v.34ZM165.2 20.28h-.34v-1.14h-1.14v-.33h1.47v1.47ZM166.22 19.25h-.34v-1.13h-1.13v-.34h1.47v1.47ZM170.04 20.26h-.34v-1.47h1.47v.34h-1.13v1.13ZM169.05 19.26h-.34V17.8h1.47v.34h-1.13v1.13ZM165.18 14.3h-1.47v-.34h1.13v-1.13h.34v1.47ZM166.2 15.32h-1.47v-.34h1.13v-1.13h.34v1.47Z"/>
      <path d="m166.67 21.01-.24-.24 1.04-1.04 1.04 1.04-.24.24-.8-.8-.8.8ZM166.67 19.6l-.24-.24 1.04-1.04 1.04 1.04-.24.24-.8-.8-.8.8ZM167.47 13.35l-1.04-1.04.24-.24.8.8.8-.8.24.24-1.04 1.04ZM167.47 14.8l-1.04-1.04.24-.24.8.8.8-.8.24.24-1.04 1.04ZM163.21 17.54l-.24-.24.8-.8-.8-.8.24-.24 1.04 1.04-1.04 1.04ZM164.62 17.54l-.24-.24.8-.8-.8-.8.24-.24 1.04 1.04-1.04 1.04ZM171.67 17.54l-1.04-1.04 1.04-1.04.24.24-.8.8.8.8-.24.24ZM170.22 17.54l-1.04-1.04 1.04-1.04.24.24-.8.8.8.8-.24.24Z"/>
    </g>
    <g opacity=".6" fill="#E4EDEF">
      <path d="M10.08 21.34v2.2a.38.38 0 0 0-.2 0v-2.2c0-.1.04-.2.1-.2.03 0 .05.03.07.07a.3.3 0 0 1 .03.13ZM9.98 24.58a.4.4 0 0 0 .1-.01v2.1c0 .1-.04.18-.1.18-.06 0-.1-.08-.1-.18v-2.1a.4.4 0 0 0 .1 0ZM9.5 24v.1H7.33c-.1 0-.2-.04-.2-.1 0-.06.1-.1.2-.1h2.19a.4.4 0 0 0-.02.1ZM12.83 24c0 .03-.02.05-.06.07a.3.3 0 0 1-.13.03h-2.2v-.2h2.2c.1 0 .19.04.19.1ZM9.84 23.72l-.14.14-1.3-1.29.15-.14 1.14 1.14.15.15ZM11.55 22.57l-1.14 1.14-.15.15-.14-.14.15-.15 1.14-1.14.14.14ZM9.84 24.28l-.15.15-1.14 1.14-.14-.14 1.14-1.14.15-.15.14.14ZM11.55 25.43l-.14.14-1.3-1.29.15-.14.15.15 1.14 1.14Z"/>
      <path d="M6.71 24.71 6 24l.71-.71.72.71-.72.71ZM6.3 24l.41.42.42-.42-.42-.42-.41.42ZM10.6 23.9l-.2-.19-.13-.14-.19-.18-.1-.1-.43.42-.18.19-.1.1.1.1.18.19.14.14.19.18.1.1.1-.1.18-.18.15-.14.28-.29-.1-.1Zm-.62.52-.14-.14-.14-.14-.14-.14.14-.14.14-.14.14-.14.28.28.14.14-.14.14-.28.28ZM13.29 24.71l-.72-.71.72-.71.71.71-.71.71Zm-.42-.71.42.42.41-.42-.41-.42-.42.42ZM10 21.43l-.71-.72L10 20l.71.71-.71.72Zm-.42-.72.42.42.42-.42-.42-.41-.42.41ZM10 28l-.71-.71.71-.72.71.72L10 28Zm-.42-.71.42.41.42-.41-.42-.42-.42.42ZM12.25 22.63h-.9v-.9h.2v.7h.7v.2ZM11.64 23.25h-.9v-.9h.2v.69h.7v.2ZM8.58 26.32h-.2v-.7h-.7v-.2h.9v.9ZM9.21 25.7h-.2V25h-.7v-.21h.9v.9ZM11.56 26.31h-.2v-.9h.9v.2h-.7v.7ZM10.95 25.7h-.2v-.9h.9v.2h-.7v.7ZM8.57 22.64h-.9v-.2h.7v-.7h.2v.9ZM9.2 23.27h-.9v-.2H9v-.7h.2v.9Z"/>
      <path d="m9.49 26.78-.15-.15.64-.64.64.64-.15.15-.5-.5-.48.5ZM9.49 25.9l-.15-.14.64-.64.64.64-.15.15-.5-.5-.48.5ZM9.98 22.06l-.64-.64.15-.14.49.49.5-.5.14.15-.64.64ZM9.98 22.95l-.64-.64.15-.14.49.49.5-.5.14.15-.64.64ZM7.36 24.64l-.15-.15.5-.49-.5-.5.15-.14L8 24l-.64.64ZM8.23 24.64l-.15-.15.5-.49-.5-.5.15-.14.64.64-.64.64ZM12.57 24.64l-.64-.64.64-.64.14.15-.49.49.5.5-.15.14ZM11.68 24.64l-.64-.64.64-.64.14.15-.49.49.5.5-.15.14Z"/>
    </g>
    <g opacity=".6" fill="#E4EDEF">
      <path d="M57.08 50.34v2.2a.35.35 0 0 0-.2 0v-2.2c0-.1.05-.2.1-.2.03 0 .05.03.07.07.02.03.03.08.03.13ZM56.98 53.58l.1-.01v2.1c0 .1-.05.18-.1.18s-.1-.08-.1-.18v-2.1h.1ZM56.52 53l.01.1h-2.08c-.1 0-.18-.04-.18-.1 0-.06.08-.1.18-.1h2.08l-.01.1ZM59.69 53c0 .03-.02.05-.05.07a.27.27 0 0 1-.13.03h-2.09a.8.8 0 0 0 0-.2h2.09c.1 0 .18.04.18.1ZM56.85 52.72l-.14.14-1.22-1.29.13-.14 1.09 1.14.14.15ZM58.47 51.57l-1.08 1.14-.14.15-.14-.14.14-.15 1.09-1.14.13.14ZM56.85 53.28l-.14.15-1.09 1.14-.13-.14 1.08-1.14.14-.15.14.14ZM58.47 54.43l-.13.14-1.23-1.29.14-.14.14.15 1.08 1.14Z"/>
      <path d="M53.88 53.71 53.2 53l.68-.71.68.71-.68.71Zm-.4-.71.4.42.4-.42-.4-.42-.4.42ZM57.56 52.9l-.17-.19-.14-.14-.17-.18-.1-.1-.4.42-.18.19-.1.1.1.1.17.19.14.14.17.18.1.1.1-.1.17-.18.14-.14.27-.29-.1-.1Zm-.58.52-.13-.14-.14-.14-.13-.14.13-.14.14-.14.13-.14.27.28.13.14-.13.14-.27.28ZM60.12 53.71l-.68-.71.68-.71.68.71-.68.71Zm-.4-.71.4.42.4-.42-.4-.42-.4.42ZM57 50.43l-.68-.72L57 49l.68.71-.68.72Zm-.4-.72.4.42.4-.42-.4-.41-.4.41ZM57 57l-.68-.71.68-.72.68.72L57 57Zm-.4-.71.4.41.4-.41-.4-.42-.4.42ZM59.14 51.63h-.86v-.9h.2v.7h.66v.2ZM58.56 52.25h-.86v-.9h.2v.69h.66v.2ZM55.65 55.32h-.2v-.7h-.66v-.2h.86v.9ZM56.25 54.7h-.2V54h-.66v-.21h.86v.9ZM58.49 55.31h-.2v-.9h.86v.2h-.66v.7ZM57.9 54.7h-.2v-.9h.87v.2h-.67v.7ZM55.64 51.64h-.86v-.2h.66v-.7h.2v.9ZM56.24 52.27h-.86v-.2h.66v-.7h.2v.9Z"/>
      <path d="m56.51 55.78-.14-.15.61-.64.6.64-.13.15-.47-.5-.47.5ZM56.51 54.9l-.14-.14.61-.64.6.64-.13.15-.47-.5-.47.5ZM56.98 51.06l-.6-.64.13-.14.47.49.47-.5.14.15-.61.64ZM56.98 51.95l-.6-.64.13-.14.47.49.47-.5.14.15-.61.64ZM54.5 53.64l-.15-.15.47-.49-.47-.5.14-.14.61.64-.6.64ZM55.32 53.64l-.14-.15.46-.49-.46-.5.14-.14.6.64-.6.64ZM59.44 53.64l-.61-.64.6-.64.15.15-.47.49.47.5-.14.14ZM58.6 53.64l-.62-.64.61-.64.14.15-.47.49.47.5-.14.14Z"/>
    </g>
    <g opacity=".6" fill="#E4EDEF">
      <path d="M66.08 6.34v2.2a.38.38 0 0 0-.2 0v-2.2c0-.1.04-.2.1-.2.03 0 .05.03.07.07a.3.3 0 0 1 .03.13ZM65.98 9.58a.4.4 0 0 0 .1-.01v2.1c0 .1-.04.18-.1.18-.06 0-.1-.08-.1-.18v-2.1a.4.4 0 0 0 .1 0ZM65.5 9v.1h-2.18c-.1 0-.2-.04-.2-.1 0-.06.1-.1.2-.1h2.19a.4.4 0 0 0-.02.1ZM68.83 9c0 .03-.02.05-.06.07a.3.3 0 0 1-.13.03h-2.2v-.2h2.2c.1 0 .19.04.19.1ZM65.84 8.72l-.14.14-1.3-1.29.15-.14 1.14 1.14.15.15ZM67.55 7.57l-1.14 1.14-.15.15-.14-.14.15-.15 1.14-1.14.14.14ZM65.84 9.28l-.15.15-1.14 1.14-.14-.14 1.14-1.14.15-.15.14.14ZM67.55 10.43l-.14.14-1.3-1.29.15-.14.15.15 1.14 1.14Z"/>
      <path d="M62.71 9.71 62 9l.71-.71.72.71-.72.71ZM62.3 9l.41.42.42-.42-.42-.42-.41.42ZM66.6 8.9l-.2-.19-.13-.14-.19-.18-.1-.1-.43.42-.18.19-.1.1.1.1.18.19.14.14.19.18.1.1.1-.1.18-.18.15-.14.28-.29-.1-.1Zm-.62.52-.14-.14-.14-.14-.14-.14.14-.14.14-.14.14-.14.28.28.14.14-.14.14-.28.28ZM69.29 9.71 68.57 9l.72-.71L70 9l-.71.71ZM68.87 9l.42.42.41-.42-.41-.42-.42.42ZM66 6.43l-.71-.72L66 5l.71.71-.71.72Zm-.42-.72.42.42.42-.42L66 5.3l-.42.41ZM66 13l-.71-.71.71-.72.71.72L66 13Zm-.42-.71.42.41.42-.41-.42-.42-.42.42ZM68.25 7.63h-.9v-.9h.2v.7h.7v.2ZM67.64 8.25h-.9v-.9h.2v.69h.7v.2ZM64.58 11.32h-.2v-.7h-.7v-.2h.9v.9ZM65.21 10.7h-.2V10h-.7v-.21h.9v.9ZM67.56 11.31h-.2v-.9h.9v.2h-.7v.7ZM66.95 10.7h-.2v-.9h.9v.2h-.7v.7ZM64.57 7.64h-.9v-.2h.7v-.7h.2v.9ZM65.2 8.27h-.9v-.2h.7v-.7h.2v.9Z"/>
      <path d="m65.49 11.78-.15-.15.64-.64.64.64-.15.15-.5-.5-.48.5ZM65.49 10.9l-.15-.14.64-.64.64.64-.15.15-.5-.5-.48.5ZM65.98 7.06l-.64-.64.15-.14.49.49.5-.5.14.15-.64.64ZM65.98 7.95l-.64-.64.15-.14.49.49.5-.5.14.15-.64.64ZM63.36 9.64l-.15-.15.5-.49-.5-.5.15-.14L64 9l-.64.64ZM64.23 9.64l-.15-.15.5-.49-.5-.5.15-.14.64.64-.64.64ZM68.57 9.64 67.93 9l.64-.64.14.15-.49.49.5.5-.15.14ZM67.68 9.64 67.04 9l.64-.64.14.15-.49.49.5.5-.15.14Z"/>
    </g>
    <path d="M62.78 177.34v2.2a.34.34 0 0 0-.2 0v-2.2c0-.1.05-.2.1-.2.03 0 .05.03.07.07.02.03.03.08.03.13ZM62.68 180.58l.1-.01v2.1c0 .1-.05.18-.1.18s-.1-.08-.1-.18v-2.1h.1ZM62.22 180l.01.1h-2.07c-.1 0-.19-.04-.19-.1 0-.06.08-.1.19-.1h2.07l-.01.1ZM65.39 180c0 .03-.02.05-.05.07a.27.27 0 0 1-.13.03h-2.09a.8.8 0 0 0 0-.2h2.09c.1 0 .18.04.18.1ZM62.55 179.72l-.14.14-1.22-1.29.13-.14 1.09 1.14.14.15ZM64.17 178.57l-1.08 1.15-.14.14-.14-.14.14-.15 1.09-1.14.13.14ZM62.55 180.28l-.14.15-1.09 1.14-.13-.14 1.08-1.15.14-.14.14.14ZM64.17 181.43l-.13.14-1.23-1.29.14-.14.14.15 1.08 1.14Z" fill="#E4EDEF"/>
    <path d="m59.58 180.71-.68-.71.68-.71.68.71-.68.71Zm-.4-.71.4.42.4-.42-.4-.42-.4.42ZM63.26 179.9l-.17-.19-.14-.14-.17-.18-.1-.1-.4.43-.18.18-.1.1.1.1.17.19.14.14.17.18.1.1.1-.1.17-.18.14-.15.27-.28-.1-.1Zm-.58.52-.13-.14-.14-.14-.13-.14.13-.14.14-.14.13-.14.27.28.13.14-.13.14-.27.28ZM65.82 180.71l-.68-.71.68-.71.68.71-.68.71Zm-.4-.71.4.42.4-.42-.4-.42-.4.42ZM62.7 177.43l-.68-.72.68-.71.68.71-.68.72Zm-.4-.72.4.42.4-.42-.4-.42-.4.42ZM62.7 184l-.68-.71.68-.72.68.72-.68.71Zm-.4-.71.4.42.4-.42-.4-.42-.4.42ZM64.84 178.63h-.86v-.9h.2v.7h.66v.2ZM64.26 179.25h-.86v-.9h.2v.69h.66v.2ZM61.35 182.32h-.2v-.7h-.66v-.2h.86v.9ZM61.95 181.7h-.2v-.7h-.66v-.21h.86v.9ZM64.19 182.31h-.2v-.9h.86v.2h-.66v.7ZM63.6 181.7h-.2v-.9h.87v.2h-.67v.7ZM61.34 178.64h-.86v-.2h.66v-.7h.2v.9ZM61.94 179.27h-.86v-.2h.66v-.7h.2v.9Z" fill="#E4EDEF"/>
    <path d="m62.21 182.78-.14-.15.61-.64.6.64-.13.15-.47-.5-.47.5ZM62.21 181.9l-.14-.14.61-.64.6.64-.13.15-.47-.5-.47.5ZM62.68 178.06l-.6-.64.13-.14.47.49.47-.5.14.15-.61.64ZM62.68 178.95l-.6-.64.13-.14.47.49.47-.5.14.15-.61.64ZM60.2 180.64l-.15-.15.47-.49-.47-.5.14-.14.61.64-.6.64ZM61.02 180.64l-.14-.15.46-.49-.46-.5.14-.14.6.64-.6.64ZM65.14 180.64l-.61-.64.6-.64.15.15-.47.49.47.5-.14.14ZM64.3 180.64l-.62-.64.61-.64.14.15-.47.49.47.5-.14.14ZM76.6 155.18v3.56a.54.54 0 0 0-.31 0v-3.56c0-.17.07-.31.15-.31.05 0 .09.03.11.09a.5.5 0 0 1 .05.22ZM76.44 160.44c.06 0 .11 0 .16-.02v3.41c0 .17-.07.3-.16.3-.08 0-.15-.13-.15-.3v-3.41l.15.02ZM75.7 159.5c0 .06 0 .11.02.16h-3.38c-.16 0-.3-.07-.3-.16s.14-.16.3-.16h3.37a.68.68 0 0 0-.02.16ZM80.84 159.5c0 .04-.03.09-.08.12a.44.44 0 0 1-.21.04h-3.39c.02-.05.02-.27 0-.32h3.39c.16 0 .3.07.3.16ZM76.23 159.04l-.22.24-2-2.1.23-.24L76 158.8l.23.24ZM78.87 157.18l-1.76 1.86-.23.24-.22-.24.22-.24 1.77-1.85.22.23ZM76.23 159.96l-.23.24-1.76 1.86-.22-.24 1.76-1.86.23-.24.22.24ZM78.87 161.82l-.22.23-2-2.1.23-.23.22.24 1.77 1.86Z" fill="#E4EDEF"/>
    <path d="m71.4 160.66-1.1-1.16 1.1-1.16 1.1 1.16-1.1 1.16Zm-.64-1.16.64.68.65-.68-.65-.68-.64.68ZM77.39 159.34l-.28-.3-.23-.24-.28-.3-.16-.16-.66.7-.28.3-.16.16.16.16.28.3.22.24.29.3.15.16.16-.16.28-.3.22-.24.45-.46-.16-.16Zm-.95.84-.2-.22-.23-.24-.21-.22.21-.22.22-.24.21-.22.44.46.21.22-.21.22-.44.46ZM81.55 160.66l-1.1-1.16 1.1-1.16 1.1 1.16-1.1 1.16Zm-.65-1.16.65.68.64-.68-.64-.68-.65.68ZM76.47 155.32l-1.1-1.16 1.1-1.16 1.1 1.16-1.1 1.16Zm-.64-1.16.64.68.65-.68-.65-.68-.64.68ZM76.47 166l-1.1-1.16 1.1-1.16 1.1 1.16-1.1 1.16Zm-.64-1.16.64.68.65-.68-.65-.68-.64.68ZM79.95 157.28h-1.4v-1.47h.33v1.13h1.07v.34ZM79 158.28h-1.4v-1.48h.33v1.14H79v.34ZM74.29 163.28h-.33v-1.14H72.9v-.33h1.4v1.47ZM75.26 162.25h-.33v-1.13h-1.07v-.34h1.4v1.47ZM78.89 163.26h-.32v-1.47h1.4v.34h-1.08v1.13ZM77.94 162.26h-.32v-1.47h1.4v.34h-1.08v1.13ZM74.27 157.3h-1.4v-.34h1.08v-1.14h.32v1.48ZM75.24 158.32h-1.4v-.34h1.08v-1.13h.32v1.47Z" fill="#E4EDEF"/>
    <path d="m75.68 164.01-.22-.24.98-1.04 1 1.04-.24.24-.76-.8-.76.8ZM75.68 162.6l-.22-.24.98-1.04 1 1.04-.24.24-.76-.8-.76.8ZM76.44 156.35l-.98-1.04.22-.24.76.8.76-.8.23.24-.99 1.04ZM76.44 157.8l-.98-1.04.22-.24.76.8.76-.8.23.24-.99 1.04ZM72.4 160.54l-.23-.24.76-.8-.76-.8.23-.24.99 1.04-.99 1.04ZM73.74 160.54l-.23-.24.76-.8-.76-.8.23-.24.99 1.04-1 1.04ZM80.44 160.54l-1-1.04 1-1.04.22.24-.76.8.76.8-.22.24ZM79.06 160.54l-.99-1.04 1-1.04.22.24-.76.8.76.8-.23.24ZM106.48 189.34v2.2a.34.34 0 0 0-.2 0v-2.2c0-.1.05-.2.1-.2.03 0 .05.03.07.07.02.03.03.08.03.13ZM106.38 192.58l.1-.01v2.1c0 .1-.05.18-.1.18s-.1-.08-.1-.18v-2.1h.1ZM105.92 192l.01.1h-2.08c-.1 0-.18-.04-.18-.1 0-.06.08-.1.19-.1h2.07l-.01.1ZM109.09 192c0 .03-.02.05-.06.07a.27.27 0 0 1-.12.03h-2.09v-.2h2.09c.1 0 .18.04.18.1ZM106.25 191.72l-.14.14-1.22-1.29.13-.14 1.09 1.14.14.15ZM107.87 190.57l-1.08 1.15-.14.14-.14-.14.14-.15 1.09-1.14.13.14ZM106.25 192.28l-.14.15-1.09 1.14-.13-.14 1.08-1.15.14-.14.14.14ZM107.87 193.43l-.13.14-1.23-1.29.14-.14.14.15 1.08 1.14Z" fill="#E4EDEF"/>
    <path d="m103.28 192.71-.68-.71.68-.71.68.71-.68.71Zm-.4-.71.4.42.4-.42-.4-.42-.4.42ZM106.96 191.9l-.17-.19-.14-.14-.17-.18-.1-.1-.4.43-.18.18-.1.1.1.1.17.19.14.14.17.18.1.1.1-.1.17-.18.14-.15.27-.28-.1-.1Zm-.58.52-.13-.14-.14-.14-.13-.14.13-.14.14-.14.13-.14.27.28.13.14-.13.14-.27.28ZM109.52 192.71l-.68-.71.68-.71.68.71-.68.71Zm-.4-.71.4.42.4-.42-.4-.42-.4.42ZM106.4 189.43l-.68-.72.68-.71.68.71-.68.72Zm-.4-.72.4.42.4-.42-.4-.42-.4.42ZM108.54 190.63h-.86v-.9h.2v.7h.66v.2ZM107.96 191.25h-.86v-.9h.2v.69h.66v.2ZM105.05 194.32h-.2v-.7h-.66v-.2h.86v.9ZM105.65 193.7h-.2v-.7h-.66v-.21h.86v.9ZM107.89 194.31h-.2v-.9h.86v.2h-.66v.7ZM107.3 193.7h-.2v-.9h.87v.2h-.66v.7ZM105.04 190.64h-.86v-.2h.66v-.7h.2v.9ZM105.64 191.27h-.86v-.2h.66v-.7h.2v.9ZM105.91 194.78l-.14-.15.61-.64.6.64-.13.15-.47-.5-.47.5ZM105.91 193.9l-.14-.14.61-.64.6.64-.13.15-.47-.5-.47.5Z" fill="#E4EDEF"/>
    <path d="m106.38 190.06-.6-.64.13-.14.47.49.47-.5.14.15-.61.64ZM106.38 190.95l-.6-.64.13-.14.47.49.47-.5.14.15-.61.64ZM103.9 192.64l-.15-.15.47-.49-.47-.5.14-.14.61.64-.6.64ZM104.72 192.64l-.14-.15.46-.49-.46-.5.14-.14.6.64-.6.64ZM108.84 192.64l-.61-.64.6-.64.15.15-.47.49.47.5-.14.14ZM108 192.64l-.62-.64.61-.64.14.15-.46.49.46.5-.14.14Z" fill="#E4EDEF"/>
    <g opacity=".6" fill="#E4EDEF">
      <path d="M216.08 5.34v2.2a.38.38 0 0 0-.2 0v-2.2c0-.1.04-.2.1-.2.03 0 .05.03.07.07a.3.3 0 0 1 .03.13ZM215.98 8.58a.4.4 0 0 0 .1-.01v2.1c0 .1-.05.18-.1.18-.06 0-.1-.08-.1-.18v-2.1a.4.4 0 0 0 .1 0ZM215.5 8v.1h-2.18c-.1 0-.2-.04-.2-.1 0-.06.1-.1.2-.1h2.19l-.02.1ZM218.83 8c0 .03-.02.05-.06.07a.3.3 0 0 1-.13.03h-2.2a.8.8 0 0 0 0-.2h2.2c.1 0 .19.04.19.1ZM215.84 7.72l-.14.14-1.3-1.29.15-.14 1.14 1.14.15.15ZM217.55 6.57l-1.14 1.14-.15.15-.14-.14.14-.15 1.15-1.14.14.14ZM215.84 8.28l-.15.15-1.14 1.14-.14-.14 1.14-1.14.15-.15.14.14ZM217.55 9.43l-.14.14-1.3-1.29.15-.14.15.15 1.14 1.14Z"/>
      <path d="M212.71 8.71 212 8l.71-.71.72.71-.72.71ZM212.3 8l.42.42.42-.42-.42-.42-.42.42ZM216.6 7.9l-.2-.19-.14-.14-.18-.18-.1-.1-.43.42-.18.19-.1.1.1.1.18.19.14.14.19.18.1.1.1-.1.18-.18.15-.14.28-.29-.1-.1Zm-.62.52-.14-.14-.14-.14-.14-.14.14-.14.14-.14.14-.14.28.28.14.14-.14.14-.28.28ZM219.29 8.71l-.72-.71.72-.71.71.71-.71.71Zm-.42-.71.42.42.42-.42-.42-.42-.42.42ZM216 5.43l-.71-.72L216 4l.71.71-.71.72Zm-.42-.72.42.42.42-.42-.42-.41-.42.41ZM216 12l-.71-.71.71-.72.71.72-.71.71Zm-.42-.71.42.41.42-.41-.42-.42-.42.42ZM218.25 6.63h-.9v-.9h.2v.7h.7v.2ZM217.64 7.25h-.9v-.9h.2v.69h.7v.2ZM214.58 10.32h-.2v-.7h-.7v-.2h.9v.9ZM215.21 9.7h-.2V9h-.7v-.21h.9v.9ZM217.56 10.31h-.2v-.9h.9v.2h-.7v.7ZM216.95 9.7h-.2v-.9h.9V9h-.7v.7ZM214.57 6.64h-.9v-.2h.7v-.7h.2v.9ZM215.2 7.27h-.9v-.2h.7v-.7h.2v.9Z"/>
      <path d="m215.49 10.78-.15-.15.64-.64.64.64-.15.15-.5-.5-.48.5ZM215.49 9.9l-.15-.14.64-.64.64.64-.15.15-.5-.5-.48.5ZM215.98 6.06l-.64-.64.15-.14.49.49.5-.5.14.15-.64.64ZM215.98 6.95l-.64-.64.15-.14.49.49.5-.5.14.15-.64.64ZM213.36 8.64l-.15-.15.5-.49-.5-.5.15-.14.64.64-.64.64ZM214.23 8.64l-.15-.15.5-.49-.5-.5.15-.14.64.64-.64.64ZM218.56 8.64l-.63-.64.63-.64.15.15-.49.49.5.5-.16.14ZM217.68 8.64l-.64-.64.64-.64.14.15-.49.49.5.5-.15.14Z"/>
    </g>
    <g opacity=".6" fill="#E4EDEF">
      <path d="M180.08 21.34v2.2a.38.38 0 0 0-.2 0v-2.2c0-.1.04-.2.1-.2.03 0 .05.03.07.07a.3.3 0 0 1 .03.13ZM179.98 24.58a.4.4 0 0 0 .1-.01v2.1c0 .1-.05.18-.1.18-.06 0-.1-.08-.1-.18v-2.1a.4.4 0 0 0 .1 0ZM179.5 24v.1h-2.18c-.1 0-.2-.04-.2-.1 0-.06.1-.1.2-.1h2.19l-.02.1ZM182.83 24c0 .03-.02.05-.06.07a.3.3 0 0 1-.13.03h-2.2a.8.8 0 0 0 0-.2h2.2c.1 0 .19.04.19.1ZM179.84 23.72l-.14.14-1.3-1.29.15-.14 1.14 1.14.15.15ZM181.55 22.57l-1.14 1.14-.15.15-.14-.14.14-.15 1.15-1.14.14.14ZM179.84 24.28l-.15.15-1.14 1.14-.14-.14 1.14-1.14.15-.15.14.14ZM181.55 25.43l-.14.14-1.3-1.29.15-.14.15.15 1.14 1.14Z"/>
      <path d="M176.71 24.71 176 24l.71-.71.72.71-.72.71Zm-.42-.71.42.42.42-.42-.42-.42-.42.42ZM180.6 23.9l-.2-.19-.14-.14-.18-.18-.1-.1-.43.42-.18.19-.1.1.1.1.18.19.14.14.19.18.1.1.1-.1.18-.18.15-.14.28-.29-.1-.1Zm-.62.52-.14-.14-.14-.14-.14-.14.14-.14.14-.14.14-.14.28.28.14.14-.14.14-.28.28ZM183.29 24.71l-.72-.71.72-.71.71.71-.71.71Zm-.42-.71.42.42.42-.42-.42-.42-.42.42ZM180 21.43l-.71-.72.71-.71.71.71-.71.72Zm-.42-.72.42.42.42-.42-.42-.41-.42.41ZM180 28l-.71-.71.71-.72.71.72-.71.71Zm-.42-.71.42.41.42-.41-.42-.42-.42.42ZM182.25 22.63h-.9v-.9h.2v.7h.7v.2ZM181.64 23.25h-.9v-.9h.2v.69h.7v.2ZM178.58 26.32h-.2v-.7h-.7v-.2h.9v.9ZM179.21 25.7h-.2V25h-.7v-.21h.9v.9ZM181.56 26.31h-.2v-.9h.9v.2h-.7v.7ZM180.95 25.7h-.2v-.9h.9v.2h-.7v.7ZM178.57 22.64h-.9v-.2h.7v-.7h.2v.9ZM179.2 23.27h-.9v-.2h.7v-.7h.2v.9Z"/>
      <path d="m179.49 26.78-.15-.15.64-.64.64.64-.15.15-.5-.5-.48.5ZM179.49 25.9l-.15-.14.64-.64.64.64-.15.15-.5-.5-.48.5ZM179.98 22.06l-.64-.64.15-.14.49.49.5-.5.14.15-.64.64ZM179.98 22.95l-.64-.64.15-.14.49.49.5-.5.14.15-.64.64ZM177.36 24.64l-.15-.15.5-.49-.5-.5.15-.14.64.64-.64.64ZM178.23 24.64l-.15-.15.5-.49-.5-.5.15-.14.64.64-.64.64ZM182.56 24.64l-.63-.64.63-.64.15.15-.49.49.5.5-.16.14ZM181.68 24.64l-.64-.64.64-.64.14.15-.49.49.5.5-.15.14Z"/>
    </g>
    <g opacity=".6" fill="#E4EDEF">
      <path d="M175.06 5v1.65a.3.3 0 0 0-.15 0V5c0-.08.03-.15.08-.15.02 0 .03.02.05.04l.02.1ZM174.99 7.43h.07V9c0 .08-.03.14-.07.14-.05 0-.08-.06-.08-.14V7.42a.3.3 0 0 0 .08.01ZM174.62 7l.01.08H173c-.08 0-.14-.04-.14-.08s.06-.08.14-.08h1.64V7ZM177.12 7c0 .02-.01.04-.04.05a.23.23 0 0 1-.1.03h-1.65v-.16h1.65c.08 0 .14.04.14.08ZM174.88 6.79l-.1.1-.97-.96.1-.1.86.85.11.1ZM176.16 5.93l-.85.86-.12.1-.1-.1.1-.11.87-.86.1.1ZM174.88 7.21l-.1.11-.87.86-.1-.1.85-.87.11-.1.11.1ZM176.16 8.07l-.1.1-.97-.96.1-.1.12.1.85.86Z"/>
      <path d="M172.53 7.54 172 7l.53-.54.54.54-.53.54Zm-.3-.54.3.31.32-.31-.31-.31-.32.31ZM175.44 6.92l-.13-.13-.11-.11-.14-.14-.07-.08-.33.33-.13.13-.08.08.08.08.13.13.11.11.14.14.08.08.07-.08.14-.14.1-.1.22-.22-.08-.08Zm-.45.4-.1-.1-.12-.12-.1-.1.1-.1.11-.11.1-.1.22.2.1.11-.1.1-.21.21ZM177.47 7.54l-.54-.54.53-.54.54.54-.53.54Zm-.32-.54.31.31.32-.31-.31-.31-.32.31ZM175 5.07l-.54-.53L175 4l.53.54-.53.53Zm-.31-.53.31.31.31-.31-.31-.32-.31.32ZM175 10l-.54-.54.54-.53.53.53-.53.54Zm-.31-.54.31.32.31-.32-.31-.31-.31.31ZM176.69 5.98H176V5.3h.16v.52h.52v.16ZM176.23 6.43h-.68v-.67h.16v.52h.52v.15ZM173.94 8.74h-.16v-.52h-.52v-.16h.68v.68ZM174.4 8.27h-.15v-.52h-.52v-.16h.68v.68ZM176.17 8.73h-.15v-.67h.68v.15h-.53v.52ZM175.71 8.28h-.15V7.6h.68v.15h-.53v.53ZM173.93 5.98h-.68v-.15h.52V5.3h.16v.68ZM174.4 6.45h-.68V6.3h.52v-.52h.16v.67Z"/>
      <path d="m174.62 9.08-.12-.1.49-.49.47.48-.1.11-.38-.37-.36.37ZM174.62 8.43l-.12-.1.49-.49.47.48-.1.11-.38-.37-.36.37ZM174.99 5.55l-.49-.48.12-.11.37.37.36-.37.12.1-.48.49ZM174.99 6.22l-.49-.48.12-.12.37.37.36-.37.12.12-.48.48ZM173.02 7.48l-.1-.11.36-.37-.37-.37.11-.11.48.48-.48.48ZM173.67 7.48l-.11-.11.37-.37-.37-.37.11-.11.48.48-.48.48ZM176.92 7.48l-.48-.48.48-.48.12.11-.38.37.38.37-.12.11ZM176.26 7.48l-.48-.48.48-.48.1.11L176 7l.37.37-.11.11Z"/>
    </g>
    <path d="M109.62 193.86a565.2 565.2 0 0 1-41.15 1.12c-20.58-.16-34.41-1.3-34.41-1.3-4.6-18-4.47-35.68-3.93-48.06 20.76-1.94 67.42-1.06 83.36 0 1.68 16.6-3.84 49.48-3.87 48.24Z" fill="#F5B818"/>
    <path d="M109.62 193.86a565.35 565.35 0 0 1-41.15 1.12c-20.58-.15-34.42-1.3-34.42-1.3-.72-2.83-1.32-5.64-1.82-8.44 48.66.81 51.76-34.98 51.94-40.62a679 679 0 0 1 29.32 1c1.68 16.6-3.84 49.48-3.87 48.24Z" fill="#E09F0E"/>
    <path d="m116.24 151.15-2.51.02-42.4.26h-2.86l-38.57.24-3.17.02c-.9-6.07-.72-12.41-.72-12.41 12.87-.95 26.3-1.32 38.76-1.36l2.21-.01h4.59l1.19.01c.69 0 1.38.02 2.06.03 23.8.2 41.95 1.42 41.96 1.42.52 5.9-.54 11.78-.54 11.78Z" fill="#2D9161"/>
    <path d="M58.67 137.92V195h-1.45l-1.42-.02v-57.07h2.87Z" fill="#073F2A"/>
    <path d="M90.46 156.94a2.3 2.3 0 0 1-2.33-2.27 2.33 2.33 0 0 1 2.33-2.28c1.28 0 2.33 1 2.33 2.28a2.3 2.3 0 0 1-2.33 2.27ZM66.3 171.27a2.33 2.33 0 0 0-2.33-2.28 2.3 2.3 0 0 0-2.34 2.28 2.3 2.3 0 0 0 2.34 2.28 2.33 2.33 0 0 0 2.33-2.28Zm7.05-12.6c0-.67-.55-1.23-1.27-1.23-.67 0-1.28.56-1.28 1.22 0 .67.56 1.22 1.28 1.22s1.27-.55 1.27-1.22Zm13.39 12.6c0-.67-.56-1.22-1.28-1.22-.66 0-1.27.55-1.27 1.22 0 .67.55 1.22 1.27 1.22s1.28-.55 1.28-1.22Zm17.72-14.33c0-.66-.56-1.22-1.28-1.22-.67 0-1.28.56-1.28 1.22 0 .67.56 1.22 1.28 1.22s1.28-.55 1.28-1.22Zm-58.32 17.89c0-.67-.56-1.23-1.28-1.23-.66 0-1.27.56-1.27 1.23 0 .66.55 1.22 1.27 1.22s1.28-.5 1.28-1.22Zm60.87 2.8c0-.66-.55-1.22-1.28-1.22-.66 0-1.27.56-1.27 1.23 0 .66.56 1.22 1.28 1.22s1.27-.5 1.27-1.22Zm-28.6 1.23c0-.67-.56-1.22-1.28-1.22-.67 0-1.28.55-1.28 1.22 0 .66.56 1.22 1.28 1.22s1.28-.56 1.28-1.22Zm12.94 7.28a2.3 2.3 0 0 0-2.34-2.28 2.3 2.3 0 0 0-2.33 2.28 2.3 2.3 0 0 0 2.33 2.27c1.28 0 2.34-1 2.34-2.27Zm15.83 3.94a2.33 2.33 0 0 0-2.34-2.28 2.3 2.3 0 0 0-2.33 2.28 2.3 2.3 0 0 0 2.33 2.27c1.28 0 2.34-1 2.34-2.27Zm-33.44-3.94a2.3 2.3 0 0 0-2.33-2.28 2.3 2.3 0 0 0-2.34 2.28 2.3 2.3 0 0 0 2.34 2.27c1.33 0 2.33-1 2.33-2.27ZM38.92 156.3c0-.67-.55-1.22-1.27-1.22-.67 0-1.28.55-1.28 1.22 0 .67.56 1.22 1.28 1.22s1.27-.5 1.27-1.22Zm-1.61 26.05a2.3 2.3 0 0 0-2.34-2.28 2.3 2.3 0 0 0-2.33 2.28 2.3 2.3 0 0 0 2.33 2.28c1.28 0 2.34-1 2.34-2.28Zm14.13 6.58a2.33 2.33 0 0 0-2.34-2.27 2.3 2.3 0 0 0-2.33 2.27 2.3 2.3 0 0 0 2.33 2.28c1.28 0 2.34-1 2.34-2.28Zm-.64-28.61a2.3 2.3 0 0 0-2.33-2.28 2.3 2.3 0 0 0-2.33 2.28 2.3 2.3 0 0 0 2.33 2.27 2.33 2.33 0 0 0 2.33-2.27Zm49.27 11.02a2.33 2.33 0 0 0-2.33-2.27 2.3 2.3 0 0 0-2.34 2.27 2.3 2.3 0 0 0 2.34 2.28c1.27 0 2.33-1 2.33-2.28Z" fill="#fff"/>
    <path d="M113.3 165.02c-.07.96-.15 1.91-.24 2.86H30.2l-.15-2.86h83.26ZM58.9 137.92l-.25-1.3-.02-.06a27.44 27.44 0 0 0-1.44-5.05c-2.14-5.34-5.14-6.82-5.55-7.01-1.9-.84-3.95-.62-6.07.68-2.47 1.5-3.45 3.88-2.6 6.36 1.16 3.44 4.96 5.6 9.13 6.38.68.13 1.36.22 2.05.26.49.04.98.07 1.46.07h.2a14 14 0 0 0 .83-.03c.16 0 .34-.03.5-.04h.05l.33-.03 1.15-.13.24-.02-.02-.08Zm-13.5-7.21c-.44-1.33.06-2.45 1.5-3.33a4.7 4.7 0 0 1 2.41-.79c.44 0 .87.1 1.27.27 2.68 1.19 4.43 5.92 5.2 8.81-5.37.13-9.49-2.35-10.38-4.96Z" fill="#073F2A"/>
    <path d="M68.8 125.18c-2.12-1.3-4.16-1.53-6.06-.68-.42.19-3.42 1.67-5.55 7-.53 1.32-1 2.87-1.38 4.7l-.09.42-.25 1.29-.01.09.35.03.71.08.34.03.27.04H57.2c.49.04.98.07 1.48.07h.1c.53 0 1.06-.03 1.6-.07 0 0 0-.01 0 0 .6-.05 1.2-.12 1.78-.23 4.22-.76 8.08-2.93 9.26-6.41.84-2.48-.13-4.87-2.6-6.36Zm.16 5.53c-.88 2.6-5.01 5.07-10.37 4.96.77-2.9 2.52-7.61 5.2-8.8 1.1-.5 2.3-.32 3.68.5 1.44.9 1.94 2.01 1.49 3.34Z" fill="#073F2A"/>
    <path d="M43.63 147.34c-1.76 0-3.7-.34-5.82-1.15l.92-2.41c4.77 1.82 9 1.09 12.55-2.17 2.74-2.5 4.04-5.58 4.06-5.6l2.38.99c-.05.12-4.45 10.34-14.09 10.34Z" fill="#073F2A"/>
    <path d="M69.9 146.01c-2.37 0-5.27-1.27-8.66-3.8a45.16 45.16 0 0 1-5.02-4.41l1.87-1.79c2.2 2.3 8.75 8.12 12.48 7.35 1.02-.2 1.77-.97 2.29-2.34l2.42.92c-1.06 2.78-2.87 3.69-4.2 3.95-.38.09-.77.12-1.18.12Z" fill="#073F2A"/>
  </g>
  <defs>
    <clipPath id="a">
      <path fill="#fff" d="M0 0h304v194H0z"/>
    </clipPath>
  </defs>
</svg>
