<?xml version="1.0" encoding="iso-8859-1"?>
<!-- Generator: Adobe Illustrator 19.0.0, SVG Export Plug-In . SVG Version: 6.00 Build 0)  -->
<svg version="1.1" id="Layer_1" xmlns="http://www.w3.org/2000/svg" xmlns:xlink="http://www.w3.org/1999/xlink" x="0px" y="0px"
	 viewBox="0 0 512 512" style="enable-background:new 0 0 512 512;" xml:space="preserve">
<path style="fill:#73A1FB;" d="M160.325,256.018c0,52.754,42.919,95.67,95.675,95.67c52.753,0,95.668-42.917,95.668-95.67
	c0-52.754-42.916-95.673-95.668-95.673C203.244,160.344,160.325,203.263,160.325,256.018z"/>
<path style="fill:#DA143A;" d="M476.299,129.73c0.745-1.311,0.732-2.921-0.039-4.219c-22.285-37.532-53.998-68.971-91.712-90.916
	C345.679,11.975,301.226,0.019,256,0.019c-78.269,0-151.211,35.125-200.125,96.368c-1.079,1.35-1.22,3.221-0.356,4.717
	l72.066,124.819c0.755,1.309,2.149,2.098,3.633,2.098c0.188,0,0.379-0.013,0.569-0.039c1.689-0.23,3.07-1.459,3.497-3.109
	c14.21-55.059,63.851-93.513,120.716-93.513c3.529,0,7.173,0.161,10.836,0.473c0.119,0.012,0.24,0.017,0.359,0.017h205.456
	C474.161,131.852,475.554,131.043,476.299,129.73z"/>
<path style="fill:#78B86D;" d="M293.829,377.597c-1.042-1.348-2.792-1.927-4.442-1.471c-10.839,3.018-22.071,4.548-33.387,4.548
	c-48.079,0-92.392-28.199-112.893-71.838c-0.05-0.107-0.106-0.212-0.165-0.316L40.139,130.465c-0.749-1.301-2.135-2.098-3.634-2.098
	c-0.007,0-0.015,0-0.022,0c-1.507,0.008-2.896,0.823-3.634,2.135C11.36,168.633,0,212.036,0,256.018
	c0,61.7,22.259,121.299,62.677,167.817c40.017,46.055,95.108,76.364,155.129,85.345c0.208,0.032,0.416,0.045,0.623,0.045
	c1.482,0,2.876-0.789,3.633-2.098l72.085-124.857C294.999,380.791,294.873,378.945,293.829,377.597z"/>
<path style="fill:#F1CB30;" d="M490.471,159.854H346.147c-1.706,0-3.242,1.032-3.884,2.61c-0.645,1.578-0.27,3.391,0.947,4.583
	c24.148,23.673,37.447,55.269,37.447,88.97c0,25.513-7.698,50.065-22.264,71.005c-0.067,0.097-0.129,0.196-0.188,0.299
	L255.223,505.686c-0.754,1.306-0.749,2.916,0.012,4.219c0.754,1.288,2.134,2.077,3.623,2.077c0.015,0,0.032,0,0.047,0
	c67.769-0.755,131.362-27.717,179.064-75.914C485.708,387.83,512,323.887,512,256.018c0-32.259-5.929-63.716-17.623-93.5
	C493.746,160.91,492.197,159.854,490.471,159.854z"/>
<g>
</g>
<g>
</g>
<g>
</g>
<g>
</g>
<g>
</g>
<g>
</g>
<g>
</g>
<g>
</g>
<g>
</g>
<g>
</g>
<g>
</g>
<g>
</g>
<g>
</g>
<g>
</g>
<g>
</g>
</svg>
