<svg xmlns="http://www.w3.org/2000/svg" width="177" height="121" fill="none"><path fill="#C7D9E3" d="M81.793 53.608a.51.51 0 0 1 .587.419 69 69 0 0 1 .403 2.75l.018.15.004.04.001.01v.003a.51.51 0 1 1-1.013.108v-.002l-.006-.044-.016-.144a67.114 67.114 0 0 0-.397-2.703.51.51 0 0 1 .419-.587M.71 51.239a.51.51 0 1 1 .976.297 28 28 0 0 0-.676 2.662.51.51 0 1 1-1-.201c.177-.88.411-1.805.7-2.758m27.71-2.543a.51.51 0 0 1 .72-.058c.744.634 1.507 1.127 2.279 1.464.846.37 1.648.633 2.4.802a.51.51 0 0 1-.222.996 14.2 14.2 0 0 1-2.587-.863c-.878-.384-1.724-.935-2.531-1.621a.51.51 0 0 1-.058-.72m12.948-1.87a.51.51 0 1 1 .998.21c-.407 1.948-1.553 3.541-3.304 4.411a.51.51 0 1 1-.453-.914c1.444-.718 2.41-2.035 2.759-3.707m37.67-4.764a.51.51 0 0 1 .635.344c.617 2.073 1.12 4.018 1.53 5.77a.51.51 0 0 1-.994.232 99 99 0 0 0-1.514-5.711.51.51 0 0 1 .344-.635M5.578 41.016a.51.51 0 1 1 .847.567 39 39 0 0 0-2.726 4.807.51.51 0 1 1-.92-.44 40 40 0 0 1 2.799-4.934m16.858-2.013a.51.51 0 0 1 .662.286c.737 1.854 1.581 3.564 2.509 5.064a.511.511 0 0 1-.868.538c-.963-1.558-1.833-3.323-2.588-5.225a.51.51 0 0 1 .285-.663m15.722-2.009a.51.51 0 0 1 .72.037c1.346 1.494 2.3 3.045 2.896 4.564a.51.51 0 0 1-.949.373c-.546-1.394-1.432-2.841-2.704-4.253a.51.51 0 0 1 .037-.72M13.435 32.85a.51.51 0 1 1 .568.848c-1.493 1.002-2.883 2.213-4.159 3.564a.51.51 0 1 1-.74-.701c1.32-1.398 2.766-2.66 4.33-3.711m61.43-1.901a.51.51 0 0 1 .674.256 85 85 0 0 1 2.252 5.529.51.51 0 0 1-.957.352 84 84 0 0 0-2.225-5.462.51.51 0 0 1 .256-.675m-55.1-3.083a.51.51 0 0 1 .569.445q.098.801.224 1.598a16.3 16.3 0 0 1 3.75-.206.51.51 0 0 1-.061 1.019 15.3 15.3 0 0 0-3.518.193 46 46 0 0 0 .641 2.98.51.51 0 0 1-.989.247q-.373-1.488-.652-3.02-.422.1-.836.225a.51.51 0 1 1-.293-.978q.474-.142.958-.256a47 47 0 0 1-.237-1.678.51.51 0 0 1 .445-.569m9.47 3.388a.51.51 0 0 1 .66-.291q1.286.497 2.606 1.207 1.23.661 2.298 1.38a.51.51 0 0 1-.567.848 27 27 0 0 0-2.214-1.33 22 22 0 0 0-2.492-1.154.51.51 0 0 1-.29-.66m39.81-10.643a.51.51 0 0 1 .709.135 64 64 0 0 1 3.12 5.106.51.51 0 0 1-.893.493 63 63 0 0 0-3.07-5.025.51.51 0 0 1 .135-.71M19.54 16.84a.51.51 0 1 1 1.003.184c-.33 1.805-.5 3.696-.526 5.623a.51.51 0 1 1-1.02-.014c.026-1.977.2-3.925.543-5.793m41.715-5.153a.51.51 0 0 1 .72-.033 48 48 0 0 1 4.157 4.32.511.511 0 0 1-.776.662 47 47 0 0 0-4.068-4.228.51.51 0 0 1-.033-.72M24.389 6.284a.51.51 0 1 1 .75.692c-1.231 1.338-2.22 2.915-2.99 4.668a.51.51 0 1 1-.934-.41c.808-1.842 1.856-3.518 3.174-4.95m27.005-1.12a.51.51 0 0 1 .68-.24c1.839.88 3.57 1.888 5.2 3a.51.51 0 0 1-.574.844 38.4 38.4 0 0 0-5.066-2.923.51.51 0 0 1-.24-.68M34.852 1.333a.51.51 0 0 1 .096 1.017c-2.03.192-3.812.674-5.371 1.392a.51.51 0 1 1-.427-.928c1.672-.77 3.568-1.279 5.702-1.48m5.259.6a.51.51 0 0 1 .573-.439 35 35 0 0 1 2.875.512q1.491.327 2.911.755a.51.51 0 0 1-.293.977 39 39 0 0 0-2.655-.695l-.182-.04a34 34 0 0 0-2.792-.497.51.51 0 0 1-.437-.574M146.713 101.327a.485.485 0 0 1 .457-.509 33.04 33.04 0 0 0 5.132-.687.484.484 0 0 1 .204.945 34 34 0 0 1-5.284.708.484.484 0 0 1-.509-.457m15.294-5.786a.483.483 0 0 1 .636.727c-1.337 1.173-2.918 2.204-4.764 3.051a.482.482 0 1 1-.402-.879c1.765-.81 3.267-1.791 4.53-2.899m-25.11 4.649a.48.48 0 0 1 .588-.347 32 32 0 0 0 4.804.863.483.483 0 1 1-.097.962 33 33 0 0 1-4.949-.889.483.483 0 0 1-.346-.589m-9.092-3.901a.484.484 0 0 1 .66-.18 39 39 0 0 0 4.389 2.171.483.483 0 0 1-.371.893 40 40 0 0 1-4.499-2.224.485.485 0 0 1-.179-.66m39.466-9.941a.482.482 0 1 1 .946.195 18.2 18.2 0 0 1-1.979 5.323.483.483 0 1 1-.84-.478 17.2 17.2 0 0 0 1.873-5.04m-47.435 4.049c.176-.2.481-.22.681-.043a53 53 0 0 0 3.833 3.08.484.484 0 0 1-.569.783 54 54 0 0 1-3.902-3.137.484.484 0 0 1-.043-.683m47.179-15.395a.484.484 0 0 1 .601.326c.53 1.792.872 3.67.985 5.565a.484.484 0 1 1-.965.058 24 24 0 0 0-.946-5.348.484.484 0 0 1 .325-.6m6.093 3.143a.483.483 0 1 1 .615.746 12.3 12.3 0 0 1-4.192 2.277.484.484 0 0 1-.289-.923 11.4 11.4 0 0 0 3.866-2.1m-13.546 2.301a.484.484 0 0 1 .594-.338c.785.215 1.601.39 2.445.515q1.176.174 2.248.2a.484.484 0 0 1-.024.966 19 19 0 0 1-2.366-.21 22 22 0 0 1-2.559-.539.484.484 0 0 1-.338-.594m-46.574 2.777a.483.483 0 0 1 .681.06 70 70 0 0 0 3.291 3.664.483.483 0 1 1-.694.673 71 71 0 0 1-3.337-3.716.484.484 0 0 1 .059-.681m37.926-8.034a.483.483 0 0 1 .683.004 18.3 18.3 0 0 0 3.954 3.013.484.484 0 0 1-.478.84 19.2 19.2 0 0 1-4.163-3.174.485.485 0 0 1 .004-.683m-43.765.003a.483.483 0 0 1 .668.143 83 83 0 0 0 2.803 4.062.483.483 0 1 1-.778.573 84 84 0 0 1-2.836-4.11.484.484 0 0 1 .143-.668m54.112-9.54a.483.483 0 0 1 .683-.02c1.311 1.242 2.482 2.773 3.465 4.493a.483.483 0 1 1-.839.48c-.942-1.65-2.057-3.102-3.29-4.27a.485.485 0 0 1-.019-.683m-13.825.563a.482.482 0 1 1 .911.322c-.458 1.297-.307 2.916.44 4.63a.483.483 0 1 1-.886.387c-.81-1.859-1.029-3.74-.465-5.34m4.064-3.48q1.165-.335 2.643-.406a8.9 8.9 0 0 1 2.897.355.483.483 0 0 1-.27.928 7.9 7.9 0 0 0-2.583-.317c-.923.043-1.728.171-2.423.37a.482.482 0 1 1-.264-.93m-48.024 6a.484.484 0 0 1 .646.224v.002l.003.006.014.027.053.108q.072.145.216.423c.191.37.479.91.859 1.59a.483.483 0 1 1-.843.473 59 59 0 0 1-1.096-2.053l-.071-.144-.004-.007-.001-.003a.484.484 0 0 1 .224-.646"/><path fill="#B2BCC1" d="M37.342 29.568h103.629a3.06 3.06 0 0 1 3.058 3.061v67.11H34.284v-67.11a3.06 3.06 0 0 1 3.058-3.06"/><path fill="#B2BCC1" d="M144.029 32.626v67.11H34.284v-67.11c0-1.69 1.37-3.058 3.058-3.058h103.629a3.06 3.06 0 0 1 3.058 3.058"/><path fill="#CBD4DB" d="M112.002 29.568 83.665 99.735h-49.38V32.626c0-1.69 1.369-3.058 3.057-3.058z"/><path fill="#40505B" d="M140.501 34.172H37.816v60.96H140.5z"/><g fill="#F7F7F7" opacity=".51"><path d="m70.275 34.172-24.242 60.96h-8.217V63.556l11.721-29.384zM90.26 34.172l-23.943 60.96H55.865l24.128-60.96zM140.497 34.172v16.17l-17.807 44.79h-20.808l24.316-60.96zM140.498 74.942v20.19h-7.989z" opacity=".3"/></g><path fill="#7F8A90" d="M145.297 120.382H33.015a2.8 2.8 0 0 1-2.796-2.799v-2.628l4.065-11.826h109.744l4.065 11.486v2.968a2.8 2.8 0 0 1-2.796 2.799"/><path fill="#E4E6EA" d="M146.083 116.992H32.23a2.05 2.05 0 0 1-1.974-2.594l4.032-14.659h109.744l4.031 14.659a2.048 2.048 0 0 1-1.973 2.594z"/><path fill="#F9F9F9" d="M129.232 99.735c-2.457 7.245-13.987 13.493-30.415 17.253H32.23a2.05 2.05 0 0 1-1.974-2.594l4.032-14.659z"/><path fill="#B2BCC1" d="M135.083 112.478h-91.85v-2.036l2.407-11.836h87.036l2.407 11.836z"/><path fill="#E2E9F2" d="M135.083 110.442h-91.85l2.407-11.836h87.036z" opacity=".53"/><path fill="#DAE0E5" d="M98.525 110.442H43.233l2.407-11.836h58.179z"/><path fill="#E8EEF1" d="M113.724 48.434H64.062a4.85 4.85 0 0 0-4.85 4.85v29.708a4.85 4.85 0 0 0 4.85 4.85h49.662a4.85 4.85 0 0 0 4.85-4.85V53.284a4.85 4.85 0 0 0-4.85-4.85"/><path fill="#B2BCC1" d="M114.207 48.434H63.578a4.367 4.367 0 0 0-4.366 4.367v4.26h59.362V52.8a4.367 4.367 0 0 0-4.367-4.367"/><path fill="#fff" d="M114.874 50.476c.256.255.294.636.083.85l-4.374 4.373c-.21.211-.59.177-.85-.082-.255-.256-.293-.636-.082-.85l4.373-4.374c.211-.21.591-.176.85.083"/><path fill="#fff" d="M109.734 50.476c.255-.256.635-.294.849-.083l4.374 4.374c.211.21.176.59-.083.85-.255.255-.635.293-.85.082l-4.373-4.373c-.211-.211-.177-.591.083-.85"/><path fill="#D58500" d="M89.275 84.176c9.409 0 17.037-7.628 17.037-17.037 0-9.41-7.628-17.037-17.037-17.037-9.41 0-17.038 7.628-17.038 17.037 0 9.41 7.628 17.037 17.038 17.037"/><path fill="#fff" d="M90.933 56.164c0-.985-.798-1.784-1.781-1.784-.984 0-1.781.799-1.781 1.784v15.881c0 .986.797 1.784 1.78 1.784.984 0 1.782-.798 1.782-1.784zM89.152 76.054a1.78 1.78 0 1 0 0 3.561 1.78 1.78 0 0 0 0-3.561"/></svg>