<svg width="320" height="194" fill="none" xmlns="http://www.w3.org/2000/svg">
  <g clip-path="url(#a)">
    <path fill="#E4F3FF" d="M0 0h320v194H0z"/>
    <path d="M112.96 61c.84-.77 1.34-1.86.9-2.86a2.95 2.95 0 0 0-1.35-1.34c-1.85-1.1-4.31-1.1-6.4-.49-2.1.64-3.95 1.81-5.77 3 1.88-1.5 3.78-3.07 4.79-5.17.98-2.09.72-4.85-1.23-6.22-1.8-1.25-4.31-1.02-6.5-.51a32.55 32.55 0 0 0-12.1 5.58C83.02 54.7 78.5 58.01 78 61h34.96Z" fill="#EAEAEA"/>
    <path d="M103.22 57.56c-.7 1 1.68 1.4 2.35 1.43 1.54.07 3.1-.46 4.4-1.18.7-.38 1.3-.86 1.82-1.4a8.68 8.68 0 0 0-5.69-.1c-1 .3-1.95.7-2.85 1.22 0 0 0 .03-.03.03Z" fill="#fff"/>
    <path d="M86.43 58.1c4.22.25 9.51.25 12.9-2.42 1.99-1.59 3.6-4.34 2.4-6.71a6.4 6.4 0 0 0-1.6-1.96c-.91.02-1.84.2-2.73.4A32.55 32.55 0 0 0 85.3 53c-1.34 1-3.47 2.57-5.1 4.3 2.03.46 4.15.7 6.23.8Z" fill="#F3F3F3"/>
    <path d="M10.6 54.6c.22-.75.89-1.39 1.68-1.5 2.52-.35 2.43 3.38 1.08 4.18.69-.2 1.5.07 1.93.66.1.16.2.36.22.56.02.4-.38 1.06-1.61.88a4.14 4.14 0 0 1-2.86-1.86c-.44-.73-.68-2.1-.44-2.92Z" fill="#D58500"/>
    <path d="M12.2 54.94c-.18-.53.02-1.3.7-1.13.84.22.82 1.15.66 1.41-.26.45-1.17.31-1.37-.28Z" fill="#BF4829"/>
    <path d="M11.9 57.24c.43.42.78.9.91 1.46.02.13.05.26-.06.35-.05.04-.14.07-.2.07-.34 0-.64-.18-.93-.36-.24-.18-.51-.35-.73-.55a2.9 2.9 0 0 1-.66-.7c-.25-.36-.54-1.23.1-1.31.6-.1 1.22.68 1.58 1.04Z" fill="#8E2C13"/>
    <path d="M8.15 55.53c-.82-.02-1.6.42-1.88 1.1-.9 2.24 2.85 3.28 3.98 2.29-.36.57-.27 1.41.24 1.99.13.15.31.28.5.35.4.13 1.18-.04 1.25-1.24a4.27 4.27 0 0 0-1.24-3.2 5.16 5.16 0 0 0-2.85-1.29Z" fill="#B45F00"/>
    <path d="M8.13 57.13c-.51-.34-1.33-.38-1.3.33.04.84.96 1.1 1.27 1.04.51-.14.6-1.02.03-1.37Z" fill="#8E2C13"/>
    <path d="M63.01 63.14A2.57 2.57 0 0 0 61 61.33c-3.04-.43-2.93 4.08-1.3 5.04a2.17 2.17 0 0 0-2.33.8c-.13.18-.24.42-.26.66-.03.48.45 1.28 1.94 1.07a5 5 0 0 0 3.44-2.24c.53-.88.82-2.53.53-3.52Z" fill="#D58500"/>
    <path d="M61.1 63.54c.2-.64-.03-1.57-.86-1.36-1.01.27-.99 1.39-.8 1.7.32.54 1.41.38 1.65-.34Z" fill="#BF4829"/>
    <path d="M61.44 66.31c-.5.5-.93 1.1-1.1 1.76-.02.16-.04.32.09.43.05.05.16.08.24.08.4 0 .77-.22 1.12-.43.29-.21.6-.43.88-.67.29-.24.58-.5.8-.85.29-.43.63-1.46-.14-1.57-.72-.1-1.46.83-1.89 1.25Z" fill="#8E2C13"/>
    <path d="M65.97 64.26c.98-.03 1.92.5 2.26 1.33 1.1 2.7-3.43 3.95-4.8 2.75.43.69.33 1.7-.29 2.4-.16.18-.37.34-.6.42-.49.16-1.42-.05-1.5-1.49a5.15 5.15 0 0 1 1.5-3.86c.8-.78 2.39-1.52 3.43-1.55Z" fill="#B45F00"/>
    <path d="M66 66.18c.6-.4 1.6-.45 1.57.4-.06 1.01-1.18 1.33-1.55 1.25-.61-.16-.72-1.22-.03-1.65Z" fill="#8E2C13"/>
    <path d="M43.34 13.84a1.17 1.17 0 0 0-.92-.83c-1.38-.2-1.33 1.86-.6 2.3a.99.99 0 0 0-1.05.36c-.06.08-.1.19-.12.3 0 .22.21.58.89.48.62-.1 1.23-.47 1.56-1.01.24-.4.38-1.16.24-1.6Z" fill="#D58500"/>
    <path d="M42.47 14.02c.1-.3-.01-.72-.39-.62-.46.12-.44.63-.36.78.15.24.64.17.75-.16Z" fill="#BF4829"/>
    <path d="M42.63 15.28c-.23.23-.43.5-.5.8-.01.07-.02.14.04.2.02.02.07.03.1.03.19 0 .36-.1.52-.2l.4-.3c.13-.1.26-.23.36-.39.13-.2.29-.66-.06-.71-.33-.05-.67.37-.86.57Z" fill="#8E2C13"/>
    <path d="M44.69 14.35c.44-.02.87.23 1.03.6.5 1.22-1.57 1.8-2.18 1.25.19.31.14.77-.14 1.09a.64.64 0 0 1-.28.2c-.21.07-.64-.03-.67-.69-.04-.6.2-1.3.67-1.75.37-.35 1.1-.7 1.57-.7Z" fill="#B45F00"/>
    <path d="M44.7 15.22c.28-.18.72-.2.71.18-.02.46-.53.6-.7.57-.28-.07-.33-.56-.01-.75Z" fill="#8E2C13"/>
    <path d="M99.78 79.9a1.57 1.57 0 0 0-1.25-1.11c-1.86-.26-1.8 2.5-.8 3.09-.5-.15-1.1.05-1.42.49a.9.9 0 0 0-.16.4c-.02.3.28.8 1.2.66a3.06 3.06 0 0 0 2.1-1.37c.33-.54.5-1.56.33-2.16Z" fill="#D58500"/>
    <path d="M98.6 80.14c.13-.39-.02-.96-.52-.83-.62.16-.6.85-.5 1.05.2.32.87.23 1.02-.22Z" fill="#BF4829"/>
    <path d="M98.81 81.84c-.3.32-.57.67-.67 1.08-.01.1-.03.2.05.26.03.04.1.05.15.05.24 0 .47-.13.68-.26.18-.13.38-.26.54-.4.18-.15.36-.32.5-.53.17-.26.39-.9-.09-.96-.44-.07-.9.5-1.16.76Z" fill="#8E2C13"/>
    <path d="M101.59 80.59c.6-.02 1.17.3 1.39.81.67 1.65-2.11 2.42-2.94 1.69.26.42.2 1.04-.18 1.47a.87.87 0 0 1-.38.26c-.3.1-.86-.03-.91-.92-.05-.81.27-1.74.91-2.37a3.81 3.81 0 0 1 2.1-.94Z" fill="#B45F00"/>
    <path d="M101.6 81.76c.38-.24.98-.27.97.25-.03.62-.72.82-.95.77-.38-.1-.44-.76-.02-1.02Z" fill="#8E2C13"/>
    <path d="M67.92 44.96a1.57 1.57 0 0 0-1.24-1.11c-1.87-.26-1.8 2.5-.8 3.09-.51-.15-1.12.05-1.43.49a.9.9 0 0 0-.16.4c-.02.3.28.79 1.2.66a3.06 3.06 0 0 0 2.1-1.37c.33-.54.5-1.56.33-2.16Z" fill="#D58500"/>
    <path d="M66.74 45.2c.13-.39-.01-.96-.52-.83-.62.16-.6.85-.5 1.05.2.32.87.23 1.02-.22Z" fill="#BF4829"/>
    <path d="M66.95 46.9c-.3.31-.57.67-.66 1.08-.02.1-.04.2.04.26.04.04.1.05.15.05.25 0 .47-.13.69-.26.18-.13.37-.26.54-.4.18-.15.36-.32.49-.53.18-.26.39-.9-.09-.96-.44-.07-.9.5-1.16.76Z" fill="#8E2C13"/>
    <path d="M69.73 45.65c.6-.02 1.18.3 1.39.81.67 1.65-2.1 2.42-2.94 1.69.26.42.2 1.04-.18 1.47a.87.87 0 0 1-.38.26c-.3.1-.86-.03-.91-.92-.05-.81.28-1.75.91-2.37a3.82 3.82 0 0 1 2.11-.94Z" fill="#B45F00"/>
    <path d="M69.75 46.82c.37-.24.98-.28.96.25-.03.62-.72.81-.95.77-.37-.1-.44-.76-.01-1.02Z" fill="#8E2C13"/>
    <path d="M48 27.36a1.4 1.4 0 0 0-1.11-.98c-1.66-.24-1.6 2.22-.72 2.74-.45-.13-.98.05-1.26.44a.8.8 0 0 0-.15.36c-.01.26.25.7 1.07.58a2.72 2.72 0 0 0 1.87-1.22c.29-.48.45-1.38.29-1.92Z" fill="#D58500"/>
    <path d="M46.94 27.58c.12-.35-.01-.86-.46-.74-.55.15-.54.76-.44.93.18.3.77.2.9-.19Z" fill="#BF4829"/>
    <path d="M47.13 29.1c-.27.27-.5.59-.6.95 0 .09-.02.18.05.23.03.03.09.05.13.05.22 0 .42-.12.61-.23.16-.12.34-.24.48-.37.16-.13.32-.27.44-.46.16-.24.35-.8-.07-.86-.4-.06-.8.45-1.04.68Z" fill="#8E2C13"/>
    <path d="M49.6 27.97c.54-.01 1.05.28 1.24.73.6 1.47-1.88 2.15-2.62 1.5.24.38.18.93-.16 1.3-.08.1-.2.2-.33.24-.26.09-.77-.03-.81-.82a2.8 2.8 0 0 1 .81-2.1 3.4 3.4 0 0 1 1.87-.85Z" fill="#B45F00"/>
    <path d="M49.62 29.02c.33-.22.87-.25.85.22-.03.55-.64.73-.84.68-.33-.09-.4-.67-.01-.9Z" fill="#8E2C13"/>
    <path d="M42.03 88.16c1.23.85 3.05 3.67-.37 6.68 1.06-.6 3.16-1.15 3.78.03.55.99-.46 2.7-2.4 2.75-7.49.27-6.82-13.42-1-9.46Z" fill="#B45F00"/>
    <path d="M42.94 98.2c.01.13-.04.3-.17.34-.06 0-.12.01-.2-.01-.44-.14-.84-.44-1.23-.73-.49-.38-1-.74-1.46-1.1-.53-.4-1.1-.83-1.47-1.4a1.28 1.28 0 0 1-.23-.82c.02-.28.25-.56.54-.58.18 0 .35.08.5.16.99.6 1.87 1.39 2.73 2.19.5.44.96 1.27.99 1.95Z" fill="#732613"/>
    <path d="M43.75 89.03c1.18.83 2.8 3.6-.98 6.5 1.15-.59 3.35-1.08 3.9.05.47.97-.72 2.62-2.73 2.68-7.67.2-5.78-13.14-.19-9.23Z" fill="#D58500"/>
    <path d="M6.5 22.57c.6.78 1.16 2.9-1.59 4.1.8-.16 2.21-.08 2.37.78.14.73-.84 1.6-2.06 1.24-4.74-1.33-1.57-9.76 1.27-6.12Z" fill="#B45F00"/>
    <path d="M5.04 29.03c-.02.09-.08.18-.17.18a.27.27 0 0 1-.12-.04c-.25-.18-.44-.45-.63-.71l-.7-.98c-.24-.36-.51-.74-.63-1.17a.84.84 0 0 1 .02-.56c.07-.17.27-.3.46-.26.11.04.2.13.27.2.5.58.9 1.25 1.27 1.92.23.38.35 1 .23 1.42Z" fill="#732613"/>
    <path d="M7.4 23.46c.56.76 1.02 2.82-1.92 3.87.83-.14 2.3 0 2.42.81.1.7-.98 1.5-2.25 1.13-4.83-1.41-.97-9.38 1.74-5.81Z" fill="#D58500"/>
    <path d="M.27 100.73c3.61 6.14 4.9 10.62 4.8 10.84-.56 1.15-2.14-4.5-5.75-10.65-3.61-6.14-7.54-11.45-7.33-11.57.2-.13 4.67 5.24 8.28 11.38Z" fill="#8CC180"/>
    <path d="m-1.74 97.58-.09.08-.06-.15c-.3-.7-1.5-3.76-1.05-6.95a8.01 8.01 0 0 1 2.6-5c.4-.34 1.01-.12 1.12.41.17.84.37 2.1.4 3.5v.01c.08 2.71-.44 6-2.92 8.1ZM.29 102.05s-5.65 2.78-10.03-.25l-.02-.02c-.57-.4-1.11-.89-1.62-1.5-.34-.4-.14-1.03.37-1.14 1.32-.27 3.75-.6 6.18-.12a8.31 8.31 0 0 1 5.12 3.03Z" fill="#8CC180"/>
    <path opacity=".25" d="M.29 102.05s-5.65 2.78-10.03-.25l-.02-.02s9.4.63 4.93-2.76a8.31 8.31 0 0 1 5.12 3.03ZM-1.74 97.58l-.15-.07c-.3-.7-1.5-3.76-1.05-6.95 0 0 3.43 3.13 4.13-1.08.07 2.7-.45 6-2.93 8.1Z" fill="#428142"/>
    <path d="M79.13 124.16c-4.1 5.82-5.77 10.19-5.68 10.41.46 1.2 2.5-4.31 6.62-10.13 4.1-5.82 8.46-10.78 8.27-10.93-.2-.15-5.1 4.84-9.2 10.65Z" fill="#8CC180"/>
    <path d="M87.3 115s3.46-2.18 4.9-5.8l.04-.12c.57-1.5.78-3.22.28-5.15a.66.66 0 0 0-1.13-.29 20 20 0 0 0-2.04 2.48c-1.59 2.3-3.07 5.54-2.05 8.88ZM81.4 121.2l.08.08.08-.14c.36-.68 1.8-3.63 1.62-6.85A8 8 0 0 0 81 109.1c-.36-.38-.99-.2-1.14.32-.24.81-.54 2.05-.7 3.46-.3 2.7-.05 6.02 2.25 8.32Z" fill="#8CC180"/>
    <path opacity=".25" d="m81.4 121.2.16-.06c.36-.68 1.8-3.63 1.62-6.85 0 0-3.68 2.85-4.03-1.41-.3 2.7-.05 6.02 2.24 8.32ZM87.3 115s3.46-2.18 4.9-5.8l.04-.12s-4.63 1.13-2.9-2.95c-1.58 2.28-3.06 5.53-2.04 8.87Z" fill="#428142"/>
    <path d="m61.72 168.16-17.86-2.83-4.44-.7-.1-1.65c-.06-.88-.12-2.07-.19-3.53-.28-7.1-.45-20.31 1.4-31.97l.03-.15.14-.84a64.18 64.18 0 0 1 2.04-8.66 29.6 29.6 0 0 1 3.66-7.88c3.1-4.47 7.47-6.52 13.56-4.26a22.6 22.6 0 0 1 5.46 2.82 13.76 13.76 0 0 1 4.39 5.16c.48.98.87 2.06 1.16 3.24.91 3.65.92 8.28.08 14.25l-.1.67c-.06.47-.14.94-.22 1.42l-.12.73-.27 1.5-.1.57-.2.97a189.31 189.31 0 0 1-.87 4.1l-.2.85-.2.87-.2.88a199.91 199.91 0 0 1-1.9 7.38c-.83 3.08-1.76 6.36-2.8 9.85l-.47 1.64-.5 1.66a819.37 819.37 0 0 1-1.18 3.9Z" fill="#8CC180"/>
    <path opacity=".25" d="m61.72 168.16-17.86-2.83-3.07-.9-1.48-1.45c-.05-.88-.11-2.07-.17-3.53-.29-7.1-.46-20.31 1.4-31.97l.02-.15.15-.84a64.17 64.17 0 0 1 2.03-8.66s5.9-3.55 12.51 6.11c6.36 9.32 15.1-5.91 15.72-7.03.91 3.65.92 8.28.08 14.25l-.1.67c-.06.46-.14.94-.22 1.42l-.12.73-.27 1.5-.1.57-.2.97-.32 1.6a359.83 359.83 0 0 0-.55 2.5l-.2.85-.2.87-.2.88a199.91 199.91 0 0 1-1.9 7.38c-.83 3.08-1.76 6.35-2.8 9.85l-.47 1.64-.5 1.66-1.14 3.77-.04.13Z" fill="#428142"/>
    <path opacity=".25" d="m46.58 110.17-.18-.22c3.1-4.48 7.47-6.53 13.56-4.26 2.11.79 3.93 1.7 5.46 2.82l.06.4c2.66 16.68-18.9 1.27-18.9 1.27Z" fill="#C0E5B5"/>
    <path opacity=".25" d="M61.75 168.03 42.13 164s-1.31-1.78-3-4.56c-.28-7.1-.45-20.31 1.4-31.97a30.5 30.5 0 0 1 .17-.99c1.6 1.84 7.56 8.78 9.77 12.68 3.2 5.63 7.47 3.65 8.85 3.18 1.37-.45 8.34-2 10.9-6.3l-.18.97-.33 1.6-.28 1.32-.08.33-.18.84-.2.86-.2.87-.21.88a202.26 202.26 0 0 1-1.9 7.38 433.3 433.3 0 0 1-2.79 9.85l-.48 1.64-.5 1.66-1.13 3.78Z" fill="#428142"/>
    <path d="M19.54 167.82A226.69 226.69 0 0 1 19 179.4l-2.81.33-12.44 1.44-6.64.77-17.06 1.99-6.35.74s-.52-1.3-1.32-3.58a185.12 185.12 0 0 1-1.02-3.04l-.15-.43-.29-.9c-.05-.15-.1-.3-.14-.47l-.3-.96-.16-.5c-.71-2.34-1.47-5.03-2.2-7.94l-.3-1.23c-.27-1.1-.54-2.25-.8-3.42l-.26-1.24-.28-1.37-.27-1.4-.13-.7-.25-1.42a117 117 0 0 1-.85-5.82l-.16-1.4-.2-1.94-.08-1.1v-.01l-.08-1.05v-.15l-.07-.99v-.05l-.05-1.23-.04-1v-.01l-.02-1.11-.01-1.1v-.18c0-2.27.11-4.53.34-6.74a47.71 47.71 0 0 1 2.11-10.25c2.09-6.24 5.66-11.64 11.34-15.4 4.01-2.65 8.74-3.74 13.32-3.19 2.55.3 5.06 1.11 7.38 2.45 1.07.61 2.17 1.35 3.27 2.22 4.48 3.54 9.08 9.36 12.45 18.91 3.34 9.48 5.47 22.64 5.08 40.9Z" fill="#8CC180"/>
    <path opacity=".25" d="M19.54 167.82c-.06 3.06-.2 6.25-.42 9.6l-2.94 2.3-5.28 4.15-28.01 1.54-2.84-1.48-5.28-2.76-2.89-1.5-.53-1.61-.14-.44-.3-.9-.14-.46-.3-.97-.15-.5c-.72-2.34-1.48-5.02-2.2-7.94l-.31-1.22c-.27-1.12-.54-2.26-.8-3.43l-.26-1.24-.28-1.37-.27-1.4-.12-.69-.26-1.43a151.33 151.33 0 0 1-.85-5.82l-.16-1.4-.19-1.94-.1-1.1a45.3 45.3 0 0 1-.13-2.2v-.05c-.03-.4-.05-.81-.06-1.22l-.04-1v-.02l-.02-1.1v-1.29c0-2.27.1-4.52.33-6.74 0 0 15.41 7.84 23.75-6.23 8.21-13.87 8.98-15.06 13.68-17.93 4.48 3.53 9.07 9.35 12.44 18.9 3.34 9.48 5.48 22.64 5.08 40.9Z" fill="#428142"/>
    <path opacity=".25" d="m19.54 167.82-15.8 13.35-1.14.96-5.5-.19-22.33-.77-2.4-.08-.49-1.43-.53-1.6-.14-.44-.3-.9c-.04-.15-.1-.3-.14-.47l-.3-.96-.15-.5a166 166 0 0 1-2.2-7.94l-.31-1.23c-.27-1.1-.54-2.25-.8-3.42l-.26-1.24-.28-1.37-.27-1.4-.12-.7-.26-1.42a117 117 0 0 1-.66-4.34l-.1-.73-.1-.75-.15-1.4-.19-1.94-.1-1.1v-.01a45.2 45.2 0 0 1-.13-2.19v-.05l-.13-4.6v-.03s9.77 1.37 11.68 6.43c1.9 5.07 6.92 2.77 8.9-.86 1.99-3.63 14-17.16 25.1-19.67 1.8-.4 3.29.43 4.53 2.1 3.34 9.48 5.48 22.64 5.08 40.9Z" fill="#428142"/>
    <path d="M-7.06 169.9c-1.76.57-4.25.86-7.73.73a58.2 58.2 0 0 1-2.35-.14 61.7 61.7 0 0 0-2.16-.14l-1.01-.04c-3.89-.1-7.7.13-11.32.6-3.5.46-6.85 1.14-9.93 1.9A99.53 99.53 0 0 0-51.75 176l-1.1.41-.88.35a72.22 72.22 0 0 0-6.82 3.06s.8-4.6 2.69-10.64a95.41 95.41 0 0 1 1.88-5.49 76 76 0 0 1 1.32-3.23l.18-.4c.06-.13.11-.27.18-.4l.42-.91a46.96 46.96 0 0 1 1.54-3.1l.6-1.11c3.24-5.7 7.47-10.67 12.92-12.7a15.54 15.54 0 0 1 4.29-.93c1.23-.1 2.52-.03 3.86.2a20.81 20.81 0 0 1 5.9 1.93c.48.24.97.48 1.46.75l.01.01c1.32.72 2.68 1.6 4.08 2.63 3.9 2.88 8.16 6.99 12.76 12.6 0 0 7.44 8.3-.6 10.88Z" fill="#8FBC6C"/>
    <path opacity=".25" d="M-17.14 170.49c-.72-.06-1.45-.1-2.16-.14l-1.01-.04c-3.89-.1-7.7.13-11.32.6-3.5.46-6.85 1.14-9.93 1.91-3.1.78-5.93 1.67-8.42 2.53-6.5 2.28-10.57 4.46-10.57 4.46s.8-4.6 2.69-10.64c0 0 18.09-12.17 25.93-11.32 7.83.85 12.7-11.43 12.7-11.43 3.92 2.88 8.17 7 12.77 12.6 0 0 11.9 13.3-10.68 11.47Z" fill="#2C7039"/>
    <path d="M-18.32 155.35c10.03 17.76 35.67 18.08 36.3 17.92.61-.15-25.04-1.96-33.99-18.21-8.53-15.5-17.61-32.58-17.89-31.31-.13.62 6.28 15.14 15.57 31.6ZM64.12 114.66c-.1-.01.67 1.89 1 4.17.23 1.58.36 2.76.44 3.43a109.13 109.13 0 0 1-4.18 8.63c0-.6-.18-1.71-.43-3.47-.33-2.36-1.19-4.21-1.29-4.22-.1-.02.67 1.88 1 4.16.29 2.06.42 3.43.5 3.9-.22.43-.46.85-.7 1.27-7.4 13.04-16.98 21.88-16.69 22.1.29.22 9.62-7.3 16.5-19.52.58-.35 1.37-.88 2.36-1.6 1.92-1.4 3.15-3.02 3.1-3.11-.03-.1-1.34 1.47-3.2 2.83-.75.56-1.41.98-1.93 1.31a125.67 125.67 0 0 0 3.26-6.5c.43-.2 1.54-.88 3.2-2.1 1.93-1.4 3.16-3.02 3.12-3.11-.04-.1-1.35 1.47-3.2 2.83-1.36 1-2.39 1.57-2.93 1.94 1.54-3.34 2.77-6.42 3.72-9 .54-.29 1.55-.93 2.96-1.95 1.92-1.4 3.15-3.03 3.1-3.13-.03-.09-1.34 1.48-3.2 2.84-1.19.87-2.13 1.42-2.7 1.8 1.55-4.31 2.24-7.11 2.1-7.23-.2-.15-1.5 4.39-4.24 10.78-.06-.64-.2-1.56-.38-2.83-.33-2.36-1.2-4.2-1.3-4.22h.01Z" fill="#11706D"/>
    <path d="M63.4 113.23c-.2.09-.33.3-.37.55-.04.26 0 .58.14.88.28.6.84.95 1.24.76.4-.19.5-.83.22-1.44-.28-.6-.83-.94-1.24-.75ZM65.6 129.48c-.45.49-.56 1.13-.24 1.44.32.3.96.16 1.42-.33.45-.48.57-1.13.24-1.43-.22-.22-.59-.2-.95-.03-.16.09-.32.2-.47.35ZM58.28 122.34c0 .25.04.52.14.79.31.83 1.01 1.34 1.57 1.13.45-.17.67-.77.56-1.44-.02-.15-.06-.3-.12-.44-.3-.83-1-1.34-1.56-1.14-.38.14-.6.58-.6 1.1ZM69.82 121.94c-.66.6-.88 1.43-.48 1.87.4.44 1.26.32 1.92-.28.66-.6.87-1.43.47-1.87-.28-.31-.8-.34-1.3-.12-.21.1-.42.23-.6.4ZM69.5 109.84c-.17.2-.33.45-.43.76-.24.72-.12 1.43.27 1.75a.71.71 0 0 0 .27.13c.47.13 1.02-.23 1.35-.84l.14-.35c.29-.84.07-1.68-.49-1.87-.36-.12-.77.05-1.1.42ZM73.7 112.08c-.16.12-.32.26-.47.44-.57.68-.66 1.54-.2 1.92.42.36 1.17.16 1.73-.42l.12-.13c.57-.68.66-1.54.2-1.92-.33-.29-.88-.22-1.37.11Z" fill="#11706D"/>
    <path opacity=".3" d="M69.5 109.84c-.17.2-.33.46-.43.76-.24.72-.12 1.43.27 1.75l.26.13c.47.13 1.03-.22 1.35-.84 0 0-1.58-.28-1.44-1.8ZM63.03 113.78c-.04.26 0 .58.14.88.28.6.84.95 1.24.76.4-.19.5-.83.22-1.44 0 0-1.11 1.42-1.6-.2ZM73.7 112.08c-.16.12-.32.26-.47.44-.57.68-.66 1.54-.2 1.92.42.36 1.17.16 1.73-.42 0 0-1.96-1.06-1.05-1.94ZM69.82 121.94c-.66.6-.88 1.43-.48 1.87.4.44 1.26.32 1.92-.28 0 0-1.68-1.4-.84-1.99-.2.1-.41.23-.6.4ZM65.6 129.48c-.45.49-.56 1.13-.24 1.44.32.3.96.16 1.42-.33 0 0-1.45-.85-.71-1.46-.16.09-.32.2-.47.35ZM58.28 122.34c0 .25.04.52.14.79.31.83 1.01 1.34 1.57 1.13.45-.17.67-.77.56-1.44 0 0-1.93 1.38-2.27-.48Z" fill="#0C3A25"/>
    <path d="M105.65 201.14c0 17.68-26.5 32.6-62.72 37.23-7.6.97-15.61 1.5-23.9 1.5-6.89 0-13.59-.37-20.01-1.05-13.27-1.4-25.36-4.17-35.5-7.96a103.9 103.9 0 0 1-7.25-3.03 73 73 0 0 1-9-5c-9.38-6.2-14.85-13.65-14.85-21.69 0-6.73 3.84-13.06 10.6-18.58a47.74 47.74 0 0 1 3.46-2.57 68.45 68.45 0 0 1 8.67-5c15.84-7.73 38.6-12.57 63.88-12.57 26.74 0 50.64 5.41 66.53 13.92 12.54 6.72 20.09 15.37 20.09 24.8Z" fill="#8FBC6C"/>
    <path d="M93.99 137.79c.23 1.8.34 3.77.27 5.95-.18 7.01-2.09 16.05-7.24 27.55l-18.9 1.03-22.53 1.21-.73.04s.76-1.94 2.15-5.07l.17-.37c3.3-7.41 9.9-20.96 18.1-31.33a66.84 66.84 0 0 1 4.16-4.83 39.61 39.61 0 0 1 6.9-5.88c.95-.63 1.9-1.17 2.88-1.63 3.78-1.8 8.36-.95 10.67 1.85.19.22.36.47.51.72 1.48 2.4 2.97 5.9 3.6 10.76h-.01Z" fill="#8CC180"/>
    <path opacity=".25" d="M93.99 137.79c.23 1.8.34 3.77.27 5.95-.18 7.01-2.09 16.05-7.24 27.55l-18.9 1.03-22.53 1.21c.38-1.4.85-3.1 1.42-5.03l.17-.37c3.3-7.42 9.9-20.97 18.1-31.34a66.81 66.81 0 0 1 4.16-4.82c.24-.07 9-2.55 11.9 5.46 2.96 8.11 12.65.36 12.65.36Z" fill="#428142"/>
    <path opacity=".25" d="M89.89 126.3c-.56 3.45-13.25-.13-13.55-.21.95-.63 1.9-1.18 2.87-1.64 3.79-1.8 8.37-.95 10.68 1.85Z" fill="#C0E5B5"/>
    <path opacity=".25" d="M94.26 143.74c-.18 7.01-2.09 16.06-7.24 27.55l-18.9 1.03-20.95-4.19c3.32-7.41 9.91-20.97 18.1-31.33 0 0 11.31 4.55 13.76 11.17 2.19 5.92 12.99-2.41 15.23-4.23Z" fill="#428142"/>
    <path d="M-12.64 168.53c20.75 7.22 39.43 6.73 39.97 6.4.55-.34-16.32-1.21-37.76-7.3-17.02-4.83-26.54-25.98-26.43-24.69.06.64 6.36 19.39 24.22 25.6Z" fill="#11706D"/>
    <path d="M87 174.46c-1.8.18-4.23-.06-7.5-.91a54.9 54.9 0 0 1-2.22-.63c-.67-.2-1.35-.4-2.02-.58l-.96-.25a69.5 69.5 0 0 0-10.9-1.78 83.73 83.73 0 0 0-9.85-.2 95.59 95.59 0 0 0-12.42 1.29c-4.43.76-7.15 1.56-7.15 1.56s1.76-4.32 4.84-9.83a97.36 97.36 0 0 1 2.97-4.96 73.2 73.2 0 0 1 1.95-2.88l.25-.36.26-.35.6-.8c.22-.32.46-.63.7-.93a53.2 53.2 0 0 1 2.24-2.73c4.3-4.9 9.39-8.87 15.01-9.71.6-.1 1.22-.15 1.84-.17a15.4 15.4 0 0 1 6.07 1.15 19.93 19.93 0 0 1 5.2 3.13c.4.32.81.67 1.22 1.04h.01c1.11.99 2.21 2.13 3.32 3.42 3.1 3.64 6.27 8.54 9.44 14.98 0 0 5.3 9.66-2.9 10.5Z" fill="#8FBC6C"/>
    <g opacity=".8" fill="#088465">
      <path opacity=".8" d="M87 174.46c-1.8.18-4.23-.06-7.5-.91 0-1.48.12-3.3.41-5.5 1.38-10.51-9.19-26.47-9.19-26.47v-.2a19.84 19.84 0 0 1 5.2 3.13c.4.33.8.67 1.21 1.04h.01v.01l.02.02c5.93 8.1 8.98 23.82 9.84 28.88ZM63.4 170.31a82.48 82.48 0 0 0-9.85-.21c-7.22-7.86-11.75-11.94-11.75-11.94a68.18 68.18 0 0 1 6-8.05c15.84 11.94 21.11 20.83 21.11 20.83s-1.92-.42-5.5-.63ZM45 170.82c-6.67.86-11.01 2.14-11.01 2.14s1.75-4.32 4.83-9.83c1.83.91 6.13 6.96 6.13 6.96l.05.73Z"/>
    </g>
    <path opacity=".8" d="m75.26 172.33-.96-.25a56.5 56.5 0 0 1 .05-3.92c.47-12.34-11.55-27.76-11.55-27.76a14.9 14.9 0 0 1 1.85-.15c7.2 7.21 10.01 18.13 11.04 23.92.48 2.72.36 5.5-.42 8.11l-.01.05Z" fill="#088465"/>
    <path opacity=".25" d="M77.29 172.92c-.68-.21-1.36-.4-2.03-.59l-.95-.25a67.95 67.95 0 0 0-10.9-1.77 82.48 82.48 0 0 0-9.85-.21c-3.12.11-6.01.39-8.56.72a79.45 79.45 0 0 0-11.01 2.13s1.75-4.32 4.83-9.82c0 0 19.82-8.12 27.1-5.65 7.27 2.47 14.54-8.5 14.54-8.5 3.1 3.63 6.27 8.53 9.44 14.97 0 0 8.48 15.47-12.62 8.97Z" fill="#2C7039"/>
    <path opacity=".25" d="M44.87 153.74c.92-1.24 1.9-2.46 2.92-3.63 4.3-4.89 9.4-8.86 15-9.7a14.46 14.46 0 0 1 4.29-.02c15.48 15.2-22.2 13.35-22.2 13.35Z" fill="#B1DFAC"/>
    <path d="M107.88 156.72c-1 3-2.14 5.66-3.4 8a39.75 39.75 0 0 1-3.33 5.26 56.77 56.77 0 0 1-2.99 3.68l-.37.4-.36.4a51.34 51.34 0 0 1-.74.76c-.45.46-.9.89-1.37 1.3l-.27.23-.75.63-.27.22c-.43.34-.86.65-1.3.95l-.27.18-.6.38-.4.22-.35.21-.42.22c-.94.49-2.04.55-3.01.16l-.03-.01-.16-.07-.48-.23-.14-.06a25.8 25.8 0 0 0-5.09-1.83l-.74-.19c-1.4-.35-2.83-.59-4.27-.74l-.38-.04-.47-.03.21-.43.28-.56.27-.52.3-.58.28-.54a67.69 67.69 0 0 1 1.64-2.91l.25-.42c.52-.87 1.05-1.7 1.59-2.5l.39-.58a25.5 25.5 0 0 1 .78-1.1 51.72 51.72 0 0 1 1.01-1.37l.55-.7.4-.5c.43-.52.84-1.01 1.26-1.48 4.58-5.22 9.2-8.23 13.16-9.96a27.9 27.9 0 0 1 6.2-1.9c1.29-.23 2.37.38 3.03 1.45.72 1.16.94 2.86.36 4.6Z" fill="#318650"/>
    <path d="M107.6 152.05s-19.34 15.33-26.13 25.13" stroke="#8CC180" stroke-miterlimit="10" stroke-linecap="round"/>
    <path opacity=".25" d="M101.22 169.79c0 .06-.02.13-.07.2a57.16 57.16 0 0 1-2.62 3.25l-.37.42-.37.4-.36.4-.38.4-.36.36c-.45.46-.9.89-1.37 1.3l-.27.23-.75.63-.27.22a22.67 22.67 0 0 1-2.17 1.5c-.13.09-.26.16-.4.23l-.35.21-.42.22c-.94.49-2.04.55-3.01.16l-.03-.01-.64-.3-.14-.07a30.6 30.6 0 0 0-5.09-1.82l-.74-.2c-1.4-.34-2.83-.58-4.27-.73l-.38-.04a.32.32 0 0 1-.26-.46l.28-.56.27-.53.3-.57.28-.54a67.69 67.69 0 0 1 1.64-2.91l.25-.42c.52-.87 1.05-1.7 1.59-2.5l.39-.58a25.5 25.5 0 0 1 .78-1.1 53.7 53.7 0 0 1 1.56-2.08l.4-.49c.23-.26.65-.02.55.3-1.14 3.63.25 5.42 2.66 6.2 4.12 1.32 11.22-.36 13.73-1.03.23-.06.4.12.4.3v.01Z" fill="#0C3A25"/>
    <path opacity=".25" d="M104.48 164.72c1.27-2.35 2.4-5 3.4-8 1.11-3.34-.7-6.53-3.39-6.06-1.75.32-3.86.9-6.2 1.9-8.26 7.46 5.94 12.08 6.2 12.16Z" fill="#61B27D"/>
    <path d="M73.03 166.56c-.35 2.89-.5 6.19-.33 9.94.91.1 1.84.12 2.76.18.16 0 .31.02.47.03l.84.08a59.55 59.55 0 0 0 4.8-10.97c.43-1.39.8-2.82 1.08-4.28.48-2.48.72-5.04.58-7.58-.18-3.1-2.78-4.23-4.73-2.56a4.34 4.34 0 0 0-.91 1.07c-1.85 2.94-3.76 7.44-4.56 14.09Z" fill="#318650"/>
    <path d="M80.65 150.64s-5.17 19.85-6.3 28.36" stroke="#8CC180" stroke-miterlimit="10" stroke-linecap="round"/>
    <path opacity=".25" d="M73.03 166.56c-.35 2.89-.5 6.19-.33 9.94.91.1 1.84.12 2.76.18.16 0 .31.02.47.03l.84.08a59.55 59.55 0 0 0 4.8-10.97c-.78.8-10.1 6.92-3.8-13.63l-.18.28c-1.85 2.94-3.76 7.44-4.56 14.09Z" fill="#0C3A25"/>
    <path opacity=".25" d="M82.65 161.54c.49-2.48.72-5.04.58-7.58-.17-3.1-2.78-4.23-4.72-2.56-2.26 6.88 3.75 9.95 4.14 10.14Z" fill="#61B27D"/>
    <path d="M85.02 178.4c-11.45-.09-25.86-2.63-25.9-2.91-.02-.29 14.36 1.8 25.8 1.88 11.45.07 21.27-3.87 21.45-3.62.5.69-9.9 4.72-21.35 4.64Z" fill="#11706D"/>
    <path d="M85.45 183.18c-5-3.92-8.92-5.77-9.15-5.73-1.17.2 3.78 2.49 8.79 6.41 5 3.92 9.18 7.91 9.34 7.78.16-.13-3.97-4.54-8.98-8.46ZM114.93 168.67c-.88.1-2.1.27-3.43.58-3.4.8-7.56 2.5-8.73 6.06 0 0 3.4.3 6.83-.63 2.63-.73 5.27-2.17 6.39-5.04.2-.5-.4-1.04-1.06-.97ZM88.81 168.16c-.64.27-1.48.67-2.37 1.17-2.9 1.64-6.44 4.49-6.01 8.5 0 0 3.02-.57 5.7-2.25h.02l.76-.52.05-.04c1.87-1.4 3.37-3.39 3.22-6.2-.03-.55-.79-.9-1.37-.66ZM73.34 167.03c-.41.18-.9.4-1.44.67-2.7 1.37-6.51 3.93-6.94 7.64.3.47.64.84 1.02 1.11 1.65-.46 4.9-1.6 6.94-3.85a6.57 6.57 0 0 0 1.78-4.9c-.03-.55-.79-.91-1.37-.67ZM91.54 177.66s1.78 3.18 5.31 5.37a13.04 13.04 0 0 0 7.93 1.98c.67-.05.97-.66.54-1.11a24.81 24.81 0 0 0-3.45-3.02h-.01c-2.62-1.89-6.26-3.65-10.32-3.22Z" fill="#11706D"/>
    <path d="M93.14 190.65s1.66 2.94 4.9 4.51l.1.05a9.63 9.63 0 0 0 4.83.9c.5-.03.72-.5.4-.83-.47-.5-1.18-1.19-2.1-1.89-1.97-1.52-4.86-3.08-8.13-2.74ZM88 185.3l-.1.06.13.07c.6.37 3.2 1.86 6.26 2.15a8.7 8.7 0 0 0 5.14-.99c.4-.22.3-.73-.16-.91-.74-.3-1.87-.7-3.18-1-2.5-.58-5.67-.83-8.1.62ZM84.23 182.9s-3.68 3.72-1.7 7.6v.03c.26.5.62 1 1.08 1.51.31.33.94.3 1.14-.06.5-.94 1.29-2.7 1.3-4.62a5.99 5.99 0 0 0-1.82-4.45ZM69.64 177.03s.91 5.9 6.3 8.78h.01c1.08.57 2.34 1.03 3.8 1.29.67.12 1.2-.38.96-.9a19.46 19.46 0 0 0-3.39-5.02 13.07 13.07 0 0 0-7.68-4.15Z" fill="#11706D"/>
    <path opacity=".3" d="M84.23 182.9s-3.68 3.72-1.7 7.6v.03s1.24-7.2 3.53-3.17a5.99 5.99 0 0 0-1.83-4.45ZM88 185.3l.03.14c.6.36 3.2 1.85 6.26 2.14 0 0-2.25-3.2 1.8-2.9-2.5-.58-5.67-.83-8.1.62ZM93.14 190.65s1.66 2.94 4.9 4.51l.1.05s-.52-3.69 3.13-1.82c-1.97-1.52-4.86-3.08-8.13-2.74ZM111.5 169.25c-3.4.8-7.56 2.5-8.73 6.06 0 0 3.4.3 6.83-.63 0 0-2.56-2.81 1.9-5.42ZM91.54 177.66s1.78 3.18 5.31 5.37l.14-.04s-1.8-4.56 4.87-2.11c-2.62-1.89-6.26-3.65-10.32-3.22ZM86.44 169.33c-2.9 1.64-6.44 4.49-6.01 8.5 0 0 3.02-.57 5.7-2.25h.02l.76-.52.05-.04s-3.96-2.48-.52-5.69ZM69.64 177.03s.91 5.9 6.3 8.78h.01s-1.2-6.57 1.36-4.64a13.07 13.07 0 0 0-7.67-4.14ZM71.9 167.7c-2.7 1.37-6.51 3.93-6.94 7.64.3.47.64.84 1.02 1.11 1.65-.46 4.9-1.6 6.94-3.85 0 0-4.46-2.87-1.03-4.9Z" fill="#0C3A25"/>
    <path d="M56.85 167.65c-20 9.1-38.64 10.33-39.22 10.04-.57-.28 16.14-2.7 36.93-10.74 16.5-6.38 24.04-28.31 24.05-27.02 0 .64-4.55 19.89-21.76 27.71Z" fill="#11706D"/>
    <path d="M76.82 143.91c1.5.54 3.48-1.14 4.4-3.75a8.6 8.6 0 0 0 .4-2.36v-1.2c-.01-.82-.07-1.63-.14-2.32a1.13 1.13 0 0 0-1.88-.74 44.65 44.65 0 0 0-1.46 1.38c-1.02 1.04-2 2.24-2.38 3.3-.92 2.61-.45 5.16 1.06 5.7Z" fill="#FF4F51"/>
    <path opacity=".25" d="M76.82 143.91c1.5.54 3.48-1.14 4.4-3.75a8.6 8.6 0 0 0 .4-2.36s-4.39 2.27-3.48-2.88c-1.02 1.04-2 2.24-2.38 3.3-.92 2.61-.45 5.16 1.06 5.7Z" fill="#AE2229"/>
    <path opacity=".25" d="M81.63 136.6c-.02-.82-.08-1.63-.15-2.32a1.13 1.13 0 0 0-1.88-.74l-.6.55c-.51 2.62 2.63 2.51 2.63 2.51Z" fill="#FBE7E9"/>
    <path d="M65.1 156.22a35.5 35.5 0 0 1 .5 3.01 40.86 40.86 0 0 1 .21 9.87c-.2 2.1-.59 4.18-1.17 6.21-2.86 9.94-10.6 18.62-26.22 23.11-22.31 6.4-38.9-4.98-45.45-21.61a44.96 44.96 0 0 1-3.04-14.18c-.12-2.5-.11-5 .03-7.48a78.67 78.67 0 0 1 3.56-19.18 61.42 61.42 0 0 1 7.31-15.54c4.74-7.15 10.89-12.46 18.23-14.38l.72-.18c8.68-1.98 17.14 2.84 24.35 10.4a78.37 78.37 0 0 1 11.03 15c.87 1.5 1.7 3.01 2.47 4.51A93.24 93.24 0 0 1 63.58 150c.34 1.11.65 2.24.93 3.38.21.94.42 1.88.6 2.84Z" fill="#ADD95F"/>
    <path opacity=".35" d="M57.63 135.78c-4.52 3.15-15.1 8.93-33.28 10.44-17.61 1.46-27.96-1.66-32.62-3.69a76.6 76.6 0 0 1 2.47-8.6 61.42 61.42 0 0 1 6.64-13.55c3.55 1.65 11.32 4.14 23.86 2.52 9.62-1.25 15.79-4.18 19.44-6.63a78.42 78.42 0 0 1 11.03 15c.86 1.51 1.7 3 2.47 4.51Z" fill="#fff"/>
    <path d="M54.22 129.7a4.47 4.47 0 0 1-4.3 1.88 7.45 7.45 0 0 1-3-1.07 7.46 7.46 0 0 0-.63-4.3c-.89-1.88-2.1-2.2-2.93-1.85-1.16.48-1.52 2.12-.88 3.82a7.6 7.6 0 0 0 2.49 3.05l-.2.53a6.2 6.2 0 0 1-4.26 3.27 8.21 8.21 0 0 1-6.42-.56 6.33 6.33 0 0 1-1.27-.95v-.06c.99-2.2.92-4.58.25-5.8-.66-1.21-1.68-1.54-2.48-1.29-1.03.37-1.89 1.74-1.2 4.58a7.7 7.7 0 0 0 1.31 2.8 7.74 7.74 0 0 1-4.53 3.09c-2.64.73-4.73.64-6.22-.27a4.74 4.74 0 0 1-1.2-1.06 6.45 6.45 0 0 0 1.3-4.7c-.2-1.33-.69-2.13-1.46-2.44a1.63 1.63 0 0 0-1.64.3c-.99.8-1.43 2.55-1.1 4.35.15.8.41 1.57.78 2.3a7.78 7.78 0 0 1-4.95 2.29 7.56 7.56 0 0 1-5.43-2 5.44 5.44 0 0 0 1.33-3.41c.08-2.71-.7-4.44-2.04-4.54-.65-.03-2.2.29-2.68 4.43-.09 1.2.25 2.4.97 3.39a8.77 8.77 0 0 1-5.7 1.3c-1.65-.2-2.99-1.47-3.92-2.84l-.68 2a6.77 6.77 0 0 0 4.43 2.54c2.46.27 4.94-.33 7-1.7a9.3 9.3 0 0 0 6.85 2.56 9.54 9.54 0 0 0 5.83-2.56c.42.47.9.88 1.45 1.21 1.94 1.19 4.5 1.34 7.63.46a9.51 9.51 0 0 0 5.26-3.42c.4.34.82.65 1.28.9a9.51 9.51 0 0 0 6.5.99c.39-.08.8-.17 1.24-.29 3.24-.9 4.72-2.8 5.37-4.22 0-.08.08-.16.11-.24a9.1 9.1 0 0 0 3.28 1.07 6.26 6.26 0 0 0 5.45-2c-.34-.5-.66-1-.98-1.53Zm-49.11 4.54a3.18 3.18 0 0 1-.51-1.95 6 6 0 0 1 .83-2.8c.38.83.52 1.74.42 2.65a3.71 3.71 0 0 1-.74 2.1Zm12.72-.56c-.1-.32-.18-.64-.24-.98a3.33 3.33 0 0 1 .44-2.67c.17.32.27.66.3 1.01.12.92-.06 1.84-.5 2.64Zm13.76-1.83a5.6 5.6 0 0 1-.5-1.32c-.42-1.68-.08-2.47.06-2.55.14-.08.22.1.4.45.39 1.1.4 2.3.04 3.42Zm13.65-2.65c-.49-.46-.88-1-1.15-1.61a2.07 2.07 0 0 1-.08-1.6c.3.25.54.58.68.95.34.7.53 1.47.55 2.26Z" fill="#71C2DB"/>
    <path d="M65.1 156.22a35.68 35.68 0 0 1 .5 3.01 40.84 40.84 0 0 1 .21 9.87c-7 3.22-19.38 7.68-37.63 9.88-18.1 2.2-29.2-.05-35.23-2.2a44.96 44.96 0 0 1-3.04-14.19c-.12-2.48-.1-4.97.05-7.45 4.9 2.6 17.06 6.96 40.02 3.3 17.08-2.72 27.17-7.18 32.82-10.67a61.07 61.07 0 0 1 2.3 8.45Z" fill="#A3A1EB"/>
    <path d="M-3.54 166.56s-.58-3.18 1.82-2.74c2.4.44.14 3.32.14 3.32s3.03-1.76 3.54.07c.51 1.83-1.17 2.51-3.29 1.77 0 0 3.37 2 .65 3.42-2.6 1.34-2.35-2.8-2.35-2.8s-.54 3.44-2.81 2.25c-2.27-1.2-.84-3.22 1.29-3.27 0 0-3.85-.03-2.64-2.46 1.2-2.44 3.65.43 3.65.43ZM10.1 168.2s-1.25-3 1.21-3.07c2.46-.07.83 3.22.83 3.22s2.6-2.34 3.48-.63c.88 1.7-.62 2.7-2.87 2.4 0 0 3.72 1.28 1.35 3.21-2.23 1.84-2.86-2.23-2.86-2.23s.18 3.47-2.27 2.76c-2.45-.72-1.49-2.99.59-3.5 0 0-3.77.75-3.1-1.87.66-2.63 3.64-.3 3.64-.3Z" fill="#F1D961"/>
    <path d="M12.66 169.84a1.61 1.61 0 0 1-.83 1.15 1.7 1.7 0 0 1-1.42.1 1.66 1.66 0 0 1-.84-1 1.6 1.6 0 0 1 .16-1.29 1.72 1.72 0 0 1 2.17-.6 1.78 1.78 0 0 1 .76 1.63Z" fill="#D79126"/>
    <path opacity=".67" d="M12.66 169.84a1.6 1.6 0 0 1-.83 1.15 1.7 1.7 0 0 1-1.42.1 1.66 1.66 0 0 1-.84-1 1.6 1.6 0 0 1 .16-1.29 2.61 2.61 0 0 0 2.93 1.04Z" fill="#F1D961"/>
    <path d="M24.05 167.79s-1.46-2.88.98-3.14c2.43-.26 1.06 3.16 1.06 3.16s2.42-2.52 3.44-.88c1.02 1.63-.42 2.75-2.69 2.6 0 0 3.8 1.01 1.58 3.11-2.1 2.02-3-2.04-3-2.04s.42 3.45-2.1 2.9c-2.5-.53-1.7-2.88.34-3.5 0 0-3.7 1.02-3.23-1.65.47-2.66 3.62-.56 3.62-.56Z" fill="#F1D961"/>
    <path d="M26.71 169.25a1.62 1.62 0 0 1-1.42 1.47c-.24.03-.49 0-.73-.06a1.63 1.63 0 0 1-.82-2.23c.2-.36.52-.63.9-.76.4-.14.81-.14 1.2 0a1.79 1.79 0 0 1 .87 1.58Z" fill="#D79126"/>
    <path opacity=".67" d="M26.71 169.25a1.58 1.58 0 0 1-.73 1.21 1.7 1.7 0 0 1-1.42.2 1.67 1.67 0 0 1-1-1.6c.02-.22.08-.44.18-.63a2.6 2.6 0 0 0 2.97.82Z" fill="#F1D961"/>
    <path d="M38.02 165.98s-1.59-2.83.85-3.18c2.43-.36 1.2 3.1 1.2 3.1s2.3-2.61 3.38-1.02c1.07 1.6-.3 2.8-2.57 2.7 0 0 3.84.87 1.72 3.04-2.02 2.1-3.13-1.9-3.13-1.9s.57 3.44-1.94 3c-2.52-.43-1.84-2.8.15-3.5 0 0-3.63 1.16-3.3-1.55.33-2.71 3.64-.69 3.64-.69Z" fill="#F1D961"/>
    <path d="M40.75 167.32a1.6 1.6 0 0 1-.68 1.24 1.68 1.68 0 0 1-1.41.26 1.64 1.64 0 0 1-.94-2.2 1.72 1.72 0 0 1 2.06-.8 1.8 1.8 0 0 1 .96 1.5Z" fill="#D79126"/>
    <path opacity=".67" d="M40.75 167.32a1.6 1.6 0 0 1-.68 1.24 1.66 1.66 0 0 1-1.41.26 1.64 1.64 0 0 1-.94-2.2 2.6 2.6 0 0 0 3.02.7Z" fill="#F1D961"/>
    <path d="M52.72 161.49s-1.9-2.64.47-3.25c2.37-.62 1.55 2.95 1.55 2.95s2-2.85 3.24-1.39c1.24 1.46.03 2.81-2.23 2.98 0 0 3.9.42 2.02 2.84-1.76 2.28-3.31-1.55-3.31-1.55s.98 3.34-1.57 3.2c-2.54-.15-2.13-2.59-.22-3.53 0 0-3.5 1.57-3.45-1.15.04-2.7 3.5-1.1 3.5-1.1Z" fill="#F1D961"/>
    <path d="M55.59 162.52a1.65 1.65 0 0 1-1.9 1.73 1.65 1.65 0 0 1-1.25-1.44c-.03-.23 0-.45.07-.66.13-.39.41-.7.77-.9.36-.2.78-.26 1.18-.18a1.76 1.76 0 0 1 1.13 1.45Z" fill="#D79126"/>
    <path opacity=".67" d="M55.59 162.52a1.66 1.66 0 0 1-1.9 1.73 1.65 1.65 0 0 1-1.25-1.44c-.03-.23 0-.45.07-.66a2.63 2.63 0 0 0 3.08.37Z" fill="#F1D961"/>
    <path d="M65.1 156.22a35.82 35.82 0 0 1 .5 3.01c.12.87.2 1.72.27 2.59a1.62 1.62 0 0 1-1.33.43c-2.53-.15-2.14-2.53-.28-3.48-.47.2-3.44 1.33-3.4-1.17.06-2.81 3.5-1.12 3.5-1.12s-1.7-2.35.14-3.12c.22.96.42 1.9.6 2.86Z" fill="#F1D961"/>
    <path d="M65.1 156.22a35.68 35.68 0 0 1 .5 3.01h-.27a1.64 1.64 0 0 1-1.17-2.08 1.55 1.55 0 0 1 .95-.93Z" fill="#D79126"/>
    <path opacity=".67" d="m65.4 157.82.2 1.41-.27-.01a1.64 1.64 0 0 1-1.17-2.07c.34.33.77.56 1.24.67Z" fill="#F1D961"/>
    <path opacity=".25" d="M64.64 175.3c-2.86 9.95-10.6 18.62-26.22 23.12-22.31 6.4-38.9-4.98-45.45-21.62a44.97 44.97 0 0 1-3.04-14.18c-.12-2.5-.11-4.99.03-7.48a78.69 78.69 0 0 1 3.56-19.18 61.46 61.46 0 0 1 7.31-15.54c4.74-7.15 10.89-12.45 18.23-14.37-4.47 8.64-12.53 26.45-14.54 46.9-2.8 28.29 24.26 50.58 60.12 22.35Z" fill="#508C29"/>
    <path opacity=".05" fill-rule="evenodd" clip-rule="evenodd" d="M43.65 132.6a2.72 2.72 0 0 1-2.72-1 2.73 2.73 0 0 1-.63-1.6c-.08.25-.14.51-.19.78-.13.77.12 1.53.6 2.12.64.8 1.7 1.26 2.72 1a3.43 3.43 0 0 0 1.45-.97 3.36 3.36 0 0 0 .9 2.77 2.95 2.95 0 0 0 4.06.18 2.67 2.67 0 0 0 2.14 2.88c1.15.18 2.33-.48 3.02-1.43a6.5 6.5 0 0 0 1.15-3.32c-.2.73-.5 1.42-.93 2.01-.7.96-1.87 1.61-3.02 1.43a2.68 2.68 0 0 1-2.14-2.88 2.94 2.94 0 0 1-4.06-.17 3.23 3.23 0 0 1-.9-2.77 3.4 3.4 0 0 1-1.45.97Z" fill="#51394C"/>
    <path d="m39.95 169.8.26.54a30.42 30.42 0 0 1 2.86 11.08c.37 7.53-2.69 15.2-11.9 21.59l-1.5 1-.06.03a37 37 0 0 1-1.35.81h-.03c-.19.11-.37.22-.56.31l-.27.15-.2.11-.2.1-.59.3-.2.1-.35.16-.45.21-.12.06-.15.06h-.03l-.1.04-.4.17-.5.21-.79.3-.36.12c-.39.15-.77.26-1.16.38a24.59 24.59 0 0 1-10.28.9c-.27 0-.54-.07-.8-.11a24.68 24.68 0 0 1-10.78-4.56 29.35 29.35 0 0 1-5.66-5.48l-.45-.58c-.26-.34-.5-.69-.75-1.04l-.87-1.29a33.31 33.31 0 0 1-3.32-7.06c-3.6-10.62-3.97-23.8-.3-33.65.19-.51.39-1.02.6-1.5.21-.5.4-.92.65-1.36l.05-.19.33-.64.13-.24v-.07l.1-.16.12-.24.13-.2c.04-.07.16-.3.25-.43.1-.13.06-.1.1-.15l.17-.28.08-.13.08-.12.1-.17.05-.07.61-.86.07-.1.33-.42.1-.12.23-.3.38-.44.26-.29.35-.37.23-.23a17.99 17.99 0 0 1 3.97-3.03c12.8-7.15 31.65 10.6 39.2 22.33 1 1.55 1.9 3.15 2.69 4.82Z" fill="#71C2DB"/>
    <path d="M-.33 163.85c.17.38.33.77.48 1.15l.32.8c3.24 8.5-.65 7.03-4 1.52l-.23-.38a65.7 65.7 0 0 1-.4-.7 61.52 61.52 0 0 1-3.93-10.09c-.59-1.94-1.08-3.68-1.42-4.95l-.1-.4.09-.17.13-.23.12-.2c.04-.07.16-.3.25-.43l.1-.15.17-.28.09-.13.08-.13.46.7c.65.95 1.44 2.22 2.33 3.69a87.77 87.77 0 0 1 5.47 10.38Z" fill="#FDADCA"/>
    <path d="m2.71 162.09-.25-.21a79.04 79.04 0 0 1-8.25-8.46 95.25 95.25 0 0 1-3.13-3.85l.17-.28.09-.13.08-.13.1-.17.05-.06.6-.87.07-.1.33-.42h.05l.18.12 1.67 1.07.48.32a69.66 69.66 0 0 1 9.95 7.76c.33.33.65.65.95.99l.1.1c5.1 5.56 3.42 9.84-3.24 4.3v.02Z" fill="#FDADCA"/>
    <path d="M-.62 156.87a88.53 88.53 0 0 1-7.85-8l.05-.07.6-.87.07-.1.36.27a98.34 98.34 0 0 1 8.2 6.77c5.97 5.5 5.45 8.16-1.42 2Z" fill="#D87DA3"/>
    <path d="M6.42 151.34a73.65 73.65 0 0 1-7.17-1.36 67.8 67.8 0 0 1-3.03-.76l-1.21-.35a29.7 29.7 0 0 1-1.75-.56l-.65-.24-.42-.16c0-.05.04-.07.06-.1l.33-.43.1-.12.24-.3.37-.43.26-.3c.13-.11.23-.24.35-.36.57-.09 1.22-.18 1.95-.27 4.12-.5 10.58-1.03 14.33.11l.6.2.25.11c5.4 2.29 2.28 6.21-4.62 5.31v.01Z" fill="#FDADCA"/>
    <path d="M8.02 149.58c-2.81 0-9.59-1.22-14.38-2.17l-.9-.18.24-.3.38-.43c2.53.1 5.72.23 8.72.4l1.6.11 1.3.11c5.68.61 7.28 2.42 3.04 2.46Z" fill="#D87DA3"/>
    <path d="M-.75 150.02c-2.71-1.13-5.14-2.04-6.4-2.5l-.25-.1-.33.43c0 .03-.05.06-.07.1-.02.04 0 0 0 0a79.67 79.67 0 0 0 7.46 5.82c2 1.44 4.09 2.73 6.25 3.89.68.35 1.38.65 2.1.9 1.3.44 2.26.5 2.87.19.16-.08.3-.18.43-.3a1.09 1.09 0 0 0 .27-1.04c-.47-2.07-6.96-5.17-12.35-7.39h.02Zm11.95 7.49a.64.64 0 0 1-.18.64 1.48 1.48 0 0 1-1.3.37c-1.19-.07-2.9-.8-4.8-1.87-4.1-2.46-8-5.25-11.66-8.34l-.47-.4 1.73.65 1.7.65c1.5.6 3.27 1.3 5.04 2.08 7.8 3.45 9.72 5.28 9.94 6.22ZM12.13 143.15c-2.02-1.67-12.21.85-17.94 2.45l-.24.23c-.11.13-.22.25-.35.37l2.3-.65c1.3-.35 2.8-.73 4.29-1.08 8.3-1.94 10.93-1.62 11.65-1.01.1.07.17.17.2.29.05.11.06.24.04.36a1.52 1.52 0 0 1-.8 1.05 6 6 0 0 1-1.07.53c-1.9.7-5 1.06-8.17 1.22-3.36.18-6.83.12-9.1 0l-.24.3-.1.13h.06l.95.04c3.78.14 7.56.04 11.33-.29 1.7-.12 3.38-.41 5.02-.87.3-.09.58-.2.87-.33a3.06 3.06 0 0 0 1.54-1.24c.09-.16.14-.33.17-.5.03-.19 0-.38-.07-.56-.08-.17-.2-.32-.35-.43v-.01ZM2.71 162.09a62.47 62.47 0 0 0-5.94-7.67 166.05 166.05 0 0 0-5.18-5.61l-.05.06-.1.17-.08.13.54.56a162.1 162.1 0 0 1 5.37 5.9c1.55 1.76 3 3.6 4.35 5.5 1.74 2.54 2.08 3.78 1.94 4.38a.64.64 0 0 1-.43.5 1.55 1.55 0 0 1-1.3-.21 8.44 8.44 0 0 1-2.14-1.95c-2.86-3.37-6.16-9.76-7.84-13.32-.23-.46-.42-.88-.59-1.24l-.17.28c0 .05-.07.1-.1.15a91.95 91.95 0 0 0 5.38 10.2A30.36 30.36 0 0 0 .14 165l.08.08c.96.94 1.8 1.41 2.51 1.4a1.37 1.37 0 0 0 .98-.4c.12-.15.2-.32.23-.5.2-.77-.32-2.02-1.22-3.5Z" fill="#fff"/>
    <path d="m24.9 205.33.38 1.03-.15.07h-.03l-.1.04-.4.17-.5.21-.78.3-.8-.73c-.43-.42-.92-.88-1.45-1.42a61.8 61.8 0 0 1-10.53-14.54 41.48 41.48 0 0 1-1.8-4.03c-3.47-9.11.26-12.5 6.94-.49.38.65.74 1.33 1.09 1.95.6 1.12 1.17 2.19 1.7 3.24 2.42 4.6 4.56 9.36 6.43 14.21v-.01Z" fill="#8D78EF"/>
    <path d="m25.01 206.48-.4.17-.51.21c-3.24-4.7-9.46-13.68-11.22-16.79-2.43-4.28-1.62-6.78 2.04-.83 1.7 2.77 4.53 7.38 6.93 11.54 1.23 2.13 2.34 4.13 3.16 5.7Z" fill="#7460E4"/>
    <path d="M27.97 178.92a52.3 52.3 0 0 1 .92 9.42 86.2 86.2 0 0 1-1.7 17.1l-.2.1-.59.3-.2.1-.35.16-.46.2-.11.06-.15.07h-.03v-.13l-.18-.99c-.73-4.06-2.03-11.1-3.1-17.53-.2-1.21-.4-2.4-.57-3.54l-.15-.94c-1.65-10.4 4.1-17.88 6.86-4.39Z" fill="#8D78EF"/>
    <path d="M26.74 187.9c.32 6.02.14 12.05-.54 18.04l-.35.16-.45.2-.65-8.08c-.33-4.11-.65-8.28-.79-10.58-.46-7.33 2.28-7.16 2.77.25Z" fill="#7460E4"/>
    <path d="M38.92 187.78c-1.74 5.88-5.23 11.59-7.77 15.22-.49.34-.99.65-1.5 1l-.06.04-1.35.81h-.03l-.56.3.23-1.03c1.07-4.9 3.32-14.47 5.68-20.58.21-.55.44-1.06.65-1.52.17-.35.35-.65.53-.96 3.17-5.23 6.74-2 4.19 6.72h-.01Z" fill="#8D78EF"/>
    <path d="M36.19 190.3c-1.35 4.38-4.35 9.94-6.53 13.7l-.06.04c-.46.3-.92.57-1.38.84 1.22-3.7 3.17-9.71 4.53-14.34 2.13-7.18 5.69-7.5 3.44-.23Z" fill="#7460E4"/>
    <path d="M22.53 206.42c-2.47-4.79-9.2-15.97-13.82-20l-.05-.04c-1.37-1.19-2.55-1.75-3.5-1.68-.24.01-.47.08-.69.18a1.46 1.46 0 0 0-.87 1.14c-.65 4.19 13.81 17.65 18.2 21.63.38-.1.76-.23 1.16-.37l-.43-.86Zm-9.06-7.54c-8.04-8.24-9.49-11.5-9.3-12.78.03-.16.08-.3.18-.43.1-.12.22-.22.37-.28a2.07 2.07 0 0 1 1.77.18c1.02.55 1.94 1.26 2.73 2.1 4.11 4.13 9.16 12.52 11.85 17.36.54.96.98 1.77 1.3 2.39a241.24 241.24 0 0 1-8.88-8.55h-.02ZM20.37 182.24c-.84-1.62-1.72-2.6-2.63-2.87-.23-.07-.47-.1-.7-.08a1.42 1.42 0 0 0-1.26.74c-.74 1.29-.2 4.28.94 7.87 1.47 4.38 3.17 8.68 5.11 12.88a176.1 176.1 0 0 0 2.76 5.87l.4-.17.1-.04h.03l-.06-.12a217.04 217.04 0 0 1-4.84-10.7c-.7-1.66-1.3-3.15-1.79-4.49-2.64-7.2-2.68-9.87-2.13-10.83.08-.14.2-.25.33-.33.14-.08.3-.13.46-.13a2.04 2.04 0 0 1 1.58.82c1.2 1.3 2.27 3.96 3.19 7.12 1.85 6.42 3.05 14.94 3.45 18.58l.12-.05.45-.21c-.18-1.87-.56-4.73-1.1-7.88-.84-4.78-2.06-10.25-3.5-13.98-.26-.68-.56-1.35-.9-2ZM33.9 178.76a1.8 1.8 0 0 0-.56-.43 1.45 1.45 0 0 0-1.43.04c-1.3.75-2.31 3.69-3.12 7.44-1.44 6.72-2.15 16.06-2.4 20.06l.58-.3c.18-2.54.51-6.94 1.06-11.44.28-2.22.56-4.13.84-5.77 1.2-6.82 2.44-8.98 3.34-9.5a.85.85 0 0 1 .45-.13c.16 0 .31.04.45.13.26.16.48.38.65.63.16.26.27.56.31.86.13.56.18 1.14.17 1.72 0 5.59-4.05 16.53-6.34 22.1l-.51 1.19.27-.16.56-.3h.03c2.33-5.5 6.3-16.63 6.55-22.36.03-.49.03-.97 0-1.46a3.93 3.93 0 0 0-.9-2.33Z" fill="#fff"/>
    <path d="M-2.18 198.02a.27.27 0 0 1-.12-.03.2.2 0 0 1-.08-.1.25.25 0 0 1-.02-.12.2.2 0 0 1 .06-.11 16.25 16.25 0 0 0 3.76-5.5.2.2 0 0 1 .1-.1c.06-.03.11-.03.16 0 .06.02.1.05.12.1a.2.2 0 0 1 0 .16 16.25 16.25 0 0 1-3.89 5.66.27.27 0 0 1-.1.05l.01-.01Z" fill="#4035A6"/>
    <path d="M2.19 183.4a2.2 2.2 0 0 1-3.59-2.53 2.21 2.21 0 0 1 3-.44 2.2 2.2 0 0 1 .58 2.98h.01Z" fill="#8D78EF"/>
    <path d="M2.54 181.69a1.64 1.64 0 0 1-2.75-1.67 2.14 2.14 0 0 1 1.88.32c.45.32.77.8.88 1.35h-.01Z" fill="#B6AAFF"/>
    <path opacity=".26" d="M1.55 184.02a2.2 2.2 0 0 1-2.72-.36 2.19 2.19 0 0 1-.25-2.73 3.24 3.24 0 0 0 2.97 3.09Z" fill="#8D78EF"/>
    <path d="M3.81 191.54c-.09.25-.23.46-.4.66a1.8 1.8 0 0 1-2.96-1.9v-.08c.16-.38.44-.7.8-.9a1.78 1.78 0 0 1 2.1.2 1.81 1.81 0 0 1 .48 2.06l-.01-.03Z" fill="#8D78EF"/>
    <path d="M3.78 190.1a1.35 1.35 0 0 1-2.52-.8 1.77 1.77 0 0 1 1.44-.15c.23.08.45.2.63.36.19.17.34.37.45.6Z" fill="#B6AAFF"/>
    <path opacity=".26" d="M3.4 192.16a1.8 1.8 0 0 1-2.95-1.9 2.67 2.67 0 0 0 2.96 1.9Z" fill="#8D78EF"/>
    <path d="M39.95 169.8c.1.19.18.36.25.54a56.72 56.72 0 0 1-4.33-1.8l-.49-.24a95.16 95.16 0 0 1-8.03-4.3l-.45-.28a111.29 111.29 0 0 1-8.3-5.48.25.25 0 0 1-.04-.08v-.08c0-.03.02-.05.04-.07a.2.2 0 0 1 .14-.09.2.2 0 0 1 .16.05c.04.04 2.07 1.52 5.17 3.52l.43.28c2 1.3 4.42 2.72 7.03 4.12l.4.22a71.9 71.9 0 0 0 8.02 3.7Z" fill="#4035A6"/>
    <path d="M27.35 164c-1.98.83-4.1 1.3-6.26 1.34a.25.25 0 0 1-.13-.07.22.22 0 0 1-.05-.14c0-.05.02-.1.05-.14a.18.18 0 0 1 .13-.07c2.1-.04 4.16-.48 6.08-1.3h.16c.06.03.1.07.12.12.02.05.02.1 0 .14a.24.24 0 0 1-.1.11ZM24.43 161.92a.2.2 0 0 1-.09 0l-.08-.01a.33.33 0 0 1-.07-.04.2.2 0 0 1-.05-.07 22.16 22.16 0 0 0-.85-4.9l-.01-.09.02-.07a.15.15 0 0 1 .05-.06.22.22 0 0 1 .23-.02c.06.02.1.06.1.12.47 1.6.76 3.26.85 4.92 0 .05 0 .1-.02.13a.2.2 0 0 1-.1.1l.02-.01ZM31.86 166.23h-.1l-.08-.01a.22.22 0 0 1-.13-.2 13.59 13.59 0 0 0-1.12-5.62v-.08a.19.19 0 0 1 .04-.08.22.22 0 0 1 .07-.05.17.17 0 0 1 .08-.02l.1.01.06.05a13.76 13.76 0 0 1 1.14 5.92.28.28 0 0 1-.07.08h.01ZM35.78 168.61a16.1 16.1 0 0 1-5.83.92.19.19 0 0 1-.14-.06.23.23 0 0 1-.06-.15c0-.05.02-.1.06-.14.04-.04.1-.07.14-.07 1.94.05 3.87-.26 5.7-.9.05 0 .11 0 .16.02.05.03.09.07.1.13.02.05.01.1-.01.16a.19.19 0 0 1-.12.1Z" fill="#4035A6"/>
    <path d="M18.65 156.2c.22.13.4.3.54.5a1.79 1.79 0 0 1-.2 2.24 1.8 1.8 0 0 1-2.21.32l-.07-.04a1.82 1.82 0 0 1-.82-1.68 1.85 1.85 0 0 1 .7-1.27 1.8 1.8 0 0 1 2.07-.09v.01Z" fill="#8D78EF"/>
    <path d="M17.24 155.96a1.36 1.36 0 0 1 .33 1.7 1.37 1.37 0 0 1-1.63.63c-.07-.24-.1-.49-.09-.74a1.77 1.77 0 0 1 .72-1.27c.2-.15.42-.26.67-.32Z" fill="#B6AAFF"/>
    <path opacity=".26" d="M19.19 156.71a1.8 1.8 0 0 1-.2 2.23 1.8 1.8 0 0 1-2.21.32 2.67 2.67 0 0 0 2.41-2.55Z" fill="#8D78EF"/>
    <path d="M24.7 154.81c.1.22.15.45.15.69a1.7 1.7 0 0 1-2.45 1.57 1.7 1.7 0 0 1-.79-.86v-.06a1.64 1.64 0 0 1-.08-1.11 1.67 1.67 0 0 1 .96-1.1 1.68 1.68 0 0 1 2.22.86v.01Z" fill="#8D78EF"/>
    <path d="M23.72 153.9c.06.28.01.55-.1.8-.13.25-.32.46-.57.59a1.3 1.3 0 0 1-1.52-.24 1.67 1.67 0 0 1 .96-1.1c.4-.18.83-.2 1.23-.05Z" fill="#B6AAFF"/>
    <path opacity=".26" d="M24.84 155.5a1.68 1.68 0 0 1-3.23.71 2.47 2.47 0 0 0 3.23-.72Z" fill="#8D78EF"/>
    <path d="M20.42 163.28a1.65 1.65 0 0 1 1.34 1.1A1.67 1.67 0 0 1 20 166.6h-.07a1.72 1.72 0 0 1-1.12-.66 1.66 1.66 0 0 1-.3-1.27c.07-.43.3-.81.66-1.07a1.68 1.68 0 0 1 1.27-.32Z" fill="#8D78EF"/>
    <path d="M19.12 163.61c.26.1.48.28.62.52a1.31 1.31 0 0 1-.12 1.53c-.18.22-.42.36-.7.42a1.75 1.75 0 0 1-.42-1.4c.06-.42.28-.8.62-1.07Z" fill="#B6AAFF"/>
    <path opacity=".26" d="M21.07 163.51a1.7 1.7 0 0 1 .69 1.98 1.67 1.67 0 0 1-1.77 1.12 2.5 2.5 0 0 0 1.08-3.1Z" fill="#8D78EF"/>
    <path d="M32.04 158.83a1.68 1.68 0 0 1-.11 1.72 1.7 1.7 0 0 1-2 .6c-.36-.13-.66-.39-.85-.72v-.06a1.71 1.71 0 0 1 .13-1.77 1.63 1.63 0 0 1 1.77-.61 1.61 1.61 0 0 1 1.05.85v-.01Z" fill="#8D78EF"/>
    <path d="M30.98 157.98a1.25 1.25 0 0 1-1.34 1.69 1.24 1.24 0 0 1-.75-.4 1.73 1.73 0 0 1 .87-1.16c.37-.2.81-.25 1.22-.13Z" fill="#B6AAFF"/>
    <path opacity=".26" d="M32.22 159.49a1.69 1.69 0 0 1-3.14.95 2.47 2.47 0 0 0 3.14-.95Z" fill="#8D78EF"/>
    <path d="M29.02 167.97c.23-.04.46-.04.7 0a1.67 1.67 0 0 1 1.27 1.66 1.7 1.7 0 0 1-1.33 1.63h-.06a1.67 1.67 0 0 1-1.7-2.64c.13-.18.3-.34.5-.46.19-.1.4-.19.62-.22v.03Z" fill="#8D78EF"/>
    <path d="M27.9 168.71a1.26 1.26 0 0 1 .6 2.4 1.66 1.66 0 0 1-.82-1.07 1.67 1.67 0 0 1 .22-1.33Z" fill="#B6AAFF"/>
    <path opacity=".26" d="M29.71 168a1.68 1.68 0 0 1 .9 2.7c-.24.3-.57.5-.95.58a2.47 2.47 0 0 0 .04-3.28h.01Z" fill="#8D78EF"/>
    <g opacity=".67">
      <path opacity=".25" d="M43.06 181.42c.38 7.53-2.69 15.2-11.9 21.59l-1.5 1-.06.03a37 37 0 0 1-1.35.81h-.03c-.19.11-.37.22-.56.31l-.27.15-.2.11-.2.1-.58.3-.2.1-.36.16-.45.21-.12.06-.15.06h-.03l-.1.04-.4.17-.5.21-.78.3-.36.12a24.59 24.59 0 0 1-11.44 1.28c-.28 0-.54-.06-.81-.11a24.68 24.68 0 0 1-10.77-4.56 29.38 29.38 0 0 1-5.67-5.48l-.44-.58-.76-1.04-.86-1.29a33.28 33.28 0 0 1-3.33-7.05c-3.6-10.63-3.96-23.82-.3-33.66l.6-1.5c.22-.5.4-.92.65-1.36l.06-.18c.1-.22.2-.43.32-.65l.14-.24v-.07l.09-.16.13-.24.12-.2.25-.43c.1-.13.06-.1.1-.15l.17-.28.08-.13.09-.12.1-.17.05-.07.6-.86.07-.1.33-.42.1-.12.24-.3.37-.44.26-.29.35-.37.23-.23c.6-.6 1.22-1.15 1.89-1.66-.98 9.3-1.5 26.02 5.57 40 9.2 18.27 31.84 11.43 41.52-2.6Z" fill="#3B8FA3"/>
    </g>
    <path d="M68.74 171.65c-.68.9-1.33 1.87-1.91 2.91-.52-.84-.94-1.74-1.23-2.67.68-.94 1.41-1.8 2.18-2.58.23.81.56 1.6.97 2.34Z" fill="#8CCBE4"/>
    <path d="M77.95 188.48a17 17 0 0 1-2.64 3.3c-3.6 3.5-8.84 5.31-16.21 3.72-10.75-2.32-15.47-10.99-15.08-20.06a25.84 25.84 0 0 1 2.14-9.19 42.68 42.68 0 0 1 8.05-12.08 35.7 35.7 0 0 1 2.78-2.61 25 25 0 0 1 8.16-4.8 13.36 13.36 0 0 1 7.62-.35c2.8.78 4.86 2.9 6.33 5.77 1.35 2.59 2.22 5.8 2.73 9.18a57.82 57.82 0 0 1-.2 17.12 28 28 0 0 1-3.68 10Z" fill="#FDADCA"/>
    <path d="M81.82 161.35c-3.94.18-14.69-.31-24.84-9.8a24.91 24.91 0 0 1 8.17-4.8c2.05 1.94 6.57 5.13 13.96 5.42a29.38 29.38 0 0 1 2.71 9.18Z" fill="#71C2DB"/>
    <path d="M81.9 176.78a67.17 67.17 0 0 1-20.9-4.73c-7.66-3.2-11.72-6.44-13.6-8.33a45.21 45.21 0 0 1 2.65-4.39 41.75 41.75 0 0 1 4.18-5.18c1.5 1.6 5.48 5.01 14.43 8.12 6.52 2.25 10.93 2.97 13.62 3.2a64.53 64.53 0 0 1 .08 6.28 54.4 54.4 0 0 1-.45 5.03Z" fill="#EF95BA"/>
    <path d="M63.8 169.84s-2.59-5.3-.86-5.86c1.5-.48 1.52 3.36 1.52 3.36s2.03-3.19 3.15-2.1c1.26 1.2-3.81 4.6-3.81 4.6ZM71.35 172.52s-2.58-5.3-.86-5.86c1.5-.5 1.53 3.4 1.53 3.4s2.03-3.2 3.15-2.11c1.25 1.17-3.82 4.57-3.82 4.57ZM55.5 166.36s-1.71-5.69.07-5.93c1.56-.22.98 3.6.98 3.6s2.5-2.77 3.45-1.5c1.02 1.37-4.5 3.82-4.5 3.82ZM48.82 162.18l-.17-.7c.45-.73.91-1.45 1.4-2.15-.05.35-.1.57-.1.57s2.62-2.65 3.51-1.34c.97 1.43-4.65 3.62-4.65 3.62ZM82.34 171.76c-.6.77-1.22 1.5-1.88 2.2 0 0-3.52-4.64-1.95-5.57 1.38-.8 2.13 2.98 2.13 2.98s.8-2.02 1.74-2.66c.02 1.04 0 2.06-.04 3.05Z" fill="#F1D961"/>
    <path d="M75.04 181.89a7.1 7.1 0 0 0-7.65.36 8.17 8.17 0 0 0-.62-2.71 6.22 6.22 0 0 0-4.03-3.49 7.8 7.8 0 0 0-7.15 1.05c-.49.34-.96.73-1.39 1.17a9.94 9.94 0 0 0-1.54-3.63 5.46 5.46 0 0 0-2.17-1.82c-.85-.4-1.79-.55-2.72-.44a5.81 5.81 0 0 0-3.63 1.56c-.06.5-.1 1-.12 1.5l.2-.25a4.85 4.85 0 0 1 3.65-1.87c.77-.1 1.56.01 2.3.34.72.33 1.35.86 1.83 1.54a9.47 9.47 0 0 1 1.5 3.87 9.3 9.3 0 0 0-2.03 4.29c-.25 2.15.09 3.62.93 3.82.49.13 1.2-.14 1.82-2.1.38-1.2.56-3.45.22-5.73a9.49 9.49 0 0 1 1.65-1.48 7.02 7.02 0 0 1 6.4-.93 5.37 5.37 0 0 1 3.48 2.98c.38.93.58 1.93.56 2.94a9.4 9.4 0 0 0-3.24 4.79c-.48 1.94-.27 3.26.55 3.57h.02c.76.25 1.61-.53 2.24-2.07.75-1.84 1.19-3.81 1.3-5.82.42-.31.86-.58 1.33-.8a6.26 6.26 0 0 1 5.9.2c2.5 1.38 2.7 4.53 2.28 7.23.37-.48.71-.97 1.02-1.48.14-3.18-.84-5.44-2.9-6.59h.01Zm-21.64 2.87c-.43 1.34-.8 1.5-.8 1.5-.14-.07-.49-.9-.26-2.8.2-1.14.67-2.2 1.34-3.13.17 1.49.08 3-.28 4.44v-.01Zm11.89 4.02c-.54 1.31-1.07 1.59-1.18 1.56-.14-.05-.4-.75.01-2.45a8.33 8.33 0 0 1 2.34-3.76 18.3 18.3 0 0 1-1.17 4.66Z" fill="#71C2DB"/>
    <path d="M63.76 151.18c-.08.25-.22.48-.42.64a1.2 1.2 0 0 1-1.4.13 1.3 1.3 0 0 1-.51-.57c-.11-.23-.16-.5-.14-.77.03-.27.13-.52.3-.72.16-.2.37-.35.61-.43.24-.08.5-.07.74 0a1.24 1.24 0 0 1 .74.67 1.49 1.49 0 0 1 .08 1.04ZM68.37 154.38c-.07.25-.22.48-.41.65a1.2 1.2 0 0 1-1.4.12c-.23-.13-.4-.32-.52-.56a1.42 1.42 0 0 1 .16-1.5 1.22 1.22 0 0 1 1.34-.41 1.3 1.3 0 0 1 .74.66 1.45 1.45 0 0 1 .08 1.03h.01ZM74.38 156.53c-.08.25-.22.48-.42.65a1.2 1.2 0 0 1-1.4.12c-.22-.13-.4-.32-.52-.56a1.42 1.42 0 0 1 .16-1.5c.16-.2.37-.36.61-.43.24-.08.5-.07.74 0 .32.12.58.36.73.67.16.32.19.7.09 1.04ZM79.54 157.32c-.08.26-.23.48-.43.65a1.2 1.2 0 0 1-1.4.12c-.22-.13-.4-.33-.5-.57a1.43 1.43 0 0 1 .17-1.5c.16-.2.38-.34.62-.41.24-.08.5-.07.73.01.32.12.58.36.73.67.15.32.18.7.08 1.03Z" fill="#8D78EF"/>
    <path opacity=".22" d="M75.3 191.77c-3.6 3.5-8.84 5.32-16.2 3.73-10.74-2.32-15.46-10.99-15.07-20.06a25.84 25.84 0 0 1 2.14-9.19 42.68 42.68 0 0 1 8.05-12.08 35.7 35.7 0 0 1 2.78-2.61 25 25 0 0 1 8.16-4.8c2.2-.77 4.53-.96 6.8-.54a46.28 46.28 0 0 0-15.38 19.24c-6.24 14.45 2.69 29.28 18.72 26.31Z" fill="#8D78EF"/>
    <path d="M4.83 186.34a70.81 70.81 0 0 1-2.89 11.29c-1.06-.2-2.1-.47-3.16-.7l-.53-.12-.98-.2a69.96 69.96 0 0 1-1.8-13.9c-.02-1.7.03-3.44.19-5.17.27-2.94.84-5.9 1.83-8.7 1.21-3.43 4.52-3.85 6.16-1.34a5.06 5.06 0 0 1 .67 1.5c1.12 3.91 1.79 9.6.52 17.34Z" fill="#318650"/>
    <path d="M1.49 165.95s-.6 20.53-1.88 31.48" stroke="#8CC180" stroke-miterlimit="10" stroke-linecap="round"/>
    <path opacity=".25" d="m-.33 197.13-.89-.2c-.18-.05-.35-.09-.53-.12l-.98-.2a69.94 69.94 0 0 1-1.8-13.9c.61 1.16 9.1 11.08 8.74-14.08l.11.37c1.12 3.91 1.8 9.6.52 17.34a70.81 70.81 0 0 1-2.9 11.29c-.76-.14-1.52-.32-2.27-.5" fill="#0C3A25"/>
    <path opacity=".25" d="M-4.34 177.54c.27-2.94.84-5.9 1.83-8.7 1.21-3.43 4.52-3.85 6.16-1.34.28 8.48-7.49 9.96-7.99 10.04Z" fill="#61B27D"/>
    <path d="m38.94 197.2.73-.16a164 164 0 0 0 3.9-.87c3.52-.85 6.75-1.75 9.62-2.72a26.81 26.81 0 0 0 3.92-8.4c.37-1.3.68-2.7.9-4.18.3-2.13.44-4.46.36-7v-.22a2.83 2.83 0 0 0-.04-.33 4.68 4.68 0 0 0-.1-.53l-.04-.12a3.43 3.43 0 0 0-.12-.37l-.07-.18-.05-.1a2.41 2.41 0 0 0-.08-.17l-.13-.24a2.07 2.07 0 0 0-.21-.32l-.12-.16c-.16-.2-.34-.37-.52-.52l-.14-.1-.19-.13a5.33 5.33 0 0 0-.17-.1l-.07-.04-.28-.13a2.43 2.43 0 0 0-1.31-.13c-.04 0-.07.01-.1.03a2.24 2.24 0 0 0-.7.27c-1.3.73-2.8 1.76-4.36 3.19a30.67 30.67 0 0 0-7.55 11.25 43.42 43.42 0 0 0-1.8 5.57c-.54 2.1-.97 4.4-1.27 6.9Z" fill="#318650"/>
    <path d="m56.8 170.43-.06.07-.35.57c-.85 1.35-2.92 4.72-5.2 8.77-1.8 3.23-3.75 6.9-5.3 10.34a50.5 50.5 0 0 0-2.32 5.99" stroke="#8CC180" stroke-miterlimit="10" stroke-linecap="round"/>
    <path opacity=".25" d="m38.94 197.2.73-.16c1.34-.28 2.64-.58 3.9-.87 3.52-.85 6.75-1.75 9.62-2.72a26.81 26.81 0 0 0 3.7-7.67l.23-.73c-.34.24-6.86 4.92-11.23 5.13-2.46.12-4.24-1.17-3.87-5.46a43.28 43.28 0 0 0-1.8 5.57c-.54 2.1-.97 4.39-1.27 6.9Z" fill="#0C3A25"/>
    <path opacity=".25" d="M58 180.87c.32-2.13.45-4.46.37-7-.09-2.84-2.46-4.72-4.45-3.6-1.29.74-2.8 1.77-4.36 3.2-4.38 7.97 8.22 7.4 8.45 7.4Z" fill="#61B27D"/>
    <path d="M33.6 191.2c.5 2.02 1.21 4.21 2.21 6.61l2.1-.4 1.03-.22.73-.15a45.1 45.1 0 0 0 .48-8.82 30.96 30.96 0 0 0-.38-3.53c-.34-2-.9-4-1.75-5.88-1.04-2.28-3.43-2.4-4.49-.59a3.43 3.43 0 0 0-.41 1.07c-.61 2.74-.82 6.67.48 11.92Z" fill="#318650"/>
    <path d="M35.02 177.04a383.76 383.76 0 0 0 1.66 13.32c.37 2.56.8 5.06 1.22 7.05" stroke="#8CC180" stroke-miterlimit="10" stroke-linecap="round"/>
    <path opacity=".25" d="M33.6 191.2c.5 2.02 1.21 4.21 2.21 6.61l2.1-.4 1.03-.22.73-.15a45.1 45.1 0 0 0 .48-8.82c-.2.43-1.83 2.63-3.48 2.14-1.5-.44-3.02-3.1-3.48-11.33l-.07.26c-.61 2.74-.82 6.67.48 11.92Z" fill="#0C3A25"/>
    <path opacity=".25" d="M39.77 184.68c-.34-2-.89-4-1.74-5.87-1.04-2.28-3.44-2.4-4.5-.59.21 5.83 5.87 6.43 6.24 6.46Z" fill="#61B27D"/>
    <path d="M14.94 191.99c-.21.91-.7 2-1.4 3.07-.63.94-1.34 1.73-2.01 2.28-.96.78-1.86 1.1-2.4.74-.44-.3-.55-1.02-.37-1.95.04-.2.1-.4.16-.61.25-.82.7-1.75 1.3-2.66 1.5-2.27 3.48-3.63 4.4-3.02.48.32.57 1.13.33 2.15ZM8.56 196.83c-.14.63-.4 1.03-.77 1.16-.56.2-1.3-.26-2.09-1.2a10.71 10.71 0 0 1-1.2-1.7v-.03a1189.12 1189.12 0 0 1-2.87-6.53c-1.51-4.82-1.7-8.93-.35-9.39.26-.09.56-.04.9.15 1.46.8 3.48 4.13 4.95 8.38a27.79 27.79 0 0 1 1.55 7.11c.04.82 0 1.51-.12 2.05Z" fill="#F7F8EF"/>
    <path opacity=".35" d="M8.56 196.83c-.14.63-.4 1.03-.77 1.16-.56.2-1.3-.26-2.09-1.2l-2.32-5.47s3.66 3.44 3.74-3.65a27.28 27.28 0 0 1 1.56 7.11c.04.82 0 1.51-.12 2.05ZM14.94 192c-.21.9-.7 1.99-1.4 3.06-1.52 2.28-3.49 3.63-4.4 3.02-.55-.36-.6-1.34-.22-2.56.38-.16.88-.26 1.52-.26 0 0 .98 1.04 4.5-3.26Z" fill="#C2CFD5"/>
    <path d="m7.2 198.23-.06.05c-.81.82-3.53-.55-6.28-3.1l-.04-.05-.64-.61-.45-.46-.47-.51c-2.38-2.65-3.63-5.2-2.84-6a.81.81 0 0 1 .44-.2c.41-.08.98.05 1.65.35.5.22 1.05.53 1.64.92 1.01.68 2.13 1.6 3.23 2.7 2.02 2.02 3.45 4.11 3.87 5.52.18.61.17 1.1-.06 1.38Z" fill="#F7F8EF"/>
    <path opacity=".35" d="m7.2 198.23-.06.05c-.81.82-3.53-.55-6.28-3.1l-.04-.05-.64-.61-.45-.46h.01C6.4 197-1.3 187.9-1.48 187.7c.5.21 1.04.53 1.63.92 1.02.68 2.14 1.6 3.23 2.7 2.02 2.02 3.45 4.11 3.87 5.52.18.6.18 1.09-.06 1.38Z" fill="#C2CFD5"/>
    <path d="M11.5 192a20.26 20.26 0 0 1-.31 1.18c-.9 3.06-2.37 5.27-3.37 5-.22-.06-.4-.23-.55-.5a2.5 2.5 0 0 1-.18-.52 9.2 9.2 0 0 1-.04-3.36 18.48 18.48 0 0 1 .66-2.93c.7-2.27 1.7-4.02 2.57-4.6.26-.17.5-.23.73-.17 1 .27 1.19 2.85.49 5.9Z" fill="#F7F8EF"/>
    <path opacity=".35" d="M11.5 192a21.68 21.68 0 0 1-.31 1.18c-.9 3.06-2.37 5.27-3.37 5-.22-.06-.4-.23-.55-.5a2.52 2.52 0 0 1-.18-.52c-.21-.8-.23-1.98-.04-3.36a18.56 18.56 0 0 1 .66-2.93c.12.22 1.46 7.08 3.65 1.26.03-.06.1-.09.14-.12Z" fill="#C2CFD5"/>
    <path d="M47.86 188.83c.17.72.56 1.58 1.12 2.43.5.74 1.05 1.37 1.58 1.8.76.62 1.46.87 1.89.59.35-.24.44-.81.3-1.54a8.35 8.35 0 0 0-1.15-2.59c-1.2-1.8-2.76-2.87-3.48-2.39-.38.26-.45.9-.26 1.7ZM52.9 192.66c.12.5.32.81.61.92.44.15 1.03-.21 1.66-.95a9.08 9.08 0 0 0 .94-1.34v-.03a826.35 826.35 0 0 0 2.27-5.16c1.2-3.8 1.34-7.05.28-7.42-.2-.07-.45-.03-.7.11-1.17.64-2.77 3.27-3.93 6.63a22 22 0 0 0-1.2 5.4c-.02.07-.02.15-.03.22-.03.65 0 1.2.1 1.62Z" fill="#F7F8EF"/>
    <path opacity=".35" d="M52.9 192.66c.12.5.32.81.61.92.44.15 1.03-.21 1.66-.95.87-2.08 1.83-4.32 1.83-4.32s-2.9 2.72-2.96-2.89a21.57 21.57 0 0 0-1.23 5.62c-.03.65 0 1.2.1 1.62ZM47.86 188.83c.17.72.56 1.58 1.12 2.43 1.2 1.8 2.75 2.87 3.47 2.39.43-.29.47-1.06.17-2.03-.3-.13-.7-.2-1.2-.2 0 0-.78.82-3.56-2.58Z" fill="#C2CFD5"/>
    <path d="M53.99 193.76a.2.2 0 0 0 .04.05c.64.64 2.8-.44 4.96-2.45l.04-.04.5-.48.36-.36.37-.4c1.88-2.1 2.87-4.12 2.25-4.75a.63.63 0 0 0-.36-.17c-.32-.05-.77.05-1.3.29-.39.17-.83.42-1.29.73-.8.53-1.69 1.26-2.55 2.13-1.6 1.6-2.73 3.25-3.06 4.37-.15.48-.14.86.04 1.09Z" fill="#F7F8EF"/>
    <path opacity=".35" d="M53.99 193.76a.2.2 0 0 0 .04.05c.64.64 2.8-.44 4.96-2.45l.04-.04.5-.48.36-.37h-.01c-5.25 2.32.83-4.87.97-5.03-.4.18-.83.42-1.3.73a17.1 17.1 0 0 0-2.55 2.14c-1.6 1.6-2.72 3.25-3.05 4.36-.15.48-.14.86.04 1.1Z" fill="#C2CFD5"/>
    <path d="M50.59 188.84a11.74 11.74 0 0 0 .24.93c.71 2.42 1.87 4.17 2.67 3.96.17-.05.32-.19.43-.4.06-.12.1-.26.15-.41a7.3 7.3 0 0 0 .02-2.66 14.44 14.44 0 0 0-.52-2.31c-.55-1.8-1.34-3.18-2.02-3.63-.21-.14-.4-.19-.58-.14-.8.2-.94 2.24-.39 4.66Z" fill="#F7F8EF"/>
    <path opacity=".35" d="M50.59 188.84a12.1 12.1 0 0 0 .24.93c.71 2.42 1.87 4.17 2.67 3.96.17-.05.32-.19.43-.4.06-.12.1-.26.15-.41a7.3 7.3 0 0 0 .02-2.66 14.44 14.44 0 0 0-.52-2.31c-.1.18-1.15 5.6-2.88 1-.02-.05-.08-.08-.1-.1h-.01Z" fill="#C2CFD5"/>
    <path d="M53.74 194s-4.12-2.36-1.2-2.72c2.57-.32 1.2 2.72 1.2 2.72Z" fill="#318450"/>
    <path d="M55.9 192.15c-.15.33-.58.7-1.15 1.18l-.33.15-.57.26-.3.14h-.01l-.84.37-.04.02.01-.03.36-.7.15-.27c0-.02.02-.03.03-.05.24-.41.52-.87.83-1.24.45-.53.92-.89 1.33-.68.24.11.4.23.5.36.11.16.12.32.03.5Z" fill="#318450"/>
    <path d="M55.33 194.03a.42.42 0 0 1-.16.11 3.6 3.6 0 0 1-2.25.17 2.75 2.75 0 0 1-.22-.06h-.03l-.17-.05-.05-.02-.03-.01-.03-.01a4.79 4.79 0 0 1-1.18-.62c-.28-.2-.52-.4-.69-.58-.21-.22-.33-.44-.33-.6 0-.04 0-.08.03-.12.14-.25.76-.18 1.48.14a5.65 5.65 0 0 1 1.27.8l.23.03h.01l.11.03.57.12.08.01.46.11c.6.16 1.08.34.9.55Z" fill="#318450"/>
    <path d="M57.27 192.74a5.6 5.6 0 0 1-1.93 1.28c-.88.35-1.63.4-1.79.1a.34.34 0 0 1-.01-.24c.04-.16.16-.34.35-.53l.1-.1c.13-.12.28-.24.45-.35l.1-.08c.2-.12.4-.24.63-.35l.01-.01c.25-.12.5-.23.72-.3.77-.27 1.4-.3 1.55 0 .07.14 0 .35-.18.58Z" fill="#318450"/>
    <path opacity=".25" d="M57.27 192.74a5.6 5.6 0 0 1-1.93 1.28.42.42 0 0 1-.17.12 3.6 3.6 0 0 1-2.25.17 2.74 2.74 0 0 1-.22-.06l-.04.02.01-.03-.17-.04-.04-.02-.04-.01a4.78 4.78 0 0 1-1.21-.63c.05 0 .73-.03 1.55-.19a8.88 8.88 0 0 0 1.8-.53c.22-.1.44-.22.62-.36.3-.22.55-.49.69-.8.12.15.12.31.04.5.77-.28 1.4-.3 1.55-.01.07.14 0 .35-.19.59Z" fill="#17592D"/>
    <path opacity=".25" d="M56.21 194.4s.8 2.6 4.12 2.81c.4.03.73-.19.97-.5.17-.22.78-.37 2.54-.11 3.53.5 8.7.8 8.43-.2-.27-1-.52-1.9-2.16-2.42-1.64-.53-13.9.43-13.9.43Z" fill="#428142"/>
    <path opacity=".25" d="M56.27 193.97s.75 2.1 3.75 2.32c.35.03.65-.14.87-.4.14-.16.69-.28 2.28-.05 3.19.45 7.84.76 7.58-.05-.25-.8-.49-1.54-1.97-1.99-1.48-.44-12.5.17-12.5.17Z" fill="#428142"/>
    <path d="M69.2 194.5a.85.85 0 0 1-.38.3l-3.15 1.28a.84.84 0 0 1-.64 0l-4.54-1.92a.86.86 0 0 1-.47-.5l-.13-.37c-.16-.42-.12-.89.11-1.27l.7-1.2 1.05-1.78c.09-.14.2-.27.33-.38l1.34-1.14a1.5 1.5 0 0 1 1.64-.19c.92.46 2.42 1.25 3.58 2.02.3.2.57.4.8.59h.01c.46.36.8.7.9 1 .41 1.13-.73 2.94-1.15 3.56Z" fill="#8CC180"/>
    <path opacity=".25" d="M69.2 194.5a.85.85 0 0 1-.38.3l-3.15 1.28a.84.84 0 0 1-.64 0l-4.54-1.92a.86.86 0 0 1-.47-.5l-.13-.37c-.16-.42-.12-.89.11-1.27-.03 2.2 4.35 1.88 4.35 1.88l.98 1.38 1.29-4.1 1.25-.04c.49-.02.94-.26 1.21-.67l.36-.53c.47.36.8.7.9 1 .42 1.13-.72 2.94-1.15 3.56Z" fill="#0C3A25"/>
    <path opacity=".25" d="M69.2 194.5a.86.86 0 0 1-.38.3l-3.15 1.28a.84.84 0 0 1-.64 0l-4.54-1.92a.86.86 0 0 1-.47-.5l-.13-.37c-.16-.42-.12-.89.11-1.27l.7-1.2s3.55 2.03 5.08.2c1.53-1.83 2.07-.03 2.68-.95.22-.34.25-.57.18-.72.3.2.57.4.8.58h.01c.46.37.8.71.9 1 .41 1.14-.73 2.95-1.15 3.56Z" fill="#2A5B3F"/>
    <path d="M60.99 194.58a.45.45 0 0 1-.2.16l-1.65.67a.43.43 0 0 1-.34 0l-2.38-1a.43.43 0 0 1-.25-.26l-.07-.2a.77.77 0 0 1 .06-.67l.16-.27.76-1.29c.05-.07.1-.14.17-.2l.71-.6c.24-.2.58-.24.86-.1a18.12 18.12 0 0 1 2.3 1.37c.25.2.42.38.48.53.21.6-.39 1.54-.6 1.86h-.01Z" fill="#5C9864"/>
    <path opacity=".25" d="M60.99 194.58a.45.45 0 0 1-.2.16l-1.65.67a.43.43 0 0 1-.34 0l-2.38-1a.43.43 0 0 1-.25-.26l-.07-.2a.77.77 0 0 1 .06-.67c-.01 1.16 2.29.99 2.29.99l.5.72.24-.5 1.93-2.3c.24.19.41.37.47.52.22.6-.38 1.55-.6 1.87Z" fill="#0C3A25"/>
    <path opacity=".25" d="M78.5 194.84c.07-.47-1.1-1.03-2.6-1.24-1.5-.2-2.78 0-2.85.48-.06.48 1.1 1.03 2.61 1.24 1.5.21 2.78 0 2.85-.48Z" fill="#428142"/>
    <path d="M76.22 194.65a.28.28 0 0 1-.14.07l-1.14.26a.28.28 0 0 1-.21-.04l-1.43-.9a.28.28 0 0 1-.13-.2l-.03-.13a.51.51 0 0 1 .11-.43l1.2-.7c.17-.1.73-.3.9-.17.36.26.87.32 1.22.7.13.15.23.29.24.4.08.4-.4.95-.59 1.13Z" fill="#5C9864"/>
    <path opacity=".25" d="M76.22 194.65a.29.29 0 0 1-.14.07l-1.14.26a.28.28 0 0 1-.21-.04l-1.43-.9a.28.28 0 0 1-.13-.2l-.03-.13a.51.51 0 0 1 .11-.43c-.13.75 1.37.89 1.37.89l.16.21.4-.82 1.4-.45c.13.15.22.29.24.4.07.4-.42.95-.6 1.13Z" fill="#0C3A25"/>
    <path d="M51.6 195.51a.29.29 0 0 1-.15.08l-1.14.26a.29.29 0 0 1-.21-.04l-1.43-.9a.28.28 0 0 1-.13-.2l-.03-.13a.5.5 0 0 1 .11-.43l1.2-.7c.17-.1.73-.3.9-.17.36.26.87.31 1.22.7.13.15.23.29.25.39.07.4-.42.96-.6 1.14Z" fill="#5C9864"/>
    <path opacity=".25" d="M51.6 195.51a.28.28 0 0 1-.15.08l-1.14.26a.28.28 0 0 1-.21-.04l-1.43-.9a.28.28 0 0 1-.13-.2l-.03-.13a.51.51 0 0 1 .11-.43c-.13.75 1.37.89 1.37.89l.16.2.4-.81 1.4-.45c.13.15.22.29.24.39.07.4-.42.96-.6 1.14Z" fill="#0C3A25"/>
    <path d="M30.93 201.7c-.1.4-.29.66-.53.74-.37.12-.84-.2-1.35-.82a7.25 7.25 0 0 1-.76-1.14v-.02c-.1-.24-1.55-3.76-1.75-4.29l-.01-.04c-.91-3.18-.96-5.88-.07-6.16.17-.05.37-.01.58.11.95.56 2.22 2.77 3.1 5.59.54 1.7.84 3.29.9 4.5v.19c.02.53-.02.99-.11 1.34Z" fill="#F7F8EF"/>
    <path d="M352.5 179.17a223.13 223.13 0 0 1-.55 11.36l-2.75.32-12.21 1.42-6.51.75-16.74 1.95-6.23.73s-.52-1.28-1.3-3.51l-.48-1.4-.53-1.58-.14-.43-.28-.88-.15-.46-.3-.94-.14-.5c-.7-2.3-1.45-4.93-2.17-7.79l-.3-1.2a169 169 0 0 1-.77-3.37l-.26-1.2-.27-1.36c-.1-.45-.18-.9-.27-1.36l-.12-.69-.25-1.4a118.91 118.91 0 0 1-.75-4.97l-.09-.74-.15-1.38a148.3 148.3 0 0 1-.28-2.97v-.02l-.07-1.02-.01-.15-.06-.97v-.05l-.06-1.2-.03-1-.02-1.1-.01-1.08v-.17c0-2.23.1-4.44.33-6.6.35-3.5 1.02-6.9 2.07-10.07 2.05-6.13 5.56-11.43 11.13-15.11a19.52 19.52 0 0 1 13.08-3.13c2.5.3 4.96 1.09 7.23 2.4 1.05.6 2.13 1.32 3.22 2.18 4.4 3.47 8.9 9.18 12.21 18.56 3.28 9.3 5.37 22.22 4.98 40.13Z" fill="#8CC180"/>
    <path opacity=".25" d="M352.5 179.17c-.06 3-.2 6.13-.41 9.4l-2.9 2.28-5.17 4.06-27.5 1.52-2.78-1.46-5.18-2.7-2.83-1.48-.53-1.58-.14-.43-.28-.88-.14-.46-.3-.94-.15-.49c-.7-2.3-1.45-4.94-2.16-7.8l-.3-1.2-.78-3.36-.26-1.22-.27-1.34-.26-1.37-.13-.68-.25-1.4-.44-2.8-.2-1.46-.1-.72-.1-.74-.15-1.38-.19-1.9-.09-1.07v-.01l-.07-1.03-.01-.15-.06-.97v-.05l-.06-1.2-.03-.99v-.01l-.02-1.1-.01-1.07v-.18c0-2.22.1-4.44.33-6.6 0 0 15.13 7.68 23.3-6.13 8.07-13.6 8.82-14.78 13.43-17.6 4.4 3.48 8.9 9.19 12.21 18.56 3.28 9.3 5.38 22.22 4.99 40.14l-.01-.01Z" fill="#428142"/>
    <path opacity=".25" d="M324.85 115.9s-5.03 5.53-8.1 12.93c-3.1 7.4-16.1 5.3-16.1 5.3 2.05-6.12 5.55-11.42 11.13-15.11a19.52 19.52 0 0 1 13.07-3.13Z" fill="#C0E5B5"/>
    <path opacity=".25" d="m352.5 179.17-15.51 13.1-1.12.94-5.39-.19-21.92-.75-2.35-.08a149.64 149.64 0 0 1-1-2.98l-.15-.43-.28-.88-.14-.46-.3-.94-.15-.5c-.7-2.3-1.45-4.93-2.16-7.79l-.3-1.2-.78-3.37-.26-1.2-.27-1.36-.26-1.36-.13-.69-.25-1.4c-.16-.92-.3-1.86-.44-2.8l-.2-1.46a140.12 140.12 0 0 1-.2-1.45l-.15-1.38-.19-1.9-.09-1.07v-.02l-.07-1.02-.01-.15-.06-.97v-.05l-.12-4.52v-.03s9.58 1.34 11.46 6.31c1.87 4.98 6.79 2.72 8.74-.84 1.95-3.57 13.74-16.84 24.62-19.3 1.76-.4 3.23.42 4.45 2.06 3.28 9.3 5.38 22.22 4.99 40.14l-.01-.01Z" fill="#428142"/>
    <path d="M326.4 181.2c-1.73.56-4.18.85-7.6.72-.72-.03-1.49-.07-2.3-.14-.71-.06-1.42-.1-2.12-.14l-1-.04c-3.8-.1-7.54.13-11.1.6a86.45 86.45 0 0 0-9.74 1.87 97.78 97.78 0 0 0-11.08 3.52l-.86.33c-4.2 1.67-6.7 3-6.7 3s.8-4.5 2.64-10.43a74.37 74.37 0 0 1 3.15-8.55c.05-.13.1-.27.17-.4l.17-.4.41-.9a46.93 46.93 0 0 1 1.51-3.02l.6-1.1c3.18-5.6 7.33-10.47 12.68-12.46a15.16 15.16 0 0 1 4.2-.91c1.21-.1 2.48-.03 3.8.19a20.27 20.27 0 0 1 5.8 1.9c.46.23.93.47 1.41.74h.02c1.3.71 2.63 1.57 4 2.58 3.84 2.83 8 6.86 12.52 12.37 0 0 7.3 8.15-.59 10.68Z" fill="#8FBC6C"/>
    <g opacity=".8" fill="#088465">
      <path opacity=".8" d="M326.4 181.2c-1.73.56-4.18.84-7.6.72a41.6 41.6 0 0 1-.77-5.37c-.91-10.36-14.75-23.43-14.75-23.43l-.06-.19a20.34 20.34 0 0 1 5.8 1.9 33 33 0 0 1 1.42.75h.01l.02.02c7.58 6.52 13.98 20.94 15.92 25.61ZM302.28 182.2c-3.44.45-6.72 1.1-9.74 1.87-8.81-6.02-14.15-8.97-14.15-8.97a66.05 66.05 0 0 1 4.16-8.98c18.18 8.12 25.28 15.53 25.28 15.53s-1.98 0-5.55.55ZM284.27 186.56a81.04 81.04 0 0 0-10.37 4.36s.79-4.5 2.64-10.44c1.99.5 7.53 5.38 7.53 5.38l.2.7Z"/>
    </g>
    <path opacity=".8" d="m314.38 181.64-1-.03c-.21-.82-.48-2.04-.8-3.77-2.2-11.94-17.36-24.18-17.36-24.18a15.15 15.15 0 0 1 1.8-.54c8.64 5.4 13.76 15.27 16.03 20.61a16.9 16.9 0 0 1 1.33 7.86v.05Z" fill="#088465"/>
    <path opacity=".25" d="M316.5 181.78c-.71-.06-1.42-.1-2.12-.14l-.99-.03c-3.81-.11-7.55.13-11.1.6a85.25 85.25 0 0 0-9.75 1.86 97.16 97.16 0 0 0-8.27 2.49c-6.37 2.23-10.37 4.37-10.37 4.37s.8-4.52 2.64-10.44c0 0 17.75-11.95 25.44-11.11 7.7.83 12.48-11.22 12.48-11.22 3.84 2.83 8 6.87 12.52 12.37 0 0 11.69 13.05-10.48 11.25Z" fill="#2C7039"/>
    <path opacity=".25" d="M280.46 170.21a55.01 55.01 0 0 1 2.1-4.09c3.16-5.59 7.32-10.47 12.66-12.46a14.61 14.61 0 0 1 4.2-.91c18.52 11.3-18.96 17.46-18.96 17.46Z" fill="#B1DFAC"/>
    <path d="M315.34 166.93c9.85 17.43 35.01 17.74 35.62 17.59.6-.16-24.56-1.93-33.35-17.88-8.37-15.21-17.28-31.97-17.55-30.73-.13.61 6.15 14.86 15.28 31.02ZM292.03 155.57c.09-.05-.04 1.96.36 4.18.28 1.55.52 2.68.65 3.34a107 107 0 0 0 6.56 6.74c-.18-.57-.35-1.65-.67-3.37-.42-2.3-.2-4.28-.1-4.32.08-.05-.04 1.96.36 4.18.36 2.01.66 3.33.72 3.8l1.05.96c10.93 9.85 22.58 15.13 22.38 15.43-.2.28-11.22-3.83-21.41-13.08-.64-.16-1.55-.4-2.68-.77-2.23-.7-3.87-1.84-3.87-1.94 0-.1 1.72.96 3.86 1.65.88.28 1.63.48 2.22.62a124.14 124.14 0 0 1-5.04-5.05c-.48-.06-1.72-.34-3.64-.96-2.23-.7-3.88-1.84-3.87-1.94 0-.1 1.71.96 3.86 1.65 1.57.5 2.7.72 3.32.9a122.89 122.89 0 0 1-6.24-7.23c-.6-.1-1.74-.4-3.36-.91-2.23-.7-3.87-1.85-3.87-1.95 0-.1 1.71.96 3.86 1.65 1.38.45 2.43.67 3.08.84-2.78-3.53-4.29-5.93-4.18-6.08.13-.2 2.75 3.62 7.27 8.74-.14-.63-.29-1.53-.52-2.77-.42-2.3-.19-4.28-.1-4.32Z" fill="#11706D"/>
    <path d="M292.26 154c.22.02.4.18.52.4.12.24.17.54.14.87-.08.65-.49 1.14-.92 1.09-.44-.05-.73-.62-.66-1.27.08-.65.49-1.14.92-1.09ZM295.23 169.83c.57.3.88.87.67 1.26-.2.38-.84.44-1.42.13s-.88-.87-.67-1.26c.14-.26.49-.37.88-.32.18.03.36.09.54.19ZM299.85 160.9c.08.24.12.5.1.79-.02.87-.52 1.56-1.1 1.54-.48-.02-.87-.51-.97-1.17-.03-.15-.03-.3-.03-.45.03-.87.53-1.56 1.1-1.54.4.02.73.35.9.84ZM288.97 164.1c.8.35 1.26 1.06 1.03 1.6-.24.53-1.07.68-1.87.33-.8-.35-1.26-1.06-1.03-1.6.17-.38.64-.56 1.19-.5.22.01.45.07.68.17ZM285.52 152.74c.23.12.45.32.64.57.45.6.56 1.3.3 1.71a.8.8 0 0 1-.18.18l-.03.02c-.4.27-1.02.11-1.52-.36a2.33 2.33 0 0 1-.24-.28c-.53-.7-.58-1.54-.12-1.9.3-.22.74-.18 1.15.06ZM282.3 156.13c.2.05.4.14.58.25.75.46 1.1 1.24.79 1.73-.28.46-1.04.52-1.74.15l-.16-.08c-.74-.46-1.09-1.23-.78-1.73.22-.37.75-.48 1.32-.32Z" fill="#11706D"/>
    <path opacity=".3" d="M285.52 152.74c.23.13.45.32.64.57.45.6.56 1.3.3 1.71l-.21.2c-.4.27-1.02.11-1.52-.36 0 0 1.39-.75.8-2.13ZM292.78 154.4c.12.24.17.54.14.87-.08.65-.49 1.14-.92 1.09-.44-.05-.73-.62-.66-1.27 0 0 1.48.97 1.44-.68ZM282.3 156.13c.2.05.4.14.58.25.75.47 1.1 1.24.79 1.73-.28.46-1.04.52-1.74.15 0 0 1.5-1.59.38-2.13ZM288.97 164.1c.8.35 1.26 1.06 1.03 1.6-.24.53-1.07.68-1.87.33 0 0 1.13-1.82.16-2.1.22 0 .45.07.68.17ZM295.23 169.83c.57.3.88.87.67 1.26-.2.38-.84.44-1.42.13 0 0 1.08-1.24.21-1.58.18.03.36.09.54.19ZM299.85 160.91c.08.23.12.5.1.78-.02.87-.52 1.56-1.1 1.54-.48-.02-.87-.51-.97-1.17 0 0 2.22.69 1.96-1.15Z" fill="#0C3A25"/>
    <path d="M437 211.86c0 17.35-26.01 31.99-61.55 36.54-7.45.95-15.32 1.46-23.45 1.46-6.76 0-13.34-.35-19.64-1.02-13.03-1.38-24.89-4.1-34.83-7.81l-1.92-.74-.95-.38-.67-.28a71.49 71.49 0 0 1-12.41-6.49c-9.2-6.07-14.58-13.4-14.58-21.28 0-6.6 3.77-12.82 10.4-18.23a47.3 47.3 0 0 1 3.4-2.53 67.28 67.28 0 0 1 8.51-4.9c15.54-7.58 37.87-12.34 62.69-12.34 26.23 0 49.7 5.32 65.29 13.67 12.3 6.6 19.71 15.08 19.71 24.33Z" fill="#8FBC6C"/>
    <path d="M320.92 179.86c20.37 7.08 38.69 6.6 39.22 6.28.54-.33-16.01-1.19-37.05-7.16-16.7-4.74-26.05-25.5-25.94-24.23.05.63 6.24 19.02 23.77 25.11Z" fill="#11706D"/>
    <path d="M299.25 158.48c-1.42.66-3.5-.8-4.64-3.27a8.37 8.37 0 0 1-.6-2.28 28.2 28.2 0 0 1-.19-3.45c.02-.9 1.05-1.42 1.78-.89a29.6 29.6 0 0 1 1.55 1.21c1.09.93 2.16 2.01 2.62 3.02 1.14 2.46.9 5-.52 5.65Z" fill="#FF4F51"/>
    <path opacity=".25" d="M299.25 158.48c-1.42.66-3.5-.8-4.64-3.27a8.37 8.37 0 0 1-.6-2.28s4.5 1.83 3.14-3.12c1.09.92 2.16 2 2.62 3.01 1.14 2.47.9 5-.52 5.65Z" fill="#AE2229"/>
    <path opacity=".25" d="M293.9 151.77c-.06-.8-.08-1.6-.07-2.28 0-.9 1.04-1.42 1.77-.9l.64.49c.73 2.51-2.34 2.68-2.34 2.68Z" fill="#FBE7E9"/>
    <path d="M276.06 183.3c11.19-1.03 25.07-4.73 25.07-5.01 0-.28-13.88 2.96-25.06 4-11.19 1.03-21.12-2-21.28-1.74-.42.7 10.09 3.78 21.27 2.75Z" fill="#11706D"/>
    <path d="M276.04 188.02c4.56-4.25 8.24-6.39 8.46-6.37 1.17.09-3.48 2.75-8.05 7-4.56 4.25-8.31 8.5-8.48 8.39-.16-.11 3.5-4.77 8.07-9.02ZM246 176.3c.88.02 2.08.09 3.4.28 3.4.5 7.6 1.8 9.06 5.2 0 0-3.31.57-6.74-.06-2.63-.49-5.33-1.68-6.66-4.39-.24-.48.3-1.05.95-1.03ZM271.5 173.61c.65.22 1.5.53 2.42.95 2.97 1.36 6.67 3.85 6.58 7.8 0 0-3-.3-5.75-1.72h-.03l-.79-.44-.05-.03c-1.94-1.2-3.58-3.03-3.66-5.8-.02-.53.7-.95 1.28-.76ZM286.54 171.21l1.45.53.01.01c2.75 1.1 6.7 3.29 7.42 6.88-.25.49-.56.88-.91 1.18-1.65-.31-4.92-1.15-7.1-3.2a6.46 6.46 0 0 1-2.16-4.64c-.01-.53.7-.95 1.28-.76ZM267.92 182.84s-1.48 3.26-4.74 5.7a13.01 13.01 0 0 1-7.59 2.6c-.66.01-1-.57-.63-1.04.66-.82 1.73-2.04 3.13-3.24.53-.46 1.1-.9 1.72-1.33a13.87 13.87 0 0 1 8.11-2.69Z" fill="#11706D"/>
    <path d="m273.74 190.3.09.05-.12.09c-.55.4-2.98 2.08-5.94 2.62a8.5 8.5 0 0 1-5.11-.53c-.41-.2-.36-.7.08-.91.7-.35 1.77-.84 3.02-1.24h.01c2.4-.78 5.47-1.3 7.97-.07ZM277.21 187.65s3.91 3.32 2.3 7.29v.02c-.21.51-.51 1.04-.93 1.57-.27.35-.9.37-1.11.03-.58-.87-1.5-2.53-1.67-4.4a5.87 5.87 0 0 1 1.41-4.51ZM290.99 180.68s-.4 5.85-5.44 9.11c-1 .65-2.2 1.2-3.6 1.58-.65.17-1.21-.27-1.02-.8a19.1 19.1 0 0 1 2.9-5.19 12.83 12.83 0 0 1 7.15-4.7Z" fill="#11706D"/>
    <path opacity=".3" d="M277.21 187.65s3.91 3.32 2.3 7.29v.02s-1.81-6.93-3.71-2.8a5.87 5.87 0 0 1 1.41-4.51ZM273.74 190.3l-.03.14c-.55.4-2.98 2.08-5.94 2.62 0 0 1.94-3.31-2-2.68 2.4-.78 5.47-1.29 7.97-.07ZM249.4 176.58c3.4.5 7.6 1.8 9.06 5.19 0 0-3.31.57-6.74-.05 0 0 2.27-2.96-2.31-5.14ZM273.92 174.56c2.97 1.35 6.67 3.85 6.58 7.8 0 0-3-.3-5.75-1.72h-.03l-.79-.45-.05-.03s3.67-2.75.04-5.6ZM290.99 180.68s-.4 5.85-5.44 9.11c0 0 .63-6.53-1.72-4.42a12.83 12.83 0 0 1 7.15-4.69ZM288 171.75c2.75 1.11 6.7 3.3 7.42 6.89-.25.48-.56.87-.91 1.17-1.65-.31-4.92-1.15-7.1-3.19 0 0 4.11-3.18.6-4.87Z" fill="#0C3A25"/>
    <path d="M392.29 170.78a33.26 33.26 0 0 1 .46 2.8 38.18 38.18 0 0 1 .2 9.2 31.6 31.6 0 0 1-1.1 5.8c-2.66 9.25-9.88 17.34-24.43 21.52-20.8 5.97-36.24-4.63-42.35-20.14a41.92 41.92 0 0 1-2.83-13.21c-.12-2.32-.1-4.65.03-6.97a73.15 73.15 0 0 1 3.94-19.74 57.22 57.22 0 0 1 6.19-12.62c4.4-6.66 10.14-11.6 16.98-13.39l.68-.17c8.08-1.85 15.97 2.65 22.68 9.7a72.99 72.99 0 0 1 10.28 13.98c.8 1.4 1.58 2.8 2.3 4.2a86.94 86.94 0 0 1 5.55 13.25c.31 1.03.6 2.08.87 3.14.2.88.38 1.76.55 2.65Z" fill="#ADD95F"/>
    <path opacity=".35" d="M385.33 151.73c-4.22 2.93-14.08 8.33-31.02 9.73-16.41 1.36-26.06-1.55-30.4-3.44a71.9 71.9 0 0 1 2.3-8.01 57.22 57.22 0 0 1 6.2-12.62c3.3 1.53 10.54 3.85 22.22 2.34 8.97-1.16 14.72-3.9 18.12-6.18a73.04 73.04 0 0 1 10.28 13.98c.8 1.4 1.58 2.8 2.3 4.2Z" fill="#fff"/>
    <path d="M392.29 170.78a33.47 33.47 0 0 1 .46 2.8 38.08 38.08 0 0 1 .2 9.2c-6.53 3-18.06 7.15-35.07 9.21-16.87 2.05-27.21-.05-32.83-2.06a41.92 41.92 0 0 1-2.83-13.21c-.11-2.31-.1-4.63.04-6.94 4.57 2.42 15.9 6.48 37.3 3.07 15.91-2.54 25.32-6.7 30.58-9.95a56.66 56.66 0 0 1 2.15 7.88Z" fill="#A3A1EB"/>
    <path opacity=".25" d="M391.86 188.57c-2.67 9.26-9.9 17.34-24.44 21.53-20.8 5.97-36.24-4.64-42.35-20.14a41.89 41.89 0 0 1-2.83-13.22 65.1 65.1 0 0 1 .03-6.97 73.24 73.24 0 0 1 3.94-19.73 57.22 57.22 0 0 1 6.19-12.62c4.4-6.66 10.14-11.6 16.98-13.4-4.17 8.06-11.68 24.66-13.55 43.7-2.6 26.37 22.61 47.15 56.03 20.84Z" fill="#508C29"/>
    <path d="m331.6 207.61-.96-.2c-1.63-.29-3.28-.48-4.94-.55-2.38-.1-4.6-.09-7.1.35-.75.14-2.14.3-2.6.47-4.3-3.37-7.28-8.25-10.06-15.61-.8-2.1-1.47-4.38-1.99-6.87-.63-3-1.03-6.3-1.17-9.93-.15-4.04 2.88-6.97 5.69-5.58 1.83.9 3.97 2.22 6.22 4.09 3.82 3.18 7.94 7.98 11.32 15.22a62.64 62.64 0 0 1 3 7.73 81.52 81.52 0 0 1 2.6 10.88Z" fill="#318650"/>
    <path d="M304.59 170.21s16.4 23.14 20.74 36.14" stroke="#8CC180" stroke-miterlimit="10" stroke-linecap="round"/>
    <path opacity=".25" d="m331.6 207.61-.96-.2c-1.63-.29-3.28-.48-4.94-.55-2.38-.1-4.5-.03-7.1.35-.47.08-2.14.3-2.6.47-4.3-3.37-7.28-8.25-10.06-15.61l-.38-1.02s23.06 15.07 20.46-2.06a62.9 62.9 0 0 1 3 7.74 81.7 81.7 0 0 1 2.59 10.88Z" fill="#0C3A25"/>
    <path opacity=".25" d="M303.95 185.2c-.63-3-1.03-6.3-1.17-9.93-.15-4.04 2.88-6.97 5.69-5.58 1.83.9 3.97 2.22 6.22 4.09 6.72 10.88-10.43 11.4-10.74 11.42Z" fill="#61B27D"/>
    <path d="m295.35 209.98-.72-.15c-1.3-.28-2.58-.57-3.82-.86a111.6 111.6 0 0 1-9.44-2.66 26.3 26.3 0 0 1-3.85-8.24 30.2 30.2 0 0 1-.87-4.11c-.31-2.1-.44-4.38-.36-6.88v-.2a2.24 2.24 0 0 1 .04-.33l.1-.52.03-.12.12-.36.07-.17a2.2 2.2 0 0 1 .13-.27l.13-.24.1-.16.1-.16.12-.14c.16-.2.33-.37.51-.51l.14-.11.18-.13.17-.1.07-.03.28-.13c.4-.15.85-.2 1.28-.12a2.17 2.17 0 0 1 .54.17c.05.01.1.03.14.06l.11.05c1.27.72 2.75 1.74 4.28 3.14a30.1 30.1 0 0 1 7.4 11.04 42.55 42.55 0 0 1 1.78 5.47c.52 2.05.94 4.3 1.24 6.77Z" fill="#318650"/>
    <path d="M290.81 208.97a48.78 48.78 0 0 0-2.27-5.87 135.74 135.74 0 0 0-5.22-10.15 219.2 219.2 0 0 0-5.09-8.6l-.35-.56-.05-.08" stroke="#8CC180" stroke-miterlimit="10" stroke-linecap="round"/>
    <path opacity=".25" d="M276.65 193.96a38.4 38.4 0 0 1-.36-6.87c.08-2.78 2.4-4.63 4.36-3.53 1.27.72 2.75 1.74 4.28 3.14 4.3 7.81-8.06 7.27-8.29 7.26Z" fill="#61B27D"/>
    <path d="M300.6 204.1a44.36 44.36 0 0 1-2.18 6.49 174.05 174.05 0 0 1-3.78-.76 44.3 44.3 0 0 1-.48-8.66c.07-1.15.19-2.3.38-3.46.33-1.97.88-3.93 1.71-5.77 1.02-2.24 3.37-2.35 4.41-.57a3.3 3.3 0 0 1 .4 1.04c.6 2.69.8 6.55-.46 11.7Z" fill="#318650"/>
    <path d="M296.37 210.19c.42-1.95.83-4.4 1.2-6.92a297.56 297.56 0 0 0 1.63-13.07" stroke="#8CC180" stroke-miterlimit="10" stroke-linecap="round"/>
    <path opacity=".25" d="M300.6 204.1a44.4 44.4 0 0 1-2.18 6.49 174.05 174.05 0 0 1-3.78-.76 44.28 44.28 0 0 1-.48-8.66c.2.42 1.8 2.58 3.42 2.1 1.48-.43 2.97-3.04 3.42-11.12l.07.26c.6 2.69.8 6.55-.47 11.7Z" fill="#0C3A25"/>
    <path opacity=".25" d="M294.54 197.7c.33-1.96.87-3.92 1.71-5.76 1.02-2.24 3.37-2.36 4.4-.58-.2 5.72-5.75 6.31-6.11 6.34Z" fill="#61B27D"/>
    <path d="M301.76 140c-1.74.56-3.95-1.43-4.93-4.45-.11-.34-.2-.73-.25-1.14-.1-.64-.13-1.35-.12-2.07.01-1.23.13-2.5.27-3.56a1.3 1.3 0 0 1 2.17-.78 32.98 32.98 0 0 1 2.11 2.16c.97 1.1 1.81 2.29 2.16 3.34.97 3.02.35 5.93-1.4 6.5Z" fill="#FF4F51"/>
    <path opacity=".25" d="M301.76 140c-1.74.56-3.95-1.43-4.93-4.45a6.8 6.8 0 0 1-.25-1.14s4.83-.18 4.44-4.25c.96 1.1 1.8 2.29 2.15 3.35.97 3.01.35 5.92-1.4 6.49Z" fill="#AE2229"/>
    <path opacity=".25" d="M296.46 132.34c0-1.23.13-2.5.27-3.56a1.3 1.3 0 0 1 2.17-.78c.46.43.97.93 1.48 1.47.6 3.93-3.92 2.87-3.92 2.87Z" fill="#FBE7E9"/>
    <path opacity=".3" d="M267.92 182.84s-1.48 3.26-4.74 5.7a13.01 13.01 0 0 1-4.56 2.2s2.45-3.55 1.2-5.2a13.86 13.86 0 0 1 8.1-2.7Z" fill="#0C3A25"/>
    <path d="M212.62 29.27c1.21-1.1 1.94-2.7 1.3-4.13a4.27 4.27 0 0 0-1.95-1.96c-2.68-1.59-6.24-1.59-9.28-.7-3.04.92-5.71 2.63-8.34 4.36 2.71-2.18 5.47-4.47 6.93-7.5 1.42-3.02 1.05-7.02-1.78-9.01-2.6-1.81-6.24-1.47-9.4-.74a47.13 47.13 0 0 0-17.52 8.09c-3.32 2.47-9.85 7.27-10.58 11.6h50.62Z" fill="#EAEAEA"/>
    <path d="M198.52 24.29c-1.01 1.44 2.43 2.03 3.4 2.07 2.23.1 4.5-.66 6.36-1.7 1.01-.55 1.9-1.26 2.64-2.04-2.51-1.03-5.55-.96-8.23-.14a19.8 19.8 0 0 0-4.13 1.77s0 .04-.03.04h-.01Z" fill="#fff"/>
    <path d="M174.2 25.07c6.12.37 13.78.37 18.68-3.5 2.88-2.3 5.23-6.29 3.5-9.72a9.26 9.26 0 0 0-2.32-2.84c-1.34.04-2.68.29-3.97.59a47.14 47.14 0 0 0-17.52 8.09c-1.94 1.44-5.03 3.72-7.37 6.23 2.92.67 6 1 9 1.15Z" fill="#F3F3F3"/>
    <path d="M302.32 54.15c1.22-1.1 1.94-2.7 1.3-4.13a4.28 4.28 0 0 0-1.95-1.96c-2.67-1.59-6.24-1.59-9.28-.7-3.03.92-5.71 2.63-8.34 4.36 2.71-2.18 5.47-4.47 6.93-7.5 1.42-3.02 1.05-7.02-1.78-9.01-2.6-1.81-6.24-1.47-9.4-.74a47.14 47.14 0 0 0-17.52 8.09c-3.32 2.47-9.84 7.27-10.58 11.6h50.62Z" fill="#EAEAEA"/>
    <path d="M288.22 49.17c-1.01 1.44 2.43 2.03 3.4 2.07 2.23.1 4.5-.66 6.37-1.7 1-.55 1.9-1.26 2.63-2.04-2.5-1.03-5.55-.96-8.23-.14a19.85 19.85 0 0 0-4.12 1.77s0 .04-.04.04h-.01Z" fill="#fff"/>
    <path d="M263.9 49.95c6.12.37 13.78.37 18.68-3.5 2.88-2.3 5.23-6.29 3.5-9.72a9.26 9.26 0 0 0-2.32-2.84c-1.34.04-2.68.29-3.97.59a47.14 47.14 0 0 0-17.52 8.09c-1.94 1.44-5.02 3.72-7.37 6.23 2.92.67 6 1 9 1.15Z" fill="#F3F3F3"/>
  </g>
  <defs>
    <clipPath id="a">
      <path fill="#fff" d="M0 0h320v194H0z"/>
    </clipPath>
  </defs>
</svg>
