<?xml version="1.0" encoding="utf-8"?>
<!-- Generator: Adobe Illustrator 19.2.1, SVG Export Plug-In . SVG Version: 6.00 Build 0)  -->
<svg version="1.1"
	 id="Layer_2" inkscape:version="0.48.4 r9939" sodipodi:docname="Google_Play_logo.svg" xmlns:cc="http://creativecommons.org/ns#" xmlns:dc="http://purl.org/dc/elements/1.1/" xmlns:inkscape="http://www.inkscape.org/namespaces/inkscape" xmlns:rdf="http://www.w3.org/1999/02/22-rdf-syntax-ns#" xmlns:sodipodi="http://sodipodi.sourceforge.net/DTD/sodipodi-0.dtd" xmlns:svg="http://www.w3.org/2000/svg"
	 xmlns="http://www.w3.org/2000/svg" xmlns:xlink="http://www.w3.org/1999/xlink" x="0px" y="0px" viewBox="0 0 561.8 129.2"
	 style="enable-background:new 0 0 561.8 129.2;" xml:space="preserve">
<style type="text/css">
	.st0{fill:url(#path16_1_);}
	.st1{fill:url(#path23_1_);}
	.st2{fill:url(#path30_1_);}
	.st3{fill:url(#path37_1_);}
	.st4{fill:#808285;}
</style>
<sodipodi:namedview  bordercolor="#666666" borderopacity="1" fit-margin-bottom="0" fit-margin-left="0" fit-margin-right="0" fit-margin-top="0" gridtolerance="10" guidetolerance="10" id="namedview51" inkscape:current-layer="Layer_2" inkscape:cx="296.25001" inkscape:cy="38.121103" inkscape:pageopacity="0" inkscape:pageshadow="2" inkscape:window-height="1018" inkscape:window-maximized="1" inkscape:window-width="1920" inkscape:window-x="-8" inkscape:window-y="-8" inkscape:zoom="1.1213358" objecttolerance="10" pagecolor="#ffffff" showgrid="false">
	</sodipodi:namedview>
<linearGradient id="path16_1_" gradientUnits="userSpaceOnUse" x1="226.8587" y1="-152.5065" x2="210.54" y2="-120.4791" gradientTransform="matrix(1 0 0 -1 -124.695 -74.6006)">
	<stop  offset="0" style="stop-color:#FCD08F"/>
	<stop  offset="1" style="stop-color:#F79673"/>
</linearGradient>
<path id="path16" inkscape:connector-curvature="0" class="st0" d="M89.2,84.5c15.3-8.4,27-14.8,28-15.3c3.2-1.7,6.5-6.2,0-9.7
	c-2.1-1.1-13.4-7.3-28-15.3L69.1,64.4L89.2,84.5z"/>
<linearGradient id="path23_1_" gradientUnits="userSpaceOnUse" x1="203.1296" y1="-147.7386" x2="140.9948" y2="-214.3699" gradientTransform="matrix(1 0 0 -1 -124.695 -74.6006)">
	<stop  offset="0" style="stop-color:#E74047"/>
	<stop  offset="1" style="stop-color:#7F50A0"/>
</linearGradient>
<path id="path23" inkscape:connector-curvature="0" class="st1" d="M69.1,64.4L4.9,129.1c1.5,0.2,3.2-0.2,5.2-1.3
	c4.2-2.3,48.8-26.7,79.1-43.3L69.1,64.4L69.1,64.4z"/>
<linearGradient id="path30_1_" gradientUnits="userSpaceOnUse" x1="203.4607" y1="-129.6695" x2="140.3395" y2="-64.3056" gradientTransform="matrix(1 0 0 -1 -124.695 -74.6006)">
	<stop  offset="0" style="stop-color:#E6FFAB"/>
	<stop  offset="1" style="stop-color:#47BEBC"/>
</linearGradient>
<path id="path30" inkscape:connector-curvature="0" class="st2" d="M69.1,64.4l20.1-20.2c0,0-74.6-40.7-79.1-43.1
	C8.4,0.1,6.5-0.2,4.8,0.1L69.1,64.4z"/>
<linearGradient id="path37_1_" gradientUnits="userSpaceOnUse" x1="159.237" y1="-203.717" x2="159.237" y2="-74.75" gradientTransform="matrix(1 0 0 -1 -124.695 -74.6006)">
	<stop  offset="0" style="stop-color:#84E9DB"/>
	<stop  offset="1" style="stop-color:#197491"/>
</linearGradient>
<path id="path37" inkscape:connector-curvature="0" class="st3" d="M69.1,64.4L4.8,0.1C2.2,0.7,0,3,0,7.7c0,7.5,0,107.5,0,113.8
	c0,4.3,1.7,7.4,4.9,7.7L69.1,64.4z"/>
<path id="path46" inkscape:connector-curvature="0" class="st4" d="M278.2,51.6c-11.5,0-21,8.9-21,21.1c0,12.1,9.4,21.1,21,21.1
	c11.6,0,21-8.9,21-21.1C299.2,60.5,289.8,51.6,278.2,51.6z M278.2,85.5c-6.3,0-11.8-5.3-11.8-12.8c0-7.6,5.5-12.8,11.8-12.8
	c6.3,0,11.8,5.2,11.8,12.8C290,80.2,284.5,85.5,278.2,85.5z M232.4,51.6c-11.6,0-21,8.9-21,21.1c0,12.1,9.4,21.1,21,21.1
	c11.6,0,21-8.9,21-21.1C253.4,60.5,244,51.6,232.4,51.6z M232.4,85.5c-6.3,0-11.8-5.3-11.8-12.8c0-7.6,5.5-12.8,11.8-12.8
	c6.3,0,11.8,5.2,11.8,12.8C244.2,80.2,238.8,85.5,232.4,85.5z M178,58.1V67h21.2c-0.6,5-2.3,8.7-4.8,11.2c-3.1,3.1-7.9,6.5-16.4,6.5
	c-13.1,0-23.3-10.6-23.3-23.8s10.2-23.8,23.3-23.8c7.1,0,12.2,2.8,16,6.4l6.3-6.3c-5.3-5.1-12.4-9-22.3-9c-17.9,0-33,14.7-33,32.7
	s15,32.7,33,32.7c9.7,0,16.9-3.2,22.7-9.2c5.9-5.9,7.7-14.2,7.7-20.9c0-2.1-0.2-4-0.5-5.6L178,58.1z M400.7,65
	c-1.7-4.7-7.1-13.4-17.9-13.4c-10.8,0-19.7,8.5-19.7,21.1c0,11.8,8.9,21.1,20.7,21.1c9.6,0,15.1-5.9,17.4-9.3l-7.1-4.8
	c-2.4,3.5-5.6,5.8-10.3,5.8c-4.7,0-8-2.1-10.1-6.4l28-11.7L400.7,65z M372.2,72.1c-0.2-8.1,6.3-12.3,10.9-12.3
	c3.7,0,6.7,1.8,7.8,4.5L372.2,72.1z M349.5,92.5h9.2V30.6h-9.2V92.5z M334.4,56.3h-0.3c-2.1-2.5-6-4.7-11-4.7
	c-10.5,0-20,9.3-20,21.1c0,11.8,9.6,21,20,21c5,0,8.9-2.2,11-4.8h0.3v3c0,8.1-4.3,12.4-11.2,12.4c-5.6,0-9.1-4.1-10.5-7.5l-8,3.4
	c2.3,5.6,8.4,12.5,18.5,12.5c10.8,0,19.9-6.4,19.9-21.9V52.9h-8.7V56.3z M323.9,85.5c-6.3,0-11.6-5.3-11.6-12.7
	c0-7.4,5.3-12.8,11.6-12.8c6.2,0,11.2,5.4,11.2,12.8C335.1,80.1,330.1,85.5,323.9,85.5z M443.7,30.6h-22v61.9h9.2V69h12.8
	c10.2,0,20.2-7.4,20.2-19.2C463.9,38,453.9,30.6,443.7,30.6z M444,60.4h-13.1V39.2H444c6.8,0,10.8,5.7,10.8,10.6
	C454.7,54.6,450.8,60.4,444,60.4z M500.7,51.5c-6.6,0-13.5,2.9-16.3,9.5l8.1,3.4c1.8-3.4,5-4.5,8.4-4.5c4.8,0,9.6,2.9,9.7,8v0.6
	c-1.7-1-5.2-2.4-9.6-2.4c-8.8,0-17.7,4.9-17.7,13.9c0,8.3,7.2,13.6,15.2,13.6c6.2,0,9.6-2.8,11.7-6.1h0.3v4.8h8.9V68.6
	C519.3,57.7,511.2,51.5,500.7,51.5z M499.6,85.4c-3,0-7.2-1.5-7.2-5.2c0-4.8,5.2-6.6,9.7-6.6c4,0,5.9,0.9,8.4,2.1
	C509.8,81.4,504.9,85.4,499.6,85.4z M551.6,52.9l-10.5,26.8h-0.3l-10.9-26.8H520l16.4,37.5l-9.3,20.9h9.6l25.2-58.4L551.6,52.9z
	 M469,92.5h9.2V30.6H469V92.5z"/>
</svg>
