<?xml version="1.0" encoding="UTF-8"?>
<svg width="320px" height="92px" viewBox="0 0 320 92" version="1.1" xmlns="http://www.w3.org/2000/svg" xmlns:xlink="http://www.w3.org/1999/xlink">
    <!-- Generator: Sketch 58 (84663) - https://sketch.com -->
    <title>Group 21</title>
    <desc>Created with Sketch.</desc>
    <defs>
        <rect id="path-1" x="0" y="0" width="320" height="92" rx="4"></rect>
    </defs>
    <g id="Page-1" stroke="none" stroke-width="1" fill="none" fill-rule="evenodd">
        <g id="Group-21">
            <g id="Oval-Copy-5">
                <mask id="mask-2" fill="white">
                    <use xlink:href="#path-1"></use>
                </mask>
                <use id="Mask" fill="#302E2B" xlink:href="#path-1"></use>
                <path d="M7.75119521,25.8844493 C9.10895206,25.8844493 7.47252046,24.1007507 8.15779691,21.423564 C8.64948417,19.5026771 10.5353911,18.2267734 10.5036405,16.8817902 C10.47189,15.536807 9.8077002,14.8032568 8.29275537,14.4096299 C6.77781055,14.0160029 5.40840391,14.3070793 4.60339352,16.4015685 C3.79838313,18.4960576 4.11170627,19.742788 4.35754989,21.423564 C4.77221278,24.2585183 6.39343835,25.8844493 7.75119521,25.8844493 Z" id="Oval" fill="#2E1C0C" mask="url(#mask-2)" transform="translate(7.295018, 20.072225) scale(1, -1) rotate(35.000000) translate(-7.295018, -20.072225) "></path>
                <path d="M117.818606,92.4139377 C119.176363,92.4139377 117.539931,90.6302391 118.225208,87.9530524 C118.716895,86.0321655 120.602802,84.7562618 120.571051,83.4112786 C120.539301,82.0662953 119.875111,81.3327452 118.360166,80.9391182 C116.845221,80.5454913 115.475815,80.8365676 114.670804,82.9310568 C113.865794,85.025546 114.179117,86.2722763 114.424961,87.9530524 C114.839623,90.7880067 116.460849,92.4139377 117.818606,92.4139377 Z" id="Oval-Copy" fill="#2E1C0C" mask="url(#mask-2)" transform="translate(117.362429, 86.601713) scale(1, -1) rotate(35.000000) translate(-117.362429, -86.601713) "></path>
                <path d="M115.818606,18.4139377 C117.176363,18.4139377 115.539931,16.6302391 116.225208,13.9530524 C116.716895,12.0321655 118.602802,10.7562618 118.571051,9.41127855 C118.539301,8.06629533 117.875111,7.33274517 116.360166,6.93911822 C114.845221,6.54549127 113.475815,6.83656763 112.670804,8.93105682 C111.865794,11.025546 112.179117,12.2722763 112.424961,13.9530524 C112.839623,16.7880067 114.460849,18.4139377 115.818606,18.4139377 Z" id="Oval-Copy-4" fill="#2E1C0C" mask="url(#mask-2)" transform="translate(115.362429, 12.601713) scale(1, -1) rotate(35.000000) translate(-115.362429, -12.601713) "></path>
                <path d="M15.8186059,86.4139377 C17.1763628,86.4139377 15.5399312,84.6302391 16.2252076,81.9530524 C16.7168949,80.0321655 18.6028018,78.7562618 18.5710512,77.4112786 C18.5393007,76.0662953 17.8751109,75.3327452 16.3601661,74.9391182 C14.8452212,74.5454913 13.4758146,74.8365676 12.6708042,76.9310568 C11.8657938,79.025546 12.179117,80.2722763 12.4249606,81.9530524 C12.8396235,84.7880067 14.4608491,86.4139377 15.8186059,86.4139377 Z" id="Oval-Copy-8" fill="#2E1C0C" mask="url(#mask-2)" transform="translate(15.362429, 80.601713) scale(1, -1) rotate(35.000000) translate(-15.362429, -80.601713) "></path>
                <path d="M202.818606,32.4139377 C204.176363,32.4139377 202.539931,30.6302391 203.225208,27.9530524 C203.716895,26.0321655 205.602802,24.7562618 205.571051,23.4112786 C205.539301,22.0662953 204.875111,21.3327452 203.360166,20.9391182 C201.845221,20.5454913 200.475815,20.8365676 199.670804,22.9310568 C198.865794,25.025546 199.179117,26.2722763 199.424961,27.9530524 C199.839623,30.7880067 201.460849,32.4139377 202.818606,32.4139377 Z" id="Oval-Copy-11" fill="#2E1C0C" mask="url(#mask-2)" transform="translate(202.362429, 26.601713) scale(1, -1) rotate(35.000000) translate(-202.362429, -26.601713) "></path>
                <path d="M102.418606,92.4139377 C103.776363,92.4139377 102.139931,90.6302391 102.825208,87.9530524 C103.316895,86.0321655 105.202802,84.7562618 105.171051,83.4112786 C105.139301,82.0662953 104.475111,81.3327452 102.960166,80.9391182 C101.445221,80.5454913 100.075815,80.8365676 99.2708042,82.9310568 C98.4657938,85.025546 98.779117,86.2722763 99.0249606,87.9530524 C99.4396235,90.7880067 101.060849,92.4139377 102.418606,92.4139377 Z" id="Oval-Copy-2" fill="#2E1C0C" mask="url(#mask-2)" transform="translate(101.962429, 86.601713) scale(-1, -1) rotate(35.000000) translate(-101.962429, -86.601713) "></path>
                <path d="M100.418606,18.4139377 C101.776363,18.4139377 100.139931,16.6302391 100.825208,13.9530524 C101.316895,12.0321655 103.202802,10.7562618 103.171051,9.41127855 C103.139301,8.06629533 102.475111,7.33274517 100.960166,6.93911822 C99.4452212,6.54549127 98.0758146,6.83656763 97.2708042,8.93105682 C96.4657938,11.025546 96.779117,12.2722763 97.0249606,13.9530524 C97.4396235,16.7880067 99.0608491,18.4139377 100.418606,18.4139377 Z" id="Oval-Copy-6" fill="#2E1C0C" mask="url(#mask-2)" transform="translate(99.962429, 12.601713) scale(-1, -1) rotate(35.000000) translate(-99.962429, -12.601713) "></path>
                <path d="M0.418605905,86.4139377 C1.77636276,86.4139377 0.139931158,84.6302391 0.825207614,81.9530524 C1.31689487,80.0321655 3.20280181,78.7562618 3.17105124,77.4112786 C3.13930067,76.0662953 2.4751109,75.3327452 0.960166072,74.9391182 C-0.554778753,74.5454913 -1.92418539,74.8365676 -2.72919578,76.9310568 C-3.53420617,79.025546 -3.22088303,80.2722763 -2.97503941,81.9530524 C-2.56037652,84.7880067 -0.939150948,86.4139377 0.418605905,86.4139377 Z" id="Oval-Copy-9" fill="#2E1C0C" mask="url(#mask-2)" transform="translate(-0.037571, 80.601713) scale(-1, -1) rotate(35.000000) translate(0.037571, -80.601713) "></path>
                <path d="M187.418606,32.4139377 C188.776363,32.4139377 187.139931,30.6302391 187.825208,27.9530524 C188.316895,26.0321655 190.202802,24.7562618 190.171051,23.4112786 C190.139301,22.0662953 189.475111,21.3327452 187.960166,20.9391182 C186.445221,20.5454913 185.075815,20.8365676 184.270804,22.9310568 C183.465794,25.025546 183.779117,26.2722763 184.024961,27.9530524 C184.439623,30.7880067 186.060849,32.4139377 187.418606,32.4139377 Z" id="Oval-Copy-12" fill="#2E1C0C" mask="url(#mask-2)" transform="translate(186.962429, 26.601713) scale(-1, -1) rotate(35.000000) translate(-186.962429, -26.601713) "></path>
                <path d="M312.418606,61.4139377 C313.776363,61.4139377 312.139931,59.6302391 312.825208,56.9530524 C313.316895,55.0321655 315.202802,53.7562618 315.171051,52.4112786 C315.139301,51.0662953 314.475111,50.3327452 312.960166,49.9391182 C311.445221,49.5454913 310.075815,49.8365676 309.270804,51.9310568 C308.465794,54.025546 308.779117,55.2722763 309.024961,56.9530524 C309.439623,59.7880067 311.060849,61.4139377 312.418606,61.4139377 Z" id="Oval-Copy-15" fill="#2E1C0C" mask="url(#mask-2)" transform="translate(311.962429, 55.601713) scale(-1, -1) rotate(35.000000) translate(-311.962429, -55.601713) "></path>
                <path d="M-0.38,41 C1.00071187,41 3.19142857,41 3.90571429,38.9473684 C4.62,36.8947368 4.62,36.2949254 4.62,34.5 C4.62,32.7050746 4.06035594,31.0800746 3.15553391,29.9038059 C2.25071187,28.7275373 1.00071187,28 -0.38,28 C-1.76071187,28 -2.33232083,30.244784 -3.23714286,31.4210526 C-4.14196489,32.5973213 -5.38,32.7050746 -5.38,34.5 C-5.38,38.0898509 -3.14142375,41 -0.38,41 Z" id="Oval" fill="#2E1C0C" mask="url(#mask-2)"></path>
                <path d="M107.687411,33.5294884 C109.068123,33.5294884 111.258839,33.5294884 111.973125,31.4768568 C112.687411,29.4242252 112.687411,28.8244138 112.687411,27.0294884 C112.687411,25.2345629 112.127767,23.6095629 111.222945,22.4332943 C110.318123,21.2570256 109.068123,20.5294884 107.687411,20.5294884 C106.306699,20.5294884 105.73509,22.7742724 104.830268,23.950541 C103.925446,25.1268096 102.687411,25.2345629 102.687411,27.0294884 C102.687411,30.6193392 104.925987,33.5294884 107.687411,33.5294884 Z" id="Oval-Copy-7" fill="#2E1C0C" mask="url(#mask-2)"></path>
                <path d="M7.6874107,101.529488 C9.06812257,101.529488 11.2588393,101.529488 11.973125,99.4768568 C12.6874107,97.4242252 12.6874107,96.8244138 12.6874107,95.0294884 C12.6874107,93.2345629 12.1277666,91.6095629 11.2229446,90.4332943 C10.3181226,89.2570256 9.06812257,88.5294884 7.6874107,88.5294884 C6.30669882,88.5294884 5.73508987,90.7742724 4.83026784,91.950541 C3.92544581,93.1268096 2.6874107,93.2345629 2.6874107,95.0294884 C2.6874107,98.6193392 4.92598695,101.529488 7.6874107,101.529488 Z" id="Oval-Copy-10" fill="#2E1C0C" mask="url(#mask-2)"></path>
                <path d="M194.687411,47.5294884 C196.068123,47.5294884 198.258839,47.5294884 198.973125,45.4768568 C199.687411,43.4242252 199.687411,42.8244138 199.687411,41.0294884 C199.687411,39.2345629 199.127767,37.6095629 198.222945,36.4332943 C197.318123,35.2570256 196.068123,34.5294884 194.687411,34.5294884 C193.306699,34.5294884 192.73509,36.7742724 191.830268,37.950541 C190.925446,39.1268096 189.687411,39.2345629 189.687411,41.0294884 C189.687411,44.6193392 191.925987,47.5294884 194.687411,47.5294884 Z" id="Oval-Copy-13" fill="#2E1C0C" mask="url(#mask-2)"></path>
                <path d="M319.687411,76.5294884 C321.068123,76.5294884 323.258839,76.5294884 323.973125,74.4768568 C324.687411,72.4242252 324.687411,71.8244138 324.687411,70.0294884 C324.687411,68.2345629 324.127767,66.6095629 323.222945,65.4332943 C322.318123,64.2570256 321.068123,63.5294884 319.687411,63.5294884 C318.306699,63.5294884 317.73509,65.7742724 316.830268,66.950541 C315.925446,68.1268096 314.687411,68.2345629 314.687411,70.0294884 C314.687411,73.6193392 316.925987,76.5294884 319.687411,76.5294884 Z" id="Oval-Copy-16" fill="#2E1C0C" mask="url(#mask-2)"></path>
            </g>
            <ellipse id="Oval" fill="#2E1C0C" cx="262" cy="76" rx="40" ry="4"></ellipse>
        </g>
    </g>
</svg>