<svg width="320" height="194" viewBox="0 0 320 194" fill="none" xmlns="http://www.w3.org/2000/svg">
<g clip-path="url(#clip0_2762_13891)">
<rect width="320" height="194" fill="#0A071B"/>
<path d="M55.8332 78.3733L-10.9625 198.4C-11.0412 198.539 -11.1575 198.665 -11.3084 198.74L-15.8093 201.144C-16.3545 201.439 -17.0301 201.066 -17.0674 200.444L-17.3355 196.056C-17.3729 195.435 -18.0388 195.063 -18.5937 195.357L-22.4695 197.434C-23.0147 197.728 -23.6807 197.356 -23.7276 196.734L-24.0053 192.345C-24.0427 191.724 -24.7086 191.352 -25.2634 191.646L-29.1392 193.723C-29.6845 194.017 -30.3505 193.645 -30.3974 193.023L-30.6751 188.634C-30.7124 188.013 -31.3783 187.641 -31.9332 187.935L-35.809 190.012C-36.3543 190.306 -37.0202 189.934 -37.0671 189.312L-37.3448 184.923C-37.3822 184.302 -38.0481 183.93 -38.603 184.224L-42.4788 186.301C-43.0241 186.595 -43.69 186.223 -43.7369 185.601L-44.0146 181.212C-44.0519 180.591 -44.7179 180.219 -45.2728 180.513L-49.1485 182.59C-49.6938 182.884 -50.3597 182.512 -50.4067 181.89L-50.6844 177.501C-50.7217 176.88 -51.3877 176.508 -51.9425 176.802L-55.8183 178.879C-56.3636 179.173 -57.0391 178.801 -57.0765 178.179L-57.3453 173.8C-57.3827 173.179 -58.0486 172.807 -58.6035 173.101L-62.4793 175.178C-63.0245 175.473 -63.6905 175.101 -63.7374 174.479L-64.0151 170.089C-64.0525 169.468 -64.7184 169.096 -65.2732 169.39L-69.149 171.467C-69.6943 171.762 -70.3698 171.389 -70.4072 170.768L-70.6479 166.884C-70.654 166.719 -70.6219 166.557 -70.5432 166.419L-2.88109 44.857C-2.46381 44.1077 -1.33517 44.3717 -1.28663 45.2162L-1.14916 47.4879C-1.1118 48.1092 -0.445815 48.4812 0.109026 48.1874L3.98481 46.1103C4.53005 45.8157 5.19597 46.1877 5.24293 46.8097L5.52064 51.1989C5.558 51.8202 6.22392 52.1922 6.77876 51.8984L10.6546 49.8213C11.1998 49.5267 11.8658 49.8987 11.9127 50.5207L12.1904 54.9099C12.2278 55.5312 12.8937 55.9032 13.4486 55.6093L17.3244 53.5323C17.8696 53.2377 18.5356 53.6096 18.5825 54.2317L18.8602 58.6209C18.8975 59.2422 19.5635 59.6142 20.1183 59.3203L23.9941 57.2433C24.5394 56.9487 25.2053 57.3206 25.2523 57.9427L25.53 62.3319C25.5673 62.9532 26.2332 63.3252 26.7881 63.0313L30.6639 60.9543C31.2092 60.6597 31.8751 61.0316 31.922 61.6537L32.1998 66.0429C32.2371 66.6642 32.903 67.0362 33.4579 66.7423L37.3337 64.6653C37.8789 64.3706 38.5545 64.7434 38.5918 65.3647L38.8606 69.7435C38.898 70.3648 39.564 70.7368 40.1188 70.443L43.9946 68.3659C44.5398 68.0713 45.2058 68.4433 45.2527 69.0653L45.5304 73.4545C45.5678 74.0758 46.2337 74.4478 46.7886 74.154L50.6644 72.0769C51.2096 71.7823 51.8756 72.1542 51.9225 72.7763L52.2002 77.1655C52.2376 77.7868 52.9035 78.1588 53.4584 77.8649L54.6798 77.2088C55.427 76.8047 56.2401 77.6329 55.8332 78.3733Z" fill="url(#paint0_linear_2762_13891)"/>
<path d="M84.6978 167.032L-44.0729 214.868C-44.2222 214.924 -44.3973 214.939 -44.5486 214.898L-49.5337 213.804C-50.1412 213.669 -50.4028 212.952 -50.0351 212.46L-47.3976 208.951C-47.0194 208.45 -47.2906 207.732 -47.8989 207.607L-52.1908 206.665C-52.7983 206.53 -53.06 205.813 -52.6922 205.321L-50.0539 201.802C-49.6758 201.301 -49.9478 200.593 -50.5553 200.458L-54.8471 199.516C-55.4547 199.381 -55.7163 198.664 -55.3485 198.172L-52.7103 194.653C-52.3321 194.152 -52.6041 193.444 -53.2116 193.309L-57.5035 192.367C-58.111 192.232 -58.3727 191.515 -58.0049 191.023L-55.3666 187.504C-54.9885 187.003 -55.2605 186.295 -55.868 186.16L-60.1598 185.218C-60.7674 185.083 -61.029 184.366 -60.6612 183.874L-58.0229 180.355C-57.6448 179.854 -57.9168 179.146 -58.5243 179.011L-62.8162 178.069C-63.4237 177.934 -63.6854 177.217 -63.3176 176.725L-60.6793 173.206C-60.3012 172.705 -60.5732 171.997 -61.1807 171.862L-65.4725 170.92C-66.0801 170.785 -66.3417 170.068 -65.9739 169.576L-63.3364 166.066C-62.9583 165.565 -63.2295 164.848 -63.8378 164.722L-68.1297 163.781C-68.7372 163.645 -68.9989 162.929 -68.6311 162.436L-65.9928 158.917C-65.6146 158.416 -65.8866 157.709 -66.4942 157.573L-70.7861 156.632C-71.3936 156.496 -71.6552 155.78 -71.2874 155.287L-68.9421 152.17C-68.8449 152.043 -68.7109 151.937 -68.552 151.883L61.8706 103.444C62.667 103.15 63.3661 104.075 62.8478 104.758L61.4753 106.581C61.0971 107.082 61.3684 107.8 61.9767 107.926L66.2685 108.867C66.8761 109.003 67.1377 109.719 66.7699 110.211L64.1316 113.73C63.7535 114.231 64.0255 114.939 64.633 115.075L68.9248 116.016C69.5324 116.152 69.794 116.868 69.4262 117.36L66.788 120.879C66.4098 121.38 66.6818 122.088 67.2894 122.224L71.5812 123.165C72.1888 123.301 72.4504 124.017 72.0826 124.509L69.4443 128.028C69.0662 128.529 69.3382 129.237 69.9457 129.373L74.2376 130.314C74.8451 130.45 75.1067 131.166 74.7389 131.658L72.1007 135.177C71.7225 135.678 71.9945 136.386 72.602 136.522L76.8939 137.463C77.5015 137.599 77.7631 138.315 77.3953 138.807L74.757 142.326C74.3789 142.827 74.6509 143.535 75.2584 143.671L79.5503 144.612C80.1578 144.748 80.4195 145.464 80.0517 145.956L77.4142 149.466C77.036 149.967 77.3073 150.684 77.9156 150.81L82.2074 151.752C82.8149 151.887 83.0766 152.603 82.7088 153.096L80.0705 156.615C79.6923 157.116 79.9644 157.824 80.5719 157.959L84.8638 158.901C85.4713 159.036 85.7329 159.752 85.3652 160.245L82.7269 163.764C82.3487 164.265 82.62 164.982 83.2283 165.108L84.5769 165.399C85.4126 165.582 85.4942 166.738 84.6882 167.031L84.6978 167.032Z" fill="url(#paint1_linear_2762_13891)"/>
<path d="M87.125 147.275L-35.2267 209.71C-35.368 209.785 -35.5342 209.811 -35.6974 209.798L-40.7772 209.286C-41.4004 209.227 -41.742 208.542 -41.4287 208.007L-39.2129 204.213C-38.8996 203.678 -39.2508 202.993 -39.8644 202.934L-44.2353 202.498C-44.8585 202.439 -45.2 201.754 -44.8868 201.219L-42.6702 197.415C-42.357 196.88 -42.7081 196.195 -43.3218 196.136L-47.7022 195.7C-48.3255 195.64 -48.667 194.956 -48.3537 194.421L-46.1372 190.617C-45.8239 190.082 -46.175 189.397 -46.7887 189.338L-51.1691 188.902C-51.7924 188.842 -52.1339 188.158 -51.8207 187.623L-49.6041 183.819C-49.2908 183.284 -49.642 182.599 -50.2556 182.54L-54.6361 182.103C-55.2594 182.044 -55.6008 181.36 -55.2876 180.824L-53.071 177.021C-52.7578 176.485 -53.1089 175.8 -53.7225 175.742L-58.103 175.305C-58.7262 175.246 -59.0678 174.561 -58.7545 174.026L-56.538 170.222C-56.2247 169.687 -56.5758 169.002 -57.1895 168.943L-61.5603 168.508C-62.1836 168.448 -62.5251 167.764 -62.2119 167.229L-59.996 163.435C-59.6828 162.899 -60.0339 162.214 -60.6476 162.156L-65.0184 161.72C-65.6417 161.66 -65.9832 160.976 -65.6699 160.441L-63.4534 156.637C-63.1401 156.102 -63.4913 155.417 -64.1049 155.358L-68.4853 154.922C-69.1086 154.862 -69.4501 154.178 -69.1369 153.643L-67.1779 150.282C-67.0992 150.143 -66.974 150.028 -66.8327 149.952L57.0989 86.7253C57.8542 86.3412 58.6569 87.1782 58.2212 87.9163L57.0691 89.8822C56.7559 90.4176 57.0974 91.1019 57.7207 91.1613L62.0915 91.5971C62.7148 91.6565 63.0563 92.3407 62.743 92.8761L60.5265 96.6797C60.2132 97.2151 60.5644 97.9001 61.178 97.9587L65.5584 98.3953C66.1817 98.4547 66.5232 99.139 66.21 99.6743L63.9934 103.478C63.6802 104.013 64.0313 104.698 64.6449 104.757L69.0254 105.194C69.6487 105.253 69.9902 105.937 69.6769 106.473L67.4603 110.276C67.1471 110.812 67.4982 111.497 68.1119 111.555L72.4924 111.992C73.1156 112.051 73.4571 112.735 73.1438 113.271L70.9273 117.074C70.614 117.61 70.9651 118.295 71.5788 118.353L75.9593 118.79C76.5825 118.849 76.9241 119.534 76.6108 120.069L74.3942 123.873C74.0809 124.408 74.4321 125.093 75.0457 125.152L79.4166 125.588C80.0398 125.647 80.3814 126.331 80.0681 126.867L77.8523 130.661C77.539 131.196 77.8902 131.881 78.5038 131.94L82.8747 132.375C83.498 132.435 83.8394 133.119 83.5262 133.654L81.3096 137.458C80.9964 137.993 81.3475 138.678 81.9611 138.737L86.3416 139.174C86.9649 139.233 87.3064 139.917 86.9931 140.453L84.7774 144.247C84.4641 144.782 84.8152 145.467 85.4288 145.526L86.7994 145.664C87.6427 145.751 87.861 146.889 87.1058 147.273L87.125 147.275Z" fill="url(#paint2_linear_2762_13891)"/>
<path d="M84.2704 125.057L-25.7935 207.245C-25.9267 207.341 -26.0864 207.406 -26.2416 207.412L-31.3327 207.769C-31.9548 207.816 -32.408 207.2 -32.1877 206.619L-30.6425 202.511C-30.4221 201.929 -30.885 201.313 -31.4975 201.36L-35.8793 201.668C-36.5014 201.715 -36.9547 201.099 -36.7344 200.517L-35.198 196.398C-34.9776 195.817 -35.4405 195.2 -36.053 195.248L-40.4444 195.555C-41.0665 195.602 -41.5198 194.986 -41.2994 194.404L-39.763 190.285C-39.5427 189.704 -40.0055 189.087 -40.618 189.135L-45.0095 189.442C-45.6316 189.489 -46.0848 188.873 -45.8645 188.291L-44.3281 184.172C-44.1078 183.591 -44.5706 182.974 -45.1831 183.022L-49.5746 183.329C-50.1966 183.376 -50.6499 182.76 -50.4296 182.178L-48.8931 178.06C-48.6728 177.478 -49.1357 176.861 -49.7482 176.909L-54.1396 177.216C-54.7617 177.263 -55.215 176.647 -54.9947 176.065L-53.4582 171.947C-53.2379 171.365 -53.7007 170.748 -54.3132 170.796L-58.6951 171.103C-59.3172 171.15 -59.7704 170.535 -59.5501 169.953L-58.0048 165.845C-57.7845 165.263 -58.2474 164.647 -58.8599 164.694L-63.2418 165.002C-63.8639 165.049 -64.3171 164.433 -64.0968 163.851L-62.5603 159.732C-62.34 159.151 -62.8028 158.534 -63.4153 158.582L-67.7972 158.889C-68.4193 158.936 -68.8725 158.32 -68.6522 157.739L-67.2885 154.09C-67.2283 153.94 -67.1303 153.803 -66.9971 153.707L44.4835 70.4725C45.1712 69.967 46.0918 70.6589 45.7963 71.4565L44.9983 73.586C44.778 74.1674 45.2408 74.784 45.8533 74.7363L50.2352 74.4291C50.8573 74.3821 51.3105 74.998 51.0902 75.5794L49.5538 79.6982C49.3335 80.2796 49.7963 80.8963 50.4088 80.8485L54.8003 80.542C55.4224 80.4951 55.8756 81.1109 55.6553 81.6924L54.1189 85.8112C53.8986 86.3926 54.3614 87.0092 54.9739 86.9615L59.3654 86.655C59.9875 86.6081 60.4407 87.2239 60.2204 87.8054L58.6839 91.9241C58.4636 92.5056 58.9265 93.1222 59.5389 93.0745L63.9304 92.768C64.5525 92.721 65.0057 93.3369 64.7854 93.9183L63.249 98.0371C63.0287 98.6185 63.4915 99.2352 64.104 99.1874L68.4955 98.881C69.1176 98.834 69.5708 99.4499 69.3505 100.031L67.814 104.15C67.5937 104.732 68.0566 105.348 68.6691 105.3L73.051 104.993C73.6731 104.946 74.1263 105.562 73.906 106.144L72.3607 110.252C72.1404 110.833 72.6032 111.45 73.2157 111.402L77.5976 111.095C78.2197 111.048 78.673 111.664 78.4526 112.245L76.9162 116.364C76.6959 116.946 77.1587 117.562 77.7712 117.514L82.1627 117.208C82.7848 117.161 83.238 117.777 83.0177 118.358L81.4813 122.477C81.2609 123.059 81.7238 123.675 82.3363 123.627L83.7157 123.535C84.5704 123.477 84.9669 124.562 84.2888 125.068L84.2704 125.057Z" fill="url(#paint3_linear_2762_13891)"/>
<path d="M78.111 98.2475L46.4406 129.719L-19.3241 195.066C-19.4396 195.183 -19.5905 195.258 -19.7576 195.293L-24.7414 196.363C-25.3504 196.489 -25.8866 195.944 -25.7607 195.335L-24.8008 191.055C-24.6749 190.446 -25.2111 189.901 -25.8201 190.026L-30.1158 190.949C-30.7248 191.074 -31.2618 190.539 -31.1359 189.931L-30.184 185.63C-30.0582 185.022 -30.5951 184.486 -31.2041 184.611L-35.4999 185.534C-36.1089 185.659 -36.6458 185.124 -36.52 184.515L-35.5681 180.215C-35.4422 179.607 -35.9792 179.071 -36.5882 179.196L-40.8839 180.119C-41.4929 180.244 -42.0299 179.709 -41.9041 179.1L-40.9521 174.8C-40.8263 174.191 -41.3632 173.656 -41.9722 173.781L-46.268 174.704C-46.877 174.829 -47.4139 174.294 -47.288 173.685L-46.3361 169.385C-46.2103 168.776 -46.7472 168.241 -47.3562 168.366L-51.652 169.289C-52.261 169.414 -52.7979 168.879 -52.6721 168.27L-51.7202 163.97C-51.5943 163.361 -52.1313 162.826 -52.7403 162.951L-57.036 163.874C-57.645 163.999 -58.1812 163.454 -58.0554 162.846L-57.0954 158.565C-56.9695 157.957 -57.5057 157.411 -58.1147 157.537L-62.4105 158.459C-63.0195 158.585 -63.5564 158.049 -63.4305 157.441L-62.4787 153.14C-62.3528 152.532 -62.8897 151.996 -63.4987 152.122L-67.7945 153.044C-68.4035 153.17 -68.9404 152.634 -68.8138 152.016L-67.9697 148.219C-67.9279 148.058 -67.8572 147.899 -67.7328 147.793L2.96307 77.5544L30.9599 49.7416C31.5681 49.1428 32.5866 49.6975 32.3943 50.5324L31.899 52.744C31.7731 53.3523 32.3093 53.8975 32.9183 53.7722L37.2141 52.8494C37.8231 52.7241 38.36 53.2596 38.2342 53.8679L37.2823 58.1686C37.1564 58.7769 37.6934 59.3125 38.3024 59.1872L42.5981 58.2644C43.2071 58.1391 43.744 58.6747 43.6182 59.283L42.6663 63.5837C42.5405 64.192 43.0774 64.7276 43.6864 64.6023L47.9821 63.6795C48.5911 63.5542 49.1281 64.0898 49.0022 64.6981L48.0503 68.9988C47.9245 69.6071 48.4614 70.1427 49.0704 70.0174L53.3662 69.0946C53.9752 68.9693 54.5121 69.5049 54.3863 70.1132L53.4344 74.4139C53.3085 75.0222 53.8455 75.5578 54.4545 75.4325L58.7502 74.5097C59.3592 74.3844 59.8962 74.92 59.7704 75.5283L58.8184 79.829C58.6926 80.4373 59.2295 80.9728 59.8385 80.8475L64.1342 79.9248C64.7432 79.7995 65.2794 80.3447 65.1536 80.953L64.1936 85.2337C64.0677 85.842 64.6039 86.3872 65.2129 86.2619L69.5087 85.3391C70.1177 85.2138 70.6546 85.7494 70.5288 86.3577L69.5768 90.6584C69.451 91.2667 69.988 91.8022 70.597 91.6769L74.8927 90.7542C75.5017 90.6289 76.0387 91.1645 75.9129 91.7727L74.9617 96.0638C74.8255 96.681 75.372 97.2173 75.981 97.092L77.3285 96.7938C78.1637 96.6189 78.7199 97.6391 78.1117 98.2379L78.111 98.2475Z" fill="url(#paint4_linear_2762_13891)"/>
<path opacity="0.21" d="M78.111 98.2475L46.4406 129.719L-19.3241 195.066C-19.4396 195.183 -19.5905 195.258 -19.7576 195.293L-24.7414 196.363C-25.3504 196.489 -25.8866 195.944 -25.7607 195.335L-24.8008 191.055C-24.6749 190.446 -25.2111 189.901 -25.8201 190.026L-30.1158 190.949C-30.7248 191.074 -31.2618 190.539 -31.1359 189.931L-30.184 185.63C-30.0582 185.022 -30.5951 184.486 -31.2041 184.611L-35.4999 185.534C-36.1089 185.659 -36.6458 185.124 -36.52 184.515L-35.5681 180.215C-35.4422 179.607 -35.9792 179.071 -36.5882 179.196L-40.8839 180.119C-41.4929 180.244 -42.0299 179.709 -41.9041 179.1L-40.9521 174.8C-40.8263 174.191 -41.3632 173.656 -41.9722 173.781L-46.268 174.704C-46.877 174.829 -47.4139 174.294 -47.288 173.685L-46.3361 169.385C-46.2103 168.776 -46.7472 168.241 -47.3562 168.366L-51.652 169.289C-52.261 169.414 -52.7979 168.879 -52.6721 168.27L-51.7202 163.97C-51.5943 163.361 -52.1313 162.826 -52.7403 162.951L-57.036 163.874C-57.645 163.999 -58.1812 163.454 -58.0554 162.846L-57.0954 158.565C-56.9695 157.957 -57.5057 157.411 -58.1147 157.537L-62.4105 158.459C-63.0195 158.585 -63.5564 158.049 -63.4305 157.441L-62.4787 153.14C-62.3528 152.532 -62.8897 151.996 -63.4987 152.122L-67.7945 153.044C-68.4035 153.17 -68.9404 152.634 -68.8138 152.016L-67.9697 148.219C-67.9279 148.058 -67.8572 147.899 -67.7328 147.793L2.96307 77.5544L30.9599 49.7416C31.5681 49.1428 32.5866 49.6975 32.3943 50.5324L31.899 52.744C31.7731 53.3523 32.3093 53.8975 32.9183 53.7722L37.2141 52.8494C37.8231 52.7241 38.36 53.2596 38.2342 53.8679L37.2823 58.1686C37.1564 58.7769 37.6934 59.3125 38.3024 59.1872L42.5981 58.2644C43.2071 58.1391 43.744 58.6747 43.6182 59.283L42.6663 63.5837C42.5405 64.192 43.0774 64.7276 43.6864 64.6023L47.9821 63.6795C48.5911 63.5542 49.1281 64.0898 49.0022 64.6981L48.0503 68.9988C47.9245 69.6071 48.4614 70.1427 49.0704 70.0174L53.3662 69.0946C53.9752 68.9693 54.5121 69.5049 54.3863 70.1132L53.4344 74.4139C53.3085 75.0222 53.8455 75.5578 54.4545 75.4325L58.7502 74.5097C59.3592 74.3844 59.8962 74.92 59.7704 75.5283L58.8184 79.829C58.6926 80.4373 59.2295 80.9728 59.8385 80.8475L64.1342 79.9248C64.7432 79.7995 65.2794 80.3447 65.1536 80.953L64.1936 85.2337C64.0677 85.842 64.6039 86.3872 65.2129 86.2619L69.5087 85.3391C70.1177 85.2138 70.6546 85.7494 70.5288 86.3577L69.5768 90.6584C69.451 91.2667 69.988 91.8022 70.597 91.6769L74.8927 90.7542C75.5017 90.6289 76.0387 91.1645 75.9129 91.7727L74.9617 96.0638C74.8255 96.681 75.372 97.2173 75.981 97.092L77.3285 96.7938C78.1637 96.6189 78.7199 97.6391 78.1117 98.2379L78.111 98.2475Z" fill="#E6B730"/>
<g opacity="0.45">
<path fill-rule="evenodd" clip-rule="evenodd" d="M78.111 98.2475L46.4406 129.719L10.2996 165.635C-10.2779 159.442 -28.6646 132.7 -24.1488 104.568L3.00875 77.587L31.0056 49.7742C31.6138 49.1754 32.6323 49.7301 32.44 50.565L31.9446 52.7766C31.8188 53.3849 32.355 53.9301 32.964 53.8048L37.2598 52.882C37.8688 52.7567 38.4057 53.2923 38.2799 53.9006L37.3279 58.2013C37.2021 58.8096 37.7391 59.3451 38.3481 59.2198L42.6438 58.297C43.2528 58.1718 43.7898 58.7073 43.6639 59.3156L42.712 63.6163C42.5861 64.2246 43.1231 64.7602 43.7321 64.6349L48.0279 63.7121C48.6369 63.5868 49.1738 64.1224 49.0479 64.7307L48.096 69.0314C47.9701 69.6397 48.5071 70.1753 49.1161 70.05L53.4119 69.1272C54.0209 69.0019 54.5578 69.5375 54.432 70.1458L53.48 74.4465C53.3542 75.0548 53.8912 75.5904 54.5002 75.4651L58.7959 74.5423C59.4049 74.417 59.9419 74.9526 59.816 75.5609L58.8641 79.8616C58.7383 80.4699 59.2752 81.0055 59.8842 80.8802L64.18 79.9574C64.789 79.8321 65.3251 80.3773 65.1993 80.9856L64.2393 85.2663C64.1135 85.8746 64.6496 86.4198 65.2586 86.2945L69.5544 85.3717C70.1634 85.2464 70.7003 85.782 70.5745 86.3903L69.6225 90.691C69.4967 91.2993 70.0337 91.8349 70.6427 91.7096L74.9384 90.7868C75.5474 90.6615 76.0844 91.1971 75.9585 91.8054L75.0074 96.0965C74.8711 96.7136 75.4177 97.2499 76.0267 97.1246L77.3742 96.8264C78.2093 96.6515 78.7656 97.6717 78.1574 98.2705L78.111 98.2475Z" fill="#F0BF35"/>
</g>
<path fill-rule="evenodd" clip-rule="evenodd" d="M7.27816 111.492C8.64525 111.553 9.82899 112.7 9.92255 114.07L10.5876 124.5C11.0038 128.243 9.9407 129.337 6.11516 129.089L-0.424933 128.838C-1.79278 128.787 -2.97652 127.639 -3.07009 126.269C-3.16442 124.909 -2.13239 123.842 -0.754936 123.894L5.63157 124.133L4.97262 113.868C4.88866 112.499 5.93029 111.433 7.28854 111.483L7.27816 111.492Z" fill="#FFEAB0"/>
<g opacity="0.35">
<path fill-rule="evenodd" clip-rule="evenodd" d="M78.1109 98.2475L46.4406 129.719C30.2077 123.322 8.79013 101.265 10.8891 69.7621L31.0056 49.7742C31.6138 49.1754 32.6322 49.7301 32.44 50.565L31.9446 52.7766C31.8188 53.3849 32.355 53.9301 32.964 53.8048L37.2597 52.882C37.8688 52.7567 38.4057 53.2923 38.2799 53.9006L37.3279 58.2013C37.2021 58.8096 37.739 59.3452 38.3481 59.2199L42.6438 58.2971C43.2528 58.1718 43.7898 58.7074 43.6639 59.3157L42.712 63.6164C42.5861 64.2246 43.1231 64.7602 43.7321 64.6349L48.0279 63.7122C48.6369 63.5869 49.1738 64.1224 49.0479 64.7307L48.096 69.0314C47.9701 69.6397 48.5071 70.1753 49.1161 70.05L53.4119 69.1272C54.0209 69.0019 54.5578 69.5375 54.432 70.1458L53.48 74.4465C53.3542 75.0548 53.8912 75.5904 54.5002 75.4651L58.7959 74.5423C59.4049 74.417 59.9419 74.9526 59.816 75.5609L58.8641 79.8616C58.7382 80.4699 59.2752 81.0055 59.8842 80.8802L64.18 79.9574C64.789 79.8321 65.3251 80.3773 65.1993 80.9856L64.2393 85.2663C64.1135 85.8746 64.6496 86.4198 65.2586 86.2945L69.5544 85.3717C70.1634 85.2464 70.7003 85.782 70.5745 86.3903L69.6225 90.691C69.4967 91.2993 70.0337 91.8349 70.6427 91.7096L74.9384 90.7868C75.5474 90.6615 76.0844 91.1971 75.9585 91.8054L75.0074 96.0965C74.8711 96.7136 75.4177 97.25 76.0267 97.1247L77.3742 96.8264C78.2093 96.6516 78.7656 97.6718 78.1574 98.2705L78.1109 98.2475Z" fill="#FFCA3A"/>
</g>
<path d="M-26.7604 180.502L-52.7442 154.284L-51.9345 153.46C-48.4319 149.885 -48.4433 144.096 -51.9564 140.541L-52.6363 139.859L-51.954 139.179L22.5038 65.385L23.1752 66.1728C23.2282 66.235 23.2819 66.2876 23.3453 66.341C26.9207 69.8437 32.7081 69.8418 36.2645 66.319L36.9468 65.6392L62.8856 91.8151L62.0974 92.612C58.5947 96.1874 58.6062 101.976 62.1194 105.531L62.7992 106.214L62.1169 106.893L-12.3831 180.732L-13.0514 179.906C-13.0514 179.906 -13.1229 179.832 -13.159 179.801C-16.7343 176.298 -22.5225 176.309 -26.0782 179.823L-26.7604 180.502ZM-50.0562 154.257L-26.7194 177.81C-22.5693 174.354 -16.4186 174.4 -12.316 177.955L60.1165 106.173C56.6877 102.045 56.7112 95.9405 60.2072 91.8428L36.9147 68.3419C32.7446 71.806 26.5658 71.7477 22.4662 68.1548L-49.9344 139.9C-46.4967 144.039 -46.5313 150.162 -50.0473 154.268L-50.0562 154.257Z" fill="#FFD14A"/>
<path opacity="0.6" d="M46.6093 63.5699C38.0197 52.6818 22.0921 50.5699 10.8833 58.9407C-0.469953 67.4256 -2.64552 83.4253 6.14573 94.5711C14.937 105.717 31.2036 107.576 42.3455 98.8324C53.3431 90.2032 55.1893 74.4573 46.6093 63.5699Z" fill="url(#paint5_radial_2762_13891)"/>
<path d="M33.774 84.4482C31.5491 86.5411 31.4404 90.4453 33.5268 93.1142C31.4404 90.4453 27.9131 89.9705 25.6882 92.0634C27.9131 89.9705 28.0219 86.0663 25.9354 83.3974C28.0219 86.0663 31.5491 86.5411 33.774 84.4482Z" fill="#FFE46E"/>
<path d="M38.9152 72.086C36.0844 74.7488 36.0984 79.8995 38.9385 83.5367C36.0984 79.8995 31.4664 79.1047 28.6356 81.7676C31.4664 79.1047 31.4523 73.954 28.6123 70.3168C31.4523 73.954 36.0844 74.7488 38.9152 72.086Z" fill="#FFE46E"/>
<path opacity="0.6" d="M1.08238 153.895C-6.37528 144.44 -20.2272 142.59 -29.9579 149.871C-39.8217 157.248 -41.7134 171.145 -34.0814 180.836C-26.4397 190.528 -12.2983 192.139 -2.61998 184.545C7.05836 176.951 8.53928 163.359 1.08162 153.904L1.08238 153.895Z" fill="url(#paint6_radial_2762_13891)"/>
<path d="M5.02466 139.968C2.97978 139.805 0.930287 139.458 -1.08624 138.939C-7.82669 137.203 -13.8379 133.593 -18.4554 128.5L-18.9436 127.959L-18.7997 127.246C-17.4596 120.503 -14.182 114.301 -9.29258 109.329C-4.40313 104.357 1.72348 100.952 8.44876 99.4891L9.15681 99.3331L9.70794 99.8118C14.8825 104.341 18.6016 110.28 20.4622 116.989C22.3236 123.688 22.2001 130.682 20.1034 137.22L20.0006 137.54L19.5264 138.034L19.1463 138.197C14.5976 139.747 9.80719 140.331 5.03581 139.95L5.02466 139.968ZM-15.8321 127.106C-11.661 131.497 -6.33534 134.617 -0.37139 136.156C5.58296 137.694 11.7697 137.531 17.5483 135.702C19.2684 129.888 19.3172 123.709 17.6649 117.78C16.0221 111.852 12.8005 106.58 8.33449 102.494C2.44328 103.918 -2.93038 106.967 -7.24277 111.367C-11.5552 115.766 -14.5195 121.191 -15.8225 127.107L-15.8321 127.106Z" fill="#FFD14A"/>
<path d="M17.7253 19.7492C15.0285 19.7658 12.7175 21.7262 12.2829 24.3871C12.2662 21.6902 10.3058 19.3792 7.64496 18.9446C10.3419 18.928 12.6528 16.9676 13.0874 14.3067C13.1041 17.0036 15.0645 19.3146 17.7253 19.7492Z" fill="#FFCE00"/>
<path d="M12.0101 27.8048C11.8949 27.7956 11.8065 27.692 11.8157 27.5768L12.3429 20.9717C12.3521 20.8565 12.4558 20.7682 12.571 20.7774C12.6862 20.7866 12.7745 20.8902 12.7653 21.0054L12.2381 27.6105C12.2289 27.7257 12.1253 27.814 12.0101 27.8048Z" fill="#FFCE00"/>
<path d="M11.0178 19.4167L4.41269 18.8895C4.29749 18.8803 4.20918 18.7766 4.21837 18.6614C4.22757 18.5462 4.33121 18.4579 4.44641 18.4671L11.0515 18.9942C11.1667 19.0034 11.255 19.1071 11.2459 19.2223C11.2367 19.3375 11.133 19.4258 11.0178 19.4167Z" fill="#FFCE00"/>
<path d="M12.8009 17.8972C12.6856 17.888 12.5973 17.7844 12.6065 17.6692L13.1337 11.0641C13.1429 10.9489 13.2465 10.8606 13.3618 10.8698C13.477 10.879 13.5653 10.9826 13.5561 11.0978L13.0289 17.7029C13.0197 17.8181 12.9161 17.9064 12.8009 17.8972Z" fill="#FFCE00"/>
<path d="M20.9255 20.2074L14.3204 19.6802C14.2052 19.671 14.1169 19.5674 14.1261 19.4522C14.1353 19.337 14.2389 19.2486 14.3541 19.2578L20.9592 19.785C21.0744 19.7942 21.1628 19.8979 21.1536 20.0131C21.1444 20.1283 21.0407 20.2166 20.9255 20.2074Z" fill="#FFCE00"/>
<path d="M73.958 69.3349C71.9705 69.3472 70.2674 70.7919 69.9471 72.7529C69.9349 70.7654 68.4901 69.0623 66.5292 68.742C68.5167 68.7297 70.2198 67.285 70.5401 65.324C70.5523 67.3115 71.997 69.0146 73.958 69.3349Z" fill="#FFCE00"/>
<path d="M69.746 75.2716C69.6611 75.2648 69.596 75.1884 69.6028 75.1035L69.9913 70.2359C69.9981 70.151 70.0745 70.0858 70.1594 70.0926C70.2443 70.0994 70.3094 70.1758 70.3026 70.2607L69.9141 75.1284C69.9073 75.2133 69.8309 75.2784 69.746 75.2716Z" fill="#FFCE00"/>
<path d="M69.0148 69.0899L64.1471 68.7014C64.0622 68.6946 63.9971 68.6182 64.0039 68.5333C64.0106 68.4484 64.087 68.3833 64.1719 68.39L69.0396 68.7786C69.1245 68.7853 69.1896 68.8617 69.1829 68.9466C69.1761 69.0315 69.0997 69.0966 69.0148 69.0899Z" fill="#FFCE00"/>
<path d="M70.3288 67.9701C70.2439 67.9633 70.1788 67.8869 70.1855 67.802L70.5741 62.9344C70.5808 62.8495 70.6573 62.7844 70.7422 62.7911C70.8271 62.7979 70.8921 62.8743 70.8854 62.9592L70.4969 67.8269C70.4901 67.9118 70.4137 67.9769 70.3288 67.9701Z" fill="#FFCE00"/>
<path d="M76.3163 69.6726L71.4487 69.2841C71.3638 69.2773 71.2987 69.2009 71.3054 69.116C71.3122 69.0311 71.3886 68.966 71.4735 68.9728L76.3412 69.3613C76.4261 69.3681 76.4912 69.4445 76.4844 69.5294C76.4776 69.6143 76.4012 69.6794 76.3163 69.6726Z" fill="#FFCE00"/>
<path d="M308.733 98C306.214 98.2086 304.209 100.214 304 102.733C303.791 100.214 301.786 98.2086 299.267 98C301.786 97.7915 303.791 95.7861 304 93.2674C304.209 95.7861 306.214 97.7915 308.733 98Z" fill="#0255D9"/>
<path d="M304 107C303.928 107 303.864 106.936 303.864 106.864V99.7727C303.864 99.7006 303.928 99.6364 304 99.6364C304.072 99.6364 304.136 99.7006 304.136 99.7727V106.864C304.136 106.936 304.072 107 304 107Z" fill="#0255D9"/>
<path d="M302.227 98.1363H295.136C295.064 98.1363 295 98.0722 295 98C295 97.9278 295.064 97.8636 295.136 97.8636H302.227C302.299 97.8636 302.364 97.9278 302.364 98C302.364 98.0722 302.299 98.1363 302.227 98.1363Z" fill="#0255D9"/>
<path d="M304 96.3636C303.928 96.3636 303.864 96.2995 303.864 96.2273V89.1364C303.864 89.0642 303.928 89 304 89C304.072 89 304.136 89.0642 304.136 89.1364V96.2273C304.136 96.2995 304.072 96.3636 304 96.3636Z" fill="#0255D9"/>
<path d="M312.864 98.1363H305.773C305.701 98.1363 305.636 98.0722 305.636 98C305.636 97.9278 305.701 97.8636 305.773 97.8636H312.864C312.936 97.8636 313 97.9278 313 98C313 98.0722 312.936 98.1363 312.864 98.1363Z" fill="#0255D9"/>
<path d="M246.733 7.00001C244.214 7.20857 242.209 9.21392 242 11.7326C241.791 9.21392 239.786 7.20857 237.267 7.00001C239.786 6.79146 241.791 4.78611 242 2.2674C242.209 4.78611 244.214 6.79146 246.733 7.00001Z" fill="#FFCE00"/>
<path d="M242 16C241.928 16 241.864 15.9358 241.864 15.8636V8.77271C241.864 8.70052 241.928 8.63635 242 8.63635C242.072 8.63635 242.136 8.70052 242.136 8.77271V15.8636C242.136 15.9358 242.072 16 242 16Z" fill="#FFCE00"/>
<path d="M240.227 7.13637H233.136C233.064 7.13637 233 7.0722 233 7.00001C233 6.92782 233.064 6.86365 233.136 6.86365H240.227C240.299 6.86365 240.364 6.92782 240.364 7.00001C240.364 7.0722 240.299 7.13637 240.227 7.13637Z" fill="#FFCE00"/>
<path d="M242 5.36364C241.928 5.36364 241.864 5.29947 241.864 5.22728V-1.86364C241.864 -1.93583 241.928 -2 242 -2C242.072 -2 242.136 -1.93583 242.136 -1.86364V5.22728C242.136 5.29947 242.072 5.36364 242 5.36364Z" fill="#FFCE00"/>
<path d="M250.864 7.13637H243.773C243.701 7.13637 243.636 7.0722 243.636 7.00001C243.636 6.92782 243.701 6.86365 243.773 6.86365H250.864C250.936 6.86365 251 6.92782 251 7.00001C251 7.0722 250.936 7.13637 250.864 7.13637Z" fill="#FFCE00"/>
<path d="M298.475 183.829C296.001 184.042 294.024 186.01 293.82 188.484C293.607 186.01 291.639 184.033 289.165 183.829C291.639 183.616 293.616 181.648 293.82 179.174C294.033 181.648 296.001 183.625 298.475 183.829Z" fill="#FFCE00"/>
<path d="M293.82 191.64C293.714 191.64 293.625 191.551 293.625 191.445V185.345C293.625 185.239 293.714 185.15 293.82 185.15C293.926 185.15 294.015 185.239 294.015 185.345V191.445C294.015 191.551 293.926 191.64 293.82 191.64Z" fill="#FFCE00"/>
<path d="M292.295 184.015H286.195C286.089 184.015 286 183.926 286 183.82C286 183.714 286.089 183.625 286.195 183.625H292.295C292.401 183.625 292.49 183.714 292.49 183.82C292.49 183.926 292.401 184.015 292.295 184.015Z" fill="#FFCE00"/>
<path d="M293.82 182.49C293.714 182.49 293.625 182.401 293.625 182.295V176.195C293.625 176.089 293.714 176 293.82 176C293.926 176 294.015 176.089 294.015 176.195V182.295C294.015 182.401 293.926 182.49 293.82 182.49Z" fill="#FFCE00"/>
<path d="M301.445 184.015H295.345C295.239 184.015 295.15 183.926 295.15 183.82C295.15 183.714 295.239 183.625 295.345 183.625H301.445C301.551 183.625 301.64 183.714 301.64 183.82C301.64 183.926 301.551 184.015 301.445 184.015Z" fill="#FFCE00"/>
<path d="M146.143 185.654C142.347 185.98 139.313 189.001 139 192.797C138.673 189.001 135.653 185.967 131.857 185.654C135.653 185.327 138.687 182.307 139 178.511C139.326 182.307 142.347 185.341 146.143 185.654Z" fill="#3F8B58"/>
<path d="M139 197.64C138.837 197.64 138.701 197.504 138.701 197.341V187.98C138.701 187.817 138.837 187.681 139 187.681C139.163 187.681 139.299 187.817 139.299 187.98V197.341C139.299 197.504 139.163 197.64 139 197.64Z" fill="#3F8B58"/>
<path d="M136.66 185.939H127.299C127.136 185.939 127 185.803 127 185.64C127 185.477 127.136 185.341 127.299 185.341H136.66C136.823 185.341 136.959 185.477 136.959 185.64C136.959 185.803 136.823 185.939 136.66 185.939Z" fill="#3F8B58"/>
<path d="M139 183.599C138.837 183.599 138.701 183.463 138.701 183.3V173.939C138.701 173.776 138.837 173.64 139 173.64C139.163 173.64 139.299 173.776 139.299 173.939V183.3C139.299 183.463 139.163 183.599 139 183.599Z" fill="#3F8B58"/>
<path d="M150.701 185.939H141.34C141.177 185.939 141.041 185.803 141.041 185.64C141.041 185.477 141.177 185.341 141.34 185.341H150.701C150.864 185.341 151 185.477 151 185.64C151 185.803 150.864 185.939 150.701 185.939Z" fill="#3F8B58"/>
<path d="M137.562 13.9962C134.605 14.2458 132.246 16.6054 131.996 19.57C131.747 16.6054 129.387 14.2458 126.43 13.9962C129.387 13.7466 131.747 11.3871 131.996 8.42249C132.246 11.3871 134.605 13.7466 137.562 13.9962Z" fill="#E97AF3"/>
<path d="M131.989 25C131.837 25 131.716 24.879 131.716 24.7277V16.144C131.716 15.9928 131.837 15.8718 131.989 15.8718C132.14 15.8718 132.261 15.9928 132.261 16.144V24.7277C132.261 24.879 132.14 25 131.989 25Z" fill="#E97AF3"/>
<path d="M129.848 14.276H121.272C121.121 14.276 121 14.155 121 14.0038C121 13.8525 121.121 13.7315 121.272 13.7315H129.848C130 13.7315 130.121 13.8525 130.121 14.0038C130.121 14.155 130 14.276 129.848 14.276Z" fill="#E97AF3"/>
<path d="M131.989 12.1282C131.837 12.1282 131.716 12.0072 131.716 11.856V3.27226C131.716 3.121 131.837 3 131.989 3C132.14 3 132.261 3.121 132.261 3.27226V11.856C132.261 12.0072 132.14 12.1282 131.989 12.1282Z" fill="#E97AF3"/>
<path d="M142.713 14.2684H134.129C133.978 14.2684 133.857 14.1474 133.857 13.9962C133.857 13.8449 133.978 13.7239 134.129 13.7239H142.713C142.864 13.7239 142.985 13.8449 142.985 13.9962C142.985 14.1474 142.864 14.2684 142.713 14.2684Z" fill="#E97AF3"/>
</g>
<defs>
<linearGradient id="paint0_linear_2762_13891" x1="-22.197" y1="146.085" x2="40.9436" y2="45.099" gradientUnits="userSpaceOnUse">
<stop offset="0.1" stop-color="#99601A"/>
<stop offset="0.45" stop-color="#D58C27"/>
<stop offset="0.67" stop-color="#F7B60F"/>
<stop offset="0.89" stop-color="#E49826"/>
<stop offset="0.92" stop-color="#D78D27"/>
<stop offset="0.96" stop-color="#C78028"/>
<stop offset="1" stop-color="#C17B28"/>
</linearGradient>
<linearGradient id="paint1_linear_2762_13891" x1="-6.11243" y1="166.566" x2="134.216" y2="96.0591" gradientUnits="userSpaceOnUse">
<stop offset="0.04" stop-color="#704613"/>
<stop offset="0.55" stop-color="#AD6F1A"/>
<stop offset="0.7" stop-color="#F7B60F"/>
<stop offset="0.89" stop-color="#E49826"/>
<stop offset="0.92" stop-color="#D78D27"/>
<stop offset="0.96" stop-color="#C78028"/>
<stop offset="1" stop-color="#C17B28"/>
</linearGradient>
<linearGradient id="paint2_linear_2762_13891" x1="10.801" y1="148.216" x2="144.1" y2="67.6122" gradientUnits="userSpaceOnUse">
<stop stop-color="#8C5818"/>
<stop offset="0.45" stop-color="#D58C27"/>
<stop offset="0.67" stop-color="#F7B60F"/>
<stop offset="0.89" stop-color="#E49826"/>
<stop offset="0.92" stop-color="#D78D27"/>
<stop offset="0.96" stop-color="#C78028"/>
<stop offset="1" stop-color="#C17B28"/>
</linearGradient>
<linearGradient id="paint3_linear_2762_13891" x1="-11.4429" y1="159.755" x2="93.9023" y2="52.6785" gradientUnits="userSpaceOnUse">
<stop offset="0.1" stop-color="#99601A"/>
<stop offset="0.42" stop-color="#D58C27"/>
<stop offset="0.57" stop-color="#F7B60F"/>
<stop offset="0.66" stop-color="#D78D27"/>
<stop offset="0.96" stop-color="#C78028"/>
<stop offset="1" stop-color="#C17B28"/>
</linearGradient>
<linearGradient id="paint4_linear_2762_13891" x1="-46.394" y1="175.651" x2="56.2985" y2="71.0532" gradientUnits="userSpaceOnUse">
<stop stop-color="#99601A"/>
<stop offset="0.21" stop-color="#D58C27"/>
<stop offset="0.41" stop-color="#F7B60F"/>
<stop offset="0.89" stop-color="#E49826"/>
<stop offset="0.92" stop-color="#D78D27"/>
<stop offset="0.96" stop-color="#C78028"/>
<stop offset="1" stop-color="#C17B28"/>
</linearGradient>
<radialGradient id="paint5_radial_2762_13891" cx="0" cy="0" r="1" gradientUnits="userSpaceOnUse" gradientTransform="translate(398.486 1025.4) rotate(-111.747) scale(25.6471 24.92)">
<stop stop-color="#E8B923"/>
<stop offset="0.77" stop-color="#E8B923" stop-opacity="0"/>
</radialGradient>
<radialGradient id="paint6_radial_2762_13891" cx="0" cy="0" r="1" gradientUnits="userSpaceOnUse" gradientTransform="translate(355.794 1114.78) rotate(-111.747) scale(22.5695 21.9296)">
<stop stop-color="#E8B923"/>
<stop offset="0.77" stop-color="#E8B923" stop-opacity="0"/>
</radialGradient>
<clipPath id="clip0_2762_13891">
<rect width="320" height="194" fill="white"/>
</clipPath>
</defs>
</svg>
