<svg width="320" height="194" fill="none" xmlns="http://www.w3.org/2000/svg">
  <g clip-path="url(#a)">
    <path fill="#031D76" d="M0 0h320v194H0z"/>
    <path opacity=".57" d="M337-1H-13v299h350V-1Z" fill="url(#b)"/>
    <g style="mix-blend-mode:screen">
      <path d="m290.66 20.93 2.16-.86-2.16-.86-.86-2.15-.86 2.15-2.15.86 2.15.86.86 2.16.86-2.16ZM231.5 59.5l2.31-.96-2.31-.98-.93-2.43-.92 2.43-2.32.98 2.32.97.92 2.43.93-2.43ZM79.66 46.81l1.83-.73-1.83-.72-.72-1.83-.73 1.83-1.83.72 1.83.73.73 1.83.72-1.83ZM119.4 18.37l1.82-.73-1.83-.72-.73-1.83-.72 1.83-1.83.72 1.83.73.72 1.83.73-1.83Z" fill="#E19119"/>
      <path d="m29.72 29.45 1.83-.73-1.83-.73-.73-1.83-.73 1.83-1.82.73 1.82.73.73 1.82.73-1.82ZM176.52 21.3l2.98-1.19-2.98-1.19-1.19-2.98-1.19 2.98-2.98 1.2 2.98 1.18 1.19 3 1.19-3ZM64.8 65.64a1.27 1.27 0 1 0-.01-2.55 1.27 1.27 0 0 0 0 2.55ZM117.39 76.3a1.27 1.27 0 1 0 0-2.55 1.27 1.27 0 0 0 0 2.55ZM297.6 33.27a1.27 1.27 0 1 0 0-2.54 1.27 1.27 0 0 0 0 2.54ZM173.65 58.54a1.02 1.02 0 1 0 0-2.05 1.02 1.02 0 0 0 0 2.05ZM11.8 13.55a1.27 1.27 0 1 0 0-2.55 1.27 1.27 0 0 0 0 2.55ZM100.74 56.79a.85.85 0 1 0 0-1.7.85.85 0 0 0 0 1.7ZM50.8 36.73a.85.85 0 1 0 0-1.71.85.85 0 0 0 0 1.7ZM152.95 55.94a1.27 1.27 0 1 0 0-2.54 1.27 1.27 0 0 0 0 2.54ZM90.86 37.7a.85.85 0 1 0 0-1.7.85.85 0 0 0 0 1.7ZM40.92 17.64a.85.85 0 1 0 0-1.7.85.85 0 0 0 0 1.7ZM108.14 32.08a.85.85 0 1 0 0-1.71.85.85 0 0 0 0 1.7ZM98.26 13a.85.85 0 1 0 0-1.71.85.85 0 0 0 0 1.7ZM198.53 48.31a1.02 1.02 0 1 0 0-2.04 1.02 1.02 0 0 0 0 2.04ZM203.3 24.23a1.27 1.27 0 1 0 0-2.54 1.27 1.27 0 0 0 0 2.54Z" fill="#E0E0D3"/>
      <path d="M228.61 35.24a1.27 1.27 0 1 0 0-2.55 1.27 1.27 0 0 0 0 2.55ZM273.71 46.86a1.27 1.27 0 1 0 0-2.55 1.27 1.27 0 0 0 0 2.55Z" fill="#E19119"/>
      <path d="M40.62 63.7c.35 0 .64-.29.64-.63a.64.64 0 0 0-.64-.63.64.64 0 0 0-.65.63c0 .35.29.63.65.63ZM136.49 68.05c.35 0 .64-.28.64-.63a.64.64 0 0 0-.64-.63.64.64 0 0 0-.65.63c0 .35.29.63.65.63ZM134.53 47.05c.36 0 .64-.29.64-.63a.64.64 0 0 0-.64-.63.64.64 0 0 0-.64.63c0 .34.28.63.64.63ZM145.97 16.57c.35 0 .64-.29.64-.63a.64.64 0 0 0-.64-.63.64.64 0 0 0-.64.63c0 .35.28.63.64.63ZM260.16 32.98a1.27 1.27 0 1 0 0-2.54 1.27 1.27 0 0 0 0 2.54ZM243.7 45.1c.36 0 .64-.3.64-.63a.64.64 0 0 0-.64-.63.64.64 0 0 0-.64.63c0 .34.28.63.64.63ZM241.74 24.09c.36 0 .64-.29.64-.63a.64.64 0 0 0-.64-.63.64.64 0 0 0-.64.63c0 .34.28.63.64.63ZM302.43 25.03c.36 0 .64-.29.64-.63a.64.64 0 0 0-.64-.63.64.64 0 0 0-.64.63c0 .35.29.63.64.63ZM177.23 52.06c.28 0 .51-.23.51-.5a.51.51 0 1 0-.5.5ZM259 64.8a1.02 1.02 0 1 0 0-2.05 1.02 1.02 0 0 0 0 2.04ZM283.88 54.57a1.02 1.02 0 1 0 0-2.05 1.02 1.02 0 0 0 0 2.05ZM262.57 58.32c.29 0 .52-.24.52-.52a.51.51 0 1 0-.52.52Z" fill="#E0E0D3"/>
    </g>
    <g style="mix-blend-mode:screen" opacity=".5">
      <path d="m314.66 94.93 2.16-.86-2.16-.86-.86-2.15-.86 2.15-2.15.86 2.15.86.86 2.16.86-2.16ZM255.5 133.5l2.31-.97-2.31-.97-.93-2.43-.92 2.44-2.32.97 2.32.97.92 2.43.93-2.43ZM103.66 120.81l1.83-.73-1.83-.72-.72-1.83-.73 1.83-1.83.72 1.83.73.73 1.83.72-1.83ZM143.4 92.37l1.82-.73-1.83-.72-.73-1.83-.72 1.83-1.83.72 1.82.73.73 1.83.73-1.83Z" fill="#E19119"/>
      <path d="m53.72 103.44 1.83-.72-1.83-.73-.73-1.83-.73 1.83-1.82.73 1.82.72.73 1.83.73-1.83ZM200.52 95.3l2.98-1.19-2.98-1.19-1.19-2.98-1.19 2.98-2.98 1.2 2.98 1.18 1.19 3 1.19-3ZM88.8 139.64a1.27 1.27 0 1 0-.01-2.55 1.27 1.27 0 0 0 0 2.55ZM141.39 150.3a1.27 1.27 0 1 0 0-2.55 1.27 1.27 0 0 0 0 2.55ZM197.65 132.53a1.02 1.02 0 1 0 0-2.04 1.02 1.02 0 0 0 0 2.04ZM35.8 87.55a1.27 1.27 0 1 0 0-2.55 1.27 1.27 0 0 0 0 2.55ZM124.74 130.79a.85.85 0 1 0 0-1.7.85.85 0 0 0 0 1.7ZM74.8 110.73a.85.85 0 1 0 0-1.71.85.85 0 0 0 0 1.7ZM176.95 129.94a1.27 1.27 0 1 0 0-2.54 1.27 1.27 0 0 0 0 2.54ZM114.86 111.7a.85.85 0 1 0 0-1.7.85.85 0 0 0 0 1.7ZM64.92 91.64a.85.85 0 1 0 0-1.7.85.85 0 0 0 0 1.7ZM132.14 106.08a.85.85 0 1 0 0-1.71.85.85 0 0 0 0 1.7ZM122.26 87a.85.85 0 1 0 0-1.71.85.85 0 0 0 0 1.7ZM222.53 122.31a1.02 1.02 0 1 0 0-2.04 1.02 1.02 0 0 0 0 2.04ZM227.3 98.23a1.27 1.27 0 1 0 0-2.54 1.27 1.27 0 0 0 0 2.54Z" fill="#E0E0D3"/>
      <path d="M252.61 109.24a1.27 1.27 0 1 0 0-2.55 1.27 1.27 0 0 0 0 2.55ZM297.71 120.86a1.27 1.27 0 1 0 0-2.55 1.27 1.27 0 0 0 0 2.55Z" fill="#E19119"/>
      <path d="M21.64 100.8c.36 0 .64-.3.64-.64a.64.64 0 0 0-.64-.63.64.64 0 0 0-.64.63c0 .35.28.63.64.63ZM64.62 137.7c.35 0 .64-.29.64-.63a.64.64 0 0 0-.64-.63.64.64 0 0 0-.65.63c0 .35.29.63.65.63ZM160.49 142.06c.35 0 .64-.3.64-.64a.64.64 0 0 0-.64-.63.64.64 0 0 0-.65.63c0 .35.29.64.65.64ZM158.53 121.05c.36 0 .64-.29.64-.63a.64.64 0 0 0-.64-.63.64.64 0 0 0-.64.63c0 .34.28.63.64.63ZM169.97 90.57c.35 0 .64-.29.64-.63a.64.64 0 0 0-.64-.63.64.64 0 0 0-.64.63c0 .35.28.63.64.63ZM284.16 106.98a1.27 1.27 0 1 0 0-2.54 1.27 1.27 0 0 0 0 2.55ZM267.7 119.1c.36 0 .64-.3.64-.63a.64.64 0 0 0-.64-.64.64.64 0 0 0-.64.64c0 .34.28.63.64.63ZM265.74 98.09c.36 0 .64-.29.64-.63a.64.64 0 0 0-.64-.63.64.64 0 0 0-.64.63c0 .34.28.63.64.63ZM201.23 126.06c.28 0 .51-.23.51-.5a.51.51 0 1 0-.5.5ZM283 138.8a1.02 1.02 0 1 0 0-2.05 1.02 1.02 0 0 0 0 2.04ZM307.88 128.57a1.02 1.02 0 1 0 0-2.05 1.02 1.02 0 0 0 0 2.05ZM286.57 132.32c.29 0 .52-.24.52-.52a.51.51 0 1 0-.52.52Z" fill="#E0E0D3"/>
    </g>
    <path d="M248.24 142.85s-.42 8.02-.22 9.56c.27 1.52-1.06 3.92-1.06 3.92 2.58 1.5 5.2.98 6.46-2.04-2.55-2.38-1.8-8.6-1.3-11.81-1.73-1.26-3.88.37-3.88.37Z" fill="#3A3D3F"/>
    <path opacity=".13" d="M250.75 153.96c.07.92.25 2.03.5 2.84a4.4 4.4 0 0 0 2.17-2.51c-1.08-.98-1.54-2.67-1.74-4.5-.42 1.31-.94 3.16-.93 4.17ZM248.8 142.51c.2 1.18.47 2.7.41 4.02 0 1.22-.64 3.53-1.23 5.39.05.2.01.36.04.5.27 1.52-1.06 3.91-1.06 3.91.66.36 1.22.59 1.83.74.43-1.6 1.07-4.5 1.21-6.11.16-1.84.47-6.52.5-8.9-.22-.03-.35 0-.56.05-.42.02-.82.19-1.13.4Z" fill="#3B2345"/>
    <path d="M291.38 192.26c-2.21 9.83-9.1 11.3-9.1 11.3s-5.24 4.71-13.58.98c-1.48 1.1-2.9 2-4.31 2.76-6.65 3.56-12.87 3.53-22.5 1.74-6.26 2.74-12.9.1-16.15-6.19-1.32-2.49-3.05-7.77-4.02-13.62-.78-4.74-1.05-9.85-.18-14.13a18.27 18.27 0 0 1 1.36-4.18c.35-.7.74-1.35 1.2-1.94a9.07 9.07 0 0 1 2.66-2.37 46.42 46.42 0 0 1 4.51-4.5c3.1-2.59 5.81-3.52 9.13-2.5 0 0 3.64-2.99 8.36-4.58a16.17 16.17 0 0 1 6.48-.94c1.52.13 3.03.53 4.48 1.34 4.2-2.93 9-1.09 12.03.58.99.54 1.79 1.06 2.32 1.4l.6-.1c5.04-.54 8.54 5.2 10.65 8.87a61.86 61.86 0 0 1 3.55 7.5 53.94 53.94 0 0 1 1.9 5.84c1.06 4.16 1.55 8.67.6 12.74Z" fill="#365363"/>
    <path opacity=".13" d="M255.24 154.09c.1.04 3.54.96 5.88 4.84 0 0 .42-2.11-1.4-3.5-1.45-.8-2.97-1.21-4.48-1.34ZM271.76 156c1.71 1.35 3.2 4.52 3.2 4.52.6-1.24-.25-3.12-.3-3.2-.19.01-.39.05-.6.09-.52-.34-1.32-.86-2.3-1.4ZM231.28 162.1c5.83-.87 7.4 5.34 7.4 5.34 1.43-7.77 9.82-12.28 10.08-12.41-4.72 1.6-8.36 4.59-8.36 4.59-3.32-1.03-6.04-.1-9.12 2.48Z" fill="#2A4563"/>
    <g opacity=".25" fill="#1A2A38">
      <path d="M241.2 169.02c.09-.01.09-.01.07-.1.22-2.52.47-5.42 1.87-7.95l-.03-.18-.18.03c-1.39 2.63-1.64 5.52-1.86 8.04.03.09.04.18.13.16ZM234.86 175.41c.1-.01.07-.1.07-.1a5.86 5.86 0 0 1 .21-2.62l.15-.76a34.85 34.85 0 0 1 1.49-6.96c-.02-.09-.02-.09-.12-.16-.1.01-.1.01-.17.12a34.76 34.76 0 0 0-1.49 6.96c-.04.28-.08.56-.14.76-.05.83-.28 1.6-.12 2.6.02.09.12.16.12.16ZM232.8 175.67c.1-.02.1-.02.07-.1.18-2.8.28-6.03 1.48-8.72l-.03-.17c-.1 0-.1 0-.18.03-1.19 2.77-1.37 6.02-1.46 8.8-.07.1.04.17.12.16-.08 0-.08 0 0 0ZM236.78 178.13c-.1.02-.1.02-.17.12-.91 3.83-.15 7.84.67 11.66l.1.63c.02.09.1.07.1.07.1-.02.08-.1.08-.1l-.1-.63c-.83-3.82-1.57-7.74-.65-11.57.07-.1.05-.2-.03-.18ZM253.38 176.65c-.14.06-.14.06-.24.23-.56 5.24 1.64 9.9 3.89 14.29l.32.73c.04.1.18.05.18.05.14-.06.1-.17.1-.17l-.32-.73c-2.25-4.39-4.4-8.95-3.84-14.18.1-.17.05-.28-.1-.22ZM265.6 177.28c.02.09.02.09 0 0l.18-.03c.35-.6-.13-2.37-.78-4.1-.15-.34-.2-.7-.24-.88-1.45-5.46-3.22-11.7-6.56-16.93-.02-.1-.1-.08-.2-.06-.08.01-.07.1-.05.2 3.34 5.23 5.2 11.45 6.55 16.84.03.17.18.52.24.88.37 1.13 1.1 3.3.73 3.83.03.18.04.27.13.25ZM256.4 158.3c0-.09 0-.09-.11-.16-.1.01-.1.01-.17.12-.01.46-.01 1.02-.07 1.76-.19 3.25-.5 8.54.57 10.02l.11.07.1-.01c.08-.02.06-.1.05-.2-.95-1.31-.66-6.7-.45-9.86-.11-.62-.04-1.28-.02-1.74ZM264.55 159.98c.15.34.3.78.44 1.03.01.1.1.07.1.07.1-.01.08-.1.07-.2-.14-.25-.3-.68-.45-1.02-.61-1.47-1.3-3.37-2.79-4.14l-.18.04.03.17c1.5.77 2.26 2.57 2.78 4.05ZM270.88 160.12c.22.24.35.5.59.82l.1.07h.1c.08-.02.07-.11.05-.2-.22-.24-.35-.5-.59-.82-.83-1.15-1.66-2.3-2.98-3.1l-.18.04.03.18c1.23.8 2.04 1.86 2.88 3.01ZM277.15 183.74c.23.72.3 1.4.51 2.35l.13.25.16.02c.16.02.2-.2.23-.43-.24-.72-.31-1.41-.51-2.35-.72-3.3-1.43-6.6-3.2-9.36l-.33-.04-.06.45c1.61 2.73 2.35 5.8 3.07 9.1ZM288.92 179c.09 0 .07-.1.07-.1-.85-4.55-2.85-11.02-7.87-15.98-.01-.1-.1-.07-.18.03-.09.02-.07.1.03.18 4.94 4.97 7.01 11.34 7.77 15.9l.18-.02ZM284.3 174.35c.06.36.22.79.28 1.15.02.09.1.07.1.07.1-.01.08-.1.07-.2-.15-.34-.21-.7-.29-1.14a3.3 3.3 0 0 0-.25-.97 30.5 30.5 0 0 0-3.27-6.45c-.01-.09-.1-.07-.19-.06-.09.02-.07.1-.06.2a29.15 29.15 0 0 1 3.27 6.44c.22.24.28.6.34.96ZM278.88 172.28c.06.36.23.79.29 1.15.01.09.1.07.1.07.1-.01.08-.1.06-.2-.15-.34-.2-.7-.28-1.14-.06-.36-.12-.72-.26-.97a30.5 30.5 0 0 0-3.26-6.45c-.02-.09-.1-.07-.2-.06-.08.02-.07.1-.05.2a29.08 29.08 0 0 1 3.26 6.44c.23.24.29.6.34.96Z"/>
    </g>
    <path opacity=".13" d="M290.07 177.07c.5 3.42.63 6.86.13 10.03-1.75 11.81-8.64 13.27-8.64 13.27s-5.08 5.46-13.69.52a31.3 31.3 0 0 1-4.22 3.14c-6.55 4-12.84 3.66-22.66 1.03-6.2 3.02-13.05-.52-16.62-8.28a51.56 51.56 0 0 1-2.65-7.57c-.97-5.88-1.15-12.35.65-17.08 1.65 5.5 4.9 11.2 11.1 14.96 7.28 4.4 26.66-3.6 30.23-19.45 0 0 13.6 14.57 15.03 2.64 0 0 7.26 4.28 8.45-.55a61.89 61.89 0 0 1 2.89 7.34Z" fill="#152635"/>
    <path opacity=".13" d="M291.38 192.26c-2.21 9.83-9.1 11.3-9.1 11.3s-5.24 4.71-13.58.98c-1.48 1.1-2.9 2-4.31 2.76-6.65 3.56-12.87 3.53-22.5 1.74-6.26 2.74-12.9.1-16.15-6.19-1.32-2.49-3.05-7.77-4.02-13.62-.78-4.74-1.05-9.85-.18-14.13 1 6.03 4.12 14.87 13.6 19.39 7.04 3.35 26.57-4.02 30.73-17.26 0 0 12.9 11.5 14.79 1.6 0 0 10.82 5 8.21-5.14a53.83 53.83 0 0 1 1.9 5.84c1.06 4.15 1.55 8.66.6 12.73Z" fill="#152635"/>
    <path d="M166.51 153.43c.66.45 1.94 1.55 3.16 2.16.57.29 1.13.47 1.6.43 1.45-.14 5.01-1.97 4.66-3.71a2.86 2.86 0 0 0-1.1-1.53 8.67 8.67 0 0 0-1.64-1.02c-.54-.25-.93-.4-.93-.4l.2-.02h.16c.38-.03 1-.04 1.48.09a6.48 6.48 0 0 1 1.37 1.04l.14.13.16.17.14.16.17.19.19.23c.1.12.18.24.27.37a10.4 10.4 0 0 1 .8 1.38l.08.17.05.11.01.03.11.25c.1.24.2.48.27.72l.06.18.1.33.11.4c.06.18.1.36.13.54l.04.17c.15.7.22 1.33.26 1.86.16 1.26-1.69 3.32-3.3 4.85-1.22 1.14-2.3 2-2.3 2l23.68-1.46s-.77-.47-1.85-1.2a49.58 49.58 0 0 1-4.02-2.97 13.88 13.88 0 0 1-2.1-2.1l-.84-1.06c-1.85-2.34-3.8-4.44-4.97-5.94-1.35-1.73-4.57-3.96-4.57-3.96s-1.28-1-2.43-1.6c-.29-.16-.57-.29-.82-.37a3.25 3.25 0 0 0-1.42.1v.01c-.3.07-.6.15-.92.25l-.35.1a22.73 22.73 0 0 0-2.15.85l-.24.1-.23.11c-.5.24-.95.5-1.3.73l-.08.05-.18.13c-.26.2-.43.38-.49.53-.39 1.04-2.14 5.75-1.17 6.42Z" fill="#3A3D3F"/>
    <path opacity=".13" d="M175.25 162.7h18.96s.32-.27.57-.66a49.76 49.76 0 0 1-4.02-2.97 13.87 13.87 0 0 1-2.1-2.1l-.84-1.06c-3.43 1.65-7.07-1.48-9.14-3.76-2.27-2.5-4.29-2.81-4.56-2.84h-.03l.02.01c.08.07.32.24.6.51.27.2.52.4.75.63l.14.13.16.17.14.16.17.19.19.23c.1.12.18.24.27.37a10.34 10.34 0 0 1 .88 1.55l.05.11.01.03.11.25a10.05 10.05 0 0 1 .33.9l.1.33.11.4c.06.18.1.37.13.54l.04.17c.15.7.22 1.33.26 1.86.17 1.27-1.68 3.32-3.3 4.85Z" fill="#3B2345"/>
    <path opacity=".28" d="M175.25 162.7h6.67c2.46-.9 3.79-1.85 2.13-2.68a15.42 15.42 0 0 1-6.59-6.65c.74 1.64 1.01 3.32 1.1 4.48.16 1.27-1.69 3.32-3.3 4.85Z" fill="#3B2345"/>
    <path d="M143.37 211.9c3.35 7.57 11.77 11.45 20.5 9.15 12.53 3.3 20.79 4.14 30.16.94 1.98-.67 4.01-1.53 6.14-2.58 10.51 5.35 18.2.66 18.2.66s9.37-.78 13.79-11.69c4.54-10.91-1.73-25.88-4.07-30.5-2.26-4.44-6.02-11.44-12.82-11.48-.27 0-.53 0-.8.03-.66-.45-1.64-1.15-2.86-1.9-3.79-2.3-9.89-5.02-15.91-2.23a16.12 16.12 0 0 0-5.75-2.1c-2.93-.5-5.95-.3-8.75.22-6.51 1.2-11.8 4.14-11.8 4.14-4.26-1.6-8.02-.9-12.5 1.64h-.02a62.23 62.23 0 0 0-6.67 4.54c-14.52 5.5-10.33 33.6-6.84 41.16Z" fill="#024"/>
    <path opacity=".13" d="M166.51 153.43c.66.45 1.94 1.55 3.16 2.16.57.29 1.13.47 1.6.43 1.45-.14 5.01-1.97 4.66-3.71a2.86 2.86 0 0 0-1.1-1.53s-.47.5-1.22.93c-1.22.68-3.17 1.17-5.09-1-3.01-3.4 4.67-6.4 5.09-6.56-.29.07-.6.15-.92.25l-.34.1-1.25.46-.37.16-.33.14-.2.09-.25.1-.22.11c-.5.25-.95.5-1.3.73l-.08.05-.18.13c-.26.2-.43.38-.5.53-.38 1.05-2.13 5.76-1.16 6.43Z" fill="#3B2345"/>
    <path opacity=".28" d="M169.1 150.66c.06.5.46.98.46.98-.22-1.99 3.63-1.88 3.63-1.88-.54-.26-.93-.4-.93-.4l.2-.02-.01-.01-2.89.27s-.52.56-.46 1.06ZM171.53 147.8c.29 1.15 2.56 1.5 2.56 1.5-1.49-3.52 1.77-4.9 1.77-4.9-.3-.15-.58-.28-.83-.36a3.24 3.24 0 0 0-1.41.1l-.01.01c-.27.06-.56.14-.86.23-.4.64-1.45 2.5-1.22 3.43Z" fill="#3B2345"/>
    <path opacity=".28" d="M169.67 155.59c.57.28 1.12.47 1.59.42 1.45-.13 5.02-1.96 4.67-3.7a2.86 2.86 0 0 0-1.1-1.53 8.66 8.66 0 0 0-1.65-1.02c-.53-.26-.93-.4-.93-.4l.2-.02.16-.01c-.73-.13-1.59-.1-2.55.27 0 0 2.78.65 3.54 2.1.13.24.2.5.2.8-.08 2.02-1.78 3.56-4.13 3.09Z" fill="#3B2345"/>
    <path opacity=".28" d="M174.09 149.3c-.99-.03-1.97-.04-2.96 0-.5.04-.99.06-1.49.17-.13.03-.3.11-.36.22-.5.82-.12 2.11.5 2.83.24.27.7.48 1.1.34.58-.16 1.34-.57 1.1-1.18a1.04 1.04 0 0 0-.46-.5c.36.27.57.75.2 1.06-.29.26-.78.47-1.21.44-.97-.27-1.28-1.85-1.13-2.62.05-.18.1-.34.33-.4 1.41-.3 2.92-.27 4.38-.35Z" fill="#3B2345"/>
    <path d="M143.37 211.9c3.35 7.57 11.77 11.45 20.5 9.15 12.53 3.3 20.79 4.14 30.16.94-1.33-.96-2.85-2-4.55-3.09-38.93-24.97-20.07-54.34-20.07-54.34-6.19-2.34-11.31.22-19.19 6.18-14.53 5.5-10.34 33.6-6.85 41.16Z" fill="#2A4563" style="mix-blend-mode:multiply" opacity=".25"/>
    <path opacity=".25" d="M189.96 160.2c.13.06 4.55 1.56 7.09 6.28 0 0 .87-2.35-1.34-4.18a16.04 16.04 0 0 0-5.75-2.1ZM211.61 164.53c2.07 1.75 3.57 5.56 3.57 5.56.98-1.33.13-3.6.1-3.7-.27 0-.54.01-.8.04-.66-.46-1.64-1.15-2.87-1.9ZM156.9 166.2c7.9-.23 9.03 7.05 9.03 7.05 3.08-8.67 14.91-12.71 15.28-12.83-6.5 1.2-11.8 4.13-11.8 4.13-4.26-1.6-8.01-.89-12.5 1.65Z" fill="#2A4563"/>
    <g opacity=".25" fill="#2A4563">
      <path d="M169.04 175.38c.12 0 .12 0 .11-.1.68-2.85 1.44-6.11 3.7-8.82l-.01-.2h-.25c-2.24 2.81-3.01 6.08-3.69 8.92 0 .1.01.2.14.2ZM159.65 181.83c.12 0 .11-.1.11-.1-.06-1.15.25-2 .67-2.95.1-.32.21-.53.31-.85.1-.32.2-.63.3-1.06a36.11 36.11 0 0 1 2.74-6.68c0-.1 0-.1-.13-.2-.12 0-.12 0-.24.12a36.23 36.23 0 0 0-3.03 7.73c-.1.32-.21.63-.32.85-.18.94-.61 1.8-.55 2.94.02.1.14.2.14.2ZM156.88 181.85c.11 0 .11 0 .1-.11.66-3.16 1.29-6.83 3.29-9.73l-.01-.2h-.24c-2 3.01-2.74 6.69-3.28 9.84-.11.1.02.2.13.2-.11 0-.11 0 0 0ZM161.78 185.18c-.12 0-.12 0-.24.11-1.8 4.25-1.4 8.91-.88 13.37l.04.72c0 .1.13.1.13.1.11 0 .1-.1.1-.1l-.03-.73c-.5-4.46-.9-9.03.9-13.27.1-.1.1-.2-.02-.2ZM163.66 188.89c0-.1 0-.1-.13-.1-.12 0-.12 0-.12.11-.05 1.05-.23 2.2-.4 3.35-.52 3.36-1.03 6.92.71 9.86 0 .1.13.1.13.1h.12c.12 0 .11-.12.1-.22-1.61-2.84-1.1-6.4-.58-9.76-.07-1.25.1-2.3.17-3.34ZM174 194.81c.11 0 .1-.1.1-.2a14.64 14.64 0 0 1-.76-4.66c0-.1-.13-.1-.13-.1-.12 0-.11.11-.11.11.1 1.77.32 3.42.77 4.76 0 .1.12.1.12.1ZM188.19 194.95c2.33-1.45 3.37-4.21 3.61-6.2 0-.1 0-.1-.13-.2-.12 0-.12 0-.24.11-.23 2.1-1.4 4.75-3.5 5.99-.12 0-.12.1 0 .2.02.1.14.1.26.1-.12 0-.12 0 0 0ZM192.07 193.21c.12 0 .24 0 .24-.11 1.16-2.76 1.62-5.07 1.25-7.34 0-.1-.13-.1-.13-.1-.12 0-.12.11-.12.11.26 2.17-.09 4.48-1.25 7.24-.12.1-.12.1.01.2ZM200.2 187.96c0 .1 0 .1 0 0h.24c.56-.66.2-2.72-.4-4.78-.15-.4-.17-.83-.2-1.03-1.1-6.4-2.5-13.74-6.15-20.14 0-.1-.12-.1-.24-.1-.12.01-.11.12-.11.22 3.64 6.4 5.17 13.72 6.15 20.04 0 .2.15.62.18 1.03.32 1.34.96 3.91.39 4.46.01.2.02.3.14.3ZM190.87 165.15c0-.1 0-.1-.13-.2-.12 0-.12 0-.24.11-.09.53-.17 1.15-.36 2-.75 3.68-1.96 9.66-.76 11.48l.13.1h.12c.11 0 .1-.11.1-.21-1.06-1.63.15-7.72.9-11.29-.05-.73.15-1.47.24-1.99ZM201.42 168.12c.15.41.3.92.44 1.23 0 .1.13.1.13.1.11 0 .1-.11.1-.21-.13-.31-.29-.83-.43-1.23-.6-1.75-1.2-4.01-3.08-5.07h-.24v.21c1.88 1.06 2.62 3.22 3.08 4.97ZM210.23 187.58c.12 0 .12 0 0 0h.24l-.01-.21a7.97 7.97 0 0 1-2.18-2.1c-.4-.5-.78-1-1.3-1.4 0-.1-.12-.1-.23.01-.12 0-.12.11 0 .21.51.4.9.9 1.3 1.4.53.71 1.18 1.61 2.18 2.1ZM215.3 189.75c.12 0 .12-.1.12-.1 0-.11 0-.11-.13-.1-2.18-.12-4.73-.42-6.39-1.9 0-.11-.13-.1-.24 0-.12 0-.11.11 0 .2 1.8 1.5 4.34 1.8 6.65 1.9ZM209.81 169.1c.26.3.4.61.67 1.02l.13.1.11-.01c.12 0 .12-.11.11-.21-.26-.3-.4-.6-.66-1.01-.93-1.42-1.86-2.84-3.5-3.91h-.23v.21a13.27 13.27 0 0 1 3.37 3.81ZM230.9 192.96c.13 0 .12-.1.12-.1-.44-5.3-2.1-12.93-8.03-19.23 0-.1-.13-.1-.24 0-.12.01-.12.12 0 .21 5.81 6.3 7.6 13.83 7.91 19.13h.25ZM226.36 203.68c.12 0 .12 0 .24-.11.52-3.46.8-6.91-.13-10.1 0-.1-.12-.1-.24-.1-.12.01-.11.12-.11.22.92 3.18.63 6.53.12 10 0 0 0 .1.12.1ZM225.49 187.06c.02.41.17.93.2 1.34 0 .1.12.1.12.1.12 0 .12-.11.11-.21-.14-.41-.17-.83-.2-1.35a3.43 3.43 0 0 0-.19-1.13 31.77 31.77 0 0 0-3.36-7.77c0-.1-.13-.1-.25-.1-.11.01-.11.12-.1.22a30.33 30.33 0 0 1 3.36 7.76c.26.3.28.72.3 1.14Z"/>
    </g>
    <path d="M-125.9 162.35c3.63 19.42 15.68 30.93 29.4 27.27 18.42 11 30.82 14.99 45.69 9.29a61.37 61.37 0 0 0 9.83-4.94c14.95 15.57 27.54 5.82 27.54 5.82s14.4.22 23.24-25.6c9.04-25.82 7.25-51.95 4.59-63.86-2.57-11.45-6.53-26.9-21.88-33.65-.91-1.26-2.34-8.4-4.82-13.74-5.13-11.02-14.7-16.1-24.4-10.62a21.9 21.9 0 0 0-8.33-6.51c-4.35-1.9-8.99-2.1-13.33-1.48h-.02C-68.5 45.8-77.13 51.8-77.13 51.8c-6.16-4.94-12.01-4.06-19.33 1.16h-.01c-3.32 2.37-6.94 5.63-11.03 9.64-23.18 10.21-22.23 80.34-18.4 99.75Z" fill="#024"/>
    <g opacity=".25" fill="#2A4563">
      <path d="M10.88 135.94c.18.02.2-.23.2-.23.36-13.14-.7-32.32-8.48-49.2.01-.25-.18-.27-.37-.03-.19-.01-.2.24-.02.52 7.6 16.86 8.85 35.8 8.3 48.91l.37.03ZM8.95 167.43c2.3-3.72 2.65-11.74 2.87-17.42-.02-1.03.14-1.81.12-2.58 0-.26 0-.26-.19-.25-.18 0-.18 0-.17.26.02.78-.14 1.82-.12 2.59-.23 5.42-.38 13.68-2.7 17.15-.17.27-.17.27.02.51-.01-.25-.01-.25.17-.26ZM1.89 161.28c.18.02.18.02.38-.22 1.45-8.4 2.54-16.83 1.77-24.9.01-.25-.18-.27-.36-.28-.18-.01-.2.24-.2.5.77 8.06-.31 16.23-1.77 24.63 0 0 0 .26.18.27ZM3.78 120.15c-.05 1.03.09 2.33.04 3.36 0 .26.18.27.18.27.18.02.2-.24.2-.5-.14-1.04-.09-2.07-.04-3.36.05-1.02.09-2.05-.06-2.84a115 115 0 0 0-3.6-19.9c0-.26-.18-.28-.36-.29-.19-.01-.2.24-.21.5 1.76 6.6 3.13 13.41 3.6 19.9.34.8.3 1.83.25 2.86Z"/>
    </g>
    <path d="M125.35 101s-5.09 8.37-5.68 10.13c-.5 1.79-3.64 3.6-3.64 3.6 2.63 3.07 6.45 3.98 9.87 1.44-2.11-3.98 2.42-10.23 4.9-13.4-1.62-2.32-5.45-1.77-5.45-1.77Z" fill="#3A3D3F"/>
    <path opacity=".13" d="M122.48 114.32a13.02 13.02 0 0 0-.93 3.33 6.6 6.6 0 0 0 4.35-1.47c-.92-1.67-.57-3.74.19-5.81-1.32 1.18-3.06 2.87-3.61 3.95ZM126.32 100.95c-.41 1.38-.9 3.17-1.72 4.54-.71 1.31-2.86 3.43-4.7 5.1-.06.24-.2.39-.23.55-.5 1.79-3.64 3.6-3.64 3.6.69.75 1.3 1.32 2.04 1.82a50.2 50.2 0 0 0 5.09-5.87 175.4 175.4 0 0 0 5.7-9.27c-.28-.15-.48-.2-.79-.26a3.96 3.96 0 0 0-1.75-.2Z" fill="#3B2345"/>
    <path d="M155.7 178.21c-8.53 9.3-18.66 7.01-18.66 7.01s-9.74 2.11-18.89-6.59c-2.61.35-5.05.53-7.37.54-10.98.1-19.36-3.44-31.35-10.77-10-.57-17.47-7.15-18.3-15.7-.39-3.42.25-10.06 2.27-16.87 1.62-5.53 4.14-11.16 7.72-15.26a21.32 21.32 0 0 1 4.2-3.7 15.27 15.27 0 0 1 7.64-2.47 71.99 71.99 0 0 1 8.63-2.29c5.63-1.03 9.83-.5 13.73 2.46 0 0 6.6-1.16 13.87-.22 3.13.4 6.38 1.2 9.27 2.64 1.98.98 3.8 2.27 5.3 3.94 7.32-.78 12.76 3.9 15.91 7.38 1.02 1.14 1.8 2.15 2.34 2.8.3.07.58.15.86.24 7.13 2.25 8.6 10.38 9.39 15.5a61.1 61.1 0 0 1 .55 10.04 52.44 52.44 0 0 1-.75 7.32c-.9 5.06-2.79 10.17-6.37 14Z" fill="#365363"/>
    <path opacity=".13" d="M128.46 116.98c.11.1 4.23 3.02 5.22 8.51 0 0 1.76-2.03.07-4.55a17.46 17.46 0 0 0-5.29-3.95ZM149.68 128.32c1.55 2.4 1.77 6.64 1.77 6.64 1.5-.99 1.42-3.5 1.41-3.6-.27-.09-.56-.17-.86-.24-.52-.66-1.3-1.67-2.32-2.8ZM91.6 112.11c8.37 2.35 6.96 9.9 6.96 9.9 6.32-7.55 20.2-7.66 20.63-7.66-7.27-.94-13.87.22-13.87.22-3.9-2.97-8.1-3.5-13.73-2.46Z" fill="#2A4563"/>
    <g opacity=".25" fill="#1A2A38">
      <path d="M101.08 125.11c.12.03.12.03.16-.07 1.72-2.58 3.68-5.54 7.01-7.47l.06-.2-.25-.07c-3.36 2.03-5.33 4.99-7.05 7.57-.03.1-.06.2.07.24ZM88.92 128.4c.13.03.16-.07.16-.07a6.1 6.1 0 0 1 1.75-2.68c.22-.28.41-.45.63-.73.22-.28.44-.56.7-.94a39.1 39.1 0 0 1 5.24-5.7c.03-.1.03-.1-.07-.24-.12-.03-.12-.03-.28.04a38.48 38.48 0 0 0-5.25 5.69c-.22.28-.44.56-.7.94-.21.28-.43.56-.62.73-.53.87-1.29 1.57-1.63 2.72-.02.1.07.24.07.24ZM86 127.52c.13.03.13.03.16-.07 1.81-2.9 3.77-6.3 6.9-8.51l.07-.2-.26-.08c-3.16 2.31-5.25 5.7-6.93 8.61-.17.08-.07.21.06.25-.13-.04-.13-.04 0 0ZM89.97 132.4c-.13-.04-.13-.04-.29.03-3.4 3.6-4.63 8.32-5.68 12.88l-.22.73c-.02.1.1.14.1.14.13.03.16-.07.16-.07l.21-.73c1.05-4.56 2.26-9.18 5.66-12.78.15-.07.19-.17.06-.2ZM113.2 140.14c-.22-.02-.22-.02-.44.1-3.7 5.3-3.37 11.54-2.82 17.51l.03.97c0 .14.22.15.22.15.23.02.22-.12.22-.12l-.02-.97c-.56-5.97-.89-12.06 2.82-17.37.23-.12.23-.26 0-.27ZM90.62 136.66c.03-.1.03-.1-.1-.14-.12-.03-.12-.03-.16.07-.43 1.01-1.02 2.1-1.6 3.17-1.75 3.14-3.55 6.48-2.77 9.95-.03.1.1.14.1.14l.12.03c.13.03.16-.07.2-.18-.7-3.33 1.1-6.67 2.85-9.8.37-1.25.93-2.23 1.36-3.24ZM80.34 144.56c-.13-.03-.16.07-.16.07-1.63 4.62-1.67 14.73 1.89 19.16l.12.03.13.03.06-.2c-3.42-4.4-3.58-14.33-1.82-18.92-.12-.03-.09-.14-.22-.17ZM90.92 167.6c.23.17.58.38.8.55.36.2.59.38.78.66l.2.27c.65.62 1.36 1.49 1.98 1.76.12.03.12.03.16-.07.02-.1.02-.1-.07-.24-.49-.24-1.2-1.1-1.85-1.73l-.2-.28c-.19-.27-.55-.48-.9-.69-.23-.17-.58-.38-.81-.55-1.62-1.55-2.64-3.28-3.57-5.78.03-.1-.1-.13-.26-.07-.16.07-.16.07-.06.21a15.52 15.52 0 0 0 3.8 5.96ZM113.22 164.3c.11.23.33.55.45.78.21.3.33.54.36.85l.03.3c.26.78.44 1.79.86 2.25.1.08.1.08.19 0 .08-.08.08-.08.07-.23-.32-.39-.51-1.4-.77-2.17l-.03-.31a2.14 2.14 0 0 0-.46-.93c-.12-.23-.33-.54-.45-.77-.65-1.93-.65-3.8-.14-6.27.08-.08-.01-.15-.2-.16-.19 0-.19 0-.17.16-.49 2.64-.4 4.57.26 6.5ZM119.1 157.53c.05.25.17.59.22.83.12.34.16.58.1.88l-.07.3c.02.79-.1 1.78.18 2.3.07.1.07.1.18.05.11-.06.11-.06.14-.2-.2-.44-.08-1.43-.1-2.22l.06-.3c.07-.3-.05-.64-.17-.97-.05-.25-.17-.59-.2-.83-.07-1.96.5-3.72 1.76-5.96.1-.05.03-.15-.15-.19-.19-.03-.19-.03-.22.12-1.29 2.38-1.78 4.23-1.72 6.2ZM104.6 167.63s1.22 2.46 1.78 3.4c.1.13.1.13.06.24l.1.14s.13.03.16-.07.03-.1-.14-.49l-.12-.03c-.47-.8-1.32-2.6-1.68-3.25-1.43-3.19-1.86-6.45-2.3-9.71-.06-.25-.03-.35-.1-.6-.1-.58-.2-1.17-.15-1.83.03-.11-.1-.14-.23-.18-.13-.03-.16.07-.19.18-.05.66.05 1.25.16 1.84.07.24.04.35.1.59.56 3.28 1.13 6.58 2.55 9.77ZM99.38 145.87c.13.03.16-.07.2-.18 0-1.45.23-3.2.85-4.82.03-.11-.1-.14-.1-.14-.13-.04-.16.06-.16.06a18.86 18.86 0 0 0-.88 4.94c-.04.1.1.14.1.14ZM129.35 147.67c-.03.1-.03.1 0 0l.26.07c.82-.45 1.17-2.61 1.27-4.83 0-.45.12-.87.18-1.08 1.12-6.67 2.25-14.35.7-21.85.02-.1-.1-.14-.24-.17-.12-.03-.16.07-.19.17 1.55 7.5.55 15.21-.66 21.75-.06.2-.05.66-.18 1.07-.13 1.43-.38 4.17-1.18 4.52-.05.21-.08.32.04.35ZM127.66 122.16c.03-.1.03-.1-.07-.25-.13-.03-.13-.03-.29.04-.28.49-.58 1.08-1.09 1.85-2.09 3.37-5.5 8.88-4.88 11.06l.1.14.13.03c.12.03.16-.06.18-.17-.54-1.95 2.9-7.55 4.95-10.83.22-.72.69-1.38.97-1.87ZM137.7 128.53c0 .45-.02 1 .02 1.36-.03.1.1.14.1.14.12.03.15-.07.18-.18-.04-.34-.01-.9-.02-1.35 0-1.91.16-4.35-1.43-6l-.26-.07-.06.2c1.6 1.66 1.6 4.03 1.47 5.9ZM146.16 132.24c.16.38.2.73.34 1.21l.1.14.12.03c.12.03.16-.07.19-.17-.17-.39-.2-.73-.34-1.22-.47-1.7-.94-3.4-2.28-4.98l-.26-.07-.06.2c1.21 1.56 1.71 3.16 2.19 4.86ZM141.3 161.08c-.1.9-.39 1.69-.64 2.81l.03.34.2.11c.21.12.38-.1.55-.33.1-.9.39-1.69.64-2.81.9-3.94 1.8-7.89.97-11.83l-.41-.23-.33.45c.62 3.84-.11 7.55-1.01 11.49ZM159.85 162.62c.12.03.16-.07.16-.07 1.42-5.35 2.39-13.42-1.6-21.55.02-.1-.1-.14-.26-.07-.14-.04-.16.06-.07.2 3.86 8.1 3.06 16.1 1.51 21.42l.26.07ZM155.69 175.3c1.95-1.19 2.9-4.43 3.57-6.74.07-.43.26-.72.3-1.05.03-.1.03-.1-.1-.13-.14-.02-.14-.02-.15.08-.06.32-.26.73-.31 1.05-.65 2.2-1.49 5.58-3.42 6.66-.15.08-.15.08-.04.2.02-.1.02-.1.15-.07ZM151.26 171.7c.13.02.13.02.29-.04 1.77-3.25 3.28-6.55 3.46-9.99.03-.1-.1-.13-.23-.17-.13-.03-.16.07-.19.18-.17 3.44-1.65 6.64-3.43 9.88 0 0-.03.1.1.13ZM141.2 173.97c1.96-1.5 2.7-3.56 3.4-5.5.21-.74.52-1.33.86-2.03.03-.1.03-.1-.1-.13-.12-.04-.12-.04-.15.06-.35.7-.56 1.43-.87 2.02-.74 2.06-1.44 4-3.37 5.4l-.06.2.12.04c.13.04.17-.06.17-.06ZM128.96 174.15a26.62 26.62 0 0 0 6.2-8.02c.04-.1.04-.1-.06-.25-.13-.03-.13-.03-.29.04a23.6 23.6 0 0 1-6.04 7.95c-.03.1-.03.1.06.24l.13.04c-.03.1-.03.1 0 0ZM125.02 173.44c.12.03.12.03.16-.07 1.16-1.6 1.7-3.48 2.25-5.36l.46-1.57c.03-.1-.1-.14-.1-.14-.13-.03-.16.07-.16.07l-.45 1.57c-.55 1.88-1.1 3.75-2.26 5.36-.13-.03 0 0 .1.14ZM127.35 162.62c.13.03.13.03.16-.07 1.16-1.6 1.7-3.48 2.26-5.36l.45-1.56c.03-.11-.1-.14-.1-.14-.12-.04-.15.06-.15.06l-.46 1.57c-.54 1.88-1.1 3.76-2.25 5.36-.14-.03 0 0 .1.14ZM156.25 155.03c-.12.42-.15.97-.27 1.4-.02.1.1.13.1.13.13.03.16-.07.19-.17 0-.45.11-.87.26-1.4.13-.41.24-.83.21-1.17a30.9 30.9 0 0 0-.77-8.75c.03-.1-.1-.14-.23-.17s-.16.07-.19.17c.65 2.98 1.02 6 .77 8.75.18.38.06.8-.07 1.21ZM150.11 149.77c-.12.42-.14.97-.27 1.4-.02.1.1.13.1.13.13.03.16-.07.2-.17-.01-.46.1-.87.26-1.4.12-.42.23-.83.2-1.18.22-2.64-.12-5.76-.77-8.74.03-.1-.1-.14-.23-.17-.13-.04-.16.06-.19.17.66 2.98 1.02 6 .77 8.75.17.38.05.79-.07 1.21Z"/>
    </g>
    <path d="m103.96 154.31.16.68a6.95 6.95 0 0 0-.16-.67Z" fill="#C05401"/>
    <path opacity=".13" d="M162.5 161.19a33.91 33.91 0 0 1-5.48 10.83c-9.03 11.68-19.16 9.38-19.16 9.38s-9.93 3-18.77-7.13c-2.65.54-5.12.87-7.47 1-11.1.6-19.39-3.29-31.16-11.63-10.07-.24-17.32-7.87-17.77-18.2-.12-2.24.1-5.63.7-9.6 2.02-6.86 5.42-13.89 10.52-17.95a28.02 28.02 0 0 0 6.55 22.27c7.33 8.8 38 11.12 51.78-3.88 0 0 10.13 23.26 18.78 11.28 0 0 7.38 8.67 11.72 4.15.08 1.56.13 3.31.07 5.18a52.96 52.96 0 0 1-.3 4.3Z" fill="#152635"/>
    <path opacity=".13" d="M155.7 178.21c-8.53 9.3-18.66 7.01-18.66 7.01s-9.74 2.11-18.89-6.59c-2.6.35-5.05.53-7.37.54-10.98.1-19.35-3.44-31.35-10.77-10-.57-17.47-7.15-18.3-15.7-.39-3.42.25-10.06 2.27-16.87 1.62-5.53 4.14-11.16 7.72-15.26-2.05 7.03-2.83 18.26 7.43 28.44 7.6 7.54 38.12 10.61 51.2-1.25 0 0 10.94 19.58 19.07 10.02 0 0 11.78 11.45 14-.9a52.45 52.45 0 0 1-.76 7.33c-.9 5.06-2.79 10.17-6.37 14Z" fill="#152635"/>
    <path d="M140.54 143.01c-.01 0-.01 0 0 0h-.02c-.18.27-.43.52-.69.75-.28.24-.56.45-.85.62-.3.19-.52.37-.74.58-.36.35-.68.76-1.28 1.42-.63.84-1.4 1.93-2.1 3.13-1.53 2.62-2.67 5.75-.93 7.81a7.4 7.4 0 0 1-7.47.84l-.58-.26h-.01a9.51 9.51 0 0 1-1.62-1.02s2.8-1.66 3.05-3.11c0-.03 0-.07.02-.1l.12-.35a113.81 113.81 0 0 1 3.36-6.68l.7-1.29s1.92-2.88 3.7-2.65c.14.02.27.02.4 0 1.2-.08 1.98-1.4 1.67-2.2a.91.91 0 0 0-.52-.5l2.28-1.44s.35-.02.8.52c.34.38.71 1.04 1.06 2.17.2.63.02 1.23-.35 1.76Z" fill="#54514E"/>
    <path opacity=".13" d="M130.41 156.1a8.4 8.4 0 0 0-.47 2.7 6.84 6.84 0 0 0 4-1.48c-1.1-1.25-1.03-2.92-.55-4.6-1.12 1.02-2.58 2.48-2.98 3.37ZM138.24 144.97c-.35.34-.67.75-1.27 1.4-.63.85-1.4 1.94-2.1 3.14-1.87 1.46-3.77 2.85-4.26 3.66-.85 1.38-2.9 3.7-4.15 4.99v.01c-.2-.08-.39-.17-.57-.27h-.01a13.1 13.1 0 0 1-1.63-1.02s2.8-1.66 3.05-3.11l.03-.1c.04-.1.1-.2.12-.35 1.56-1.45 6.1-4.7 6.93-5.65.81-.92 2.32-1.9 3.86-2.7ZM138.57 141.7c-.26 1.07-2.97 1-2.97 1 1.2-.1 1.99-1.4 1.68-2.2.6.15 1.46.49 1.29 1.2ZM139.84 139.08c-.04.1-.16.23-.36.35-1.14.72-2.72.56-2.72.56l2.28-1.43c0-.01.34-.02.8.52ZM140.52 143.01c-.18.27-.43.52-.69.75-4.65.9-10.08 4.84-10.08 4.84l1.05-1.96c.77-.54 1.83-1.08 3.3-1.49a53.13 53.13 0 0 0 6.42-2.14Z" fill="#3B2345"/>
    <path d="M84.44 197.23a20.08 20.08 0 0 0 4.23 6.3c2.1 2.1 4.31 3.28 6.04 3.95 1.82.7 3.1.82 3.1.82s7.39 4.45 17.2-.48a50.29 50.29 0 0 0 5.88 2.48 35.38 35.38 0 0 0 13.45 1.93c4.47-.19 9.3-1.11 15.07-2.58 8.34 2.23 16.21-1.34 19.19-8.41 3.1-7.06 6.35-33.36-7.57-38.64a61.9 61.9 0 0 0-6.43-4.32c-4.33-2.42-7.9-3.11-11.88-1.65 0 0-5.1-2.79-11.28-3.97-.86-.17-1.73-.3-2.62-.39-1.87-.19-3.8-.19-5.66.11-1.88.3-3.71.91-5.4 1.94-5.77-2.67-11.47-.16-14.99 1.95-1.14.7-2.05 1.34-2.66 1.76a7.32 7.32 0 0 0-.76-.03c-6.43-.03-9.82 6.52-11.84 10.67a52.67 52.67 0 0 0-4.02 11.98c-1.1 5.33-1.35 11.42.95 16.58Z" fill="#9B9A8E"/>
    <path opacity=".25" d="M123.15 152.38c-.12.06-4.27 1.43-6.55 5.84 0 0-.89-2.22 1.16-3.9a14.85 14.85 0 0 1 5.39-1.94ZM102.76 156.27c-1.91 1.63-3.23 5.18-3.23 5.18-.97-1.25-.22-3.36-.19-3.45.25 0 .5 0 .77.03.6-.42 1.52-1.07 2.65-1.76ZM154.6 158.28c-7.48-.28-8.36 6.54-8.36 6.54-3.14-8.16-14.45-12.04-14.8-12.16a42.99 42.99 0 0 1 11.28 3.97c3.98-1.46 7.55-.77 11.88 1.65Z" fill="#2A4563"/>
    <g opacity=".25" fill="#2A4563">
      <path d="M143.47 166.6c-.72-2.66-1.53-5.73-3.72-8.38l-.24-.01v.19c2.2 2.55 3.01 5.61 3.73 8.29 0 .1 0 .1.1.1.12 0 .13-.1.13-.19ZM124.85 191.45c.05-.12.05-.12-.1-.17-.15-.06-.26-.02-.2.07-.26 2.26-.75 3.85-1.8 5.32-.16.16-.42.37-.58.54-.25.2-.52.41-.62.67l-.1.25c-.43.6-.85 1.4-1.22 1.65-.05.12-.05.12 0 .22.04.09.04.09.15.05.47-.29.89-1.09 1.31-1.68l.1-.25c.11-.26.27-.43.53-.63.16-.17.42-.37.57-.54a11.35 11.35 0 0 0 1.96-5.5ZM120.34 179.26c-.02-.14-.02-.14-.17-.12-.16.03-.23.11-.16.17.8 2.12 1.07 3.76.8 5.55-.06.22-.2.52-.27.74-.14.3-.27.6-.25.88l.02.28c-.12.71-.13 1.63-.34 2 .01.15.01.15.1.2.08.06.08.06.15-.02.29-.46.3-1.37.4-2.1l-.01-.27c-.02-.28.05-.5.18-.8l.27-.74c.29-1.79.08-3.51-.72-5.77ZM133.76 194.47c.12-.19.12-.28.24-.47.25-.48.5-.96.62-1.53 0-.1 0-.19-.1-.2-.12 0-.23-.01-.23.09a6.18 6.18 0 0 1-.63 1.52c-.11.2-.12.29-.24.48-1.23 2.67-2.46 5.33-4.48 7.66-.48.46-1.66 1.77-2.25 2.33l-.1-.01c-.25.28-.25.28-.25.38 0 .1.12.1.12.1l.12-.1c0-.09 0-.09.11-.18.71-.65 2.37-2.41 2.37-2.41 2.01-2.34 3.35-5 4.7-7.66ZM139.28 184.88c.38-1.25.54-2.8.6-4.45 0 0 0-.1-.12-.11 0 0-.1 0-.11.1.06 1.56-.22 3.1-.6 4.35 0 .1-.01.19.1.2 0 0 .13 0 .13-.09ZM132.64 183.66c.45-2.85.7-6.38.85-10.15 0 0 0-.22-.1-.23 0 0-.12 0-.13.21a67.8 67.8 0 0 1-.84 9.93c0 .23-.02.44.1.45 0 0 .1.02.12-.2ZM114.3 178.05c-.56-.52-.02-2.93.25-4.18.01-.39.14-.77.14-.97.77-5.9 2.03-12.77 5.3-18.74 0-.1.01-.2-.1-.2s-.23-.01-.23.09c-3.28 5.97-4.42 12.84-5.3 18.84 0 .19-.02.58-.15.97-.52 1.92-.8 3.86-.26 4.47l.23.01c0 .1 0 .1 0 0 .1 0 .11-.1.12-.3ZM122.7 158.89c.8 3.36 2.1 9.08 1.13 10.58 0 .1 0 .2.1.2h.12l.12-.08c1.08-1.7-.22-7.33-1.02-10.78-.2-.8-.3-1.38-.4-1.88-.1-.1-.1-.1-.22-.11-.12.1-.12.1-.12.2.1.5.31 1.19.28 1.87ZM115.28 155.1v-.2l-.23-.01c-1.75.98-2.27 3.1-2.78 4.73-.13.38-.26.86-.39 1.15 0 .1 0 .19.1.2 0 0 .12 0 .13-.1.12-.28.25-.76.38-1.15.4-1.63 1.04-3.65 2.79-4.63ZM107.67 157.03v-.19l-.22-.01c-1.52 1-2.37 2.31-3.2 3.63-.24.38-.37.67-.6.95 0 .1-.01.19.1.2h.11l.12-.09c.24-.38.36-.67.6-.94a11.8 11.8 0 0 1 3.1-3.55ZM85.46 182.79c.17-4.97 1.65-12 6.98-17.88.12-.09.12-.19.01-.19-.11-.1-.22-.11-.23-.01-5.45 5.86-6.83 13-7.1 17.96 0 0 0 .1.1.1l.24.02ZM85.32 194.85c.13-.08.13-.08.03-.2-1.3-1.44-1.08-4.56-1.01-6.6.04-.3-.02-.7.02-.99.02-.1.02-.1-.1-.1-.1-.02-.1-.02-.12.07-.04.3.03.6-.03.98-.08 2.15-.17 5.18 1.11 6.73.12 0 .12 0 .1.1ZM89.94 192.78c-.59-3.25-.94-6.4-.16-9.37 0-.1.01-.2-.1-.2s-.23-.01-.23.09c-.79 2.98-.43 6.21.14 9.46.11.1.11.1.23.11.1 0 .12-.1.12-.1ZM97.55 197.66h.1c0-.1 0-.1.02-.19-1.2-1.72-1.26-3.57-1.31-5.53-.1-.59-.07-1.27-.17-1.96 0-.1 0-.1-.1-.1-.12-.01-.12-.01-.13.09.1.69.19 1.28.17 1.96.05 1.85.1 3.8 1.3 5.62 0 0 0 .1.12.1ZM107.38 201.04l.11.01c.12-.09.12-.09.12-.19a21.73 21.73 0 0 1-2.81-8.44c-.11-.1-.11-.1-.22-.1-.12.09-.12.09-.12.18a24.53 24.53 0 0 0 2.92 8.54c0 .1 0 .1 0 0ZM103.49 183.63c-.52-1.68-.46-3.44-.4-5.19 0-.48.03-.97.04-1.45 0 0 0-.1-.11-.11 0 0-.11 0-.12.1l-.05 1.45c-.06 1.75-.1 3.5.4 5.19 0 .1 0 .1.12.1.12-.09.23-.08.12-.09ZM100.84 173.93c-.17-2.35.62-4.46 1.4-6.56l.66-1.76s.04-.12-.14-.19c0 0-.19-.07-.22.05l-.66 1.75c-.78 2.1-1.57 4.21-1.4 6.56-.05.12-.05.12.13.2.23-.05.4.02.23-.05ZM90.48 176.23c.53-2.41 1.64-4.89 2.97-7.26 0-.1.01-.19-.1-.2-.11 0-.23 0-.23.09a28.75 28.75 0 0 0-2.99 7.25c-.12.29-.14.68-.15 1.07-.01.48-.02.88-.16 1.26 0 .1 0 .19.1.2 0 0 .12 0 .13-.1.01-.39.14-.87.16-1.26.02-.39.03-.78.27-1.05Z"/>
    </g>
    <path d="m133.15 190.93-.31.53.06-.1c.1-.2.19-.34.25-.43Z" fill="#C05401"/>
    <path opacity=".25" d="M84.44 197.23a20.08 20.08 0 0 0 4.23 6.3l6.04 3.95c1.82.7 3.1.82 3.1.82s7.39 4.45 17.2-.48a50.35 50.35 0 0 0 5.88 2.48c3.53 1.2 6.9 1.83 10.4 1.95.3.02.61.02.93.02h.35l.72-.01.97-.02h.09c4.46-.2 9.29-1.12 15.07-2.59 8.33 2.23 16.2-1.34 19.18-8.41 3.1-7.06 6.35-33.36-7.56-38.64-7.6-5.66-12.52-8.1-18.32-5.96 0 0 7.48 11.12 3.74 25.14 0 0-23.5 20.6-31.75-8.87 0 0-13.97 30.27-29.58 9.77a47.8 47.8 0 0 0-1.63-2.03c-1.1 5.33-1.36 11.42.94 16.58Z" fill="#2A4563"/>
    <path d="M11.39 83.38c.85.85 2.48 2.87 4.1 4.07.76.57 1.51.95 2.18.95 2.09 0 7.5-2.48 7.3-5.42-.06-.98-.6-1.9-1.28-2.7a12.54 12.54 0 0 0-2.14-1.94c-.72-.51-1.26-.82-1.26-.82h.3l.22.01c.54.02 1.42.1 2.09.39a9.15 9.15 0 0 1 .8.78c.35.37.67.76.96 1.17l.16.24.2.3c.07.1.13.19.18.29l.2.33.22.42.32.64a17.9 17.9 0 0 1 .98 2.71c0 .06.03.12.05.19l.01.05.1.43c.1.42.19.82.26 1.24l.05.31.09.57.1.69.08.91.02.29c.09 1.17.08 2.24.04 3.12 0 2.12-3 5.23-5.57 7.5-1.94 1.72-3.63 2.96-3.63 2.96l33.9 1.25s-1.01-.9-2.41-2.26a71.52 71.52 0 0 1-5.18-5.55 21.45 21.45 0 0 1-2.6-3.79l-.99-1.9c-2.2-4.18-4.6-7.96-5.99-10.63-1.6-3.06-5.77-7.26-5.77-7.26s-1.64-1.86-3.16-3.04c-.39-.3-.77-.56-1.1-.73-.38-.19-1.12-.18-2.03-.04h-.02c-.42.07-.87.16-1.35.27l-.52.12c-.6.16-1.22.35-1.85.56l-.55.2c-.17.05-.34.11-.5.18l-.32.12-.35.15-.33.14c-.76.32-1.45.66-1.98 1l-.13.07c-.1.07-.2.13-.28.2-.4.28-.68.55-.79.8-.74 1.67-4.08 9.2-2.83 10.46Z" fill="#5E5417"/>
    <path opacity=".13" d="m22.14 100.1 9.46 1.03 17.45 1.92s.52-.4.94-1a71.35 71.35 0 0 1-5.17-5.55 21.45 21.45 0 0 1-2.61-3.8l-.98-1.9c-5.18 2.2-9.78-3.55-12.31-7.64-2.78-4.48-5.58-5.33-5.97-5.42l-.04-.01.03.04a8.44 8.44 0 0 1 .77.93c.34.37.66.76.95 1.17l.16.24.2.3.18.29.2.33.22.42.32.64a17.88 17.88 0 0 1 .9 2.42l.08.3c0 .05.03.1.05.18l.01.05.1.43a20.97 20.97 0 0 1 .31 1.55l.1.57.08.69.1.91.01.29c.09 1.17.08 2.24.04 3.12 0 2.1-3.01 5.21-5.58 7.5Z" fill="#000"/>
    <path opacity=".28" d="m22.14 100.1 9.46 1.03c3.65-1.1 5.72-2.46 3.52-4.1-5.4-4.02-7.6-10.2-8.16-12.04.74 2.83.83 5.67.75 7.6 0 2.11-3 5.22-5.57 7.5Z" fill="#000"/>
    <path d="M-32.07 176.65c3.39 13.06 14.65 20.8 27.47 18.35 17.2 7.4 28.78 10.08 42.67 6.25a68.1 68.1 0 0 0 9.19-3.33c13.96 10.48 25.72 3.92 25.72 3.92s13.46.15 21.72-17.22c8.43-17.38 2.22-43.15-.26-51.16-2.4-7.7-6.48-19.9-16.13-21.02a11.4 11.4 0 0 0-1.15-.09c-.85-.85-2.11-2.15-3.72-3.57v-.01c-4.95-4.38-13.13-9.85-22.2-6.16a21.1 21.1 0 0 0-7.78-4.39c-4.06-1.27-8.4-1.41-12.45-.99H31c-9.47.99-17.51 5.03-17.51 5.03-5.76-3.32-11.22-2.73-18.07.78a89.3 89.3 0 0 0-10.31 6.48c-21.64 6.88-20.76 54.07-17.18 67.13Z" fill="#4C1F00"/>
    <path d="M40.6 136.24c.87 3.35-1.53 8.42-6.5 10.81-4.98 2.39-11.2-1.92-13.97-7.27-2.77-5.36-5.64-18 4.69-20.29 10.24-2.3 14.26 9.77 15.78 16.75Z" fill="#8E2500"/>
    <path d="M20.13 139.78c-2.3-4.5-4.69-13.69.29-18.18a15.4 15.4 0 0 1 7.65 4.6 21.62 21.62 0 0 1 4.12 6.6 18.49 18.49 0 0 1 .19 14.83c-4.6.86-9.76-3.07-12.25-7.85Z" fill="#F76400"/>
    <path d="M67.38 137.23c-2.3-7.66 4.88-14.92 9.76-14.54 8.04.95 6.13 13.58 2.2 18.56-3.83 4.97-9.66 3.74-11.96-4.02Z" fill="#8E2500"/>
    <path d="M67.48 137.23c-1.63-5.17 1.24-10.24 4.78-12.82a11.3 11.3 0 0 1 4.79 9.1 14.16 14.16 0 0 1-3.83 10.61c-2.4-.48-4.6-2.77-5.74-6.89Z" fill="#F76400"/>
    <path d="M55.8 148.84c10.34 4.11 6.8 11.48 6.8 11.48-1.25 1.62-3.64 2.1-5.64-.57-6.23 4.58-7.47-2.3-1.15-10.91Z" fill="#8E2500"/>
    <path d="M54.85 150.08a22.1 22.1 0 0 1 2.2 2.1c1.92 2.2 3.54 5.45 2.2 9.38a5.5 5.5 0 0 1-2.3-1.82c-5.93 4.3-7.36-1.63-2.1-9.66Z" fill="#F76400"/>
    <path opacity=".13" d="M11.39 83.38c.85.85 2.48 2.87 4.1 4.07.76.57 1.51.95 2.18.95 2.09 0 7.5-2.48 7.3-5.42-.06-.98-.6-1.9-1.28-2.7 0 0-.76.75-1.9 1.34-1.85.95-4.72 1.45-7.04-2.43-3.67-6.1 7.8-9.88 8.42-10.08-.42.06-.87.15-1.35.26l-.52.13c-.6.15-1.22.34-1.85.55l-.55.2-.5.18-.32.12-.35.15-.33.14c-.76.32-1.45.66-1.98 1l-.13.08c-.1.06-.2.12-.28.19-.4.28-.68.55-.79.8-.74 1.68-4.08 9.22-2.83 10.47Z" fill="#3B2345"/>
    <path opacity=".28" d="M15.57 79.2c0 .83.47 1.69.47 1.69.05-3.33 5.5-2.55 5.5-2.55-.72-.51-1.26-.82-1.26-.82h.3-4.18s-.83.84-.83 1.67ZM19.55 74.85c.2 1.93 3.35 2.87 3.35 2.87-1.47-6.07 3.4-7.85 3.4-7.85-.38-.3-.76-.56-1.1-.73-.38-.18-1.1-.18-2.02-.04h-.02c-.4.06-.82.15-1.26.25h-.01c-.67 1-2.51 3.92-2.34 5.5Z" fill="#3B2345"/>
    <path opacity=".28" d="M15.49 87.45c.76.57 1.51.95 2.18.95 2.09 0 7.5-2.48 7.3-5.42-.06-.98-.6-1.9-1.28-2.7a12.54 12.54 0 0 0-2.14-1.94c-.72-.51-1.26-.82-1.26-.82h.3l.22.01a5.9 5.9 0 0 0-3.68.06s3.84 1.5 4.66 4.02c.13.43.18.88.12 1.36-.47 3.34-3.16 5.62-6.42 4.48Z" fill="#3B2345"/>
    <path d="M22.9 77.73c-1.4-.2-2.8-.38-4.2-.45-.71-.03-1.41-.08-2.15.05-.19.02-.43.13-.55.29-.85 1.28-.55 3.49.2 4.77.29.48.92.91 1.51.74.84-.18 2.01-.74 1.78-1.78-.07-.36-.3-.67-.57-.9.46.5.67 1.32.1 1.8a2.4 2.4 0 0 1-1.8.53c-1.33-.6-1.49-3.27-1.14-4.51.1-.3.21-.55.55-.61 2.05-.3 4.2-.03 6.27.07Z" fill="#322D6D"/>
    <path opacity=".4" d="M-32.07 176.65c3.39 13.06 14.65 20.8 27.47 18.35 17.2 7.4 28.78 10.08 42.67 6.25a142.26 142.26 0 0 0-5.9-5.84c-50.8-47.42-18.68-93.15-18.68-93.15-8.37-4.82-16.11-1.39-28.37 7.27-21.65 6.87-20.77 54.06-17.2 67.12ZM43.47 98.23c.17.12 6.2 3.3 8.93 11.51 0 0 1.68-3.76-1.14-7.13a21.04 21.04 0 0 0-7.79-4.38ZM73.45 108.78c2.62 3.22 4.06 9.75 4.06 9.75 1.64-2.05.85-5.92.81-6.1a11.4 11.4 0 0 0-1.15-.08c-.85-.84-2.12-2.14-3.72-3.57Z" fill="#190A00"/>
    <path opacity=".4" d="M-4.57 103.05c11.25.84 11.54 13.08 11.54 13.08C12.92 102.23 30.45 97.4 31 97.24a56.94 56.94 0 0 0-17.5 5.02c-5.76-3.32-11.22-2.72-18.07.79Z" fill="#190A00"/>
    <path d="M10.85 119.78c1.47-4.6 3.16-9.89 6.86-14.19l.34.02-.02.35c-3.69 4.13-5.37 9.41-6.84 14.02-.01.17-.01.17-.18.16-.18-.01-.17-.18-.16-.36ZM-3.65 129.02c.11-1.9.88-3.25 1.31-4.79.2-.34.4-.84.6-1.36a66.27 66.27 0 0 1 5.71-12.34c.19-.16.19-.16.35-.16.17.19.17.19.15.36a65.71 65.71 0 0 0-5.1 10.64c-.2.69-.41 1.2-.61 1.7-.2.51-.4.85-.6 1.36a11.2 11.2 0 0 0-1.48 4.78s-.01.18-.18.16c0 0-.16-.18-.15-.35ZM.08 147.2c-1.35 5.47-2.72 11.3-.94 16.26-.01.17-.02.34-.2.34l-.16-.02s-.17 0-.16-.18c-1.95-5.15-.58-10.97.77-16.45.45-1.88.9-3.76 1.18-5.48.01-.18.01-.18.18-.17.17.02.17.02.16.19-.27 1.72-.7 3.43-.83 5.5ZM3.3 181.86c-.16-.19-.16-.19.02-.35.19-.16.35-.15.35.02 1.86 3.58 3.62 5.94 6.1 7.82.33.2.84.4 1.18.6.5.2 1.01.4 1.34.76l.32.37c1 .75 2.14 1.85 2.81 2.07.16.18.16.18.15.36-.01.17-.01.17-.18.16-.85-.22-2-1.33-2.99-2.09l-.32-.36a2.79 2.79 0 0 0-1.16-.76c-.34-.2-.84-.4-1.18-.6-2.47-1.87-4.4-4.24-6.44-8ZM35 167.16c-.06-.23-.06-.23.18-.3.23-.06.38.03.3.18.03 4.04.53 6.93 1.88 9.74.21.32.58.73.78 1.06.36.4.72.81.84 1.29l.12.47c.54 1.12 1.06 2.63 1.57 3.13.06.23.06.23-.03.38-.08.15-.08.15-.23.06-.66-.58-1.17-2.09-1.71-3.2l-.13-.48c-.12-.47-.33-.8-.69-1.2-.2-.33-.57-.74-.78-1.06-1.35-2.8-2-5.8-2.1-10.07ZM21.19 170.9c-.15-.35-.14-.52-.3-.88-.29-.88-.59-1.77-.7-2.81.02-.18.02-.35.2-.34.17.01.34.02.33.2.11 1.04.4 1.93.7 2.81.15.36.14.53.3.88 1.44 4.95 2.88 9.9 5.55 14.39.63.9 2.22 3.43 3.02 4.51l.16.02c.32.53.32.53.31.7-.01.18-.18.17-.18.17l-.16-.18c0-.18 0-.18-.15-.36-.96-1.27-3.19-4.7-3.19-4.7-2.66-4.5-4.28-9.45-5.9-14.4ZM14.37 152.93c-.38-2.28-.4-5.06-.23-8 0 0 .02-.18.18-.17 0 0 .17.02.17.19-.33 2.76-.15 5.54.24 7.82-.02.18-.02.34-.2.34 0 0-.17-.01-.16-.18ZM34.67 155.54c-.17-.02-.35-.02-.33-.2-.16-.18-.15-.35.02-.34 3.2-1.73 5.34-5.94 6.06-9.38.18-.16.18-.16.35-.15.16.18.16.18.15.35-.7 3.26-2.69 7.67-6.25 9.72-.18-.02-.18-.02 0 0ZM40.51 152.92c2.15-4.39 3.06-8.16 3.1-11.8 0 0 .01-.17.18-.16 0 0 .17.01.17.18.12 3.83-.96 7.59-3.1 11.98-.02.17-.2.16-.36.15-.17-.19-.17-.19.01-.35ZM52.86 145.3c.9-.82.47-5.19.26-7.45.04-.7-.1-1.4-.07-1.74-.26-10.6-1.1-22.98-5.1-34.15 0-.18.01-.35.19-.34.17.01.34.02.33.2 4.01 11.16 4.68 23.53 5.1 34.32-.02.35-.06 1.04.07 1.74.48 3.5.63 6.98-.29 7.97l-.34-.02c-.02.17-.02.17 0 0-.18-.01-.18-.19-.15-.53ZM43.17 109.84c-1.71 5.8-4.53 15.72-3.31 18.56-.02.17-.02.34-.2.34l-.17-.02-.16-.18c-1.37-3.2 1.44-12.94 3.16-18.91.43-1.37.66-2.4.88-3.25.18-.16.18-.16.35-.16.16.19.16.19.15.36-.22.86-.63 2.05-.7 3.26ZM54.86 104.44l.02-.35c.17.02.17.02.35.02 2.47 2.06 2.93 5.9 3.45 8.89.13.7.26 1.58.4 2.1-.01.18-.02.34-.2.34 0 0-.16-.01-.16-.18-.14-.53-.26-1.4-.4-2.1-.33-2.99-.99-6.67-3.46-8.72ZM64.6 142.95c-.47-.9-.93-1.79-1.58-2.52-.16-.18-.15-.35.02-.34.18-.16.35-.16.34.02a12.2 12.2 0 0 1 1.58 2.52c.78 1.43 1.56 2.87 2.72 3.8l-.02.35s-.17-.02-.35-.02c.17.01.17.01 0 0-1.32-.95-2.1-2.55-2.71-3.8ZM65.06 146.97c-.16-.18-.15-.35.02-.34.18-.16.35-.16.34.02 2.09 2.72 5.66 3.62 8.74 4.15.17.01.17.01.16.18 0 0-.01.17-.18.16-3.26-.53-6.83-1.43-9.08-4.17ZM65.98 109.24l.01-.34.35.02c2.12 2.03 3.19 4.52 4.25 7.02.3.71.45 1.24.76 1.78-.01.17-.02.34-.2.34l-.16-.02-.16-.18c-.3-.71-.45-1.24-.76-1.78-1.07-2.5-2.14-4.82-4.1-6.84ZM95.37 158.86c.5-8.82-.65-21.56-7.76-32.92-.17-.18-.15-.35.02-.34.18-.16.35-.16.34.02 7.28 11.36 8.26 24.27 7.92 33.1 0 0-.01.18-.18.16l-.34-.02ZM93.75 180.25c-.18-.17-.18-.17-.01-.35 2.15-2.33 2.3-7.89 2.52-11.54-.02-.52.13-1.22.1-1.74 0-.17 0-.17.17-.18.18 0 .18 0 .18.17.02.52-.14 1.04-.11 1.74-.2 3.82-.53 9.21-2.68 11.71-.18.01-.18.01-.17.19ZM87.16 175.75c1.36-5.65 2.37-11.15 1.64-16.57.01-.18.02-.34.2-.34.16.02.34.02.33.2.72 5.42-.3 11.1-1.66 16.75-.18.16-.18.16-.36.15-.17 0-.15-.19-.15-.19ZM75 183.04l-.17-.01.02-.35c2.06-2.83 2.42-6.11 2.8-9.56.23-1.03.3-2.25.54-3.45.01-.17.01-.17.18-.16.17.02.17.02.16.18-.24 1.2-.47 2.23-.54 3.44-.37 3.28-.74 6.73-2.8 9.74 0 0-.01.17-.19.17ZM59.73 187.27l-.16-.01c-.17-.18-.17-.18-.15-.36a42.06 42.06 0 0 0 5.48-14.44c.19-.16.19-.16.35-.16.17.19.17.19.15.36a46.98 46.98 0 0 1-5.67 14.61c0 .18 0 .18 0 0ZM54.38 187.31c1.03-2.89 1.21-6 1.4-9.12l.14-2.6s.02-.18.18-.16c0 0 .17.01.17.18l-.15 2.6c-.18 3.11-.36 6.22-1.4 9.12 0 .18 0 .18-.17.16-.17-.18-.33-.19-.17-.18ZM88.85 146.33c-.44-4.37-1.72-8.96-3.37-13.4.02-.17.02-.34.2-.33.17 0 .34.02.33.2a57.92 57.92 0 0 1 3.37 13.39c.14.52.1 1.22.06 1.91a8.9 8.9 0 0 0 .05 2.26c-.01.18-.02.35-.2.34 0 0-.16-.01-.16-.18.04-.7-.08-1.57-.04-2.26.04-.7.07-1.4-.24-1.93Z" fill="#722F01"/>
    <path d="M21.02 159.98c.04.13.65 2.2 1.62 4.77l.38 1c.1.26.2.53.32.8 1.04 2.53 2.33 5.19 3.69 6.8l.68-3.75 6.7 2.1-.85 4.18s3 1.9 6.95 3.35c2.5.93 5.37 1.68 8.12 1.68 5.97 0 14.64-2.1 18.73-4.25l.34-.18c.62-.35 1.12-.7 1.46-1.04l-1.28-3.32 5.86-3.77.44.77 1.23 2.16s4.18-7.94 5.44-10.88c-.09.08-1 .92-2.58 2.12-3.22 2.42-9.22 6.26-16.67 7.92-11.28 2.5-33.87-2.51-40.58-10.46Z" fill="#F76400"/>
    <path d="m74.19 169.1 1.23 2.16s4.19-7.94 5.44-10.87c-.09.08-1 .92-2.58 2.12 0 0-2.4 4.43-4.09 6.6ZM66.63 172.94l.74 3.7c.78-.4 1.4-.81 1.8-1.21l-1.29-3.33-1.25.84Z" fill="#8E2500"/>
    <path d="M40.52 179.22c2.5.92 5.37 1.68 8.12 1.68 5.97 0 14.63-2.1 18.73-4.25l.33-.18-.3-1.04c.01 0-17.02 4.63-26.88 3.79ZM23.34 166.54c1.04 2.53 2.33 5.2 3.69 6.8l.68-3.74-.84.41s-2.02-.1-3.53-3.47Z" fill="#8E2500"/>
    <path d="m22.64 164.75.38.99-.07-.18a6.67 6.67 0 0 0-.31-.81Z" fill="#C05401"/>
    <g style="mix-blend-mode:overlay" filter="url(#c)">
      <path d="M13.35 119.84c1.5-4.5-.19-11.08-6-9.58C.2 112.14.4 120.03 1.7 122.28c2.25 3.76 9.95 2.63 11.64-2.44Z" fill="url(#d)"/>
    </g>
    <path d="M8 113.88a2.08 2.08 0 0 0-1.65-1.48c-2.48-.35-2.39 3.32-1.06 4.1-.68-.2-1.48.07-1.9.65-.1.16-.19.35-.2.55-.03.39.36 1.04 1.58.87a4.07 4.07 0 0 0 2.8-1.83c.43-.71.66-2.06.43-2.86Z" fill="#9CC66B"/>
    <path d="M6.43 114.2c.17-.52-.02-1.28-.7-1.1-.81.21-.8 1.13-.64 1.38.26.44 1.15.3 1.34-.28Z" fill="#E8D567"/>
    <path d="M6.72 116.46c-.42.41-.76.89-.9 1.43-.01.13-.04.26.07.35.04.04.13.06.2.06.32 0 .63-.17.9-.34.24-.18.5-.35.72-.55.24-.2.48-.4.65-.7.24-.34.52-1.18-.1-1.27-.6-.09-1.2.67-1.54 1.02Z" fill="#658C19"/>
    <path d="M10.4 114.79c.8-.02 1.56.4 1.85 1.08.89 2.2-2.8 3.22-3.9 2.24.34.56.25 1.39-.25 1.95-.13.16-.3.29-.5.35-.39.13-1.14-.04-1.2-1.22a4.19 4.19 0 0 1 1.2-3.14 5.04 5.04 0 0 1 2.8-1.26Z" fill="#85AA49"/>
    <path d="M10.42 116.35c.5-.32 1.3-.36 1.28.33-.04.82-.95 1.08-1.25 1.02-.5-.14-.59-1-.03-1.35Z" fill="#E8D567"/>
    <g style="mix-blend-mode:overlay" filter="url(#e)">
      <path d="M20.37 44.81c-1.42-4.26.17-10.47 5.68-9.05 6.73 1.77 6.56 9.23 5.32 11.36-2.13 3.55-9.41 2.48-11-2.3Z" fill="url(#f)"/>
    </g>
    <path d="M25.43 39.17a2 2 0 0 1 1.56-1.4c2.34-.32 2.25 3.14 1 3.88.64-.18 1.4.06 1.79.62.1.14.19.33.2.51.03.37-.34.99-1.5.83a3.86 3.86 0 0 1-2.64-1.73 4.03 4.03 0 0 1-.41-2.7Z" fill="#9CC66B"/>
    <path d="M26.9 39.48c-.16-.5.02-1.21.66-1.04.78.2.76 1.06.61 1.3-.24.42-1.08.3-1.27-.26Z" fill="#E8D567"/>
    <path d="M26.64 41.61a3 3 0 0 1 .84 1.36c.02.12.04.24-.06.32-.04.04-.12.06-.18.06-.31 0-.6-.16-.87-.32-.22-.17-.47-.33-.67-.52a2.73 2.73 0 0 1-.62-.65c-.22-.33-.5-1.13.1-1.22.56-.08 1.13.65 1.46.97Z" fill="#658C19"/>
    <path d="M23.15 40.03c-.76-.02-1.48.4-1.74 1.03-.85 2.07 2.64 3.04 3.69 2.11a1.6 1.6 0 0 0 .22 1.85c.13.14.3.27.47.33.37.12 1.1-.04 1.15-1.15a3.97 3.97 0 0 0-1.15-2.98 4.78 4.78 0 0 0-2.64-1.19Z" fill="#85AA49"/>
    <path d="M23.13 41.51c-.47-.3-1.23-.35-1.21.31.04.78.9 1.02 1.19.96.47-.12.56-.94.02-1.27Z" fill="#E8D567"/>
    <g style="mix-blend-mode:overlay" filter="url(#g)">
      <path d="M282.56 80.55c-1.62-4.85.2-11.93 6.47-10.31 7.69 2.02 7.49 10.52 6.07 12.95-2.43 4.04-10.73 2.83-12.54-2.64Z" fill="url(#h)"/>
    </g>
    <path d="M288.33 74.13c.23-.8.93-1.48 1.78-1.6 2.66-.37 2.57 3.58 1.14 4.42.73-.2 1.6.07 2.04.7.11.17.2.38.23.59.02.42-.4 1.12-1.7.93a4.4 4.4 0 0 1-3.02-1.96 4.59 4.59 0 0 1-.47-3.08Z" fill="#9CC66B"/>
    <path d="M290.01 74.48c-.18-.56.03-1.38.75-1.2.89.24.87 1.22.7 1.5-.28.47-1.24.33-1.45-.3Z" fill="#E8D567"/>
    <path d="M289.7 76.91c.45.44.83.96.97 1.54.02.14.04.28-.07.38-.05.04-.15.07-.22.07-.35 0-.68-.19-.98-.38-.25-.18-.53-.37-.77-.58a3.12 3.12 0 0 1-.7-.75c-.26-.37-.56-1.28.12-1.38.63-.1 1.28.73 1.66 1.1Z" fill="#658C19"/>
    <path d="M285.73 75.11c-.86-.02-1.68.44-1.98 1.17-.96 2.36 3.01 3.46 4.2 2.4-.37.62-.27 1.5.26 2.12.14.16.33.3.54.37.42.14 1.24-.05 1.3-1.31.08-1.17-.4-2.5-1.3-3.4a5.43 5.43 0 0 0-3.02-1.35Z" fill="#85AA49"/>
    <path d="M285.71 76.8c-.54-.36-1.4-.4-1.38.34.05.9 1.03 1.17 1.36 1.1.54-.14.63-1.07.02-1.45Z" fill="#E8D567"/>
    <g style="mix-blend-mode:overlay" filter="url(#i)">
      <path d="M314.35 107.42c1.14-3.42-.14-8.39-4.55-7.26-5.4 1.43-5.25 7.4-4.26 9.1 1.7 2.85 7.53 2 8.8-1.84Z" fill="url(#j)"/>
    </g>
    <path d="M310.3 102.9a1.58 1.58 0 0 0-1.25-1.12c-1.88-.26-1.81 2.52-.81 3.1a1.34 1.34 0 0 0-1.43.5.87.87 0 0 0-.16.41c-.02.3.28.8 1.2.66a3.08 3.08 0 0 0 2.12-1.38c.32-.54.5-1.56.32-2.17Z" fill="#9CC66B"/>
    <path d="M309.11 103.15c.13-.4-.02-.97-.53-.84-.62.16-.6.85-.5 1.05.21.33.88.23 1.03-.21Z" fill="#E8D567"/>
    <path d="M309.32 104.85c-.3.32-.57.68-.67 1.09-.02.1-.03.2.05.26.03.04.1.05.15.05.24 0 .47-.14.69-.26.18-.14.38-.27.54-.41.18-.16.36-.32.5-.53.17-.27.39-.9-.09-.97-.44-.06-.9.51-1.17.77Z" fill="#658C19"/>
    <path d="M312.12 103.59c.6-.02 1.18.31 1.4.82.67 1.66-2.13 2.43-2.96 1.69.26.43.2 1.05-.18 1.48a.87.87 0 0 1-.38.26c-.3.1-.87-.03-.92-.92-.05-.82.28-1.76.92-2.38.5-.48 1.48-.94 2.12-.95Z" fill="#85AA49"/>
    <path d="M312.13 104.77c.38-.24 1-.28.98.25-.04.62-.73.82-.96.77-.38-.1-.44-.76-.01-1.02Z" fill="#E8D567"/>
    <path d="M282.27 205.83c1.52.22 3.07.22 4.62-.04 1.84-.3 3.56-1 5.13-2 1.91.45 3.87.53 5.84.2a13.72 13.72 0 0 0 5.84-2.49c2.18.64 4.43.8 6.68.43a14.23 14.23 0 0 0 5.85-2.49c2.18.64 4.42.8 6.69.43 1.82-.3 3.52-.98 5.07-1.97 1.9.43 3.82.51 5.76.2 11.43-1.89 17.95-18.71 16.14-32.5-1.3-9.96-6.1-21.83-15.66-25.28a16.99 16.99 0 0 0-10.1-.35c-1.35.34-2.66.8-3.88 1.35a17.46 17.46 0 0 0-5.69.15c-6.08-9.77-16.38-10.73-23.2-10.1l-.1.01h-.07c-2.01.2-3.72.54-4.9.82l-.32.07c-.61.15-1.16.42-1.55.77-.4.36-.62.76-.62 1.16 0 .4.22.77.64 1.02.36.23.85.36 1.38.37h.24c2.33-.07 4.3.06 5.88.41 1.8.4 3.13 1.06 3.94 2l.02.01a4 4 0 0 1 .94 2.02 6.83 6.83 0 0 1-.37 3.17l-.1.33c-.2.54-.43 1.06-.7 1.56-.06.13-.12.26-.2.38a17.29 17.29 0 0 0-7.23.39 23.35 23.35 0 0 0-3.94 1.37h-.02a17.86 17.86 0 0 0-7 .43c-.72.18-1.43.39-2.13.64-10.33 3.66-18.27 14.54-13.94 31.85 3.62 14.5 11.9 24.32 21.06 25.68Z" fill="#3E281A"/>
    <path opacity=".4" d="M282.27 205.83c3.34.52 6.9-.16 9.75-2.04 3.98.96 8.35.2 11.67-2.28 4.2 1.27 8.97.6 12.53-2.06 3.9 1.17 8.32.7 11.76-1.54 33.28 4.74 27.06-71.57-7.74-56.57-1.8-.26-3.78-.21-5.69.15a21.6 21.6 0 0 0-4.36-5.1c-7.28-6.44-15.16-4.47-23.62-5.3-1.3-1.08-.11-3.76 1.28-4.43.88-.38 2.27-.06 2.44-1.36l.02-.11a6.85 6.85 0 0 0-.4-3.03c-4.65-1.06-11.03 3.48-9.33 8.4.62 3.71 3.72 5.65 7.55 5.05 4.86-.25 2.5 7.14 8.36 7.8 42.75 4.74 31.36 51.68-14.22 62.42Z" fill="#190A00"/>
    <path d="M295.27 193.5 283 184.11l-2.46 1.85-7.9-10.61 4.18 2.06.7-1.28 8.4 5.42 3.05-2.25 9.13 3.58 9.7-4.44 3.98 1.54 9.27-7.66 2.24 1.34 4-2.49s-9.66 12.06-13.41 13.97c-2.1-.37-3.74-1.25-3.74-1.25l-14.86 9.6Z" fill="#F76400"/>
    <path d="M295.27 193.5 283 184.11s1.64.1 2.42.22c2.64 1.17 11.76 7.92 11.76 7.92l-1.9 1.23ZM313.87 185.16c-2.1-.38-3.74-1.25-3.74-1.25l2.1-1.36 3.52 1.27c-.7.53-1.38 1.05-1.88 1.34ZM322.1 172.96c-2.2 2.25-6 6.24-7.3 7.06-2.32.42-3.15-.13-3.15-.13l9.27-7.65 1.18.72ZM307.79 178.45l1.25.49c-1.03 1.22-2.85 2.99-6.13 4.4-1.5.09-4.88-.51-4.88-.51l9.76-4.38ZM277.38 176.04l2.13 1.35c-.46.6-1.04 1.12-1.46 1.17-.73-.56-1.25-1.25-1.25-1.25l.58-1.27ZM280.53 185.97l-7.9-10.61c1.85.84 7.6 7.49 9.27 9.55l-1.37 1.06ZM288.94 179.2l3.62 1.52-3.47 2.05s-1.65-.35-3.17-1.24l3.02-2.33ZM305.09 154.1c2.15-1.7 4.01-2.38 5.5-2.57 1.49-.2 2.41.23 2.83.94.62 1.44-3.67 4.19-5.75 4.79-2.2.5-4.56-.93-2.58-3.15ZM315.82 168.16c-2.94 3.12-7.04 3.22-10.29-.05-2.24-2.21-1.67-5.33-1.67-5.33 1.5-2.49 3.3-4.47 6.05-4.94.96-.13 1.95-.04 3.05.14 4.59 1.13 5.8 7.07 2.86 10.18ZM297.96 176.3c-1.06.14-3.87 1.81-4.51.26-.64-1.54 2.62-5.57 5.02-6.21 0 0 3.82 5.16 3.31 6.2-.53.94-2.65-.41-3.82-.26ZM286.62 159.28c-2.65-.41-6.44-2.85-5.19-4.87.2-.14.5-.29.93-.34 1.49-.2 4.29.52 6.06 2.47 2.28 2.52.85 3.15-1.8 2.74ZM291.02 167.19c.1 4.01-2.54 6.98-7.41 6.1-4.9-1-6.25-3.86-5.86-7.5.34-3.1 3.38-4.7 5.93-5.04.53-.06.96-.13 1.4-.07 2.98.48 5.84 2.5 5.94 6.5Z" fill="#8E2500"/>
    <path d="M313.3 152.37c.6 1.34-2.96 3.77-5.23 4.62-.53-.7-1.28-2.34.62-5.1.63-.19 1.25-.38 1.78-.45 1.5-.1 2.53.32 2.83.93ZM315.82 168.16c-1.6 1.74-3.45 2.53-5.42 2.35-1.16-1.37-2.73-3.44-2.9-4.73-.29-2.14.4-4.3 3.17-6.3a6.9 6.9 0 0 1 3.2-1.2c3.77 1.58 4.7 7 1.95 9.88ZM287.6 159.36c-1.33-1.02-3.13-2.42-3.8-3.41-.41-.6-.5-1.24-.37-1.92 1.32.15 3.01.7 4.37 1.93l1.53 1.76c.62 1.34-.2 1.77-1.73 1.64ZM297.96 176.3c-.53.06-1.55.52-2.5.76.15-2.2 2.11-4.53 3.55-5.92 1.06 1.5 3.08 4.5 2.65 5.32-.4 1.03-2.53-.32-3.7-.17ZM291.02 167.19c.17 3.68-2.06 6.48-6.1 6.25-2.35-1.43-5.46-4.5-4.03-8.4.88-2.3 2.82-3.2 4.74-3.45.63-.09 1.27-.18 1.92-.15a6.52 6.52 0 0 1 3.47 5.75Z" fill="#F76400"/>
    <path opacity=".4" d="m312.29 201.18.62.07a14.36 14.36 0 0 0 3.3-1.8c2.18.63 4.42.8 6.7.43a13.6 13.6 0 0 0 5.07-1.97c1.89.43 3.82.51 5.76.2 11.43-1.89 17.94-18.72 16.14-32.5-1.3-9.96-6.1-21.83-15.66-25.28a16.95 16.95 0 0 0-10.09-.34c-1.36.35-2.66.8-3.9 1.35a17.24 17.24 0 0 0-5.68.15s33.22 26.34-2.26 59.7Z" fill="#190A00"/>
    <g opacity=".4" fill="#190A00">
      <path opacity=".8" d="M284.28 147.26c9.8-2.37 11.8 4.99 11.8 4.99 2.34-5.96 11.65-6.95 11.65-6.95-3.34-2.05-7.49-2.27-11.36-1.76-.2.54-.44 1.07-.7 1.57l-.19.38c-2.3-.38-4.83-.24-7.24.38-1.37.35-2.69.8-3.92 1.36h-.02c0 .03-.01.03-.02.03ZM276.4 154.85c1.88-7.17 7.88-7.59 7.88-7.59a17.86 17.86 0 0 0-7 .42c-.72.19-1.43.4-2.13.65-1.14 1.8 1.25 6.52 1.25 6.52Z"/>
    </g>
    <path d="M280.58 130.55c.62 3.7 3.72 5.64 7.55 5.05 4.66-.23 10.59 2.24 8.34 7.62-1.39-.14-5.45 2.08-5.45 2.16.14.09 3.35 2.17 4.23 1.2.26-.46 4.83-2.85 4.61-1.25-.68 1.4 1.17 1.26 1.17 1.26.48-1.63 4.67-4.18 6.94-.7.29.4.6 1.2.66 1.64 0 0 2.2-1.81 1.95-3.36-.56-4.48 5.1.13 9.65-2.84-1.8-.26-3.77-.21-5.68.15a21.6 21.6 0 0 0-4.37-5.1c-4.93-4.22-11.77-5.55-18.07-5.06-1.8.1-3.8.4-5.55-.23-1.3-1.09-.12-3.76 1.28-4.43.97-.4 2.3-.04 2.46-1.48a6.88 6.88 0 0 0-.4-3.03c-4.64-1.05-11 3.48-9.32 8.4Z" fill="#141A28"/>
    <path opacity=".28" d="m288.9 126.43.22-.02c.17-.02.31-.06.44-.11 1.34-.61.67-3.15.43-3.92l-.07-.22s-2.17.24-1.02 4.27ZM283.69 129.89c.5 1.83 1.84 2.46 5.1 1.57-.14 0-.27-.01-.4-.03h-.2c-.06-.02-.13-.02-.2-.02l-.25-.03-.45-.07-.17-.03-.15-.04c-.1-.03-.2-.06-.28-.1-.04-.01-.08-.02-.11-.05h-.01a.88.88 0 0 1-.26-.2c-.63-.72-.16-3.41 1.55-4.23 0 0-4.67 1.4-4.17 3.23ZM296.47 143.22s12.6-1.59 10.24-9.11c0-.04-.02-.07-.03-.1a24.9 24.9 0 0 0-10.76-2.75s13.95 5.87.55 11.97Z" fill="#3B2345"/>
    <path opacity=".28" d="M287.76 135.6c1.6.02 2.99.16 4.18.41 1.8.4 3.12 1.07 3.94 2l.01.02a4 4 0 0 1 1 2.72c.06-.18 1.23-4.4-1.62-6.57-2.91-2.21-7.5 1.41-7.5 1.41ZM291.03 145.39c.14.1 3.35 2.16 4.23 1.2.46-.5 1.83-1.18 2.98-1.55 1.09-.34 1.97-.38 1.63.3-.68 1.4 1.17 1.26 1.17 1.26s1.42-2.85 4.3-2.41c2.87.43 3.3 3.35 3.3 3.35s2.2-1.81 1.96-3.36c-.25-1.55.38-2.74 3.23-1.88 2.85.86 6.42-.96 6.42-.96a17.4 17.4 0 0 0-5.6.13l-.09.02a21.32 21.32 0 0 0-5.06-5.66s2.85 4.58-.64 6.17c-3.49 1.6-12.38 1.22-12.38 1.22l-1.76.37c-1.78.63-3.7 1.8-3.7 1.8Z" fill="#3B2345"/>
    <path opacity=".1" d="m288.9 126.43.22-.02c.17-.02.31-.06.44-.11-.82-2.94.32-3.88.43-3.92l-.07-.22s-2.17.24-1.02 4.27Z" fill="#3B2345"/>
    <path opacity=".13" d="M284.62 130.94c2.14 3.9 5.28.2 12.41 1.21 2.96.42 13.16 5.14 10.18 12.86a4.5 4.5 0 0 1 1.43 2.53s2.2-1.81 1.95-3.36c-.25-1.55.39-2.74 3.24-1.88 2.84.86 6.4-.96 6.4-.96a17.4 17.4 0 0 0-5.68.15 21.28 21.28 0 0 0-5.05-5.66c-.92-.7-1.86-1.31-2.82-1.83a24.91 24.91 0 0 0-10.76-2.74c-1.63-.07-3.17 0-4.57.13h-.1l-.07.01h-.08l-.11.01-.7.04h-.3l-.23.01h-.98l-.4-.03h-.2c-.05-.02-.12-.02-.18-.02-.09 0-.17-.02-.26-.03l-.45-.07-.17-.03-.15-.04c-.1-.03-.2-.06-.28-.1-.04-.01-.08-.02-.11-.05h-.01a.9.9 0 0 1-.26-.2c-.63-.72-.16-3.41 1.55-4.23.3-.15.65-.23 1.04-.24h.11c2.4-.14.92-4.27.92-4.27s-.3-.07-.84-.1c-1.98 1.54-6.08 5.96-4.47 8.9Z" fill="#3B2345"/>
    <path d="M325.4 151.17c-.11.03-.11.03-.14-.08-1.39-2.7-2.98-5.79-5.7-7.95l-.04-.21.2-.05c2.74 2.27 4.34 5.37 5.73 8.06.02.1.04.2-.06.23ZM310.27 191.66c-.1.22-.28.5-.38.72-.19.29-.29.5-.32.81l-.04.31c-.24.74-.42 1.72-.78 2.15-.08.07-.08.07-.15-.02-.07-.1-.07-.09-.05-.24.27-.36.46-1.34.7-2.08l.03-.3c.03-.31.22-.6.4-.89.11-.21.3-.5.4-.72.6-1.86.65-3.7.31-6.21-.07-.09.02-.15.17-.14.15.02.15.02.14.17.3 2.67.17 4.58-.43 6.44ZM318.04 191.65s-1.08 2.33-1.56 3.2c-.09.13-.09.13-.06.23l-.09.13s-.1.02-.13-.09c-.02-.1-.02-.1.13-.47l.1-.02c.4-.74 1.17-2.45 1.48-3.06 1.26-3.03 1.72-6.23 2.18-9.42.06-.24.04-.34.1-.58.1-.57.21-1.15.19-1.8-.02-.12.08-.14.19-.16.1-.02.13.09.15.2.02.65-.09 1.23-.19 1.8-.06.24-.04.35-.1.58-.56 3.22-1.13 6.44-2.4 9.46ZM309.5 174.17c-2.4-.96-4.02-3.52-4.75-5.48-.01-.11-.01-.11.07-.23.1-.03.1-.03.23.06.75 2.06 2.44 4.5 4.6 5.28.1-.02.12.09.03.2.02.13-.09.15-.19.17.1-.02.1-.02 0 0ZM305.68 173.27c-.11.02-.22.04-.24-.06-1.72-2.53-2.72-4.77-2.98-7.16-.02-.11.08-.13.08-.13.1-.02.13.09.13.09a16.89 16.89 0 0 0 2.96 7.05c.13.08.13.08.05.21ZM296.94 169.85c.02.1.02.1 0 0l-.2.04c-.63-.44-.8-2.3-.75-4.2.03-.38-.04-.75-.08-.94-.52-5.76-.99-12.39.65-18.68-.02-.1.08-.11.19-.13.1-.02.12.07.14.16-1.64 6.3-1.27 12.94-.66 18.6.03.18 0 .57.08.93.04 1.23.08 3.59.68 3.94.03.17.05.26-.05.28ZM312.48 143.88c-.04-.1-.04-.1.03-.24.1-.04.1-.04.24.03.3.47.62 1.04 1.13 1.78 2.15 3.26 5.64 8.56 5.42 10.74l-.06.14-.1.04c-.1.04-.14-.06-.18-.16.2-1.93-3.33-7.34-5.45-10.5-.26-.72-.73-1.36-1.03-1.83ZM290.89 152.92c-.02.45-.02 1-.06 1.35.02.1-.09.13-.09.13-.1.02-.13-.1-.15-.2.04-.34.04-.89.06-1.34.07-1.9.01-4.33 1.37-5.82l.2-.04.05.21c-1.36 1.5-1.43 3.84-1.38 5.71ZM290.6 172.32c-.1.02-.1.02 0 0l-.21.04-.04-.21c.63-.68.99-1.64 1.35-2.6.2-.6.42-1.2.75-1.7-.02-.12.09-.14.22-.05.1-.02.12.09.04.21-.34.51-.55 1.11-.76 1.7-.27.84-.6 1.9-1.35 2.6ZM286.76 175.65c-.11.02-.13-.1-.13-.1-.02-.1-.02-.1.08-.12 1.86-.6 4-1.47 5.06-3.35-.02-.1.08-.13.2-.04.11-.02.14.09.05.21-1.16 1.9-3.3 2.78-5.26 3.4ZM280.74 152.7c-.15.37-.2.7-.31 1.18l-.09.13-.1.02c-.12.02-.14-.1-.16-.2.15-.36.2-.7.32-1.17.44-1.64.88-3.28 2.02-4.72l.21-.05.04.22a13.27 13.27 0 0 0-1.93 4.6ZM267.4 179.58c-.1.02-.12-.08-.12-.08-.99-5.46-1.52-13.56 2-21.25-.02-.11.08-.13.2-.04.12-.03.14.08.05.2-3.42 7.68-3.01 15.7-1.92 21.13l-.2.04ZM274.92 197.23c-1.56-1.36-2.24-4.68-2.7-7.04-.05-.43-.2-.74-.23-1.07 0-.11 0-.11.1-.12.1-.02.1-.02.12.1.03.32.19.73.22 1.06.46 2.25 1.04 5.69 2.58 6.95.12.1.12.1.02.21 0-.1 0-.1-.11-.1ZM278.63 192.78c-.11.02-.11.02-.24-.06-1.34-3.39-2.47-6.82-2.5-10.25-.02-.11.08-.13.19-.15.1-.02.13.09.15.19.02 3.43 1.13 6.75 2.48 10.15 0-.01.03.1-.08.12ZM288.84 196.44c-1.55-1.69-2.08-3.8-2.6-5.8-.15-.74-.38-1.36-.64-2.09-.02-.1-.02-.1.08-.13.1-.02.1-.02.13.1.26.72.4 1.46.64 2.08.54 2.11 1.05 4.11 2.58 5.69l.04.2-.11.03c-.1.02-.12-.08-.12-.08ZM272.4 168.18c.06.43.02.98.07 1.42.01.1-.1.12-.1.12-.1.02-.12-.1-.13-.2.06-.45 0-.88-.07-1.42-.05-.43-.1-.86-.04-1.2.11-2.64.72-5.68 1.56-8.52-.01-.1.1-.12.2-.13.1-.02.12.1.14.2a34.72 34.72 0 0 0-1.56 8.52c-.18.35-.12.78-.07 1.21Z" fill="#722F01"/>
  </g>
  <defs>
    <radialGradient id="d" cx="0" cy="0" r="1" gradientUnits="userSpaceOnUse" gradientTransform="translate(7.43 117.28) scale(6.8435)">
      <stop stop-color="#CED56F"/>
      <stop offset=".07" stop-color="#D5DB84" stop-opacity=".93"/>
      <stop offset=".2" stop-color="#E2E6AA" stop-opacity=".8"/>
      <stop offset=".34" stop-color="#EDEFC9" stop-opacity=".66"/>
      <stop offset=".48" stop-color="#F5F6E1" stop-opacity=".52"/>
      <stop offset=".63" stop-color="#FAFBF2" stop-opacity=".37"/>
      <stop offset=".8" stop-color="#FEFEFC" stop-opacity=".2"/>
      <stop offset="1" stop-color="#fff" stop-opacity="0"/>
    </radialGradient>
    <radialGradient id="f" cx="0" cy="0" r="1" gradientUnits="userSpaceOnUse" gradientTransform="rotate(180 12.98 21.2) scale(6.47039)">
      <stop stop-color="#CED56F"/>
      <stop offset=".07" stop-color="#D5DB84" stop-opacity=".93"/>
      <stop offset=".2" stop-color="#E2E6AA" stop-opacity=".8"/>
      <stop offset=".34" stop-color="#EDEFC9" stop-opacity=".66"/>
      <stop offset=".48" stop-color="#F5F6E1" stop-opacity=".52"/>
      <stop offset=".63" stop-color="#FAFBF2" stop-opacity=".37"/>
      <stop offset=".8" stop-color="#FEFEFC" stop-opacity=".2"/>
      <stop offset="1" stop-color="#fff" stop-opacity="0"/>
    </radialGradient>
    <radialGradient id="h" cx="0" cy="0" r="1" gradientUnits="userSpaceOnUse" gradientTransform="matrix(-7.37494 0 0 -7.37495 288.93 77.79)">
      <stop stop-color="#CED56F"/>
      <stop offset=".07" stop-color="#D5DB84" stop-opacity=".93"/>
      <stop offset=".2" stop-color="#E2E6AA" stop-opacity=".8"/>
      <stop offset=".34" stop-color="#EDEFC9" stop-opacity=".66"/>
      <stop offset=".48" stop-color="#F5F6E1" stop-opacity=".52"/>
      <stop offset=".63" stop-color="#FAFBF2" stop-opacity=".37"/>
      <stop offset=".8" stop-color="#FEFEFC" stop-opacity=".2"/>
      <stop offset="1" stop-color="#fff" stop-opacity="0"/>
    </radialGradient>
    <radialGradient id="j" cx="0" cy="0" r="1" gradientUnits="userSpaceOnUse" gradientTransform="translate(309.87 105.47) scale(5.18151)">
      <stop stop-color="#CED56F"/>
      <stop offset=".07" stop-color="#D5DB84" stop-opacity=".93"/>
      <stop offset=".2" stop-color="#E2E6AA" stop-opacity=".8"/>
      <stop offset=".34" stop-color="#EDEFC9" stop-opacity=".66"/>
      <stop offset=".48" stop-color="#F5F6E1" stop-opacity=".52"/>
      <stop offset=".63" stop-color="#FAFBF2" stop-opacity=".37"/>
      <stop offset=".8" stop-color="#FEFEFC" stop-opacity=".2"/>
      <stop offset="1" stop-color="#fff" stop-opacity="0"/>
    </radialGradient>
    <filter id="c" x="-8" y="101.05" width="30.87" height="32.46" filterUnits="userSpaceOnUse" color-interpolation-filters="sRGB">
      <feFlood flood-opacity="0" result="BackgroundImageFix"/>
      <feBlend in="SourceGraphic" in2="BackgroundImageFix" result="shape"/>
      <feGaussianBlur stdDeviation="4.5" result="effect1_foregroundBlur_2629_10177"/>
    </filter>
    <filter id="e" x="10.88" y="26.55" width="30.16" height="31.67" filterUnits="userSpaceOnUse" color-interpolation-filters="sRGB">
      <feFlood flood-opacity="0" result="BackgroundImageFix"/>
      <feBlend in="SourceGraphic" in2="BackgroundImageFix" result="shape"/>
      <feGaussianBlur stdDeviation="4.5" result="effect1_foregroundBlur_2629_10177"/>
    </filter>
    <filter id="g" x="273" y="61" width="31.87" height="33.58" filterUnits="userSpaceOnUse" color-interpolation-filters="sRGB">
      <feFlood flood-opacity="0" result="BackgroundImageFix"/>
      <feBlend in="SourceGraphic" in2="BackgroundImageFix" result="shape"/>
      <feGaussianBlur stdDeviation="4.5" result="effect1_foregroundBlur_2629_10177"/>
    </filter>
    <filter id="i" x="296" y="91" width="27.74" height="28.95" filterUnits="userSpaceOnUse" color-interpolation-filters="sRGB">
      <feFlood flood-opacity="0" result="BackgroundImageFix"/>
      <feBlend in="SourceGraphic" in2="BackgroundImageFix" result="shape"/>
      <feGaussianBlur stdDeviation="4.5" result="effect1_foregroundBlur_2629_10177"/>
    </filter>
    <linearGradient id="b" x1="162" y1="298" x2="162" y2="-1" gradientUnits="userSpaceOnUse">
      <stop offset=".31" stop-color="#CCE0F4"/>
      <stop offset=".37" stop-color="#B7CBE1"/>
      <stop offset=".91" stop-color="#012369"/>
    </linearGradient>
    <clipPath id="a">
      <path fill="#fff" d="M0 0h320v194H0z"/>
    </clipPath>
  </defs>
</svg>
