<svg width="320" height="178" viewBox="0 0 320 178" fill="none" xmlns="http://www.w3.org/2000/svg">
    <g clip-path="url(#clip0_5728_44746)">
        <path d="M-0.000198364 26.9589H320V178H-0.000198364V26.9589Z" fill="url(#paint0_linear_5728_44746)"/>
        <g filter="url(#filter0_f_5728_44746)">
            <circle cx="105" cy="43" r="4" fill="#FDFEE2" fill-opacity="0.6"/>
        </g>
        <path d="M106.713 43.5152C106.845 43.375 107.243 43.0946 106.978 43.0946C105.121 43.0946 105.652 41.9732 104.724 40.5714C104.724 40.7116 104.591 40.8518 104.591 40.8518C104.193 42.6741 103.265 42.8143 103 43.5152C103 43.6553 103.132 43.5152 103.265 43.6553C103.53 43.9357 103.795 44.216 103.928 44.4964C104.193 44.7768 104.591 45.758 104.856 46.0384C104.856 46.0384 104.724 45.1973 105.387 44.6366C105.917 44.3562 106.315 43.9357 106.713 43.5152Z" fill="#FDFEE2"/>
        <g filter="url(#filter1_f_5728_44746)">
            <circle cx="305" cy="165" r="3" fill="#FDFEE2" fill-opacity="0.6"/>
        </g>
        <path d="M306.784 165.208C306.884 165.103 307.182 164.892 306.983 164.892C305.591 164.892 305.989 164.051 305.293 163C305.293 163.105 305.193 163.21 305.193 163.21C304.895 164.577 304.199 164.682 304 165.208C304 165.313 304.099 165.208 304.199 165.313C304.398 165.523 304.597 165.733 304.696 165.944C304.895 166.154 305.193 166.89 305.392 167.1C305.392 167.1 305.293 166.469 305.79 166.049C306.188 165.839 306.486 165.523 306.784 165.208Z" fill="#FDFEE2"/>
        <g filter="url(#filter2_f_5728_44746)">
            <circle cx="157.5" cy="154.5" r="3.5" fill="#FDFEE2" fill-opacity="0.6"/>
        </g>
        <path d="M159.249 154.576C159.365 154.453 159.713 154.208 159.481 154.208C157.856 154.208 158.32 153.227 157.508 152C157.508 152.123 157.392 152.245 157.392 152.245C157.044 153.84 156.232 153.962 156 154.576C156 154.698 156.116 154.576 156.232 154.698C156.464 154.944 156.696 155.189 156.812 155.434C157.044 155.68 157.392 156.538 157.624 156.784C157.624 156.784 157.508 156.048 158.088 155.557C158.552 155.312 158.9 154.944 159.249 154.576Z" fill="#FDFEE2"/>
    </g>
    <path d="M31.3062 66.0716L31.0767 71.3617C30.3506 72.3108 29.5833 73.5374 28.252 73.8858C26.5261 74.3393 24.2557 73.7587 24.1217 73.7616C24.1166 73.677 24.1167 73.5938 24.1234 73.5067L24.3432 68.4805C24.3432 68.4805 26.0587 67.1748 27.8157 66.7296C29.1846 66.3859 30.5548 67.0527 31.3062 66.0716Z" fill="#F4DDDC"/>
    <path d="M31.5083 61.5679L31.5031 61.5665L31.5003 61.5769C30.7437 62.5566 29.2614 64.38 27.8925 64.7238C26.1355 65.169 24.5349 63.974 24.5349 63.974L24.7682 58.6905C24.7682 58.6905 26.2894 57.5714 27.9359 57.0411C28.072 56.9888 28.2041 56.952 28.3412 56.9166C29.6843 56.5658 31.0023 57.241 31.7364 56.283L31.5729 60.1252L31.5083 61.5679Z" fill="#F4DDDC"/>
    <path d="M31.9304 51.7883C31.2323 52.6949 29.8971 54.5078 28.6256 54.861C28.223 54.9752 27.8206 55.0061 27.4438 54.9829C26.0674 54.9194 24.9636 54.1907 24.9636 54.1907L25.1917 48.9057C25.1917 48.9057 26.3178 47.9973 27.6835 47.4583C27.9493 47.3574 28.224 47.2645 28.5021 47.2002C29.8199 46.8816 31.1726 47.4273 31.9783 46.6994C32.0405 46.6328 32.1066 46.5728 32.1585 46.5034L31.9304 51.7883Z" fill="#F4DDDC"/>
    <path d="M32.3979 39.7672C31.5635 41.1202 30.4561 43.3882 29.4197 44.1486C28.881 44.5428 28.3571 44.7577 27.8648 44.8756C26.6634 45.1532 25.6846 44.8077 25.3684 44.8895L25.5542 40.6536C25.8715 40.4222 26.302 39.1885 27.1229 37.5543C27.2441 37.3092 27.3733 37.0552 27.5156 36.7935C28.1145 35.6772 29.2947 34.8775 29.7459 33.0277L29.7511 33.0291C29.7511 33.0291 29.7549 33.0357 29.7639 33.0436C31.3422 34.9432 32.2651 37.3 32.3979 39.7672Z" fill="#F4DDDC"/>
    <path d="M16.3444 39.4516C15.9928 39.1686 15.2839 38.9343 14.5716 38.7545C13.564 38.4956 12.5451 38.3614 12.5451 38.3614C12.5451 38.3614 10.83 37.0136 10.0117 36.7943L9.9806 36.786C10.5797 34.9646 11.6244 33.3238 13.0267 32.0063L13.037 32.0091C13.5942 32.2916 16.6249 33.3702 16.6249 33.3702C16.6249 33.3702 16.7366 33.6166 16.8981 33.9874C17.2302 34.737 17.7738 35.9819 18.0765 36.6959C17.1884 37.3794 16.571 38.3576 16.3444 39.4516Z" fill="#F4DDDC"/>
    <path d="M31.0797 71.3514L30.9749 73.7937C30.9327 74.6761 30.5532 75.5126 29.9121 76.1236C29.2709 76.7346 28.4146 77.0713 27.5327 77.0682C26.6457 77.0637 25.7957 76.7138 25.1609 76.0996C24.5275 75.4802 24.1526 74.6414 24.1233 73.7565C24.3589 73.7474 29.4067 73.5345 31.0797 71.3514Z" fill="#439A72"/>
    <path d="M31.1568 66.2369C29.4319 68.1785 24.9685 68.4481 24.4061 68.475L24.3501 68.4767L24.345 68.4753L24.5351 63.9741C24.5351 63.9741 29.7825 63.8035 31.5005 61.577L31.3066 66.0716C31.2574 66.1306 31.2083 66.1896 31.1568 66.2369Z" fill="#439A72"/>
    <path d="M31.7364 56.2831C31.029 57.2038 29.7278 57.7712 28.4342 58.124C26.5876 58.6341 24.7683 58.6906 24.7683 58.6906L24.9637 54.1908C24.9637 54.1908 26.0165 54.1565 27.3342 53.9211C28.9573 53.6232 30.9835 53.0225 31.9304 51.7885L31.7364 56.2831Z" fill="#439A72"/>
    <path d="M24.792 34.487C24.4627 35.1982 23.8734 35.7398 23.4215 36.4736C22.5645 35.922 21.5489 35.6721 20.5343 35.7499C20.6087 34.8095 19.7559 34.1591 19.2853 33.1392C19.2502 33.0632 19.2202 32.9885 19.1902 32.9139C18.5687 31.2762 18.368 29.2905 18.3623 29.1669L18.3571 29.1655C19.3574 28.9339 20.3864 28.8432 21.4081 28.8838C22.4336 28.931 23.4465 29.108 24.4233 29.4197C24.4233 29.4197 24.4219 29.4249 24.4309 29.4328C24.4891 29.6094 25.2246 31.8161 25.0421 33.6159C25.0106 33.9405 24.9174 34.2264 24.792 34.487Z" fill="#F4DDDC"/>
    <path d="M15.0552 44.3246C14.3844 44.922 13.5115 45.2377 12.6159 45.2031C11.7165 45.162 10.871 44.7745 10.259 44.1164C10.208 44.0583 10.1569 44.0002 10.1072 43.9369C9.87132 43.6572 9.6907 43.3368 9.55985 42.9964L9.55468 42.995C9.39905 42.5814 9.32185 42.1443 9.33585 41.6984L9.41056 39.8865C9.45671 38.8441 9.64309 37.817 9.9693 36.8275C9.97208 36.8171 9.98281 36.7978 9.98041 36.786L10.0115 36.7944C11.1386 37.0631 12.9911 37.5872 14.5998 38.3791C15.2436 38.6904 15.8463 39.0517 16.3442 39.4516L16.3494 39.453C16.3011 39.6954 16.2698 39.9368 16.2591 40.1838L16.1844 41.9957C16.1277 42.891 15.7208 43.7257 15.0552 44.3246Z" fill="#439A72"/>
    <path d="M20.5357 35.7447C19.6396 35.8155 18.7846 36.1471 18.0769 36.6958C17.6991 35.8063 17.0828 35.0194 16.3955 34.3522C15.131 33.1252 13.6384 32.3144 13.036 32.0142C14.5296 30.6047 16.3645 29.6197 18.3585 29.1602L18.3637 29.1616C18.4381 29.2982 19.4918 31.146 20.1033 33.0697C20.4075 34.0061 20.6009 34.9628 20.5357 35.7447Z" fill="#439A72"/>
    <path d="M27.434 38.5702C26.5963 39.8113 25.8457 40.4374 25.5546 40.6536L25.5571 40.5821C25.5916 39.7697 25.4139 38.9616 25.0345 38.2437C24.6616 37.522 24.1035 36.9117 23.4215 36.4736C23.8454 35.7822 24.1117 34.9542 24.2754 34.1154C24.7289 31.8221 24.4205 29.4301 24.4205 29.4301L24.4309 29.4328C26.5126 30.0961 28.3594 31.3459 29.7529 33.0239L29.7501 33.0343C29.1336 35.5837 28.2451 37.3664 27.434 38.5702Z" fill="#439A72"/>
    <path d="M31.9783 46.6995C30.974 47.796 29.1018 48.3603 27.5689 48.6323C26.2446 48.8715 25.1918 48.9058 25.1918 48.9058L25.3686 44.8896C25.6861 44.8026 26.6833 44.5202 27.8934 43.8784C29.354 43.1096 31.1303 41.8257 32.398 39.7672C32.418 40.1278 32.4182 40.4998 32.4016 40.8729L32.1585 46.5035C32.1001 46.5767 32.0444 46.6395 31.9783 46.6995Z" fill="#439A72"/>
    <g style="mix-blend-mode:multiply" opacity="0.2">
        <path d="M31.7736 68.7615L31.1913 68.7387L24.4059 68.4749L24.35 68.4766L24.3448 68.4752L24.535 63.974L24.7682 58.6905L24.9636 54.1907L25.1917 48.9057L25.3685 44.8895L25.5542 40.6535L25.5567 40.582C25.5912 39.7697 25.4136 38.9615 25.0341 38.2436C24.6613 37.522 24.1031 36.9116 23.4211 36.4735C22.5641 35.9219 21.5485 35.672 20.534 35.7499C19.6393 35.8155 18.7843 36.1471 18.0766 36.6958C17.1884 37.3793 16.571 38.3575 16.3445 39.4515L16.3497 39.4529C16.3014 39.6953 16.27 39.9367 16.2593 40.1837L16.1846 41.9957C16.1279 42.8909 15.7211 43.7256 15.0554 44.3245C14.3846 44.9219 13.5117 45.2376 12.6161 45.203C11.7167 45.1619 10.8712 44.7744 10.2593 44.1163C10.2082 44.0582 10.1572 44.0001 10.1075 43.9369L9.5601 42.9963L9.55493 42.9949C9.55493 42.9949 14.0596 44.6017 14.5716 38.7544C14.5828 38.6297 14.5926 38.5102 14.6 38.379C14.7087 36.4818 15.4056 35.1863 16.3952 34.3522C16.5535 34.217 16.7246 34.0963 16.8982 33.9874C17.611 33.5233 18.4375 33.2562 19.285 33.1391C19.5562 33.1008 19.8284 33.0793 20.103 33.0697C21.7324 33.0177 23.3325 33.4687 24.275 34.1154C24.4486 34.2341 24.6209 34.3579 24.7917 34.487C25.7166 35.1789 26.549 36.0293 27.123 37.5543C27.2401 37.8632 27.345 38.1967 27.4337 38.5702C27.7668 39.8752 27.9423 41.5821 27.8933 43.8784C27.8905 44.1996 27.8797 44.5298 27.8648 44.8755C27.8293 45.671 27.772 46.5272 27.6835 47.4583C27.6485 47.8375 27.6107 48.2271 27.5688 48.6323C27.5457 48.8426 27.5213 49.0581 27.4969 49.2736C27.2798 51.1196 27.2476 52.6487 27.3341 53.921C27.3617 54.2947 27.3999 54.6492 27.4437 54.9829C27.5564 55.7847 27.7283 56.4692 27.9359 57.0411C28.0864 57.4534 28.2507 57.8138 28.4341 58.1239C29.6995 60.3005 31.5729 60.1252 31.5729 60.1252L31.7736 68.7615Z" fill="#4C8089"/>
    </g>
    <path d="M79.4833 179.228C58.4794 194.984 34.3501 188.075 34.3501 188.075L21.3444 190.847L23.3637 185.631L20.4495 185.277L20.2665 185.256L16.9697 190.019L9.08937 187.418L8.46287 183.603L-0.478553 180.447L-3.57772 183.125L-10.9639 180.152L-10.917 174.425L-13.2453 172.879L-16.5435 177.647L-22.7553 174.911C-22.7553 174.911 -22.9749 171.96 -22.942 167.3C-38.4164 159.312 -47.3265 149.658 -52.0506 140.292C-56.7396 131.003 -57.3008 121.992 -56.065 115.184C-53.5693 101.519 -39.8514 76.9049 -22.4053 71.2151C-4.95262 65.5214 22.7909 70.8347 41.6164 78.0218C41.6164 78.0218 54.592 82.5312 67.7946 90.1713C67.8371 90.1993 67.8861 90.2236 67.9286 90.2516C74.8331 94.2556 81.7909 99.1177 86.9724 104.642C107.201 132.262 100.269 163.58 79.4833 179.228Z" fill="#F79D31"/>
    <path opacity="0.25" d="M79.4831 179.228C58.4792 194.984 34.3499 188.075 34.3499 188.075L21.3442 190.847L23.3635 185.631L20.4493 185.277L20.2663 185.256L16.9694 190.018L9.08917 187.418L8.46266 183.603L-0.478755 180.447L-3.57791 183.125L-10.9641 180.152L-10.9172 174.425L-13.2455 172.879L-16.5437 177.647L-22.7555 174.911C-22.7555 174.911 -22.9751 171.96 -22.9422 167.3C-38.4166 159.312 -47.3267 149.658 -52.0508 140.292C-47.3401 143.264 -23.3739 157.391 -9.8679 146.765C-9.8679 146.765 26.0224 138.373 29.8795 103.012C31.5216 87.9742 48.6492 86.6846 67.7944 90.1713C67.8369 90.1993 67.8859 90.2235 67.9284 90.2516C74.8329 94.2556 81.7906 99.1177 86.9721 104.642C107.201 132.262 100.269 163.58 79.4831 179.228Z" fill="#B65514"/>
    <path d="M10.3548 147.288C12.0282 150.573 16.4338 149.483 16.4338 149.483C16.4338 149.483 20.0632 152.865 22.9616 150.521C25.7254 148.142 24.305 141.799 19.2359 139.025C12.2992 140.57 8.55189 143.968 10.3548 147.288Z" fill="#9C501D"/>
    <path d="M17.1863 146.137C19.6712 148.507 22.3022 148.218 24.2545 146.754C24.1365 144.024 22.2924 140.838 19.0669 139.119C15.4657 139.858 12.8504 141.145 11.2983 142.711C12.293 144.82 13.8146 147.077 17.1877 146.132L17.1863 146.137Z" fill="#FFD62C"/>
    <path opacity="0.35" d="M79.4835 179.228C58.4797 194.984 34.3504 188.075 34.3504 188.075L21.3446 190.847L23.364 185.631L20.4498 185.277C58.749 133.047 56.6065 110.173 56.6065 110.173L67.9288 90.2516C74.8334 94.2556 81.7911 99.1177 86.9726 104.642C107.201 132.262 100.27 163.58 79.4835 179.228Z" fill="#B65514"/>
    <path d="M82.7718 100.741C82.3487 101.304 81.8579 101.872 81.2973 102.411C81.0103 102.695 80.6987 102.966 80.3703 103.239C77.0983 106.831 72.7031 109.851 67.4434 111.994C67.3784 111.988 67.3149 111.976 67.2513 111.965C65.6824 111.75 64.0026 111.472 62.1951 111.132C60.9025 110.88 59.5426 110.61 58.1223 110.296C54.7682 109.575 51.0633 108.671 46.9583 107.582C45.6361 107.233 44.2791 106.87 42.8782 106.483C34.8068 104.265 26.0658 100.713 17.8732 96.73C15.8875 95.7705 13.9323 94.7802 12.0358 93.778C12.0306 93.7766 12.032 93.7714 12.032 93.7714C11.4183 93.4515 10.8111 93.1278 10.209 92.8055C3.69044 89.288 -2.15277 85.6738 -6.59481 82.5073C-7.17765 79.7308 -7.11768 77.2487 -6.7233 75.3004C-6.63262 74.8584 -6.52677 74.4426 -6.40575 74.0531C-6.22303 73.4748 -6.01098 72.932 -5.77619 72.4287C-5.07005 70.8914 -4.155 69.6932 -3.18854 68.8419C-1.70205 67.5415 -0.113233 67.0401 0.991028 67.3526C3.07006 67.943 3.57935 65.5036 2.60187 62.2939C1.60747 59.0852 4.10596 57.5508 7.88786 57.5871C8.09637 50.7592 11.3957 48.2457 17.6534 48.6346C21.5031 48.8944 23.1186 52.6859 23.9921 56.4285C24.5719 58.9265 24.8162 61.4124 25.1827 62.8208C26.1186 66.1859 28.9713 66.4784 32.0726 64.6003C32.2607 64.4786 32.4512 64.3686 32.6347 64.2846C34.924 63.1992 37.0688 64.5178 38.6189 66.0879C38.9297 66.3988 39.2209 66.7211 39.4758 67.0336C40.5809 68.3789 41.2104 67.9148 42.1003 67.5148C42.5434 67.3115 43.0524 67.1315 43.7224 67.2C45.1077 67.3547 46.0622 68.4542 46.6034 70.2258C46.7489 70.6978 46.8702 71.2189 46.9569 71.7861C47.0118 72.1617 47.0545 72.5617 47.0878 72.9759C47.163 73.9176 47.2607 74.5267 47.4368 74.8847C47.8896 75.8055 48.859 75.0882 51.2266 74.146C51.9965 73.8415 52.8262 73.542 53.6811 73.2936L53.6862 73.295C56.4926 72.476 59.5959 72.1861 62.1246 73.9573C65.4781 76.1105 68.063 78.5629 68.1609 81.8645C68.264 85.1674 67.3779 85.2631 69.9398 85.2945C72.5159 85.3352 72.4985 87.2236 72.1182 89.1813C71.7366 91.1442 72.8337 93.3478 74.6798 92.3214C80.8875 90.1209 82.6614 90.2965 84.1043 91.5824C84.1723 91.6395 84.2389 91.7018 84.3041 91.7692C84.3514 91.8207 84.4076 91.8802 84.4521 91.9421C84.498 91.9988 84.5462 92.0672 84.5827 92.1381C84.6183 92.192 84.6538 92.246 84.6851 92.3154C85.4828 93.917 85.2324 97.4417 82.7784 100.737L82.7718 100.741Z" fill="#D156B7"/>
    <path d="M46.0965 102.677C46.5363 104.288 46.1261 106.171 46.9569 107.587C45.6347 107.239 44.2777 106.875 42.8768 106.489C34.8054 104.27 26.0644 100.718 17.8666 96.7338C17.9696 96.7225 18.0739 96.706 18.1758 96.6778C21.092 95.9881 22.3249 93.5205 24.7933 92.0779C26.5326 91.0562 28.8903 90.5444 32.8877 91.5377C37.241 92.632 42.1389 95.299 44.6646 99.3399C45.3068 100.361 45.8019 101.477 46.0913 102.676L46.0965 102.677Z" fill="#BA47A4"/>
    <path d="M34.5237 79.2357C35.9318 79.1189 37.0222 77.7013 36.9748 76.656C36.6944 73.9939 33.0519 73.4786 31.8286 75.3714C30.3119 77.6963 32.5872 79.3774 34.5237 79.2357Z" fill="#E867D6"/>
    <path d="M35.435 72.7904C36.0715 71.7618 36.024 70.7165 33.9269 70.8152C31.6057 71.7088 34.7986 73.819 35.435 72.7904Z" fill="#E867D6"/>
    <path d="M44.1097 87.3834C44.3527 84.695 41.3846 80.5855 37.2225 82.5069C32.3334 84.5722 34.122 89.2094 37.9724 90.813C41.8229 92.4165 43.9112 89.9061 44.1059 87.3769L44.1097 87.3834Z" fill="#E867D6"/>
    <path opacity="0.77" d="M39.4219 84.3454C40.5889 83.8643 40.311 83.2236 38.7027 82.9481C37.7792 82.7895 36.1382 83.9208 36.1485 84.8562C36.0397 85.6764 38.1397 84.9456 39.4219 84.3454Z" fill="white"/>
    <path d="M44.8969 90.7031C44.94 90.5425 44.983 90.3819 44.8276 90.3403C44.6722 90.2987 44.5065 90.2543 44.4648 90.4096C42.627 92.6485 40.9422 92.5135 38.5954 91.6793C38.5954 91.6793 38.4349 91.6362 38.3932 91.7916C38.3516 91.947 38.3072 92.1128 38.4626 92.1544L39.4166 92.4267C41.4905 93.0157 43.1021 92.7814 44.8969 90.7031Z" fill="#E867D6"/>
    <path d="M33.4373 86.0891C33.3417 85.203 33.7277 84.446 34.4321 83.7854C34.4751 83.6248 34.5181 83.4642 34.3628 83.4226C34.2074 83.3809 34.0416 83.3365 34 83.4919C33.2526 84.3131 32.8197 85.2241 32.8723 86.2708C32.9198 87.3161 33.5637 88.7044 34.6564 89.7022L34.817 89.7453L35.0192 89.6329C35.0622 89.4723 35.1053 89.3118 34.9499 89.2701C33.8571 88.2723 33.3308 87.0876 33.4373 86.0891Z" fill="#E867D6"/>
    <path d="M49.8391 55.3324C50.5217 55.3543 51.3384 54.8959 51.4033 54.0528C51.4683 53.2097 51.0098 52.393 50.3273 52.3711C49.6448 52.3492 48.828 52.8076 48.7631 53.6507C48.6982 54.4938 49.1566 55.3105 49.8391 55.3324Z" fill="#D156B7"/>
    <path d="M51.179 68.2322C51.7341 68.17 52.4686 67.5008 52.6267 66.4551C52.7861 65.4042 52.5185 64.4553 51.9582 64.5161C51.3979 64.577 50.6686 65.2476 50.5105 66.2933C50.351 67.3442 50.6186 68.293 51.179 68.2322Z" fill="#D156B7"/>
    <path d="M83.1636 83.0144C80.1892 85.6204 77.4659 89.1542 76.1921 88.7907C76.0108 88.7421 75.8344 88.6338 75.6785 88.4699C74.7519 87.4943 74.4631 84.6357 76.7159 80.8481C78.6404 78.6381 80.6217 76.693 82.6366 76.8388C83.0172 76.8686 83.4043 76.9778 83.7875 77.1638C86.0379 78.3164 86.0936 80.5741 83.1688 83.0157L83.1636 83.0144Z" fill="#BA47A4"/>
    <path d="M82.0962 82.7285C79.4942 85.0013 77.0934 87.9942 75.6729 88.4685C74.7463 87.493 74.4575 84.6343 76.7103 80.8468C78.6348 78.6367 80.616 76.6916 82.631 76.8374C82.6555 76.8495 82.6852 76.863 82.7149 76.8765C84.9653 78.0291 85.021 80.2868 82.0962 82.7285Z" fill="#D156B7"/>
    <path d="M69.8059 66.3174C67.8701 65.2546 67.1745 68.3269 68.3571 69.0102C69.5397 69.6935 71.0148 67.524 69.8059 66.3174Z" fill="#D156B7"/>
    <path d="M85.43 88.9955C85.2912 88.975 85.1617 88.9403 85.034 88.8783C84.1057 88.4686 83.5688 87.1367 83.9452 86.3327C84.4211 85.2611 85.2809 84.6421 86.581 85.529C86.6717 85.6254 86.7427 85.7333 86.7968 85.8421C87.4792 87.1075 86.6016 89.3261 85.4249 88.9941L85.43 88.9955Z" fill="#BA47A4"/>
    <path d="M85.034 88.8783C84.1057 88.4686 83.5688 87.1367 83.9452 86.3327C84.4211 85.2611 85.2809 84.6421 86.581 85.529C86.6717 85.6254 86.7427 85.7333 86.7968 85.8421C86.8772 87.0961 85.9333 88.6918 85.0288 88.8769L85.034 88.8783Z" fill="#D156B7"/>
    <path d="M1.67175 51.5304C0.508928 51.3743 0.811968 52.1494 0.17552 53.178C-0.459541 54.2014 -1.05221 53.8649 -2.07865 52.0188C-2.09622 51.9808 -2.12036 51.9466 -2.13793 51.9086C-3.10498 50.0895 -3.13208 47.9116 -2.20215 46.9894C-0.78773 45.8751 1.98395 45.8072 3.21797 47.3759C3.5301 47.7648 3.74159 48.2601 3.81341 48.8622C4.15797 51.8857 2.63617 51.8055 1.67694 51.5318L1.67175 51.5304Z" fill="#BA47A4"/>
    <path d="M1.28094 50.854C0.118121 50.6979 0.42116 51.473 -0.215288 52.5016C-0.780783 53.4104 -1.30873 53.2467 -2.14337 51.9072C-3.11043 50.0881 -3.13753 47.9103 -2.2076 46.9881C-0.793177 45.8737 1.97852 45.8059 3.21253 47.3745C3.31379 47.6182 3.38082 47.8859 3.41603 48.1896C3.76059 51.2131 2.23879 51.1329 1.27956 50.8592L1.28094 50.854Z" fill="#D156B7"/>
    <path d="M-0.642349 60.3533C-0.771718 61.0847 -1.81867 61.3871 -2.63065 61.0196L-2.63583 61.0182C-3.46852 60.6452 -4.05032 59.5844 -3.13602 57.5811C-2.7543 57.5446 -2.42928 57.554 -2.14125 57.5978L-2.13607 57.5992C-0.702521 57.8223 -0.408591 58.9836 -0.642349 60.3533Z" fill="#BA47A4"/>
    <path d="M70.7884 77.4446C69.8979 78.0332 68.9339 77.4251 68.3931 76.7085C68.1604 76.3963 68.0112 76.0621 67.9832 75.7937C67.9306 74.747 70.1794 72.2796 71.6189 72.6876C71.8906 72.8547 72.1073 73.0405 72.2746 73.2241C73.6655 74.7459 71.9223 76.6937 70.7884 77.4446Z" fill="#BA47A4"/>
    <path d="M70.3376 76.9297C69.6638 77.3932 68.9484 77.1626 68.3994 76.7046C68.1666 76.3924 68.0174 76.0582 67.9894 75.7898C67.9368 74.7431 70.1856 72.2758 71.6252 72.6837C71.8968 72.8509 72.1135 73.0366 72.2808 73.2202C72.7966 74.6519 71.3349 76.2532 70.3376 76.9297Z" fill="#D156B7"/>
    <path d="M44.3196 58.4445C43.9041 59.8709 42.3277 60.0981 41.1098 59.8161C40.5825 59.6915 40.1244 59.4744 39.8504 59.2122C38.8538 58.1458 39.0231 53.4946 40.9198 52.6316C41.3578 52.5714 41.7585 52.5677 42.1025 52.6099C44.9528 52.9739 44.8524 56.6221 44.3248 58.4459L44.3196 58.4445Z" fill="#BA47A4"/>
    <path d="M43.3685 58.3063C43.0729 59.4095 42.0946 59.808 41.1046 59.8147C40.5773 59.6901 40.1192 59.473 39.8452 59.2108C38.8486 58.1444 39.0179 53.4933 40.9146 52.6303C41.3526 52.57 41.7533 52.5663 42.0973 52.6085C43.9395 53.6684 43.8236 56.6906 43.3751 58.3025L43.3685 58.3063Z" fill="#D156B7"/>
    <path opacity="0.5" d="M32.6278 64.2883C31.1261 68.1939 28.1163 70.6627 25.4903 69.9591C22.5534 69.1722 21.1871 64.7202 22.4473 60.0172C22.8054 58.6809 23.337 57.4632 23.9838 56.4374C24.5636 58.9355 24.8079 61.4214 25.1744 62.8297C26.1103 66.1948 28.9631 66.4873 32.0644 64.6092C32.2524 64.4875 32.4429 64.3776 32.6264 64.2935L32.6278 64.2883Z" fill="#BA47A4"/>
    <path opacity="0.5" d="M42.0327 67.8299C41.6774 69.1558 40.5576 69.9994 39.5268 69.7232C38.4961 69.447 37.9495 68.1514 38.3034 66.8306C38.3742 66.5664 38.476 66.3106 38.6124 66.0918C38.9232 66.4027 39.2144 66.725 39.4693 67.0375C40.5744 68.3829 41.2039 67.9187 42.0938 67.5187C42.0764 67.6251 42.0552 67.7249 42.0275 67.8285L42.0327 67.8299Z" fill="#BA47A4"/>
    <path d="M75.3749 97.3709C76.0196 98.0933 77.2472 98.1113 77.7987 97.6484C79.1439 96.399 77.9207 94.1893 76.3814 94.2987C74.4814 94.428 74.5009 96.3651 75.3763 97.3658L75.3749 97.3709Z" fill="#E867D6"/>
    <path d="M80.7115 93.8433C81.536 93.77 82.0875 93.3071 81.1735 92.2018C79.728 91.2982 79.8869 93.9166 80.7115 93.8433Z" fill="#E867D6"/>
    <path d="M86.2801 104.035C85.1868 102.914 84.0151 101.818 82.7857 100.75C82.7805 100.749 82.7767 100.742 82.7715 100.741C82.5973 100.583 82.4203 100.436 82.2394 100.282C82.0752 100.46 81.9057 100.636 81.7259 100.81C81.4388 101.094 81.1273 101.366 80.7988 101.639C80.2952 102.192 79.762 102.732 79.2004 103.253C79.1474 103.928 78.8251 104.53 78.2415 104.967C77.7351 105.303 77.0844 105.556 76.2649 105.714C75.3227 105.895 74.1575 105.955 72.7449 105.882C72.5383 105.865 72.3304 105.854 72.1121 105.84C69.6399 105.66 66.4648 105.12 62.4636 104.204C57.751 103.124 51.8871 101.514 44.6643 99.3399C44.2942 99.2296 43.9202 99.1128 43.5397 98.9997C37.5531 97.1847 31.0684 94.7421 24.7916 92.0832C20.5297 90.275 16.3655 88.3709 12.5247 86.5035C9.91592 85.2383 7.4629 83.9925 5.22085 82.8089L5.21566 82.8075C4.03614 82.175 2.92117 81.5709 1.87493 80.9797C1.70993 80.8911 1.55149 80.7986 1.39167 80.7114C0.665072 80.2947 -0.031844 79.8914 -0.688704 79.5045C-0.847139 79.412 -1.00039 79.321 -1.15226 79.2248C-3.70062 77.6926 -5.58433 76.394 -6.55627 75.4841C-6.61768 75.4232 -6.68566 75.3661 -6.73533 75.3029C-7.01029 75.0238 -5.43842 72.5138 -4.48126 71.0549C-4.02483 70.3667 -3.13097 69.2683 -2.70091 68.6785C-5.2421 68.6526 -9.21982 68.8914 -11.6141 69.1048C-13.8311 70.2928 -15.464 71.8704 -15.1859 74.1266C-14.9806 75.7638 -11.7387 78.8308 -6.60683 82.5097C-2.16618 85.6815 3.67701 89.2956 10.197 92.808C10.7976 93.1355 11.4048 93.4592 12.02 93.7739C12.02 93.7739 12.0186 93.7791 12.0238 93.7804C13.9268 94.7789 15.8755 95.7729 17.8612 96.7324C26.0538 100.715 34.7948 104.268 42.8662 106.486C44.2671 106.872 45.6241 107.236 46.9463 107.585C51.0461 108.672 54.7509 109.576 58.1103 110.298C59.5306 110.612 60.8905 110.882 62.1831 111.134C63.9854 111.473 65.6703 111.752 67.2393 111.967C67.3028 111.979 67.3664 111.99 67.4313 111.997C76.6865 113.277 81.9592 112.453 84.627 109.748C86.0398 108.267 86.459 106.081 86.2787 104.04L86.2801 104.035Z" fill="#F9B35F"/>
    <path d="M2.01712 136.782C3.93149 134.403 9.31064 109.003 -2.14072 102.803C-6.87414 100.952 -17.1465 103.612 -21.017 113.561C-24.7298 123.564 -23.7292 133.442 -15.2598 135.894C-6.84518 138.51 0.101369 139.166 2.01574 136.787L2.01712 136.782Z" fill="#9C501D"/>
    <path opacity="0.5" d="M34.1335 188.178C34.1335 188.178 58.2642 195.082 79.2666 179.331C84.5841 175.46 88.9041 170.339 92.1068 164.83C85.9736 169.487 76.3277 175.963 66.711 177.771C51.2326 180.924 35.3769 181.611 33.3054 168.665C25.1683 177.465 7.85348 175.663 -0.79102 171.17C-9.43551 166.678 -11.4246 155.02 -11.4246 155.02C-11.4246 155.02 -21.4555 165.128 -38.9808 148.158C-49.1856 137.907 -53.0735 121.982 -54.7432 110.437C-55.3633 112.192 -55.7683 113.848 -55.9023 115.239C-58.3942 128.911 -53.6041 151.434 -22.7793 167.355C-22.807 172.016 -22.5926 174.966 -22.5926 174.966L-16.3756 177.703L-13.0788 172.941L-10.7491 174.481L-10.7974 180.214L-3.40981 183.181L-0.310646 180.503L8.63075 183.66L9.25727 187.475L17.1362 190.08L20.433 185.318L23.5302 185.692L21.5109 190.908L34.1425 188.186L34.1335 188.178Z" fill="#B65514"/>
    <path d="M49.5984 158.619C53.221 159.54 58.4631 156.903 61.8732 151.821C65.067 146.842 70.1262 130.489 60.4154 125.439C56.3703 124.188 48.0123 124.469 42.959 131.664C37.9056 138.859 32.5862 145.783 33.4394 148.96C34.5089 152.033 45.9705 157.697 49.5984 158.619Z" fill="#9C501D"/>
    <path d="M4.12053 129.801C5.71939 121.203 5.96921 107.28 -1.98316 102.857C-2.6219 102.63 -3.26064 102.403 -3.95415 102.34C-6.1125 103.371 -10.0668 105.926 -13.0114 111.715C-17.2889 120.262 -19.2586 125.852 -12.6881 129.611C-6.75642 133.143 -0.848536 135.231 4.12053 129.801Z" fill="#FFD62C"/>
    <path d="M57.5019 147.935C59.5399 144.701 63.3473 132.397 59.5669 125.311C55.2456 124.325 47.7923 125.104 43.122 131.719C40.6513 135.159 38.2353 138.437 36.4684 141.405C37.3216 144.582 39.227 148.845 43.2617 150.631C50.2752 153.649 55.1889 151.429 57.4967 147.934L57.5019 147.935Z" fill="#FFD62C"/>
    <path d="M6.24256 110.074C6.40035 110.127 6.6167 110.024 6.67526 109.868C7.11828 109.126 7.39833 108.329 7.84135 107.588C9.78527 103.606 11.5728 99.5663 15.424 96.7956C15.6404 96.6925 15.5374 96.4762 15.4343 96.2598C15.3313 96.0435 15.115 96.1465 14.8986 96.2495C10.831 99.1233 8.99012 103.321 7.04481 107.308C6.76476 108.104 6.32174 108.846 5.87872 109.588C5.98174 109.804 6.08476 110.02 6.24773 110.075L6.24256 110.074Z" fill="#B65514"/>
    <path d="M10.617 110.902C10.7747 110.955 10.9911 110.852 11.0497 110.696C11.5461 109.796 11.8861 108.838 12.2261 107.88C13.4572 104.901 14.747 101.766 17.1371 99.5584C17.3535 99.4554 17.2504 99.239 17.1474 99.0227C17.0444 98.8063 16.828 98.9094 16.6117 99.0124C14.1616 101.381 12.8719 104.517 11.4243 107.598C11.0843 108.556 10.5879 109.456 10.2479 110.414C10.351 110.63 10.454 110.847 10.617 110.902Z" fill="#B65514"/>
    <path d="M14.6753 117.718C14.8331 117.771 15.0495 117.668 15.108 117.512C15.5614 116.235 16.1711 115.016 16.7822 113.791C17.3919 112.573 18.0031 111.348 18.5098 109.913C18.5632 109.755 18.4601 109.539 18.3037 109.48C18.1473 109.422 17.9296 109.53 17.871 109.687C17.4177 110.964 16.808 112.183 16.1968 113.407C15.5871 114.626 14.976 115.85 14.5227 117.128C14.2515 117.394 14.3559 117.605 14.6753 117.718C14.5175 117.665 14.6753 117.718 14.6753 117.718Z" fill="#B65514"/>
    <path d="M34.9605 123.808C35.1182 123.862 35.3346 123.759 35.3932 123.602C36.4562 121.106 36.925 118.756 37.0196 116.455C37.073 116.297 36.8136 116.022 36.5972 116.125C36.4394 116.072 36.1645 116.331 36.2675 116.548C36.2263 118.691 35.7589 121.036 34.7544 123.376C34.7544 123.376 34.8574 123.592 34.9605 123.808Z" fill="#B65514"/>
    <path d="M43.6889 120.962C43.8467 121.016 44.0631 120.913 44.1217 120.756C45.1262 118.416 45.1178 115.899 45.1094 113.382C45.027 112.094 44.998 110.649 45.235 109.474C45.2884 109.317 45.1853 109.1 44.866 108.987C44.7082 108.934 44.4918 109.037 44.3785 109.356C44.2445 110.747 44.3321 112.036 44.3559 113.48C44.4229 115.841 44.486 118.195 43.4815 120.535C43.4281 120.693 43.5311 120.909 43.6876 120.968L43.6889 120.962Z" fill="#B65514"/>
    <path d="M47.0594 124.13C47.006 124.288 47.109 124.505 47.2654 124.563C47.4218 124.622 47.6395 124.513 47.7529 124.194C47.8166 123.501 48.1032 122.7 48.2217 121.844C49.0408 118 50.0369 113.143 48.3375 109.312C48.2345 109.096 48.0767 109.042 47.8604 109.145C47.644 109.248 47.5893 109.411 47.6937 109.622C49.23 113.398 48.2925 118.099 47.5281 121.78C47.2481 122.577 47.1778 123.274 47.0594 124.13Z" fill="#B65514"/>
    <path d="M-1.2397 157.182C-1.08191 157.236 -0.865549 157.133 -0.806987 156.976C0.374544 153.623 1.88201 150.38 3.38291 147.14C4.0526 145.76 4.71711 144.378 5.22382 142.943C5.2772 142.785 5.17417 142.569 5.01777 142.51C4.86137 142.451 4.64364 142.56 4.58508 142.716C3.91539 144.097 3.40867 145.532 2.74417 146.914C1.24326 150.153 -0.264202 153.397 -1.50568 156.911C-1.66347 156.858 -1.55906 157.069 -1.24487 157.181L-1.2397 157.182Z" fill="#B65514"/>
    <path d="M22.8743 165.165C23.0321 165.218 23.2485 165.115 23.4648 165.012C26.4423 160.136 27.4487 154.743 28.2388 149.454C28.2922 149.296 28.1892 149.079 27.8698 148.966C27.712 148.913 27.4956 149.016 27.3823 149.335C26.4306 154.565 25.4242 159.958 22.6631 164.73C22.6097 164.888 22.7128 165.105 22.8692 165.163L22.8743 165.165Z" fill="#B65514"/>
    <path d="M12.491 179.82C13.7942 178.664 15.0544 177.131 16.2701 175.225C16.3235 175.068 16.3835 174.906 16.1175 174.635C15.9597 174.581 15.7981 174.522 15.527 174.788C14.3164 176.695 13.111 178.065 11.8078 179.22C11.5914 179.323 11.6944 179.54 11.7975 179.756L11.9553 179.809C12.2161 180.079 12.4324 179.976 12.491 179.82Z" fill="#B65514"/>
    <path d="M-1.47747 176.676C-1.26112 176.573 -1.20635 176.41 -1.14779 176.254C-1.44653 175.069 -1.20441 173.357 -0.742157 171.549C-0.688775 171.392 -0.791805 171.175 -0.948207 171.117C-1.10461 171.058 -1.32235 171.166 -1.38091 171.323C-1.67127 172.655 -2.03191 174.685 -1.68352 176.244C-1.7369 176.401 -1.5805 176.46 -1.42271 176.513C-1.56694 176.582 -1.58473 176.635 -1.47608 176.671L-1.47747 176.676Z" fill="#B65514"/>
    <path d="M22.0521 184.269C22.7559 183.797 23.642 182.313 24.6844 180.888C25.0141 180.466 25.3985 179.881 25.6683 179.62C31.9819 170.892 36.4551 163.313 39.6405 155.817C39.6939 155.66 39.5908 155.443 39.4344 155.385C39.278 155.326 39.0603 155.434 39.0017 155.591C35.8163 163.087 31.618 170.405 25.0881 179.237C24.7584 179.659 24.4287 180.082 24.1042 180.505C23.3315 181.67 22.2343 183.257 21.7468 183.626C21.5305 183.729 21.6335 183.946 21.7365 184.162L21.8943 184.216C21.8409 184.373 21.8943 184.216 22.0521 184.269Z" fill="#B65514"/>
    <path d="M36.5902 173.603C40.7918 169.338 43.5032 164.191 45.4588 159.669C45.5122 159.511 45.4092 159.295 45.2528 159.237C45.0964 159.178 44.8786 159.286 44.8201 159.443C42.9192 163.802 40.3642 169.007 36.2226 173.11C36.0062 173.213 36.1092 173.43 36.2123 173.646L36.37 173.699C36.3167 173.857 36.5279 173.753 36.5864 173.596L36.5902 173.603Z" fill="#B65514"/>
    <path d="M47.4608 182.467C48.9804 181.209 50.2405 179.675 51.4993 178.147C52.1001 177.459 52.6995 176.776 53.3589 175.931C53.4123 175.773 53.4723 175.612 53.3692 175.395C53.2114 175.342 53.0499 175.282 52.8335 175.385C52.2327 176.073 51.5733 176.918 50.9739 177.601C49.7137 179.135 48.6713 180.56 47.1517 181.818C46.9353 181.921 47.0384 182.137 47.1414 182.354L47.2992 182.407C47.2636 182.512 47.3162 182.53 47.457 182.46L47.4608 182.467Z" fill="#B65514"/>
    <path d="M69.9654 169.583C68.5282 172.129 67.091 174.675 65.2848 176.734C65.0136 177 64.4676 177.525 63.8682 178.209C61.2462 181.053 59.0125 183.319 58.7755 184.494C58.7221 184.652 58.8251 184.868 58.9815 184.927C59.1379 184.985 59.3557 184.877 59.469 184.558C59.5927 183.702 62.5392 180.434 64.232 178.695C64.8328 178.006 65.3789 177.481 65.6486 177.22C67.4548 175.161 68.9454 172.458 70.3826 169.912C70.7671 169.326 70.939 168.85 71.3221 168.27C81.1011 151.25 82.5756 128.778 74.7096 113.425C74.6065 113.209 74.4487 113.155 74.2324 113.258C74.016 113.361 73.9613 113.524 74.0657 113.735C81.6671 128.812 80.3059 150.964 70.5803 167.827C70.5166 168.521 70.127 169.105 69.9602 169.582L69.9654 169.583Z" fill="#B65514"/>
    <path d="M67.7891 183.362C68.1084 183.475 68.4826 183.425 68.8605 183.382C72.4214 181.944 77.429 168.269 77.5971 167.787C77.6505 167.629 77.5475 167.412 77.3911 167.354C77.2347 167.295 77.0169 167.404 76.9584 167.56C75.6035 171.394 71.2469 181.707 68.5463 182.732C68.3299 182.835 68.1136 182.938 67.8527 182.668C67.695 182.615 67.4786 182.718 67.42 182.874C67.3615 183.031 67.4697 183.248 67.7891 183.362C67.7891 183.362 67.6313 183.308 67.7891 183.362Z" fill="#B65514"/>
    <path d="M80.9391 154.776C81.0969 154.829 81.3132 154.726 81.3718 154.57C83.6454 150.166 85.5513 145.27 85.2358 139.051C85.2892 138.893 85.0298 138.618 84.8134 138.721C84.6557 138.668 84.3807 138.927 84.4838 139.143C84.8592 145.201 82.7903 150.042 80.733 154.343C80.6796 154.501 80.7827 154.717 80.9391 154.776Z" fill="#B65514"/>
    <path d="M86.131 130.924C86.0776 131.082 86.1807 131.299 86.3371 131.357C86.4935 131.416 86.7112 131.308 86.8246 130.988C87.5599 125.861 85.8774 120.953 84.3616 116.105C84.2089 115.515 83.8999 114.866 83.7538 114.272C83.6508 114.055 83.493 114.002 83.2766 114.105C83.0603 114.208 83.0055 114.371 83.1099 114.582C83.2626 115.173 83.5716 115.822 83.7177 116.416C85.2934 121.102 86.8143 125.95 86.1376 130.921L86.131 130.924Z" fill="#B65514"/>
    <path d="M91.4847 121.861C91.4313 122.019 91.5343 122.235 91.6907 122.294C91.8471 122.353 92.0648 122.244 92.1782 121.925C92.6128 118.666 91.0076 115.583 89.5639 112.559C89.3579 112.126 89.1518 111.693 88.8858 111.422C88.7828 111.206 88.625 111.153 88.4087 111.256C88.1923 111.359 88.1376 111.522 88.242 111.733L88.8601 113.031C90.3623 115.898 91.969 118.977 91.4847 121.861Z" fill="#B65514"/>
    <path d="M-2.04957 68.6088C-2.04957 68.6088 -7.53496 71.9465 -6.21102 75.4378C-4.88708 78.9291 -3.02003 79.4405 -1.05833 81.6704C1.28765 84.3309 1.04145 87.4459 0.283287 89.4466C-0.474875 91.4474 -3.69422 95.5478 -1.0583 97.5198C1.57761 99.4918 1.87859 89.8741 5.47588 87.7403C6.9356 86.8712 7.69555 87.7022 7.38303 88.4956C7.07052 89.2889 4.78986 91.7922 5.42282 93.6772C6.21345 96.0097 9.78479 94.4907 9.6534 88.5377C9.52201 82.5846 22.3253 90.2233 22.3253 90.2233L18.7961 81.9719L-2.05096 68.614L-2.04957 68.6088Z" fill="#BA47A4"/>
    <path d="M9.74249 86.7571C9.74249 86.7571 10.3992 86.378 10.9085 86.5699C12.3755 87.124 16.4609 88.9903 16.8179 91.4287C17.2478 94.4029 21.4334 96.5792 24.3648 96.9095C27.2963 97.2397 26.7433 94.7044 29.9614 95.6222C33.1848 96.5414 35.9166 100.082 34.9356 103.267C33.9546 106.452 32.5539 107.37 32.5428 108.799C32.5241 111.77 36.9298 112.378 37.2526 109.04C37.5754 105.701 37.6061 100.241 39.9747 100.476C42.3433 100.711 42.5871 101.914 45.4546 102.566C49.5985 103.51 51.9217 103.272 52.9303 101.766C54.7626 99.009 37.4755 93.0835 37.4755 93.0835C37.4755 93.0835 6.9395 82.9639 9.74628 86.7637L9.74249 86.7571Z" fill="#BA47A4"/>
    <path d="M-1.48308 68.4219C-3.50585 69.5897 -9.54379 70.8253 -12.6516 71.7745C-14.2349 72.2552 -18.137 71.4039 -18.2281 73.65C-18.3192 75.8962 -15.4363 75.786 -12.6718 73.9841C-9.90741 72.1823 -9.31461 72.1246 -7.84384 72.9962C-6.37307 73.8677 -10.1374 75.5681 -10.7229 77.3598C-11.3085 79.1514 -7.66543 77.4685 -4.87001 78.9281C-0.364821 81.2788 -1.48447 68.427 -1.48447 68.427L-1.48308 68.4219Z" fill="#BA47A4"/>
    <path d="M-2.31506 68.1712C-2.31506 68.1712 -8.05261 71.8077 -6.72867 75.299C-5.40473 78.7903 -3.53768 79.3017 -1.57597 81.5316C0.770006 84.1921 0.523802 87.3071 -0.234361 89.3078C-0.992523 91.3086 -4.21187 95.409 -1.57595 97.381C1.05996 99.353 1.36094 89.7353 4.95823 87.6015C6.41795 86.7324 7.1779 87.5634 6.86539 88.3568C6.55287 89.1502 4.27221 91.6534 4.90518 93.5384C5.6958 95.8709 9.26714 94.3519 9.13575 88.3989C9.00437 82.4458 21.8077 90.0845 21.8077 90.0845L24.3343 83.5557L-2.31645 68.1764L-2.31506 68.1712Z" fill="#D156B7"/>
    <path d="M10.0739 80.4009C14.7149 81.2503 17.988 79.2905 17.8202 76.3532C17.5125 73.3785 13.2999 71.034 9.00853 70.9722C6.91976 70.7289 4.87248 71.8847 3.70696 73.9761C2.54145 76.0676 5.17151 79.4703 10.0753 80.3957L10.0739 80.4009Z" fill="#E867D6"/>
    <path opacity="0.77" d="M8.04275 73.2504C9.071 73.2872 13.5101 73.9993 12.2306 72.3518C11.4298 71.3212 8.67381 71.2267 7.3241 71.6645C5.97438 72.1022 4.94878 73.6094 5.38421 74.0148C5.81964 74.4201 7.02485 73.2164 8.04413 73.2453L8.04275 73.2504Z" fill="white"/>
    <path d="M9.05873 82.5325C10.2614 82.8715 11.6695 82.9823 13.0564 82.6544C13.1962 82.6919 13.231 82.5624 13.267 82.4277C13.3031 82.2931 13.1684 82.257 13.0403 82.2171C10.1267 82.8354 7.71189 81.7164 5.39736 80.2025C5.26787 80.1678 5.12801 80.1303 5.09331 80.2598C5.05862 80.3893 5.02115 80.5291 5.15582 80.5652C6.37455 81.3414 7.59846 82.1191 9.05873 82.5325Z" fill="#E867D6"/>
    <path d="M19.0715 76.7385C19.0656 79.3294 17.2799 81.5601 14.9383 82.1983L14.8661 82.4677C14.8249 82.601 14.9647 82.6384 14.9647 82.6384L15.0942 82.6731C17.6038 81.9466 19.427 79.5761 19.4779 76.8585C19.514 76.7238 19.3793 76.6877 19.2512 76.6479C19.1114 76.6104 19.0767 76.7399 19.0767 76.7399L19.0715 76.7385Z" fill="#E867D6"/>
    <path d="M2.82332 72.5291C2.8594 72.3945 2.89548 72.2598 2.76081 72.2237C2.63132 72.189 2.49148 72.1516 2.45679 72.2811C1.19093 74.2291 1.55728 77.5026 2.39463 78.6041L2.53449 78.6416L2.69867 78.5468C2.87322 78.4548 2.9093 78.3201 2.77084 78.2775C1.92831 77.1746 1.61927 74.205 2.81813 72.5278L2.82332 72.5291Z" fill="#E867D6"/>
    <path d="M9.88138 86.2392C9.88138 86.2392 15.7537 87.1965 17.336 91.5676C18.6163 95.0971 21.0543 95.9225 23.9858 96.2528C26.9173 96.583 26.3642 94.0477 29.5824 94.9655C32.8057 95.8848 35.5375 99.4258 34.5565 102.61C33.5755 105.795 32.1748 106.713 32.1637 108.142C32.145 111.113 36.5507 111.722 36.8735 108.383C37.1964 105.044 37.2271 99.5843 39.5957 99.8192C41.9642 100.054 42.208 101.258 45.0756 101.909C49.2194 102.853 51.5426 102.615 52.5513 101.109C54.3835 98.3523 37.0964 92.4268 37.0964 92.4268C37.0964 92.4268 7.07839 82.446 9.88517 86.2458L9.88138 86.2392Z" fill="#D156B7"/>
    <path d="M82.9592 101.657C81.0626 104.219 76.2418 108.184 73.6735 108.839C73.292 108.937 72.9639 108.96 72.697 108.9C70.584 108.394 63.0108 103.467 62.9205 109.067C62.8415 113.609 67.6446 115.49 66.0998 118.479C64.3168 121.943 59.249 120.635 61.2092 115.453C62.5856 111.808 58.8337 107.517 58.6998 105.654C58.5659 103.792 56.6857 103.91 56.1804 104.407C55.6752 104.905 56.5921 108.237 55.0349 108.331C53.3422 108.432 53.0524 107.566 54.0624 105.206C55.0618 102.864 51.4028 102.866 51.4028 102.866C48.2614 97.8499 69.0957 99.0523 74.8235 99.4713C75.7278 99.5359 76.2538 99.5825 76.2538 99.5825C76.2538 99.5825 81.5822 98.9229 83.0656 99.9754C82.8325 100.451 82.7221 100.988 82.9592 101.657Z" fill="#BA47A4"/>
    <path d="M51.0234 102.21C51.0234 102.21 54.6824 102.207 53.6831 104.549C52.6837 106.89 53.3125 108.791 54.6602 108.008C56.008 107.226 55.2958 104.248 55.8011 103.751C56.3063 103.253 58.1879 103.13 58.3204 104.998C58.4529 106.865 62.2062 111.152 60.8299 114.797C58.8697 119.978 63.9374 121.286 65.727 117.819C67.2666 114.828 62.4673 112.954 62.5425 108.405C62.638 102.807 70.2112 107.734 72.319 108.238C74.4268 108.741 80.7702 103.652 82.7729 100.735C84.7757 97.819 75.8758 98.9206 75.8758 98.9206C75.8758 98.9206 47.3894 96.4006 51.0248 102.204L51.0234 102.21Z" fill="#D156B7"/>
    <path d="M-1.34428 67.9039C-3.36704 69.0718 -9.40498 70.3073 -12.5128 71.2566C-14.096 71.7372 -17.9982 70.886 -18.0893 73.1321C-18.1804 75.3782 -15.2975 75.268 -12.533 73.4662C-9.7686 71.6644 -9.1758 71.6067 -7.70503 72.4782C-6.23427 73.3497 -9.99855 75.0502 -10.5841 76.8418C-11.1696 78.6335 -7.62194 77.5134 -4.82652 78.973C-4.06708 79.3708 -1.57182 81.9713 -1.09923 81.6372C1.22427 79.9892 -1.34566 67.9091 -1.34566 67.9091L-1.34428 67.9039Z" fill="#D156B7"/>
    <path d="M87.0643 110.99C86.0216 112.975 83.5837 111.445 82.092 108.497C80.707 105.772 79.3759 105.954 79.069 106.416C79.0423 106.453 79.0261 106.493 79.015 106.535C78.6388 107.938 79.1677 108.513 78.9248 109.73L78.9206 109.746C78.8806 109.957 78.813 110.189 78.7163 110.446C78.1217 112.002 73.9843 109.75 71.6307 108.547C71.1805 108.321 70.9422 108.03 70.8725 107.689C70.2233 104.601 83.7113 97.5228 83.7113 97.5228C83.9122 97.8709 83.972 98.1866 83.9385 98.4774C83.722 98.9746 83.3201 99.4387 83.0652 99.9755C82.9575 100.191 82.8795 100.42 82.8468 100.666C82.5849 101.312 82.5746 102.076 83.3516 103.133C84.243 104.344 87.4621 108.221 87.2329 110.402C87.2137 110.619 87.1557 110.814 87.0643 110.99Z" fill="#BA47A4"/>
    <path d="M87.2333 110.402C87.2333 110.402 87.2156 110.447 87.2035 110.472C86.1608 112.457 83.7229 110.927 82.2312 107.979C80.7328 105.035 79.2971 105.483 79.1541 106.017C79.1167 106.156 79.0858 106.293 79.0694 106.416C78.8513 107.706 79.4153 108.274 78.9252 109.73L78.921 109.746L78.8555 109.928C78.3957 111.126 75.9258 109.881 73.6735 108.839C72.9972 108.525 72.3427 108.233 71.7699 108.03C71.4505 107.916 71.1532 107.803 70.8729 107.689C63.2436 104.629 68.7912 101.536 74.8236 99.4714C79.2076 97.9647 83.8505 97.0049 83.8505 97.0049C84.1766 97.5697 84.1297 98.0345 83.9389 98.4775C83.7224 98.9746 83.3205 99.4387 83.0656 99.9755C82.9579 100.191 82.8799 100.42 82.8472 100.666C82.8057 100.966 82.8288 101.294 82.9593 101.657C83.065 101.946 83.2352 102.264 83.4907 102.615C84.4598 103.93 88.1635 108.381 87.2333 110.402Z" fill="#D156B7"/>
    <path d="M47.3035 96.0168L45.1863 98.1586C45.1479 98.1982 45.1175 98.229 45.0805 98.2635C45.0805 98.2635 45.0791 98.2686 45.074 98.2672C45.0243 98.204 43.8456 97.444 43.3424 96.5042C42.954 95.7784 43.1775 94.9445 43.2999 94.239L44.6113 92.9083L45.5243 91.9871C45.4015 92.7147 46.2519 93.0425 46.6582 93.7843C46.9295 94.2844 47.0939 94.8725 47.1904 95.3203C47.2649 95.6844 47.2943 95.9477 47.2997 96.0102L47.3049 96.0116L47.3035 96.0168Z" fill="#F4DDDC"/>
    <path d="M51.4227 91.8521L49.1983 94.1039C49.1983 94.1039 48.0235 93.8891 47.501 92.9385C47.0984 92.2034 47.2935 90.8123 47.4125 90.0781L47.4153 90.0677L48.0769 89.4012L49.6435 87.8224C49.521 88.5279 50.3548 88.8346 50.747 89.567C50.8618 89.781 50.9569 90.0063 51.0336 90.2378C51.3084 90.9943 51.4077 91.7426 51.4189 91.8455L51.4227 91.8521Z" fill="#F4DDDC"/>
    <path d="M55.5351 87.6914L53.3121 89.9381C53.3121 89.9381 52.6398 89.7746 52.068 89.2772C51.8655 89.1008 51.674 88.8829 51.5317 88.6061C51.1702 87.9041 51.4187 86.5828 51.5328 85.9084L53.7572 83.6565C53.7513 83.6994 53.744 83.7474 53.7433 83.7916C53.7373 84.4562 54.5413 84.8326 54.9391 85.5443C55.0666 85.7727 55.1678 86.0164 55.247 86.2596C55.4735 86.9476 55.5314 87.6016 55.5313 87.6848L55.5365 87.6862L55.5351 87.6914Z" fill="#F4DDDC"/>
    <path d="M59.9097 81.7465C59.8372 81.9547 59.7689 82.1474 59.6969 82.3335C59.3268 83.3002 58.9855 83.9526 59.0142 84.1768L57.228 85.9743C57.1483 85.8364 56.758 85.6152 56.4155 85.1737C56.1813 84.8667 55.9684 84.4599 55.9062 83.9047C55.8186 83.154 56.3397 81.7892 56.6009 80.8766L56.6176 80.8144C57.7534 79.8697 59.1623 79.3146 60.6373 79.238C60.6373 79.238 60.6413 79.2371 60.6491 79.2355L60.6543 79.2369C60.0217 80.1888 60.152 81.0287 59.9097 81.7465Z" fill="#F4DDDC"/>
    <path d="M67.0369 89.4353C67.0369 89.4353 66.9944 89.4073 66.9751 89.3965C66.506 89.1376 65.3021 88.9482 65.3021 88.9482C65.3021 88.9482 64.9981 88.6947 64.6046 88.4227C64.1701 88.1175 63.623 87.7767 63.2804 87.7293C63.6721 87.1791 63.8498 86.5162 63.7842 85.8491C64.4374 85.6077 65.8358 85.1331 65.8358 85.1331C65.8358 85.1331 65.8797 85.1559 65.9584 85.1937C66.3581 85.4007 67.596 86.0433 67.8881 86.1549L67.8933 86.1563C67.8857 87.3034 67.5949 88.4301 67.0369 89.4353Z" fill="#F4DDDC"/>
    <path d="M45.0802 98.2634C44.6815 98.6118 44.1622 98.789 43.6306 98.7632C43.099 98.7373 42.6061 98.5053 42.2432 98.1194C41.8802 97.7335 41.6847 97.2203 41.687 96.6936C41.6959 96.163 41.9034 95.6579 42.2766 95.2805L43.3048 94.2403C43.0265 95.8589 44.9857 98.1603 45.0788 98.2686L45.0802 98.2634Z" fill="#439A72"/>
    <path d="M49.1982 94.104L47.6078 95.7096L47.3034 96.0167L47.2983 96.0153C47.2306 95.9361 46.6363 95.2328 46.1517 94.348C45.7402 93.6048 45.3986 92.725 45.5242 91.987L47.4125 90.0781C47.131 91.7292 49.1931 94.1026 49.1931 94.1026L49.1982 94.104Z" fill="#439A72"/>
    <path d="M53.3124 89.938L51.4228 91.8521C51.3603 91.7743 50.845 91.1699 50.3811 90.3738C49.9195 89.5895 49.5131 88.6201 49.6487 87.8238L51.5384 85.9097C51.3808 86.8501 51.9762 88.0255 52.5203 88.8541C52.9361 89.4985 53.3176 89.9394 53.3176 89.9394L53.3124 89.938Z" fill="#439A72"/>
    <path d="M66.9757 82.6625C66.9757 82.6625 66.9705 82.6611 66.9625 82.6701C66.8636 82.7491 66.0761 83.3264 65.2214 83.7191C65.1454 83.7543 65.0693 83.7894 64.9947 83.8194C64.3084 84.1018 63.6087 83.9365 63.2058 84.3837C62.8237 83.9038 62.3039 83.5647 61.712 83.4117C61.8792 82.8291 61.8433 82.2588 62.1468 81.7683C62.1897 81.691 62.2444 81.6113 62.308 81.5395C63.0282 80.7166 64.3138 80.1451 64.3884 80.1151L64.3936 80.1165L64.3964 80.1061C64.9311 80.4104 65.4205 80.7802 65.8555 81.2077C66.2944 81.6417 66.6685 82.1306 66.9757 82.6625Z" fill="#F4DDDC"/>
    <path d="M67.037 89.4353C67.037 89.4353 67.0276 89.4494 67.0262 89.4546C66.7244 90.001 66.3466 90.4993 65.9112 90.9434L65.1438 91.7148C64.7616 92.0843 64.2443 92.2954 63.7124 92.2917C63.1739 92.2917 62.6598 92.0762 62.2772 91.7017C61.896 91.322 61.6783 90.8084 61.6717 90.2737C61.6599 89.7376 61.865 89.2208 62.2305 88.8302L62.9979 88.0588C63.0972 87.9577 63.1941 87.8449 63.2768 87.7227C63.7568 87.7958 64.2768 87.9684 64.7805 88.1811C65.6353 88.5545 66.4516 89.0508 66.97 89.3951C66.9893 89.4058 67.0124 89.4231 67.0318 89.4339L67.037 89.4353Z" fill="#439A72"/>
    <path d="M67.8895 86.1496C67.5715 86.0311 66.8381 85.7847 65.984 85.6779C65.2767 85.5828 64.4857 85.5929 63.7842 85.849C63.7386 85.315 63.5364 84.8056 63.2053 84.3838C63.5844 83.9635 64.2342 83.6103 64.8853 83.3351C65.8547 82.9286 66.8394 82.6928 66.9621 82.6702C66.97 82.6612 66.9752 82.6626 66.9752 82.6626C67.5857 83.72 67.901 84.9258 67.8895 86.1496Z" fill="#439A72"/>
    <path d="M64.395 80.1115L64.3898 80.1101C64.2989 80.1801 63.3323 80.887 62.5601 81.8626C62.1907 82.3298 61.8657 82.859 61.712 83.4118C61.2407 83.2855 60.7436 83.2967 60.2771 83.4215C59.8093 83.5515 59.381 83.8031 59.0449 84.1461L59.0144 84.1768C58.9929 83.9878 58.9658 83.5087 59.0986 82.8059C59.2617 81.9281 59.6725 80.7058 60.6493 79.2355L60.6545 79.2369C61.9565 79.1638 63.2521 79.4666 64.3898 80.1101L64.395 80.1115Z" fill="#439A72"/>
    <path d="M57.2318 85.9807L55.5355 87.6913L55.5303 87.6899C55.4806 87.6266 55.1516 87.2387 54.7875 86.6915C54.26 85.8839 53.651 84.7382 53.7437 83.7915C53.7444 83.7473 53.7517 83.6993 53.7576 83.6564L56.1314 81.2614C56.285 81.1027 56.4475 80.952 56.6176 80.8143L56.601 80.8765C56.1791 82.4511 56.4475 83.8942 56.7617 84.8555C56.9472 85.4271 57.1497 85.8311 57.228 85.9742C57.2332 85.9756 57.2318 85.9807 57.2318 85.9807Z" fill="#439A72"/>
    <g style="mix-blend-mode:multiply" opacity="0.2">
        <path d="M63.7126 92.2917C63.1741 92.2918 62.6601 92.0763 62.2774 91.7017C61.8962 91.322 61.6785 90.8085 61.6719 90.2738C61.6601 89.7377 61.8652 89.2208 62.2308 88.8303L62.9982 88.0588C63.0974 87.9578 63.1943 87.8449 63.277 87.7227C63.6673 87.1778 63.8449 86.5148 63.7794 85.8477C63.7338 85.3137 63.5316 84.8043 63.2005 84.3825C62.8184 83.9026 62.2986 83.5635 61.7067 83.4104C61.2354 83.2841 60.7383 83.2953 60.2718 83.4201C59.804 83.5501 59.3757 83.8018 59.0396 84.1447L59.0091 84.1754L57.2229 85.9729L57.2267 85.9794L55.5304 87.69L53.3074 89.9367L51.4178 91.8508L49.1934 94.1026L47.6029 95.7083L47.1854 95.3188L46.1469 94.3466L44.6063 92.9068L45.5193 91.9857L47.4076 90.0767L47.4103 90.0664L48.0719 89.3998C48.4309 89.6348 49.5198 90.3152 50.3709 90.3711C50.6164 90.387 50.8472 90.3544 51.0287 90.2365C51.0615 90.2175 51.0957 90.1934 51.1262 90.1627C51.2728 90.0299 51.6086 89.7091 52.0633 89.2758C52.2034 89.1467 52.3527 89.0036 52.5101 88.8514C53.146 88.2391 53.9431 87.4812 54.7824 86.6901C54.937 86.5484 55.0877 86.4 55.2423 86.2582C55.6334 85.8967 56.0259 85.53 56.4104 85.1723C56.528 85.065 56.6442 84.9629 56.7566 84.8542C57.6152 84.0739 58.4312 83.3488 59.0933 82.8046C59.3136 82.6249 59.5114 82.4669 59.6918 82.3321C60.0331 82.0738 60.3013 81.9014 60.4661 81.8456C60.924 81.6907 61.5074 81.6472 62.1415 81.7671C62.2789 81.7928 62.415 81.8238 62.5548 81.8612C63.3224 82.0836 64.1419 82.5474 64.8805 83.3337C64.9981 83.4541 65.1078 83.5834 65.2161 83.7179C65.2747 83.7891 65.3282 83.859 65.3854 83.9354C65.7124 84.3727 65.8887 84.7919 65.9535 85.1923C65.982 85.3554 65.9884 85.5181 65.9792 85.6766C65.9291 86.5681 65.3716 87.3847 64.7807 88.1812C64.7209 88.2595 64.6596 88.343 64.5998 88.4214C64.3656 88.7361 64.1313 89.0508 63.9296 89.3687C62.8606 91.0586 63.7074 92.2903 63.7074 92.2903L63.7126 92.2917Z" fill="#4C8089"/>
    </g>
    <path d="M45.7701 88.4389C45.7701 88.4389 45.4202 95.0901 52.7267 96.8481C60.0318 98.6112 43.2719 100.393 43.2719 100.393L33.2246 95.0866C33.2246 95.0866 44.8207 96.706 45.7663 88.4323L45.7701 88.4389Z" fill="#D156B7"/>
    <path d="M-1.71964 95.1609C-0.915552 95.7649 -0.0415646 95.6938 0.0410236 93.6452C-0.520685 91.3907 -2.52374 94.5568 -1.71964 95.1609Z" fill="#E867D6"/>
    <path d="M33.0477 108.363C33.8518 108.967 34.7258 108.896 34.8084 106.847C34.2467 104.593 32.2436 107.759 33.0477 108.363Z" fill="#E867D6"/>
    <path d="M61.9772 117.869C62.9211 118.283 63.7395 117.88 63.215 115.425C62.009 112.964 61.0333 117.455 61.9772 117.869Z" fill="#E867D6"/>
    <path d="M85.1946 109.889C86.1842 109.594 86.5468 108.758 84.5642 107.228C82.0554 106.128 84.205 110.185 85.1946 109.889Z" fill="#E867D6"/>
    <path d="M5.90761 91.1645C6.39835 91.5292 6.93102 91.4887 6.98191 90.2422C6.63952 88.868 5.41686 90.7999 5.90761 91.1645Z" fill="#E867D6"/>
    <g filter="url(#filter3_f_5728_44746)">
        <circle cx="185.5" cy="56" r="3" fill="#FDFEE2" fill-opacity="0.6"/>
    </g>
    <path d="M187.098 56.0885C187.209 55.989 187.541 55.7901 187.32 55.7901C185.771 55.7901 186.213 54.9945 185.439 54C185.439 54.0995 185.328 54.1989 185.328 54.1989C184.996 55.4918 184.221 55.5912 184 56.0885C184 56.1879 184.111 56.0885 184.221 56.1879C184.443 56.3868 184.664 56.5857 184.775 56.7846C184.996 56.9835 185.328 57.6797 185.549 57.8786C185.549 57.8786 185.439 57.2819 185.992 56.8841C186.435 56.6852 186.766 56.3868 187.098 56.0885Z" fill="#FDFEE2"/>
    <g filter="url(#filter4_f_5728_44746)">
        <circle cx="257.5" cy="86.5" r="3.5" fill="#FDFEE2" fill-opacity="0.6"/>
    </g>
    <path d="M259.615 86.4365C259.744 86.3205 260.131 86.0885 259.873 86.0885C258.066 86.0885 258.582 85.1603 257.678 84C257.678 84.116 257.549 84.2321 257.549 84.2321C257.162 85.7404 256.258 85.8564 256 86.4365C256 86.5526 256.129 86.4365 256.258 86.5526C256.516 86.7846 256.775 87.0167 256.904 87.2487C257.162 87.4808 257.549 88.293 257.807 88.525C257.807 88.525 257.678 87.8289 258.324 87.3647C258.84 87.1327 259.228 86.7846 259.615 86.4365Z" fill="#FDFEE2"/>
    <defs>
        <filter id="filter0_f_5728_44746" x="96.9998" y="35" width="16" height="16" filterUnits="userSpaceOnUse" color-interpolation-filters="sRGB">
            <feFlood flood-opacity="0" result="BackgroundImageFix"/>
            <feBlend mode="normal" in="SourceGraphic" in2="BackgroundImageFix" result="shape"/>
            <feGaussianBlur stdDeviation="2" result="effect1_foregroundBlur_5728_44746"/>
        </filter>
        <filter id="filter1_f_5728_44746" x="298" y="158" width="14" height="14" filterUnits="userSpaceOnUse" color-interpolation-filters="sRGB">
            <feFlood flood-opacity="0" result="BackgroundImageFix"/>
            <feBlend mode="normal" in="SourceGraphic" in2="BackgroundImageFix" result="shape"/>
            <feGaussianBlur stdDeviation="2" result="effect1_foregroundBlur_5728_44746"/>
        </filter>
        <filter id="filter2_f_5728_44746" x="150" y="147" width="15" height="15" filterUnits="userSpaceOnUse" color-interpolation-filters="sRGB">
            <feFlood flood-opacity="0" result="BackgroundImageFix"/>
            <feBlend mode="normal" in="SourceGraphic" in2="BackgroundImageFix" result="shape"/>
            <feGaussianBlur stdDeviation="2" result="effect1_foregroundBlur_5728_44746"/>
        </filter>
        <filter id="filter3_f_5728_44746" x="178.5" y="49" width="14" height="14" filterUnits="userSpaceOnUse" color-interpolation-filters="sRGB">
            <feFlood flood-opacity="0" result="BackgroundImageFix"/>
            <feBlend mode="normal" in="SourceGraphic" in2="BackgroundImageFix" result="shape"/>
            <feGaussianBlur stdDeviation="2" result="effect1_foregroundBlur_5728_44746"/>
        </filter>
        <filter id="filter4_f_5728_44746" x="250" y="79" width="15" height="15" filterUnits="userSpaceOnUse" color-interpolation-filters="sRGB">
            <feFlood flood-opacity="0" result="BackgroundImageFix"/>
            <feBlend mode="normal" in="SourceGraphic" in2="BackgroundImageFix" result="shape"/>
            <feGaussianBlur stdDeviation="2" result="effect1_foregroundBlur_5728_44746"/>
        </filter>
        <linearGradient id="paint0_linear_5728_44746" x1="160" y1="26.9589" x2="160" y2="178" gradientUnits="userSpaceOnUse">
            <stop stop-color="#710044"/>
            <stop offset="1" stop-color="#162128"/>
        </linearGradient>
        <clipPath id="clip0_5728_44746">
            <rect width="320" height="148" fill="white" transform="translate(-0.000198364 30)"/>
        </clipPath>
    </defs>
</svg>
