<svg xmlns="http://www.w3.org/2000/svg" width="320" height="148" fill="none">
  <path fill="#000" d="M0 0h3320v184H0z"/>
  <path fill="#1A373C" fill-rule="evenodd" d="M16.877 4.7c-3.678 0-8.09.819-11.796 2.619a.674.674 0 0 0-.38.618c.008 4.374.338 14.166 11.825 21.024a.685.685 0 0 0 .702 0c11.487-6.858 11.817-16.653 11.826-21.024a.684.684 0 0 0-.38-.618C24.97 5.519 20.557 4.7 16.876 4.7Z" clip-rule="evenodd"/>
  <path fill="#000" fill-rule="evenodd" d="m16.772 20.138 7.068-9.405c-.519-.411-.972-.12-1.22.102h-.01l-5.892 6.054-2.22-2.637c-1.059-1.209-2.499-.288-2.835-.042l5.11 5.928Z" clip-rule="evenodd"/>
  <path fill="#14252D" d="M54.88 29.06c6.727 0 12.18-5.453 12.18-12.18 0-6.727-5.453-12.18-12.18-12.18-6.727 0-12.18 5.453-12.18 12.18 0 6.727 5.453 12.18 12.18 12.18Z"/>
  <path fill="#000" fill-rule="evenodd" d="M54.706 12.017c2.59.135 5.157.453 7.45 1.878 1.373.855 2.186 2.082 2.21 3.726.04 2.577-1.797 3.9-4.203 3.612a23.824 23.824 0 0 1-2.997-.654c-1.74-.444-3.462-.315-5.18.099-.826.198-1.633.492-2.482.576-1.596.156-3.267-.405-3.852-1.98a4.434 4.434 0 0 1 1.764-5.352c2.208-1.437 4.71-1.776 7.29-1.905Z" clip-rule="evenodd"/>
  <path fill="#fff" fill-rule="evenodd" d="M61.306 16.994c.012.936-.63 1.734-1.407 1.746-.69.012-1.374-.783-1.386-1.611-.012-.906.606-1.668 1.386-1.698.78-.033 1.395.654 1.407 1.563ZM51.067 16.994c.012.936-.63 1.734-1.407 1.746-.69.012-1.374-.783-1.386-1.611-.012-.906.606-1.668 1.386-1.698.78-.033 1.395.654 1.407 1.563Z" clip-rule="evenodd"/>
  <path fill="#14252D" d="M101.772 29.222H84.504a1.458 1.458 0 0 1-1.458-1.458V9.155c0-.807.654-1.458 1.458-1.458h17.268c.807 0 1.458.654 1.458 1.458v18.609a1.456 1.456 0 0 1-1.458 1.458Z"/>
  <path fill="#14252D" d="M85.692 21.773h-3.186c-.666 0-1.206-.54-1.206-1.206v-4.212c0-.666.54-1.206 1.206-1.206h3.186c.666 0 1.206.54 1.206 1.206v4.212c0 .666-.54 1.206-1.206 1.206ZM100.587 21.773h3.186c.666 0 1.206-.54 1.206-1.206v-4.212c0-.666-.54-1.206-1.206-1.206h-3.186c-.666 0-1.206.54-1.206 1.206v4.212c0 .666.54 1.206 1.206 1.206ZM96.939 10.034V6.383c0-.765-.618-1.383-1.383-1.383h-4.83c-.765 0-1.383.618-1.383 1.383v3.651c0 .765.618 1.383 1.383 1.383h4.83a1.381 1.381 0 0 0 1.383-1.383Z"/>
  <path fill="#010101" d="M88.635 20.6a2.253 2.253 0 1 0 0-4.506 2.253 2.253 0 0 0 0 4.506ZM97.644 20.6a2.253 2.253 0 1 0 0-4.506 2.253 2.253 0 0 0 0 4.506Z"/>
  <path fill="#14252D" d="M143.258 17.054s-4.416 9.351-12.471 9.351c-7.437 0-11.787-9.351-11.787-9.351S122.81 7.7 130.739 7.7c8.058 0 12.519 9.354 12.519 9.354Z"/>
  <path fill="#000" d="M131.192 22.463a5.412 5.412 0 1 0 0-10.824 5.412 5.412 0 0 0 0 10.824Z"/>
  <path fill="#14252D" d="M131.192 19.439a2.388 2.388 0 1 0 0-4.776 2.388 2.388 0 0 0 0 4.776ZM169.241 4.95c6.649.14 11.927 5.642 11.789 12.291-.138 6.65-5.641 11.927-12.29 11.789-6.65-.139-11.928-5.641-11.789-12.29.138-6.65 5.641-11.928 12.29-11.79Z"/>
  <path fill="#000" d="M172.688 24.734a8.864 8.864 0 0 0 2.446-1.768 8.797 8.797 0 0 0 2.526-6.281 8.786 8.786 0 0 0-2.655-6.225.134.134 0 0 0-.19.002.133.133 0 0 0 .003.19 8.516 8.516 0 0 1 2.574 6.04 8.517 8.517 0 0 1-2.449 6.09 8.517 8.517 0 0 1-6.04 2.575 8.522 8.522 0 0 1-6.091-2.45.133.133 0 0 0-.189.003.132.132 0 0 0 .002.19 8.791 8.791 0 0 0 6.278 2.524 8.881 8.881 0 0 0 3.785-.89Z"/>
  <path fill="#000" d="M169.03 5.868a4.968 4.968 0 1 1-.207 9.933 4.968 4.968 0 0 1 .207-9.933Z"/>
  <path fill="#14252D" d="M168.951 6.937a1.167 1.167 0 1 1-.049 2.333 1.167 1.167 0 0 1 .049-2.333Z"/>
  <rect width=".3" height="1.5" fill="#000" rx=".15" transform="translate(168.785 7.225) skewX(.001)"/>
  <path fill="#14252D" d="M211.536 21.218a4.884 4.884 0 1 0 0-9.767 4.884 4.884 0 0 0 0 9.767Z"/>
  <path fill="#14252D" d="M211.227 29.402h-7.197a5.193 5.193 0 0 1-5.193-5.193v-.498a5.193 5.193 0 0 1 5.193-5.193h7.197a5.193 5.193 0 0 1 5.193 5.193v.498a5.193 5.193 0 0 1-5.193 5.193Z"/>
  <path fill="#14252D" d="M210.979 29.381a6.722 6.722 0 0 0 6.723-6.723 5.682 5.682 0 0 0-5.682-5.682h-1.041v12.405ZM204.357 29.402c-4.407 0-7.977-3.372-7.977-7.53v-3.906c0-.414.426-.708.846-.585l9.942 1.137-2.811 10.884ZM216.096 14.669l1.956-.492c.735-.186 1.26.705.738 1.254-.531.561-1.371 1.047-2.694 1.047v-1.809Z"/>
  <path fill="#14252D" d="m215.742 18.002 1.956.492c.735.186 1.26-.705.738-1.254-.531-.561-1.371-1.047-2.694-1.047v1.809ZM197.4 15.08a2.7 2.7 0 1 0 0-5.4 2.7 2.7 0 0 0 0 5.4ZM201.954 8.414a1.857 1.857 0 1 0 0-3.713 1.857 1.857 0 0 0 0 3.713ZM210.531 9.68a1.476 1.476 0 1 0 0-2.952 1.476 1.476 0 0 0 0 2.952Z"/>
  <path fill="#000" d="M213.774 15.827a.564.564 0 1 0 0-1.129.564.564 0 0 0 0 1.129Z"/>
  <path fill="#14252D" d="M245.104 28.112c-6.072 0-11.01-4.938-11.01-11.01s4.938-11.01 11.01-11.01 11.01 4.938 11.01 11.01-4.938 11.01-11.01 11.01Z"/>
  <path fill="#000" d="M245.104 24.332c-3.984 0-7.227-3.243-7.227-7.227 0-3.984 3.243-7.227 7.227-7.227 3.984 0 7.227 3.243 7.227 7.227 0 3.984-3.24 7.227-7.227 7.227Zm0-13.944a6.725 6.725 0 0 0-6.717 6.717 6.723 6.723 0 0 0 6.717 6.717 6.723 6.723 0 0 0 6.717-6.717 6.723 6.723 0 0 0-6.717-6.717Z"/>
  <path fill="#000" d="M245.104 21.029a3.93 3.93 0 0 1-3.924-3.924 3.93 3.93 0 0 1 3.924-3.924 3.93 3.93 0 0 1 3.924 3.924 3.927 3.927 0 0 1-3.924 3.924Zm0-7.341a3.418 3.418 0 0 0-3.414 3.414 3.418 3.418 0 0 0 3.414 3.414 3.418 3.418 0 0 0 3.414-3.414 3.418 3.418 0 0 0-3.414-3.414Z"/>
  <path fill="#000" d="M246.076 16.847a.99.99 0 0 0-.714-.714.807.807 0 0 0-.255-.036.807.807 0 0 0-.255.036.99.99 0 0 0-.714.714.795.795 0 0 0-.036.255c0 .09.009.174.036.255.09.354.366.627.714.714a.807.807 0 0 0 .255.036.807.807 0 0 0 .255-.036.985.985 0 0 0 .714-.714.795.795 0 0 0 .036-.255.888.888 0 0 0-.036-.255Zm-.714.681a.494.494 0 0 1-.51 0 .443.443 0 0 1-.165-.168.478.478 0 0 1 0-.51.494.494 0 0 1 .675-.168.494.494 0 0 1 .168.678.529.529 0 0 1-.168.168Z"/>
  <path fill="#14252D" d="M245.812 4.4h-1.413v4.413h1.413V4.4Z"/>
  <path fill="#14252D" d="M245.812 4.4h-1.413v4.413h1.413V4.4ZM245.812 25.397h-1.413v4.413h1.413v-4.413ZM257.81 17.812V16.4h-4.413v1.413h4.413ZM236.813 17.81v-1.413H232.4v1.413h4.413Z"/>
  <path fill="#000" d="M245.362 6.605v10.074a.494.494 0 0 0-.51 0V6.605h.51ZM245.362 17.528v10.074h-.51V17.528a.494.494 0 0 0 .51 0ZM244.609 17.102c0 .093.027.18.075.255h-10.077v-.51h10.077a.478.478 0 0 0-.075.255ZM255.604 16.847v.51H245.53a.494.494 0 0 0 0-.51h10.074Z"/>
  <path fill="#14252D" d="M291.571 6.284a.955.955 0 0 0-1.065-.948l-6.219.732c-.243.03-.243.381 0 .411l6.216.75a.954.954 0 0 0 1.068-.945ZM274.636 6.263a.954.954 0 0 1 1.068-.945l6.216.75c.243.03.243.381 0 .411l-6.219.732a.955.955 0 0 1-1.065-.948Z"/>
  <path fill="#14252D" d="M283.096 11.258a1.942 1.942 0 0 0 1.944-1.938l.003-2.676a1.942 1.942 0 0 0-1.938-1.944 1.942 1.942 0 0 0-1.944 1.938l-.003 2.676c0 1.071.867 1.941 1.938 1.944Z"/>
  <path fill="#000" d="M283.096 14.669a1.941 1.941 0 1 0 0-3.882 1.941 1.941 0 0 0 0 3.882Z"/>
  <path fill="#14252D" d="m279.937 13.406 6.315.009c.735 0 1.329-.594 1.332-1.326l.003-2.727c0-.735-.594-1.329-1.326-1.332l-6.315-.009c-.735 0-1.329.594-1.332 1.326l-.003 2.727a1.326 1.326 0 0 0 1.326 1.332Z"/>
  <path fill="#14252D" d="m288.673 21.908-11.172-.015a5.006 5.006 0 0 1-5.001-5.013 5.006 5.006 0 0 1 5.013-5.001l11.172.015a5.006 5.006 0 1 1-.012 10.014ZM292.144 28.133c-.471 0-.849-.27-.849-.603l.003-2.055c0-.891-1.026-1.62-2.286-1.62l-11.859-.015c-1.263-.003-2.289.723-2.292 1.614l-.003 2.055c0 .333-.381.6-.852.6s-.849-.27-.849-.603l.003-2.055c.003-1.554 1.794-2.817 3.993-2.814l11.859.015c2.199.003 3.987 1.269 3.984 2.823l-.003 2.055c.003.336-.378.603-.849.603Z"/>
  <path fill="#14252D" d="M283.363 29.507c-.471 0-.849-.27-.849-.603l.006-5.658c0-.333.381-.6.852-.6s.849.27.849.603l-.006 5.658c-.003.333-.384.603-.852.6Z"/>
  <path fill="#000" d="m287.554 18.779-9.144-.012c-1.11 0-2.01-.903-2.007-2.013v-.132c0-1.11.903-2.01 2.013-2.007l9.144.012c1.11 0 2.01.903 2.007 2.013v.132a2.01 2.01 0 0 1-2.013 2.007Z"/>
  <path fill="#14252D" d="m312.106 6.929-1.77 1.769 10.225 10.225 1.769-1.77L312.106 6.93Z"/>
  <path fill="#14252D" d="m313.749 7.967-.003.603.489.489a1.32 1.32 0 0 1-.669 1.101c-.195.114-.423.18-.663.177h-.927l-.603.003h-1.335a1.34 1.34 0 0 1-1.338-1.338 1.336 1.336 0 0 1 1.335-1.335h2.862c.327 0 .621.111.852.3Z"/>
  <path fill="#14252D" d="M313.749 6.632v1.335l-.003.603v.927c0 .243-.063.471-.18.666a1.33 1.33 0 0 1-1.098.669l-.492-.492-.603.003a1.326 1.326 0 0 1-.3-.843v-.063l.003-1.479-.003-.288.003-1.035c.003-.369.15-.702.39-.942.243-.243.576-.39.945-.393a1.328 1.328 0 0 1 1.338 1.332ZM329.985 6.93 319.76 17.155l1.769 1.77L331.754 8.7l-1.769-1.77Z"/>
  <path fill="#14252D" d="m320.56 15.212-10.225 10.225 1.769 1.77 10.225-10.226-1.769-1.769Z"/>
  <path fill="#14252D" d="m313.749 26.168-.003-.603.489-.489a1.32 1.32 0 0 0-.669-1.101 1.282 1.282 0 0 0-.663-.177h-.927l-.603-.003h-1.335c-.738 0-1.338.6-1.338 1.338a1.336 1.336 0 0 0 1.335 1.335h2.862c.327 0 .621-.111.852-.3Z"/>
  <path fill="#14252D" d="M313.749 27.503v-1.335l-.003-.603v-.927c0-.243-.063-.471-.18-.666a1.33 1.33 0 0 0-1.098-.669l-.492.492-.603-.003c-.189.231-.3.525-.3.843v.063l.003 1.479-.003.288.003 1.035c.003.369.15.702.39.942.243.243.576.39.945.393a1.328 1.328 0 0 0 1.338-1.332ZM321.528 15.214l-1.769 1.77 10.224 10.224 1.77-1.77-10.225-10.224Z"/>
  <path fill="#14252D" d="M328.683 16.325a7.589 7.589 0 0 1-2.07 5.226v1.815a2.794 2.794 0 0 1-2.793 2.793h-5.55a2.794 2.794 0 0 1-2.793-2.793v-1.815a7.587 7.587 0 0 1-2.07-5.223 7.636 7.636 0 0 1 7.638-7.635 7.631 7.631 0 0 1 7.638 7.632Z"/>
  <mask id="a" width="4" height="5" x="316" y="15" maskUnits="userSpaceOnUse" style="mask-type:luminance">
    <path fill="#fff" d="M316.428 15.767h3.315v3.315h-3.315v-3.315Z"/>
  </mask>
  <g mask="url(#a)">
    <path fill="#000" d="M318.084 19.08a1.656 1.656 0 1 0 0-3.312 1.656 1.656 0 0 0 0 3.311Z"/>
  </g>
  <path fill="#14252D" d="M18.047 55.977c.033 2.286-3.558 2.289-3.522 0 .003-2.67 0-8.658.003-11.268-.033-2.277 3.549-2.28 3.516 0l.003 11.268Z"/>
  <path fill="#14252D" d="M16.286 52.689a3.381 3.381 0 1 0 0-6.762 3.381 3.381 0 0 0 0 6.762ZM23.447 60.528a6.523 6.523 0 0 1-6.525 6.522c-3.6 0-6.522-2.415-6.522-6.522 0-1.18 1.329-2.934 2.949-2.934.285 0 .564.039.825.12a2.933 2.933 0 0 0 2.109 4.974 2.933 2.933 0 0 0 2.934-2.934 2.934 2.934 0 0 0-2.712-2.928l.02-.012-1.61-2.493a6.429 6.429 0 0 1 2.004-.318c3.603.003 6.528 2.922 6.528 6.525ZM55.003 67.3c5.8 0 10.503-4.702 10.503-10.503 0-5.8-4.702-10.503-10.503-10.503-5.8 0-10.503 4.702-10.503 10.503 0 5.8 4.702 10.503 10.503 10.503Z"/>
  <path fill="#14252D" d="M63.847 42.7v10.779H53.068L63.848 42.7Z"/>
  <path fill="#14252D" d="M46.432 42.7v10.779h10.78L46.431 42.7Z"/>
  <path fill="#000" d="M50.857 59.008a2.211 2.211 0 1 0 0-4.422 2.211 2.211 0 0 0 0 4.422ZM59.425 59.008a2.211 2.211 0 1 0 0-4.422 2.211 2.211 0 0 0 0 4.422Z"/>
  <path fill="#14252D" d="m93.07 43.3 3.821 7.746 8.547 1.242-6.186 6.027 1.461 8.514-7.644-4.02-7.647 4.02 1.461-8.514-6.183-6.027 8.547-1.242L93.07 43.3ZM136.145 67.309h-10.194a1.85 1.85 0 0 1-1.851-1.851V44.551a1.85 1.85 0 0 1 1.851-1.851h10.194a1.85 1.85 0 0 1 1.851 1.851v20.907a1.85 1.85 0 0 1-1.851 1.851Z"/>
  <path fill="#000" d="M135.258 61.9h-8.402c-.248 0-.449-.233-.449-.522V45.322c0-.289.201-.522.449-.522h8.402c.249 0 .449.233.449.522v16.056c0 .289-.2.522-.449.522ZM131.048 65.461a1.263 1.263 0 1 0 0-2.525 1.263 1.263 0 0 0 0 2.525Z"/>
  <path fill="#14252D" d="M168.88 67.06c6.727 0 12.18-5.453 12.18-12.18 0-6.727-5.453-12.18-12.18-12.18-6.727 0-12.18 5.453-12.18 12.18 0 6.727 5.453 12.18 12.18 12.18Z"/>
  <path fill="#000" d="M164.374 54.775a2.253 2.253 0 1 0 0-4.506 2.253 2.253 0 0 0 0 4.506ZM173.383 54.775a2.253 2.253 0 1 0 0-4.506 2.253 2.253 0 0 0 0 4.506ZM173.641 57.958a4.718 4.718 0 0 1-4.692 4.746 4.718 4.718 0 0 1-4.746-4.692l9.438-.054Z"/>
  <path fill="#14252D" fill-rule="evenodd" d="M200.961 67.231h-1.299l.954-4.989h3.165l-2.82 4.989ZM212.883 67.231h1.301l-.957-4.989h-3.165l2.821 4.989ZM207.354 49.612h-.864a2.205 2.205 0 0 1-2.205-2.205v-2.202c0-1.218.987-2.205 2.205-2.205h.864c1.218 0 2.205.987 2.205 2.205v2.202a2.205 2.205 0 0 1-2.205 2.205Z" clip-rule="evenodd"/>
  <path fill="#14252D" d="M206.922 65.323c5.59 0 10.122-4.532 10.122-10.122s-4.532-10.122-10.122-10.122S196.8 49.611 196.8 55.201s4.532 10.122 10.122 10.122Z"/>
  <path fill="#000" d="M206.931 61.687c3.479 0 6.3-2.888 6.3-6.45 0-3.562-2.821-6.45-6.3-6.45-3.48 0-6.3 2.888-6.3 6.45 0 3.562 2.82 6.45 6.3 6.45Z"/>
  <path fill="#14252D" fill-rule="evenodd" d="M207.081 55.987a.44.44 0 0 1-.45-.43v-5.44c0-.236.2-.43.45-.43a.44.44 0 0 1 .45.43v5.44c0 .236-.2.43-.45.43ZM239.387 67.3h-1.227v-4.702h2.982l-1.755 4.701ZM250.619 67.3h1.224v-4.702h-2.982l1.758 4.701Z" clip-rule="evenodd"/>
  <path fill="#14252D" fill-rule="evenodd" d="M252.056 64.947h-14.109A5.247 5.247 0 0 1 232.7 59.7v-7.488a5.247 5.247 0 0 1 5.247-5.247h14.109a5.247 5.247 0 0 1 5.247 5.247V59.7a5.247 5.247 0 0 1-5.247 5.247Z" clip-rule="evenodd"/>
  <path fill="#000" fill-rule="evenodd" d="M248.848 61.446h-10.096c-1.436 0-2.602-1.003-2.602-2.243V52.59c0-1.238 1.166-2.244 2.602-2.244h10.096c1.437 0 2.602 1.004 2.602 2.244v6.613c.003 1.24-1.162 2.243-2.602 2.243Z" clip-rule="evenodd"/>
  <path fill="#14252D" fill-rule="evenodd" d="M245.168 47.772a.567.567 0 0 1 0-.798l4.11-4.11a.567.567 0 0 1 .798 0 .567.567 0 0 1 0 .798l-4.11 4.11a.567.567 0 0 1-.798 0Z" clip-rule="evenodd"/>
  <path fill="#14252D" fill-rule="evenodd" d="M244.838 47.772a.567.567 0 0 0 0-.798l-4.11-4.11a.567.567 0 0 0-.798 0 .567.567 0 0 0 0 .798l4.11 4.11a.567.567 0 0 0 .798 0Z" clip-rule="evenodd"/>
  <path fill="#000" d="M254.216 53.448a1.266 1.266 0 1 0 0-2.532 1.266 1.266 0 0 0 0 2.532ZM254.216 56.925a1.266 1.266 0 1 0 0-2.532 1.266 1.266 0 0 0 0 2.532Z"/>
  <path fill="#14252D" d="M291.772 67.222h-17.268a1.458 1.458 0 0 1-1.458-1.458V47.155c0-.807.654-1.458 1.458-1.458h17.268c.807 0 1.458.654 1.458 1.458v18.609a1.456 1.456 0 0 1-1.458 1.458Z"/>
  <path fill="#14252D" d="M275.692 59.773h-3.186c-.666 0-1.206-.54-1.206-1.206v-4.212c0-.666.54-1.206 1.206-1.206h3.186c.666 0 1.206.54 1.206 1.206v4.212c0 .666-.54 1.206-1.206 1.206ZM290.587 59.773h3.186c.666 0 1.206-.54 1.206-1.206v-4.212c0-.666-.54-1.206-1.206-1.206h-3.186c-.666 0-1.206.54-1.206 1.206v4.212c0 .666.54 1.206 1.206 1.206ZM286.939 48.034v-3.651c0-.765-.618-1.383-1.383-1.383h-4.83c-.765 0-1.383.618-1.383 1.383v3.651c0 .765.618 1.383 1.383 1.383h4.83a1.381 1.381 0 0 0 1.383-1.383Z"/>
  <path fill="#fff" d="M278.635 58.6a2.253 2.253 0 1 0 0-4.506 2.253 2.253 0 0 0 0 4.506ZM287.644 58.6a2.253 2.253 0 1 0 0-4.506 2.253 2.253 0 0 0 0 4.506Z"/>
  <path fill="#14252D" d="M320.88 67.06c6.727 0 12.18-5.453 12.18-12.18 0-6.727-5.453-12.18-12.18-12.18-6.727 0-12.18 5.453-12.18 12.18 0 6.727 5.453 12.18 12.18 12.18Z"/>
  <path fill="#000" d="m318.972 48.652 1.827 12.288h-3.264l-.171-2.208h-1.143l-.192 2.208h-3.303l1.629-12.288h4.617Zm-1.692 7.902a144.048 144.048 0 0 1-.486-5.16c-.324 2.352-.531 4.074-.612 5.16h1.098Z"/>
  <path fill="#14252D" d="M24.689 102.849H7.298a1.4 1.4 0 0 1-1.398-1.398V84.498A1.4 1.4 0 0 1 7.298 83.1h17.39a1.4 1.4 0 0 1 1.399 1.398v16.953a1.4 1.4 0 0 1-1.398 1.398Z"/>
  <path fill="#fff" d="M12.737 90.975a1.683 1.683 0 1 0 0-3.366 1.683 1.683 0 0 0 0 3.366ZM20.79 90.445a.507.507 0 0 1-.716 0l-1.969-1.97a.507.507 0 1 1 .718-.718l1.968 1.971a.507.507 0 0 1 0 .718Z"/>
  <path fill="#fff" d="M18.103 90.442a.507.507 0 0 1 0-.716l1.97-1.969a.507.507 0 1 1 .718.718l-1.971 1.968a.507.507 0 0 1-.717 0Z"/>
  <path fill="#000" d="M25.781 96.957a2.274 2.274 0 1 0 0-4.548 2.274 2.274 0 0 0 0 4.548ZM21.782 100.728a.828.828 0 1 0 0-1.656.828.828 0 0 0 0 1.656Z"/>
  <path fill="#000" d="M26.123 96.579c.09.045.147.141.135.246a3.88 3.88 0 0 1-4.269 3.435.246.246 0 1 1 .051-.489 3.384 3.384 0 0 0 3.726-2.997.246.246 0 0 1 .27-.219.302.302 0 0 1 .087.024ZM20.95 94.101a4.718 4.718 0 0 1-4.691 4.746 4.718 4.718 0 0 1-4.746-4.692l9.438-.054Z"/>
  <path fill="#14252D" d="M55.104 104.112c-6.072 0-11.01-4.938-11.01-11.01s4.938-11.01 11.01-11.01 11.01 4.938 11.01 11.01-4.938 11.01-11.01 11.01Z"/>
  <path fill="#000" d="M55.104 100.332c-3.984 0-7.227-3.243-7.227-7.227 0-3.984 3.243-7.227 7.227-7.227 3.984 0 7.227 3.243 7.227 7.227 0 3.984-3.24 7.227-7.227 7.227Zm0-13.944a6.725 6.725 0 0 0-6.717 6.717 6.723 6.723 0 0 0 6.717 6.717 6.723 6.723 0 0 0 6.717-6.717 6.723 6.723 0 0 0-6.717-6.717Z"/>
  <path fill="#000" d="M55.104 97.029a3.93 3.93 0 0 1-3.924-3.924 3.93 3.93 0 0 1 3.924-3.924 3.93 3.93 0 0 1 3.924 3.924 3.927 3.927 0 0 1-3.924 3.924Zm0-7.341a3.418 3.418 0 0 0-3.414 3.414 3.418 3.418 0 0 0 3.414 3.414 3.418 3.418 0 0 0 3.414-3.414 3.418 3.418 0 0 0-3.414-3.414Z"/>
  <path fill="#000" d="M56.076 92.847a.99.99 0 0 0-.714-.714.807.807 0 0 0-.255-.036.807.807 0 0 0-.255.036.99.99 0 0 0-.714.714.795.795 0 0 0-.036.255c0 .09.009.174.036.255.09.354.366.627.714.714a.807.807 0 0 0 .255.036.807.807 0 0 0 .255-.036.985.985 0 0 0 .714-.714.795.795 0 0 0 .036-.255.888.888 0 0 0-.036-.255Zm-.714.681a.494.494 0 0 1-.51 0 .443.443 0 0 1-.165-.168.478.478 0 0 1 0-.51.494.494 0 0 1 .675-.168.494.494 0 0 1 .168.678.529.529 0 0 1-.168.168Z"/>
  <path fill="#14252D" d="M55.812 80.4H54.4v4.413h1.413V80.4Z"/>
  <path fill="#14252D" d="M55.812 80.4H54.4v4.413h1.413V80.4ZM55.812 101.397H54.4v4.413h1.413v-4.413ZM67.81 93.812V92.4h-4.413v1.413h4.413ZM46.813 93.81v-1.413H42.4v1.412h4.413Z"/>
  <path fill="#000" d="M55.362 82.605v10.074a.494.494 0 0 0-.51 0V82.605h.51ZM55.362 93.528v10.074h-.51V93.528a.494.494 0 0 0 .51 0ZM54.61 93.102c0 .093.026.18.074.255H44.607v-.51h10.077a.478.478 0 0 0-.075.255ZM65.604 92.847v.51H55.53a.494.494 0 0 0 0-.51h10.074Z"/>
  <path fill="#14252D" d="M101.571 82.284a.955.955 0 0 0-1.065-.948l-6.219.732c-.243.03-.243.381 0 .411l6.216.75a.954.954 0 0 0 1.068-.945ZM84.636 82.263a.954.954 0 0 1 1.068-.945l6.216.75c.243.03.243.381 0 .411l-6.219.732a.955.955 0 0 1-1.065-.948Z"/>
  <path fill="#14252D" d="M93.096 87.258a1.942 1.942 0 0 0 1.944-1.938l.003-2.676a1.942 1.942 0 0 0-1.938-1.944 1.942 1.942 0 0 0-1.944 1.938l-.003 2.676c0 1.071.867 1.941 1.938 1.944Z"/>
  <path fill="#000" d="M93.096 90.669a1.941 1.941 0 1 0 0-3.882 1.941 1.941 0 0 0 0 3.882Z"/>
  <path fill="#14252D" d="m89.937 89.406 6.315.009c.735 0 1.33-.594 1.332-1.326l.003-2.727c0-.735-.594-1.329-1.326-1.332l-6.315-.009c-.735 0-1.329.594-1.332 1.326l-.003 2.727a1.326 1.326 0 0 0 1.326 1.332Z"/>
  <path fill="#14252D" d="m98.673 97.908-11.172-.015A5.006 5.006 0 0 1 82.5 92.88a5.006 5.006 0 0 1 5.013-5.001l11.172.015a5.006 5.006 0 1 1-.012 10.014ZM102.144 104.133c-.471 0-.849-.27-.849-.603l.003-2.055c0-.891-1.026-1.62-2.286-1.62l-11.859-.015c-1.263-.003-2.289.723-2.292 1.614l-.003 2.055c0 .333-.38.6-.852.6-.47 0-.849-.27-.849-.603l.003-2.055c.003-1.554 1.794-2.817 3.993-2.814l11.86.015c2.198.003 3.986 1.269 3.983 2.823l-.003 2.055c.003.336-.378.603-.849.603Z"/>
  <path fill="#14252D" d="M93.363 105.507c-.47 0-.849-.27-.849-.603l.006-5.658c0-.333.381-.6.852-.6s.85.27.85.603l-.007 5.658c-.003.333-.384.603-.852.6Z"/>
  <path fill="#000" d="m97.554 94.779-9.144-.012c-1.11 0-2.01-.903-2.007-2.013v-.132c0-1.11.903-2.01 2.013-2.007l9.144.012c1.11 0 2.01.903 2.007 2.013v.132a2.01 2.01 0 0 1-2.013 2.007Z"/>
  <path fill="#14252D" d="m122.106 82.929-1.77 1.769 10.225 10.225 1.769-1.77-10.224-10.224Z"/>
  <path fill="#14252D" d="m123.749 83.967-.003.603.489.489a1.32 1.32 0 0 1-.669 1.101c-.195.114-.423.18-.663.177h-.927l-.603.003h-1.335a1.34 1.34 0 0 1-1.338-1.338 1.34 1.34 0 0 1 1.335-1.335h2.862c.327 0 .621.111.852.3Z"/>
  <path fill="#14252D" d="M123.749 82.632v1.335l-.003.603v.927c0 .243-.063.471-.18.666a1.33 1.33 0 0 1-1.098.669l-.492-.492-.603.003a1.326 1.326 0 0 1-.3-.843v-.063l.003-1.479-.003-.288.003-1.035c.003-.369.15-.702.39-.942.243-.243.576-.39.945-.393a1.328 1.328 0 0 1 1.338 1.332ZM139.985 82.93 129.76 93.155l1.769 1.77L141.754 84.7l-1.769-1.77Z"/>
  <path fill="#14252D" d="m138.344 83.967.003.603-.492.489c.018.474.282.882.669 1.101.195.114.423.18.663.177h.927l.603.003h1.335c.738 0 1.338-.6 1.338-1.338a1.34 1.34 0 0 0-1.335-1.335h-2.862a1.33 1.33 0 0 0-.849.3Z"/>
  <path fill="#14252D" d="M138.344 82.632v1.335l.003.603v.927c0 .243.063.471.18.666a1.33 1.33 0 0 0 1.098.669l.492-.492.603.003c.189-.231.3-.525.3-.843v-.063l-.003-1.479.003-.288-.003-1.035a1.341 1.341 0 0 0-.39-.942 1.344 1.344 0 0 0-.945-.393 1.328 1.328 0 0 0-1.338 1.332ZM130.56 91.212l-10.225 10.225 1.769 1.769 10.225-10.225-1.769-1.769Z"/>
  <path fill="#14252D" d="m123.749 102.168-.003-.603.489-.489a1.32 1.32 0 0 0-.669-1.101 1.282 1.282 0 0 0-.663-.177h-.927l-.603-.003h-1.335c-.738 0-1.338.6-1.338 1.338a1.336 1.336 0 0 0 1.335 1.335h2.862c.327 0 .621-.111.852-.3Z"/>
  <path fill="#14252D" d="M123.749 103.503v-1.335l-.003-.603v-.927c0-.243-.063-.471-.18-.666a1.33 1.33 0 0 0-1.098-.669l-.492.492-.603-.003c-.189.231-.3.525-.3.843v.063l.003 1.479-.003.288.003 1.035c.003.369.15.702.39.942.243.243.576.39.945.393a1.328 1.328 0 0 0 1.338-1.332ZM131.528 91.214l-1.769 1.77 10.224 10.224 1.77-1.769-10.225-10.225Z"/>
  <path fill="#14252D" d="m138.344 102.168.003-.603-.492-.489a1.32 1.32 0 0 1 .669-1.101c.195-.114.423-.18.663-.177h.927l.603-.003h1.335c.738 0 1.338.6 1.338 1.338a1.336 1.336 0 0 1-1.335 1.335h-2.862a1.33 1.33 0 0 1-.849-.3Z"/>
  <path fill="#14252D" d="M138.344 103.503v-1.335l.003-.603v-.927c0-.243.063-.471.18-.666a1.33 1.33 0 0 1 1.098-.669l.492.492.603-.003c.189.231.3.525.3.843v.063l-.003 1.479.003.288-.003 1.035c-.003.369-.15.702-.39.942-.243.243-.576.39-.945.393a1.328 1.328 0 0 1-1.338-1.332ZM138.683 92.325a7.589 7.589 0 0 1-2.07 5.226v1.815a2.794 2.794 0 0 1-2.793 2.793h-5.55a2.794 2.794 0 0 1-2.793-2.793v-1.815a7.587 7.587 0 0 1-2.07-5.223 7.636 7.636 0 0 1 7.638-7.635 7.631 7.631 0 0 1 7.638 7.632Z"/>
  <mask id="b" width="4" height="5" x="126" y="91" maskUnits="userSpaceOnUse" style="mask-type:luminance">
    <path fill="#fff" d="M126.428 91.767h3.315v3.315h-3.315v-3.315Z"/>
  </mask>
  <g mask="url(#b)">
    <path fill="#000" d="M128.084 95.079a1.656 1.656 0 1 0 0-3.311 1.656 1.656 0 0 0 0 3.311Z"/>
  </g>
  <mask id="c" width="4" height="5" x="132" y="91" maskUnits="userSpaceOnUse" style="mask-type:luminance">
    <path fill="#fff" d="M135.662 91.767h-3.315v3.315h3.315v-3.315Z"/>
  </mask>
  <g mask="url(#c)">
    <path fill="#000" d="M134.006 95.079a1.656 1.656 0 1 0 0-3.311 1.656 1.656 0 0 0 0 3.311Z"/>
  </g>
  <path fill="#14252D" d="M169.089 81c-7.473 0-11.136 14.958-12.348 21.252-.276 1.428.894 2.742 2.445 2.742h19.758c1.566 0 2.739-1.335 2.439-2.772C180.066 95.904 176.196 81 169.089 81Z"/>
  <path fill="#000" d="M166.857 91.287c.911 0 1.65-.783 1.65-1.749 0-.966-.739-1.749-1.65-1.749-.912 0-1.65.783-1.65 1.749 0 .966.738 1.749 1.65 1.749ZM171.437 88.671c1.218 0 2.205-1.046 2.205-2.337 0-1.29-.987-2.337-2.205-2.337-1.217 0-2.205 1.046-2.205 2.337 0 1.29.988 2.337 2.205 2.337ZM173.301 94.221c.765 0 1.386-.657 1.386-1.467s-.621-1.467-1.386-1.467c-.766 0-1.386.657-1.386 1.467s.62 1.467 1.386 1.467ZM168.018 87.183l-2.019-.576 2.772-2.394-.753 2.97ZM174.248 88.881l1.179 1.83-3.573-.096 2.394-1.734ZM169.941 92.433l-1.17-.414 1.713-1.308-.543 1.722Z"/>
  <path fill="#14252D" d="m207.158 104.27-11.547-13.038a2.43 2.43 0 0 1 .207-3.43l7.332-6.491a2.43 2.43 0 0 1 3.429.207l11.547 13.038a2.43 2.43 0 0 1-.207 3.429l-7.332 6.492a2.427 2.427 0 0 1-3.429-.207Z"/>
  <path fill="#000" d="m214.757 97.382-4.767-5.385a.716.716 0 0 1 .06-1.008.716.716 0 0 1 1.008.06l4.767 5.385a.716.716 0 0 1-.06 1.008.71.71 0 0 1-1.008-.06ZM212.735 99.176l-4.767-5.385a.716.716 0 0 1 .06-1.008.716.716 0 0 1 1.008.06l4.767 5.385a.716.716 0 0 1-.06 1.008.715.715 0 0 1-1.008-.06ZM205.214 89.95a2.385 2.385 0 1 0 0-4.77 2.385 2.385 0 0 0 0 4.77ZM197.819 89.726a.736.736 0 0 1 .204-1.131 4.095 4.095 0 0 1 5.298 5.982.733.733 0 0 1-1.146.063l-4.356-4.914Z"/>
  <path fill="#14252D" d="m256.868 85.284-.774 4.146a5.064 5.064 0 0 1-1.701.291 5.089 5.089 0 0 1-4.119-2.091v9.114a8.487 8.487 0 1 1-16.974 0 8.487 8.487 0 0 1 10.164-8.322v4.311a4.347 4.347 0 0 0-6.024 4.008 4.348 4.348 0 0 0 8.694 0V80.7h4.143c.486 2.31 2.646 4.803 5.103 4.803a5.003 5.003 0 0 0 1.488-.219ZM271 97.35c0-1.542.588-3.084 1.767-4.26l10.29-10.29.003.006.006-.006 10.287 10.29a6.026 6.026 0 0 1-4.26 10.284 6.01 6.01 0 0 1-4.26-1.764l-1.773-1.773-1.773 1.773a6.026 6.026 0 0 1-8.52 0A5.996 5.996 0 0 1 271 97.35Z"/>
  <path fill="#000" d="M275.818 99.588a1.347 1.347 0 1 0 0-2.694 1.347 1.347 0 0 0 0 2.694ZM290.299 99.588a1.347 1.347 0 1 0 0-2.694 1.347 1.347 0 0 0 0 2.694Z"/>
  <path fill="#14252D" d="M321 105.3c6.793 0 12.3-5.507 12.3-12.3 0-6.793-5.507-12.3-12.3-12.3-6.793 0-12.3 5.507-12.3 12.3 0 6.793 5.507 12.3 12.3 12.3Z"/>
  <path fill="#000" d="M321 100.98a7.98 7.98 0 1 0 0-15.96 7.98 7.98 0 0 0 0 15.96Z"/>
  <path fill="#14252D" d="m319.767 93.294 2.058.666-.906 4.059a1.468 1.468 0 0 1-1.851.945 1.468 1.468 0 0 1-.945-1.851l1.644-3.819Z"/>
  <path fill="#14252D" d="m320.703 91.77-.666 2.058-4.059-.906a1.47 1.47 0 0 1 .906-2.796l3.819 1.644ZM16.88 143.06c6.727 0 12.18-5.453 12.18-12.18 0-6.727-5.453-12.18-12.18-12.18-6.727 0-12.18 5.453-12.18 12.18 0 6.727 5.453 12.18 12.18 12.18Z"/>
  <path fill="#000" d="M12.374 130.775a2.253 2.253 0 1 0 0-4.506 2.253 2.253 0 0 0 0 4.506ZM21.383 130.775a2.253 2.253 0 1 0 0-4.506 2.253 2.253 0 0 0 0 4.506ZM21.641 133.958a4.718 4.718 0 0 1-4.692 4.746 4.718 4.718 0 0 1-4.746-4.692l9.438-.054Z"/>
  <path fill="#14252D" fill-rule="evenodd" d="M48.96 143.231h-1.298l.954-4.989h3.165l-2.82 4.989ZM60.883 143.231h1.301l-.956-4.989h-3.166l2.82 4.989ZM55.354 125.612h-.864a2.205 2.205 0 0 1-2.205-2.205v-2.202c0-1.218.987-2.205 2.205-2.205h.864c1.218 0 2.205.987 2.205 2.205v2.202a2.205 2.205 0 0 1-2.205 2.205Z" clip-rule="evenodd"/>
  <path fill="#14252D" d="M54.922 141.323c5.59 0 10.122-4.532 10.122-10.122s-4.532-10.122-10.122-10.122S44.8 125.611 44.8 131.201s4.532 10.122 10.122 10.122Z"/>
  <path fill="#000" d="M54.93 137.687c3.48 0 6.3-2.888 6.3-6.45 0-3.562-2.82-6.45-6.3-6.45-3.478 0-6.3 2.888-6.3 6.45 0 3.562 2.822 6.45 6.3 6.45Z"/>
  <path fill="#14252D" fill-rule="evenodd" d="M55.08 131.987a.44.44 0 0 1-.45-.429v-5.442c0-.235.201-.429.45-.429a.44.44 0 0 1 .45.429v5.442a.44.44 0 0 1-.45.429ZM87.387 143.299H86.16v-4.701h2.982l-1.755 4.701ZM98.62 143.299h1.223v-4.701h-2.982l1.758 4.701Z" clip-rule="evenodd"/>
  <path fill="#14252D" fill-rule="evenodd" d="M100.056 140.947H85.947A5.247 5.247 0 0 1 80.7 135.7v-7.488a5.247 5.247 0 0 1 5.247-5.247h14.109a5.247 5.247 0 0 1 5.247 5.247v7.488a5.247 5.247 0 0 1-5.247 5.247Z" clip-rule="evenodd"/>
  <path fill="#000" fill-rule="evenodd" d="M96.848 137.446H86.752c-1.436 0-2.602-1.003-2.602-2.243v-6.613c0-1.238 1.166-2.244 2.602-2.244h10.096c1.437 0 2.602 1.004 2.602 2.244v6.613c.003 1.24-1.162 2.243-2.602 2.243Z" clip-rule="evenodd"/>
  <path fill="#14252D" fill-rule="evenodd" d="M93.168 123.772a.567.567 0 0 1 0-.798l4.11-4.11a.567.567 0 0 1 .798 0 .567.567 0 0 1 0 .798l-4.11 4.11a.567.567 0 0 1-.798 0Z" clip-rule="evenodd"/>
  <path fill="#14252D" fill-rule="evenodd" d="M92.838 123.772a.567.567 0 0 0 0-.798l-4.11-4.11a.567.567 0 0 0-.798 0 .567.567 0 0 0 0 .798l4.11 4.11a.567.567 0 0 0 .798 0Z" clip-rule="evenodd"/>
  <path fill="#000" d="M102.216 129.448a1.266 1.266 0 1 0 0-2.532 1.266 1.266 0 0 0 0 2.532ZM102.216 132.925a1.266 1.266 0 1 0 0-2.532 1.266 1.266 0 0 0 0 2.532Z"/>
  <path fill="#14252D" d="M130.88 143.06c6.727 0 12.18-5.453 12.18-12.18 0-6.727-5.453-12.18-12.18-12.18-6.727 0-12.18 5.453-12.18 12.18 0 6.727 5.453 12.18 12.18 12.18Z"/>
  <path fill="#000" d="m128.972 124.652 1.827 12.288h-3.264l-.171-2.208h-1.143l-.192 2.208h-3.303l1.629-12.288h4.617Zm-1.692 7.902a144.048 144.048 0 0 1-.486-5.16c-.324 2.352-.531 4.074-.612 5.16h1.098ZM131.342 124.652h2.391c1.542 0 2.586.072 3.132.213.543.141.957.375 1.242.699.282.324.462.684.531 1.083.072.396.105 1.179.105 2.34v4.302c0 1.104-.051 1.839-.156 2.211-.105.372-.285.663-.543.873-.258.21-.576.357-.957.441-.381.084-.951.126-1.716.126h-4.029v-12.288Zm3.195 2.103v8.082c.459 0 .744-.093.849-.276.105-.186.159-.687.159-1.506v-4.773c0-.555-.018-.912-.054-1.071a.503.503 0 0 0-.243-.345c-.123-.075-.36-.111-.711-.111Z"/>
  <path fill="#1A373C" fill-rule="evenodd" d="M168.877 118.7c-3.678 0-8.091.819-11.796 2.619a.674.674 0 0 0-.381.618c.009 4.374.339 14.166 11.826 21.024a.685.685 0 0 0 .702 0c11.487-6.858 11.817-16.653 11.826-21.024a.684.684 0 0 0-.381-.618c-3.702-1.8-8.115-2.619-11.796-2.619Z" clip-rule="evenodd"/>
  <path fill="#000" fill-rule="evenodd" d="m168.772 134.138 7.068-9.405c-.519-.411-.972-.12-1.221.102h-.009l-5.892 6.054-2.22-2.637c-1.059-1.209-2.499-.288-2.835-.042l5.109 5.928Z" clip-rule="evenodd"/>
  <path fill="#14252D" d="M206.88 143.06c6.727 0 12.18-5.453 12.18-12.18 0-6.727-5.453-12.18-12.18-12.18-6.727 0-12.18 5.453-12.18 12.18 0 6.727 5.453 12.18 12.18 12.18Z"/>
  <path fill="#000" fill-rule="evenodd" d="M206.706 126.017c2.589.135 5.157.453 7.449 1.878 1.374.855 2.187 2.082 2.211 3.726.039 2.577-1.797 3.9-4.203 3.612a23.824 23.824 0 0 1-2.997-.654c-1.74-.444-3.462-.315-5.181.099-.825.198-1.632.492-2.481.576-1.596.156-3.267-.405-3.852-1.98a4.434 4.434 0 0 1 1.764-5.352c2.208-1.437 4.71-1.776 7.29-1.905Z" clip-rule="evenodd"/>
  <path fill="#14252D" fill-rule="evenodd" d="M213.306 130.994c.012.936-.63 1.734-1.407 1.746-.69.012-1.374-.783-1.386-1.611-.012-.906.606-1.668 1.386-1.698.78-.033 1.395.654 1.407 1.563ZM203.067 130.994c.012.936-.63 1.734-1.407 1.746-.69.012-1.374-.783-1.386-1.611-.012-.906.606-1.668 1.386-1.698.78-.033 1.395.654 1.407 1.563Z" clip-rule="evenodd"/>
  <path fill="#14252D" d="M257.258 131.054s-4.416 9.351-12.471 9.351c-7.437 0-11.787-9.351-11.787-9.351s3.81-9.354 11.739-9.354c8.058 0 12.519 9.354 12.519 9.354Z"/>
  <path fill="#000" d="M245.192 136.463a5.412 5.412 0 1 0 0-10.824 5.412 5.412 0 0 0 0 10.824Z"/>
  <path fill="#14252D" d="M245.192 133.439a2.388 2.388 0 1 0 0-4.776 2.388 2.388 0 0 0 0 4.776ZM283.241 118.951c6.649.139 11.927 5.641 11.789 12.29-.139 6.649-5.641 11.927-12.29 11.789-6.65-.139-11.927-5.642-11.789-12.291.139-6.649 5.641-11.927 12.29-11.788Z"/>
  <path fill="#000" d="M286.688 138.734a8.86 8.86 0 0 0 2.446-1.768 8.788 8.788 0 0 0 2.525-6.281 8.783 8.783 0 0 0-2.654-6.225.134.134 0 0 0-.19.002.133.133 0 0 0 .003.189 8.517 8.517 0 0 1 2.574 6.04 8.519 8.519 0 0 1-2.449 6.091 8.518 8.518 0 0 1-6.04 2.575 8.525 8.525 0 0 1-6.091-2.449.133.133 0 0 0-.189.002.132.132 0 0 0 .002.189 8.792 8.792 0 0 0 6.278 2.525 8.875 8.875 0 0 0 3.785-.89Z"/>
  <path fill="#000" d="M283.03 119.868a4.967 4.967 0 1 1-.207 9.933 4.967 4.967 0 0 1 .207-9.933Z"/>
  <path fill="#14252D" d="M282.951 120.937a1.167 1.167 0 1 1-.05 2.334 1.167 1.167 0 0 1 .05-2.334Z"/>
  <rect width=".3" height="1.5" fill="#000" rx=".15" transform="translate(282.785 121.225) skewX(.001)"/>
  <path fill="#14252D" d="M325.227 143.402h-7.197a5.193 5.193 0 0 1-5.193-5.193v-.498a5.193 5.193 0 0 1 5.193-5.193h7.197a5.193 5.193 0 0 1 5.193 5.193v.498a5.193 5.193 0 0 1-5.193 5.193Z"/>
  <path fill="#14252D" d="M318.357 143.402c-4.407 0-7.977-3.372-7.977-7.53v-3.906c0-.414.426-.708.846-.585l9.942 1.137-2.811 10.884ZM311.4 129.08a2.7 2.7 0 1 0 0-5.4 2.7 2.7 0 0 0 0 5.4ZM315.954 122.414a1.856 1.856 0 1 0 .001-3.713 1.856 1.856 0 0 0-.001 3.713Z"/>
</svg>
