<svg height="265" viewBox="0 0 284 265" width="284" xmlns="http://www.w3.org/2000/svg" xmlns:xlink="http://www.w3.org/1999/xlink"><g fill="none" fill-rule="evenodd" transform="translate(.5)"><g fill-rule="nonzero"><path d="M138.173 113.873a12.87 12.87 0 0 1 .003 0zm.484-.174c1.375-.086 3.204-.331 5.327-.727 4.67-.872 10.239-2.368 15.61-4.227 10.957-3.791 19.264-8.657 20.193-10.545 3.067-6.246 10.617-8.822 16.863-5.754s8.822 10.619 5.754 16.865c-4.892 9.96-17.5 17.342-34.568 23.248-14.534 5.03-28.77 7.685-36.257 5.636-6.711-1.837-10.663-8.768-8.826-15.48 1.778-6.497 8.33-10.408 14.835-8.984.253.005.617-.003 1.069-.032z" fill="#d8d8d8"/><path d="M138.173 113.873a12.87 12.87 0 0 1 .003 0zm62.805-17.937c-4.829.991-9.148 3.96-11.497 8.44-1.238 2.361-12.317 8.44-26.926 13.176-7.163 2.323-14.589 4.193-20.817 5.282-2.83.495-5.27.8-7.103.909a18.95 18.95 0 0 1-1.426.04 17.753 17.753 0 0 0-10.86 1.195c.064-.752.198-1.509.404-2.263 1.778-6.497 8.33-10.408 14.835-8.984.253.005.617-.003 1.069-.032 1.375-.086 3.204-.331 5.327-.727 4.67-.872 10.239-2.368 15.61-4.227 10.957-3.791 19.264-8.657 20.193-10.545 3.067-6.246 10.617-8.822 16.863-5.754a12.55 12.55 0 0 1 4.33 3.49z" fill="#fff" opacity=".278"/></g><ellipse cx="140.208" cy="3.128" fill="#fff" rx="2.465" ry="2.464"/><g fill-rule="nonzero"><path d="M67.463 114.679l1.232 22.766c-.914.05-2.302.802-4.12 2.687-2.334 2.42-4.702 6.123-6.82 10.712-4.057 8.793-6.662 19.817-6.593 26.565l-22.799.232c-.105-10.301 3.28-24.623 8.69-36.35 7.172-15.545 17.154-25.895 30.41-26.612z" fill="#cdcdcd"/><path d="M52.154 168.328c-.665 3.401-1.018 6.543-.992 9.08l-22.799.233c-.029-2.844.208-5.995.68-9.313z" fill="#000" opacity=".107"/><path d="M67.713 119.303c-9.928 3.306-17.707 12.565-23.594 25.324-4.836 10.482-8.053 23.037-8.606 32.941l-7.15.073c-.105-10.301 3.28-24.623 8.69-36.35 7.172-15.545 17.154-25.895 30.41-26.612z" fill="#949494" opacity=".151"/></g><g transform="translate(63.693 178.881)"><rect fill="#3e3e3e" height="67.267" rx="16.283" width="32.566" x="2.246"/><path d="M34.811 62.745H2.246V37.308H34.81v25.437z" fill="#bbb"/><path d="M2.246 7.349h13.475v61.615H2.246z" fill="#000" opacity=".155"/><path d="M1.841 65.014h33.363v3.693H1.841z" fill="#4a4a4a"/><path d="M.251 65.114c-.025-.354-.037-.71-.037-1.07 0-9.157 8.195-16.58 18.304-16.58 10.11 0 18.304 7.423 18.304 16.58 0 .36-.012.716-.037 1.07H.25z" fill="#d8d8d8"/><path d="M15.543 47.681c-3.512 4.202-5.565 9.28-5.565 14.749 0 .906.057 1.801.167 2.684H.25c-.025-.354-.037-.71-.037-1.07 0-8.24 6.635-15.075 15.329-16.363z" fill="#393939" opacity=".278"/></g><g transform="translate(110.171 178.881)"><rect fill="#3e3e3e" height="67.267" rx="16.283" width="32.566" x="2.246"/><path d="M34.811 62.745H2.246V37.308H34.81v25.437z" fill="#d8d8d8"/><path d="M2.246 7.349h13.475v61.615H2.246z" fill="#000" opacity=".155"/><path d="M1.841 65.014h33.363v3.693H1.841z" fill="#4a4a4a"/><path d="M.251 65.114c-.025-.354-.037-.71-.037-1.07 0-9.157 8.195-16.58 18.304-16.58 10.11 0 18.304 7.423 18.304 16.58 0 .36-.012.716-.037 1.07H.25z" fill="#d8d8d8"/><path d="M15.543 47.681c-3.512 4.202-5.565 9.28-5.565 14.749 0 .906.057 1.801.167 2.684H.25c-.025-.354-.037-.71-.037-1.07 0-8.24 6.635-15.075 15.329-16.363z" fill="#393939" opacity=".278"/></g><rect fill="#3e3e3e" height="38.243" rx="19.122" width="82.28" x="62.437" y="166.969"/><path d="M132.258 111.172l-63.086 1.8c-1.344 0-24.612 38.092-8.77 81.583h91.942s4.422-12.782 3.542-28.451-9.797-54.932-23.628-54.932z" fill="#d8d8d8"/><path d="M101.538 194.555H60.402c-15.842-43.491 7.426-81.584 8.77-81.584l32.366-.923z" fill="#4b4b4b" opacity=".071"/><path d="M65.75 157.21c-1.837 12.869-.078 21.281 5.59 37.345H60.402c-5.835-16.02-6.364-31.306-4.637-44.227l9.984 6.881z" fill="#4b4b4b" opacity=".216"/><path d="M150.194 136.648c3.31 10.795 5.3 22.47 5.692 29.456.88 15.669-3.542 28.45-3.542 28.45l-15.114-.492c1.93-7.674 2.966-15.81 2.966-24.236 0-7.53-.828-14.828-2.38-21.771 5.325-2.687 9.648-6.656 12.378-11.407z" fill="#ededed"/><path d="M104.184 5.929c21.525-.156 38.529 16.162 38.529 31.552v10.294c0 16.845-13.655 30.5-30.5 30.5h-16c-16.845 0-30.5-13.655-30.5-30.5V37.476c0-15.388 16.945-31.392 38.47-31.547z" fill="#474747"/><path d="M103 78.275h-6.787c-16.845 0-30.5-13.655-30.5-30.5V37.476C65.713 22.371 82.04 6.673 103 5.953z" fill="#252424"/><g transform="translate(53.643 64.778)"><ellipse cx="9.107" cy="9.091" fill="#bcb7a4" rx="9.107" ry="9.091"/><path d="M9.107 0v18.181c-5.03 0-9.107-4.07-9.107-9.09C0 4.07 4.077 0 9.107 0z" fill="#eee7cb"/></g><ellipse cx="143.146" cy="73.869" fill="#f8f0cf" rx="9.107" ry="9.091"/><path d="M144.088 64.778V82.96c-4.856 0-8.793-4.07-8.793-9.09s3.937-9.09 8.793-9.09z" fill="#000" opacity=".231"/><path d="M141.576 51.613v50.14c0 11.435-9.27 20.704-20.703 20.704H85.652c-11.434 0-20.703-9.27-20.703-20.703V51.613z" fill="#eee7cb"/><path d="M102.634 121.83V50.986h38.314v50.14c0 11.435-9.27 20.704-20.703 20.704h-17.61z" fill="#f8f0cf"/><ellipse cx="80.337" cy="95.185" fill="#fff" opacity=".477" rx="9.735" ry="9.718"/><rect fill="#fff" height="69" rx="5" width="58.544" x="11.246" y="185.711"/><path d="M16.864 192.633h47.307v50.094H16.864z" fill="#ea2c13"/><ellipse cx="40.518" cy="247.863" fill="#aca6a6" rx="2.661" ry="2.5"/><path d="M41.314 185.71v69H16.246a5 5 0 0 1-5-5v-59a5 5 0 0 1 5-5z" fill="#010101" opacity=".054"/><path d="M46.837 222.103c0 2.798-1.754 4.367-4.343 4.89v2.302h-3.452v-2.118c-1.754-.079-3.647-.393-4.844-.942v-4.184h3.035l.362 1.83c.083.366.167.471.529.576.39.13 1.14.235 2.06.235 1.865 0 2.811-.654 2.811-1.857 0-3.373-8.63-1.255-8.63-7.165 0-2.825 1.977-4.394 4.677-4.917v-2.04h3.48v1.91c1.53.104 2.84.391 3.98.758v4.472l-3.062-.288-.334-1.726c-.083-.392-.194-.47-.556-.575-.446-.105-1.03-.131-1.587-.131-1.615 0-2.756.523-2.756 1.752 0 3.19 8.63 1.334 8.63 7.218z" fill="#fff"/><path d="M84.485 132.634c-10.891-.605-19.536-9.628-19.536-20.67V61.428h4.54v23.397c0 11.434 9.27 20.703 20.704 20.703h26.14c11.433 0 20.702-9.269 20.702-20.703V61.428h4.54v50.536c0 10.862-8.364 19.77-19.004 20.634a9.58 9.58 0 0 1-.81.413c-9.096 4.105-14.979 6.157-17.647 6.157-2.537 0-8.888-2.092-19.056-6.276a9.596 9.596 0 0 1-.573-.258z" fill="#000" opacity=".174"/><ellipse cx="125.56" cy="95.185" fill="#fff" opacity=".477" rx="9.735" ry="9.718"/><path d="M64.949 107.164V53.628h4.54v26.397c0 11.434 9.27 20.703 20.704 20.703h26.14c11.433 0 20.702-9.269 20.702-20.703V53.628h4.54v53.536c0 10.862-8.364 19.77-19.004 20.634a9.58 9.58 0 0 1-.81.413c-9.096 4.105-14.979 6.157-17.647 6.157-2.537 0-8.888-2.092-19.056-6.276a9.596 9.596 0 0 1-.573-.258c-13.024-6.419-19.536-13.309-19.536-20.67z" fill="#ca9342"/><path d="M102 100.728v33.361c-3.271-.696-8.919-2.695-16.942-5.997a9.596 9.596 0 0 1-.573-.258c-13.024-6.419-19.536-13.309-19.536-20.67V53.628h4.54v26.397c0 11.434 9.27 20.703 20.704 20.703z" fill="#000" opacity=".107"/><path d="M119.528 110.496c.667-.657.673-1.73.015-2.396a1.697 1.697 0 0 0-2.398-.015c-8.15 8.042-19.563 7.152-26.576.946a1.697 1.697 0 0 0-2.394.145c-.621.7-.556 1.771.145 2.392 8.248 7.299 21.664 8.345 31.208-1.072z" fill="#434343" fill-rule="nonzero"/><g transform="translate(256.828 23.87)"><path d="M.8.444c4.082.627 19.156 10.345 21.669 15.674" stroke="#fff" stroke-width="2.949"/><ellipse cx="24.667" cy="20.193" fill="#fff" rx="1.884" ry="1.881"/></g><path d="M34.481 185.593a5.043 5.043 0 0 1 5.043-5.043h.055a5.043 5.043 0 0 1 5.043 5.043 5.043 5.043 0 0 1 5.043-5.043h.055a5.043 5.043 0 0 1 5.043 5.043v11.619a5.043 5.043 0 0 1-5.043 5.043h-.055a5.043 5.043 0 0 1-5.043-5.043 5.043 5.043 0 0 1-5.043 5.043h-.055a5.043 5.043 0 0 1-5.043-5.043 5.043 5.043 0 0 1-5.043 5.043h-.055a5.043 5.043 0 0 1-5.043-5.043v-11.62a5.043 5.043 0 0 1 5.043-5.042h.055a5.043 5.043 0 0 1 5.043 5.043z" fill="#000" opacity=".244"/><g transform="rotate(90 -58.688 113.451)"><rect fill="#e0d9ba" height="10.141" rx="5.07" width="26.797"/><rect fill="#f8f0cf" height="10.141" rx="5.07" width="21.705" x="5.093"/><rect fill="#e0d9ba" height="10.141" rx="5.07" width="26.797" y="10.141"/><rect fill="#f8f0cf" height="10.141" rx="5.07" width="21.705" x="5.093" y="10.141"/><rect fill="#e0d9ba" height="10.141" rx="5.07" width="26.797" y="20.282"/><rect fill="#f8f0cf" height="10.141" rx="5.07" width="21.705" x="5.093" y="20.282"/></g><g fill-rule="nonzero"><path d="M189.481 67.552c0-2.982 2.686-5.4 6-5.4s6 2.418 6 5.4v62.504c0 2.983-2.686 5.4-6 5.4s-6-2.417-6-5.4z" fill="#979797"/><path d="M195.58 62.197v73.214a5.4 5.4 0 0 1-6.098-5.355V67.552a5.4 5.4 0 0 1 6.098-5.355z" fill="#151515" opacity=".083"/><path d="M201.481 82.046h-12V67.552c0-2.982 2.686-5.4 6-5.4s6 2.418 6 5.4z" fill="#202020" opacity=".376"/><path d="M227.281 26.141L210.343 9.498a3.036 3.036 0 0 0-2.127-.866H184.26c-.8 0-1.565.312-2.13.866l-16.935 16.643a2.932 2.932 0 0 0-.882 2.092v23.54c0 .783.317 1.535.882 2.09l16.939 16.644c.563.555 1.33.867 2.129.867h23.955c.797 0 1.562-.311 2.127-.866l16.94-16.644a2.936 2.936 0 0 0 .881-2.092V28.233a2.942 2.942 0 0 0-.884-2.092z" fill="#ea2c13" fill-rule="evenodd"/><path d="M228.963 24.43a5.346 5.346 0 0 1 1.602 3.803v23.54a5.335 5.335 0 0 1-1.6 3.803l-16.94 16.644a5.435 5.435 0 0 1-3.808 1.554h-23.955a5.434 5.434 0 0 1-3.812-1.555l-16.938-16.644a5.33 5.33 0 0 1-1.6-3.803V28.233a5.33 5.33 0 0 1 1.6-3.803L180.45 7.786a5.437 5.437 0 0 1 3.81-1.554h23.956c1.425 0 2.795.558 3.809 1.554z" stroke="#e8e8e8" stroke-width="4.8"/><path d="M196.89 71.374h-12.628c-.8 0-1.566-.312-2.13-.867l-16.937-16.644a2.931 2.931 0 0 1-.882-2.09v-23.54c0-.785.317-1.537.882-2.092l16.937-16.643a3.037 3.037 0 0 1 2.128-.866h12.63z" fill="#474747" opacity=".059"/></g><path d="M194.942 50.656l14.58-19.324c-1.068-.842-2.005-.248-2.521.212l-.019.001-12.157 12.436-4.58-5.42c-2.186-2.483-5.156-.589-5.85-.088l10.547 12.182" fill="#fff"/><g transform="rotate(180 105.705 60.037)"><rect fill="#e0d9ba" height="10.658" rx="5.329" width="31.89"/><rect fill="#f8f0cf" height="10.658" rx="5.329" width="25.83" x="6.06"/><rect fill="#e0d9ba" height="10.658" rx="5.329" width="31.89" y="10.658"/><rect fill="#f8f0cf" height="10.658" rx="5.329" width="25.83" x="6.06" y="10.658"/><rect fill="#e0d9ba" height="10.658" rx="5.329" width="31.89" y="21.316"/><rect fill="#f8f0cf" height="10.658" rx="5.329" width="25.83" x="6.06" y="21.316"/></g><path d="M141.55 67.761v12.754c-6.69 2.35-13.141 5.484-18.254 5.51-9.688.048-15.417-3.928-18.935-3.52-3.519.41-5.047 3.242-15.552 3.52-10.505.277-23.578-7.7-23.809-7.85V67.678c3.823-1.398 14.549-6.99 19.515-6.969 5.188.022 15.546 4.553 19.846 4.15 4.3-.404 14.401-4.02 18.935-4.15 2.436-.07 8.52 2.28 18.255 7.052z" fill="#000"/><g transform="translate(77 66)"><path d="M8.755 14.257c3.866 0 8.563-3.351 8.563-7.217S12.621.257 8.755.257C4.889.257.28 3.492.28 7.358s4.608 6.899 8.474 6.899z" fill="#fff"/><circle cx="8.8" cy="7.5" fill="#000" r="2.5"/></g><g transform="translate(113.639 66)"><path d="M8.755 14.257c3.866 0 8.563-3.351 8.563-7.217S12.621.257 8.755.257C4.889.257.28 3.492.28 7.358s4.608 6.899 8.474 6.899z" fill="#fff"/><circle cx="8.8" cy="7.5" fill="#000" r="2.5"/></g><rect fill="#4e4e4e" height="19.355" rx="9.678" width="94.953" x="56.195" y="35.767"/><path d="M103 35.767v19.355H65.873c-5.345 0-9.678-4.333-9.678-9.678s4.333-9.677 9.678-9.677z" fill="#000"/></g></svg>