<svg width="297" height="265" viewBox="0 0 297 265" xmlns="http://www.w3.org/2000/svg" xmlns:xlink="http://www.w3.org/1999/xlink"><title>Group 12</title><defs><path d="M218.11 26.284L201.17 9.64a3.036 3.036 0 0 0-2.127-.866h-23.955c-.8 0-1.564.312-2.13.866l-16.937 16.644a2.932 2.932 0 0 0-.882 2.092v23.538c0 .785.318 1.536.882 2.091l16.939 16.644c.563.555 1.33.867 2.129.867h23.955c.797 0 1.562-.31 2.127-.866l16.94-16.644a2.936 2.936 0 0 0 .882-2.092V28.376a2.942 2.942 0 0 0-.884-2.092z" id="a"/><path d="M33.695 0C23.163 0 10.46 2.512 0 8.04c0 11.942-.144 41.69 33.695 62.016C67.535 49.73 67.392 19.982 67.392 8.041 56.932 2.51 44.228 0 33.695 0z" id="b"/></defs><g fill="none" fill-rule="evenodd"><ellipse fill="#FFF" cx="2.949" cy="4.603" rx="2.054" ry="2.053"/><g transform="translate(73)"><g transform="translate(115.938 90.328)" fill-rule="nonzero"><path d="M16.235 23.545a12.87 12.87 0 0 1 .003 0h-.003zm.484-.174c1.375-.086 3.204-.331 5.327-.727 4.67-.872 10.239-2.368 15.61-4.227C48.613 14.626 56.92 9.76 57.849 7.872 60.916 1.626 68.466-.95 74.712 2.118c6.246 3.068 8.822 10.619 5.754 16.865-4.892 9.96-17.5 17.342-34.568 23.248-14.534 5.03-28.77 7.685-36.257 5.636C2.93 46.03-1.022 39.099.815 32.387c1.778-6.497 8.33-10.408 14.835-8.984.253.005.617-.003 1.069-.032z" fill="#D8D8D8"/><path d="M16.235 23.545a12.87 12.87 0 0 1 .003 0h-.003zM79.04 5.608c-4.829.991-9.148 3.96-11.497 8.44-1.238 2.361-12.317 8.44-26.926 13.176-7.163 2.323-14.589 4.193-20.817 5.282-2.83.495-5.27.8-7.103.909a18.95 18.95 0 0 1-1.426.04A17.753 17.753 0 0 0 .411 34.65c.064-.752.198-1.509.404-2.263 1.778-6.497 8.33-10.408 14.835-8.984.253.005.617-.003 1.069-.032 1.375-.086 3.204-.331 5.327-.727 4.67-.872 10.239-2.368 15.61-4.227C48.613 14.626 56.92 9.76 57.849 7.872 60.916 1.626 68.466-.95 74.712 2.118a12.55 12.55 0 0 1 4.33 3.49z" fill="#FFF" opacity=".278"/></g><path d="M168.128 102.328c4.588-2.394 8.791-6.033 10.183-8.948h9.345a5.043 5.043 0 0 1 5.043 5.043v.572a5.043 5.043 0 0 1-5.043 5.043 5.043 5.043 0 0 1 5.043 5.043v.572a5.043 5.043 0 0 1-5.043 5.043 5.043 5.043 0 0 1 5.043 5.043v.572a5.043 5.043 0 0 1-5.043 5.043h-15.744a5.043 5.043 0 0 1-5.043-5.043v-.572a5.043 5.043 0 0 1 5.043-5.043 5.043 5.043 0 0 1-5.043-5.043v-.572a5.043 5.043 0 0 1 5.043-5.043 5.03 5.03 0 0 1-3.784-1.71z" fill="#3D3D3D" opacity=".188"/><path d="M180.31 67.695c0-2.983 2.686-5.4 6-5.4 3.313 0 6 2.417 6 5.4v62.503c0 2.983-2.687 5.4-6 5.4-3.314 0-6-2.417-6-5.4V67.695z" fill="#979797" fill-rule="nonzero"/><path d="M186.408 62.34v73.214a5.4 5.4 0 0 1-6.098-5.355V67.694a5.4 5.4 0 0 1 6.098-5.356z" fill="#151515" fill-rule="nonzero" opacity=".083"/><path d="M192.31 82.188h-12V67.695c0-2.983 2.686-5.4 6-5.4 3.313 0 6 2.417 6 5.4v14.493z" fill="#202020" fill-rule="nonzero" opacity=".376"/><g fill-rule="nonzero"><use fill="#F5A623" fill-rule="evenodd" xlink:href="#a"/><path stroke="#E8E8E8" stroke-width="4.8" d="M219.792 24.572a5.346 5.346 0 0 1 1.602 3.804v23.538c0 1.43-.578 2.798-1.6 3.804l-16.94 16.644a5.435 5.435 0 0 1-3.809 1.554H175.09a5.434 5.434 0 0 1-3.811-1.555L154.34 55.717a5.33 5.33 0 0 1-1.6-3.803V28.376c0-1.43.577-2.8 1.6-3.804l16.938-16.643a5.437 5.437 0 0 1 3.81-1.555h23.956c1.425 0 2.795.558 3.81 1.555l16.938 16.643z"/></g><path d="M187.718 71.516H175.09c-.8 0-1.566-.312-2.13-.867l-16.938-16.644a2.931 2.931 0 0 1-.882-2.09v-23.54c0-.785.318-1.537.882-2.091L172.96 9.64a3.037 3.037 0 0 1 2.129-.866h12.629v62.742z" fill="#474747" fill-rule="nonzero" opacity=".059"/><g transform="rotate(-180 101.119 60.108)"><rect fill="#E0D9BA" width="31.89" height="10.658" rx="5.329"/><rect fill="#F8F0CF" x="6.06" width="25.83" height="10.658" rx="5.329"/><g transform="translate(0 10.658)"><rect fill="#E0D9BA" width="31.89" height="10.658" rx="5.329"/><rect fill="#F8F0CF" x="6.06" width="25.83" height="10.658" rx="5.329"/></g><g transform="translate(0 21.316)"><rect fill="#E0D9BA" width="31.89" height="10.658" rx="5.329"/><rect fill="#F8F0CF" x="6.06" width="25.83" height="10.658" rx="5.329"/></g></g><ellipse fill="#FFF" cx="134.208" cy="3.128" rx="2.465" ry="2.464"/><path d="M61.463 114.679l1.232 22.766c-.914.05-2.302.802-4.12 2.687-2.334 2.42-4.702 6.123-6.82 10.712-4.057 8.793-6.662 19.817-6.593 26.565l-22.799.232c-.105-10.301 3.28-24.623 8.69-36.35 7.172-15.545 17.154-25.895 30.41-26.612z" fill="#CDCDCD" fill-rule="nonzero"/><path d="M46.154 168.328c-.665 3.401-1.018 6.543-.992 9.08l-22.799.233c-.029-2.844.208-5.995.68-9.313h23.111z" fill="#000" fill-rule="nonzero" opacity=".107"/><path d="M61.713 119.303c-9.928 3.306-17.707 12.565-23.594 25.324-4.836 10.482-8.053 23.037-8.606 32.941l-7.15.073c-.105-10.301 3.28-24.623 8.69-36.35 7.172-15.545 17.154-25.895 30.41-26.612l.25 4.624z" fill="#949494" fill-rule="nonzero" opacity=".151"/><g transform="translate(57.693 178.881)"><rect fill="#5C855F" x="2.246" width="32.566" height="67.267" rx="16.283"/><path d="M34.811 62.745H2.246V37.308H34.81v25.437z" fill="#B4BFB5"/><path fill="#000" opacity=".155" d="M2.246 7.349H15.721V68.964H2.246z"/><path fill="#4A4A4A" d="M1.841 65.014H35.204V68.707H1.841z"/><path d="M.251 65.114c-.025-.354-.037-.71-.037-1.07 0-9.157 8.195-16.58 18.304-16.58 10.11 0 18.304 7.423 18.304 16.58 0 .36-.012.716-.037 1.07H.25z" fill="#D0DCD1"/><path d="M15.543 47.681c-3.512 4.202-5.565 9.28-5.565 14.749 0 .906.057 1.801.167 2.684H.25c-.025-.354-.037-.71-.037-1.07 0-8.24 6.635-15.075 15.329-16.363z" fill="#393939" opacity=".278"/></g><g transform="translate(104.171 178.881)"><rect fill="#5C855F" x="2.246" width="32.566" height="67.267" rx="16.283"/><path d="M34.811 62.745H2.246V37.308H34.81v25.437z" fill="#B4BFB5"/><path fill="#000" opacity=".155" d="M2.246 7.349H15.721V68.964H2.246z"/><path fill="#4A4A4A" d="M1.841 65.014H35.204V68.707H1.841z"/><path d="M.251 65.114c-.025-.354-.037-.71-.037-1.07 0-9.157 8.195-16.58 18.304-16.58 10.11 0 18.304 7.423 18.304 16.58 0 .36-.012.716-.037 1.07H.25z" fill="#D0DCD1"/><path d="M15.543 47.681c-3.512 4.202-5.565 9.28-5.565 14.749 0 .906.057 1.801.167 2.684H.25c-.025-.354-.037-.71-.037-1.07 0-8.24 6.635-15.075 15.329-16.363z" fill="#393939" opacity=".278"/></g><rect fill="#5C855F" x="56.437" y="166.969" width="82.28" height="38.243" rx="19.122"/><path d="M126.258 111.172l-63.086 1.8c-1.344 0-24.612 38.092-8.77 81.583h91.942s4.422-12.782 3.542-28.451c-.88-15.669-9.797-54.932-23.628-54.932z" fill="#D8D8D8"/><path d="M95.538 194.555H54.402c-15.842-43.491 7.426-81.584 8.77-81.584l32.366-.923v82.507z" fill="#4B4B4B" opacity=".071"/><path d="M59.75 157.21c-1.837 12.869-.078 21.281 5.59 37.345H54.402c-5.835-16.02-6.364-31.306-4.637-44.227l9.984 6.881z" fill="#4B4B4B" opacity=".216"/><path d="M144.194 136.648c3.31 10.795 5.3 22.47 5.692 29.456.88 15.669-3.542 28.45-3.542 28.45l-15.114-.492c1.93-7.674 2.966-15.81 2.966-24.236 0-7.53-.828-14.828-2.38-21.771 5.325-2.687 9.648-6.656 12.378-11.407z" fill="#EDEDED"/><g transform="translate(47.538 7.528)"><g transform="translate(.105 57.25)"><ellipse fill="#BCB7A4" cx="9.107" cy="9.091" rx="9.107" ry="9.091"/><path d="M9.107 0v18.181c-5.03 0-9.107-4.07-9.107-9.09C0 4.07 4.077 0 9.107 0z" fill="#EEE7CB"/></g><ellipse fill="#F8F0CF" cx="89.608" cy="66.341" rx="9.107" ry="9.091"/><path d="M90.55 57.25v18.181c-4.856 0-8.793-4.07-8.793-9.09s3.937-9.09 8.793-9.09z" fill="#000" opacity=".231"/><path d="M88.038 44.084v50.142c0 11.434-9.27 20.703-20.703 20.703H32.113c-11.433 0-20.702-9.27-20.702-20.703V44.084h76.627z" fill="#EEE7CB"/><path d="M49.096 114.302V43.457H87.41V93.6c0 11.434-9.27 20.703-20.703 20.703H49.096z" fill="#F8F0CF"/><ellipse fill="#FFF" opacity=".477" cx="26.799" cy="87.657" rx="9.735" ry="9.718"/><path d="M30.946 125.106c-10.89-.605-19.535-9.628-19.535-20.67V53.9h4.54v23.397C15.951 88.731 25.221 98 36.654 98h26.14c11.434 0 20.703-9.269 20.703-20.703V53.9h4.54v50.536c0 10.862-8.365 19.77-19.004 20.634a9.58 9.58 0 0 1-.81.413c-9.097 4.105-14.979 6.157-17.647 6.157-2.537 0-8.889-2.092-19.056-6.276a9.596 9.596 0 0 1-.574-.258z" fill="#000" opacity=".174"/><ellipse fill="#FFF" opacity=".477" cx="72.021" cy="87.657" rx="9.735" ry="9.718"/><path d="M30.946 120.306c-10.89-.605-19.535-9.628-19.535-20.67V49.1h4.54v23.397c0 11.434 9.27 20.703 20.703 20.703h26.14c11.434 0 20.703-9.269 20.703-20.703V49.1h4.54v50.536c0 10.862-8.365 19.77-19.004 20.634a9.58 9.58 0 0 1-.81.413c-9.097 4.105-14.979 6.157-17.647 6.157-2.537 0-8.889-2.092-19.056-6.276a9.596 9.596 0 0 1-.574-.258z" fill="#CA9342"/><path d="M49.096 93.246v33.577c-3.025-.46-8.937-2.518-17.736-6.175a9.593 9.593 0 0 1-.611-.28c-10.798-.702-19.338-9.683-19.338-20.658V49.1h4.5v23.443c0 11.434 9.268 20.703 20.702 20.703h12.483z" fill="#B5853C"/><path d="M11.41 54.713V39.29c0-2.775.668-5.526 2.006-8.252 1.339-2.727 2.995-5.147 4.97-7.26 1.976-2.115 4.33-4.172 7.063-6.172 2.735-2.002 5.258-3.662 7.574-4.986a100.212 100.212 0 0 1 7.242-3.75c2.515-1.177 4.302-1.977 5.36-2.396a73.262 73.262 0 0 1 2.542-.968c.48-.193.998-.29 1.558-.29s1.077.097 1.557.29c.638.226 1.486.548 2.544.968 1.057.419 2.843 1.22 5.358 2.396a100.02 100.02 0 0 1 7.243 3.75c2.314 1.324 4.839 2.984 7.573 4.986 2.734 2 5.088 4.057 7.064 6.171 1.975 2.114 3.632 4.534 4.968 7.26 1.338 2.727 2.006 5.478 2.006 8.253v15.453c-11.66-1.781-24.677-2.777-38.41-2.777-13.657 0-26.607.985-38.217 2.748z" fill="#050505" opacity=".07"/><path d="M11.41 50.325V34.9c0-2.776.668-5.526 2.006-8.253 1.339-2.727 2.995-5.147 4.97-7.26 1.976-2.114 4.33-4.172 7.063-6.172 2.735-2.001 5.258-3.661 7.574-4.985a100.212 100.212 0 0 1 7.242-3.75c2.515-1.178 4.302-1.978 5.36-2.396a73.262 73.262 0 0 1 2.542-.968c.48-.194.998-.291 1.558-.291s1.077.097 1.557.29c.638.226 1.486.548 2.544.969 1.057.418 2.843 1.219 5.358 2.396a100.02 100.02 0 0 1 7.243 3.75c2.314 1.323 4.839 2.984 7.573 4.985 2.734 2 5.088 4.058 7.064 6.172 1.975 2.113 3.632 4.533 4.968 7.26 1.338 2.727 2.006 5.477 2.006 8.253v15.453c-11.66-1.782-24.677-2.778-38.41-2.778-13.657 0-26.607.985-38.217 2.749z" fill="#72D97B"/><path d="M11.41 50.325V34.9c0-2.776.668-5.526 2.006-8.253 1.339-2.727 2.995-5.147 4.97-7.26 1.976-2.114 4.33-4.172 7.063-6.172 2.735-2.001 5.258-3.661 7.574-4.985a100.212 100.212 0 0 1 7.242-3.75c2.515-1.178 4.302-1.978 5.36-2.396a73.262 73.262 0 0 1 2.542-.968c.48-.194.998-.291 1.558-.291s1.077.097 1.557.29c.638.226 1.486.548 2.544.969 1.057.418 2.843 1.219 5.358 2.396a100.02 100.02 0 0 1 7.243 3.75c2.314 1.323 4.839 2.984 7.573 4.985 2.734 2 5.088 4.058 7.064 6.172 1.975 2.113 3.632 4.533 4.968 7.26 1.338 2.727 2.006 5.477 2.006 8.253v15.453c-11.66-1.782-24.677-2.778-38.41-2.778-13.657 0-26.607.985-38.217 2.749z" fill="#68BD72"/><path d="M49.724.826v46.778c-13.691 0-26.674.985-38.313 2.75V34.92c0-2.777.669-5.529 2.01-8.257 1.342-2.729 3.002-5.15 4.983-7.265 1.98-2.115 4.341-4.174 7.08-6.175 2.742-2.003 5.272-3.664 7.593-4.989a100.532 100.532 0 0 1 7.26-3.752c2.521-1.178 4.313-1.979 5.373-2.398 1.06-.42 1.91-.743 2.55-.968.452-.183.94-.28 1.464-.29z" fill="#689E87" opacity=".417"/><path d="M11.41 44.61c11.61-1.778 24.561-2.77 38.219-2.77 13.732 0 26.75 1.003 38.409 2.799V39.71v10.643c-11.66-1.796-24.677-2.799-38.41-2.799-13.657 0-26.607.993-38.217 2.77v-5.716z" fill="#FFF"/><path d="M65.99 102.968c.666-.657.673-1.73.015-2.396a1.697 1.697 0 0 0-2.398-.015c-8.15 8.042-19.564 7.152-26.576.946a1.697 1.697 0 0 0-2.394.145c-.621.7-.556 1.771.145 2.392 8.248 7.299 21.664 8.344 31.208-1.072z" fill="#434343" fill-rule="nonzero"/><path d="M39.108 63.533l2.39-4.487c-5.474-2.908-15.506-2.237-19.767 1.255l3.227 3.93c2.62-2.149 10.436-2.671 14.15-.698z" fill="#B5853C" fill-rule="nonzero"/><path d="M37.45 72.547a1.977 1.977 0 0 0 .68-3.894c-2.501-.437-8.273-.14-11.952.437a1.977 1.977 0 1 0 .614 3.905c3.284-.515 8.684-.792 10.658-.448z" fill="#434343" fill-rule="nonzero"/><path d="M60.425 72.547a1.977 1.977 0 0 1-.68-3.894c2.502-.437 8.274-.14 11.952.437a1.977 1.977 0 1 1-.613 3.905c-3.284-.515-8.685-.792-10.66-.448z" fill="#434343" fill-rule="nonzero"/><path d="M56.067 59.046l2.389 4.487c3.714-1.973 11.529-1.45 14.15.697l3.227-3.93c-4.261-3.491-14.293-4.162-19.766-1.254z" fill="#B5853C" fill-rule="nonzero"/><path d="M57.261 9.916c4.083.627 19.157 10.345 21.67 15.674" stroke="#FFF" stroke-width="2.949"/><ellipse fill="#FFF" cx="81.129" cy="29.665" rx="1.884" ry="1.881"/></g><path d="M189.559 47.625h-4.657l-.665-12.973V28.11h5.95v6.542l-.628 12.973zm.85 4.804c0 1.885-1.035 2.883-3.179 2.883-2.143 0-3.178-.96-3.178-2.883 0-1.885 1.035-2.883 3.178-2.883 2.107 0 3.179.998 3.179 2.883z" fill="#FFF"/><g transform="translate(.076 161.91)"><g opacity=".654" transform="translate(.025 85.708)"></g><g transform="translate(2.275)"><g transform="translate(.414 17.856)"><use fill="#68BC71" xlink:href="#b"/><path stroke="#FFF" stroke-width="4.096" d="M33.695-2.048C45.38-2.048 58.208.87 68.35 6.23l1.09.577v1.385c.001 6.934-.222 11.186-1.2 16.804-1.392 8.01-4.084 15.608-8.46 22.771-5.643 9.238-13.857 17.335-25.03 24.045l-1.054.633-1.054-.633c-11.172-6.71-19.386-14.807-25.029-24.045-4.375-7.163-7.067-14.76-8.46-22.77-.977-5.618-1.2-9.87-1.2-16.804V6.807l1.09-.577C9.184.87 22.013-2.048 33.696-2.048z"/><path d="M33.66 70.036C-.143 49.71 0 19.978 0 8.04 10.447 2.518 23.135.005 33.66 0v70.036z" fill="#67B279"/><path d="M32.466 46.744L52.842 18.89c-1.493-1.214-2.803-.357-3.524.306l-.026.002-16.99 17.925-6.4-7.812c-3.054-3.579-7.206-.85-8.176-.128l14.74 17.56" fill="#FFF"/></g><g opacity=".223" transform="translate(18.49 8.206)" fill="#353535"><rect transform="rotate(90 24.276 10.615)" x="13.9" y="5.768" width="20.75" height="9.695" rx="4.847"/><rect transform="rotate(90 14.58 10.615)" x="4.206" y="5.768" width="20.75" height="9.695" rx="4.847"/><rect transform="rotate(90 4.886 10.615)" x="-5.489" y="5.768" width="20.75" height="9.695" rx="4.847"/></g><g transform="rotate(90 23.655 23.958)"><rect fill="#E0D9BA" width="25.619" height="9.695" rx="4.847"/><rect fill="#F8F0CF" x="4.869" width="20.75" height="9.695" rx="4.847"/><g transform="translate(0 9.695)"><rect fill="#E0D9BA" width="25.619" height="9.695" rx="4.847"/><rect fill="#F8F0CF" x="4.869" width="20.75" height="9.695" rx="4.847"/></g><g transform="translate(0 19.39)"><rect fill="#E0D9BA" width="25.619" height="9.695" rx="4.847"/><rect fill="#F8F0CF" x="4.869" width="20.75" height="9.695" rx="4.847"/></g></g></g></g></g></g></svg>