<?xml version="1.0" encoding="UTF-8"?>
<svg width="30px" height="31px" viewBox="0 0 30 31" version="1.1" xmlns="http://www.w3.org/2000/svg" xmlns:xlink="http://www.w3.org/1999/xlink">
    <!-- Generator: Sketch 51.1 (57501) - http://www.bohemiancoding.com/sketch -->
    <title>ico-logo</title>
    <desc>Created with Sketch.</desc>
    <defs></defs>
    <g id="Page-1" stroke="none" stroke-width="1" fill="none" fill-rule="evenodd">
        <g id="ico-logo" fill="#FFFFFF" fill-rule="nonzero">
            <path d="M14.7,2 C18.7,2 23.4,2.9 27.4,5 C27.4,9.4 27.5,20.4 14.7,28 C1.9,20.4 2,9.4 2,5 C5.9,2.9 10.7,2 14.7,2 Z M14.7,0 C9.9,0 5,1.2 1.1,3.2 L0,3.8 L0,5 C0,9.5 0,21.5 13.6,29.6 L14.6,30.2 L15.6,29.6 C29.3,21.6 29.3,9.6 29.3,5 L29.3,3.8 L28.2,3.2 C24.3,1.2 19.4,0 14.7,0 Z" id="Shape"></path>
            <path d="M14.2,19.3 L21.8,9 C21.2,8.6 20.7,8.9 20.5,9.1 L14.1,15.7 L11.7,12.8 C10.6,11.5 9,12.5 8.6,12.8 L14.2,19.3" id="Shape"></path>
        </g>
    </g>
</svg>