<svg xmlns="http://www.w3.org/2000/svg" width="200" height="200" fill="none"><path fill="#9EA58E" d="M36.76 81.798c-.352.145-8.412 1.969-8.412 1.969s3.55 17.986 12.984 15.407c9.435-2.578-4.573-17.37-4.573-17.37z"/><path fill="#676D54" d="M37.224 81.592c-.351.144-8.411 1.968-8.411 1.968s3.55 17.986 12.984 15.408-4.573-17.371-4.573-17.371z"/><path fill="#9EA58E" d="m46.22 70.994-9.352.61s-1.777 3.844-2.325 8.567l8.07 15.268-.449-.01c10.075 3.756 4.056-24.435 4.056-24.435"/><path fill="#676D54" d="m46.789 71.01-9.352.61s-7.72 16.71 4.06 23.25c11.786 6.537 5.291-23.855 5.291-23.855z"/><path fill="#CEB79B" d="M111.089 46.431c-.398-.579-3.477-1.514-5.658-5.528-.263-.486-.041.687-.594.733q-.219.014-.444.036c-.021 8.95 5.508 3.974 6.696 4.764z" opacity=".4"/><path fill="#CE8000" d="m136.397 70.224-62.995-.971s7.492-18.781 9.425-23.4c.335-2.238.65-4.398 1.023-6.382.894-5.513.268-11.326 1.173-16.782C86.624 8.635 95.749 5.148 108.067 6.538c9.166 1.183 14.736 10.891 15.041 19.618.325 2.444.351 9.786.372 9.853 3.379 11.145 8.401 25.184 12.917 34.215"/><path fill="#C07500" d="M132.76 69.971c-3.813-5.317-5.426-11.072-5.374-11.052.796.269 1.638.646 2.103 1.344-4.578-6.94-7.668-24.677-8.928-25.855-2.046 2.97-26.351 4.056-26.351 4.056l-8.753-1.767c.816 9.584.444 21.282-7.538 29.704-.812.764-.021 3.586-.331 4.748l55.177-1.178z"/><path fill="#A05A07" d="M87.321 49.557c.078 4.516-.594 25.26-7.92 31.694 7.858.718 48.888 4.552 56.773 4.2.16-1.793-3.937-15.5-6.2-17.149-6.464-4.712-4.94-9.997-4.873-10.922.238-3.193-2.046-4.506-3.358-11.424-.599-3.173-.837-6.531-.005-9.673-1.349-1.57-34.422 13.274-34.422 13.274z" opacity=".6"/><path fill="#2B6B40" d="M165.796 104.486H38.753c-3.4 24.801-6.856 49.612-10.411 74.392 42.9 18.1 97.251 19.304 141.107 3.814-1.519-24.207 1.591-53.286-3.653-78.211z"/><path fill="#245B34" d="M40.665 90.55c-3.922 28.729-8.933 61.368-13.165 90.948 36.804 13.232 86.369 15.692 125.498 6.112-2.857-24.692-3.183-48.625 3.415-66.797.853-2.346.987-17.433-1.483-30.267H40.67z"/><path fill="#3B754B" d="M172.844 180.661c-.104.041-.202.077-.305.119-1.018.398-2.051.79-3.09 1.173l2.088-18.859.744 9.992v.016l.563 7.564z"/><path fill="#3E8E5B" d="M172.844 181.555c-4.345 1.7-9.067 3.048-13.609 4.392-.925-32.252-1.421-66.684-6.919-98.212 3.731-.538 9.797 5.497 13.538 4.955 2.965 21.163 4.035 35.522 5.301 56.83.62 10.411 1.369 21.608 1.689 32.035"/><path fill="#3B754B" d="M172.844 181.555c-1.323.516-4.263 1.441-4.263 1.441s-4.914-15.423-9.812-17.5c-1.059-22.45-2.485-55.766-6.458-77.761 3.73-.538 9.796 5.497 13.537 4.955 2.966 21.163 4.035 35.522 5.301 56.83.62 10.411 1.374 21.608 1.69 32.035z" opacity=".65"/><path fill="#3B754B" d="M171.18 149.572c-3.291-5.301-12.783-14.607-13.78-14.741-1.137-18.482-2.764-35.063-5.089-47.091l13.537 4.955c2.914 21.008 4.206 37.527 5.332 56.877" opacity=".65"/><path fill="#3B754B" d="M53.577 188.618c-9.248-1.659-26.077-7.12-26.077-7.12 4.397-30.748 9.233-62.152 13.248-91.541 9.207 1.89 17.309 3.57 17.655 3.72.656.274-1.137 46.708-4.82 94.941z"/><path fill="#3E8E5B" d="M32.062 183.017c-1.255-.506-3.332-.987-4.562-1.519 7.87-57.993 24.8-151.782 4.562 1.519M45.542 186.81c-.723-.228-8.484-2.248-9.202-2.481 0 0 5.627-45.458 8.835-45.463 2.863 0 .987 42.885.362 47.944z"/><path fill="#151916" d="M142.648 166.075s19.671-.522 25.086-18.146c2.459-8.004 3.239-18.301-5.157-33.089s-19.929 51.235-19.929 51.235" opacity=".25"/><path fill="#C5C7B2" d="M73.123 169.035c.047.006.083.052.057.099a309 309 0 0 1-1.793 3.988c-1.896 4.129-3.911 8.19-6.278 12.101-.47.863-.93 1.731-1.4 2.589-.077.336-.145.666-.217 1.002 11.75 2.398 25.442 4.253 38.431 4.588 13.708.357 25.747-.955 38.173-2.955q4.184-.673 8.236-1.509c-1.276-3.803-7.895-13.227-10.52-18.234l-64.694-1.679z"/><path fill="#CCD1C0" d="M110.226 193.47c-15.444.992-36.184-.786-47.933-3.188.062-.336 5.622-9.936 7.61-13.724 8.748 3.648 8.846 10.484 20.033 11.161 8.897-.553 15.082 1.157 20.295 5.756z"/><path fill="#BBB99D" d="M72.56 170.322c-.445.92-.832 1.865-1.204 2.811h.025c6.505-.429 5.875 5.895 12.866 5.72a28 28 0 0 0 3.276-.052c29.306-3.932 35.207-3.054 52.567 11.656q4.184-.672 8.236-1.508c-1.178-3.493-6.846-11.719-9.796-16.917l-65.976-1.71z"/><path fill="#C6C7B3" d="M67.723 126.161c4.294 3.937 3.23 9.094 3.358 14.39.166 1.209 1.478 2.955 1.52 4.066.857 7.358 6.458 14.664 4.174 22.068h61.476a2 2 0 0 1-.073-.352l.011.016c-2.026-4.981-.068-9.673.759-14.69.388-3.983 4.227-7.083 4.309-11.145-.568-1.209 3.984-29.384 5.519-45.044-2.605-1.215-27.783-24.093-27.783-24.093-20.646 5.554-29.833-2.775-30.634-4.95-.811-2.222-.031 2.47-7.972 5.192v27.995H65.32c2.594 9.052-1.565 19.282 2.403 26.552z"/><path fill="#C2C2AC" d="M137.584 90.5c-2.671-1.194-5.352-2.341-8.142-3.163-1.142 1.938-24.171 7.027-25.969 8.267 16.916 36.773.036 54.505-32.262 45.499.382 1.148 1.349 2.563 1.385 3.519.31 5.456 3.973 10.163 4.469 15.64 19.877 2.46 40.167 3.26 60.132 1.462-.072-3.327 1.426-6.846 1.746-10.065.388-3.978 4.232-7.083 4.31-11.139.025-1.246 3.668-30.774 5.435-45.133-3.72-1.576-7.409-3.234-11.098-4.883z"/><path fill="#BBB99D" d="M133.197 81.333c-2.066 0 1.556 9.373-.532 9.378 15.738 37.827-10.204 53.901-25.085 62.777 9.745 2.842 20.011 3.659 30.113 4.149.444-2.035 1.059-4.066 1.25-5.993.387-3.984 4.232-7.084 4.309-11.14.026-1.338 5.901-36.08 5.906-49.876z" opacity=".68"/><path fill="#BBB99D" d="M67.713 126.161c.47.692 1.039 1.317 1.55 1.974 1.68-3.333 8.738-4.418 6.34-4.186-1.353.13-9.46-14.146 3.591-14.88 1.111-.062 1.586-1.7 2.408-2.682 2.924 2.661 8.07 3.979 7.936 8.732-4.407 7.647-13.361 11.827-18.44 19.097.155 2.211 7.636 27.012 5.45 32.629h61.745c-.321-.941 2.237-19.521 3.203-21.241-2.056-5.436-22.651-17.955-28.164-21.427-6.609-3.359-27.095-25.778-28.935-21.391 1.959-4.67 5.55-8.773 8.097-13.269-4.558.832-10.179-1.818-13.496-4.769-6.32 2.511-10.53 7.162-14.705 12.142 4.521 9.301-.992 20.399 3.415 29.266zm27.096-10.613c-.181-.072-.042-.181.077-.072.057-.098.202-.031.093.046.103.052 17.888 11.29 24.031 13.868.253-.553.475-.522.093.036.264.067.171.233-.041.093-1.132 2.455 2.79 5.539 6.753 4.526 4.96 2.32 5.229 8.583 5.048 8.18 20.729 10.669-24.615 6.908-29.71 7.011-4.268-.455-8.613-.077-12.829-.858-6.779-1.436-7.26 1.917-12.127-6.484-3.637-6.288 5.4-14.4 18.606-26.356v.01z"/><path fill="#CCD1C0" d="M102.568 126.342c-5.146-6.691-9.812-9.91-13.976-.011-3.452 4.609-9.517 10.474-1.54 14.432 2.325 1.038 4.733-.021 7.053-.481 2.439-.491 5.063.635 7.378-.512 4.785-2.717 4.929-9.811 1.09-13.428zM122.984 102.388c-4.015-1.56-8.489-.274-12.664-1.106-3.116-.888-7.807.512-10.05-2.072-3.983-2.965-4.913.791-1.095 2.47 3.777 1.344 6.185 4.697 9.636 6.562 4.175 1.509 7.363 5.1 11.61 6.185 5.735.237 7.616-9.745 2.568-12.039z"/><path fill="#BBB99D" d="M102.642 84.914c-6.046 4.846-15.232 6.262-21.484 1.565a16 16 0 0 1-1.752-1.359c3.436 12.835 38.282 20.363 54.252 6.852 0-.925.176-4.821.285-7.063h-31.296z"/><path fill="#C2C2AC" d="M83.892 71.702c1.596 3.291 2.113 11.331 1.343 11.905 10.706 6.939 26.682-2.785 26.599-15.217-6.986 8.582-17.593 9.89-23.179-.842-.346 1.07-9.3 1.38-8.845 2.542z" opacity=".4"/><path fill="#BBB99D" d="M81.654 68.86c-1.08.558.75 2.75-.889 3.199-.31.082-.434.325-.408.553a.5.5 0 0 0 0 .237c.786 3.498-.33 7.224 1.204 10.597q.053.118.114.228c-.93.33-1.84.687-2.718 1.07.45.439.93.842 1.431 1.208 1.488 1.101 3.131 1.938 4.831 2.672 1.4.604 2.904.873 4.423.806q.397-.015.785-.062c.104-6.309-3.988-17.934-5.699-20.513H81.66z"/><path fill="#D58500" d="M94.183 111.285s.01.011.015.011c-2.48 4.273-25.519 25.317-21.37 27.539-1.488.072-1.901-1.689-2.289-2.816-.527-1.343-1.54-2.428-2.33-3.632-2.77-4.294.475-9.156 3.808-12.054a186 186 0 0 0 14.245-15.852 144 144 0 0 0 7.92 6.81z"/><path fill="#A05A07" d="m86.273 104.507-.392.413c4.686 4.335-14.266 26.191-17.397 19.531-2.418 3.911-1.173 7.481 1.7 10.638.625 1.307.739 3.653 2.588 3.72-2.459-2.619 6.345-10.22 8.076-12.524a403 403 0 0 0 13.32-14.989 168 168 0 0 1-7.895-6.789" opacity=".3"/><path fill="#A05A07" d="M92.648 110.04c-5.255 1.561-9.177 8.365-12.943 12.246-2.806 2.893-7.26 5.554-4.47 10.246-.857 1.064-3.808 6.153-2.397 6.334-2.098-.274-6.438-10.427-4.707-13.754.75 9.228 11.719-5.064 14.855-8.463 2.66-3.142 7.218-7.249 4.428-11.13.821.744 4.324 3.782 5.239 4.516z" opacity=".3"/><path fill="#A05A07" d="M83.953 107.229s3.173 4.33 7.725 7.203l2.092-2.568-8.525-6.061z" opacity=".3"/><path fill="#D58500" d="M143.925 141.971c-3.974-15.216-47.21-39.883-53.601-44.414-.817-.579-8.655-6.143-9.699-5.12-.253-.016-5.14 8.081-4.484 8.262 2.015.552 10.385 6.226 11.966 7.517 13.444 11.011 43.655 25.711 49.855 36.008l5.963-2.247zm-47.52-35.134c-.346 1.312-3.048 1.736-2.687-.455.264-1.948 3.23-1.436 2.687.455m9.507 9.062c-1.912-2.588 2.124-3.668 2.465-1.023 0 1.137-1.669 2.021-2.46 1.023zm11.362 8.19c-1.224-1.943 1.659-3.415 2.806-1.571.759 1.767-1.767 2.873-2.801 1.571z"/><path fill="#C77500" d="M88.154 96.116c-2.78-1.545-6.63-4.547-7.529-3.684-.253-.016-5.14 8.081-4.484 8.262 1.188.325 4.572 2.423 7.481 4.355.062-.181 2.661-6.391 4.532-8.939zM140.148 134.784c-2.506-2.914-6.63-7.078-11.207-10.705-4.614-4.594-19.578-14.282-19.578-14.282 1.023 4.408 4.34 14.266 3.886 15.113 5.549 3.943 22.982 16.255 24.858 19.542 1.141 1.999 2.02-9.59 2.046-9.673z"/><path fill="#3E8E5B" d="M137.358 162.117c-1.323 3.534 3.121 5.751 3.095 9.869.248 2.661-2.847.966-4.108 1.824-.987.248-1.901.062-2.898-.016-2.17-.155-4.036.734-6.087 1.116-8.484 1.576-2.573-.573-14.224.884-2.098.268-4.175.956-6.314.956-2.103 0-4.108-.667-6.221-.708-6.438.754-14.803.119-20.13-.507-4.687-.005-4.692-4.169-9.44-1.958-1.974-1.514.935-1.922 1.22-3.291-.202-2.082 1.653-3.653 1.544-5.647-.49-2.62-3.002-4.702-2.568-7.575.026-1.411-1.007-2.769-1.348-4.035-.708-2.527.842-3.225 1.452-2.791 3.115 2.326 5.683-1.767 9.176.998 1.018.578 2.165 1.178 3.343 1.514 7.854.723 16.028-.393 23.866.899 4.226 1.524 8.592-.662 12.963.005 2.362.269 4.645-.243 6.97-.507 2.026-.103 3.927.853 5.947.372 3.69-.697 8.283-2.681 7.058.207-3.771 5.332-1.684 3.002-3.291 8.391z"/><path fill="#3B754B" d="M138.768 167.196c-1.121-1.488-1.018-8.639-.232-10.333 4.789-6.154-19.118-2.873-20.833-1.592-7.177 5.379-44.952 5.777-44.952 5.777a10 10 0 0 1-.64-.181c2.076 3.239 2.195 4.288.376 7.647-.19 1.457-.098 2.407-1.565 3.26 5.999-.801 12.121.646 18.069 1.38 4.64.594 8.721 2.94 13.32 3.012 2.18-3.426 6.768-3.384 9.026-.083 10.525-1.886 8.567.305 16.054-1.188 2.051-.383 3.916-1.271 6.086-1.116 1.457.263 2.785.088 4.196-.3.888-.062 3.089.656 2.81-1.509-.222-1.71-.671-3.275-1.694-4.789l-.011.015z"/><path fill="#D58500" d="M138.955 168.085c-9.916 3.085-60.024 2.842-66.446-2.961-.62-.558-.656-1.653-.393-2.309-.734-.574-1.312-1.809-.103-2.232 2.433-.62 3.54 1.136 6.117 1.503 9.76 2.785 40.421 2.992 59.92 2.093.357.289.403.816.31 1.245-.015.062-.253.32-.124.377 1.747.863.91 1.121.579 1.4l.005.006c.45.124.682.676.14.878z"/><path fill="#A05A07" d="M138.81 167.201c.325-.279 1.168-.537-.584-1.4-.124-.062.109-.32.124-.377.093-.424.047-.956-.31-1.245-14.007.258-32.133 1.049-47.179-.362 0 0-6.417-.031-13.589-1.886-7.884-2.041-5.053 2.847-5.053 2.847 2.269 3.395 37.863 6.009 56.779 4.821 1.824-2.413 6.412-3.514 8.66-1.116.718-.135 2.397-.625 1.142-1.276v-.006z" opacity=".3"/><path fill="#A05A07" d="M139.12 167.987c.31-.243.088-.682-.304-.791.325-.279 1.167-.537-.584-1.4-.124-.062.108-.32.124-.377.093-.424.051-.956-.31-1.245-9.941-.207-22.946 1.302-34.298.413-6.515 1.772-13.238 3.188-20.037 3.198 12.039 1.617 30.857 2.511 43.526 1.902 2.309-2.548 8.913-4.304 11.878-1.7z" opacity=".3"/><path fill="#A05A07" d="M121.94 164.732c-2.769 2.118-12.395 5.13-12.411 5.342 4.103.088 10.902-.16 14.524-.263 4.697-1.674 9.864-2.832 14.008-5.632-.119-.062-.543-1.199-.708-1.178 0 0-9.998 1.596-15.413 1.731"/><path fill="#D58500" d="M73.624 165.3c-1.56-.289-1.813 1.591-2.04 2.687-.207.666.304 1.379 1.007 1.772 15.036 4.635 66.306-.331 65.893-8.861.01-.507.832-.832.765-1.333-.047-.352-.543-.563-.967-.527-9.346 4.888-42.244 11.155-64.658 6.283v-.021"/><path fill="#D58500" d="M138.489 160.882c.005-.501.832-.832.759-1.333-.046-.351-.537-.558-.966-.527s-.796.243-1.152.445c-3.281 1.798-10.649 3.854-19.681 5.373a32 32 0 0 1-1.369 1.762 15.1 15.1 0 0 1-2.945 2.645 39 39 0 0 1-1.53 1.013c10.35-1.379 19.407-3.704 25.029-6.319 1.152-.537 2.438-1.441 2.046-2.48-.073-.191-.202-.372-.197-.568v-.011z"/><path fill="#A05A07" d="M138.489 160.882c.01-.501.832-.832.759-1.333-.046-.351-.542-.558-.966-.527-2.175.77-3.632 1.788-6.743 2.625-.454 2.914-2.712 1.881-2.821 3.074-.139 1.173-1.297.827-1.385-.165-.082-.563-.124-1.426-.826-1.566-5.208 1.318-10.566 2.16-15.904 2.852-9.001 5.074-30.727 7.281-36.85-.516-.506-.145-1.064.031-1.426.403-.558.987-1.281 2.868-.165 3.715 3.451 2.278 33.269 3.927 55.797-2.341-.507-.961.749-.95.899.14 2.211-.935 11.444-3.333 9.615-6.361z" opacity=".3"/><path fill="#A05A07" d="M127.066 166.426c-1.002-.935-.201-1.136-.542-1.937-.403-.408-.326-.982-.067-1.457-.409.098-.817.191-1.23.289-1.111 1.411.036 3.622 1.638 4.113a56 56 0 0 0 2.004-.574c-.656.021-1.338-.015-1.792-.429h-.006zM138.489 160.882c.01-.501.832-.832.764-1.333-.046-.351-.537-.558-.966-.527-1.937.641-3.141 1.576-5.74 2.31.899.878.098 2.015.253 3.048.067.372.15 1.075.067 1.452 1.891-.982 6.913-2.149 5.627-4.95zM71.76 168.912c.015-.703.615-.925 1.183-1.241 1.256-.625.92-2.345 0-2.33s-1.669 2.894-1.183 3.638v-.067" opacity=".3"/><path fill="#A05A07" d="M126.977 164.448c-.279-.29-.806-.326-1.183-.176-.3.119-.47.362-.486.625-.087.3.062.646.321.863.367.315 1.018.429 1.421.098.475-.372.299-1.033-.068-1.416z" opacity=".3"/><path fill="#A05A07" d="M126.837 164.587c-.222-.227-.64-.258-.94-.14-.238.093-.377.29-.387.502-.073.242.046.511.253.687.289.253.811.341 1.136.082.378-.304.243-.826-.056-1.131z"/><path fill="#CCD1C0" d="M127.955 167.01q.017.047.041.093c-2.056.693-4.412-2.831-1.664-4.149.011.026.031.057.047.088q.533-.13 1.044-.253c-.202-.512-.497-.961-.894-.847-5.11 1.519-1.277 7.703 2.283 5.786.398-.217.347-.49.161-1.002-.336.098-.672.196-1.013.284z"/><path fill="#C2C2AC" d="M126.522 161.942a4.6 4.6 0 0 0-1.348.635c.325.103.604.331.749.61a2.5 2.5 0 0 1 .408-.238c.011.026.031.057.047.088.351-.088.702-.171 1.043-.253-.201-.517-.496-.961-.893-.848zM125.231 167.201c.181-.284.449-.527.733-.635-.568-.512-.94-1.276-.883-2.005a1.3 1.3 0 0 1-1.002-.274c-.166 1.039.33 2.155 1.152 2.909zM128.962 166.726q-.496.146-1.002.284c.01.031.021.062.041.093a1.7 1.7 0 0 1-.883.052c.082.326.087.589-.026.915.733.056 2.516-.124 1.875-1.349z"/><path fill="#BBB99D" d="M126.455 163.021c.326-.077.646-.16.967-.232-.202-.512-.502-.961-.894-.847a5 5 0 0 0-.522.185c.269.228.429.564.449.894"/><path fill="#C2C2AC" d="M126.523 161.947c-3.994 1.343-.899 7.972 2.501 4.97l-.067-.191q-.496.146-1.008.284.017.047.041.093c-2.056.693-4.412-2.826-1.663-4.149.01.031.031.057.046.088.357-.083.703-.17 1.044-.253-.202-.512-.496-.961-.894-.847z" opacity=".3"/><path fill="#BBB99D" d="M125.573 166.116a2.6 2.6 0 0 1-.362-.687c-.335.062-.661.145-.986.233.103.299.248.584.423.852.197-.227.569-.367.925-.398M128.963 166.726q-.496.146-1.008.284c.16.3.295.625.284.956.62-.181 1.116-.449.724-1.24"/><path fill="#CCD1C0" d="M127.123 165.259c0-.295-.166-.641-.445-.786-.863.254-2.438.486-3.172.853-.444.222-.16.677.253.749.145.021 1.994-.377 3.359-.811z"/><path fill="#C2C2AC" d="M126.844 164.587a.5.5 0 0 0-.155-.108c-.269.077-.595.155-.951.227-.388.868-1.524 1.23-2.408 1.07.553.713 1.989-.114 3.798-.512 0-.243-.109-.491-.284-.677"/><path fill="#BBB99D" d="M126.844 164.587a.5.5 0 0 0-.155-.108 6 6 0 0 1-.398.103c.057.424-.32.837-.641 1.09.486-.129 1.008-.263 1.468-.413a1 1 0 0 0-.284-.677l.005.005z"/><path fill="#A05A07" d="M131.245 162.903c-.501-.145-1.085.315-1.111.759-.026.408.321.822.78.966a.94.94 0 0 0 .812-.124c.671-.382.304-1.379-.471-1.606h-.005z" opacity=".3"/><path fill="#A05A07" d="M131.21 163.13c-.889-.155-1.111 1.039-.243 1.266.919.253 1.183-.992.243-1.266"/><path fill="#A05A07" d="M136.387 161.508c-.904-1.38-2.769.547-1.286 1.302.842.459 1.818-.465 1.286-1.308z" opacity=".3"/><path fill="#A05A07" d="M136.155 161.637c-.661-1.003-2.005.393-.935.94.61.341 1.312-.336.93-.94z"/><path fill="#A05A07" d="M120.974 165.657c-.325-.202-.754-.197-1.106-.073a.747.747 0 0 0-.48.915c.248.894 1.607 1.033 1.999.155.171-.377-.036-.77-.408-1.003z" opacity=".3"/><path fill="#A05A07" d="M120.834 165.817c-.476-.315-1.416 0-1.22.641.321 1.219 2.403.196 1.215-.646z"/><path fill="#A05A07" d="M114.294 166.654c-1.927-.491-1.684 2.237.083 1.937 1.188-.206 1.018-1.86-.078-1.932z" opacity=".3"/><path fill="#A05A07" d="M114.231 166.907c-1.415-.362-1.245 1.643.052 1.431.873-.155.744-1.359-.057-1.421v-.005z"/><path fill="#A05A07" d="M72.896 162.086c.827 1.194-.857 2.098-.857 2.098-.238-.708.15-.889.077-1.364-.734-.573-1.312-1.808-.103-2.232 1.183-.424 2.485.108 3.492.646.548.289 1.437.578 2.615.857-.253-.051-6.035-1.167-5.224 0z" opacity=".3"/><path fill="#3B754B" d="M71.326 158.909c.093-2.15-.605-3.989-1.447-5.88 4.31 2.222 5.394 2.408 1.447 5.88M120.673 153.649c-4.568 9.341-25.436 1.374-31.849.274-5.234-1.726-15.914 3.162-17.5-3.684 3.121 2.325 5.684-1.768 9.177.997 1.017.578 2.164 1.178 3.343 1.514 2.805.661 5.72-.135 8.571.175 5.064.362 10.298-.253 15.289.724 4.227 1.524 8.593-.662 12.964.005z"/><path fill="#151916" d="M140.003 164.69c.238 1.695-.253 2.997-2.227 3.844-4.206 1.809 1.845 2.976-10.447 5.307-7.983 1.808-14.349-1.52-17.702.294 0 0-2.294.904-6.991-.072-4.696-.977-31.724-2.284-31.724-2.284-19.448 4.97-30.728-7.466-33.084-15.811-2.557-9.062.016-17.629.45-19.835 16.87-3.281 56.696 15.537 74.02 12.152 0 0 14.189-3.017 24.564-.268 2.754.728 5.719 3.859 3.462 8.029-.197.424-.264.47.289 1.038.728.75 1.111 4.454-.863 5.658-.496.233.16 1.442.248 1.943z" opacity=".25"/><path fill="#B4B296" d="M91.786 62.392s-3.095-.274-3.369 3.141 3.369 4.371 3.55 4.412c.18.042-.181-7.553-.181-7.553"/><path fill="#BBB99D" d="M90.055 62.727s-1.338-.279-1.607 3.11c-.274 3.395 1.674 4.646 1.654 4.46-.806-5.637-.042-7.575-.042-7.575zM84.646 69.444c-1.1.568-2.449 1.11-4.118 1.566-.32.087-.439.33-.418.563a.5.5 0 0 0 0 .243c.8 3.555-.336 7.347 1.224 10.783.036.077.078.155.114.232-.946.336-1.87.698-2.764 1.09.454.445.945.858 1.451 1.23 1.514 1.121 3.188 1.969 4.914 2.718 1.421.615 2.956.889 4.5.822.27-.01.533-.031.801-.062.104-6.418-3.963-16.56-5.704-19.185"/><path fill="#CCD1C0" d="M88.81 66.019a6 6 0 0 0-.11.537c-.263 1.633.006 3.333.714 4.826.883 1.87 2.397 3.43 4.268 4.33.956.46 1.979.76 3.038.79 1.07.031 2.134-.144 3.157-.46 2.211-.682 4.262-1.948 5.895-3.585.093-.093.181-.186.274-.285-9.45-2.635-14.162-5.337-15.888-6.923-.894-.822-.424-.501-1.349.764z"/><path fill="#CCD1C0" d="M90.87 66.339c-.444-.501-.624-.661-.883-1.504-.423-1.374-.847-1.756.068-2.113-.956-.165-1.483 1.344-1.695 3.984-.274 3.394 1.12 3.689 1.302 3.736.062.015.062-.791.036-1.881-.382-.145 1.452-1.912 1.173-2.227z"/><path fill="#9EA58E" d="m49.118 96.534-12.66 4.583-2.48 4.077s8.247 16.405 14.53 11.083c6.277-5.322.61-19.738.61-19.738z"/><path fill="#676D54" d="m49.526 96.131-12.66 4.583-2.48 4.077s8.252 16.405 14.53 11.078c6.278-5.322.61-19.738.61-19.738"/><path fill="#9EA58E" d="M32.925 90.975c-.197.232-5.255 4.526-5.255 4.526s9.207 11.481 14.958 6.138c5.756-5.337-9.703-10.664-9.703-10.664"/><path fill="#676D54" d="m37.016 91.057-8.825 4.413s8.06 9.502 12.411 6.463c4.35-3.038-3.586-10.876-3.586-10.876"/><path fill="#A05A07" d="M138.075 159.208a.87.87 0 0 0-.826-.496c-1.184.031-1.287 1.555-.44 1.953a.8.8 0 0 0 .243.093c.843.197 1.488-.754 1.018-1.555z" opacity=".3"/><path fill="#A05A07" d="M137.848 159.358a.62.62 0 0 0-.599-.357c-.858.021-.93 1.127-.315 1.416a.6.6 0 0 0 .175.067c.61.145 1.075-.547.739-1.126"/><path fill="#CCD1C0" d="M65.027 157.09s-10.013-3.193-13.506-3.09-9.735-1.282-10.928-7.146c-1.194-5.869-6.619-14.488-3.136-32.174 2.759-14.002-4.62-16.694 1.286-27.09 3.508-6.174 30.443-1.26 30.443-1.26s4.19 18.073-.832 37.873c0 0 17.909 4.65-3.332 32.887z"/><path fill="#C2C2AC" d="M65.027 157.09s-10.013-3.193-13.506-3.09-9.735-1.282-10.928-7.146c-.625-3.069-2.408-6.893-3.467-12.375 8.644-.175 26.217-14.89 17.846-19.799s-17.515 0-17.515 0c.232-1.168.387-2.258.49-3.281 1.127-11.222-4.614-14.281.796-23.809 3.508-6.174 30.443-1.26 30.443-1.26s3.38 14.575.43 31.884a77 77 0 0 1-1.261 5.983s17.913 4.651-3.333 32.887z" opacity=".4"/><path fill="#BBB99D" d="M70.102 115.037s-3.643-3.214-9.384-5.302c-6.153-2.237-14.632-3.25-20.719.378-.723.428-1.4.857-2.046 1.276 1.127-11.223-4.614-14.281.796-23.81 3.508-6.174 30.443-1.26 30.443-1.26s3.855 11.398.91 28.712zM68.707 122.771s-12.442-1.813-12.608 4.098c-.165 5.911 12.261-2.671 12.261-2.671zM48.074 153.659s4.268-18.467 16.627-22.993L51.521 154s-2.28-.026-3.447-.336z"/><path fill="#9EA58E" d="M55.499 100.073c-.217.749-.517 1.488-.806 2.186-.28.677-.6 1.343-.935 1.989l-1.065-.336-.346 1.106-1.095-.346-.14.465-1.447 4.624v.01l-.155.047c-4.867-2.521-13.356-6.453-15.34-4.278.015-.145.026-.295.052-.46.248-2.237 1.043-6.996 2.252-10.933.031-.114.068-.212.099-.326.966-3.074 2.211-5.575 3.642-5.864l15.289 12.111z"/><path fill="#9EA58E" d="M55.52 100.006c-1.163 3.643-3.07 7.12-5.86 9.76a102 102 0 0 0-4.211-2.072v-.01c-4.583-2.02-9.574-4.092-11.47-2.387.5-2.795 1.7-15.506 6.034-17.567 5.126 4.133 10.36 8.163 15.506 12.276"/><path fill="#B1B7A5" d="M40.954 97.268c-2.956-1.757-5.23.904-4.428 2.594.47.986 1.73 1.374 2.743 1.338 3.586-.119 3.42-2.899 1.685-3.932"/><path fill="#949984" d="M55.518 100.017c-1.173 3.637-3.069 7.109-5.859 9.749a102 102 0 0 0-4.211-2.071c1.38-6.123-3.038-12.106-9.233-13.605.713-1.607 1.441-5.704 3.601-6.247 5.462 3.576 10.422 8.231 15.702 12.174" opacity=".4"/><path fill="#949984" d="M55.52 100.016c-.76 2.393-1.84 4.661-3.261 6.717 0 0 0-.01-.01-.01-3.68-5.218-9.316-11.176-15.925-12.958.868-1.964 2.191-8.505 5.322-4.744 4.573 3.664 9.331 7.332 13.878 10.995z"/><path fill="#9EA58E" d="m56.26 101.019 6.04.542-11.336-23.442c-.527-.227-16.348 3.99-22.884 17.583 10.334-1.509 23.411 6.567 27.596 11.786l.579-6.464z"/><path fill="#9EA58E" d="M55.743 107.591c2.16-1.524 5.012-3.322 6.84-5.219L50.71 77.809c-.527-.227-16.348 3.989-22.884 17.583 10.613-1.545 24.114 7.006 27.917 12.204z"/><path fill="#B1B7A5" d="M39.572 89.993c-2.734-.832-7.59 1.199-9.6 4.531-.145.243-.3.47-.46.708 3.456-.165 7.13.615 10.633 1.912 1.121-2.625 2.155-6.314-.573-7.146z"/><path fill="#949984" d="M50.706 77.81c-.383-.166-8.789 1.999-15.878 8.375 5.384 1.131 11.109 5.022 15.232 16.203 2.537 1.793 4.542 3.648 5.684 5.203 2.16-1.524 5.011-3.327 6.84-5.218L50.712 77.809z" opacity=".4"/><path fill="#949984" d="M60.036 104.568a21 21 0 0 0 2.537-2.195L50.699 77.809c-.33-.14-6.556 1.431-12.793 5.9 9.053 4.057 17.103 12.789 21.422 21.355.238-.16.475-.33.713-.501z"/><path fill="#34381B" d="M77.004 67.78c-.109-.253-.078-.522-.047-.79-.087.114-.18.227-.284.33l-1.705 1.912a.526.526 0 0 0 .32.672c.802.279 1.639-.6 2.248-1.53-.222-.154-.418-.335-.532-.594" opacity=".5"/><path fill="#CCD1C0" d="M137.255 144.948s6.856 5.337 7.91 7.858 5.777 5.389 10.261 3.157c4.485-2.232 14.566-13.041 13.533-25.173s-5.617-11.625-5.328-19.949c.285-8.324.057-23.881-6.691-28.304s-23.819-8.469-23.819-8.469l4.134 70.874z"/><path fill="#C2C2AC" d="M155.426 155.969c-4.484 2.226-9.202-.636-10.261-3.157-1.054-2.522-7.91-7.859-7.91-7.859l-4.134-70.874s17.077 4.046 23.819 8.468c4.764 3.121 6.278 11.791 6.655 19.547 0 0-12.984 1.736-7.647 9.212 2.041 2.857 5.1 3.829 8.097 3.942 1.121 4.304 4.108 6.061 4.914 15.553 1.028 12.132-9.048 22.941-13.533 25.173z" opacity=".4"/><path fill="#BBB99D" d="M150.266 118.462s8.484-3.787 11.031.321-9.543 1.157-9.543 1.157l-1.483-1.478zM163.166 96.932s-17.764 2.8-22.248 13.914c-1.297 3.219-3.318 3.338-5.539 1.886l-1.24-21.303L156 81.96c.335.19.651.387.95.583 3.72 2.44 5.457 8.262 6.221 14.39z"/><path fill="#BBB99D" d="M148.896 157.793s16.446-21.743 5.937-37.233l-6.976 35.305z"/><path fill="#3E8E5B" d="M70.49 79.282c-8.47-3.188-11.228-7.44-11.228-7.44s2.196-2.041 6.107-4.14c4.056-2.174 9.957-4.422 17.17-4.536a37 37 0 0 1 5.3.3c17.186 2.222-8.891 18.999-17.355 15.81z"/><path fill="#3B754B" d="M70.49 79.282c-8.47-3.188-11.228-7.44-11.228-7.44s2.196-2.041 6.107-4.14c4.056-2.174 9.957-4.422 17.17-4.536a37 37 0 0 1 5.3.3c17.186 2.222-8.891 18.999-17.355 15.81z" opacity=".4"/><path fill="#459562" d="M82.545 63.172c-2.222.516-5.39 2.01-9.693 4.608-4.423 2.666-6.805.667-7.477-.077 4.056-2.175 9.957-4.423 17.17-4.537z"/><path fill="#C77500" d="M123.311 30.94c.118-.18.206-.278.206-.278l-.015.217z" opacity=".3"/><path fill="#A05A07" d="M123.956 33.622c-.005.124-.005.238-.01.357v.03c0 .249-.021.476-.041.693 0 .052 0 .114-.011.17-.01.114-.02.218-.026.321l-.015.134v.078c-.005.057-.021.129-.031.212-.041.201-.088.439-.155.692-.072.294-.165.6-.238.873.243.594.491 1.163.734 1.716a4 4 0 0 0-.227.366 3 3 0 0 0-.176.341c-.088.192-.16.383-.202.564-.01.02-.01.041-.02.062-.114.49-.45 1.048-.853 1.519-.434.496-.95.878-1.41.992-.238.052-.46.036-.646-.088 0 0-.016-.01-.021-.016-.005-.01-.01-.01-.015-.015-.099-.093-.212-.31-.336-.625a3 3 0 0 1-.114-.316q-.109-.34-.232-.775a31 31 0 0 1-.615-2.83v-.011a7 7 0 0 1-.083-.476c0-.01-.005-.02-.005-.03-.057-.316-.098-.641-.15-.962-.077-.553-.134-1.1-.186-1.637v-.032a19 19 0 0 1-.083-1.73v-.068c0-.186-.005-.361 0-.527 0-.01 0-.015.011-.02 0-.104 0-.192.005-.28.005-.206.026-.408.052-.588q.013-.148.036-.28c.01-.051.015-.108.026-.154v-.01c.015-.063.025-.13.051-.181q.063-.304.155-.538c.016-.052.042-.098.067-.15.186-.356.445-.568.786-.568q.378 0 .764.093h.011c.227.041.455.103.687.201.326.12.641.274.951.476.041.02.082.041.119.077.015 0 .025.016.041.021a.4.4 0 0 1 .093.062c.026.015.057.036.083.052.025.015.056.036.082.046.135.114.259.207.388.32q.177.157.346.32c.015.295.057.595.108.9q.118.612.336 1.224z" opacity=".3"/><path fill="#949984" d="M118.112 70.586c-.025.186 1.933-1.064 1.659-4.474 0-3.819-2.423-3.013-2.423-3.013s1.576 1.83.77 7.487z"/><path fill="#A05A07" d="M85.374 41.543c-.76 3.193-2.945 7.466 1.06 6.49 4.004-.982.263-7.833.263-7.833z" opacity=".3"/><path fill="#B4B296" d="M91.667 62.36s-3.105-.273-3.379 3.152 3.38 4.387 3.56 4.428-.186-7.58-.186-7.58z"/><path fill="#E8D4BA" d="M117.311 84.547c-2.01-.217-4.226-.584-6.541-1.064-.465-.099-.93-.202-1.405-.305a123 123 0 0 1-6.774-1.71 76 76 0 0 1-1.772-.512c-.016 0-.026-.005-.042-.016-5.58-1.643-11.129-3.647-15.66-5.616-.331-.145-.708-.346-.786-.698-.051-.273 1.53-2.945 1.778-3.074 3.808-2.118 5.244-12.99 5.781-21.752.285-4.712.316-8.805.316-10.608v-.976h.005c2.506-2.506 9.316 1.632 11.961 2.712 1.256.512 11.992 4.532 13.181 5.865.077.087.119.16.113.217-.32 3.074-.49 5.704-.527 7.998-.025 1.705.026 3.214.155 4.583.166 1.757.445 3.28.858 4.65a19 19 0 0 0 1.519 3.73h.005c.161.316.331.62.517.92.605 1.034 1.312 2.036 2.098 3.08.005.015.02.026.031.046.852 1.127 1.798 2.305 2.842 3.607.118.144.237.3.361.454 1.504 1.891 2.315 3.42 2.542 4.645.693 3.68-3.859 4.552-10.561 3.819z"/><path fill="#CEB79B" d="M125.329 76.084c-6.67-8.366-9.698-11.337-7.858-29.07.108-1.022-11.957-5.538-13.295-6.08-2.645-1.08-9.46-5.23-11.966-2.713-.016.015.113 7.977-.672 16.162.357.552.692 1.116.982 1.705.604 1.23 1.059 2.557 1.452 3.87.232.77.439 1.544.589 2.33.087.47.155.961.103 1.442-.088.754-.522 1.317-1.338 1.26-1.07-.072-2.036-.708-2.795-1.426a9 9 0 0 1-.316-.315c-.899 4.046-2.211 7.26-4.107 8.303-.243.134-1.83 2.806-1.773 3.074.078.357.45.553.786.703 18.136 7.88 52.557 16.25 40.203.76z" opacity=".4"/><path fill="#CEB79B" d="M125.329 76.084c-6.67-8.366-9.698-11.337-7.858-29.07.108-1.022-11.957-5.538-13.295-6.08-2.645-1.08-9.46-5.23-11.966-2.713-.01.01.077 5.771-.377 12.524q.195.255.366.527c.538.832.951 1.731 1.313 2.65.351.884.64 1.789.971 2.688.217.589.455 1.172.677 1.761.625 1.654 1.235 3.374 1.431 5.142.14 1.255.036 2.898-1.498 3.13-1.183.181-2.346-.289-3.312-.95a10 10 0 0 1-1.778-1.56c-.888 3.627-2.144 6.458-3.895 7.424-.243.135-1.83 2.806-1.773 3.075.078.356.45.552.786.702 18.136 7.88 52.557 16.25 40.203.76z" opacity=".4"/><path fill="#CEB79B" d="M127.871 80.729c-.718 3.084-6.763 3.25-14.534 1.89-.067-3.25-9.884-3.068-10.742-6.22-2.552-9.332-6.117-16.235-10.7-26.589-.026-.052-.047-.108-.073-.16.295-4.232.372-8.102.388-10.447v-.047c0-.346.005-.656 0-.93.005-.858 0-1.349 0-1.354 2.5-2.516 9.316 1.633 11.961 2.713 1.343.542 13.403 5.058 13.294 6.081q-.06.58-.113 1.137c-.305 3.193-.439 5.89-.414 8.215-.16 10.928 2.868 14.157 8.381 21.076 1.504 1.886 2.315 3.42 2.542 4.64z" opacity=".4"/><path fill="#BBB99D" d="M89.928 62.696s-1.339-.279-1.613 3.121c-.273 3.405 1.68 4.655 1.659 4.475-.806-5.658-.041-7.596-.041-7.596z"/><path fill="#C5C7B2" d="M83.045 89.037c10.721 7.394 29.151-9.187 29.038-21.779-7.745 8.862-17.314 10.308-23.654-.857-1.054 1.075-2.532 2.227-4.625 3.364-.392.222-.335.563-.222.883 0 0 .109 17.945-.532 18.394z"/><path fill="#BBB99D" d="M80.373 71.005c-.32.087-.95 12.56-1.85 12.953 3.173 2.77 7.358 5.208 11.709 4.722.103-6.437-2.563-17.567-4.31-20.202 0 0-3.875 2.072-5.549 2.532zM119.972 69.005c-1.421 4.547-6.629 8.257-10.22 8.257-2.909 0-4.087-3.028-6.613-5.312 5.218-2.036 13.33-5.224 15.392-8.603.082-.269.237-.201.522.098a4.35 4.35 0 0 1 1.157 2.517 8.4 8.4 0 0 1-.238 3.043"/><path fill="#3E8E5B" d="m82.73 85.384-.005-.005s.005 0 .005.005"/><path fill="#3C8454" d="M152.285 73.604c-10.262-5.896-16.565-1.56-25.958-7.653-1.478-.826-4.676-.806-6.139-.118-.454.258.238.909-.702 2.15v.01c-2.713 3.6-6.263 5.032-10.009 7.398-5.208 2.496-22.341 16.255-26.738 10.07h-.01c.289 1.943.284 3.943.692 5.86l-.01.01s0 .01.01.01c.072.13.098.249.17.362 6.123 3.095 12.99 4.557 19.541 6.614v.01c37.042 10.308 38.452-2.294 62.22-5.921-.672-2.206-3.762-13.455-13.067-18.802"/><path fill="#3B754B" d="m82.73 85.384-.005-.005s.005 0 .005.005" opacity=".4"/><path fill="#3B754B" d="M82.73 85.394s-.005-.005-.005-.015c0 0 0 .005.005.005zM127.499 66.628l-.02.02s0 .006-.005.006c-4.403 6.257-11.796 9.42-18.725 12.1-3.694 1.613-7.415 3.194-11.057 4.94-5.09 2.501-7.348 4.81-7.446 10.675 0-.052-.439-.217-1.002-.408-7.337-2.346-5.658-1.075-6.516-8.556 1.163 7.305 24.342-8.242 27.55-10.158 2.527-1.804 10.029-5.911 9.719-9.1.098-.82 2.78-.81 3.607-.805 1.777.041 2.438.387 3.901 1.286z" opacity=".4"/><path fill="#3E8E5B" d="M101.262 90.685c-.651.382-1.328.718-2.072.889-.744.175-1.504.253-2.258.103-.78-.155-1.69-.506-2.48-.243-.367.12-.858.398-.879.827-.015.3.14.579.336.8.48.528 1.152.812 1.85.962.858.191 1.741.222 2.614.279.755.052 1.499.196 2.258.232.744.047 1.514.01 2.238-.186.702-.196 1.488-.568 1.86-1.214.878-1.519-1.106-3.85-3.467-2.46z"/><path fill="#3B754B" d="M138.144 69.76s-21.421 29.202-28.19 18.218c-2.847-4.62 8.996-18.394 10.236-22.15.738-.481 4.149-.951 6.138.118 7.084 3.808 8.096 3.023 11.816 3.808z"/><path fill="#3B754B" d="M163.168 86.417c-9.549 1.752-16.514 7.658-25.824 10.355-13.977 4.04-19.919-1.623-31.539-.46-3.431.532-7.079.465-10.504-.305 44.337 14.028 41.955 1.37 70.553-3.317-.558-1.84-1.994-4.485-2.686-6.273"/><path fill="#2B6B40" d="M89.24 93.966c.433-1.343.878-2.449.33-3.834-.031-.403.176-.785.33-1.157.362-.899.249-1.83.29-2.749 0 0-4.004 1.008-4.924.79-.744-.175-2.32.605-2.547-1.668 1.095 7.786-1.018 5.983 6.505 8.66 0-.021.01-.037.015-.057v.015"/><path fill="#3B754B" d="M151.081 72.947s-11.719 5.937-6.474 10.86c5.244 4.93 17.438.342 17.438.342s-3.896-8.065-10.964-11.207z"/><path fill="#3E8E5B" d="M132.187 86.293c-.3 5.71-8.892.424-10.933 4.697-3.204 6.18 18.249 4.991 19.003-3.792-.516-4.186-9.595-8.846-8.065-.915h-.005z"/><path fill="#CCD1C0" d="M88.682 65.998a6 6 0 0 0-.108.537c-.264 1.638.005 3.343.713 4.841.889 1.876 2.403 3.442 4.278 4.34.961.46 1.984.76 3.049.791 1.07.031 2.144-.144 3.167-.46 2.216-.682 4.273-1.953 5.916-3.596.093-.093.181-.186.279-.284-9.481-2.64-14.209-5.353-15.94-6.944-.894-.822-.424-.501-1.354.77z"/><path fill="#CCD1C0" d="M90.742 66.323c-.444-.5-.625-.661-.888-1.503-.43-1.375-.853-1.767.067-2.119-.956-.165-1.488 1.349-1.7 3.994-.274 3.405 1.126 3.7 1.307 3.746.062.016.062-.796.036-1.886-.382-.15 1.457-1.917 1.178-2.232"/><path fill="#E8D4BA" d="M121.164 34.924c-.196 1.1-.599 11.564-1.271 13.765-.584 1.917-6.339 10.148-14.725 10.7-8.38-.64-15.527-7.926-16.105-11.76-.285-1.885-.594-9.543-.837-11.382-.093-.134.077-2.532.02-4.19.31-2.393.496-9.27 2.16-12.261.977-1.752 3.245-3.741 4.82-4.289 3.008-1.038 6.847.197 11.264.543 1.483.113 2.977.144 4.465.057 4.753-.27 5.657-1.287 8.478 4.738.579 2.382 1.442 10.483 1.442 10.483l.279 3.596z"/><path fill="#CEB79B" d="M118.075 49.593c-1.08.15-8.608.067-9.455.904-3.855-1.927-7.347-7.471-7.347-7.471-.574-.806-1.106-2.108-.786-2.831 1.979-1.086 3.493 2.17 5.126 1.07h.026c.403-.249.728-.714 1.255-.853v-.01c.63-.264 1.287-.517 1.085-1.355-.098-.392-.811-1.953-1.116-2.588-.083-1.53.398-3.095-.253-4.552-.238-.863-.248-2.155.403-2.837 1.591-1.343 4.015-2.237 5.492-3.684.011 0 0-.01 0-.01 3.069-3.462-4.35-5.534.636-7.14 1.286-.641 2.656-1.292 4.118-1.329.935 0 .775.626 1.266 1.344 4.795 7.032 1.069 31.632-.445 31.342z" opacity=".4"/><path fill="#CEB79B" d="m119.893 48.689-14.385 3.219-4.443-9.306s.005-1.26.904-1.224 1.488 1.607 2.837 1.576c1.348-.026 1.183-.796 2.32-1.302 1.886-.775 1.994.19 1.224.945 0 0 4.516 4.712 6.474 3.07 4.16-3.416 3.932-12.065 1.571-13.765 1.209-1.788.078-3.612-1.478-3.302-2.066.413-5.998 1.767-6.897 2.361-1.489-1.503-1.788-2.102-4.186-1.519-.377.093-.692.538-1.069.879-.16 2.48-1.757 2.263-3.42 1.157-4.48-2.232-7.782-2.403-8.082-2.403-1.483-.01-1.855 10.768 4.093 18.586-.615 2.991-6.335 4.242-8.025-15.826-.134-1.607 3.912-16.266 5.477-16.488 3.808-.537 9.843 1.338 15.17.755 4.681-.698 11.827.92 12.328 1.885.667 1.333-.408 30.702-.408 30.702z" opacity=".4"/><path fill="#E8D4BA" d="M88.547 40.453c-.935 2.81-3.498 3.043-4.113-.078-.754-2.686-1.87-6.34-.899-9.501.615-.874 1.772-2.29 3.002-1.659 1.07.548 1.53 2.056 1.824 3.126.64 2.625 1.007 5.477.186 8.112"/><path fill="#CEB79B" d="M87.735 41.936c-1.545 1.71-2.898.15-3.39-1.56.445.253 2.212 1.11 2.414.707 1.204-3.172 1.989-10.111-2.207-11.362 1.545-1.11 2.279-.868 3.266 1.1 1.431 3.127 1.793 8.965-.083 11.115" opacity=".4"/><path fill="#CEB79B" d="M86.996 35.157c.109-1.545-.914-3.183-2.232-3.43-.553-.187-.754 1.642-.558 2.541.258 1.168 1.034-1.09 1.462-.92.79.316-.103 2.703-.212 3.354-.17.77.93 3.803 1.447 1.663-.217-.392-.832-.578-.76-1.157.078-.62.543-1.746.853-2.051"/><path fill="#676D54" d="M86.03 42.706c-.067.558-.367 2.413-1.22 1.979-.996-.502 1.561-3.695 1.561-3.695s-1.25-2.33-3.23.796c-2.588 4.087 1.478 6.2 2.765 4.2.651-1.017.987-2.717 1.116-3.466-.248.077-.49.144-.987.18z"/><path fill="#474C2F" d="M86.03 42.706c-.067.558-.366 2.413-1.219 1.979-.997-.501 1.56-3.695 1.56-3.695s-.103-.186-.289-.387c-.31.532-.65 1.038-1.013 1.535-.423.583-.842 1.286-1.415 1.7-.393.284-.904.475-1.344.18-.212 2.542 2.573 3.56 3.591 1.964.651-1.018.987-2.718 1.116-3.467a3.8 3.8 0 0 1-.986.18z" opacity=".4"/><path fill="#474C2F" d="M86.03 42.706c-.067.558-.366 2.413-1.219 1.979-.997-.501 1.56-3.695 1.56-3.695s-.046-.082-.129-.19c-.434.253-.739.81-1.017 1.234-.398.605-.765 1.282-.905 2.03-.129.703-.201 1.546.16 2.197.068.118.171.294.295.47.44-.073.847-.31 1.121-.744.651-1.018.987-2.718 1.116-3.467-.248.077-.49.144-.987.18z"/><path fill="#949984" d="M83.313 42.99c.573-.109 1.115-.47 1.519-.935.361-.419.775-1.054.94-1.71-.553-.347-1.462-.393-2.625 1.441-.248.393-.429.76-.563 1.11.227.12.496.135.728.089z" opacity=".69"/><path fill="#CEB79B" d="M86.997 35.157c-.366-.294-1.25 2.945-1.503 2.279-.382-.998-1.183-1.085-2.015-.62-.274-1.597-.548-4.025.062-5.937 1.152-.817 2.841.635 3.276 2.051.418 1.194.18 2.232.18 2.232z" opacity=".4"/><path fill="#CEB79B" d="M101.831 42.453c-.543-.352-1.277-.6-1.339-1.21-.036-.356.274-1.27.651-1.493.279-.165.021-.573-.263-.408-.574.341-.94 1.333-.91 1.896.042.775.92 1.173 1.602 1.617.274.181.543-.227.269-.402zM107.484 42.489c-.274.17-.016.584.263.408.687-.44 1.571-.827 1.618-1.602.036-.563-.321-1.56-.889-1.906-.284-.171-.548.237-.269.402.372.228.677 1.148.636 1.499-.068.604-.806.847-1.354 1.194z"/><path fill="#CE8000" d="M115.601 15.735c-1.902 4.48-8.479 3.86-12.489 3.43-3.885-.3-7.052-2.108-10.483-3.813-1.189-.537-2.506-1.1-3.586-1.643.77-1.126 1.741-2.139 2.749-3.002 7.972-1.4 16.828 1.917 23.804 5.033z"/><path fill="#CEB79B" d="M93.366 26.694s1.142 3.172 3.255 3.699c2.114.522 4.237 2.398 5.271 1.767 1.028-.625.868-1.834.868-1.834s.175-1.783 1.973-1.772c1.08.005 1.519-4.485-2.376-3.607-2.49.563-5.23.057-6.655-.294-1.426-.346-2.635 1.441-2.336 2.04" opacity=".4"/><path fill="#CEB79B" d="M107.111 34.247c.021-.279.042-.563.052-.842a4.7 4.7 0 0 0-.176-1.472c-.191-.672-.181-1.261.036-2.026a.24.24 0 0 0-.041-.232.3.3 0 0 0-.243-.114.255.255 0 0 0-.258.196c-.155.548-.222.987-.217 1.432 0 .34.093.671.176.997.077.305.165.615.17.93.021.496-.015.997-.052 1.478-.046.702-.098 1.42.006 2.144.015.129.108.206.232.212a.34.34 0 0 0 .243-.109.27.27 0 0 0 .067-.238c-.114-.775-.057-1.575 0-2.356z"/><path fill="#C77500" d="M117.466 17.155c-2.015 2.232-5.544 2.284-8.5 2.238-2.469.19-4.996-.067-7.378-.465-2.604-.331-4.877-1.638-7.265-2.61q.014-.008.021-.015c-1.06.372-3.973 1.343-4.516 1.085-1.255-.59-2.113-2.088-.465-3.54 3.136-2.986 7.497-2.64 10.665-.599 2.986 1.814 6.133 4.366 10.457 3.648.781-.13 7.802-3.637 7.797-2.656-.005 1.199.186 1.928-.816 2.904z" opacity=".3"/><path fill="#C77500" d="M123.986 29.602c-.671.16-.532.832-1.178 1.055a33 33 0 0 0-2.051.79c-.15-4.831-.791-9.564-2.961-13.62 0 0-.423-.568-.475-.522-3.224 3.591-13.005 1.809-14.199 1.855 1.349-1.405 6.402-5.13 2.832-7.812l1.943-.496c-.982-.419-2.217-.94-3.194-1.354.409.036 2.01-.863 1.752-1.669-.687-.987-2.48-1.53-3.658-1.42 2.123-.254 3.772-.192 5.115.103 12.716 1.498 15.289 12.22 16.09 23.09z"/><path fill="#E8D4BA" d="M125.986 33.385c.047 2.273-.635 4.48-1.297 6.665-.212.708-.33 1.436-.785 2.036-.791 1.26-2.196 1.1-3.043 0-1.948-2.723-1.235-7.213-.192-10.091v-.016s.011-.015.011-.02c-.145-.254-.15-.264 0-.016.098-.217.165-.45.279-.635.465-1.168 1.694-2.754 3.017-1.7.429.253.956.439 1.292.821.63.817.641 1.974.703 2.956z"/><path fill="#CEB79B" d="M123.744 41.078c.305-.124.579-.248.754-.34-.144.676-.429 1.24-.919 1.71-.626.707-1.618.676-2.3.072-1.085-.936-1.384-2.418-1.524-3.803-.165-2.945-.305-6.624 1.891-8.748 1.359-1.312 1.917-.646 2.93-.025-3.896 1.141-3.441 8.38-2.553 11.434.14.269 1.003-.01 1.716-.305z"/><path fill="#CEB79B" d="M125.811 31.716c-2.46.692-2.92 3.493-2.749 5.74.036.822.268 4.015 1.193 4.097a4.3 4.3 0 0 1-.671.9c-.186.175-.398.346-.636.439-3.88-1.375-3.395-7.12-2.16-10.324q-.002-.008.006-.015-.001-.007.005-.016c.072-.18.144-.356.227-.521.331-.858 1.891-3.1 2.754-2.537.729.475 1.653.697 1.865 1.637.067.192.124.388.166.6" opacity=".4"/><path fill="#CEB79B" d="M122.757 37.477c.067.584-.589.77-.827 1.157.047.527.579 1.153.936.43.31-.626.744-1.375.63-2.093-.103-.662-1.008-3.075-.165-3.385.459-.165 1.24 2.114 1.539.936.228-.905.047-2.75-.547-2.563-1.38.243-2.517 1.834-2.434 3.44.32.31.796 1.448.868 2.073z"/><path fill="#CEB79B" d="M125.976 33.385c-.011 1.436-.104 2.836-.533 4.21-.377-.785-1.653-.47-1.999.114-.011 0 0 .016-.011.021-.397.444-1.09-2.563-1.55-2.325-.491-1.958 1.447-5.4 3.751-4.299h.011c.237.729.32 1.478.331 2.268z" opacity=".4"/><path fill="#CEB79B" d="M122.199 39.662s-.161.832.733 1.05c.894.216.982-1.04.982-1.04z"/><path fill="#A05A07" d="M117.734 15.497c-.047.532-.073 1.157-.31 1.705-.946 1.044-2.413 1.71-3.85 1.943 2.057-2.697 2.94-7.017.558-10.737.837.44 1.669.956 2.439 1.54.382 1.167 1.24 3.849 1.163 5.549" opacity=".3"/><path fill="#A05A07" d="M112.795 19.253c-.894.098-1.886.134-2.801.145 1.917-2.847 3.948-7.378 2.361-11.796.238.093.481.196.719.3 2.335 3.425 1.224 8.644-.279 11.351" opacity=".3"/><path fill="#CEB79B" d="M104.796 43.228c-.604.036-1.255-.538-1.7-1.029-.666-.744-1.307-.542-1.338-.532a.27.27 0 0 1-.351-.165.276.276 0 0 1 .165-.352c.041-.015 1.002-.346 1.927.682.739.822 1.158.858 1.266.848.315-.026.806-.274 1.049-.538.419-.454 1.147-.981 1.839-.976.15 0 .274.124.274.274s-.124.274-.274.274c-.408 0-.997.325-1.436.8-.294.32-.899.677-1.41.713h-.016z"/><path fill="#CE8000" d="M122.018 42.882c0 .289-.01.589-.015.878v.02c-.615 5.426-.29 11.481-4.258 15.744-.697 1.813-1.638 3.586-3.446 4.552-.589.424-.636 1.199-.754 1.865-.238 1.06-.662 2.082-1.292 2.96-1.917 3.029-5.555 3.018-8.737 2.703-4.697.176-7.203-3.059-8.242-7.29-1.767.454-2.697-2.444-3.404-3.767-4.227 1.917-4.976-13.976-5.142-16.673.026-.43.073-.89.109-1.308.832-5.037.956-10.034 1.777-15.108.207-1.054-.263-3.29-.33-4.355.077-.078.16-.16.227-.248.594-.693.889-1.7 1.338-2.424-.413 3.37-1.886 6.826-.625 10.169-.33.222-.656.837-.966 1.359 0 0-.026.046-.041.067a.2.2 0 0 0 .046-.036c.031-.026.884-.62.935-.662-.01.476-.01.94-.015 1.406-.181.15-.419.733-.455.96.02-.015.44-.304.46-.32.367 3.013-.243 10.143 3.477 10.97-.33 1.457-.01 2.097 1.178 3.301.222-2.227 1.571-4.36 5.71-4.159-.377.269-.904.894-.605 1.493.217-.258 1.834-1.984 2.759-1.364 3.245 1.23 7.921-1.514 8.918 1.426.31-.32.729-1.023.031-1.493 2.108-.016 5.028.687 4.852 3.916 2.108-1.033 2.728-2.216 2.413-3.88 2.495-.15 1.648-8.014 1.865-10.044.129.093.326.237.455.325-.052-.268-.269-.806-.45-.966v-1.405c.042.03.677.496.724.522.067.051.191.139.258.186-.284-.481-.636-1.194-.992-1.442 1.307-3.488-.15-6.732-.517-10.174.445.734.724 1.737 1.313 2.44.062.087.149.17.227.247-.207 1.731-.46 3.658-.093 5.39.729 4.453.506 9 1.266 13.459v.005c.021.248.015.496.021.75z"/><path fill="#C77500" d="M122.033 43.062c-.713 5.844-.186 12.272-4.552 16.808-.331 1.803-1.643 3.312-3.188 4.216-.801.615-.604 1.783-.956 2.64a7.5 7.5 0 0 1-1.09 2.186c-1.617 2.232-4.056 3.25-6.753 2.77-2.036-.295-4.345.144-6.18-.827-2.242-1.462-3.27-4.16-4.06-6.583-1.618.94-3.2-3.565-3.37-3.71-4.324 1.52-4.955-13.738-5.161-16.678.733-5.492 1.085-10.902 1.886-16.415.206-.77-.212-3.033-.27-3.829.456-.945.926-1.653 1.158-2.35.12 3.781-1.695 4.479-.274 9.325-.33.223-.656.837-.966 1.36 0 0-.026.046-.041.066a.2.2 0 0 0 .046-.036c.031-.026.884-.62.936-.661-.01.475-.01.94-.016 1.405-.18.15-.418.734-.455.961.021-.015.44-.304.46-.32.13 3.105.264 7.053 1.685 9.884-2.18 4.883-.662 11.073 2.733 15.211.284-.558.015-1.751.212-2.521 5.864 7.115 13.609 9.068 14.519-2.428 1.896 2.304 3.777 1.054 4.671-1.313 2.113 1.426 2.19-5.09 2.263-6.319.149.424.237.94.232 1.566 2.108-1.034 2.728-2.217 2.413-3.88 2.01-.238 1.638-3.917 1.829-5.462v-.01c.047-1.483.057-3.08.062-4.573l.455.325c-.057-.279-.259-.795-.445-.966V31.5l.672.49c.088.068.217.156.305.223-.078-.14-.165-.28-.238-.414-.248-.433-.485-.836-.754-1.022 1.333-3.421-.227-6.878-.491-10.159.455.894.785 1.943 1.509 2.677-.119.925-.305 2.418-.424 3.353-.01 1.452.32 2.899.496 4.325.238 1.483.367 3.002.32 4.562-.051 2.573.92 5.002.77 7.554a.1.1 0 0 0 .031-.02z" opacity=".67"/><path fill="#A05A07" d="M122.017 42.881c-.191 3.271-.197 6.185-.889 9.352-.444 2.015-1.106 4.253-2.211 5.829a21 21 0 0 1-1.168 1.457c-.491 1.762-1.907 3.658-3.446 4.552-.6.418-.615 1.219-.755 1.865-.367 1.669-1.23 3.255-2.568 4.33-1.741 1.42-3.296 1.7-5.471 1.405-2.331-.351-5.121.32-6.96-1.416 6.21-2.387 11.005-7.817 12.09-14.42.646 3.208-.801 6.758-1.803 9.445 3.358-4.253 6.996-8.82 7.425-14.437.93 1.37.17 3.52.496 4.713 1.679-7.29 3.281-14.493 3.105-22.047.124.087.326.237.45.325-.068-.279-.259-.79-.445-.96.005-.466.005-.931 0-1.406.191.14.744.542.925.671 0 .006.052.037.057.042-.088-.145-.165-.284-.248-.424-.238-.419-.481-.827-.744-1.013 1.194-3.492-.165-6.717-.563-10.158.496.827.795 1.974 1.54 2.687-.207 1.73-.424 3.648-.057 5.374.728 4.453.47 9.01 1.229 13.475v.005c.021.248.016.496.021.75z" opacity=".3"/><path fill="#BA6F04" d="M110.045 81.685c.083.852-.351 1.694-.687 2.433-.036 2.589-1.018 4.852-2.847 6.495-.656.44-1.013-.093-1.803.17-1.313.176-2.63-1.172-3.292-2.237a5.3 5.3 0 0 1-.775-2.873c-.015-.465.068-.96.181-1.508-.051-.052-.129-.047-.186-.098-1.41-1.09-1.322-3.705-.232-5.038-1.065-1.591-1.147-3.865-.145-5.482-.305-.532-.76-.982-1.054-1.281l10.287-.316c.207.667.047 1.266-.217 1.948.057.104.109.176.14.228.775 1.472.491 3.528-.233 5.13.491.76.889 1.752.863 2.429"/><path fill="#C57802" d="M105.792 85.772c-.749.8-1.648 3.09-.785 3.343.734.207 2.098-.75 2.842-1.55.744-.801.796-1.581.155-2.18-.641-.574-1.514-.362-2.212.387"/><path fill="#995A07" d="M102.967 85.467c1.524.62.692 2.744 1.483 4.526-.088.419.522.811.61.393-.646-1.478-.372-2.47 0-3.622 0 0 .573-2.119 1.87-2.01.418.088.527-.512.16-.6-1.452 0-2.227 1.35-2.413 2.026-.377-.455-.387-.765-.888-1.002-.372-.222-1.38-.238-.817.289z"/><path fill="#D58500" d="M106.248 88.345c-1.023.398-1.405-.181-1.11-.739.289-.553 1.069-1.901 1.668-1.819.6.083 1.158 1.927-.558 2.558"/><path fill="#BA6F04" d="M106.712 100.662c-.098.502-.073 1.039.196 1.427-2.671-1.509-5.043-4.697-4.345-7.885h.005c.052-.222.139-.424.227-.636h.005c.099-.206.197-.408.357-.563l.32-1.131c6.619-.326 4.459 5.43 3.23 8.788z"/><path fill="#A05A07" d="M106.712 100.663c-.098.501-.072 1.038.196 1.426a8.5 8.5 0 0 1-1.607-1.132c1.917-2.692 1.189-6.98-2.764-6.629a1 1 0 0 0 .026-.124h.005c.052-.222.14-.424.227-.635h.006c.718-1.168 3.1-2.176 4.371-1.654.088.202-.011.465.031.682h.005c.01.098.046.176.108.253h.006c2.051 1.638-.393 6.65-.615 7.813z" opacity=".3"/><path fill="#A05A07" d="M108.024 96.106a4.7 4.7 0 0 0-.6-.956 5 5 0 0 0-.32-.347 4.8 4.8 0 0 0-.822-.666 1 1 0 0 0-.139-.088 5.5 5.5 0 0 0-.837-.413 5 5 0 0 0-.687-.222 7 7 0 0 0-1.612-.228h-.083a1 1 0 0 1 .108-.077c.036-.021.073-.047.109-.067.377-.243.806-.486 1.25-.693.078-.036.15-.072.228-.103.108-.047.217-.088.325-.134q.031-.017.062-.026.084-.038.176-.067c.573-.197 1.162-.305 1.7-.264.036 0 .067.01.093.016 0 0 .02.005.031.01h.005l.036.01c.01 0 .021.01.026.016q.001-.001.01.005.007.001.016.01s.01.005.01.01q.017.01.026.026l.02.036v.01c.011.022.021.053.026.078a.7.7 0 0 1 0 .217v.062c0 .062-.01.12-.005.176v.088a.2.2 0 0 0 .005.057l.011.062v.005s0 .02.01.03c0 .011.01.027.015.042a.436.436 0 0 0 .13.16c.02.016.041.026.067.042q.054.068.108.144c.006.006.011.01.011.021 0 0 .01.01.01.02q.087.125.165.249c.026.046.057.098.083.15l.077.15.068.15.062.154a1 1 0 0 1 .02.083c.119.584.078 1.292-.046 2.025z" opacity=".3"/><path fill="#995A07" d="M107.161 95.429c-.041-.853-.201-2.077-1.106-2.45-.382-.16-.707.403-.32.564.708.294.749 1.353.785 2.004a5.9 5.9 0 0 1-.682 3.11c-.196.373.372.693.564.321.594-1.126.826-2.283.764-3.554zM105.057 92.814c-.201-.367-.723.016-.527.383.527.971-.459 1.761-1.059 2.407-.289.305.217.719.501.414.868-.936 1.798-1.881 1.091-3.204z"/><path fill="#02A84D" d="M107.647 93.13c-1.818 0-2.826.015-4.743.046-.558-.832-.604-2.222-.485-3.147 2.092-.082 3.41-.057 5.394-.03 0 .01.015 2.929-.166 3.13"/><path fill="#1A9950" d="M107.648 93.13c-1.819 0-2.832.01-4.743.046-.171-.18-.279-.527-.346-.785.795-.192 2.81-1.974 3.053-2.419.687.016 1.473.026 2.201.026 0 .01.011 2.925-.165 3.131"/><g fill="#C77500" opacity=".51" style="mix-blend-mode:multiply"><path d="M102.611 45.935c2.563-.579 5.989.501 7.74 1.576 0 0-8.117-.584-9.517-.77.512.067.326-.48 1.777-.806M104.409 49.68c-1.1-.299-1.224-.082-.821.947.764 1.415 2.883.77 2.774-.925-.635.242-1.307.108-1.953-.021" opacity=".3"/></g><path fill="#995A07" d="M110.454 47.599c-.604-1.039-4.552-1.054-7.326-1.116a4.97 4.97 0 0 0-2.589.47c-2.03 1.018.754.176 4.366.264 1.395.036 5.56.387 5.56.387h-.006zM106.125 49.676c-.232.269-.966.134-1.276.108-.434-.03-.91-.093-1.307-.268-.403-.176-.595.48-.202.646.532.232 1.183.279 1.757.32.449.026 1.162.067 1.488-.315.284-.326-.176-.822-.46-.496z"/><path fill="#C77500" d="M105.085 19.264c-2.774-.088-5.466-.662-7.988-1.835a37 37 0 0 0-2.78-1.105q.015-.008.021-.016c-2.144.33-3.141 2.687-3.937 4.681-1.53 3.343-1.607 5.828-2.449 10.169 0 0-.594-1.204-.594-1.2-.047-.097-.3-.609-.258-1.74l-.744-4.635 1.963.558s-1.1-3.12-.532-3.214c3.002-.485.408-5.094.408-5.094.14.062 1.829.847 2.015.935 0 0 .233-1.039.713-1.54.971-.899 2.77-1.384 4.077-.646 2.097 1.266 6.221 5.193 9.347 3.416.935-.533.087 1.224.738 1.265"/><path fill="#676D54" d="M123.971 40.014c-.909 1.514-2.655-.543-1.25-1.39.806-.44 1.674.615 1.25 1.39"/><path fill="#474C2F" d="M123.558 40.448a.9.9 0 0 1-.253.082c-.511.083-.997-.294-1.09-.842-.072-.455.145-.878.501-1.064 0 0-.568 1.633.837 1.824z" opacity=".4"/><path fill="#949984" d="M123.972 40.014c-1.649-.305-.998-1.478-.998-1.478.507-.088.992.294 1.086.842.036.227-.001.444-.094.63z"/><path fill="#3E875B" d="M98.244 30.925c-.883-.114-2.061-.387-2.852.093-.403.625.15 1.524.708 1.865 1.188.946 3.751-.904 2.144-1.958"/><path fill="#3B754B" d="M97.02 32.589c.507 0 .919-.444.919-.992s-.412-.992-.92-.992-.92.444-.92.992.412.992.92.992"/><path fill="#3E875B" d="M110.836 30.925c-1.612 1.137 1.09 2.945 2.273 1.938.558-.367 1.095-1.313.661-1.938-.831-.465-2.03-.145-2.934 0"/><path fill="#3B754B" d="M112.097 32.563a.94.94 0 1 0 0-1.88.94.94 0 0 0 0 1.88"/><path fill="#676D54" d="M107.875 32.796c.165-.052 4.061-3.225 8.324-1.075.372.191.692-.377.315-.569-4.815-2.428-8.484.915-8.83 1.018-.403.124-.217.75.186.626zM100.766 32.63c-.155-.046-3.834-3.09-7.678-.806-.336.202-.651-.362-.31-.558 4.34-2.583 7.817.64 8.138.734.372.108.222.739-.15.63"/><path fill="#CE8000" d="M101.175 30.181c-1.488-.124-5.002-.413-7.776-1.11l.909-.709s-1.199.01-1.803.45c-.455-.15-.822-.32-1.08-.501-.119-.078.196-2.692.883-2.408.207.13 4.33.977 7.177.987.388.015 1.468.594 1.468.594l-.114-.687c.48-.047.951-.119 1.426-.202.718-.129 1.044 1.24 1.002 2.336-.062 1.41-.18 1.22-2.103 1.266h.006z"/><path fill="#C77500" d="M101.175 30.181c-2.279-.186-5.395-.512-7.777-1.11l.45-.352c.48.274 3.017-1.163 3.017-1.163l-.656.708c1.034-.315 2.439-1.426 2.439-1.426.956-.052 1.721.294 2.304.63l-.113-.687c.48-.046.95-.119 1.426-.201.718-.13 1.044 1.24 1.002 2.335-.062 1.41-.181 1.22-2.103 1.266h.011" opacity=".3"/><path fill="#A05A07" d="M101.176 30.181s-.13-.015-.362-.03a97 97 0 0 1-1.855-.177c2.661-.46 2.94-2.599 2.661-3.286.217-.036.434-.067.661-.103.719-.13 1.044 1.24 1.003 2.335-.062 1.41-.181 1.22-2.103 1.266z" opacity=".6"/><path fill="#CE8000" d="M117.78 29.08c-.646.218-1.499.352-2.449.43a29 29 0 0 1-1.215.067 43 43 0 0 1-4.872-.16 46 46 0 0 1-2.196-.243c-1.188-.176-1.364-.594-1.064-1.442.031-.082.062-.18.103-.279.832-2.005.687-1.808 1.302-1.803.491.124.558.134 1.23.34.144.445.522 1.127.522 1.127l.294-1.038c2.615.47 5.203.615 7.084.506a15 15 0 0 0 1.41-.155c.269.253.827 2.33-.149 2.65"/><path fill="#C77500" d="M115.33 29.51c-1.969.15-4.201.072-6.092-.093-1.281-.238-4.025.103-3.26-1.685 1.09.858 4.573.042 5.219-1.08-.527 1.809 3.053 1.504 3.193 1.55.454.15 1.198.6.945 1.303h-.005z" opacity=".3"/><path fill="#A05A07" d="M117.779 29.08c-.909.31-2.222.45-3.658.497 1.591-.377 2.372-2.91 2.403-2.987a15 15 0 0 0 1.41-.155c.269.254.827 2.33-.15 2.65zM109.234 29.417a46 46 0 0 1-2.196-.243c-1.312-.191-1.39-.687-.961-1.726.832-2.005.687-1.808 1.302-1.803 0 .506-1.219 2.609 1.85 3.777z" opacity=".6"/><path fill="#F7F7F7" d="M95.339 31.964c.33-.02.589-.192.578-.386s-.289-.335-.62-.316c-.33.02-.589.193-.577.386.011.194.288.335.619.316M110.749 32.367c.33-.02.589-.192.578-.386-.012-.193-.289-.335-.619-.315-.331.02-.589.192-.578.386.011.193.288.335.619.315"/><path fill="#9EA58E" d="M63.916 104.021c.13-.269.44-.429.688-.564.33-.17.66-.32.981-.501 1.023-.578 2.057-1.152 3.137-1.632.5-.223 1.012-.414 1.519-.621.418-.17.842-.341 1.281-.449.413-.098.863-.16 1.271-.021.005 0 .02.005.026.011.01-.011.015-.016.02-.026a18 18 0 0 0 2.052-2.305c-2.537-8.106-19.722-27.58-19.722-27.58-11.037 1.333-21.985 6.634-26.661 13.883 14.984-1.049 27.761 9.264 34.762 20.151.228.021.465-.176.641-.341v-.011z"/><path fill="#9EA58E" d="M72.685 99.768a17.7 17.7 0 0 0 2.05-2.31C72.2 89.353 55.01 69.884 55.01 69.884c-11.037 1.333-21.985 6.634-26.661 13.883 15.164-1.064 28.097 9.564 35.041 20.596 3.457-.61 6.728-2.191 9.29-4.599z"/><path fill="#B1B7A5" d="M40.573 79.995c-2.945-.786-8.174 1.617-9.874 3.704 4.273.037 8.345.982 12.132 2.573 1.157-2.702.403-5.57-2.258-6.277"/><path fill="#949984" d="M55.008 69.883c-6.877.832-13.718 3.199-19.03 6.624 7.689 1.555 16.834 7.384 18.136 16.958a50.5 50.5 0 0 1 9.28 10.897c4.47-.77 8.65-3.24 11.341-6.903-2.537-8.107-19.722-27.58-19.722-27.58z" opacity=".4"/><path fill="#949984" d="M55.009 69.883c-6.2.75-12.37 2.749-17.423 5.642 7.838-.8 26.103 15.718 30.619 27.287 2.557-1.215 4.846-3.08 6.526-5.358-2.537-8.107-19.728-27.581-19.728-27.581z"/><path fill="#9EA58E" d="M37.317 71.578c-.32.119-.134.403-.444.527 15.754-.44 30.32 12.214 34.649 31.73l.083.025 7.46-.454-2.16-37.682c-9.522-1.24-27.44 1.292-39.588 5.86z"/><path fill="#9EA58E" d="M80.44 104.01c3.845-8.137 8.428-27.72 2.568-36.323-3.539-5.197-30.164-2.356-46.16 3.948 15.888-.44 30.567 12.426 34.762 32.226 3.767.428 6.48.434 8.836.149z"/><path fill="#B1B7A5" d="M57.489 75.2c-.863-.672-1.922-.966-2.992-1.106-.92-.124-1.88-.16-2.76-.48-.883-.32-1.518-.935-1.844-1.819-.31-.842-.764-1.726-1.565-2.196-.713-.424-1.56-.47-2.367-.392-1.095.103-2.17.382-3.219.687-1.55.45-3.146.981-4.603 1.736 7.352.129 14.39 3.095 20.182 8.256q.161-.317.279-.666c.495-1.468.15-3.043-1.096-4.02h-.015"/><path fill="#949984" d="M83.01 67.682c-1.783-2.624-9.456-3.198-18.674-2.314 1.111 5.626.042 12.131-4.252 16.203 5.456 5.554 9.595 13.186 11.522 22.279 3.767.429 6.48.434 8.836.15 3.844-8.138 8.427-27.72 2.567-36.323z" opacity=".4"/><path fill="#949984" d="M78.845 92.235c-.703 4.196-2.108 8.35-4.439 11.879 2.387.155 4.31.103 6.035-.103 3.596-8.045 12.106-37.843-3.684-38.762 2.212 8.758 3.519 18.001 2.082 26.997z"/><path fill="#E8D4BA" d="m125.443 92.917-4.428-10.432s.667-7.021.827-9.74c.16-2.717-.419-4.598-2.144-8.57-1.726-3.974 1.043-8.728.625-9.513-.419-.785-3.658-.522-5.224 2.77-1.565 3.29-1.204 6.272-1.204 6.272s-7.523-12.018-9.409-12.54c-1.885-.522-2.717 0-3.343.785-.625.786-2.78 2.997-2.81 3.777s.31 3.84.31 3.84-1.84-.156-2.589.78c-.75.935-1.343 2.278-1.121 3.683 0 0-2.217.564-2.806 2.403-.589 1.84.124 2.744.124 2.744s-2.03.935-2.03 2.759 1.973 4.94 5.192 5.254c0 0 3.002 8.386 11.445 13l6.645 16.979z"/><path fill="#CEB79B" d="M105.975 59.922c-2.945-.207-7.326-.362-7.326-.362s-.217-1.922-.29-3.105c5.674-.383 4.103-5.425 4.103-5.425l.201-.042c.476-.077 1.065-.041 1.824.17.491.135 1.369 1.06 2.393 2.346-4.253-.258-.91 6.418-.91 6.418zM125.443 92.917l-14.39 7.993-4.195-10.72c-8.443-4.615-11.445-13-11.445-13-3.224-.316-5.192-3.431-5.192-5.255 0 0 4.536 2.79 7.104 1.054 2.568-1.737 18.327-8.484 24.104 4.955a566 566 0 0 1-.414 4.536l4.428 10.432z" opacity=".4"/><path fill="#CEB79B" d="m125.442 92.917-11.94 14.25-6.645-16.978c-3.115-1.705-5.487-3.916-7.244-6.04 19.144 1.617 21.045-17.51 21.055-17.635.966 2.496 1.292 4.103 1.168 6.227-.155 2.717-.827 9.74-.827 9.74l4.428 10.431z" opacity=".4"/><path fill="#CEB79B" d="M122.162 85.177s-6.882 4.113-14.834 6.185l.512 1.457 15.81-4.123-1.493-3.513zM113.896 63.704s2.04 1.638 2.154 2.8c.114 1.163 1.065-2.32-2.191-3.405zM119.915 54.951s-2.785 1.571-1.452 3.617c0 0 .098-2.175 1.452-3.617M94.933 64.024s3.415-.29 3.855.444 2.377.047 1.762-.418-5.663-.47-5.663-.47l.041.444zM92.252 69.175s2.108-.76 2.547-.041c.439.718 2.278-1.09.904-.847-1.374.242-3.746.175-3.746.175.057.46.29.708.29.708zM95.418 77.19s-1.4-3.246-2.65-3.096c-.641.078 2.025 2.997 2.025 2.997zM101.263 59.55s2.32.878 3.849.935c1.214.046 1.318-.775.016-.775s-3.87-.16-3.87-.16z"/><path fill="#CEB79B" d="M101.262 59.55c.243-.465.832-1.736 0-2.94 0 0 .026-.884.589.144s.904 2.744 1.813 3.255l-2.397-.465zM97.563 81.37s6.453-.156 9-2.351c0 0-3.431 4.288-7.487 4.459z"/><path fill="#EDDAC5" d="M90.469 70.875s1.829 2.413 5.347 1.297c3.52-1.116-3.146-3.131-3.146-3.131s-1.659.196-2.201 1.829zM92.179 66.277s2.15.315 3.87-.434c1.72-.75 1.405-1.87-.238-1.865s-3.007.594-3.637 2.299zM95.264 61.673s2.759 1.204 4.805 0-1.421-2.108-1.421-2.108-2.63-.594-3.384 2.108M98.674 54.951s1.669 1.049 3.043-1.21c1.375-2.257.196-2.49.196-2.49zM100.843 67.78c-1.545-.175-1.472-1.72-.175-1.787s2.066 2 .175 1.787M103.16 63.698c-1.427-.785.826-2.01 1.653-1.834s.801 3.188-1.653 1.834"/><path fill="#CEB79B" d="M119.439 58.573c-.14.651-.259 1.349-.3 2.067-4.345-1.364-5.244 3.064-5.244 3.064s-.367-2.981 1.203-6.273c1.008-2.118 2.713-2.98 3.907-3.12-2.289 2.908.439 4.257.439 4.257z" opacity=".4"/><path fill="#CEB79B" d="m115.161 64.918-1.266-1.214v-.088c-.051-.511-.206-3.219 1.204-6.185.687-1.447 1.7-2.31 2.656-2.754-3.048 2.325-2.594 10.241-2.594 10.241" opacity=".4"/><path fill="#9EA58E" d="M104.513 93.155s16.441-5.715 20.192-4.232c0 0 26.857 26.47 31.637 31.694 4.779 5.224-1.55 27.88-9.363 37.801 0 0-21.251-9.296-31.786-35.393-10.53-26.098-10.685-29.875-10.685-29.875z"/><path fill="#B1B7A5" d="M111.7 114.205c-7.069-18.167-7.182-21.055-7.182-21.055s7.977-2.775 14.084-3.958c0 0 6.898 17.831-6.902 25.008z"/><path fill="#949984" d="M146.984 158.418s-21.313-9.357-31.787-35.393c17.516-8.96 13.599-29.777 14.085-29.586 0 0 22.28 21.949 27.059 27.173s-1.55 27.88-9.362 37.801z"/><path fill="#474C2F" d="M146.985 158.418s-4.8-2.098-10.969-7.105c.945-1.431 2.097-2.94 3.492-4.526 18.472-21.024 1.452-41.728 1.282-41.934 6.686 6.655 13.392 13.392 15.557 15.764 4.78 5.224-1.55 27.88-9.362 37.801M124.291 93.357c.005-.595.718-1.029 1.364-.946.331.134.429 2.428-.3 2.3-.728-.125-1.069-.838-1.059-1.355z" opacity=".14"/><path fill="#474C2F" d="M153.954 124.771c-4.619 1.757-3.585-5.301-.206-1.684.253.243.708 1.405.206 1.684M132.661 98.632c.537.516 1.653 2.165 1.415 2.371-1.88 1.695-4.014-2.412-1.421-2.376zM139.16 105.979c.042.026 1.142 2.056 1.121 2.402-.015.331-.521.429-.744.486-1.028.274-3.301-1.958-1.689-2.8.315-.171 1.044-.238 1.312-.098v.01" opacity=".14"/><path fill="#676D54" d="M126.828 94.493c-1.86.956-2.557-1.033-1.937-1.782.894-1.085 3.503.976 1.937 1.782"/><path fill="#474C2F" d="M144.581 113.972s.191.098.201.088c.414-.026 1.71 2.418.884 2.604-.966.212-2.062-.682-2.341-1.328-.279-.656.589-1.266 1.251-1.364z" opacity=".14" style="mix-blend-mode:multiply"/><path fill="#474C2F" d="M126.829 94.493c-.455.238-.843.295-1.158.233.197-.031.419-.109.651-.228 1.152-.589.036-1.865-.976-2.061 1.08-.259 2.836 1.369 1.488 2.061z"/><path fill="#676D54" d="M146.177 116.37c-.579.713-2.077-.357-2.346-.925-.134-.29-.139-.589 0-.842.507-1.592 3.684.113 2.346 1.761z"/><path fill="#474C2F" d="M144.654 113.977c1.044-.062 2.506 1.184 1.519 2.393-.232.289-.609.284-1.002.144a.6.6 0 0 0 .418-.227c.812-.992-.031-2.01-.935-2.304z"/><path fill="#676D54" d="M138.525 105.907c1.406-.155 2.305 1.286 2.005 2.247-.139.434-.604.615-.997.522-1.018-.237-1.902-1.426-1.664-2.216a.85.85 0 0 1 .656-.553"/><path fill="#474C2F" d="M140.53 108.16c-.139.434-.604.614-.997.521-.041-.01-.088-.02-.129-.036a.76.76 0 0 0 .558-.511c.258-.822-.362-1.99-1.421-2.222 1.4-.145 2.289 1.286 1.989 2.248"/><path fill="#676D54" d="M132.992 98.627c1.524.119 2.413 2.335.46 2.547-1.478-.057-2.63-2.454-.46-2.542z"/><path fill="#474C2F" d="M132.992 98.627c1.586.113 2.392 2.459.377 2.537 1.534-.688.346-2.403-.92-2.48a.9.9 0 0 1 .543-.052z"/><path fill="#676D54" d="M152.331 122.058c1.473.202 2.232 1.246 2.217 1.99-.016 1.069-2.47 1.591-3.147-.827-.191-.692.016-1.297.935-1.168z"/><path fill="#474C2F" d="M152.332 122.058c2.077.233 3.245 2.677.992 2.889 1.7-.734.171-2.697-1.633-2.827.155-.072.378-.103.646-.062z"/><path fill="#474C2F" d="M157.457 132.78c-7.218-2.997-6.701-11.13-7.517-12.339s-4.284-1.137-6.015-2.614c-1.731-1.478 1.323-6.578-2.418-7.497-3.746-.92-4.464-1.835-5.296-3.364s1.034-3.467-2.077-3.875-3.415-1.886-3.87-3.72c-.46-1.834-1.374-2.65-5.162-3.25s-2.996-7.415-2.996-7.415c1.105-.072 2.01-.015 2.604.217 0 0 26.857 26.47 31.637 31.694 1.849 2.025 2.035 6.66 1.116 12.163z" opacity=".14"/><path fill="#474C2F" d="m114.098 155.617 2.976 4.32s11.269-16.498 6.123-18.704c-5.152-2.201-9.099 14.389-9.099 14.389z"/><path fill="#676D54" d="m116.65 159.317.429.614s12.22-17.639 5.405-18.946c-.238-.104-.129.279-.367.253 6.076 1.493-3.741 15.469-5.467 18.073z"/><path fill="#E8D4BA" d="M152.523 153.99c-.331.537-.698 1.126-1.157 1.446-1.38.155-4.651-8.349-5.162-9.946-1.442 3.493-5.487 13.356-8.453 15.113-2.594.801-3.829-.909-5.193-.754-4.226.553-9.347.754-13.516-.755h-.011c-1.519-.547-2.965-1.369-4.097-2.531-.946-.977-1.829-.512-3.632-.45-5.017.253-13.17-3.627-12.974-3.606 2.552-3.576 8.334-11.662 10.933-15.305 1.162.564 10.68 4.986 13.899 5.916 2.965 1.173 22.362-3.751 24.134-3.683.667-.031 1.312.542 1.359.604h.005c1.22 1.948 5.152 8.345 5.56 10.101.15.636-1.695 3.844-1.695 3.844z"/><path fill="#CEB79B" d="M152.524 153.989a9 9 0 0 1-.584.874c-.196.253-.393.454-.574.573-1.188-2.185-6.024-12.323-6.024-12.323s1.87-1.41 3.002.868c1.038 2.093 3.756 8.929 4.185 10.008z"/><path fill="#E8D4BA" d="M152.021 155.855c-.537.847-2.578 3.131-3.989 3.642-2.108-.248-7.497-14.596-3.89-16.678.175-.088 3.534-1.065 4.2 1.162.899 1.886 2.579 6.867 3.333 9.75.145.62.47 1.736.351 2.124z"/><path fill="#CEB79B" d="M150.053 158.097c-.449.413-.925.801-1.39 1.085-1.513-2.909-5.352-10.788-5.352-10.788s2.159-.16 3.286 2.118c.976 1.974 2.862 6.097 3.456 7.59z"/><path fill="#E8D4BA" d="M146.209 162.401c-1.736 1.003-2.103.233-3.182-2.046-.832-1.865-1.566-4.273-1.819-6.397-.269-2.102-.062-5.156 1.912-5.693.552-.021 2.051-.062 2.516.635 1.168 2.558 2.749 7.156 3.55 9.921.242.723-1.385 2.48-2.982 3.575z"/><path fill="#CEB79B" d="M146.209 162.401a4 4 0 0 1-.537.269c-.352.139-.698.196-1.023.139a.6.6 0 0 1-.155-.067c-.46-1.287-3.044-6.18-3.333-8.794-.098-.889.119-.274 1.478.336 2.459 1.095 3.565 8.122 3.565 8.122z"/><path fill="#D8C1A6" d="M139.393 165.925s-4.335-3.627-3.725-4.635c.61-1.007 3.834-1.126 5.834 1.075 1.87 2.056-2.114 3.56-2.114 3.56z"/><path fill="#E8D4BA" d="M145.635 163.745c-.558.351-3.839 3.203-4.573 3.275-.682.047-1.416-.801-1.669-1.095l1.581-2.759c-.046-.191-1.571-1.881-2.289-2.165-.542-.367-1.281-.315-1.607-.977-.268-.475.192-6.846.192-6.846.031-3.105 1.705-1.984 3.849-.33.589.454 1.219.955 1.839 1.405 1.189.992 2.79 6.805 2.677 9.492"/><path fill="#CEB79B" d="M149.19 158.82c.289.729-1.912 3.152-3.565 3.86.041.439.046.806.01 1.065-.558.351-3.839 3.203-4.572 3.275-.682.047-1.416-.801-1.669-1.095l1.581-2.759c-.264-.548-2.15-2.408-3.219-2.563 2.583-1.302 5.523-4.604 5.203-6.355 2.113-1.571 2.95-4.588 2.676-5.353 2.212-1.106 2.899-4.123 2.703-4.919 1.24-1.788.387-3.798.325-3.937a157 157 0 0 1 3.493 5.895c.666 1.256 1.953 3.328 2.061 4.294-.16.656-1.343 3.451-2.283 4.629.108.533.144.889.082.993-.273.501-1.86 2.288-2.831 2.965z" opacity=".4"/><path fill="#CEB79B" d="M145.636 163.745c-.631.372-3.855 3.317-4.697 3.275-.641-.088-1.142-.64-1.545-1.095.382-.661 1.209-2.108 1.581-2.759-.744-1.054-1.87-2.186-3.203-2.553-1.297.403-2.263.305-4.651-.733 0 0-2.392.258-3.725.284 0 0-6.185.439-10.354-1.07h-.011c-1.519-.547-2.965-1.369-4.097-2.532-.945-.976-8.944-14.518-6.345-18.156 1.194.465 11.243 4.289 15.682 4.888-5.234 7.032-1.571 10.163 5.978 12.865 2.878.853 7.61 3.142 9.853 1.845.517-.382 1.111-.754 1.643-.713 1.395.258.909 2.821 2.232 3.446.615.269 1.008.186 1.297-.051.139.821.651 2.459.351 3.064h.005z" opacity=".4"/><path fill="#CEB79B" d="M125.666 160.247c-2.238-.078-4.506-.377-6.624-1.142h-.011c-1.519-.548-2.966-1.369-4.097-2.532-.946-.977-8.51-14.519-5.911-18.156.439.237 7.704 2.836 11.114 3.715.703.18 2.966.981 3.023 1.002 0 0-5.172 6.944-2.749 12.152.697 1.494 2.47 4.615 5.249 4.981z" opacity=".4"/><path fill="#CEB79B" d="M116.743 158.004c-1.963-1.751-10.075-17.154-7.471-20.796.021.046 8.68 3.932 13.212 5.699 0 0-6.474 8.411-2.992 16.348l-2.749-1.256zM141.594 162.2c-.191 1.477-2.49-.961-2.909-1.194-.284-.165-1.131-.315-1.224-.3 0 0 1.498-1.498 1.943-.842.449.656-.915.398-.357.796.563.403 2.64.801 2.547 1.54"/><path fill="#CEB79B" d="M140.191 162.205s1.126-.114 1.596 1.059c.47 1.178-.532 1.028-.981.413-.548-.749-.62-1.472-.62-1.472z"/><path fill="#949984" d="M151.336 147.097c-.569.827-1.256 1.436-1.256 1.436l-.889-2.681c.078-.119.155-.243.217-.357a5.4 5.4 0 0 0 .615-1.457c.331-1.338-.17-2.061-.17-2.061.268-.383 1.069.594 1.88 2.097.057.109.124.223.181.341.434.843-.015 1.866-.584 2.677z"/><path fill="#9EA58E" d="M150.022 144.048v-.005c.331-1.338-.17-2.061-.17-2.061.268-.383 1.069.594 1.88 2.097.181 1.773-1.715-.031-1.715-.031z"/><path fill="#676D54" d="M151.336 147.097c-.569.827-1.256 1.436-1.256 1.436l-.889-2.681c.078-.119.155-.243.217-.357 0 0 .321 2.191 1.922 1.597z"/><path fill="#CEB79B" d="M142.736 147.484s3.886-.351 3.467.248c-.418.6-.894.832-1.229.719-.341-.114-2.238-.961-2.238-.961zM144.674 143.144s4.03-1.069 3.617-.475-.863 1.013-1.204.899-2.413-.424-2.413-.424M139.926 153.065s3.022-.507 2.981.217c-.026.449-.47.863-.811.749s-2.17-.966-2.17-.966M145.636 162.68l-1.23-6.339s4.315 4.066 4.485 1.451c.16.569.326.977.351 1.385-.077.336-1.756 2.816-3.606 3.508zM152.022 155.855c-.227.418-1.602 2.01-2.521 2.723l-1.644-5.426s3.907 2.553 3.814.584c.144.62.47 1.736.351 2.124z" opacity=".4"/><path fill="#CEB79B" d="m151.94 154.868-1.235-5.451s3.689 1.762 2.821-.951c.46.915.698 1.576.698 1.772.005.987-2.088 4.382-2.284 4.63" opacity=".4"/><path fill="#CEB79B" d="M126.746 160.267c-.92 0-1.86-.041-2.785-.124.904-3.058 2.268-6.278 5.032-8.086-1.348 2.501-2.459 5.327-2.247 8.21"/><path fill="#EDDAC5" d="M138.49 147.014c-9.952 1.121-8.882-4.221-8.882-4.221 4.562-.708 10.385-1.995 14.11-2.749.569 3.069-.082 6.386-5.234 6.97z"/><path fill="#676D54" d="m122.028 140.892.455.098s-6.123 5.275-4.841 18.528l-.646.212-3.209-4.387s3.529-14.539 8.236-14.446z"/><path fill="#9EA58E" d="M49.858 157.55a1.233 1.233 0 0 1-.858-1.669c2.402-5.89 12.53-29.322 22.042-30.03 10.881-.806 28.593 7.296 33.992 9.621 6.971 3.002 16.999 5.415 16.999 5.415s-6.184 4.283-5.027 18.838c0 0-6.205-.372-30.98 2.382-15.547 1.731-30.645-3.266-36.163-4.562z"/><path fill="#B1B7A5" d="M122.027 140.892s-2.971 2.061-4.413 8.168c-20.12-.821-16.167-15.138-16.167-15.138 1.473.63 2.692 1.167 3.581 1.555 6.97 3.002 16.999 5.415 16.999 5.415"/><path fill="#949984" d="M111.58 159.844c-4.541.227-12.452.806-25.565 2.268-15.547 1.731-30.645-3.266-36.163-4.562a1.23 1.23 0 0 1-.858-1.669c2.403-5.891 12.53-29.322 22.042-30.03 3.183-.238 6.95.289 10.824 1.214 0 0 .993 25.85 29.72 32.779"/><path fill="#474C2F" d="M76.7 162.417c-11.952-.455-22.44-3.839-26.842-4.873a1.23 1.23 0 0 1-.858-1.668c1.085-2.656 3.74-8.887 7.208-14.99 0 0 3.033 17.025 20.491 21.531" opacity=".14"/><path fill="#474C2F" d="M117.001 159.725s-6.205-.372-30.98 2.382c-15.548 1.731-30.645-3.266-36.163-4.563a1.23 1.23 0 0 1-.858-1.668c.134-.326.29-.708.47-1.137.093.02 9.409 2.015 15.15 3.984 5.77 1.973 17.164 2.795 27.337 1.157 9.626-1.55 24.925-2.248 24.925-2.248l.119 2.088zM111.168 142.054c-.284-.527.129-1.25.734-1.488.351-.041 1.55 1.917.852 2.16-.692.248-1.338-.212-1.581-.672zM75.474 128.987c-3.193 3.777-5.704-2.898-.997-1.374.341.093 1.297.889.997 1.374M83.106 129.478c.718.191 2.495 1.095 2.387 1.39-.822 2.392-4.681-.165-2.392-1.39zM92.35 132.754c.046 0 1.993 1.245 2.149 1.56.144.3-.248.631-.414.786-.77.739-3.839-.114-2.831-1.633.196-.3.795-.713 1.095-.723v.01" opacity=".14"/><path fill="#676D54" d="M113.937 141.817c-1.162 1.736-2.738.335-2.557-.62.253-1.38 3.534-.843 2.557.62"/><path fill="#474C2F" d="M100.963 137.125s.212-.005.217-.021c.351-.222 2.666 1.287 2.035 1.85-.744.656-2.133.403-2.691-.031-.558-.439-.099-1.395.434-1.803z" opacity=".14" style="mix-blend-mode:multiply"/><path fill="#474C2F" d="M113.937 141.822c-.285.429-.595.661-.899.764.16-.124.31-.294.459-.516.719-1.075-.868-1.648-1.854-1.333.821-.749 3.146-.176 2.299 1.085z"/><path fill="#676D54" d="M103.52 138.443c-.16.904-1.989.692-2.501.33-.258-.186-.408-.449-.408-.733-.33-1.638 3.276-1.69 2.909.403"/><path fill="#474C2F" d="M101.029 137.089c.884-.558 2.765-.181 2.491 1.354-.062.361-.398.547-.806.609a.62.62 0 0 0 .258-.403c.227-1.26-1.002-1.741-1.932-1.565z"/><path fill="#676D54" d="M91.755 133.002c1.158-.816 2.635.01 2.842.992.088.444-.232.832-.62.94-1.008.285-2.35-.325-2.532-1.131-.056-.264.067-.631.31-.801"/><path fill="#474C2F" d="M94.603 133.999c.088.444-.233.832-.62.941-.041.01-.088.025-.13.03a.76.76 0 0 0 .238-.718c-.175-.842-1.276-1.565-2.32-1.255 1.153-.801 2.625.015 2.827 1.002z"/><path fill="#676D54" d="M83.39 129.318c1.39-.636 3.239.873 1.632 2.005-1.323.666-3.488-.874-1.633-2z"/><path fill="#474C2F" d="M83.39 129.318c1.446-.667 3.286.992 1.56 2.036 1.008-1.344-.863-2.274-2.005-1.726a.96.96 0 0 1 .45-.31z"/><path fill="#676D54" d="M72.735 127.401c1.385-.537 2.558.01 2.904.667.501.945-1.39 2.588-3.157.801-.506-.512-.615-1.142.253-1.478z"/><path fill="#474C2F" d="M72.74 127.401c1.928-.801 4.134.77 2.264 2.046 1.131-1.467-1.158-2.439-2.8-1.679.097-.14.278-.274.531-.367z"/></svg>