<svg xmlns="http://www.w3.org/2000/svg" fill="none" viewBox="0 0 104 24">
  <path fill="#fff" d="M96.78 18.3a4.58 4.58 0 0 1-2.64-.72 4.53 4.53 0 0 1-1.55-1.96 7.06 7.06 0 0 1-.52-2.74c0-1.05.18-1.99.56-2.8a4.4 4.4 0 0 1 1.64-1.94 4.95 4.95 0 0 1 3.82-.56 3.55 3.55 0 0 1 1.83 1.02V4h2.78v14.16H100l-.04-1.18a3 3 0 0 1-.88.76 4.88 4.88 0 0 1-2.3.56Zm.56-2.52a2.34 2.34 0 0 0 2.3-1.5c.19-.44.28-.91.28-1.42 0-.52-.1-1-.28-1.42a2.15 2.15 0 0 0-.83-1.04c-.37-.27-.86-.4-1.47-.4s-1.1.14-1.48.42a2.3 2.3 0 0 0-.79 1.1 4.49 4.49 0 0 0-.1 2.5c.1.33.24.63.44.9s.45.48.77.64c.32.15.7.22 1.16.22Zm-12.08 2.38V7.62h2.5l.18 1.26c.26-.4.56-.7.9-.9.32-.21.67-.35 1.03-.42a5 5 0 0 1 1.57-.1h.31v2.7h-.65c-.62 0-1.17.1-1.63.32a2.3 2.3 0 0 0-1.07 1 3.72 3.72 0 0 0-.36 1.74v4.94h-2.78Zm-7.58.14c-.48 0-.94-.06-1.4-.18a3.62 3.62 0 0 1-1.17-.6 2.85 2.85 0 0 1-1.11-2.4 3 3 0 0 1 .44-1.72c.29-.44.68-.77 1.17-1a5.7 5.7 0 0 1 1.69-.46 16.4 16.4 0 0 1 2-.12h1.52c0-.39-.08-.73-.22-1.02-.13-.3-.34-.54-.62-.7a2 2 0 0 0-1.07-.26c-.28 0-.55.04-.82.12-.25.07-.46.17-.63.3a.92.92 0 0 0-.34.52H74.3a3.33 3.33 0 0 1 1.65-2.54c.43-.27.91-.46 1.43-.58a6.8 6.8 0 0 1 1.63-.2c1.52 0 2.65.44 3.38 1.32.73.87 1.09 2.1 1.09 3.7v5.68h-2.5l-.04-1.36c-.34.47-.71.8-1.14 1.02-.4.21-.8.35-1.19.4-.38.05-.7.08-.93.08Zm.63-2.22c.47 0 .89-.1 1.27-.28.39-.19.7-.44.92-.76.22-.32.34-.68.34-1.08v-.26h-1.91c-.28 0-.55.01-.82.04a2.8 2.8 0 0 0-.7.16.96.96 0 0 0-.47.34c-.12.16-.18.37-.18.64s.07.5.2.68c.15.17.34.3.58.4.24.08.5.12.77.12ZM67.88 18.3c-1.54 0-2.72-.4-3.56-1.18-.82-.8-1.23-2-1.23-3.6v-5.9h2.78v5.7c0 .48.07.9.2 1.28.15.36.36.65.66.86a2 2 0 0 0 1.17.32c.52 0 .91-.11 1.2-.34.27-.23.46-.53.57-.9.1-.39.16-.8.16-1.22v-5.7h2.76v5.9c0 1.67-.42 2.88-1.25 3.64a4.9 4.9 0 0 1-3.46 1.14Zm-11.73 4.74c-.82 0-1.57-.13-2.26-.4a4.14 4.14 0 0 1-1.75-1.22 4.64 4.64 0 0 1-.98-2.16h2.85c.09.27.23.49.43.66.22.19.47.33.76.42.3.1.62.14.95.14.63 0 1.1-.13 1.45-.4.35-.27.59-.62.72-1.06.13-.43.2-.9.2-1.42v-.74c-.24.39-.54.68-.9.88a4.7 4.7 0 0 1-2.25.56c-1.1 0-1.99-.25-2.68-.74a4.28 4.28 0 0 1-1.5-1.94A7.13 7.13 0 0 1 50.7 13c0-1.03.18-1.96.53-2.8.36-.84.9-1.5 1.61-2 .72-.5 1.61-.74 2.69-.74.65 0 1.22.1 1.73.32.5.2.93.5 1.29.9l.24-1.06h2.54v9.2a9.8 9.8 0 0 1-.5 3.3 4.17 4.17 0 0 1-1.65 2.16c-.75.5-1.77.76-3.04.76ZM56 15.78a2.4 2.4 0 0 0 1.43-.4c.39-.27.67-.62.86-1.06a3.91 3.91 0 0 0 0-2.92 2.32 2.32 0 0 0-.84-1.04 2.4 2.4 0 0 0-1.43-.4 2.3 2.3 0 0 0-2.3 1.58 4.42 4.42 0 0 0 .02 2.82c.16.43.42.77.8 1.04.36.25.85.38 1.46.38ZM43.4 18.3a4.58 4.58 0 0 1-2.65-.72 4.53 4.53 0 0 1-1.55-1.96 7.06 7.06 0 0 1-.52-2.74c0-1.05.19-1.99.56-2.8.37-.83.92-1.47 1.65-1.94a4.95 4.95 0 0 1 3.82-.56 3.55 3.55 0 0 1 1.82 1.02V4h2.79v14.16h-2.7l-.05-1.18c-.23.3-.53.56-.87.76a4.96 4.96 0 0 1-2.31.56Zm.55-2.52a2.35 2.35 0 0 0 2.3-1.5c.2-.44.28-.91.28-1.42 0-.52-.09-1-.27-1.42a2.15 2.15 0 0 0-.84-1.04c-.37-.27-.86-.4-1.47-.4-.6 0-1.1.14-1.47.42a2.3 2.3 0 0 0-.8 1.1 4.49 4.49 0 0 0-.1 2.5c.1.33.24.63.44.9s.46.48.78.64c.32.15.7.22 1.15.22ZM31.5 18.3c-.48 0-.94-.06-1.39-.18a3.62 3.62 0 0 1-1.17-.6 2.85 2.85 0 0 1-1.12-2.4 3 3 0 0 1 .44-1.72c.3-.44.68-.77 1.17-1a5.7 5.7 0 0 1 1.7-.46 16.4 16.4 0 0 1 2-.12h1.51c0-.39-.07-.73-.22-1.02a1.5 1.5 0 0 0-.61-.7 2 2 0 0 0-1.08-.26 2.79 2.79 0 0 0-1.45.42.92.92 0 0 0-.34.52h-2.82a3.55 3.55 0 0 1 1.65-2.54c.44-.27.92-.46 1.43-.58.53-.13 1.08-.2 1.63-.2 1.53 0 2.65.44 3.38 1.32.73.87 1.1 2.1 1.1 3.7v5.68H34.8l-.04-1.36c-.33.47-.7.8-1.13 1.02-.41.21-.81.35-1.2.4-.38.05-.7.08-.93.08Zm.64-2.22c.46 0 .88-.1 1.27-.28.38-.19.69-.44.91-.76.23-.32.34-.68.34-1.08v-.26h-1.9c-.29 0-.56.01-.82.04a2.8 2.8 0 0 0-.7.16.96.96 0 0 0-.47.34c-.12.16-.18.37-.18.64s.06.5.2.68c.14.17.33.3.57.4.24.08.5.12.78.12Z"/>
  <path fill="url(#a)" fill-rule="evenodd" d="M11.92 2C8.3 2 4.93 3.08 2.14 4.92a17.9 17.9 0 0 0 2.38 10 17.82 17.82 0 0 0 7.39 7.05l.01.03.02-.03a17.82 17.82 0 0 0 7.4-7.06 17.98 17.98 0 0 0 2.37-9.99A17.7 17.7 0 0 0 11.92 2Z" clip-rule="evenodd"/>
  <path fill="#fff" fill-rule="evenodd" d="M15.01 9.25c.3.34.3.89 0 1.22l-2.3 2.57c-.79.96-1.28.96-2.1 0l-1.44-1.6a.94.94 0 0 1 0-1.23.71.71 0 0 1 1.09 0l1.4 1.57 2.26-2.53a.71.71 0 0 1 1.1 0Z" clip-rule="evenodd"/>
  <defs>
    <linearGradient id="a" x1="11.92" x2="11.92" y1="2" y2="22" gradientUnits="userSpaceOnUse">
      <stop stop-color="#67B279"/>
      <stop offset="1" stop-color="#589968"/>
    </linearGradient>
  </defs>
</svg>
