<?xml version="1.0" encoding="UTF-8"?>
<svg width="27px" height="27px" viewBox="0 0 27 27" version="1.1" xmlns="http://www.w3.org/2000/svg" xmlns:xlink="http://www.w3.org/1999/xlink">
    <!-- Generator: Sketch 44.1 (41455) - http://www.bohemiancoding.com/sketch -->
    <title>Group 9</title>
    <desc>Created with Sketch.</desc>
    <defs></defs>
    <g id="01" stroke="none" stroke-width="1" fill="none" fill-rule="evenodd">
        <g id="Artboard" transform="translate(-20.000000, -17.000000)">
            <g id="Group-9" transform="translate(20.000000, 17.000000)">
                <g id="Group-8">
                    <g id="Group-7">
                        <path d="M13.2333196,0 C9.09699042,0 4.1075434,0.965680851 4.05824813e-06,3.09121277 C4.05824813e-06,7.68178723 -0.0566942033,19.1182979 13.2333196,26.9325 C26.5236271,19.1182979 26.4672226,7.68178723 26.4672226,3.09121277 C22.3593895,0.965680851 17.3699425,0 13.2333196,0 L13.2333196,0 Z" id="Path" fill="#68BC71"></path>
                        <path d="M13.2198019,26.924548 C-0.0566557505,19.1105411 4.05824813e-06,7.6802303 4.05824813e-06,3.09121277 C4.10306989,0.967995763 9.08612348,0.00210481739 13.2198019,3.43653112e-06 L13.2198019,26.9245507 Z" id="Combined-Shape" fill="#67B279"></path>
                    </g>
                    <path d="M12.7506203,17.9702409 L20.7530282,7.26255387 C20.166628,6.79592449 19.6522713,7.12526186 19.3691238,7.38023274 L19.358792,7.38104995 L12.6863956,14.2720736 L10.1724142,11.2685385 C8.97308618,9.89289441 7.34261442,10.9421976 6.96173353,11.2195057 L12.7506203,17.9702409" id="Fill-11" fill="#FFFFFF"></path>
                </g>
            </g>
        </g>
    </g>
</svg>