<svg width="125" height="29" viewBox="0 0 125 29" xmlns="http://www.w3.org/2000/svg"><title>Group 2</title><g fill="none" fill-rule="evenodd"><path d="M98.549 21.266l-.95-2.519h-4.73l-.898 2.519H88.76l5.127-12.829h2.866l5.077 12.829h-3.28zm-3.28-9.404l-1.554 4.403h3.073l-1.52-4.403zm-6.993 4.566c0 .773-.124 1.477-.371 2.11a4.603 4.603 0 0 1-1.062 1.632 4.86 4.86 0 0 1-1.666 1.06c-.65.253-1.373.38-2.167.38-.806 0-1.53-.127-2.175-.38a4.696 4.696 0 0 1-1.64-1.06 4.623 4.623 0 0 1-1.036-1.631c-.242-.634-.363-1.338-.363-2.111v-7.99h2.935v7.735c0 .35.043.683.13.997.086.314.218.595.397.842.178.248.414.444.708.59.293.144.647.217 1.061.217.415 0 .769-.073 1.062-.218.294-.145.533-.34.717-.589.184-.247.316-.528.397-.842.08-.314.12-.646.12-.997V8.437h2.953v7.991zm-12.114 4.059c-.598.326-1.297.592-2.097.797-.8.205-1.672.308-2.616.308-.978 0-1.88-.163-2.702-.49a6.196 6.196 0 0 1-2.124-1.376 6.298 6.298 0 0 1-1.39-2.13c-.333-.827-.5-1.748-.5-2.763 0-1.026.17-1.956.51-2.79a6.221 6.221 0 0 1 1.406-2.129 6.189 6.189 0 0 1 2.107-1.35 7.115 7.115 0 0 1 2.606-.471 7.67 7.67 0 0 1 2.693.462c.829.308 1.502.722 2.02 1.241l-1.865 2.229a3.239 3.239 0 0 0-1.139-.86c-.472-.224-1.007-.336-1.606-.336a3.415 3.415 0 0 0-2.572 1.133 3.795 3.795 0 0 0-.751 1.268 4.648 4.648 0 0 0-.268 1.603c0 .592.08 1.136.242 1.631.16.496.4.921.716 1.278.317.356.708.634 1.174.833.466.2.999.3 1.597.3.346 0 .674-.028.985-.082a3.54 3.54 0 0 0 .863-.263v-2.338H71.12v-2.499h5.041v6.795zm48.799-5.672c0 1.124-.199 2.093-.596 2.909-.397.815-.921 1.485-1.571 2.01a6.437 6.437 0 0 1-2.202 1.16 8.53 8.53 0 0 1-2.486.372h-4.558V8.437h4.42c.863 0 1.715.106 2.555.317a6.27 6.27 0 0 1 2.245 1.051c.656.49 1.185 1.145 1.588 1.966.403.822.605 1.836.605 3.044zm-3.074 0c0-.724-.112-1.325-.336-1.803a3.007 3.007 0 0 0-.898-1.141 3.514 3.514 0 0 0-1.278-.607 5.998 5.998 0 0 0-1.476-.181h-1.468v7.501h1.399c.53 0 1.039-.063 1.528-.19.49-.127.92-.335 1.295-.625.374-.29.673-.677.898-1.16.224-.483.336-1.08.336-1.794zm-58.45 0c0 1.124-.198 2.093-.595 2.909-.397.815-.92 1.485-1.571 2.01a6.437 6.437 0 0 1-2.201 1.16 8.53 8.53 0 0 1-2.487.372h-4.558V8.437h4.42c.864 0 1.715.106 2.556.317a6.27 6.27 0 0 1 2.244 1.051c.656.49 1.186 1.145 1.589 1.966.402.822.604 1.836.604 3.044zm-3.072 0c0-.724-.113-1.325-.337-1.803a3.007 3.007 0 0 0-.898-1.141 3.514 3.514 0 0 0-1.278-.607 5.998 5.998 0 0 0-1.476-.181h-1.467v7.501h1.398c.53 0 1.039-.063 1.528-.19a3.53 3.53 0 0 0 1.295-.625c.374-.29.673-.677.898-1.16.224-.483.337-1.08.337-1.794zm-12.553 6.45l-.95-2.518h-4.73l-.899 2.519h-3.211L43.15 8.437h2.866l5.076 12.829h-3.28zm-3.28-9.402l-1.556 4.402h3.073l-1.517-4.403zm64.773 9.404l-2.641-5.094h-1.002v5.092h-2.9V8.437h4.662c.587 0 1.16.064 1.717.19a4.351 4.351 0 0 1 1.503.644c.443.302.797.7 1.061 1.196.265.495.397 1.111.397 1.848 0 .87-.224 1.6-.673 2.192-.449.592-1.07 1.015-1.865 1.269l3.195 5.49h-3.454zm-.12-8.897c0-.302-.06-.546-.182-.734a1.264 1.264 0 0 0-.466-.434 1.957 1.957 0 0 0-.639-.209 4.494 4.494 0 0 0-.682-.054h-1.57v2.99h1.398c.241 0 .489-.022.742-.064s.484-.118.69-.226a1.34 1.34 0 0 0 .51-.472c.132-.205.199-.47.199-.797z" fill="#121212"/><path d="M13.897.66C9.82.66 4.904 1.648.854 3.821c0 4.695-.056 16.39 13.043 24.38 13.1-7.99 13.044-19.685 13.044-24.38C22.892 1.648 17.974.66 13.897.66z" fill="#68BC71"/><path d="M13.884 28.194C.798 20.203.854 8.514.854 3.82 4.898 1.65 9.81.662 13.884.66v27.534z" fill="#67B279"/><path d="M13.421 19.037l7.888-10.95c-.578-.477-1.085-.14-1.364.12l-.01.001-6.577 7.047-2.478-3.072c-1.182-1.406-2.789-.333-3.164-.05l5.705 6.904" fill="#FFF"/></g></svg>