<svg xmlns="http://www.w3.org/2000/svg" width="48" height="48" fill="none" viewBox="0 0 48 48"><path fill="url(#a)" fill-rule="evenodd" d="M24 2.625c-7.756 0-14.96 2.291-20.938 6.216-.41 7.139 1.208 14.524 5.086 21.24 3.87 6.704 9.442 11.79 15.813 15.006l.039.068.04-.068c6.37-3.216 11.943-8.302 15.812-15.005 3.878-6.717 5.496-14.102 5.086-21.241C38.961 4.916 31.756 2.625 24 2.625" clip-rule="evenodd"/><path fill="#fff" fill-rule="evenodd" d="M30.608 18.05c.642.717.64 1.877-.004 2.592l-4.919 5.454c-1.685 2.047-2.748 2.047-4.5 0l-3.08-3.415c-.645-.715-.646-1.875-.004-2.592s1.685-.72 2.33-.005l3.004 3.332 4.843-5.37c.645-.715 1.688-.713 2.33.004" clip-rule="evenodd"/><defs><linearGradient id="a" x1="24" x2="24" y1="2.625" y2="45.155" gradientUnits="userSpaceOnUse"><stop stop-color="#67b279"/><stop offset="1" stop-color="#589968"/></linearGradient></defs></svg>