<?xml version="1.0" encoding="UTF-8"?>
<svg width="55px" height="57px" viewBox="0 0 55 57" version="1.1" xmlns="http://www.w3.org/2000/svg" xmlns:xlink="http://www.w3.org/1999/xlink">
    <!-- Generator: Sketch 51.1 (57501) - http://www.bohemiancoding.com/sketch -->
    <title>Shape</title>
    <desc>Created with Sketch.</desc>
    <defs></defs>
    <g id="Page-1" stroke="none" stroke-width="1" fill="none" fill-rule="evenodd">
        <g id="magnifier" transform="translate(-1.000000, 0.000000)" fill="#DEDEDE" fill-rule="nonzero">
            <path d="M55.146,51.887 L41.588,37.786 C45.074,33.642 46.984,28.428 46.984,23 C46.984,10.318 36.666,0 23.984,0 C11.302,0 0.984,10.318 0.984,23 C0.984,35.682 11.302,46 23.984,46 C28.745,46 33.282,44.564 37.161,41.838 L50.822,56.046 C51.393,56.639 52.161,56.966 52.984,56.966 C53.763,56.966 54.502,56.669 55.063,56.129 C56.255,54.982 56.293,53.08 55.146,51.887 Z M23.984,6 C33.358,6 40.984,13.626 40.984,23 C40.984,32.374 33.358,40 23.984,40 C14.61,40 6.984,32.374 6.984,23 C6.984,13.626 14.61,6 23.984,6 Z" id="Shape"></path>
        </g>
    </g>
</svg>