<svg width="320" height="194" viewBox="0 0 320 194" fill="none" xmlns="http://www.w3.org/2000/svg">
<g clip-path="url(#clip0_3232_14221)">
<rect width="320" height="194" fill="url(#paint0_linear_3232_14221)"/>
<path d="M147.221 167.749L147.09 176.811L154.762 171.986L149.329 179.24L158.372 179.846L149.713 182.522L156.673 188.327L148.095 185.402L150.313 194.189L145.093 186.781L141.722 195.194L141.853 186.132L134.182 190.957L139.614 183.703L130.571 183.097L139.23 180.422L132.27 174.617L140.848 177.541L138.63 168.754L143.851 176.162L147.221 167.749Z" fill="#84CAFE"/>
<path d="M307.5 41L309.093 49.5958L315.435 43.5783L311.672 51.4691L320.339 50.3283L312.657 54.5L320.339 58.6717L311.672 57.5309L315.435 65.4217L309.093 59.4042L307.5 68L305.907 59.4042L299.565 65.4217L303.328 57.5309L294.661 58.6717L302.343 54.5L294.661 50.3283L303.328 51.4691L299.565 43.5783L305.907 49.5958L307.5 41Z" fill="#59B194"/>
<path d="M37.5 0L39.9197 13.0529L49.5496 3.91515L43.8348 15.8975L56.9967 14.1652L45.3303 20.5L56.9967 26.8348L43.8348 25.1025L49.5496 37.0848L39.9197 27.9471L37.5 41L35.0803 27.9471L25.4504 37.0848L31.1652 25.1025L18.0033 26.8348L29.6697 20.5L18.0033 14.1652L31.1652 15.8975L25.4504 3.91515L35.0803 13.0529L37.5 0Z" fill="#84CAFE"/>
<path d="M118.06 135.36C119.554 138.776 120.834 142.332 121.878 146.019C123.107 150.36 123.966 154.72 124.468 159.062L108.296 163.642C107.654 159.339 106.723 155 105.494 150.659C104.449 146.972 103.223 143.401 101.828 139.957L118.06 135.36Z" fill="#BA8939"/>
<path d="M118.06 135.36L101.829 139.957C98.5551 131.853 94.3637 124.458 89.4871 117.935L104.245 113.755C109.855 120.071 114.551 127.323 118.06 135.36Z" fill="#BA8939"/>
<path d="M108.296 163.642L124.468 159.062C125.493 167.834 125.071 176.536 123.368 184.891L108.806 189.014C109.729 180.881 109.596 172.336 108.296 163.642Z" fill="#473B2B"/>
<path d="M104.242 113.756L89.4868 117.935C83.5286 109.971 76.5468 103.305 68.9548 98.232L80.1156 95.0714C89.1911 99.7248 97.3975 106.044 104.242 113.756Z" fill="#F4CC71"/>
<path d="M108.806 189.015L123.368 184.891C121.267 195.229 117.197 205.036 111.46 213.78L100.734 216.817C104.901 208.518 107.663 199.082 108.806 189.015Z" fill="#F4CC71"/>
<path d="M101.828 139.956C103.223 143.401 104.45 146.972 105.494 150.659C106.723 155 107.654 159.339 108.296 163.642L86.2961 169.872C85.4656 165.623 84.438 161.311 83.2087 156.97C82.1646 153.283 81.0079 149.692 79.7525 146.208L101.828 139.956Z" fill="#F4CC71"/>
<path d="M101.828 139.957L79.7524 146.208C76.7976 138.015 73.2932 130.425 69.4055 123.621L89.487 117.935C94.3636 124.458 98.555 131.853 101.828 139.957Z" fill="#F4CC71"/>
<path d="M86.296 169.872L108.296 163.642C109.596 172.336 109.729 180.881 108.806 189.014L88.99 194.626C88.8609 186.79 87.9783 178.458 86.296 169.872Z" fill="#BA8939"/>
<path d="M89.487 117.934L69.4056 123.621C64.6653 115.313 59.3495 108.176 53.772 102.532L68.955 98.232C76.547 103.305 83.5288 109.971 89.487 117.934Z" fill="#473B2B"/>
<path d="M88.9901 194.626L108.806 189.015C107.663 199.082 104.901 208.518 100.734 216.817L86.1418 220.95C88.1748 213.255 89.1584 204.322 88.9901 194.626Z" fill="#221D17"/>
<path d="M80.1158 95.0713L68.955 98.232C54.219 88.3883 37.1693 84.552 20.8376 88.8974C41.4676 83.2739 62.4405 86.0134 80.1158 95.0713Z" fill="#473B2B"/>
<path d="M68.955 98.232L53.7719 102.532C42.7682 91.3981 30.7355 86.0873 20.0227 89.121C20.2948 89.044 20.5679 88.9702 20.8377 88.8974C37.1693 84.5521 54.2191 88.3883 68.955 98.232Z" fill="#F4CC71"/>
<path d="M79.7523 146.208C81.0078 149.692 82.1644 153.283 83.2086 156.97C84.4379 161.311 85.4654 165.623 86.296 169.872L60.5063 177.176C59.4534 172.989 58.3097 168.71 57.0804 164.369C56.0363 160.682 54.9626 157.068 53.8664 153.539L79.7523 146.208Z" fill="#BA8939"/>
<path d="M79.7523 146.208L53.8664 153.539C51.2899 145.238 48.5886 137.421 45.8691 130.287L69.4054 123.621C73.293 130.425 76.7975 138.015 79.7523 146.208Z" fill="#BA8939"/>
<path d="M60.5064 177.176L86.2961 169.872C87.9784 178.458 88.861 186.79 88.9901 194.626L65.7624 201.204C64.3922 193.72 62.6334 185.636 60.5064 177.176Z" fill="#221D17"/>
<path d="M69.4054 123.621L45.8692 130.287C42.546 121.577 39.1882 113.885 35.9736 107.572L53.7719 102.532C59.3494 108.176 64.6652 115.313 69.4054 123.621Z" fill="#BA8939"/>
<path d="M53.7719 102.532L35.9737 107.572C29.6361 95.117 23.8591 88.0346 20.0227 89.121C30.7355 86.0873 42.7682 91.3981 53.7719 102.532Z" fill="#BA8939"/>
<path d="M53.8664 153.539C54.9626 157.068 56.0363 160.682 57.0804 164.369C58.3097 168.71 59.4534 172.989 60.5064 177.176L31.7166 185.329C30.4181 181.212 29.1483 176.968 27.919 172.627C26.8748 168.94 25.8941 165.3 24.9771 161.72L53.8664 153.539Z" fill="#221D17"/>
<path d="M53.8666 153.539L24.9773 161.72C22.8189 153.301 21.0203 145.228 19.5952 137.727L45.8693 130.287C48.5888 137.421 51.2901 145.238 53.8666 153.539Z" fill="#F4CC71"/>
<path d="M31.7166 185.328L60.5063 177.175C62.6333 185.636 64.3921 193.72 65.7623 201.204L39.8399 208.545C37.0825 201.454 34.3413 193.648 31.7166 185.328Z" fill="#BA8939"/>
<path d="M45.8691 130.287L19.595 137.727C17.8581 128.569 16.684 120.258 16.1111 113.197L35.9736 107.572C39.1882 113.885 42.546 121.577 45.8691 130.287Z" fill="#BA8939"/>
<path d="M35.9737 107.572L16.1113 113.197C14.9774 99.2682 16.1863 90.2074 20.0227 89.121C23.8591 88.0346 29.6361 95.1169 35.9737 107.572Z" fill="#221D17"/>
<path d="M19.2115 89.3579C19.4803 89.2818 19.7505 89.1981 20.0227 89.121C9.30989 92.1547 1.84519 102.987 -1.68696 118.237L-16.8667 122.536C-9.4802 106.427 3.02643 94.2209 19.2115 89.3579Z" fill="#221D17"/>
<path d="M20.0226 89.121C16.1862 90.2074 14.9772 99.2681 16.1112 113.197L-1.68703 118.237C1.84512 102.987 9.30981 92.1548 20.0226 89.121Z" fill="#BA8939"/>
<path d="M-1.68695 118.237L16.1113 113.197C16.6842 120.258 17.8582 128.569 19.5951 137.727L-3.94117 144.392C-4.25761 134.832 -3.47696 125.968 -1.68695 118.237Z" fill="#221D17"/>
<path d="M39.84 208.545L16.6124 215.123C12.6137 208.383 8.99649 200.825 5.927 192.632L31.7166 185.329C34.3414 193.648 37.0825 201.454 39.84 208.545Z" fill="#BA8939"/>
<path d="M-3.94118 144.393L19.5951 137.727C21.0202 145.228 22.8188 153.301 24.9772 161.72L-0.908702 169.051C-2.68872 160.525 -3.68419 152.224 -3.94118 144.393Z" fill="#473B2B"/>
<path d="M31.7166 185.328L5.92694 192.632C4.40607 188.578 3.02012 184.367 1.79082 180.027C0.746676 176.34 -0.151121 172.676 -0.908772 169.051L24.9771 161.72C25.8941 165.3 26.8748 168.94 27.919 172.627C29.1483 176.968 30.4181 181.212 31.7166 185.328Z" fill="#BA8939"/>
<path d="M-16.8667 122.536L-1.68692 118.237C-3.47693 125.968 -4.25758 134.832 -3.94114 144.393L-24.0193 150.078C-23.1211 140.174 -20.6711 130.837 -16.8667 122.536Z" fill="#BA8939"/>
<path d="M16.6124 215.123L-3.20022 220.734C-8.25092 214.292 -12.6182 206.946 -16.0693 198.861L5.92703 192.632C8.99652 200.825 12.6138 208.383 16.6124 215.123Z" fill="#221D17"/>
<path d="M-24.0194 150.078L-3.94123 144.392C-3.68425 152.224 -2.68877 160.525 -0.908756 169.051L-22.9815 175.301C-24.4429 166.685 -24.7514 158.19 -24.0194 150.078Z" fill="#221D17"/>
<path d="M5.92697 192.632L-16.0694 198.861C-17.7794 194.861 -19.2616 190.677 -20.4909 186.337C-21.5351 182.65 -22.3632 178.966 -22.9814 175.301L-0.908739 169.051C-0.151088 172.676 0.746709 176.34 1.79086 180.027C3.02015 184.367 4.4061 188.578 5.92697 192.632Z" fill="#BA8939"/>
<path d="M19.2114 89.3579C3.02641 94.221 -9.48022 106.427 -16.8667 122.536L-28.0275 125.697C-17.7271 108.713 -1.30389 95.3863 19.2114 89.3579Z" fill="#BA8939"/>
<path d="M64.9803 247.874C108.819 235.46 134.293 189.857 121.878 146.019C109.464 102.18 63.8613 76.7063 20.0228 89.121C-23.8158 101.536 -49.2899 147.138 -36.8752 190.976C-24.4605 234.815 21.1417 260.289 64.9803 247.874Z" stroke="#FADA91" stroke-width="2" stroke-miterlimit="10"/>
<path d="M64.9803 247.874C108.819 235.46 134.293 189.857 121.878 146.019C109.464 102.18 63.8613 76.7063 20.0228 89.121C-23.8158 101.536 -49.2899 147.138 -36.8752 190.976C-24.4605 234.815 21.1417 260.289 64.9803 247.874Z" stroke="#FADA91" stroke-width="2" stroke-miterlimit="10"/>
<path d="M64.9801 247.874C99.7698 238.022 117.908 194.497 105.494 150.659C93.079 106.82 54.8123 79.2689 20.0226 89.121C-14.7671 98.9731 -32.9056 142.498 -20.491 186.337C-8.07627 230.175 30.1904 257.727 64.9801 247.874Z" stroke="#FADA91" stroke-width="2" stroke-miterlimit="10"/>
<path d="M64.9802 247.875C87.4622 241.508 95.6233 200.808 83.2086 156.97C70.794 113.131 42.5046 82.7543 20.0226 89.121C-2.45933 95.4877 -10.6205 136.187 1.79421 180.026C14.2089 223.864 42.4982 254.241 64.9802 247.875Z" stroke="#FADA91" stroke-width="2" stroke-miterlimit="10"/>
<path d="M64.9801 247.875C73.0337 245.594 69.4984 208.207 57.0837 164.368C44.669 120.53 28.0762 86.8403 20.0226 89.121C11.9689 91.4017 15.5043 128.789 27.919 172.627C40.3336 216.466 56.9265 250.155 64.9801 247.875Z" stroke="#FADA91" stroke-width="2" stroke-miterlimit="10"/>
<path d="M123.37 184.894L-17.7649 224.862" stroke="#FADA91" stroke-width="2" stroke-miterlimit="10"/>
<path d="M124.469 159.066L-32.2405 203.444" stroke="#FADA91" stroke-width="2" stroke-miterlimit="10"/>
<path d="M118.061 135.363L-39.2122 179.901" stroke="#FADA91" stroke-width="2" stroke-miterlimit="10"/>
<path d="M104.246 113.758L-38.7798 154.262" stroke="#FADA91" stroke-width="2" stroke-miterlimit="10"/>
<path d="M80.1169 95.0746L-28.0264 125.7" stroke="#FADA91" stroke-width="2" stroke-miterlimit="10"/>
<path d="M83.7042 177.96C79.0049 179.059 75.7589 184.304 76.4894 189.616C75.7558 184.305 71.3102 180.859 66.6118 181.961C71.3111 180.862 74.5571 175.617 73.8265 170.305C74.5601 175.616 79.0057 179.062 83.7042 177.96Z" fill="#FFFDF2"/>
<path d="M100.541 165.131C94.5615 166.528 90.4863 173.583 91.4832 180.808C90.4863 173.583 84.7804 168.817 78.8013 170.215C84.7804 168.817 88.8556 161.763 87.8588 154.538C88.8556 161.763 94.5615 166.528 100.541 165.131Z" fill="#FFFDF2"/>
<path d="M23.2452 142.953C18.1715 144.139 14.667 149.802 15.4557 155.537C14.6637 149.803 9.86388 146.083 4.79111 147.272C9.86482 146.086 13.3694 140.422 12.5806 134.688C13.3727 140.421 18.1725 144.142 23.2452 142.953Z" fill="#FFFDF2"/>
<path d="M49.8366 108.669C43.3811 110.178 38.9812 117.794 40.0575 125.594C38.9812 117.794 32.8207 112.648 26.3652 114.158C32.8207 112.648 37.2206 105.032 36.1443 97.2315C37.2206 105.032 43.3811 110.178 49.8366 108.669Z" fill="#FFFDF2"/>
<path d="M264.5 163C266.985 163 269 160.985 269 158.5C269 156.015 266.985 154 264.5 154C262.015 154 260 156.015 260 158.5C260 160.985 262.015 163 264.5 163Z" fill="#F4CC71"/>
<path d="M283.5 94C285.985 94 288 91.9853 288 89.5C288 87.0147 285.985 85 283.5 85C281.015 85 279 87.0147 279 89.5C279 91.9853 281.015 94 283.5 94Z" fill="#2A1D71"/>
<path d="M121 114C124.314 114 127 111.314 127 108C127 104.686 124.314 102 121 102C117.686 102 115 104.686 115 108C115 111.314 117.686 114 121 114Z" fill="#59B194"/>
<path d="M97 33C98.6569 33 100 31.6569 100 30C100 28.3431 98.6569 27 97 27C95.3431 27 94 28.3431 94 30C94 31.6569 95.3431 33 97 33Z" fill="#84CAFE"/>
<path d="M19.5 62C21.9853 62 24 59.9853 24 57.5C24 55.0147 21.9853 53 19.5 53C17.0147 53 15 55.0147 15 57.5C15 59.9853 17.0147 62 19.5 62Z" fill="#F4CC71"/>
<path d="M43.5 76C44.8807 76 46 74.8807 46 73.5C46 72.1193 44.8807 71 43.5 71C42.1193 71 41 72.1193 41 73.5C41 74.8807 42.1193 76 43.5 76Z" fill="#F4CC71"/>
<path d="M235.5 184C236.881 184 238 182.881 238 181.5C238 180.119 236.881 179 235.5 179C234.119 179 233 180.119 233 181.5C233 182.881 234.119 184 235.5 184Z" fill="#F4CC71"/>
<path d="M290.5 194C294.09 194 297 191.09 297 187.5C297 183.91 294.09 181 290.5 181C286.91 181 284 183.91 284 187.5C284 191.09 286.91 194 290.5 194Z" fill="#84CAFE"/>
<path d="M164.5 27C166.985 27 169 24.9853 169 22.5C169 20.0147 166.985 18 164.5 18C162.015 18 160 20.0147 160 22.5C160 24.9853 162.015 27 164.5 27Z" fill="#2A1D71"/>
<path d="M122.309 0C123.36 3.63479 125.906 6.63392 129.237 8.29102C125.864 9.73874 123.203 12.5289 121.927 15.9893C120.875 12.3569 118.33 9.35933 115 7.70312C118.374 6.2538 121.034 3.46233 122.309 0Z" fill="#59B194"/>
<path d="M313.309 139C314.36 142.635 316.906 145.634 320.237 147.291C316.864 148.739 314.203 151.529 312.927 154.989C311.875 151.357 309.33 148.359 306 146.703C309.374 145.254 312.034 142.462 313.309 139Z" fill="#FE4DC7"/>
<path d="M80.5625 57.9962C77.6055 58.2458 75.2459 60.6054 74.9963 63.57C74.7468 60.6054 72.3872 58.2458 69.4302 57.9962C72.3872 57.7466 74.7468 55.3871 74.9963 52.4225C75.2459 55.3871 77.6055 57.7466 80.5625 57.9962Z" fill="#614DCC"/>
<path d="M74.9886 69C74.8373 69 74.7163 68.879 74.7163 68.7277V60.144C74.7163 59.9928 74.8373 59.8718 74.9886 59.8718C75.1398 59.8718 75.2608 59.9928 75.2608 60.144V68.7277C75.2608 68.879 75.1398 69 74.9886 69Z" fill="#614DCC"/>
<path d="M72.8484 58.276H64.2722C64.121 58.276 64 58.155 64 58.0038C64 57.8525 64.121 57.7315 64.2722 57.7315H72.8484C72.9997 57.7315 73.1207 57.8525 73.1207 58.0038C73.1207 58.155 72.9997 58.276 72.8484 58.276Z" fill="#614DCC"/>
<path d="M74.9886 56.1282C74.8373 56.1282 74.7163 56.0072 74.7163 55.856V47.2723C74.7163 47.121 74.8373 47 74.9886 47C75.1398 47 75.2608 47.121 75.2608 47.2723V55.856C75.2608 56.0072 75.1398 56.1282 74.9886 56.1282Z" fill="#614DCC"/>
<path d="M85.7127 58.2684H77.1289C76.9777 58.2684 76.8567 58.1474 76.8567 57.9962C76.8567 57.8449 76.9777 57.7239 77.1289 57.7239H85.7127C85.8639 57.7239 85.9849 57.8449 85.9849 57.9962C85.9849 58.1474 85.8639 58.2684 85.7127 58.2684Z" fill="#614DCC"/>
<path d="M197.563 173.996C194.606 174.246 192.246 176.605 191.996 179.57C191.747 176.605 189.387 174.246 186.43 173.996C189.387 173.747 191.747 171.387 191.996 168.422C192.246 171.387 194.606 173.747 197.563 173.996Z" fill="#FCFFFB"/>
<path d="M191.989 185C191.837 185 191.716 184.879 191.716 184.728V176.144C191.716 175.993 191.837 175.872 191.989 175.872C192.14 175.872 192.261 175.993 192.261 176.144V184.728C192.261 184.879 192.14 185 191.989 185Z" fill="#FCFFFB"/>
<path d="M189.848 174.276H181.272C181.121 174.276 181 174.155 181 174.004C181 173.853 181.121 173.732 181.272 173.732H189.848C190 173.732 190.121 173.853 190.121 174.004C190.121 174.155 190 174.276 189.848 174.276Z" fill="#FCFFFB"/>
<path d="M191.989 172.128C191.837 172.128 191.716 172.007 191.716 171.856V163.272C191.716 163.121 191.837 163 191.989 163C192.14 163 192.261 163.121 192.261 163.272V171.856C192.261 172.007 192.14 172.128 191.989 172.128Z" fill="#FCFFFB"/>
<path d="M202.712 174.268H194.129C193.977 174.268 193.856 174.147 193.856 173.996C193.856 173.845 193.977 173.724 194.129 173.724H202.712C202.864 173.724 202.985 173.845 202.985 173.996C202.985 174.147 202.864 174.268 202.712 174.268Z" fill="#FCFFFB"/>
<path d="M235.848 14.995C231.947 15.3242 228.835 18.4367 228.505 22.3473C228.176 18.4367 225.064 15.3242 221.163 14.995C225.064 14.6658 228.176 11.5533 228.505 7.64276C228.835 11.5533 231.947 14.6658 235.848 14.995Z" fill="#FCFFFB"/>
<path d="M228.495 29.5099C228.295 29.5099 228.136 29.3503 228.136 29.1508V17.8281C228.136 17.6286 228.295 17.469 228.495 17.469C228.694 17.469 228.854 17.6286 228.854 17.8281V29.1508C228.854 29.3503 228.694 29.5099 228.495 29.5099Z" fill="#FCFFFB"/>
<path d="M225.672 15.3641H214.359C214.16 15.3641 214 15.2045 214 15.0049C214 14.8054 214.16 14.6458 214.359 14.6458H225.672C225.871 14.6458 226.031 14.8054 226.031 15.0049C226.031 15.2045 225.871 15.3641 225.672 15.3641Z" fill="#FCFFFB"/>
<path d="M228.495 12.531C228.295 12.531 228.136 12.3714 228.136 12.1719V0.849185C228.136 0.649667 228.295 0.490051 228.495 0.490051C228.694 0.490051 228.854 0.649667 228.854 0.849185V12.1719C228.854 12.3714 228.694 12.531 228.495 12.531Z" fill="#FCFFFB"/>
<path d="M242.641 15.3541H231.318C231.119 15.3541 230.959 15.1945 230.959 14.995C230.959 14.7955 231.119 14.6359 231.318 14.6359H242.641C242.84 14.6359 243 14.7955 243 14.995C243 15.1945 242.84 15.3541 242.641 15.3541Z" fill="#FCFFFB"/>
</g>
<defs>
<linearGradient id="paint0_linear_3232_14221" x1="160" y1="-9.5" x2="160" y2="208" gradientUnits="userSpaceOnUse">
<stop stop-color="#0A071B"/>
<stop offset="1" stop-color="#302181"/>
</linearGradient>
<clipPath id="clip0_3232_14221">
<rect width="320" height="194" fill="white"/>
</clipPath>
</defs>
</svg>
