<?xml version="1.0" encoding="UTF-8"?>
<svg width="22px" height="18px" viewBox="0 0 22 18" version="1.1" xmlns="http://www.w3.org/2000/svg" xmlns:xlink="http://www.w3.org/1999/xlink">
    <!-- Generator: Sketch 51.2 (57519) - http://www.bohemiancoding.com/sketch -->
    <title>Group 20</title>
    <desc>Created with Sketch.</desc>
    <defs></defs>
    <g id="Правки-настроек" stroke="none" stroke-width="1" fill="none" fill-rule="evenodd">
        <g id="Настройки-3" transform="translate(-1092.000000, -110.000000)">
            <g id="Group-21" transform="translate(918.000000, 101.000000)">
                <g id="Group-20" transform="translate(173.000000, 6.000000)">
                    <rect id="Rectangle-6" x="0" y="0" width="24" height="24"></rect>
                    <path d="M18.2914876,16.0083773 L19.6545862,16.8895222 C17.9817548,19.4636479 15.1494489,21 12.0783984,21 C7.26041472,21 3.3125973,17.2150763 3.06687839,12.4696376 L2.20281462,13.4188495 L1,12.3297773 L3.78585217,9.26961826 L6.85416277,12.0484419 L5.76206489,13.2480609 L4.68590821,12.2735102 C4.83087365,16.2161804 8.09010524,19.3795578 12.0782739,19.3795578 C14.596737,19.3795578 16.9194221,18.1195727 18.2914876,16.0083773 Z M21.6836042,9.09833283 L20.9125724,10.1619421 C20.0592191,6.07779679 16.4225045,3 12.0783984,3 C9.31558628,3 6.74220064,4.23700627 5.01793387,6.39403517 L6.28837412,7.40410997 C7.70240986,5.63486434 9.81287751,4.62031798 12.0783984,4.62031798 C15.6418831,4.62031798 18.6250078,7.14600182 19.3230587,10.4969362 L18.1653279,9.66187309 L17.2134629,10.97502 L20.5719534,13.3967402 L23,10.0474206 L21.6836042,9.09833283 Z" id="Shape" fill="#646464" fill-rule="nonzero" opacity="0.5"></path>
                </g>
            </g>
        </g>
    </g>
</svg>