<svg width="304" height="194" fill="none" xmlns="http://www.w3.org/2000/svg">
  <g clip-path="url(#a)">
    <path fill="#DAEAFF" d="M0 0h304v194H0z" />
    <path d="M289.52 106.2a10.43 10.43 0 1 0 0-20.86 10.43 10.43 0 0 0 0 20.86Z" fill="#A9D7FF" />
    <path d="M296.68 91.72c.87 2.38.49 3.83-.72 4.09-1.21.26-1.23-1.5-2.72-3.61-1.22-1.71-1.43-3.05-.21-3.3s2.91.76 3.66 2.82h-.01Z" fill="#CEE8FF" />
    <path d="M210.43 200.86a10.43 10.43 0 1 0 0-20.86 10.43 10.43 0 0 0 0 20.86Z" fill="#A9D7FF" />
    <path d="M217.59 186.38c.87 2.38.49 3.83-.72 4.09-1.21.26-1.23-1.5-2.72-3.61-1.22-1.71-1.43-3.05-.21-3.3s2.91.76 3.66 2.82h-.01Z" fill="#CEE8FF" />
    <path d="M165 174a6 6 0 1 0 0-12 6 6 0 0 0 0 12Z" fill="#A9D7FF" />
    <path d="M169.12 165.67c.5 1.37.28 2.2-.41 2.35-.7.15-.71-.86-1.57-2.07-.7-.99-.82-1.76-.12-1.9.7-.15 1.67.44 2.1 1.62Z" fill="#CEE8FF" />
    <path d="M206.5 122a9.5 9.5 0 1 0 0-19 9.5 9.5 0 0 0 0 19ZM91.96 30.92a13.96 13.96 0 1 0 0-27.92 13.96 13.96 0 0 0 0 27.92Z" fill="#A9D7FF" />
    <path d="M101.55 11.54c1.16 3.19.66 5.13-.97 5.47-1.63.34-1.64-2-3.65-4.83-1.63-2.29-1.91-4.08-.28-4.42 1.63-.34 3.9 1.02 4.9 3.78Z" fill="#CEE8FF" />
    <path d="M51.98 19.96a6.98 6.98 0 1 0 0-13.96 6.98 6.98 0 0 0 0 13.96Z" fill="#A9D7FF" />
    <path d="M56.77 10.27c.58 1.6.33 2.57-.48 2.74-.81.17-.82-1-1.82-2.41-.82-1.15-.96-2.04-.14-2.21.82-.17 1.95.51 2.45 1.89l-.01-.01Z" fill="#CEE8FF" />
    <path d="M224.73 31.19a8.4 8.4 0 1 0 0-16.79 8.4 8.4 0 0 0 0 16.79Z" fill="#A9D7FF" />
    <path d="M230.49 19.54c.7 1.92.4 3.09-.58 3.29-.97.2-.98-1.2-2.19-2.9-.98-1.38-1.15-2.45-.16-2.65.98-.2 2.34.6 2.94 2.27l-.01-.01Z" fill="#CEE8FF" />
    <path d="M103.5 106a9.5 9.5 0 1 0 0-19 9.5 9.5 0 0 0 0 19ZM244.34 37.18a4 4 0 1 0 0-8 4 4 0 0 0 0 8ZM169 41a4 4 0 1 0 0-8 4 4 0 0 0 0 8Z" fill="#A9D7FF" />
    <path d="m-13.06 50.15 6.58-.78a6.18 6.18 0 0 1 6.86 5.41l.15 1.23-18.85 2.23-.15-1.23a6.18 6.18 0 0 1 5.41-6.86Z" fill="#6D737D" />
    <path d="m.53 56.01-18.85 2.23-.25-2.13a5.18 5.18 0 0 1 .1-1.84c8.14-.11 10.71-2.87 11.51-4.84l1.4-.16a5.26 5.26 0 0 1 5.84 4.6l.25 2.14Z" fill="#60656E" />
    <path d="M25.63 66.48h-.38v87.99h-50.2a9.76 9.76 0 0 1-9.76-9.76V66.48c0-9.22 12.14-9.89 17.74-10.6l26.69-3.4a14.13 14.13 0 0 1 15.9 14Z" fill="#93A3A2" />
    <path d="M25.63 66.48h-.38v87.99h-50.2a9.76 9.76 0 0 1-9.76-9.76V89.85c26.36-10.47 22.17-25.11 16.34-33.8l1.4-.17 26.69-3.4a14.13 14.13 0 0 1 15.9 14Z" fill="#879696" />
    <path d="M25.63 66.48h-.38v13.05c-8.19 4.8-19.73 8.27-19.6 1.61.23-11.63-4.4-21.96-11.75-26.65l15.82-2.01a14.13 14.13 0 0 1 15.9 14ZM25.25 102.83v51.64h-50.2c-.38 0-.76-.02-1.13-.07 6.99-7.56 12.14-17.52 8.13-28.92-7.46-21.2 29.84-22.76 43.2-22.64Z" fill="#738080" />
    <path d="M45.12 39.82s0 1.08-1.49.94c-1.48-.15-.35-2.53-.35-2.53l1.84 1.59ZM10.85 38.97 2.2 48.73S1.2 50.47 3.4 51.38c2.2.91 7.46 1.05 7.46 1.05l4.3-15.13-4.3 1.67Z" fill="#34784D" />
    <path d="m15.06 37.62-4.2 14.81s-3.88-.1-6.37-.71c-.77-.52-1.19-1.15-1.27-1.95-.17-1.6 8.87-10.4 8.87-10.4l2.97-1.75Z" fill="#245B34" />
    <path d="M-1.3 73c4.41-6.28 12.27-22.05 13.35-34.63.51-7.7 6.94-14.22 14.14-14.17 2.4.01 6.4-.2 8.72.67C41 26.7 45.11 32.6 44.2 38.64c-.3 3.48-.45 6.02.32 12.32.83 6.55 5.72 18.06 9.58 24.37l-55.4-2.28v-.04Z" fill="#CE8000" />
    <path d="M47.58 75.01c-3.8-7.5-4.28-17.16-3.06-24.05v-.04l-.15-1.22c-.24-1.78-.63-4.86-.62-5.04-1.95.55-28.02.35-28.11 1.56-.55 3.04-1.16 10.22-2.22 13.13-1.54 3.17-4.92 5.44-5.38 9.07.53-.5 1.3-1.04 1.97-1.22.14 1.46-1.19 4.94-2.34 6.22l39.91 1.64V75Z" fill="#C07500" />
    <path d="m41 74.74 10.56.44c-3.11-4.36-7.06-11.13-7.6-18.2-.05 0-4.1 8.38-2.97 17.76Z" fill="#C07500" />
    <path opacity=".6" d="m8.73 73.42 14.52.6c.8-9.42.36-18.97-2.22-28.14-1.87-.2-3.58 1.06-4.89 2.3.47 2.77.02 5.62-.76 8.3-1.65 5.82-3.73 6.74-3.77 9.54.04.65.67 4.16-2.88 7.4Z" fill="#A05A07" />
    <path d="m34.13 74.46 11.8.49c-1.69-5.76-2.17-10.37-1.95-17.34.1-2.39.17-5.2.54-6.65v-.04l-4.46.7c-7.36 9.17-6.2 20.35-5.93 22.84Z" fill="#A05A07" />
    <path d="M11.91 65.05s.82-1.44 5.73-1.08c4.9.36-5.73 5.5-5.73 5.5s-1.3-2.5 0-4.42Z" fill="#34784D" />
    <path d="M15.15 72.3c-.07-.43 1.22-7.4 1.22-7.4-.4-.02-2.72.47-2.9 1.04-1.62 4.57 1.06 6.13 1.68 6.36Z" fill="#D0D1CB" />
    <path d="M15.36 72.75a189 189 0 0 1 .58-7.7c-.4-.01-1.85.63-2.03 1.2-1.62 4.57.83 6.27 1.45 6.5Z" fill="#B4B296" />
    <path d="m39.72 77.24-28.2-1.16c5.42-7.7 3.57-17.98 5.49-26.67 1.6-2.22 20.03 8.16 19.86 9-.52 5.2 1.88 17.56 2.85 18.83Z" fill="#E8D4BA" />
    <path opacity=".4" d="M39.72 77.24c-.97-1.29-3.33-13.63-2.82-18.82.14-.87-18.3-11.23-19.87-9.01-.88 3.97-.97 8.28-1.3 12.55a3.7 3.7 0 0 1-.07.73v.05l-.01.1c1.71 2.43 4.7 12.56-1.28 7.25a19.98 19.98 0 0 1-2.8 6l28.15 1.16Z" fill="#CEB79B" />
    <path opacity=".4" d="M39.72 77.24c-.97-1.29-3.33-13.63-2.82-18.82.14-.87-18.3-11.23-19.87-9.01-.71 3.21-.9 6.68-1.13 10.16 2.15 3.15 3.41 8.53 3.63 10.84.5 4.08-3.95 2.46-5.39.37a19.5 19.5 0 0 1-2.61 5.3l28.2 1.16Z" fill="#CEB79B" />
    <path d="M53.53 77.41s-.59.52-1.51 1.28c-2.06 1.67-5.8 4.53-8.58 5.6-2.19.83-3.79.55-3.53-2.3.5-5.4 0-8.86-.38-10.56l2.48-.25-.19-1.7s5.53.92 11.17 2.67c.64 2.75.54 5.26.54 5.26Z" fill="#3C8454" />
    <path d="M41.82 69.48s13.53 2.26 19.87 6.4C68.03 80 75 81.05 77.31 86.24c2.3 5.2 6 3.9 6.74 5.75.74 1.85 8.56 5.6 9.66 11.63.56 3.07-14.65 17.42-28.88 1.28C50.6 88.77 43.6 85.67 43.6 85.67l-1.77-16.2Z" fill="#3E8E5B" />
    <path d="M64.83 104.91C50.6 88.77 43.6 85.67 43.6 85.67l-1.77-16.2s13.53 2.28 19.87 6.4a39.2 39.2 0 0 0 3.97 2.24c.13.15 5.24 5.89 2.63 9.1-2.63 3.25 2.95 1 7.81 2.02 1.15.24 2.4.3 3.68.31 1.88 1.4 3.77 1.2 4.27 2.46.74 1.85 8.56 5.6 9.66 11.63.56 3.08-14.65 17.43-28.88 1.28Z" fill="#3C8454" />
    <path d="M66.29 90.96s5.67-2.55 12.52-.73c6.86 1.82-7.22 4.37-7.22 4.37l-5.3-3.64Z" fill="#3B754B" />
    <path d="M67.31 115.67s4.82 4.27 9.09 7.36a11.6 11.6 0 0 0 13.22 0c3.22-2.41 9.5-15.34.64-24.89-8.86-9.54-23.5-2.93-23.5-2.93l.55 20.46Z" fill="#3E8E5B" />
    <path d="M77.15 123.52c-.25-.15-.5-.31-.75-.5-4.27-3.08-9.09-7.35-9.09-7.35l6.84-22.45c1.9-.26 4.03-.35 6.2-.06.11.21 7.93 14.33-3.2 30.36Z" fill="#3C8454" />
    <path d="M74.24 121.4c-3.58-2.77-6.93-5.73-6.93-5.73l3.6-11.78 9.37-6.28s1.4 17.13-6.04 23.8Z" fill="#3B754B" />
    <path d="M60.26 152.28s1.48 6.87 1.26 10c-.23 3.12.71 13.13 2.75 16.89 2.03 3.75 2.54 18.16 2.54 18.16h-77.78s2.26-32.92 12.31-44.4c10.06-11.46 58.92-.65 58.92-.65Z" fill="#3E8E5B" />
    <path d="M66.8 197.34H27.1s-.31-4.21.1-8.55c1.54-16.42 34.53-21.1 27.7-22.28-6.83-1.18-13.03-2.17-22.25 0-9.22 2.18-24-5.34-23.87 13.45.1 15.12-8.03 17.16-11.21 17.38-.77.05-1.25 0-1.25 0h-7.28s2.26-32.93 12.31-44.4c.37-.42.8-.82 1.27-1.18l57.79 1.17c.36 1.77 1.3 6.8 1.12 9.34-.23 3.13.71 13.14 2.74 16.9 2.04 3.75 2.54 18.17 2.54 18.17Z" fill="#3C8454" />
    <path d="M66.8 197.34H50.07c9.47-8.33 13.05-13.81 11-18.16-2.04-4.36.57-10.27.57-10.27l.19-.17c.42 3.86 1.24 8.22 2.44 10.43 2.03 3.75 2.54 18.17 2.54 18.17ZM61.64 166.7c-.57-.27-10.82-5.16-30.26-3.2-13.81 1.38-29.18 5.11-37.52 5.41 1.35-4.73 3.04-9.23 5.16-12.74l61.8-1.02c.39 2.26.83 5.32.7 7.13-.07.95-.03 2.56.12 4.43ZM28.77 197.34l8.67-17.75s2.75 1.68 1.9 5.85l-3.8 11.9h-6.77Z" fill="#3B754B" />
    <path d="M22.2 197.34s-6.62-7.72-3.33-8.55c3.3-.82 6.75 8.57 6.75 8.57l-3.41-.02Z" fill="#3C8454" />
    <path d="M-7.52 98.8s-.78 18.13 3.6 24.02c4.38 5.9 1.47 4.5 1.72 7.05.25 2.56-.15 5.5 1.9 9.48 2.04 4 1.64 13.6 1.64 13.6s52.87 7.23 58.92-.67c6.05-7.89 1.38-9.52 1.26-12.93-.12-3.41-1.54-6.07-1.35-11.96.19-5.9 4.43-18.47 2.92-26.35-1.5-7.87-16.12-30.5-16.12-30.5s-21.83 3.48-36.56.06C1.46 68.53-7.52 98.8-7.52 98.8Z" fill="#3E8E5B" />
    <path d="M61.52 139.35c.12 3.4 4.8 5.04-1.26 12.93-6.05 7.9-58.92.66-58.92.66s.13-3.1-.13-6.5c0 0 32.67 12.14 30.17 3.97-2.5-8.16 5.58-10.17.38-17.12-10.8-14.45 2.1-15.76 2.16-27.55.04-11.79 7.2-20.56 7.2-20.56l13.93-1.33c3.66 6.4 7.33 13.45 8.05 17.2 1.5 7.87-2.74 20.44-2.93 26.34-.2 5.9 1.23 8.55 1.35 11.96Z" fill="#3C8454" />
    <path opacity=".48" d="M61.52 139.35c.12 3.4 4.8 5.04-1.26 12.93-2.83 3.7-15.97 4.08-29.12 3.43 6.45-1.45 10-4.26 9.66-8.25-.54-6.59-4.7-9.1 1.98-19.87 5.17-8.33-3.14-10.23-6.75-17.69-6.73-13.87-4.48-27.15-4.48-27.15l.48-10.78c8.37-.39 14.94-1.43 14.94-1.43s14.61 22.63 16.12 30.5c1.51 7.88-2.73 20.46-2.92 26.35-.2 5.9 1.22 8.55 1.35 11.96Z" fill="#3B754B" />
    <path d="M61.52 139.35c.12 3.4 4.8 5.04-1.26 12.93-2.25 2.94-10.98 3.78-21.05 3.68 7.68-2.58 11.08-3.37 9.64-7.1-1.24-3.19-2.54-4.05 4.73-12.8 7.27-8.74 4.2-13.84-2.27-21.88-8.46-10.51-2.27-23.21-2.27-23.21l8.21-3.17c2.82 5.18 5.27 10.27 5.84 13.25 1.51 7.87-2.74 20.45-2.93 26.34-.19 5.9 1.23 8.56 1.35 11.97Z" fill="#3B754B" />
    <path d="M7.69 121.97a44.77 44.77 0 0 0 12.68 33.01 411.33 411.33 0 0 1-19.03-2.04s.4-9.6-1.65-13.59c-2.04-3.99-1.64-6.93-1.89-9.48-.25-2.55 2.66-1.16-1.72-7.05-4.38-5.9-3.6-24.01-3.6-24.01S1.46 68.53 10.41 70.6c3.4.79 7.16 1.2 10.96 1.39l14.78 31.42S8.5 96.38 7.69 121.97Z" fill="#3C8454" />
    <path d="M5.23 135.42c-.13 3.1-2.45 5.14-4.69 6.4-.22-.94-.5-1.79-.84-2.47-2.05-3.99-1.64-6.93-1.9-9.48-.05-.54.04-.9.17-1.2 2.19.42 7.46 1.91 7.25 6.75Z" fill="#3B754B" />
    <path d="M18.7 77.9s-6.91 2.46-6.22 10.35c.7 7.88 9.9 14.75 19.1 6.56 9.18-8.2-12.89-16.9-12.89-16.9Z" fill="#3E8E5B" />
    <path d="M-1.57 126.75s8.85-2.02 10.33-31.48C9.23 85.83-2.7 124.2-2.7 124.2l1.13 2.55Z" fill="#3B754B" />
    <path d="M2.98 101.66S1 120.19-4.32 122.22c-1.61-2.64-2.44-7.05-2.86-11.34l10.16-9.22Z" fill="#3B754B" />
    <path d="M60.26 152.28s1.25-.89 1.58.42c.32 1.3 1.5 7.72 0 8.7-1.5.98-6.13.22-12.37 1.3-9.55 1.64-20.97 2.7-31.02.4-8.52-1.96-21.29-3.38-21.29-3.38s-1.69-2.2.44-3.53c2.13-1.33-1.02-6.05.83-6.97 1.86-.9 14.48 5.52 30.85 6.39 16.9.9 30.98-3.33 30.98-3.33Z" fill="#D58500" />
    <path d="M61.84 161.4c-1.51.98-6.13.23-12.37 1.3-9.55 1.64-20.97 2.7-31.02.4-8.52-1.95-21.29-3.38-21.29-3.38s-1.69-2.2.44-3.53c2.13-1.33-1.02-6.05.83-6.96 1.59-.78 11.05 3.8 23.99 5.7 2.08 1.97 5.08 3.64 9.39 4.6 17.88 3.98 21.85-5.7 21.85-5.7 4.12-.8 6.6-1.55 6.6-1.55s1.25-.89 1.57.42c.33 1.31 1.5 7.72 0 8.7Z" fill="#C77500" />
    <path d="M37.05 164.23c-6.23.41-12.65.22-18.6-1.13-8.52-1.95-21.29-3.38-21.29-3.38s-1.69-2.2.44-3.53c2.13-1.33-1.02-6.05.83-6.96 1.37-.67 8.58 2.64 18.82 4.77.59 1.02.9 2.1.75 3.22-.73 5.58 18.81 7 19.05 7ZM61.84 161.4c-1.04.68-3.54.53-7.03.72 8.9-5.34-.8-6.15 3.28-9.26 1.4-.35 2.17-.58 2.17-.58s1.25-.89 1.58.42c.32 1.31 1.5 7.72 0 8.7Z" fill="#A05A07" />
    <path d="m17.48 78.82 13.7 16.16s6.2-9.37 7.82-16.55c1.64-7.23-.6-9.23-.6-9.23S18.95 74.3 13.8 65.6c0 0-1.5.57-1.07 4.53.45 3.96 4.74 8.68 4.74 8.68Z" fill="#C8CBB8" />
    <path opacity=".4" d="M13.91 72.97c4.2 5.77 9.89 6.2 14.85 3.38.67-1.35 1.1-2.46 1.25-2.91-2.77-.74-5.14-1.46-7.13-2.08-1.77.42-9.73 2.19-9.8-2.9a8.98 8.98 0 0 0 .83 4.51Z" fill="#C2C2AC" />
    <path d="M18.3 72.75s.4-.2.4.34-.68 5.58-.68 5.58L29.35 91.5l-1.74-.74-10.13-11.93.82-6.08Z" fill="#49AD6D" />
    <path d="M11.91 65.05s-1.9 2.5 6.39 7.7l-.85 6.3-7.04-8.45s.03-3.18 1.5-5.55Z" fill="#3C8454" />
    <path d="M16.67 71.68s-5.18 4.39-5-4.99c0-.5.02-.94.06-1.31l.13-.24c-.22.43-.87 2.58 4.81 6.54Z" fill="#3CA662" />
    <path d="m40.71 64.5 4.53 4.25s-5.9 5.53-6.24 9.68l-.6-9.23 2.31-4.69Z" fill="#3B754B" />
    <path d="M45.24 68.75s.29.02.16.5c-.13.46-5.53 5.63-6.22 8.35l.16-.96s2.85-6.01 5.9-7.89Z" fill="#3E8E5B" />
    <path d="M25.25 100.05H9.62v1.13h15.63v-1.13Z" fill="#295E3C" />
    <path d="m15.11 104.51.9-4.1 2.35-.02.74 3.94-3.99.18Z" fill="#8D9085" />
    <path d="m9.65 102.58 14.98 1.33-.31 8.59-15.53-1.04.86-8.88Z" fill="#C8CBB8" />
    <path d="M23.9 103.84c-.01 3.66-2.58 6.8-6.28 8.21l-8.83-.6.86-8.87 14.25 1.27Z" fill="#D6D9C4" />
    <path d="M21.65 103.65c-.93 3.58-4.7 6.25-9.22 6.25-1.21 0-2.37-.19-3.44-.54l.66-6.78 12 1.07Z" fill="#E5E8D2" />
    <g opacity=".66">
      <path d="M31.02 96.76H31c-.23.92-.2 3.4-.3 3.68-.62 1.69.56 4.23 1.27 6.3.13.4.1.89-.13 1.3 2.82-1.53 6.5-4.78 4.8-7.65.02 0 7.93-4.64 1.35-13.52a5 5 0 0 0 .34-5.08c.25 0 2.37-1.3 2.83-4 .65-3.77-1.64-10.88-1.64-10.88s-6.54 11.7-11.27 11.65c-.46.96 1.63 16.74 2.75 18.2Z" fill="#949984" style="mix-blend-mode:multiply" opacity=".6" />
    </g>
    <path d="M29.7 106.2s4.27-1.9 7.36-.17c0 0-.78 3.5-3.46 5.84 0 0-3.24-2.43-3.9-5.67ZM29.7 125.84s4.27-1.9 7.36-.17c0 0-.78 3.51-3.46 5.84 0 0-3.24-2.42-3.9-5.67ZM29.7 147.11s4.27-1.9 7.36-.17c0 0-.78 3.51-3.46 5.84 0 0-3.24-2.42-3.9-5.67Z" fill="#3B754B" />
    <path d="M29.28 105.56s4.27-1.9 7.35-.17c0 0-.77 3.5-3.45 5.84 0 0-3.24-2.42-3.9-5.67ZM29.28 125.2s4.27-1.89 7.35-.16c0 0-.77 3.5-3.45 5.84 0 0-3.24-2.43-3.9-5.68Z" fill="#295E3C" />
    <path d="M30.55 125.82s2.79-1.24 4.8-.1c0 0-.5 2.28-2.25 3.8 0 0-2.11-1.58-2.55-3.7Z" fill="#3E8E5B" />
    <path d="M29.28 146.47s4.27-1.89 7.35-.16c0 0-.77 3.5-3.45 5.83 0 0-3.24-2.42-3.9-5.67Z" fill="#295E3C" />
    <path d="M30.55 147.06s2.79-1.24 4.8-.11c0 0-.5 2.29-2.25 3.81 0 0-2.11-1.58-2.55-3.7ZM30.55 106.2s2.79-1.24 4.8-.11c0 0-.5 2.29-2.25 3.81 0 0-2.11-1.58-2.55-3.7Z" fill="#3E8E5B" />
    <path d="M24.87 64.61c3.78 2.66 10.64 2.52 14.61-.65 3.68-2.87 4.6-14.47 4.8-15.45a245.2 245.2 0 0 0-1.1-14.12c-1.42-9.5-19.73-10.4-24.9 1.06-1.18 2.52-6.88 19.63 6.59 29.16Z" fill="#E8D4BA" />
    <path opacity=".4" d="M29.52 40.07c3.16 1.59 3.22 7.7 1.28 6.1-2.62-2.2-8.05-3.09-8.19-3.47-.16-.5 3.06-3.62 6.92-2.63Z" fill="#CEB79B" />
    <path opacity=".4" d="M38.98 58.84c.42.01-5.25 10.17-16.52 1.09-2.47-1.98-3.7-12.62-3.76-14.64-.03-2-2.77-1.32-2.31-3 .49-7.08 2.84-9.33 5.7-10.87.48-.25 2.9.36 3.46.88-.1.36-3.74 2.13-4.53 7.7-.48 4.05 1.68 27.72 14.52 14.4 1.37-1.33 1.52 4.34 3.44 4.44Z" fill="#CEB79B" />
    <path opacity=".4" d="M32.48 55.8c-.08.77 8.15 4.33 9.34 3.6.7-.6 1.88-7.53 2.19-10.07.13-1.03-.13-8.29-.98-7.92-.95.39-6.73-.03-5.95 1.53-1.35.2-2.35 1.1-1.87 2.52.38 2.16-.44 4.66.83 6.59 1.73 1.88-1.44 3.23-3 3.43-.2.06-.48.12-.56.32Z" fill="#CEB79B" />
    <path opacity=".4" d="M22.46 59.93C17.76 54.16 19 49.2 19.8 42.56c1.52 6.95 3.94 13.97 10 8.92-1.58 4.05 2.45 1.13 4.38 3.83-2.32.8.76 1.55 1.77 1.63 1.33.24-7.36 9.64-13.49 2.99Z" fill="#CEB79B" />
    <path opacity=".4" d="M32.56 57.23c2.43 1.31 8.72 3.31 9.09 3.08.72-1.24.8-2.92 1.16-4.31.9-4.55 1.25-9.24 1.09-13.88.13-.98-1.12-.6-1.7-.58-1.67.24-3.17.96-4.8 1.25-.67.09-1.4.17-1.84.67-.84 1.46-.14 3.4-.25 5.04-.1 1.3.57 2.38 1.1 3.5.61 1.59-.45 1.81-1.31 2.76-1.82 1.12-3.32-2.17-5.29-1 .62 1.33 2.09 2.06 2.74 3.47Zm7.72-12.5c3.06.07 2.95 2.87 1.98 5.02-.5 1.32-.89 2.67-1.35 4-.03.15-.44.34-1.07.51 1.1-2.9-3.53-4.5-3.61-7.33-.43-2.21 2.5-2.18 4.05-2.2Z" fill="#CEB79B" />
    <path opacity=".4" d="M41.92 59.72c-.32 1.4-7.35-1.5-9.08-2.34 1.67-.25 3.41-.22 5.03-.85.1-.24-.2-1.06.13-1.05 3.5 1.6 5.04-3.44 5.02-6.77.01-2.4.69-6.75.9-6.43.23 4.5-.53 12.29-2 17.44Z" fill="#CEB79B" />
    <path opacity=".4" d="M18.7 45.31c1.02 1.72-.12 3.96.16 5.94.19 1.46.55 2.89 1.08 4.25.42-.1.9-.16 1.37-.21-.82-5.05-.33-12.05.42-12.5 1.01-.58 7.68-.42 8.82.1.26.12.16.95.15 1.26.85.44 1.26-.3 1.7-.67 1.74-1.38 1.96-.8 4.02.8.76.54 1.5-.03 3.04-.35 1.15-.22 4.23-.07 4.43-.02 0 0 .37-5.16.31-5.3-.1-.26-1.66-8.19-6.33-8.13-3.07.03-14.33-1.57-17.73 1.55-4.11 3.8-3.6 9.14-3.71 10.32-.5 1.62 1.62 1.86 2.27 2.96ZM27.55 60.34c-1.03-.63-5.68 3.77-5.93-3.9.11.01.63-1.11.9-.67 1.97 3.39 4.65 4.13 5.03 4.57Z" fill="#CEB79B" />
    <path opacity=".3" d="M23.27 31.49c-1.31.42-4.5 1.9-5.3 3.32-1.44 2.4-1.39 5.9-1.54 6.99-.48 1.66 3.14 6.24 3.69 6.57a21.03 21.03 0 0 1 3.15-16.88Z" fill="#D58500" />
    <path d="M11.86 46.3c.08 1.89.71 3.75 1.13 5.63.98 2.9 4.28 2.16 5.31-.26 1.32-2.7 1.09-8.9-2.01-10.3-.56-.14-1.1 0-1.66.13-2.43.23-2.82 2.77-2.77 4.8Z" fill="#E8D4BA" />
    <path d="M12.85 51.45c0 .05.15.72.38 1.11.15.23.72 1.44 2.5 1.25 4.25-.48 3.77-8.37 1.92-11.4-.14-.23-.88-1.34-2.28-1.15-.42.05-1.17.3-1.6.44 2.1.43 3.23 2.94 3.15 4.86-.1 1.45-.46 4.62-1.37 5.63-.19.2-2.5-.6-2.7-.74Z" fill="#CEB79B" />
    <path opacity=".4" d="M15.36 45.36c.11 1.14-.68 6.86-2.31 6.84.33.57.78 1.13 1.4 1.42 3.6-.28 4.87-4.28 4.22-7.44-.1-.52-.6-4.54-3.3-4.92-.46-.07-.94.27-1.35.37 1.8.32 2.83 2.55 3.05 4.17-.17-1.73-3.25-4.8-4.68-2.74a3.8 3.8 0 0 1 2.38 2.1c.27-.09.5.01.6.2Z" fill="#CEB79B" />
    <path d="M13.15 45.78c.21.9 1.04-.27 1.64-.56 1.53-.25-.1 2.5-.28 3.01-.3.86.9 3.49 1.7 1.75-.24-.41-1-.67-.85-1.18.13-.55.89-1.53 1.28-1.76.27-1.7-1.02-3.06-2.52-3.48-.9-.13-1.05 1.52-.97 2.22Z" fill="#CEB79B" />
    <path opacity=".4" d="M11.83 46.3c.02.72 0 1.21.19 1.98.78-1.02 2.42-3.46 3.19-3.04.61.34-.47 3.74-.25 3.48.53-.6 1.33-1.92 1.63-1.66 1.32-3.28-5.2-8.18-4.76-.75Z" fill="#CEB79B" />
    <path d="M14.75 53.75c-.13.44-.64 1.9-1.3 1.43-.75-.55 1.83-2.78 1.83-2.78s-.7-2.07-2.79.19c-2.73 2.95.35 5.25 1.7 3.8a8.63 8.63 0 0 0 1.42-2.65 3.3 3.3 0 0 1-.86 0Z" fill="#676D54" />
    <path opacity=".4" d="M14.75 53.75c-.13.44-.64 1.9-1.29 1.43-.76-.55 1.83-2.78 1.83-2.78s-.06-.16-.2-.36c-.32.4-.68.76-1.05 1.1-.43.42-.88.93-1.41 1.18-.37.18-.82.26-1.15-.04-.54 2.04 1.64 3.26 2.7 2.1a8.63 8.63 0 0 0 1.42-2.65c-.21.04-.43.06-.84.02Z" fill="#474C2F" />
    <path d="M14.75 53.75c-.13.44-.64 1.9-1.3 1.43-.75-.55 1.83-2.78 1.83-2.78s-.02-.07-.08-.17c-.4.14-.73.55-1.02.86a4.7 4.7 0 0 0-1.04 1.52c-.2.55-.38 1.22-.18 1.8.04.1.1.27.18.42.38 0 .75-.13 1.04-.44a8.64 8.64 0 0 0 1.42-2.66c-.21.03-.43.05-.85.01Z" fill="#474C2F" />
    <path opacity=".69" d="M12.45 53.6c.5-.02 1-.23 1.4-.55.35-.3.79-.74 1.02-1.26-.42-.36-1.16-.52-2.39.8-.25.29-.46.56-.62.83.17.12.39.17.6.17Z" fill="#949984" />
    <path d="M37.7 45.1c.73-.05 1.67-.2 2.28.21.3.53-.2 1.2-.64 1.48-1.04.7-2.96-.95-1.63-1.68ZM27.57 44.45c1.22.99-1.03 2.3-1.89 1.44-.41-.33-.83-1.08-.45-1.58.67-.36 1.64-.05 2.35.14Z" fill="#3E875B" />
    <path d="M27.57 44.45c1.11.78-.55 2.06-1.52 1.61.36-.07.95-.16 1.06-.58-.06-.9-1.4-.53-2.01-.66-.09-1.17 1.8-.51 2.47-.37Z" fill="#3B754B" />
    <path d="M30.21 46.12c-.1-.05-3.1-2.79-6.61-1.3-.32.14-.55-.34-.23-.48 3.99-1.72 6.73 1.17 7 1.27.33.15.15.61-.16.51Z" fill="#676D54" />
    <path d="M39.32 46.79c-.41.23-.88.2-1.26.04 1.39-.46.37-1.24-.79-.93-.16-.88.82-.86 1.45-.82 1.55-.22 1.82.88.6 1.7Z" fill="#3B754B" />
    <path d="M35.89 46.36c.11-.04 3.23-2.31 6.2-.26.27.16.58-.25.3-.42-3.36-2.28-6.28.1-6.57.16-.32.07-.2.6.07.51Z" fill="#676D54" />
    <path d="M30.57 54.26c.24.17-.02.56-.21.4-.54-.43-1.01-1.07-1.03-1.77-.02-.52.05-1.14.53-1.48.25-.14.42.22.23.37-.32.19-.34.77-.31 1.08 0 .54.38 1.07.8 1.4Z" fill="#CEB79B" />
    <path d="M36.6 52c.09.48.76 1.64.08 1.93-2.12.8-1.06 1.72-3.34 1.23-.27-.06-.84-1.45-2.55-1.25-.27.04-.39-.37-.1-.43 1.67-.2 2.41.84 2.86 1.26 2.06.6 2.18-2.19 1.67-3.58-.1-.25.27-.46.37-.23.37.84.35 1.83.2 2.76.98-.83.87.7.38-1.6-.03-.26.35-.36.43-.09ZM35.55 47.6c-.07.62-.14 1.29-.04 1.92.04.15-.12.26-.25.25-.66-.5.23-2.96-.2-3.9-.14-.4-.23-2.04.29-2.14.3.13.24.22.23.28-.43 1.26.26 2.34-.03 3.58Z" fill="#CEB79B" />
    <path d="M15.77 55.02c1.09 2.97-.22 14.18 4.11 13.82.2.43 1.5 3.91 2.7 3.13.4 1.43.93 2.86 1.8 4.08 1.91 2.86 6.7 2.78 9.5 2.36 3.77-.36 4.64-5.07 4.52-7 .59-.17 1.94-.43 2.55-2.71 3.42-4.38 3.78-8.24 3.86-13.88.04-3.06-.78-7.8-.81-11.85.06-1.65-.24-3.97-.28-3.14-.08 1.99.38 3.3-.41 5.2.35.28.53.76.78 1.21l-.8-.59-.05 1.14c.15.12.33.64.37.8l-.4-.29c-.37 2.5.58 6.12-1.3 7.98.25 1.36-.44 3-1.2 4.16.46-.96-.75-3.2-2.06-3.53.31.17.33.84.33.89-.1-.16-.69-1.37-1.1-1.3-2.46.62-5.63.35-8.3-.25l-1.3.82c.11-.42.3-.66.62-.87-3.72-.94-5.01 2.73-5.33 3.94-.5-1.27-1.4-2.14-1.07-3.33-3.35-.7-2.02-6.9-2.08-8.68l-.92.55c.45-.5 1.04-1.48.87-2.27l-.64.37c.17-.15.5-.7.62-.87l.02-.56c-.8-.55-2.48-1.62-3-2 2.38 3.12 1.9 9.21-1.57 11.46-.08.4-.05.78-.03 1.2Z" fill="#CE8000" />
    <path opacity=".3" d="m41.14 61.8.03-.68a1.7 1.7 0 0 0-.03.67Z" fill="#A05A07" />
    <path opacity=".3" d="M38.37 71.41c0-.1 1.95-.43 2.56-2.71 6.23-6.54 3.06-20.2 2.84-28.87-.08 1.99.33 3.3-.42 5.2.35.28.53.76.78 1.22-.04-.05-.71-.55-.8-.6l-.05 1.14c.15.12.33.65.37.8l-.4-.28c-.36 2.5.59 6.11-1.3 7.98a27.9 27.9 0 0 1-.3 9.43 9.53 9.53 0 0 1-.5-2.93c-.34 5.92-4.02 8.81-7.2 12.64.98-2.67 2.34-6.21 1.68-9.35a18.5 18.5 0 0 1-8.51 12.74c2.26 3.81 11.42 2.1 11.25-6.4Z" fill="#A05A07" />
    <g opacity=".51" fill="#C77500">
      <path opacity=".3" d="M35.23 57.56c-1.94-.82-4.21-.37-6.3-.1 1.04 1.19 6.42.94 7.56.98-.4-.04-.14-.4-1.26-.88ZM33.3 60.26c.9-.08.99.13.53.85-.83 1.02-2.36.1-2.08-1.11.46.3 1.02.28 1.56.26Z" />
    </g>
    <path opacity=".3" d="M15.77 55.02c.14.4.23.9.34 1.53.26-.23.58-.55.92-1.06.5-.76 1.06-1.94 1.56-3.69.47-1.64.78-4.98 1.1-7.92-.84-.55-1.93-1.3-2.37-1.56 2.38 3.12 1.9 9.22-1.56 11.47-.04.42-.01.8.01 1.23Z" fill="#A05A07" />
    <path d="M28.84 57.32c-.26-.2-.57.23-.29.42.5.38 1.2.47 1.81.63.67.14 1.34.21 1.98.28 1.5.11 2.93.21 4.43.07.36-.03.27-.55-.09-.52-1.35.1-2.71.1-4.05-.05-.67-.07-1.3-.1-1.91-.24-.6-.09-1.43-.21-1.88-.59ZM32.06 60c.15.21.73.15.98.16.35.01.71-.02 1.03-.16.32-.1.41.42.14.52a4.1 4.1 0 0 1-1.37.15c-.36-.02-.9 0-1.13-.32-.24-.23.18-.62.35-.34Z" fill="#995A07" />
    <path d="M26.6 87.09c-.07.73.3 1.47.59 2.1a7.5 7.5 0 0 0 2.43 5.63c.57.38.88-.07 1.56.16 1.14.16 2.28-1 2.86-1.92.45-.72.69-1.59.68-2.48a5.7 5.7 0 0 0-.15-1.3c.05-.05.12-.05.16-.09 1.23-.93 1.16-3.2.23-4.35a4.52 4.52 0 0 0 .15-4.74c.26-.46.66-.85.91-1.1l-8.89-.33c-.18.58-.04 1.1.18 1.69l-.12.2c-.68 1.27-.44 3.05.17 4.44a4.2 4.2 0 0 0-.76 2.1v-.01Z" fill="#BA6F04" />
    <path d="M29.76 104.16c2.65-1.5 4.9-5.32 2.83-7.92-.04-.31.18-.66-.24-.72-2.36.06-3.41.75-3.77 1.77-.53 1.54.58 3.83 1.27 5.7.12.36.1.8-.1 1.17Z" fill="#D58500" />
    <path opacity=".3" d="M29.87 102.96c.1.4.07.87-.14 1.2 2.66-1.5 4.9-5.33 2.83-7.92-.03-.31.19-.66-.24-.72-2.35.06-3.4.75-3.76 1.77.17.05 4.03 2.6 1.31 5.67Z" fill="#A05A07" />
    <path d="M32.4 98.58c0 1.06-.24 2.03-.8 2.95-.16.3-.62.02-.45-.29.46-.8.7-1.65.69-2.57-.03-.56.01-1.45-.56-1.7-.31-.12-.02-.58.29-.46.74.3.86 1.36.83 2.07ZM29.77 98.95c-.26.23-.67-.12-.41-.38.53-.53 1.39-1.13.97-1.95-.14-.32.3-.61.44-.3.54 1.12-.28 1.87-1 2.63ZM27.03 74.55c.02-.36.58-.33.56.02-.08.83.3 1.58.8 2.18.46.5 1.12.77 1.73 1.02a3.44 3.44 0 0 1-.99-2.5c.02-.36.58-.34.56.02 0 1.03.4 1.69 1.11 2.39.24.21-.06.51-.29.46 0 .2-.12.35-.32.25-.81-.34-1.63-.64-2.23-1.34a3.4 3.4 0 0 1-.93-2.5ZM32.41 77.6c.74.07 1.5-1.04 1.53-1.72 0-.3.52-.29.47.02a2.87 2.87 0 0 1-1.34 2.03c.27-.1.56-.13.84-.28.41-.18.73-.48 1.02-.79.58-.6 1.1-1.47 1.03-2.35-.03-.31.45-.4.48-.09.11.99-.4 1.86-.98 2.58-.28.35-.6.65-.98.9-.2.15-.41.25-.64.33-.2.08-.4.07-.59.18-.27.1-.46-.27-.3-.42-.2.09-.4.14-.58.1-.29-.04-.27-.51.04-.5Z" fill="#995A07" />
    <path d="M35.91 80.22c-4.95 0-3.96 0-9.54.03-.76-.34-.79-1.91-.4-2.79 5.27-.05 3.77-.1 10.33-.04.36.86.37 2.43-.39 2.8Z" fill="#00C55E" />
    <path d="M35.91 80.22c-.36-.01-.72.02-1.03 0 1.14-2.62-6.6-2.78-6.98-2.75 4.43-.06 2.2-.07 8.35-.06.4.87.41 2.44-.34 2.8v.01Z" fill="#06B253" />
    <path d="M30 81.74c.65.7 1.44 2.15.88 2.7-.58.56-2.35-.1-2.95-.74-.6-.66-.67-1.64-.07-2.2.6-.56 1.54-.45 2.14.24ZM33.43 82.22c-.53.5-1.32 1.62-.91 2.09.4.44 1.83.07 2.41-.46.59-.54.64-1.27.23-1.72-.4-.48-1.17-.43-1.73.09ZM32.86 86.36c-.54.5-1.18 1.94-.73 2.48.45.49 2.29-.11 2.8-.6.51-.5.61-1.32.16-1.83-.45-.51-1.65-.56-2.23-.05ZM30.05 86.09c.64.7 1.43 2.14.87 2.7-.58.56-2.34-.1-2.94-.75-.6-.65-.42-1.32.16-1.83.56-.56 1.27-.82 1.9-.12ZM32.5 90.89c-.35.72-.94 2.47.09 2.67.5.1 1.25-1.14 1.64-1.86.34-.72.14-1.18-.35-1.38-.5-.2-1.04-.15-1.39.57ZM30.26 90.64c.65.7 1.42 2.68.67 2.9-.64.17-1.81-.66-2.45-1.36-.65-.7-.69-1.37-.13-1.89.56-.49 1.31-.3 1.91.35Z" fill="#C57802" />
    <path d="M33.5 81.6c-.42.4-.75.9-1.08 1.36-.38.55-.26 1.29-.24 1.96-.02.36-.65.45-.65-.45-.02-.67.14-1.34.02-1.72-.33-.6-.95-1.92-1.6-1.79-.36.08-.4-.49-.1-.56.84-.12 1.67 1.43 2.16 2.12.42-.5.78-.95 1.3-1.29.65-.4.42.16.2.37Z" fill="#995A07" />
    <path d="M33.25 85.6c.31-.1.9-.06.66.22-.12.11-.75.22-1.08.63-.61.76-.65 1.74-.67 2.64-.01.35-.46 1.03-.46-.07.3-1.33-1.04-3.73-1.67-3.67-.35.03-.33-.53.03-.56.74-.06 1.51 1.2 1.89 1.85.43-.61.66-.83 1.3-1.05Z" fill="#995A07" />
    <path d="M33.14 90.38c-1.32.53-.61 2.37-1.3 3.9.07.37-.46.7-.53.34.57-1.27.33-2.13.02-3.13 0 0-.49-1.83-1.61-1.74-.36.07-.45-.45-.13-.52 1.25 0 1.92 1.17 2.07 1.76.33-.39.34-.66.77-.86.33-.19 1.2-.2.71.25Z" fill="#995A07" />
    <path d="m32.88 96.61-3.96-.05c-.3-.32-.33-1.78-.13-2.62 2.2-.02 1.68-.04 4.52.03.16.86-.1 2.34-.42 2.65Z" fill="#00C55E" />
    <path d="m32.88 96.61-.56-.02c.4-1.98-2.66-2.66-2.66-2.66 1.77-.02 1.05-.05 3.64.04.17.85-.1 2.34-.42 2.64Z" fill="#06B253" />
    <path d="M29.05 83.7c.97.4 1.45.06 1.27-.38-.18-.43-.76-1.48-1.4-1.5-.62-.03-1.52 1.18.13 1.88ZM29.21 88.45c1.2.47 1.77.07 1.52-.45-.24-.53-.95-1.8-1.69-1.84-.76.01-1.83 1.47.18 2.29ZM29.86 92.86c.88.35 1.21-.15.97-.63-.25-.48-.92-1.65-1.44-1.58-.52.07-1 1.66.47 2.21ZM33.48 92.38c-.64.38-.94.05-.8-.39.12-.42.48-1.43.92-1.41.43.04.94 1.2-.12 1.8ZM33.9 88.42c-1.17.46-1.69.04-1.49-.47.23-.5.95-1.68 1.64-1.7.74-.01 1.76 1.42-.16 2.17ZM34.24 83.91c-.96.39-1.42.03-1.2-.36.18-.4.78-1.42 1.4-1.44.6 0 1.39 1.15-.2 1.8Z" fill="#D58500" />
    <path d="M27.7 34.27s11.51 4.09 14.62.34c3.06-3.75-10.06-8.97-10.06-8.97s-7.17.73-9.42 2.32c-2.42 1.64.1 4.23 4.86 6.3Z" fill="#C77500" />
    <path d="m15.04 36.3-.17 5.14c.53-.18 1.07-.27 1.57-.02.27-4.51 3.03-8.85 6.66-9.49h-.05c2.41 1.2 4.6 2.65 7.24 3.12.4.1.82.14 1.24.2-1.8-.31-5.52-2.97-7.82-4.68-1.51-1.25-3.37-.23-4.62.84l-1.48-1.09s1.35 4.1-1.1 4.03c-.47-.02-.07 2.66-.07 2.66l-1.4-.7v-.01Z" fill="#C77500" />
    <path d="M28.91 35.04s5.3-6.15 11.73-1.6l.67-3.86-14.63.58.55 5.73 1.68-.85Z" fill="#A05A07" />
    <path opacity=".3" d="M42.83 41.36c.67.18.44 1.79.28 1.98-1.45-.22-4.21.1-6.67 1.03-.2-.01-.25.08-.35-.06.86-.84 2.08-1.28 2.76-2.33.03 1.46 1.62-.4 1.87-.86.8-.02 1.54.06 2.11.24Z" fill="#C77500" />
    <path d="M42.87 41.4c.67.19.45 1.8.28 1.99-1.45-.22-4.2.09-6.66 1.02-.4.03-.28.19-.98-1.3-.37-.75-.31-1.06.48-1.31l.44.68.04-.82c1.78-.42 4.75-.79 6.4-.25Z" fill="#CE8000" />
    <path opacity=".6" d="M42.87 41.4c.67.19.45 1.79.28 1.98a9.4 9.4 0 0 0-2.5.06c.45-.7.77-1.42.71-2.26.54-.02 1.1.07 1.51.22Z" fill="#A05A07" />
    <path opacity=".3" d="M41.9 42.3c-.03-.4-.06-.74-.07-1.14.47.1.98.04 1.33.41-.2.3-1.34 1.51-1.26.73Z" fill="#C77500" />
    <path d="M30.63 41.37c1.48.53 1.64.43 1.3 1.47-.23.81-.78 1.69-1.35 1.46a57.86 57.86 0 0 0-6.35-1.78c.33-.34.58-.56.58-.56.12-.04-1.5-.1-1.98.39-.8.21-.35-1.94-.23-2 1.74-.51 5.76.28 7.61.9l-.14.7.56-.58Z" fill="#CE8000" />
    <path opacity=".3" d="M30.63 41.37c1.48.53 1.64.43 1.3 1.47-.23.81-.78 1.69-1.35 1.46a57.9 57.9 0 0 0-6.35-1.78c.1-.09.12-.1.17-.2 1.87.08 3.85-.2 5.5-1.22.16.05.2.05.32.1l-.15.71.56-.54Z" fill="#C77500" />
    <path opacity=".6" d="M31.3 41.58c.86.28.92.35.66 1.23-.23.82-.78 1.7-1.35 1.47-.27-.1-.77-.28-1.4-.46.26-.15.53-.34.76-.53.7-.44 1.1-1 1.33-1.71Z" fill="#A05A07" />
    <path d="M45.6 70.22s2.74.52 4.63 5.16c3.17 7.81 8.68 34.52 9.86 43.02.5 3.6.39 6.02.39 6.02 4.39-.57 2.25-6.97 2.63-16.38.32-8.05-1.53-33.33-8.67-38.1-3-2-2.87-.06-4.67-.14-1.8-.07-3.01-.76-4.18.42Z" fill="#4D5666" />
    <path d="m59.75 79.5-7.8 1.11a56.55 56.55 0 0 0-1.73-5.23c-1.88-4.64-4.63-5.16-4.63-5.16.33-.33.67-.52 1.02-.61 1.16.49 3.44 1.67 4.03 3.57.7 2.28 2.68-1.62 1.52-4.14.5-.03 1.19.17 2.28.9 2.27 1.52 4 5.11 5.3 9.56ZM60.48 124.42s.12-2.42-.39-6.02a338.98 338.98 0 0 0-4.05-21.14c2.05.27 4.6.88 6.87 2.24.23 3.52.28 6.55.2 8.54-.38 9.41 1.76 15.81-2.63 16.39Z" fill="#454E5E" />
    <path d="M3.95 141.77s4.66-2.94 10.3-4.52c5.63-1.58 1.22 4.39 1.22 4.39l-8.8 2.77-2.72-2.64Z" fill="#E8AF3F" />
    <path d="m16.38 146.8 2.07-3.14s7.48 1.82 6.78 5.08c-.7 3.26-8.85-1.94-8.85-1.94Z" fill="#D6A036" />
    <path d="M57.56 71.2s1.43 6.6 2.18 7.63c.75 1.03 5.92 4.53 5.92 11.63 0 7.1-9.35 1.8-9.35 1.8l-3.96-19.2 5.2-1.85Z" fill="#E8AF3F" />
    <path d="M71.19 51.67a3.64 3.64 0 1 0-6.34-3.59L-6.4 173.83a3.64 3.64 0 1 0 6.33 3.6L71.2 51.66Z" fill="#60656E" />
    <path d="M68.9 49.46c0 .6-.15 1.22-.48 1.79L-2.83 177c-.51.9-1.36 1.5-2.3 1.74a3.63 3.63 0 0 1-1.27-4.9L64.85 48.07c.51-.9 1.36-1.5 2.3-1.73a3.63 3.63 0 0 1 1.75 3.1Z" fill="#6D737D" />
    <path d="M15.98 134.33s1.45 1.16 3.96-1.75c5.13-5.93 11.69-19.34 8.62-20.44l-12.58 22.2ZM31.01 107.8s1.6 2.34 5.02-2c3.4-4.32.62-7.95.62-7.95l-5.64 9.96Z" fill="#8690A1" />
    <path opacity=".53" d="M50.43 73.54s4.64.97 6.2 3.84l-1.25 2.14-5.68-4.7.73-1.28ZM39.2 93.43s4.3 2.22 4.5 6.76l2.65-4.67-6-3.96-1.14 1.87Z" fill="#43464D" />
    <path d="m78.12 39.24-12.15 7.6 4.14 6.62 12.15-7.59-4.14-6.63Z" fill="#60656E" />
    <path d="m80.71 43.4-12.15 7.59-2.59-4.15 12.15-7.59 2.6 4.15Z" fill="#6D737D" />
    <path opacity=".53" d="m76.7 40.14 2.08 7.92 2.46-1.6-2.68-7.2-1.86.88Z" fill="#43464D" />
    <path d="m90.49 51.07-1.05 2.66a2.75 2.75 0 0 1-5.04.2L73.7 31.97a5.3 5.3 0 0 1 .08-4.82l1.96-3.67a2 2 0 0 1 3.54.07L90.3 46.12c.75 1.55.82 3.34.19 4.94Z" fill="#8690A1" />
    <path d="m90.49 51.07-1.05 2.66a2.72 2.72 0 0 1-2.56 1.75h-.03S75.34 32.67 74.48 30.33c-.87-2.34 2.22-7.73 2.22-7.73a2 2 0 0 1 2.58.95L90.3 46.13c.75 1.55.82 3.34.2 4.94h-.01Z" fill="#6D737D" />
    <path d="m89.03 49.1-.77 1.9c-.34.83-1.5.87-1.89.07L75.85 29.79c-.2-.4-.19-.85.02-1.24l.9-1.7a1 1 0 0 1 1.78.04L89 47.99c.18.36.19.76.04 1.11Z" fill="#545961" />
    <path opacity=".53" d="M11.6 142.08s2.3 1.85 7.98.68l-2.52 4.45-6.79-2.8 1.32-2.32ZM1.31 160.23s2.08 5.05 5.1 5.77l3.27-5.77-6.42-3.45-1.95 3.45Z" fill="#43464D" />
    <path d="m54.19 66.9 8.2-14.47c3.72 8.72-8.2 14.48-8.2 14.48Z" fill="#8690A1" />
    <path opacity=".53" d="m89.03 49.1-.3.74-11.96-22.98a1 1 0 0 1 1.78.02L88.99 48c.17.35.18.75.04 1.1v.01Z" fill="#43464D" />
    <path d="M73.35 90.58s7.51.98 6.98 8.76c-1.2 17.5-9.14 19.88-9.14 19.88s-2.82 1.34-4.89-2.02c-2.07-3.35-8.42-10.8-10.03-12.17-1.62-1.37-4.76-4.48-3.9-6.3.87-1.81 12.81-8.88 12.81-8.88s2.11 1.62 3.9 1.54c1.79-.08 4.27-.8 4.27-.8v-.01ZM58.37 81.4s-8.08-8.52-10.91-8.1c-2.84.44-3.94 1.86-4.16 2.77-.2.92 11.18 9.68 11.18 9.68l3.89-4.35Z" fill="#F0BD46" />
    <path d="M50.83 80.22s-5.52-4.8-8.8-4.2c-3.29.6-2.83 5.53-2.83 5.53l10.56 6.66 1.07-8Z" fill="#F0BD46" />
    <path d="M48.85 85.09s-6.89-5.28-9.67-4.28c-2.73.99-1.84 5.97-1.84 5.97l9.11 4.04 2.4-5.73Z" fill="#F0BD46" />
    <path d="M43.7 86.94s-5.32-1.82-6.36-.16c-2.08 3.32 1.2 7.63 1.2 7.63l1.58-2.35s6.49 6 12.06 8.27c5.57 2.25 7.79-1.17 7.79-1.17L43.7 86.94Z" fill="#F0BD46" />
    <path d="M51.95 79.14s5.42-1.1 10.11 6l4.7 7.1-11.77 10.99s-11.97-5.31-11.97-13.61 8.93-10.48 8.93-10.48Z" fill="#F0BD46" />
    <path d="M66.1 110.52c1.68.13-.27 4.5-2.32 3.15-4.2-5.44-6.5-7.6-9.76-10.84 0 0 3.52-7.21 6.3-1 1.63 3.67-1.46 8.17 5.78 8.7Z" fill="#E8AF3F" />
    <path d="M53.12 100.67a7.68 7.68 0 0 1-.28 1.44c-2.55-1.21-11.55-9.13-12.72-10.05.05-4.3 4.1-6.5 8.73-2.83 3.25 2.76 4.68 7.48 4.27 11.44Z" fill="#FACE57" />
    <path d="M80.33 99.34c-1.2 17.5-9.14 19.88-9.14 19.88s-2.81 1.34-4.89-2.02l-.2-.33c12.4-5.82 2.98-25.48 2.98-25.48 1.79-.08 4.27-.81 4.27-.81s7.51.97 6.98 8.76ZM61.57 99.84c-6.78-3.65-4.62-7.37-11.08-11.63-2.63-1.73-1.27-4.95-1.85-5.52-3.3-3.28-10.45 2.58-8.52 9.37l-1.57 2.36s-3.29-4.31-1.2-7.64c0 0-.9-4.99 1.83-5.97-.19-1.8 1.11-5.52 4.14-4.79 3.57-6.57 10.22.67 14.2 4.51 2.58 1.15 6.29 6.17 7.65 9.32l.01-.01s.96.74 2.13 1.19c0 0 1.15 12.6-5.75 8.8Z" fill="#E8AF3F" />
    <path d="M66.75 90.8s1.03 2.4-.65 2.06c-1.69-.34-.44-2.69-.44-2.69l1.1.62ZM80.33 99.34c-.7 10.13-3.65 15.2-6.02 17.67a49.32 49.32 0 0 0 3.83-13.78c1.5-10.57-5.88-12.31-5.78-12.38.6-.15 1-.27 1-.27s7.5.98 6.97 8.76ZM56.3 77.93s3.34 1.96 2.83 3.26c-.51 1.3-3.34-2.34-3.34-2.34l.52-.92ZM42.8 85.76s.18.46-2.5.24a4.6 4.6 0 0 0-2.97.7l-.08-.62s1.92-.62 3.5-.94c.37-.08 2.83-.45 2.05.62ZM44.24 81.4c-.33.58-.6-.01-2.11-.5a7.63 7.63 0 0 0-3.27.06c.1-.06.2-.1.32-.15a2.86 2.86 0 0 1-.01-.37c.54-.04 1.5-.1 2.74-.1 1.97 0 2.66.5 2.33 1.07ZM48.33 78.01c-.79.43-1.55-.5-2.33-1.07-.69-.5-3.13-.91-3.7-1 .31-.03.65 0 1.02.08l.24-.42c1.04.26 3.7 1.41 4.17 1.42.53.01 1.38.57.6 1Z" fill="#BD8A37" />
    <path d="M65.9 108.25s-3.39-.53-1.13-3.97c2.25-3.44 7.67 3.92 1.12 3.97Z" fill="#FACE57" />
    <path d="M43.63 38.97H24.45s.3-6.32 1-5.82c4.36 3.17 15.34 2.57 18.18.69v5.13Z" fill="#3B754B" />
    <path d="M39.18 38.97H28.66s1.4-3.54 6.79-2.28a6.03 6.03 0 0 1 3.73 2.28Z" fill="#3C8454" />
    <path d="M27.67 38.97h-3.22s.3-6.32.99-5.82c.91.66 2.12 1.16 3.47 1.52 0 0-1.63 2.2-1.24 4.3ZM43.63 33.84v5.13h-1.7c.06-2.2-1.22-4-1.29-4.08a9.12 9.12 0 0 0 3-1.05Z" fill="#245B34" />
    <path d="M25.62 38.97s2.77-8.64 10.01-7.6a8.76 8.76 0 0 1 7.81 7.6l1.68.85s.44-11.24-6.46-15c-6.65-3.6-12.8-3.92-19.83 0-7.03 3.94-7.98 14.15-7.98 14.15h14.77Z" fill="#3E8E5B" />
    <path d="m45.12 39.82-1.68-.85s-.56-6.58-7.8-7.6c-7.25-1.04-10.01 7.6-10.01 7.6H10.85s.06-.6.24-1.58c1.17.43 6.38 1.97 10.81-2.26 3.93-3.74 5.36-9.06 2.45-12.57 4.86-1.25 9.46-.37 14.32 2.27 6.9 3.75 6.45 14.99 6.45 14.99Z" fill="#3C8454" />
    <path d="M37.68 31.85c-.62-.21-1.3-.38-2.05-.49-7.24-1.03-10 7.6-10 7.6h-1.18s2.42-9.86 12.1-7.47c.44.1.8.22 1.13.36Z" fill="#3E8E5B" />
    <path d="m45.12 39.82-1.68-.85s-.34-3.96-3.88-6.21c.43-3.9-.56-6.63-2.07-8.54l1.18.6c6.9 3.76 6.45 15 6.45 15Z" fill="#3B754B" />
    <path d="M19.9 30.49c-1.53 2.89-4.67 4.23-7.02 2.99-.2-.11-.4-.24-.58-.37 1.14-2.98 3.12-6.37 6.53-8.28l1.01-.54c1.11 1.6 1.2 4.03.06 6.2Z" fill="#47A369" />
    <path d="M10.41 70.6s-11.36.56-18.18 5.73c-6.82 5.16-7.32 6.19-11.26 7.75-3.95 1.56-3.13 2.42-4.97 5.15-1.84 2.72-11.5 9.72-13.18 13.87-1.68 4.14-5.7 4.63-6.3 7.7-.6 3.05 20 12.48 30.31 6.43 10.31-6.04 25.6-23.67 25.6-23.67l-2.02-22.95Z" fill="#3E8E5B" />
    <path d="M12.43 93.56s-15.29 17.63-25.6 23.67c-10.32 6.04-30.92-3.38-30.31-6.44.6-3.06 4.62-3.55 6.3-7.7.92-2.27 4.24-5.4 7.36-8.22l.64-.57.65-.59 1-.9a69.42 69.42 0 0 0 2.6-2.48 10.32 10.32 0 0 0 .93-1.1c.21-.32.39-.6.54-.88.55-.96.8-1.66 1.25-2.27.53-.69 1.33-1.27 3.18-2a23.68 23.68 0 0 0 2.72-1.29c.3-.18.6-.36.9-.57 1.67-1.13 3.48-2.74 7.64-5.9 6.83-5.16 18.19-5.72 18.19-5.72l2.02 22.96Z" fill="#3E8E5B" />
    <path d="m-13.17 117.23-.2.1c5.52 5.68 5.68 10.8 5.85 13.62.06.91-.81 2.29-2.1 3.8l-18.18 6.13c-1.29-.7-2.35-1.57-2.84-2.62-1.84-3.95-2.15-3.78-5.27-5.34-3.12-1.56-2.3-4.5-6.98-8.82-2.4-2.23-2.5-5.68-2.01-8.52 2.25.87 5.2 1.64 9 2.05 1.75.18 3.15.18 4.25.02 4.54-.67 4-4.07 3.18-8.1-.35-1.73-.76-3.59-.83-5.4-.29-7.01 12.48-6.75 19.76-14.14 7.27-7.39 1.77-13.69 1.77-13.69 6.83-5.17 18.19-5.72 18.19-5.72l2.02 22.95s-15.3 17.63-25.6 23.67Z" fill="#3C8454" />
    <path d="M7.49 99c-4.12 4.37-10.2 10.5-15.8 14.87-1.25-.23-2.19-.87-2.56-2.15-1.7-5.85 7.76-12.87 10.53-24.51 2.77-11.65-5.72-12.03-5.72-12.03 3.43-2.05 7.54-3.2 10.8-3.83C10.99 76.25 9.59 89.37 7.5 99ZM7.96 70.81s5.02 3.52 6.2 5.71c1.2 2.2 2.73 1.7 2.73 1.7s.66-1-.22-1.92c-.87-.94-6.11-5.12-6.2-6.48l-.06.79s-1.32-.31-2.45.2Z" fill="#3B754B" />
    <path d="M-9.63 120.84s-17.42 8.22-20.42 16.4c-3 8.19 1.55 4.86 4.21 6.25 2.66 1.38 3 2.01 6.37 3.5 3.37 1.5 12.44 5.4 13.13 6.76.7 1.35 7.99 4.16 7.99 4.16l7.14-15s-6.28-5.13-9.35-9.21c-3.06-4.08-4.07-5.58-6.1-7.32-2.03-1.74-.63-5.25-2.97-5.54Z" fill="#F0BD46" />
    <path d="M23.86 151.8a5.24 5.24 0 0 1-.65 4.61c-.33.54-1.09.8-2.14.84v.08c0 .15-.02.32-.05.5a4 4 0 0 1-1.48 2.78c-.17.13-.48.18-.9.18a5.2 5.2 0 0 1-.3.73l-.1.18c-.62 1.1-1.84 2.16-4.24 1.68-4.46-.9-12.8-5.64-12.8-5.64-1.59-.64-6.95-2.84-7.54-3.99-.7-1.35-9.76-5.27-13.13-6.75-3.38-1.49-3.7-2.13-6.37-3.51-2.66-1.39-7.21 1.94-4.21-6.25.12-.33.27-.67.44-1 3.1-1.44 7.8-1.82 13.74 3.06 10.73 8.8 9.5 12.5 18 12.07a33.25 33.25 0 0 0 2.77-.29c1.13-.2 2.08-.5 2.9-.88.9-.4 1.65-.91 2.29-1.48 1.67-1.5 2.58-3.4 3.68-5.16 2.7.62 5.4 2.03 7.69 2.66 2.29.63 2.95.52 3.08.86.4 1 2.1 3.76-.69 4.73Z" fill="#E8AF3F" />
    <path d="M18.87 159.77s-.4 4.51-4.86 3.6c-4.47-.9-12.8-5.63-12.8-5.63l1.27-3.27 16.4 5.3Z" fill="#E8AF3F" />
    <path d="M18.87 159.77s-.4 4.51-4.87 3.6a16.6 16.6 0 0 1-2-.56c.12 0 5.22-.31 5.23-2.97 0-.24.04-.43.1-.56l1.54.5Z" fill="#D6A036" />
    <path d="M18.68 160.67c-.1.3-.23.67-.43 1.02 0 0-.7-.16-1.28-.45-2.39-1.2-3.08-.14-3.42-.56-.62-.77-.09-.9 1.01-.83.6.05 2.11.4 4.12.82Z" fill="#BD8A37" />
    <path d="M21.06 156.48s.32 2.82-1.51 4.13C17.72 161.93.9 155.45.9 155.45l2.53-4.18 17.62 5.21Z" fill="#E8AF3F" />
    <path d="M19.55 160.61c-.25.18-.77.21-1.49.14 2.03-2.25-2.86-3.97-2.86-3.97l5.32-.46.54.16s.32 2.82-1.51 4.13Z" fill="#D6A036" />
    <path d="M21.02 157.82s-.53.17-1.41-.12c-3.54-1.17-3.93-.19-4.45-.44-.89-.44.8-.88 1.9-.88.77 0 1.88.15 4.02.45 0 .24 0 .6-.06 1Z" fill="#BD8A37" />
    <path d="M23.58 151.27s1.53 2.06-.37 5.14c-2.06 3.35-21.32-4.35-21.32-4.35l1.54-4.6 20.15 3.8Z" fill="#E8AF3F" />
    <path d="M23.2 156.41c-.42.7-1.6.92-3.2.83 1.63-3.13-3.31-5.34-3.31-5.34l4.17-1.14 2.72.51s1.53 2.06-.37 5.14Z" fill="#D6A036" />
    <path d="M24.04 152.4c-.46.14-.74.92-4.22.38-3.93-.6-3.71.75-4.13.38-.76-.69.52-1.85 1.7-1.9 1.06-.06 5.16.38 6.44.49.08.17.15.39.21.65Z" fill="#BD8A37" />
    <path d="M6.13 141.89s9.5 4.43 18.14 5.13c1.28.1 2.58 5-2.5 5.13-5.1.13-17.19-2.64-17.19-2.64l1.55-7.62Z" fill="#E8AF3F" />
    <path d="M13.77 143.56c-1.1 1.75-2 3.67-3.68 5.16a8.9 8.9 0 0 1-2.28 1.48c-.82.38-1.78.68-2.9.88-.47.08-.95.15-1.47.2l-1.31.09 1.3-3.91 2.7-5.57s3.56.74 7.65 1.67Z" fill="#F0BD46" />
    <path d="M4.34 138.97c-2.57 2.7-7.89 4.27-12.22-1.99-6.22-8.98-17.8-5.54-18-5.48 6.13-5.89 16.24-10.66 16.24-10.66 2.35.29.95 3.8 2.98 5.54 2.03 1.74 3.03 3.24 6.1 7.32a45.32 45.32 0 0 0 4.9 5.27Z" fill="#FACE57" />
    <path d="M5.5 140.04s-4.63 2.84-3.99 4.37c.64 1.53 8.55-1.75 8.55-1.75l-4.56-2.62Z" fill="#E8AF3F" />
    <path d="M21.76 152.15h-.3c.65-.52 3.9-3.4.93-6.44 1.92.55 2.59 1.29 2.7 1.6.47 1.2 1.76 4.7-3.33 4.84Z" fill="#D6A036" />
    <path d="M-.64 149.9s-3.38-.54-1.13-3.97c2.26-3.44 7.68 3.92 1.13 3.97Z" fill="#FACE57" />
    <path d="M11.1 142.96s-.63 1.77 5.69 3.26c3.4.8 6.87.76 4.8-.85-1.17-.9-2.68-1.44-2.68-1.44l-.65 1.14c-4.21-1.81-7.16-2.12-7.16-2.12Z" fill="#BD8A37" />
    <path d="M11.6 142.08s-1.82-.5-2.57.42c-.75.93 3.38 1.27 2.73.96-.89-.41-.17-1.38-.17-1.38Z" fill="#BD8A37" />
    <path d="M-6.55 115.49s3.35 1.92 5.08-6.64c1.73-8.56 8.1-31.2-2-35l4.98-1.91s8.41 14.83 3.23 31.8c-5.2 16.97-9.06 18.48-9.06 18.48s-1.57-3.08-2.23-6.74Z" fill="#295E3C" />
    <path d="M-3.47 73.84s2.74-1.89 4.63 4.2c2.49 8.05-.45 37.71-6.8 41.17l-.38-1.3s-1.95 1.1-.94 2.44c1.01 1.35 1.74 2.02 2.19 3.2.45 1.18.68 2.34 2.56 1.79 1.87-.55 6.29-6.04 9.16-16.97 2.05-7.79 4.26-33.5-2.88-38.26-2.99-2-2.14.8-3.95.72-1.8-.08-3.71 1.25-3.59 3.01Z" fill="#4D5666" />
    <path d="M5.65 81.14c-.81 1.61-2.2 1.77-3.78 1.16a20.7 20.7 0 0 0-.72-4.26c-1.88-6.09-4.62-4.2-4.62-4.2-.12-1.76 1.78-3.08 3.59-3 .86.03 1.12-.58 1.47-1.02 0 0 7 5.47 4.05 11.32ZM.86 118.32c-3.22 4.22-5.32.16-5.4 0C-.42 113.89 2 98.17 2.04 87.2l.05.02c8.24 2.61 1.97 12.41-.58 17.3-2.54 4.9 2.63 9.52-.65 13.81Z" fill="#505C73" />
    <path d="M8.54 98.06c-.39 4.3-1 8.06-1.59 10.31C4.08 119.3-.34 124.8-2.2 125.34c-1.88.55-2.11-.6-2.56-1.78-.45-1.18-1.18-1.86-2.19-3.2-1.01-1.35.94-2.46.94-2.46l.38 1.31c.19-.1.37-.22.55-.37-.02.15-.71 4.28 3.36 3.78 4.15-.52 5.94-8.85 5.42-10.68-.5-1.73-1.15-11.17 4.85-13.88ZM8.96 88.2c-4.33.2-6-4.19-3.36-4.35 2.63-.16 2.25-6.72 2.25-6.72.75 3.2 1.07 7.1 1.1 11.08Z" fill="#454E5E" />
    <path d="M2.73 173.68a28.88 28.88 0 0 1-54.27-13.77c0-11.01 6.6-20.7 16.83-26.1v9.76c-5.11 4.23-8.32 10.07-8.32 16.34a20.38 20.38 0 0 0 38.29 9.7l7.47 4.07Z" fill="#4D5666" />
    <path d="M2.73 173.68a28.87 28.87 0 0 1-26.78 15.07c14.91-1.48 14.92-13.6 14.92-13.6a20.37 20.37 0 0 0 4.39-5.53l7.47 4.06Z" fill="#454E5E" />
    <path d="m4.2 168.74-5.47-3.17a3.43 3.43 0 0 0-4.68 1.26l-1.52 2.62a3.43 3.43 0 0 0 1.26 4.68l5.47 3.16c1.64.95 3.74.39 4.68-1.25l1.52-2.62a3.43 3.43 0 0 0-1.26-4.68Z" fill="#454E59" />
    <path d="m5.71 172.98-2.02 3.5a2.92 2.92 0 0 1-3.99 1.07l-6.35-3.67a2.91 2.91 0 0 1-1.42-2.03c2.2.88 7.91 2.4 11.5-3.56l1.21.7c1.4.8 1.88 2.6 1.07 3.99Z" fill="#39414A" />
    <path d="M184.36 224.1c7.63 1.99 161.1 20.94 135.58-53.16-2.74-7.94-35.22-14.2-33.38-4.38 1.41 7.57-3.75 12.31-10.8 10.34-20.3-5.69-27.92-12.2-37.18 2.17a56.49 56.49 0 0 1-44.56 26.06l-9.66 18.97Z" fill="#F6FBFF" />
    <path d="M186.2 226.56c7.64 2 161.11 20.95 135.58-53.15-2.73-7.94-31.01-16.24-29.18-6.41 1.41 7.57-6.25 14.47-13.3 12.5-20.3-5.69-27.32-11.37-36.58 3-9.26 14.37-27.18 23.9-46.86 25.1l-9.66 18.96Z" fill="#DBEEFF" />
    <path d="M195.7 237.42c8.07 1.97 170.25 20.75 143.28-52.64-2.9-7.86-32.78-16.09-30.84-6.35 1.5 7.5-6.6 14.33-14.06 12.38-21.45-5.63-28.87-11.26-38.65 2.97-9.79 14.23-28.72 23.67-49.52 24.86l-10.21 18.78ZM191.11 210.97c-19.68-1.24-55.78-46.98-73.3-36.5-3.47 2.08-9.63 3.7-17.4-2.82-13.2-11.08-23.67-12.66-21.8.1 1.85 12.77-24.14-.73-38.7-7.57-22.01-10.34-69.08 1.85-62.23 30.82 6.84 28.96 213.43 15.98 213.43 15.98v-.01Z" fill="#F6FBFF" />
    <path d="M190.16 220.97c-19.68-1.24-50.1-53.95-67.61-43.47-3.48 2.08-12.65 8.52-20.42 2-13.2-11.08-23.72-18.26-21.85-5.5 1.85 12.77-25.35 3.34-39.9-3.5-22.03-10.34-70.5 5.53-63.66 34.5 6.85 28.96 213.44 15.98 213.44 15.98v-.01Z" fill="#DBEEFF" />
    <path d="M228.95 234.07c-16.9-.86-62.68-28.8-80.75-41.07-16.38-11.15-27.49-15.34-25.17-2.5 2.3 12.84-57.45.38-75.53-6.5-27.36-10.4-92.24 4.87-83.73 34.01 8.5 29.13 265.18 16.07 265.18 16.07Z" fill="#F6FBFF" />
    <path d="M280.25 167.9c.28-4.13-3.76-11.12-6.85-10.9-13.12.99 6.23 20.22 6.85 10.9Z" fill="#D6ECFF" />
    <path d="M184.28 201.65c.48-7.07-6.58-19.03-11.97-18.64-22.93 1.68 10.87 34.59 11.97 18.64ZM80.1 180c2.85 3.44 7.08 3.66 8.87 2.17 1.8-1.48 3.32-3.82.47-7.25-2.84-3.43-8.81-5.73-10.6-4.25-1.8 1.49-1.58 5.9 1.27 9.34Z" fill="#F6FBFF" />
  </g>
  <defs>
    <clipPath id="a">
      <path fill="#fff" d="M0 0h304v194H0z" />
    </clipPath>
  </defs>
</svg>