<?xml version="1.0" encoding="UTF-8"?>
<svg width="16px" height="18px" viewBox="0 0 16 18" version="1.1" xmlns="http://www.w3.org/2000/svg" xmlns:xlink="http://www.w3.org/1999/xlink">
    <!-- Generator: Sketch 51.2 (57519) - http://www.bohemiancoding.com/sketch -->
    <title>Group 13</title>
    <desc>Created with Sketch.</desc>
    <defs></defs>
    <g id="Правка-основного-окна" stroke="none" stroke-width="1" fill="none" fill-rule="evenodd">
        <g id="Artboard-Copy-12" transform="translate(-20.000000, -591.000000)">
            <g id="Group-18" transform="translate(16.000000, 444.000000)">
                <g id="Group-16" transform="translate(0.000000, 138.000000)">
                    <g id="Group-13" transform="translate(0.000000, 5.000000)">
                        <rect id="Rectangle-8-Copy" x="0" y="0" width="24" height="24"></rect>
                        <path d="M18.718787,11.6668487 C18.927119,10.9248601 18.8023276,9.90223955 18.1335582,9.2900715 C18.2625786,8.77503119 18.2598335,8.12878067 17.992667,7.55647303 C17.8126023,7.17088762 17.5297071,6.86919189 17.1752905,6.67786195 C17.1629746,6.33579386 17.0786921,5.93126561 16.8333382,5.53075997 C16.4407868,4.89028738 15.7643756,4.44538675 14.8025467,4.20841848 C14.3980503,4.10865776 13.5237683,4.08247423 13.5237683,4.08247423 L13.5029944,4.08247423 C11.8802605,4.08247423 9.99317948,4.72835905 8.03925118,5.97449038 L6.01610145,6.27260232 C5.4118052,6.36365957 4.96694819,6.86114667 4.96694819,7.46395301 L4.96694819,13.3022223 C4.96694819,13.7927613 5.32381314,14.0248293 5.60566967,14.2113321 C5.76228961,14.3149692 5.97766984,14.4494706 6.22332054,14.6051822 C6.90863478,15.0394046 8.05713152,15.7661804 8.44515723,16.1369188 C8.92992969,16.6004697 9.37805116,17.4136219 9.8514722,18.2745335 C10.1561058,18.8283372 10.4715714,19.4010105 10.8354846,19.9585442 C11.2986671,20.6680594 11.9925877,21.0750012 12.7389622,21.0750012 C13.3757546,21.0750012 13.9848734,20.7678201 14.3680766,20.253438 C14.7943855,19.6811304 14.9019644,18.9223931 14.6630652,18.171701 C14.3990148,17.3420926 14.0610689,16.3739602 13.5569322,15.4828424 C13.551071,15.4723837 13.5455066,15.4611935 13.5575258,15.4411536 C13.5698417,15.4203091 13.582306,15.4189927 13.5943252,15.4189927 L17.2290799,15.4189927 C18.1176811,15.4189927 18.8213208,14.9277223 19.1114127,14.1026485 C19.3998723,13.2825481 19.2240366,12.2949609 18.718787,11.6668487 L18.718787,11.6668487 Z M17.2292283,14.5412592 L13.5944735,14.5412592 C12.8829694,14.5412592 12.4329931,15.2963396 12.7795454,15.9089465 C13.2054091,16.6616865 13.5156813,17.4972922 13.8137118,18.4337557 C14.1357063,19.4452592 13.4888237,20.1969021 12.7392589,20.1969021 C12.3398818,20.1969021 11.9115697,19.9839963 11.5846042,19.4833643 C10.6443653,18.0431238 9.98227322,16.3882222 9.06028555,15.5066124 C8.33186559,14.8105547 5.85732994,13.3902809 5.85732994,13.3022223 L5.85732994,7.46395301 C5.85732994,7.29909915 5.98553423,7.15896606 6.15083466,7.13402588 L8.28972437,6.8119977 C8.33743001,6.804757 8.38483889,6.7872038 8.4251995,6.7610934 C10.351825,5.51379187 12.08607,4.93585257 13.5023267,4.93577943 C13.8838977,4.93577943 14.2423949,4.97776085 14.5755925,5.05989523 C16.2336419,5.46844609 16.3392175,6.47270886 16.2717767,6.99411221 C16.2499642,7.16254984 16.358285,7.31657922 16.5246241,7.36031596 C17.4107027,7.59296907 17.4516568,8.78139423 17.1709132,9.3575782 C17.0924919,9.51855573 17.1678713,9.70776466 17.3273847,9.79223946 C17.9887348,10.1427916 18.0376276,11.166948 17.7765449,11.6476133 C17.7018332,11.7852597 17.7393745,11.957208 17.8637208,12.0538237 C18.5885054,12.6168428 18.6278273,14.5412592 17.2292283,14.5412592 L17.2292283,14.5412592 Z" id="Shape" fill="#F5A623"></path>
                    </g>
                </g>
            </g>
        </g>
    </g>
</svg>