<svg height="35" viewBox="0 0 36 35" width="36" xmlns="http://www.w3.org/2000/svg"><g fill="none" fill-rule="evenodd" transform="translate(2 2)"><path d="m31.781 8.428c.43.422.672.995.674 1.597v11.559c0 .6-.243 1.174-.673 1.597l-8.317 8.173a2.29 2.29 0 0 1 -1.605.654h-11.763a2.29 2.29 0 0 1 -1.606-.655l-8.317-8.172a2.24 2.24 0 0 1 -.674-1.597v-11.559c0-.6.243-1.175.673-1.597l8.317-8.173a2.291 2.291 0 0 1 1.606-.655h11.764c.6 0 1.178.236 1.605.655l8.317 8.173z" stroke="#fff" stroke-width="1.6"/><path d="m10.097 31.208a1.49 1.49 0 0 1 -1.045-.425l-8.318-8.173a1.44 1.44 0 0 1 -.433-1.026v-11.559c0-.385.156-.754.433-1.027l8.317-8.172a1.491 1.491 0 0 1 1.045-.426h6.202v30.808z" opacity=".059"/><path d="m15.113 21.689 8.568-11.357c-.627-.495-1.178-.145-1.481.125l-.011.001-7.145 7.309-2.692-3.186c-1.284-1.459-3.03-.346-3.438-.052z" fill="#fff"/></g></svg>