<?xml version="1.0" encoding="UTF-8"?>
<svg width="31px" height="11px" viewBox="0 0 31 11" version="1.1" xmlns="http://www.w3.org/2000/svg" xmlns:xlink="http://www.w3.org/1999/xlink">
    <!-- Generator: Sketch 51.1 (57501) - http://www.bohemiancoding.com/sketch -->
    <title>checked</title>
    <desc>Created with Sketch.</desc>
    <defs></defs>
    <g id="Page-1" stroke="none" stroke-width="1" fill="none" fill-rule="evenodd">
        <g id="checked" transform="translate(1.000000, 0.000000)">
            <polyline id="Line" stroke="#FFFFFF" stroke-width="1.08" points="0.065 4.06774194 5.87725806 9.88 12.935 0.746451615"></polyline>
            <path d="M25.4341529,5.78507059 L29.4357059,1.78351765 C29.6149529,1.60427059 29.6149529,1.31368235 29.4357059,1.13443529 C29.2564588,0.955188235 28.9658706,0.955188235 28.7866235,1.13443529 L24.7850706,5.13598824 L20.7835176,1.13504706 C20.6042706,0.9558 20.3136824,0.9558 20.1344353,1.13504706 C19.9551882,1.31429412 19.9551882,1.60488235 20.1344353,1.78412941 L24.1359882,5.78568235 L20.1350471,9.78662353 C19.9558,9.96587059 19.9558,10.2564588 20.1350471,10.4357059 C20.2249765,10.5250235 20.3418235,10.5702941 20.4592824,10.5702941 C20.5767412,10.5702941 20.6942,10.5256353 20.7835176,10.4357059 L24.7850706,6.43415294 L28.7866235,10.4357059 C28.8765529,10.5250235 28.9934,10.5702941 29.1108588,10.5702941 C29.2283176,10.5702941 29.3457765,10.5256353 29.4350941,10.4357059 C29.6143412,10.2564588 29.6143412,9.96587059 29.4350941,9.78662353 L25.4341529,5.78507059 Z" id="Shape" fill="#FFFFFF"></path>
        </g>
    </g>
</svg>