<svg xmlns="http://www.w3.org/2000/svg" viewBox="0 0 24 24"><path d="M12.018-.003C8.512-.003 4.282 1.132.8 3.03.8 7.126.734 17.024 12 24 23.266 17.025 23.237 7.17 23.237 3.074c-3.482-1.898-7.712-3.077-11.22-3.077zM12 21.39C3.666 15.04 3.05 7.75 3.05 4.3 5.855 2.7 9.107 2.086 12 2.086c2.895 0 6.188.652 8.99 2.25 0 3.45-.628 10.7-8.99 17.054zm1.565-12h-3.13v7.827h3.13V9.39zM12 7.305c1.278 0 1.91-.49 1.91-1.542 0-.526-.154-.923-.46-1.192-.306-.27-.792-.403-1.458-.403-.667 0-1.15.13-1.45.394-.3.264-.448.664-.448 1.203 0 1.05.64 1.54 1.906 1.54z" fill="#B4C1B6"/></svg>