<svg xmlns="http://www.w3.org/2000/svg" viewBox="0 0 24 24"><path d="M23.526 10.39l-.016-.036c.25-.313.49-.758.49-1.354 0-.55-.202-.96-.458-1.48l-.002-.003c.5-.702.625-1.54.298-2.304-.11-.255-.255-.597-1.61-1.993-.09-.312-.228-.69-.44-1.114C21.065.656 19.143.172 18.35.03L18.175 0h-.177l-5.194.004h-.068l-.067.004c-2.872.196-4.488.72-5.4 1.26L7 1H2C1 1 1 2 1 2L0 12s0 1 1 1h6l.416-.832c.31.315.75.945.908 1.264.135.422.438 1.033 1.144 2.384.11.21.207.396.274.528.42.83 1.086 1.318 1.525 1.642l.17.126c.076.128.2.376.288.55.188.373.4.793.664 1.206.147.308.388 1.392.51 2.3l.088.67.478.48c.418.418 1.017.66 1.644.66.646 0 1.282-.243 1.89-.722 1.52-1.196 1.844-4.905 1.36-6.22-.186-.506-.512-1.004-.857-1.53-.09-.137-.208-.32-.325-.507.15.005.42.02.646.03.637.036 1.43.08 2.114.08.848 0 1.482-.06 2.02-.353.61-.333 2.226-1.215 2.03-2.976-.052-.466-.233-.874-.462-1.39zm-2.11-2.776C21.46 7.924 22 8.824 22 9c0 .177-.578.46-.71.858-.134.397.666 1.744.71 2.142.044.398-.514.734-1 1-.15.082-.56.11-1.062.11-1.024 0-2.438-.114-2.843-.114-.045 0-.077 0-.095.004-.265.044-1.97.264-2.18 1.222-.21.96 1.354 2.663 1.664 3.504.31.84-.1 3.47-.72 3.957-.295.232-.51.293-.654.293-.157 0-.23-.073-.23-.073s-.308-2.344-.794-3.095c-.486-.752-.84-1.725-1.192-2.08-.354-.353-1.06-.684-1.37-1.292-.31-.608-1.216-2.292-1.304-2.646-.088-.353-1.243-2.252-2.17-2.597L8 3.308v-.103c.007-.008.812-.928 4.806-1.2L18 2s1.646.293 2 1c.354.708.403 1.214.403 1.214S21.868 5.69 22 6c.132.31-.448.69-.448.69s-.18.614-.136.924z" fill="#B4C1B6"/></svg>