<svg xmlns="http://www.w3.org/2000/svg" viewBox="0 0 24 24"><path d="M12.027.004C8.52.004 4.29 1.14.807 3.037c0 4.098-.065 13.996 11.2 20.97C23.275 17.034 23.246 7.18 23.246 3.082 19.763 1.185 15.533.005 12.027.005zm-.02 21.395C3.675 15.044 3.06 7.756 3.06 4.306 5.86 2.71 9.113 2.095 12.007 2.095c2.895 0 6.188.65 8.992 2.25 0 3.45-.63 10.7-8.992 17.054z" fill="#556257"/><path d="M13.574 9.4h-3.13v7.825h3.13V9.4zM12.008 7.31c1.278 0 1.91-.49 1.91-1.542 0-.526-.154-.924-.46-1.192-.305-.27-.792-.404-1.458-.404-.666 0-1.15.13-1.45.394-.298.263-.448.663-.448 1.202 0 1.05.64 1.542 1.906 1.542z" fill="#4FBB54"/></svg>