<svg xmlns="http://www.w3.org/2000/svg" viewBox="0 0 24 24"><path d="M24 10l-3.25-1.625L21.9 4.93 19.07 2.1l-3.446 1.15L14 0h-4L8.375 3.25 4.93 2.1 2.1 4.93l1.15 3.445L0 10v4l3.25 1.625-1.15 3.447L4.93 21.9l3.446-1.15L10 24h4l1.625-3.25 3.446 1.15 2.83-2.83-1.15-3.445L24 14v-4zm-2 3l-3.437 1.72 1.215 3.644-1.414 1.414-3.645-1.215L13 22h-2l-1.72-3.437-3.644 1.215-1.415-1.414 1.217-3.645L2 13v-2l3.437-1.72L4.22 5.637 5.637 4.22 9.28 5.438 11 2h2l1.72 3.437 3.644-1.216 1.414 1.416-1.215 3.645L22 11v2zM12 7.97c-2.226 0-4.03 1.804-4.03 4.03s1.804 4.03 4.03 4.03 4.03-1.804 4.03-4.03S14.225 7.97 12 7.97zm0 5.96c-1.066 0-1.93-.864-1.93-1.93 0-1.066.864-1.93 1.93-1.93 1.066 0 1.93.864 1.93 1.93 0 1.066-.864 1.93-1.93 1.93z" fill="#B4C1B6"/></svg>