<svg xmlns="http://www.w3.org/2000/svg" viewBox="0 0 24 24"><path d="M18 2s1.646.292 2 1c.354.707.403 1.214.403 1.214S21.868 5.69 22 6c.132.31-.448.69-.448.69s-.18.614-.136.923C21.46 7.923 22 8.823 22 9c0 .177-.578.46-.71.857-.134.398.666 1.745.71 2.143.044.398-.514.734-1 1-.15.082-.56.108-1.062.108-1.024 0-2.438-.113-2.843-.113-.044 0-.076.002-.095.005-.265.044-1.97.263-2.18 1.222-.21.96 1.354 2.663 1.664 3.504.31.84-.1 3.47-.72 3.956-.294.233-.51.294-.653.294-.156 0-.228-.073-.228-.073s-.31-2.344-.795-3.096c-.486-.75-.84-1.724-1.193-2.078-.353-.355-1.06-.687-1.37-1.295-.31-.608-1.216-2.29-1.304-2.645-.088-.353-1.292-2.25-2.22-2.597V3.21s.794-.933 4.806-1.207L18 2m.176-2H18l-5.196.003h-.067l-.068.005C8.66.28 7.09 1.19 6.48 1.905l-.486.568L6 3.22l.05 6.988.01 1.38 1.213.45c.297.224.868 1.022 1.05 1.394.137.422.44 1.033 1.146 2.384.11.21.205.396.272.528.42.83 1.086 1.318 1.525 1.642l.17.126c.076.128.2.376.29.55.186.373.4.794.662 1.206.147.308.388 1.392.51 2.3l.088.67.478.48c.418.42 1.018.66 1.645.66.647 0 1.282-.243 1.89-.72 1.52-1.197 1.844-4.906 1.36-6.22-.186-.507-.51-1.005-.857-1.532-.09-.137-.208-.32-.325-.507.15.005.42.02.646.032.637.035 1.43.078 2.114.078.848 0 1.482-.06 2.02-.353.61-.333 2.226-1.215 2.03-2.976-.05-.464-.232-.872-.46-1.39-.007-.01-.012-.022-.018-.035.25-.314.49-.76.49-1.355 0-.55-.202-.96-.458-1.48v-.003c.498-.702.624-1.54.297-2.304-.11-.255-.257-.597-1.61-1.993-.092-.312-.23-.692-.44-1.114C21.064.656 19.14.17 18.35.03L18.176 0z" fill="#556257"/><path d="M1 13h6s1 0 1-2V2c0-1-1-1-1-1H2C1 1 1 2 1 2L0 12s0 1 1 1z" fill="#4FBB54"/></svg>