<svg xmlns="http://www.w3.org/2000/svg" viewBox="0 0 52 18"><path d="M5.353 7.412l-.05-.05C7.122 7.126 8.53 5.588 8.53 3.707 8.53 1.66 6.87 0 4.823 0 2.777 0 1.118 1.66 1.118 3.706c0 1.866 1.384 3.393 3.176 3.652v.054C1.118 7.412.06 9.53.06 9.53l1.058 6.352c0 1.056 1.357 1.924 3.126 2.085l.05.033h1.06l.05-.033c1.768-.16 3.125-1.03 3.125-2.085L9.587 9.53S8.528 7.41 5.353 7.41zM15.94 7.412l-.048-.05c1.817-.237 3.226-1.775 3.226-3.656C19.118 1.66 17.458 0 15.412 0c-2.047 0-3.706 1.66-3.706 3.706 0 1.866 1.384 3.393 3.176 3.652v.054c-3.176 0-4.235 2.117-4.235 2.117l1.06 6.352c0 1.056 1.356 1.924 3.126 2.085l.05.033h1.058l.05-.033c1.77-.16 3.128-1.03 3.128-2.085l1.058-6.353S19.118 7.41 15.94 7.41zM26.53 7.412l-.05-.05c1.818-.237 3.226-1.775 3.226-3.656C29.706 1.66 28.046 0 26 0c-2.047 0-3.706 1.66-3.706 3.706 0 1.866 1.384 3.393 3.177 3.652v.054c-3.176 0-4.235 2.117-4.235 2.117l1.06 6.352c0 1.056 1.357 1.924 3.126 2.085l.05.033h1.06l.05-.033c1.768-.16 3.126-1.03 3.126-2.085l1.06-6.353s-1.06-2.118-4.237-2.118zM37.118 7.412l-.05-.05c1.818-.237 3.226-1.775 3.226-3.656C40.294 1.66 38.634 0 36.588 0c-2.046 0-3.706 1.66-3.706 3.706 0 1.866 1.384 3.393 3.177 3.652v.054c-3.178 0-4.236 2.117-4.236 2.117l1.058 6.352c0 1.056 1.358 1.924 3.127 2.085l.05.033h1.058l.05-.033c1.77-.16 3.126-1.03 3.126-2.085l1.06-6.353s-1.06-2.118-4.236-2.118zM47.706 7.412l-.05-.05c1.818-.237 3.226-1.775 3.226-3.656C50.882 1.66 49.222 0 47.176 0 45.13 0 43.47 1.66 43.47 3.706c0 1.866 1.384 3.393 3.177 3.652v.054c-3.176 0-4.235 2.117-4.235 2.117l1.06 6.352c0 1.056 1.356 1.924 3.125 2.085l.05.033h1.06l.05-.033c1.768-.16 3.125-1.03 3.125-2.085l1.06-6.353S50.88 7.41 47.705 7.41z" fill="#717171"/></svg>