<svg xmlns="http://www.w3.org/2000/svg" viewBox="0 0 38 15"><path d="M21.91 1.083c-3.902 0-7.064 2.987-7.064 6.675 0 3.687 3.162 6.674 7.064 6.674 3.903 0 7.067-2.987 7.067-6.674 0-3.688-3.164-6.675-7.067-6.675zM21.77 11.9c-2.27 0-4.113-1.844-4.113-4.117 0-2.275 1.844-4.12 4.114-4.12 2.275 0 4.116 1.845 4.116 4.12 0 2.274-1.84 4.117-4.115 4.117z" fill="#74B03E"/><path d="M16.75.642L17.03 0h-2.967L11.27 8 8.648 0h-.376L5.65 8 3 0H.03L4.9 13.486s.178.374.375.374c.176 0 .374-.374.374-.374l2.795-7.08 2.824 7.08s.185.374.373.374c.186 0 .375-.374.375-.374l1.596-4.42c-.17-.633-.27-1.293-.27-1.977.002-2.637 1.342-4.972 3.407-6.448z" fill="#EE3428"/><path d="M27.03 0v.613c.914.645 1.685 1.454 2.265 2.387h1.736v11h3V3h4V0h-11z" fill="#F08615"/></svg>