<?xml version="1.0" encoding="UTF-8"?>
<svg width="60px" height="60px" viewBox="0 0 60 60" version="1.1" xmlns="http://www.w3.org/2000/svg" xmlns:xlink="http://www.w3.org/1999/xlink">
    <!-- Generator: Sketch 51.3 (57544) - http://www.bohemiancoding.com/sketch -->
    <title>Group 2</title>
    <desc>Created with Sketch.</desc>
    <defs></defs>
    <g id="Page-1" stroke="none" stroke-width="1" fill="none" fill-rule="evenodd">
        <g id="Group-2">
            <rect id="Rectangle" fill="#A1CD90" x="0" y="0" width="60" height="60" rx="4"></rect>
            <g id="Group-5" transform="translate(15.000000, 17.000000)">
                <path d="M8.4375,15.1785714 C8.4375,15.1785714 12.65625,19.6428571 12.65625,25 C8.90625,25 10.3125,25 7.5,25 C7.03125,20.9821429 4.6875,18.3035714 2.34375,15.1785714" id="Path-2" stroke="#FFFFFF" stroke-width="2"></path>
                <path d="M10.5,6.32905911 L10.5,15.2389752 L26.8465125,19.7587273 C28.2127959,20.2671151 29,19.9155769 29,19.1304305 L29,2.55360852 C29,1.71313209 28.0130586,1.19116336 26.6102404,1.53643574 C26.4940451,1.57668232 26.2758005,1.65164576 25.9679982,1.75637324 C25.4558126,1.93064067 24.8790893,2.12475333 24.2503083,2.33376151 C22.4537367,2.93094576 20.5991261,3.52815535 18.7859378,4.08588024 C18.1660528,4.27655281 17.5603387,4.4596793 16.9711616,4.63431517 C14.3553498,5.40965844 12.1604832,5.99077856 10.5,6.32905911 Z" id="Combined-Shape" stroke="#FFFFFF" stroke-width="2"></path>
                <path d="M10.25,15.0714286 L10.25,6.35714286 L0.998362452,6.35714286 C1.00539751,6.35714286 1,6.36256247 1,6.36511685 L1,15.0634546 C1,15.0722759 0.999158086,15.0714286 0.998362452,15.0714286 L10.25,15.0714286 Z" id="Rectangle-2" stroke="#FFFFFF" stroke-width="2"></path>
                <path d="M15.5,8.5 L22.03125,6.69642857" id="Line" stroke="#FFFFFF" stroke-width="2" stroke-linecap="round"></path>
                <ellipse id="Oval" fill="#FFFFFF" cx="25.3125" cy="5.35714286" rx="1" ry="1"></ellipse>
            </g>
        </g>
    </g>
</svg>