<?xml version="1.0" encoding="UTF-8"?>
<svg width="60px" height="60px" viewBox="0 0 60 60" version="1.1" xmlns="http://www.w3.org/2000/svg" xmlns:xlink="http://www.w3.org/1999/xlink">
    <!-- Generator: Sketch 51.3 (57544) - http://www.bohemiancoding.com/sketch -->
    <title>Group 15</title>
    <desc>Created with Sketch.</desc>
    <defs></defs>
    <g id="Page-1" stroke="none" stroke-width="1" fill="none" fill-rule="evenodd">
        <g id="Group-15" transform="translate(0.000000, -0.500000)">
            <g id="Group-8" fill="#90C8CD">
                <rect id="Rectangle" x="0" y="0.5" width="60" height="60" rx="4"></rect>
            </g>
            <g id="Group-11" transform="translate(15.500000, 10.000000)" stroke="#FFFFFF" stroke-width="2">
                <g id="Group-9" transform="translate(0.000000, 11.136228)">
                    <rect id="Rectangle-3" x="1" y="1" width="27" height="24.9125521" rx="4"></rect>
                    <path d="M6.796875,9.74419988 L10.421875,11.600238" id="Line" stroke-linecap="round"></path>
                    <path d="M18.578125,9.74419988 L22.203125,11.600238" id="Line" stroke-linecap="round" transform="translate(20.390625, 10.672219) scale(-1, 1) translate(-20.390625, -10.672219) "></path>
                    <path d="M7.703125,19.4883998 L21.7792035,19.4883998" id="Line" stroke-linecap="round"></path>
                </g>
                <g id="Group-10" transform="translate(12.687500, 0.000000)" stroke-linecap="round">
                    <path d="M0.453125,7.42415229 C-1.359375,4.17608566 3.625,4.64009518 0.453125,0" id="Path-3"></path>
                    <path d="M4.94056836,7.42415229 C3.58654515,4.99769293 5.79728731,4.64286772 5.67995865,2.68410607 C5.64023077,2.02086281 5.33358439,1.17372467 4.53125,0" id="Path-3"></path>
                </g>
            </g>
        </g>
    </g>
</svg>