<?xml version="1.0" encoding="utf-8"?>
<!-- Generator: Adobe Illustrator 24.0.1, SVG Export Plug-In . SVG Version: 6.00 Build 0)  -->
<svg version="1.1" id="Layer_1" xmlns="http://www.w3.org/2000/svg" xmlns:xlink="http://www.w3.org/1999/xlink" x="0px" y="0px"
	 viewBox="0 0 81 104" style="enable-background:new 0 0 81 104;" xml:space="preserve">
<style type="text/css">
	.st0{fill-rule:evenodd;clip-rule:evenodd;fill:#99EAA8;}
	.st1{fill-rule:evenodd;clip-rule:evenodd;fill:#CCCCCC;}
	.st2{fill:none;stroke:#CCCCCC;stroke-width:2.4;}
</style>
<title>Group 3</title>
<desc>Created with Sketch.</desc>
<g id="_x30_">
	<g id="Artboard-Copy-4" transform="translate(-593.000000, -251.000000)">
		<g id="Group-4" transform="translate(478.000000, 253.000000)">
			<g id="Group-3" transform="translate(115.822030, 0.000000)">
				<path id="Rectangle-8" class="st0" d="M18,90.7h29.6c2.9,0,5.2,2.3,5.2,5.2l0,0c0,2.9-2.3,5.2-5.2,5.2H18
					c-2.9,0-5.2-2.3-5.2-5.2l0,0C12.8,93,15.1,90.7,18,90.7z"/>
				<ellipse id="Oval-2" class="st1" cx="7.9" cy="61.3" rx="1.6" ry="1.6"/>
				<ellipse id="Oval-2_1_" class="st1" cx="66.3" cy="45.8" rx="1.6" ry="1.6"/>
				<ellipse id="Oval-4" class="st2" cx="61.9" cy="8" rx="7.7" ry="7.9"/>
				<ellipse id="Oval-4_1_" class="st2" cx="76.3" cy="27.3" rx="2.6" ry="2.6"/>
				<path id="Line" class="st2" d="M8.4,35.9h49.2"/>
				<path id="Shape" class="st2" d="M25.9,54c0-0.1,0.2,0.3,0,1v28.2c0,1.1,0.9,2,2,2c0.4,0,0.8-0.1,1.1-0.3l9.5-6.1
					c0.6-0.4,0.9-1,0.9-1.7V55c-0.2-0.7,0-1.1,0-1l24.4-23.6c0.8-0.8,0.8-2,0-2.8c-0.4-0.4-0.9-0.6-1.4-0.6H2.9c-1.1,0-2,0.9-2,2
					c0,0.5,0.2,1.1,0.6,1.4L25.9,54z"/>
			</g>
		</g>
	</g>
</g>
</svg>
