<?xml version="1.0" encoding="utf-8"?>
<!-- Generator: Adobe Illustrator 24.0.1, SVG Export Plug-In . SVG Version: 6.00 Build 0)  -->
<svg version="1.1" id="Layer_1" xmlns="http://www.w3.org/2000/svg" xmlns:xlink="http://www.w3.org/1999/xlink" x="0px" y="0px"
	 viewBox="0 0 118 26" style="enable-background:new 0 0 118 26;" xml:space="preserve">
<style type="text/css">
	.st0{fill:#FFFFFF;}
	.st1{fill:#68BC71;}
	.st2{fill:#67B279;}
</style>
<path class="st0" d="M92.5,18.3l-0.9-2.3h-4.5l-0.8,2.3h-3l4.8-11.5h2.7l4.8,11.5H92.5L92.5,18.3z M89.4,9.9L88,13.8h2.9
	C90.9,13.8,89.4,9.9,89.4,9.9z M82.8,14c0,0.7-0.1,1.3-0.3,1.9c-0.2,0.6-0.6,1.1-1,1.5c-0.5,0.4-1,0.7-1.6,1c-0.6,0.2-1.3,0.3-2,0.3
	c-0.8,0-1.4-0.1-2.1-0.3c-0.6-0.2-1.1-0.5-1.6-1c-0.4-0.4-0.8-0.9-1-1.5c-0.2-0.6-0.4-1.2-0.3-1.9V6.8h2.8v6.9c0,0.3,0,0.6,0.1,0.9
	c0.1,0.3,0.2,0.5,0.4,0.8c0.2,0.2,0.4,0.4,0.7,0.5c0.3,0.1,0.6,0.2,1,0.2c0.4,0,0.7-0.1,1-0.2c0.3-0.1,0.5-0.3,0.7-0.5
	c0.2-0.2,0.3-0.5,0.4-0.8c0.1-0.3,0.1-0.6,0.1-0.9V6.8h2.8L82.8,14L82.8,14z M71.4,17.6c-0.6,0.3-1.3,0.6-2,0.7
	c-0.8,0.2-1.6,0.3-2.5,0.3c-0.9,0-1.8-0.1-2.6-0.4c-0.7-0.3-1.4-0.7-2-1.2c-0.6-0.5-1-1.2-1.3-1.9c-0.3-0.7-0.5-1.6-0.5-2.5
	c0-0.9,0.2-1.8,0.5-2.5c0.3-0.7,0.8-1.4,1.3-1.9c0.6-0.5,1.3-0.9,2-1.2c0.8-0.3,1.6-0.4,2.5-0.4c0.9,0,1.8,0.1,2.5,0.4
	c0.8,0.3,1.4,0.6,1.9,1.1l-1.8,2c-0.3-0.3-0.7-0.6-1.1-0.8C68,9.1,67.5,9,66.9,9C66.5,9,66,9,65.6,9.2c-0.4,0.2-0.8,0.4-1.1,0.7
	c-0.3,0.3-0.6,0.7-0.7,1.1c-0.2,0.5-0.3,0.9-0.3,1.4c0,0.5,0.1,1,0.2,1.5c0.2,0.4,0.4,0.8,0.7,1.1c0.3,0.3,0.7,0.6,1.1,0.7
	c0.4,0.2,0.9,0.3,1.5,0.3c0.3,0,0.6,0,0.9-0.1c0.3,0,0.6-0.1,0.8-0.2v-2.1h-2.2v-2.2h4.8V17.6L71.4,17.6z M117.5,12.5
	c0,1-0.2,1.9-0.6,2.6c-0.4,0.7-0.9,1.3-1.5,1.8c-0.6,0.5-1.3,0.8-2.1,1c-0.8,0.2-1.6,0.3-2.3,0.3h-4.3V6.8h4.2
	c0.8,0,1.6,0.1,2.4,0.3c0.8,0.2,1.5,0.5,2.1,0.9c0.6,0.4,1.1,1,1.5,1.8C117.3,10.5,117.5,11.4,117.5,12.5z M114.6,12.5
	c0-0.6-0.1-1.2-0.3-1.6c-0.2-0.4-0.5-0.8-0.8-1c-0.4-0.3-0.8-0.4-1.2-0.5c-0.5-0.1-0.9-0.2-1.4-0.2h-1.4v6.7h1.3
	c0.5,0,1-0.1,1.4-0.2c0.5-0.1,0.9-0.3,1.2-0.6c0.4-0.3,0.7-0.6,0.8-1C114.5,13.7,114.6,13.2,114.6,12.5z M59.4,12.5
	c0,1-0.2,1.9-0.6,2.6c-0.4,0.7-0.9,1.3-1.5,1.8c-0.6,0.5-1.3,0.8-2.1,1c-0.8,0.2-1.6,0.3-2.3,0.3h-4.3V6.8h4.2
	c0.8,0,1.6,0.1,2.4,0.3C56,7.3,56.7,7.6,57.3,8c0.6,0.4,1.1,1,1.5,1.8C59.2,10.5,59.4,11.4,59.4,12.5z M56.5,12.5
	c0-0.6-0.1-1.2-0.3-1.6c-0.2-0.4-0.5-0.8-0.8-1c-0.4-0.3-0.8-0.4-1.2-0.5c-0.5-0.1-0.9-0.2-1.4-0.2h-1.4v6.7h1.3
	c0.5,0,1-0.1,1.4-0.2c0.5-0.1,0.9-0.3,1.2-0.6c0.4-0.3,0.7-0.6,0.8-1C56.3,13.7,56.5,13.2,56.5,12.5z M44.6,18.3l-0.9-2.3h-4.5
	l-0.8,2.3h-3l4.8-11.5h2.7l4.8,11.5L44.6,18.3L44.6,18.3z M41.5,9.9L40,13.8h2.9L41.5,9.9L41.5,9.9z M102.7,18.3l-2.5-4.6h-0.9v4.6
	h-2.7V6.8h4.4c0.6,0,1.1,0.1,1.6,0.2c0.5,0.1,1,0.3,1.4,0.6c0.4,0.3,0.8,0.6,1,1.1c0.2,0.4,0.4,1,0.4,1.7c0,0.8-0.2,1.4-0.6,2
	c-0.4,0.5-1,0.9-1.8,1.1l3,4.9C106,18.3,102.7,18.3,102.7,18.3z M102.6,10.3c0-0.3-0.1-0.5-0.2-0.7c-0.1-0.2-0.3-0.3-0.4-0.4
	c-0.2-0.1-0.4-0.2-0.6-0.2c-0.2,0-0.4,0-0.6,0h-1.5v2.7h1.3c0.2,0,0.5,0,0.7-0.1c0.2,0,0.5-0.1,0.7-0.2c0.2-0.1,0.4-0.2,0.5-0.4
	S102.6,10.6,102.6,10.3z"/>
<path class="st1" d="M12.7,0C8.7,0,3.9,0.9,0,3c0,4.4-0.1,15.4,12.7,23C25.4,18.4,25.3,7.4,25.3,3C21.4,0.9,16.6,0,12.7,0z"/>
<path class="st2" d="M12.6,25.9C-0.1,18.4,0,7.4,0,3c3.9-2,8.7-3,12.6-3V25.9z"/>
<path class="st0" d="M12.2,17.3L19.8,7c-0.6-0.4-1.1-0.1-1.3,0.1h0l-6.4,6.6l-2.4-2.9c-1.1-1.3-2.7-0.3-3.1,0L12.2,17.3"/>
</svg>
