<?xml version="1.0" encoding="UTF-8"?>
<svg width="60px" height="60px" viewBox="0 0 60 60" version="1.1" xmlns="http://www.w3.org/2000/svg" xmlns:xlink="http://www.w3.org/1999/xlink">
    <!-- Generator: Sketch 55.2 (78181) - https://sketchapp.com -->
    <title>Group 25</title>
    <desc>Created with Sketch.</desc>
    <g id="Symbols" stroke="none" stroke-width="1" fill="none" fill-rule="evenodd">
        <g id="Group-25">
            <g id="Group-4-Copy-2">
                <g id="Group-16">
                    <rect id="Rectangle" fill="#6794B9" x="0" y="0" width="60" height="60" rx="4"></rect>
                    <circle id="Oval-4" fill="#FFFFFF" cx="41" cy="31" r="1"></circle>
                    <path d="M37,19 C37,15.1340068 33.8659932,12 30,12 C26.1340068,12 23,15.1340068 23,19" id="Shape" stroke="#FFFFFF" stroke-width="2"></path>
                    <path d="M30,37.372889 C30.5174473,37.372889 30.9056852,37.4902186 31.2306664,36.523071 C31.5718296,35.5077657 31.8432798,33.3993609 32.1213203,33.1213203 C32.6642136,32.5784271 33,31.8284271 33,31 C33,29.3431458 31.6568542,28 30,28 C28.3431458,28 27,29.3431458 27,31 C27,31.8284271 27.3357864,32.5784271 27.8786797,33.1213203 C28.1567368,33.3993775 28.4282027,35.5078978 28.7693946,36.5232525 C29.0943634,37.490329 29.4825851,37.372889 30,37.372889 Z" id="Oval" stroke="#FFFFFF" stroke-width="2"></path>
                    <path d="M37,24 C37,24 37.8007298,24 39,24 C40.1992702,24 41,25.1983033 41,26 C41,26.8016967 41,28 41,28" id="Line" stroke="#FFFFFF" stroke-width="2" stroke-linecap="round"></path>
                </g>
            </g>
            <rect id="Rectangle" stroke="#FFFFFF" stroke-width="2" x="15" y="20" width="30" height="26" rx="7"></rect>
        </g>
    </g>
</svg>