<?xml version="1.0" standalone="no"?>
<!DOCTYPE svg PUBLIC "-//W3C//DTD SVG 1.1//EN" "http://www.w3.org/Graphics/SVG/1.1/DTD/svg11.dtd" >
<svg xmlns="http://www.w3.org/2000/svg">
<metadata></metadata>
<defs>
<font id="gotham_promedium" horiz-adv-x="1024" >
<font-face units-per-em="2048" ascent="1638" descent="-410" />
<missing-glyph horiz-adv-x="614" />
<glyph horiz-adv-x="2048" />
<glyph horiz-adv-x="2048" />
<glyph unicode="&#xd;" horiz-adv-x="2048" />
<glyph unicode=" "  horiz-adv-x="614" />
<glyph unicode="&#x09;" horiz-adv-x="614" />
<glyph unicode="&#xa0;" horiz-adv-x="614" />
<glyph unicode="!" horiz-adv-x="618" d="M164 1362v72h291v-72l-76 -909h-137zM174 0v281h272v-281h-272z" />
<glyph unicode="&#x22;" horiz-adv-x="997" d="M123 821l47 613h281v-11l-199 -602h-129zM571 821l50 613h280v-11l-201 -602h-129z" />
<glyph unicode="#" horiz-adv-x="1433" d="M80 330v213h221l59 356h-204v213h241l56 322h219l-56 -322h336l54 322h219l-56 -322h183v-213h-219l-60 -356h205v-213h-242l-57 -330h-219l57 330h-336l-55 -330h-219l57 330h-184zM518 543h336l61 356h-335z" />
<glyph unicode="$" horiz-adv-x="1314" d="M100 207l131 186q186 -150 361 -176v401q-230 60 -334 156.5t-104 267.5q0 164 121 270.5t315 121.5v118h166v-122q216 -26 391 -156l-115 -193q-134 101 -278 131v-389q234 -59 339 -159t105 -267q0 -165 -122 -271t-320 -124v-203h-166v205q-274 31 -490 203zM395 1053 q0 -67 42 -110t155 -77v361q-95 -7 -146 -54.5t-51 -119.5zM754 209q96 7 149 54t53 124q0 71 -43.5 115t-158.5 78v-371z" />
<glyph unicode="%" horiz-adv-x="1738" d="M98 1083q0 153 95.5 260t244.5 107q148 0 242 -106.5t94 -260.5q0 -153 -95.5 -259.5t-244.5 -106.5q-148 0 -242 106t-94 260zM244 0l1048 1434h203l-1049 -1434h-202zM281 1083q0 -89 44.5 -149t112.5 -60q70 0 112 60t42 149q0 87 -45 148t-113 61q-70 0 -111.5 -60 t-41.5 -149zM965 350q0 153 95.5 260t244.5 107q148 0 241.5 -106.5t93.5 -260.5q0 -153 -95.5 -259.5t-244.5 -106.5q-148 0 -241.5 106t-93.5 260zM1147 350q0 -89 45 -149t113 -60q70 0 111.5 60t41.5 149q0 87 -45 148t-113 61q-70 0 -111.5 -60t-41.5 -149z" />
<glyph unicode="&#x26;" horiz-adv-x="1425" d="M80 393q0 272 305 402q-62 79 -90.5 150.5t-28.5 152.5q0 150 113 255t299 105q168 0 274.5 -100t106.5 -250q0 -253 -316 -373l246 -250q80 119 154 277l190 -100q-99 -199 -194 -328l225 -230l-186 -133l-191 195q-199 -186 -440 -186q-203 0 -335 113.5t-132 299.5z M334 397q0 -91 67.5 -150t171.5 -59q140 0 271 125l-320 326q-96 -41 -143 -104t-47 -138zM502 1083q0 -54 23.5 -100t84.5 -113q113 41 169.5 95.5t56.5 132.5q0 72 -46 117t-118 45q-76 0 -123 -49.5t-47 -127.5z" />
<glyph unicode="'" horiz-adv-x="550" d="M123 821l47 613h285v-11l-201 -602h-131z" />
<glyph unicode="(" horiz-adv-x="901" d="M129 588q0 287 142 504t425 372l109 -166q-221 -147 -324.5 -315.5t-103.5 -394.5t103.5 -395t324.5 -316l-109 -166q-567 312 -567 877z" />
<glyph unicode=")" horiz-adv-x="901" d="M98 -123q221 147 324.5 316t103.5 395t-103.5 394.5t-324.5 315.5l109 166q567 -313 567 -876q0 -564 -567 -877z" />
<glyph unicode="*" horiz-adv-x="880" d="M119 1008l233 102l-233 102l74 125l204 -149l-28 250h143l-29 -250l205 149l74 -125l-234 -102l234 -102l-74 -125l-205 149l29 -250h-143l28 250l-204 -149z" />
<glyph unicode="+" horiz-adv-x="1310" d="M145 608v226h394v391h233v-391h393v-226h-393v-391h-233v391h-394z" />
<glyph unicode="," horiz-adv-x="550" d="M70 -193q176 35 176 170q0 4 -1 11.5t-1 11.5h-105v281h273v-238q0 -166 -78.5 -247t-237.5 -93z" />
<glyph unicode="-" horiz-adv-x="835" d="M115 506v244h606v-244h-606z" />
<glyph unicode="." horiz-adv-x="550" d="M139 0v281h273v-281h-273z" />
<glyph unicode="/" horiz-adv-x="1067" d="M-51 -262l925 1896h216l-926 -1896h-215z" />
<glyph unicode="0" horiz-adv-x="1482" d="M117 717q0 205 77 373t221 268t328 100q183 0 326.5 -99t220 -267t76.5 -375q0 -153 -45.5 -289t-126 -236t-199 -158.5t-256.5 -58.5q-184 0 -327 99t-219 267.5t-76 375.5zM377 717q0 -142 44.5 -258.5t128.5 -186t193 -69.5t192.5 69t127 185t43.5 260 q0 217 -102.5 365.5t-264.5 148.5q-108 0 -191 -68.5t-127 -184.5t-44 -261z" />
<glyph unicode="1" horiz-adv-x="811" d="M53 1321l385 123h176v-1444h-249v1188l-259 -72z" />
<glyph unicode="2" horiz-adv-x="1255" d="M100 0v199l494 419q151 127 209.5 210t58.5 178q0 103 -65 163t-166 60q-94 0 -169 -51t-163 -164l-178 139q73 103 141.5 165.5t165 99t221.5 36.5q211 0 342 -119t131 -313q0 -67 -15.5 -125t-41.5 -106.5t-76.5 -104t-102 -102.5t-136.5 -117l-295 -246h682v-221 h-1037z" />
<glyph unicode="3" horiz-adv-x="1265" d="M88 227l176 164q79 -94 170 -141t207 -47q108 0 178 60.5t70 160.5q0 105 -88.5 163t-241.5 58h-117l-41 158l387 411h-620v220h948v-189l-399 -409q89 -13 162.5 -42t133 -77t93 -121.5t33.5 -167.5q0 -199 -140 -326t-362 -127q-342 0 -549 252z" />
<glyph unicode="4" horiz-adv-x="1394" d="M74 502l796 942h215v-916h205v-206h-205v-322h-241v322h-723zM373 528h471v568z" />
<glyph unicode="5" horiz-adv-x="1273" d="M96 195l156 182q187 -172 369 -172q129 0 206.5 68.5t77.5 183.5q0 108 -82.5 172.5t-214.5 64.5q-131 0 -264 -63l-151 100l40 703h857v-224h-639l-23 -336q112 41 227 41q143 0 253.5 -48.5t177.5 -152.5t67 -253q0 -219 -146 -352.5t-384 -133.5q-300 0 -527 220z" />
<glyph unicode="6" horiz-adv-x="1343" d="M117 678q0 132 24.5 249t75 214.5t122.5 168t172.5 109.5t219.5 39q133 0 235.5 -40t202.5 -120l-135 -194q-82 64 -152.5 94.5t-158.5 30.5q-155 0 -245 -125.5t-99 -329.5q68 67 147.5 105.5t194.5 38.5q141 0 253.5 -52t180.5 -157t68 -246q0 -140 -70 -252t-192 -174 t-271 -62q-247 0 -397 150q-89 89 -132.5 216t-43.5 337zM387 451q0 -111 82 -184.5t215 -73.5q131 0 209 74t78 190q0 109 -80.5 179.5t-212.5 70.5q-130 0 -210.5 -73.5t-80.5 -182.5z" />
<glyph unicode="7" horiz-adv-x="1247" d="M139 1212v222h1008v-191l-647 -1243h-283l643 1212h-721z" />
<glyph unicode="8" horiz-adv-x="1290" d="M98 393q0 242 258 350q-209 109 -209 324q0 165 142 276t356 111q215 0 356.5 -111t141.5 -280q0 -211 -209 -320q125 -58 191.5 -141t66.5 -207q0 -125 -71.5 -220.5t-195 -145t-280.5 -49.5q-238 0 -392.5 114t-154.5 299zM344 406q0 -91 82 -153.5t219 -62.5 q138 0 219.5 62.5t81.5 157.5q0 97 -85.5 157t-215.5 60t-215.5 -61t-85.5 -160zM389 1040q0 -93 72.5 -153t183.5 -60t183.5 60t72.5 155q0 85 -71.5 143t-184.5 58q-114 0 -185 -58.5t-71 -144.5z" />
<glyph unicode="9" horiz-adv-x="1343" d="M121 963q0 213 149.5 354t384.5 141q132 0 226.5 -37t171.5 -114q85 -85 129.5 -215.5t44.5 -335.5q0 -230 -72.5 -406.5t-213 -275.5t-329.5 -99q-140 0 -249 44.5t-209 127.5l137 193q83 -70 159.5 -102.5t167.5 -32.5q156 0 248.5 124t98.5 326q-126 -151 -336 -151 q-230 0 -369 124.5t-139 334.5zM373 971q0 -113 80.5 -184.5t212.5 -71.5t211 75.5t79 186.5q0 114 -82.5 189t-216.5 75q-130 0 -207 -76.5t-77 -193.5z" />
<glyph unicode=":" horiz-adv-x="571" d="M150 0v281h272v-281h-272zM150 801v280h272v-280h-272z" />
<glyph unicode=";" horiz-adv-x="571" d="M80 -193q176 35 176 170q0 4 -1 11.5t-1 11.5h-104v281h272v-238q0 -166 -78.5 -247t-237.5 -93zM150 801v280h272v-280h-272z" />
<glyph unicode="&#x3c;" horiz-adv-x="1310" d="M143 610v221l977 453v-235l-731 -326l731 -328v-237z" />
<glyph unicode="=" horiz-adv-x="1310" d="M176 350v230h959v-230h-959zM176 862v230h959v-230h-959z" />
<glyph unicode="&#x3e;" horiz-adv-x="1310" d="M190 158v235l732 326l-732 328v237l977 -453v-221z" />
<glyph unicode="?" horiz-adv-x="1107" d="M49 1225q200 227 494 227q217 0 348 -113t131 -307q0 -94 -32 -167.5t-89.5 -122t-129.5 -79t-161 -45.5l-20 -165h-166l-41 331l10 11q379 15 379 233q0 88 -63 141.5t-172 53.5q-181 0 -334 -162zM365 0v281h274v-281h-274z" />
<glyph unicode="@" horiz-adv-x="2007" d="M109 561q0 181 70 346t189.5 286t286 193t351.5 72q184 0 350.5 -67.5t284.5 -179t187.5 -259.5t69.5 -305q0 -125 -32 -224t-87.5 -160.5t-126 -93.5t-151.5 -32q-112 0 -188 40.5t-115 103.5q-140 -144 -317 -144q-158 0 -264.5 107t-106.5 280q0 105 39.5 201 t103.5 163.5t149 107.5t173 40q191 0 289 -151l24 123l199 -31l-90 -516q-11 -68 -11 -88q0 -67 43 -106.5t117 -39.5q116 0 193.5 109.5t77.5 310.5q0 112 -39 220.5t-113 200.5t-172 162.5t-224.5 110t-262.5 39.5q-172 0 -324 -65t-259.5 -175t-170 -261t-62.5 -318 q0 -168 62 -318t170.5 -259.5t264.5 -173.5t335 -64q147 0 265.5 33.5t240.5 103.5l37 -61q-253 -154 -543 -154q-129 0 -249.5 32.5t-220.5 90.5t-183 140.5t-140 180.5t-88.5 213t-31.5 236zM719 537q0 -104 60 -163t157 -59q113 0 198 96t85 228q0 97 -61 159t-154 62 q-115 0 -200 -93.5t-85 -229.5z" />
<glyph unicode="A" horiz-adv-x="1617" d="M61 0l631 1444h234l630 -1444h-266l-145 346h-678l-148 -346h-258zM559 569h494l-248 574z" />
<glyph unicode="B" horiz-adv-x="1478" d="M184 0v1434h643q248 0 375 -127q96 -96 96 -242q0 -214 -204 -320q137 -46 210.5 -128.5t73.5 -223.5q0 -189 -143 -291t-387 -102h-664zM432 223h418q131 0 203.5 51.5t72.5 149.5q0 92 -74 142t-221 50h-399v-393zM432 829h344q126 0 198.5 50.5t72.5 148.5 q0 85 -66 133.5t-186 48.5h-363v-381z" />
<glyph unicode="C" horiz-adv-x="1511" d="M121 717q0 152 55 288t151 236t235 158.5t298 58.5q185 0 316.5 -57.5t244.5 -165.5l-161 -186q-94 86 -190 132t-212 46q-134 0 -243 -68t-169.5 -184.5t-60.5 -257.5q0 -213 135 -361.5t338 -148.5q124 0 217.5 46t194.5 140l162 -164q-80 -83 -158.5 -136t-186 -85.5 t-237.5 -32.5q-205 0 -372.5 98t-262 268t-94.5 376z" />
<glyph unicode="D" horiz-adv-x="1601" d="M184 0v1434h535q166 0 309 -55t242 -150.5t155 -228t56 -283.5q0 -150 -56 -282t-155 -228t-242 -151.5t-309 -55.5h-535zM436 229h283q224 0 361 136t137 352q0 213 -137.5 350t-360.5 137h-283v-975z" />
<glyph unicode="E" horiz-adv-x="1372" d="M184 0v1434h1063v-226h-811v-372h719v-226h-719v-385h821v-225h-1073z" />
<glyph unicode="F" horiz-adv-x="1343" d="M184 0v1434h1067v-230h-815v-391h723v-229h-723v-584h-252z" />
<glyph unicode="G" horiz-adv-x="1605" d="M121 717q0 149 55.5 284.5t151.5 236.5t235 160.5t297 59.5q180 0 307.5 -47.5t243.5 -146.5l-160 -191q-92 78 -182.5 116t-218.5 38q-129 0 -236.5 -69t-168 -186t-60.5 -255q0 -147 60 -263t171.5 -182.5t255.5 -66.5q203 0 347 108v269h-367v219h610v-602 q-261 -224 -598 -224q-220 0 -390.5 97.5t-261.5 266t-91 378.5z" />
<glyph unicode="H" horiz-adv-x="1556" d="M184 0v1434h252v-596h684v596h252v-1434h-252v604h-684v-604h-252z" />
<glyph unicode="I" horiz-adv-x="649" d="M199 0v1434h252v-1434h-252z" />
<glyph unicode="J" horiz-adv-x="1144" d="M43 211l166 170q67 -84 134.5 -126t154.5 -42q105 0 166 71.5t61 209.5v940h258v-947q0 -248 -133 -381q-126 -126 -348 -126q-291 0 -459 231z" />
<glyph unicode="K" horiz-adv-x="1484" d="M184 0v1434h252v-721l682 721h309l-596 -617l623 -817h-305l-490 645l-223 -229v-416h-252z" />
<glyph unicode="L" horiz-adv-x="1267" d="M184 0v1434h252v-1205h754v-229h-1006z" />
<glyph unicode="M" horiz-adv-x="1777" d="M184 0v1434h269l436 -678l436 678h268v-1434h-252v1028l-452 -676h-8l-449 672v-1024h-248z" />
<glyph unicode="N" horiz-adv-x="1617" d="M184 0v1434h234l768 -992v992h248v-1434h-211l-791 1020v-1020h-248z" />
<glyph unicode="O" horiz-adv-x="1740" d="M121 717q0 150 56 285.5t154 236t239 160t302 59.5q162 0 302 -58.5t237.5 -158.5t153 -236t55.5 -288q0 -150 -56 -286t-154 -236.5t-239.5 -160t-302.5 -59.5q-215 0 -387 100.5t-266 269.5t-94 372zM385 717q0 -139 61.5 -255.5t174 -185.5t251.5 -69t250.5 68.5 t172.5 184.5t61 257q0 139 -62 255.5t-174.5 185.5t-251.5 69t-250.5 -68.5t-172 -184.5t-60.5 -257z" />
<glyph unicode="P" horiz-adv-x="1368" d="M184 0v1434h566q250 0 397 -131.5t147 -352.5q0 -156 -78.5 -268.5t-206 -166.5t-288.5 -54h-285v-461h-252zM436 688h293q141 0 225 71.5t84 188.5q0 124 -82.5 190t-226.5 66h-293v-516z" />
<glyph unicode="Q" horiz-adv-x="1740" d="M121 717q0 150 56 285.5t154 236t239 160t302 59.5q162 0 302 -58.5t237.5 -158.5t153 -236t55.5 -288q0 -248 -145 -441l163 -139l-161 -180l-172 154q-191 -136 -437 -136q-215 0 -387 100.5t-266 269.5t-94 372zM385 717q0 -139 61.5 -255.5t174 -185.5t251.5 -69 q137 0 246 69l-246 209l162 185l248 -226q74 115 74 273q0 139 -62 255.5t-174.5 185.5t-251.5 69t-250.5 -68.5t-172 -184.5t-60.5 -257z" />
<glyph unicode="R" horiz-adv-x="1480" d="M184 0v1434h639q249 0 391 -124t142 -333q0 -170 -92 -279.5t-250 -154.5l387 -543h-297l-356 500h-312v-500h-252zM436 723h369q135 0 215 66t80 178q0 114 -78 175.5t-219 61.5h-367v-481z" />
<glyph unicode="S" horiz-adv-x="1310" d="M88 209l152 180q107 -93 215 -139.5t237 -46.5q117 0 185.5 49.5t68.5 134.5q0 54 -25 89.5t-95.5 68t-202.5 63.5q-124 29 -205 60.5t-146.5 80.5t-96 119.5t-30.5 169.5q0 184 137.5 300t352.5 116q297 0 520 -180l-135 -191q-199 148 -389 148q-108 0 -171 -49 t-63 -125q0 -57 28.5 -94t100.5 -68t211 -64q239 -58 350 -153.5t111 -269.5q0 -198 -141.5 -313t-370.5 -115q-342 0 -598 229z" />
<glyph unicode="T" horiz-adv-x="1327" d="M82 1200v234h1163v-234h-454v-1200h-254v1200h-455z" />
<glyph unicode="U" horiz-adv-x="1550" d="M162 608v826h252v-816q0 -197 95.5 -303t266.5 -106q170 0 265.5 102t95.5 297v826h252v-813q0 -314 -164.5 -479t-452.5 -165q-285 0 -447.5 162t-162.5 469z" />
<glyph unicode="V" horiz-adv-x="1536" d="M61 1434h279l432 -1102l430 1102h273l-596 -1444h-222z" />
<glyph unicode="W" horiz-adv-x="2285" d="M74 1434h272l342 -1063l352 1067h213l353 -1067l342 1063h264l-500 -1444h-217l-352 1030l-352 -1030h-218z" />
<glyph unicode="X" horiz-adv-x="1492" d="M76 0l522 729l-502 705h297l357 -514l358 514h289l-500 -701l520 -733h-297l-377 543l-378 -543h-289z" />
<glyph unicode="Y" horiz-adv-x="1466" d="M37 1434h297l401 -635l406 635h289l-570 -863v-571h-254v565z" />
<glyph unicode="Z" horiz-adv-x="1437" d="M133 0v186l846 1024h-819v224h1147v-187l-846 -1024h846v-223h-1174z" />
<glyph unicode="[" horiz-adv-x="929" d="M180 -266v1700h629v-195h-393v-1311h393v-194h-629z" />
<glyph unicode="\" horiz-adv-x="1067" d="M-23 1634h216l925 -1896h-215z" />
<glyph unicode="]" horiz-adv-x="929" d="M121 -72h393v1311h-393v195h631v-1700h-631v194z" />
<glyph unicode="^" d="M115 1010l309 426h176l309 -426h-190l-209 270l-209 -270h-186z" />
<glyph unicode="_" horiz-adv-x="1228" d="M-4 -135h1237v-193h-1237v193z" />
<glyph unicode="`" d="M254 1454l225 100l217 -335h-192z" />
<glyph unicode="a" horiz-adv-x="1202" d="M82 315q0 174 120.5 264.5t317.5 90.5q159 0 299 -45v20q0 113 -68.5 172.5t-197.5 59.5q-146 0 -309 -68l-68 199q100 45 194.5 67.5t217.5 22.5q236 0 355.5 -118.5t119.5 -338.5v-641h-246v133q-131 -156 -350 -156q-105 0 -191 37.5t-140 115.5t-54 185zM328 324 q0 -74 59 -117t150 -43q124 0 205 63.5t81 163.5v62q-108 43 -248 43q-117 0 -182 -45t-65 -127z" />
<glyph unicode="b" horiz-adv-x="1372" d="M156 0v1495h247v-594q144 203 367 203q97 0 187 -38t161 -108t113.5 -179t42.5 -240q0 -130 -42.5 -238t-113 -178t-160.5 -108t-188 -38q-222 0 -367 191v-168h-247zM397 539q0 -152 93 -249t223 -97q131 0 220 95.5t89 254.5q0 153 -90 249.5t-219 96.5 q-130 0 -223 -98t-93 -252z" />
<glyph unicode="c" horiz-adv-x="1169" d="M96 539q0 152 72 281.5t201.5 206.5t287.5 77q145 0 248.5 -48t184.5 -138l-154 -166q-63 66 -128 100.5t-153 34.5q-134 0 -222.5 -101t-88.5 -247q0 -147 91.5 -248t232.5 -101q82 0 149 35t131 101l150 -148q-88 -99 -191.5 -151t-251.5 -52q-158 0 -286.5 76 t-200.5 205t-72 283z" />
<glyph unicode="d" horiz-adv-x="1372" d="M100 543q0 130 42 238t112.5 177.5t160 107.5t187.5 38q220 0 369 -191v582h248v-1495h-248v180q-144 -203 -369 -203q-96 0 -185.5 38.5t-160.5 108t-113.5 179t-42.5 240.5zM350 539q0 -153 91 -249.5t221 -96.5q129 0 221 98t92 252q0 152 -92 249t-221 97 q-132 0 -222 -95.5t-90 -254.5z" />
<glyph unicode="e" horiz-adv-x="1236" d="M96 541q0 154 67 282.5t189 204.5t273 76q101 0 186 -30.5t145.5 -84.5t103 -127.5t63 -159.5t20.5 -180q0 -45 -4 -69h-795q20 -130 104.5 -202.5t206.5 -72.5q88 0 157 31.5t136 97.5l146 -129q-168 -203 -443 -203q-156 0 -282 70t-199.5 200t-73.5 296zM342 616h555 q-13 126 -84.5 205.5t-189.5 79.5q-112 0 -187.5 -78.5t-93.5 -206.5z" />
<glyph unicode="f" horiz-adv-x="770" d="M74 868v207h137v78q0 180 88 268q86 86 244 86q104 0 200 -28v-209q-80 26 -145 26q-143 0 -143 -163v-60h286v-205h-282v-868h-248v868h-137z" />
<glyph unicode="g" horiz-adv-x="1372" d="M100 596q0 116 41.5 213.5t110.5 161t157 98.5t183 35q126 0 216.5 -49.5t162.5 -134.5v161h248v-860q0 -269 -138 -407q-146 -146 -444 -146q-270 0 -483 129l92 187q184 -115 385 -115q166 0 254 85t88 247v84q-74 -96 -164.5 -147.5t-216.5 -51.5q-96 0 -184 35 t-157 98.5t-110 161.5t-41 215zM350 594q0 -131 88.5 -215t218.5 -84q132 0 225 85t93 216t-93 215t-225 84q-131 0 -219 -83.5t-88 -217.5z" />
<glyph unicode="h" horiz-adv-x="1269" d="M156 0v1495h247v-582q131 191 338 191q181 0 283 -112.5t102 -303.5v-688h-247v614q0 126 -61 195.5t-171 69.5q-109 0 -176.5 -72.5t-67.5 -196.5v-610h-247z" />
<glyph unicode="i" horiz-adv-x="585" d="M160 1247v236h266v-236h-266zM170 0v1081h248v-1081h-248z" />
<glyph unicode="j" horiz-adv-x="585" d="M-16 -125q37 -6 69 -6q117 0 117 131v1081h248v-1095q0 -320 -316 -320q-53 0 -118 10v199zM160 1247v236h266v-236h-266z" />
<glyph unicode="k" horiz-adv-x="1191" d="M156 0v1495h247v-893l449 479h301l-430 -440l444 -641h-286l-326 467l-152 -158v-309h-247z" />
<glyph unicode="l" horiz-adv-x="585" d="M170 0v1495h248v-1495h-248z" />
<glyph unicode="m" horiz-adv-x="1945" d="M156 0v1081h247v-163q62 86 139.5 136t190.5 50q114 0 196 -51t126 -140q146 191 366 191q178 0 278.5 -108.5t100.5 -305.5v-690h-248v614q0 128 -57 196.5t-162 68.5q-104 0 -167.5 -70.5t-63.5 -198.5v-610h-248v616q0 125 -58 194t-161 69q-104 0 -168 -73t-64 -198 v-608h-247z" />
<glyph unicode="n" horiz-adv-x="1269" d="M156 0v1081h247v-168q131 191 338 191q181 0 283 -112.5t102 -303.5v-688h-247v614q0 126 -61 195.5t-171 69.5q-109 0 -176.5 -72.5t-67.5 -196.5v-610h-247z" />
<glyph unicode="o" horiz-adv-x="1345" d="M96 539q0 153 74.5 282.5t208 206t295.5 76.5q163 0 295 -75.5t206 -205t74 -284.5q0 -114 -44 -217.5t-120 -180t-184 -121.5t-231 -45q-162 0 -294 76t-206 205t-74 283zM344 539q0 -144 94 -246.5t236 -102.5q147 0 237 101t90 248q0 145 -93.5 246.5t-237.5 101.5 q-146 0 -236 -100t-90 -248z" />
<glyph unicode="p" horiz-adv-x="1372" d="M156 -328v1409h247v-180q144 203 367 203q97 0 187 -38t161 -108t113.5 -179t42.5 -240q0 -130 -42.5 -238t-113 -178t-160.5 -108t-188 -38q-222 0 -367 191v-496h-247zM397 539q0 -152 93 -249t223 -97q131 0 220 95.5t89 254.5q0 153 -90 249.5t-219 96.5 q-130 0 -223 -98t-93 -252z" />
<glyph unicode="q" horiz-adv-x="1372" d="M100 543q0 130 42 238t112.5 177.5t160 107.5t187.5 38q220 0 369 -191v168h248v-1409h-248v508q-144 -203 -369 -203q-96 0 -185.5 38.5t-160.5 108t-113.5 179t-42.5 240.5zM350 539q0 -153 91 -249.5t221 -96.5q129 0 221 98t92 252q0 152 -92 249t-221 97 q-132 0 -222 -95.5t-90 -254.5z" />
<glyph unicode="r" horiz-adv-x="845" d="M156 0v1081h247v-243q54 128 150 199q89 65 212 65h21v-262h-14q-168 0 -268.5 -109.5t-100.5 -318.5v-412h-247z" />
<glyph unicode="s" d="M68 141l110 168q177 -133 354 -133q79 0 123.5 32t44.5 89q0 23 -11.5 41.5t-30 31.5t-47 25.5t-57.5 21.5t-66 20q-7 2 -11 3l-18 6q-58 17 -98 31.5t-89 42t-79 59t-51 81t-21 110.5q0 150 109.5 240t275.5 90q100 0 205 -32.5t192 -90.5l-98 -176q-168 102 -305 102 q-71 0 -111.5 -30.5t-40.5 -81.5q0 -18 7 -33.5t25.5 -29t33.5 -23t47.5 -22t50.5 -19t59 -19.5q3 -1 10.5 -3t10.5 -3q56 -17 96.5 -33t89 -43.5t78.5 -59t51 -79.5t21 -105q0 -164 -112.5 -251.5t-289.5 -87.5q-118 0 -238.5 41.5t-219.5 119.5z" />
<glyph unicode="t" horiz-adv-x="839" d="M70 868v213h137v297h248v-297h290v-213h-290v-530q0 -135 133 -135q80 0 153 37v-203q-96 -55 -223 -55q-311 0 -311 317v569h-137z" />
<glyph unicode="u" horiz-adv-x="1269" d="M143 393v688h248v-614q0 -126 61 -195t171 -69q109 0 176 72t67 196v610h248v-1081h-248v168q-131 -191 -338 -191q-181 0 -283 112.5t-102 303.5z" />
<glyph unicode="v" horiz-adv-x="1218" d="M53 1081h266l291 -794l293 794h260l-442 -1089h-223z" />
<glyph unicode="w" horiz-adv-x="1763" d="M66 1081h253l218 -741l239 745h211l242 -745l221 741h248l-355 -1089h-221l-241 739l-244 -739h-221z" />
<glyph unicode="x" horiz-adv-x="1187" d="M61 0l398 549l-383 532h270l250 -356l250 356h264l-383 -526l399 -555h-270l-266 379l-264 -379h-265z" />
<glyph unicode="y" horiz-adv-x="1220" d="M53 1081h264l308 -802l280 802h258l-430 -1112q-65 -166 -145.5 -234.5t-210.5 -68.5q-134 0 -256 66l84 184q74 -41 145 -41q53 0 88.5 28t65.5 97z" />
<glyph unicode="z" horiz-adv-x="1146" d="M106 0v170l625 709h-602v202h918v-170l-625 -708h625v-203h-941z" />
<glyph unicode="{" horiz-adv-x="997" d="M106 494v188h54q126 0 178.5 52t52.5 173q0 18 -2 75.5t-2 72.5q0 83 20.5 144t72 113.5t143 89.5t229.5 62l43 -164q-93 -26 -147.5 -50.5t-84 -59.5t-38.5 -72t-9 -98q0 -20 2.5 -75t2.5 -77q0 -115 -53.5 -180.5t-159.5 -99.5q108 -35 160.5 -100t52.5 -181 q0 -22 -2.5 -76.5t-2.5 -74.5q0 -61 9 -98.5t38.5 -72t84 -59.5t147.5 -51l-43 -164q-138 25 -230 62t-143 90t-71.5 114t-20.5 144q0 15 2 72t2 75q0 121 -52.5 173.5t-178.5 52.5h-54z" />
<glyph unicode="|" horiz-adv-x="677" d="M240 -262v1896h198v-1896h-198z" />
<glyph unicode="}" horiz-adv-x="997" d="M102 -125q93 26 147.5 51t84 59.5t38.5 72t9 98.5q0 20 -2 74.5t-2 76.5q0 115 53.5 181t159.5 100q-108 35 -160.5 100t-52.5 180q0 22 2 77t2 75q0 61 -9 98t-38.5 72t-84 59.5t-147.5 50.5l43 164q138 -25 229.5 -62t143 -89.5t72 -113.5t20.5 -144q0 -15 -2 -72.5 t-2 -75.5q0 -121 52.5 -173t179.5 -52h53v-188h-53q-126 0 -179 -52.5t-53 -173.5q0 -18 2 -75t2 -72q0 -83 -20.5 -144t-71.5 -114t-143 -90t-230 -62z" />
<glyph unicode="~" horiz-adv-x="1013" d="M121 512q36 130 87.5 192t141.5 62q62 0 162 -41t131 -41q42 0 66 23t47 79l137 -41q-36 -132 -87.5 -194t-141.5 -62q-62 0 -162 41t-131 41q-42 0 -66 -23t-47 -79z" />
<glyph unicode="&#xa2;" horiz-adv-x="1189" d="M106 727q0 153 72 282t201 205t287 76h18l31 156h180l-37 -182q133 -41 242 -160l-150 -160q-72 72 -141 103l-133 -668q148 3 282 133l144 -141q-181 -207 -445 -207h-12l-35 -176h-180l41 209q-163 58 -264 202.5t-101 327.5zM348 727q0 -103 46.5 -186.5t127.5 -126.5 l129 661q-130 -3 -216.5 -103t-86.5 -245z" />
<glyph unicode="&#xa3;" horiz-adv-x="1318" d="M129 0v160l162 49v360h-162v213h162v189q0 225 124 354t347 129q158 0 263.5 -60t188.5 -169l-192 -154q-60 77 -118.5 113.5t-139.5 36.5q-101 0 -160 -69t-59 -187v-183h510v-213h-510v-350h665v-219h-1081z" />
<glyph unicode="&#xa5;" horiz-adv-x="1404" d="M39 1434h293l375 -600l374 600h285l-475 -711h328v-182h-396v-150h396v-182h-396v-209h-241v209h-396v182h396v150h-396v182h326z" />
<glyph unicode="&#xa8;" d="M182 1219v241h252v-241h-252zM590 1219v241h252v-241h-252z" />
<glyph unicode="&#xa9;" horiz-adv-x="1699" d="M109 717q0 149 58 285.5t157 236.5t237 159.5t291 59.5t290.5 -59t235.5 -158.5t155.5 -236t57.5 -287.5q0 -149 -58 -285.5t-157 -237t-237 -160t-291 -59.5q-204 0 -374.5 100t-267.5 270.5t-97 371.5zM186 713q0 -181 86 -333.5t238.5 -241.5t337.5 -89q186 0 339 90 t239.5 244.5t86.5 337.5q0 181 -86 333t-238 241t-337 89q-186 0 -339.5 -90t-240 -244t-86.5 -337zM465 727q0 167 113 284t284 117q102 0 173 -30.5t132 -89.5l-96 -111q-102 92 -209 92q-103 0 -172 -76.5t-69 -187.5q0 -107 69 -183.5t172 -76.5q65 0 113 23.5t100 72.5 l99 -96q-66 -69 -139.5 -104t-176.5 -35q-168 0 -280.5 115.5t-112.5 285.5z" />
<glyph unicode="&#xab;" horiz-adv-x="1241" d="M90 532v17l340 450l188 -96l-270 -360l270 -363l-188 -96zM606 532v17l338 450l189 -96l-271 -360l271 -363l-189 -96z" />
<glyph unicode="&#xad;" horiz-adv-x="835" d="M115 506v244h606v-244h-606z" />
<glyph unicode="&#xae;" horiz-adv-x="1699" d="M109 717q0 149 58 285.5t157 236.5t237 159.5t291 59.5t290.5 -59t235.5 -158.5t155.5 -236t57.5 -287.5q0 -149 -58 -285.5t-157 -237t-237 -160t-291 -59.5q-204 0 -374.5 100t-267.5 270.5t-97 371.5zM186 713q0 -181 86 -333.5t238.5 -241.5t337.5 -89q186 0 339 90 t239.5 244.5t86.5 337.5q0 181 -86 333t-238 241t-337 89q-186 0 -339.5 -90t-240 -244t-86.5 -337zM551 350v776h346q152 0 236 -84q63 -60 63 -165q0 -91 -48.5 -150.5t-131.5 -83.5l209 -293h-176l-193 268h-158v-268h-147zM698 748h193q72 0 112.5 33t40.5 91 t-40.5 89.5t-112.5 31.5h-193v-245z" />
<glyph unicode="&#xb4;" d="M328 1219l217 335l225 -100l-250 -235h-192z" />
<glyph unicode="&#xb8;" d="M268 -248l185 268h186l-154 -358z" />
<glyph unicode="&#xbb;" horiz-adv-x="1241" d="M109 178l270 361l-270 362l188 98l338 -450v-17l-338 -448zM623 178l270 361l-270 362l188 98l340 -450v-17l-340 -448z" />
<glyph unicode="&#x2c6;" d="M160 1219l237 299h230l237 -299h-196l-158 137l-158 -137h-192z" />
<glyph unicode="&#x2da;" d="M279 1442q0 90 70 156.5t163 66.5t163 -67t70 -160q0 -90 -70 -157t-163 -67t-163 67.5t-70 160.5zM385 1438q0 -51 37.5 -88t89.5 -37q53 0 90 37.5t37 91.5q0 51 -37.5 88t-89.5 37q-53 0 -90 -37.5t-37 -91.5z" />
<glyph unicode="&#x2dc;" d="M125 1239q36 132 87.5 194t141.5 62q61 0 162 -41t133 -41q42 0 65 23t48 80l137 -43q-36 -130 -87.5 -192t-141.5 -62q-61 0 -162 40.5t-133 40.5q-42 0 -65 -22.5t-48 -79.5z" />
<glyph unicode="&#x401;" horiz-adv-x="1372" d="M184 0v1434h1063v-226h-811v-372h719v-226h-719v-385h821v-225h-1073zM385 1552v242h252v-242h-252zM793 1552v242h251v-242h-251z" />
<glyph unicode="&#x402;" horiz-adv-x="1789" d="M78 1206v228h1182v-228h-527v-401q193 137 422 137q217 0 351 -126.5t134 -352.5q0 -240 -133 -368t-352 -128q-108 0 -217 37l47 221q55 -18 119 -18q56 0 104 13.5t87.5 41.5t62 78t22.5 117q0 117 -74 180t-206 63q-212 0 -367 -139v-561h-252v1206h-403z" />
<glyph unicode="&#x403;" horiz-adv-x="1216" d="M184 0v1434h965v-228h-715v-1206h-250zM477 1552l217 336l226 -100l-250 -236h-193z" />
<glyph unicode="&#x404;" horiz-adv-x="1507" d="M121 717q0 151 55 287t151 236t234 159t297 59q180 0 307 -58t242 -167l-143 -172q-192 170 -408 170q-176 0 -304 -113t-161 -289h643v-215h-645q30 -181 159 -297t308 -116q127 0 222 46t198 140l162 -166q-116 -123 -255.5 -184.5t-334.5 -61.5q-154 0 -289.5 58 t-231 157t-151 236t-55.5 291z" />
<glyph unicode="&#x405;" horiz-adv-x="1310" d="M88 209l152 180q107 -93 215 -139.5t237 -46.5q117 0 185.5 49.5t68.5 134.5q0 54 -25 89.5t-95.5 68t-202.5 63.5q-124 29 -205 60.5t-146.5 80.5t-96 119.5t-30.5 169.5q0 184 137.5 300t352.5 116q297 0 520 -180l-135 -191q-199 148 -389 148q-108 0 -171 -49 t-63 -125q0 -57 28.5 -94t100.5 -68t211 -64q239 -58 350 -153.5t111 -269.5q0 -198 -141.5 -313t-370.5 -115q-342 0 -598 229z" />
<glyph unicode="&#x406;" horiz-adv-x="649" d="M199 0v1434h252v-1434h-252z" />
<glyph unicode="&#x407;" horiz-adv-x="649" d="M-4 1552v242h252v-242h-252zM199 0v1434h252v-1434h-252zM403 1552v242h252v-242h-252z" />
<glyph unicode="&#x408;" horiz-adv-x="1144" d="M43 211l166 170q67 -84 134.5 -126t154.5 -42q105 0 166 71.5t61 209.5v940h258v-947q0 -248 -133 -381q-126 -126 -348 -126q-291 0 -459 231z" />
<glyph unicode="&#x409;" horiz-adv-x="2318" d="M10 6l25 207q36 -12 82 -12q35 0 61.5 7.5t57 31t53 65t44 113t35 170t21.5 241t8 322.5v283h975v-516h330q246 0 391 -118t145 -331q0 -217 -144.5 -343t-393.5 -126h-580v1206h-487v-129q0 -222 -13 -393t-40.5 -290.5t-64.5 -200t-89.5 -126t-109.5 -64.5t-132 -19 q-88 0 -174 22zM1372 225h324q141 0 217 63t76 183q0 110 -78 168.5t-221 58.5h-318v-473z" />
<glyph unicode="&#x40a;" horiz-adv-x="2316" d="M184 0v1434h250v-562h684v562h252v-562h359q233 0 370 -112.5t137 -315.5q0 -210 -138 -327t-382 -117h-598v657h-684v-657h-250zM1370 225h336q279 0 279 228q0 102 -72 155.5t-211 53.5h-332v-437z" />
<glyph unicode="&#x40b;" horiz-adv-x="1789" d="M78 1206v228h1182v-228h-527v-409q197 137 422 137q217 0 351 -115t134 -325v-494h-249v401q0 136 -73.5 213.5t-207.5 77.5q-113 0 -203.5 -34t-173.5 -109v-549h-250v1206h-405z" />
<glyph unicode="&#x40c;" horiz-adv-x="1484" d="M184 0v1434h252v-721l682 721h309l-596 -617l623 -817h-305l-490 645l-223 -229v-416h-252zM627 1552l217 336l225 -100l-250 -236h-192z" />
<glyph unicode="&#x40e;" horiz-adv-x="1499" d="M51 1434h283l446 -834l394 834h272l-559 -1121q-88 -178 -199.5 -257t-255.5 -79q-146 0 -280 72l96 189q78 -45 176 -45q54 0 114.5 37t110.5 118zM455 1833l153 29q41 -140 170 -140q126 0 170 140l152 -29q-20 -133 -106 -210t-216 -77t-215.5 77t-107.5 210z" />
<glyph unicode="&#x40f;" horiz-adv-x="1538" d="M182 0v1434h250v-1207h670v1207h250v-1434h-461v-307h-244v307h-465z" />
<glyph unicode="&#x410;" horiz-adv-x="1617" d="M61 0l631 1444h234l630 -1444h-266l-145 346h-678l-148 -346h-258zM559 569h494l-248 574z" />
<glyph unicode="&#x411;" horiz-adv-x="1454" d="M184 0v1434h1069v-228h-819v-329h400q239 0 379.5 -115t140.5 -320q0 -213 -142 -327.5t-391 -114.5h-637zM434 225h332q171 0 253.5 50.5t82.5 177.5q0 103 -75 157t-216 54h-377v-439z" />
<glyph unicode="&#x412;" horiz-adv-x="1478" d="M184 0v1434h643q248 0 375 -127q96 -96 96 -242q0 -214 -204 -320q137 -46 210.5 -128.5t73.5 -223.5q0 -189 -143 -291t-387 -102h-664zM432 223h418q131 0 203.5 51.5t72.5 149.5q0 92 -74 142t-221 50h-399v-393zM432 829h344q126 0 198.5 50.5t72.5 148.5 q0 85 -66 133.5t-186 48.5h-363v-381z" />
<glyph unicode="&#x413;" horiz-adv-x="1216" d="M184 0v1434h965v-228h-715v-1206h-250z" />
<glyph unicode="&#x414;" horiz-adv-x="1560" d="M20 225h140q92 183 137 420t45 586v203h999v-1209h179l-35 -532h-209v307h-1010l-24 -307h-222v532zM428 225h662v981h-506v-164q0 -500 -156 -817z" />
<glyph unicode="&#x415;" horiz-adv-x="1372" d="M184 0v1434h1063v-226h-811v-372h719v-226h-719v-385h821v-225h-1073z" />
<glyph unicode="&#x416;" horiz-adv-x="2224" d="M31 0l565 823l-537 611h301l627 -746v746h250v-746l627 746h301l-539 -611l567 -823h-303l-428 637l-225 -256v-381h-250v381l-225 256l-428 -637h-303z" />
<glyph unicode="&#x417;" horiz-adv-x="1323" d="M66 211l137 174q199 -190 477 -190q118 0 199.5 58.5t81.5 156.5q0 105 -90 156.5t-238 51.5h-162v209h160q138 0 216.5 54.5t78.5 154.5q0 90 -75 145.5t-196 55.5q-124 0 -220.5 -40t-180.5 -120l-135 164q111 106 242 161.5t311 55.5q222 0 363 -108.5t141 -276.5 q0 -232 -244 -334q128 -39 204 -125t76 -219q0 -181 -145 -300.5t-381 -119.5q-203 0 -349.5 58t-270.5 178z" />
<glyph unicode="&#x418;" horiz-adv-x="1579" d="M184 0v1434h248v-1047l725 1047h236v-1434h-248v1044l-723 -1044h-238z" />
<glyph unicode="&#x419;" horiz-adv-x="1579" d="M184 0v1434h248v-1047l725 1047h236v-1434h-248v1044l-723 -1044h-238zM473 1833l154 29q41 -140 170 -140q126 0 170 140l151 -29q-20 -133 -105.5 -210t-215.5 -77t-216 77t-108 210z" />
<glyph unicode="&#x41a;" horiz-adv-x="1484" d="M184 0v1434h252v-721l682 721h309l-596 -617l623 -817h-305l-490 645l-223 -229v-416h-252z" />
<glyph unicode="&#x41b;" horiz-adv-x="1566" d="M10 6l25 207q36 -12 82 -12q35 0 61.5 7.5t57 31t53 65t44 113t35 170t21.5 241t8 322.5v283h983v-1434h-252v1206h-495v-129q0 -269 -20 -463t-55.5 -315.5t-93.5 -192t-123.5 -96.5t-156.5 -26q-88 0 -174 22z" />
<glyph unicode="&#x41c;" horiz-adv-x="1777" d="M184 0v1434h269l436 -678l436 678h268v-1434h-252v1028l-452 -676h-8l-449 672v-1024h-248z" />
<glyph unicode="&#x41d;" horiz-adv-x="1556" d="M184 0v1434h252v-596h684v596h252v-1434h-252v604h-684v-604h-252z" />
<glyph unicode="&#x41e;" horiz-adv-x="1740" d="M121 717q0 150 56 285.5t154 236t239 160t302 59.5q162 0 302 -58.5t237.5 -158.5t153 -236t55.5 -288q0 -150 -56 -286t-154 -236.5t-239.5 -160t-302.5 -59.5q-215 0 -387 100.5t-266 269.5t-94 372zM385 717q0 -139 61.5 -255.5t174 -185.5t251.5 -69t250.5 68.5 t172.5 184.5t61 257q0 139 -62 255.5t-174.5 185.5t-251.5 69t-250.5 -68.5t-172 -184.5t-60.5 -257z" />
<glyph unicode="&#x41f;" horiz-adv-x="1538" d="M184 0v1434h1170v-1434h-252v1206h-666v-1206h-252z" />
<glyph unicode="&#x420;" horiz-adv-x="1368" d="M184 0v1434h566q250 0 397 -131.5t147 -352.5q0 -156 -78.5 -268.5t-206 -166.5t-288.5 -54h-285v-461h-252zM436 688h293q141 0 225 71.5t84 188.5q0 124 -82.5 190t-226.5 66h-293v-516z" />
<glyph unicode="&#x421;" horiz-adv-x="1511" d="M121 717q0 152 55 288t151 236t235 158.5t298 58.5q185 0 316.5 -57.5t244.5 -165.5l-161 -186q-94 86 -190 132t-212 46q-134 0 -243 -68t-169.5 -184.5t-60.5 -257.5q0 -213 135 -361.5t338 -148.5q124 0 217.5 46t194.5 140l162 -164q-80 -83 -158.5 -136t-186 -85.5 t-237.5 -32.5q-205 0 -372.5 98t-262 268t-94.5 376z" />
<glyph unicode="&#x422;" horiz-adv-x="1327" d="M82 1200v234h1163v-234h-454v-1200h-254v1200h-455z" />
<glyph unicode="&#x423;" horiz-adv-x="1499" d="M51 1434h283l446 -834l394 834h272l-559 -1121q-88 -178 -199.5 -257t-255.5 -79q-146 0 -280 72l96 189q78 -45 176 -45q54 0 114.5 37t110.5 118z" />
<glyph unicode="&#x424;" horiz-adv-x="1878" d="M96 729q0 278 192.5 449.5t524.5 171.5v135h250v-135q332 0 524.5 -172t192.5 -451t-192 -453t-525 -174v-155h-250v155q-332 0 -524.5 174.5t-192.5 454.5zM354 725q0 -189 122.5 -295t336.5 -106v800q-213 0 -336 -106t-123 -293zM1063 324q215 0 337 105.5t122 295.5 q0 187 -122.5 293t-336.5 106v-800z" />
<glyph unicode="&#x425;" horiz-adv-x="1492" d="M76 0l522 729l-502 705h297l357 -514l358 514h289l-500 -701l520 -733h-297l-377 543l-378 -543h-289z" />
<glyph unicode="&#x426;" horiz-adv-x="1576" d="M184 0v1434h252v-1207h672v1207h250v-1207h178l-35 -534h-209v307h-1108z" />
<glyph unicode="&#x427;" horiz-adv-x="1462" d="M145 903v531h252v-467q0 -137 67.5 -212t199.5 -75q94 0 192.5 32.5t169.5 80.5v641h252v-1434h-252v567q-233 -121 -408 -121q-218 0 -345.5 116t-127.5 341z" />
<glyph unicode="&#x428;" horiz-adv-x="2246" d="M184 0v1434h250v-1209h563v1209h252v-1209h563v1209h250v-1434h-1878z" />
<glyph unicode="&#x429;" horiz-adv-x="2281" d="M184 0v1434h252v-1207h563v1207h250v-1207h563v1207h252v-1207h177l-35 -534h-207v307h-1815z" />
<glyph unicode="&#x42a;" horiz-adv-x="1628" d="M72 1206v228h608v-516h330q246 0 392 -118t146 -331q0 -217 -145.5 -343t-394.5 -126h-578v1206h-358zM680 225h324q141 0 217.5 63t76.5 183q0 110 -78 168.5t-223 58.5h-317v-473z" />
<glyph unicode="&#x42b;" horiz-adv-x="1906" d="M184 0v1434h250v-516h330q246 0 392.5 -118t146.5 -331q0 -217 -146 -343t-395 -126h-578zM434 225h324q141 0 218 63t77 183q0 110 -78 168.5t-221 58.5h-320v-473zM1473 0v1434h249v-1434h-249z" />
<glyph unicode="&#x42c;" horiz-adv-x="1382" d="M184 0v1434h250v-516h330q246 0 392.5 -118t146.5 -331q0 -217 -146 -343t-395 -126h-578zM434 225h324q141 0 218 63t77 183q0 110 -78 168.5t-221 58.5h-320v-473z" />
<glyph unicode="&#x42d;" horiz-adv-x="1503" d="M66 221l161 166q103 -94 198 -140t222 -46q181 0 309 116t158 297h-643v215h641q-33 176 -161 289t-304 113q-118 0 -216 -44t-191 -126l-144 172q115 108 242.5 166.5t306.5 58.5q159 0 297 -59t234 -159t151 -236t55 -287q0 -154 -55.5 -291t-151 -236t-231 -157 t-289.5 -58q-195 0 -334 61.5t-255 184.5z" />
<glyph unicode="&#x42e;" horiz-adv-x="2166" d="M184 0v1434h252v-600h238q24 177 115 318t240 223.5t329 82.5q200 0 358 -98.5t244 -267t86 -375.5q0 -205 -86.5 -374t-245.5 -268.5t-360 -99.5q-183 0 -331.5 83t-238 226t-112.5 324h-236v-608h-252zM926 717q0 -218 122 -366t310 -148q189 0 309.5 147t120.5 367 q0 142 -55 259t-154.5 185t-224.5 68t-223 -67t-151.5 -183.5t-53.5 -261.5z" />
<glyph unicode="&#x42f;" horiz-adv-x="1478" d="M74 0l391 539q-157 43 -249.5 154.5t-92.5 283.5q0 210 143 333.5t391 123.5h637v-1434h-250v496h-317l-356 -496h-297zM377 961q0 -112 81 -179t216 -67h370v491h-366q-142 0 -221.5 -64.5t-79.5 -180.5z" />
<glyph unicode="&#x430;" horiz-adv-x="1202" d="M82 315q0 174 120.5 264.5t317.5 90.5q159 0 299 -45v20q0 113 -68.5 172.5t-197.5 59.5q-146 0 -309 -68l-68 199q100 45 194.5 67.5t217.5 22.5q236 0 355.5 -118.5t119.5 -338.5v-641h-246v133q-131 -156 -350 -156q-105 0 -191 37.5t-140 115.5t-54 185zM328 324 q0 -74 59 -117t150 -43q124 0 205 63.5t81 163.5v62q-108 43 -248 43q-117 0 -182 -45t-65 -127z" />
<glyph unicode="&#x431;" horiz-adv-x="1339" d="M123 606q0 81 3 144t14 137.5t29.5 131.5t51 116t77 101t110 75.5t147.5 50.5l590 123l41 -199l-590 -129q-147 -32 -211 -110t-74 -197q22 38 57.5 72t86 64.5t121 48.5t151.5 18q103 0 198 -41t165 -111t111.5 -168t41.5 -207q0 -149 -72 -275t-202 -201t-289 -75 q-263 0 -410 166t-147 465zM371 522q0 -139 90 -235.5t223 -96.5q137 0 224 95.5t87 236.5q0 139 -90.5 236.5t-224.5 97.5q-135 0 -222 -96.5t-87 -237.5z" />
<glyph unicode="&#x432;" horiz-adv-x="1208" d="M156 0v1081h555q162 0 259 -73t97 -197q0 -170 -174 -248q223 -63 223 -270q0 -136 -107 -214.5t-292 -78.5h-561zM399 197h281q89 0 136.5 37.5t47.5 101.5q0 61 -49.5 96t-146.5 35h-269v-270zM399 635h254q76 0 119 36.5t43 96.5q0 56 -39 89.5t-119 33.5h-258v-256z " />
<glyph unicode="&#x433;" horiz-adv-x="962" d="M156 0v1081h766v-213h-519v-868h-247z" />
<glyph unicode="&#x434;" horiz-adv-x="1310" d="M31 213h116q121 242 121 735v133h838v-868h154l-33 -473h-207v260h-758l-24 -260h-207v473zM401 213h457v655h-356v-143q0 -299 -101 -512z" />
<glyph unicode="&#x435;" horiz-adv-x="1236" d="M96 541q0 154 67 282.5t189 204.5t273 76q101 0 186 -30.5t145.5 -84.5t103 -127.5t63 -159.5t20.5 -180q0 -45 -4 -69h-795q20 -130 104.5 -202.5t206.5 -72.5q88 0 157 31.5t136 97.5l146 -129q-168 -203 -443 -203q-156 0 -282 70t-199.5 200t-73.5 296zM342 616h555 q-13 126 -84.5 205.5t-189.5 79.5q-112 0 -187.5 -78.5t-93.5 -206.5z" />
<glyph unicode="&#x436;" horiz-adv-x="1792" d="M18 0l424 627l-407 454h289l448 -530v530h248v-530l450 530h289l-407 -454l422 -627h-279l-309 461l-166 -189v-272h-248v272l-166 189l-309 -461h-279z" />
<glyph unicode="&#x437;" horiz-adv-x="1060" d="M51 141l117 164q151 -129 340 -129q87 0 146 42t59 108q0 61 -57.5 98t-161.5 37h-134v178h134q87 0 138.5 39.5t51.5 101.5q0 55 -50.5 89t-127.5 34q-182 0 -307 -110l-111 155q180 156 440 156q178 0 291 -82t113 -209q0 -172 -170 -246q196 -69 196 -262 q0 -140 -120.5 -235t-313.5 -95q-280 0 -473 166z" />
<glyph unicode="&#x438;" horiz-adv-x="1298" d="M156 0v1081h241v-725q280 398 512 725h234v-1081h-240v721l-514 -721h-233z" />
<glyph unicode="&#x439;" horiz-adv-x="1298" d="M156 0v1081h241v-725q280 398 512 725h234v-1081h-240v721l-514 -721h-233zM330 1491l151 29q44 -140 170 -140t170 140l150 -29q-20 -132 -105.5 -208.5t-214.5 -76.5q-130 0 -215.5 77t-105.5 208z" />
<glyph unicode="&#x43a;" horiz-adv-x="1214" d="M156 0v1081h245v-518l471 518h291l-420 -454l455 -627h-293l-327 446l-177 -186v-260h-245z" />
<glyph unicode="&#x43b;" horiz-adv-x="1275" d="M2 2l18 203q32 -8 72 -8q36 0 59.5 8.5t50 37t43 88t31 155t21 244.5t6.5 351h817v-1081h-248v868h-337q0 -166 -9.5 -295.5t-25.5 -222t-43 -158t-56.5 -105t-72 -62t-84 -30t-97.5 -7.5q-59 0 -145 14z" />
<glyph unicode="&#x43c;" horiz-adv-x="1480" d="M156 0v1081h245l338 -501l340 501h246v-1081h-250v721l-340 -485l-338 481v-717h-241z" />
<glyph unicode="&#x43d;" horiz-adv-x="1284" d="M156 0v1081h247v-438h478v438h247v-1081h-247v436h-478v-436h-247z" />
<glyph unicode="&#x43e;" horiz-adv-x="1345" d="M96 539q0 153 74.5 282.5t208 206t295.5 76.5q163 0 295 -75.5t206 -205t74 -284.5q0 -114 -44 -217.5t-120 -180t-184 -121.5t-231 -45q-162 0 -294 76t-206 205t-74 283zM344 539q0 -144 94 -246.5t236 -102.5q147 0 237 101t90 248q0 145 -93.5 246.5t-237.5 101.5 q-146 0 -236 -100t-90 -248z" />
<glyph unicode="&#x43f;" horiz-adv-x="1275" d="M156 0v1081h964v-1081h-248v868h-469v-868h-247z" />
<glyph unicode="&#x440;" horiz-adv-x="1372" d="M156 -328v1409h247v-180q144 203 367 203q97 0 187 -38t161 -108t113.5 -179t42.5 -240q0 -130 -42.5 -238t-113 -178t-160.5 -108t-188 -38q-222 0 -367 191v-496h-247zM397 539q0 -152 93 -249t223 -97q131 0 220 95.5t89 254.5q0 153 -90 249.5t-219 96.5 q-130 0 -223 -98t-93 -252z" />
<glyph unicode="&#x441;" horiz-adv-x="1159" d="M96 535v4q0 152 72 281.5t201.5 206.5t287.5 77q145 0 248.5 -48t184.5 -138l-154 -166q-63 66 -128 100.5t-153 34.5q-133 0 -222 -100.5t-89 -243.5v-4q0 -147 91.5 -248t232.5 -101q82 0 149 35t131 101l150 -148q-88 -99 -191.5 -151t-251.5 -52q-158 0 -286.5 75.5 t-200.5 204t-72 280.5z" />
<glyph unicode="&#x442;" horiz-adv-x="1026" d="M39 868v213h946v-213h-348v-868h-250v868h-348z" />
<glyph unicode="&#x443;" horiz-adv-x="1220" d="M53 1081h264l308 -802l280 802h258l-430 -1112q-65 -166 -145.5 -234.5t-210.5 -68.5q-134 0 -256 66l84 184q74 -41 145 -41q53 0 88.5 28t65.5 97z" />
<glyph unicode="&#x444;" horiz-adv-x="1820" d="M100 541q0 257 122 407t319 150q140 0 245 -109v445h248v-445q105 109 246 109q197 0 318.5 -150t121.5 -409t-121 -407t-317 -148q-150 0 -248 94v-406h-248v406q-98 -94 -247 -94q-196 0 -317.5 148.5t-121.5 408.5zM350 537q0 -165 66 -256t196 -91q92 0 174 72v549 q-82 76 -174 76q-126 0 -194 -94t-68 -256zM1034 262q82 -72 176 -72q129 0 194.5 91.5t65.5 257.5q0 161 -67 254.5t-193 93.5q-86 0 -176 -76v-549z" />
<glyph unicode="&#x445;" horiz-adv-x="1187" d="M61 0l398 549l-383 532h270l250 -356l250 356h264l-383 -526l399 -555h-270l-266 379l-264 -379h-265z" />
<glyph unicode="&#x446;" horiz-adv-x="1320" d="M156 0v1081h245v-868h467v868h246v-868h156l-33 -473h-207v260h-874z" />
<glyph unicode="&#x447;" horiz-adv-x="1216" d="M123 662v419h248v-360q0 -77 49 -133t129 -56q138 0 264 72v477h248v-1081h-248v403q-64 -33 -152 -57t-169 -24q-166 0 -267.5 89t-101.5 251z" />
<glyph unicode="&#x448;" horiz-adv-x="1851" d="M156 0v1081h247v-868h400v868h246v-868h399v868h248v-1081h-1540z" />
<glyph unicode="&#x449;" horiz-adv-x="1900" d="M156 0v1081h247v-868h400v868h246v-868h399v868h248v-868h153l-30 -473h-207v260h-1456z" />
<glyph unicode="&#x44a;" horiz-adv-x="1320" d="M35 870v211h545v-379h249q93 0 170.5 -20.5t136.5 -61.5t91.5 -107.5t32.5 -152.5q0 -167 -111 -263.5t-303 -96.5h-512v870h-299zM580 201h235q94 0 144.5 40.5t50.5 118.5q0 72 -52 111t-147 39h-231v-309z" />
<glyph unicode="&#x44b;" horiz-adv-x="1628" d="M156 0v1081h247v-379h228q126 0 220.5 -35.5t152 -114t57.5 -192.5q0 -167 -110.5 -263.5t-301.5 -96.5h-493zM403 201h213q94 0 145.5 41t51.5 118q0 72 -52.5 111t-148.5 39h-209v-309zM1225 0v1081h248v-1081h-248z" />
<glyph unicode="&#x44c;" horiz-adv-x="1142" d="M156 0v1081h247v-379h248q126 0 220.5 -35.5t152 -114t57.5 -192.5q0 -167 -110 -263.5t-301 -96.5h-514zM403 201h234q94 0 145.5 41t51.5 118q0 72 -52.5 111t-148.5 39h-230v-309z" />
<glyph unicode="&#x44d;" horiz-adv-x="1159" d="M55 176l148 146q66 -68 135 -104t154 -36q121 0 208 76.5t111 194.5h-424v178h422q-22 113 -107 187.5t-200 74.5q-92 0 -161 -32t-132 -95l-133 154q174 182 428 182q159 0 288 -77t200 -206t71 -282t-72.5 -282t-201.5 -204.5t-285 -75.5q-151 0 -257 51.5t-192 149.5z " />
<glyph unicode="&#x44e;" horiz-adv-x="1755" d="M156 0v1081h245v-438h187q33 200 177 329.5t355 129.5q159 0 283 -76t190 -203.5t66 -283.5q0 -154 -66.5 -282t-191.5 -205t-285 -77q-212 0 -355 130t-173 333h-187v-438h-245zM825 539q0 -148 80 -248.5t215 -100.5q139 0 216 99.5t77 249.5q0 148 -81 248t-216 100 q-139 0 -215 -98t-76 -250z" />
<glyph unicode="&#x44f;" horiz-adv-x="1228" d="M57 0l299 406q-115 35 -183.5 117.5t-68.5 205.5q0 160 112.5 256t313.5 96h543v-1081h-248v365h-221l-256 -365h-291zM352 717q0 -77 58.5 -121.5t154.5 -44.5h260v330h-262q-98 0 -154.5 -44t-56.5 -120z" />
<glyph unicode="&#x451;" horiz-adv-x="1236" d="M96 541q0 154 67 282.5t189 204.5t273 76q101 0 186 -30.5t145.5 -84.5t103 -127.5t63 -159.5t20.5 -180q0 -45 -4 -69h-795q20 -130 104.5 -202.5t206.5 -72.5q88 0 157 31.5t136 97.5l146 -129q-168 -203 -443 -203q-156 0 -282 70t-199.5 200t-73.5 296zM287 1219v241 h252v-241h-252zM342 616h555q-13 126 -84.5 205.5t-189.5 79.5q-112 0 -187.5 -78.5t-93.5 -206.5zM694 1219v241h252v-241h-252z" />
<glyph unicode="&#x452;" horiz-adv-x="1269" d="M6 1145v180h148v170h247v-170h369v-180h-369v-291q63 89 143.5 141t196.5 52q182 0 285.5 -113t103.5 -303v-236q0 -190 -108.5 -301.5t-290.5 -111.5q-52 0 -98 7t-62 11.5t-55 17.5l43 195q39 -16 88 -16q104 0 170 72.5t66 195.5v92q0 126 -61.5 195t-172.5 69 q-110 0 -179 -73t-69 -197v-551h-247v1145h-148z" />
<glyph unicode="&#x453;" horiz-adv-x="962" d="M156 0v1081h766v-213h-519v-868h-247zM369 1219l217 335l225 -100l-250 -235h-192z" />
<glyph unicode="&#x454;" horiz-adv-x="1175" d="M96 537q0 153 71 282t200 206t288 77q254 0 428 -182l-133 -154q-63 63 -132 95t-161 32q-115 0 -200 -74.5t-109 -187.5h424v-178h-426q25 -118 113 -194.5t209 -76.5q85 0 153.5 36t134.5 104l148 -146q-86 -98 -192 -149.5t-257 -51.5q-156 0 -285 75.5t-201.5 204.5 t-72.5 282z" />
<glyph unicode="&#x455;" d="M68 141l110 168q177 -133 354 -133q79 0 123.5 32t44.5 89q0 23 -11.5 41.5t-30 31.5t-47 25.5t-57.5 21.5t-66 20q-7 2 -11 3l-18 6q-58 17 -98 31.5t-89 42t-79 59t-51 81t-21 110.5q0 150 109.5 240t275.5 90q100 0 205 -32.5t192 -90.5l-98 -176q-168 102 -305 102 q-71 0 -111.5 -30.5t-40.5 -81.5q0 -18 7 -33.5t25.5 -29t33.5 -23t47.5 -22t50.5 -19t59 -19.5q3 -1 10.5 -3t10.5 -3q56 -17 96.5 -33t89 -43.5t78.5 -59t51 -79.5t21 -105q0 -164 -112.5 -251.5t-289.5 -87.5q-118 0 -238.5 41.5t-219.5 119.5z" />
<glyph unicode="&#x456;" horiz-adv-x="585" d="M160 1247v236h266v-236h-266zM170 0v1081h248v-1081h-248z" />
<glyph unicode="&#x457;" horiz-adv-x="585" d="M-35 1219v241h252v-241h-252zM170 0v1081h248v-1081h-248zM373 1219v241h252v-241h-252z" />
<glyph unicode="&#x458;" horiz-adv-x="585" d="M-16 -125q37 -6 69 -6q117 0 117 131v1081h248v-1095q0 -320 -316 -320q-53 0 -118 10v199zM160 1247v236h266v-236h-266z" />
<glyph unicode="&#x459;" horiz-adv-x="1859" d="M2 2l18 203q32 -8 72 -8q36 0 60.5 9.5t51 39.5t43 90t30 156t20 243t6.5 346h817v-379h248q126 0 220.5 -35.5t152 -114t57.5 -192.5q0 -167 -110.5 -263.5t-301.5 -96.5h-514v868h-337q0 -166 -9.5 -295.5t-25.5 -222t-43 -158t-57 -105t-72.5 -62t-83.5 -30t-97 -7.5 q-68 0 -145 14zM1120 201h234q94 0 145 40.5t51 118.5q0 72 -52.5 111t-147.5 39h-230v-309z" />
<glyph unicode="&#x45a;" horiz-adv-x="1865" d="M154 0v1081h247v-391h478v391h247v-391h250q125 0 219 -34.5t151.5 -112.5t57.5 -193q0 -165 -109.5 -257.5t-301.5 -92.5h-514v496h-478v-496h-247zM1126 201h236q194 0 194 151q0 70 -51.5 108t-146.5 38h-232v-297z" />
<glyph unicode="&#x45b;" horiz-adv-x="1269" d="M6 1145v180h148v170h247v-170h369v-180h-369v-289q131 191 338 191q181 0 284 -112.5t103 -303.5v-631h-247v557q0 126 -61 195t-171 69t-178 -72t-68 -196v-553h-247v1145h-148z" />
<glyph unicode="&#x45c;" horiz-adv-x="1214" d="M156 0v1081h245v-518l471 518h291l-420 -454l455 -627h-293l-327 446l-177 -186v-260h-245zM494 1219l217 335l225 -100l-250 -235h-192z" />
<glyph unicode="&#x45e;" horiz-adv-x="1220" d="M53 1081h264l308 -802l280 802h258l-430 -1112q-65 -166 -145.5 -234.5t-210.5 -68.5q-134 0 -256 66l84 184q74 -41 145 -41q53 0 88.5 28t65.5 97zM301 1491l152 29q44 -140 170 -140t170 140l149 -29q-20 -132 -105 -208.5t-214 -76.5q-130 0 -216 77t-106 208z" />
<glyph unicode="&#x45f;" horiz-adv-x="1275" d="M156 0v1081h245v-868h473v868h246v-1081h-360v-260h-236v260h-368z" />
<glyph unicode="&#x490;" horiz-adv-x="1216" d="M184 0v1434h719v307h211l35 -535h-715v-1206h-250z" />
<glyph unicode="&#x491;" horiz-adv-x="962" d="M156 0v1081h528v260h207l31 -473h-519v-868h-247z" />
<glyph unicode="&#x2000;" horiz-adv-x="944" />
<glyph unicode="&#x2001;" horiz-adv-x="1888" />
<glyph unicode="&#x2002;" horiz-adv-x="944" />
<glyph unicode="&#x2003;" horiz-adv-x="1888" />
<glyph unicode="&#x2004;" horiz-adv-x="629" />
<glyph unicode="&#x2005;" horiz-adv-x="472" />
<glyph unicode="&#x2006;" horiz-adv-x="314" />
<glyph unicode="&#x2007;" horiz-adv-x="314" />
<glyph unicode="&#x2008;" horiz-adv-x="236" />
<glyph unicode="&#x2009;" horiz-adv-x="377" />
<glyph unicode="&#x200a;" horiz-adv-x="104" />
<glyph unicode="&#x2010;" horiz-adv-x="835" d="M115 506v244h606v-244h-606z" />
<glyph unicode="&#x2011;" horiz-adv-x="835" d="M115 506v244h606v-244h-606z" />
<glyph unicode="&#x2012;" horiz-adv-x="835" d="M115 506v244h606v-244h-606z" />
<glyph unicode="&#x2013;" horiz-adv-x="1081" d="M115 510v235h852v-235h-852z" />
<glyph unicode="&#x2014;" horiz-adv-x="1839" d="M115 510v235h1609v-235h-1609z" />
<glyph unicode="&#x2018;" horiz-adv-x="550" d="M129 864v240q0 167 78 247.5t237 92.5l27 -107q-176 -30 -176 -168q0 -4 1 -11t1 -11h104v-283h-272z" />
<glyph unicode="&#x2019;" horiz-adv-x="550" d="M80 961q176 30 176 169q0 4 -1 11.5t-1 11.5h-104v281h272v-240q0 -166 -78.5 -247t-237.5 -93z" />
<glyph unicode="&#x201a;" horiz-adv-x="550" d="M70 -193q189 38 174 193h-105v281h273v-238q0 -166 -78.5 -247t-237.5 -93z" />
<glyph unicode="&#x201c;" horiz-adv-x="1026" d="M129 864v240q0 167 78 247.5t237 92.5l27 -107q-176 -30 -176 -168q0 -4 1 -11t1 -11h104v-283h-272zM604 864v240q0 166 78.5 247t237.5 93l26 -107q-176 -30 -176 -172v-18h107v-283h-273z" />
<glyph unicode="&#x201d;" horiz-adv-x="1026" d="M80 961q176 30 176 169q0 4 -1 11.5t-1 11.5h-104v281h272v-240q0 -166 -78.5 -247t-237.5 -93zM555 961q176 30 176 169q0 4 -1 11.5t-1 11.5h-104v281h272v-240q0 -167 -78 -247.5t-237 -92.5z" />
<glyph unicode="&#x201e;" horiz-adv-x="1026" d="M70 -193q176 35 176 170q0 4 -1 11.5t-1 11.5h-105v281h273v-238q0 -166 -78.5 -247t-237.5 -93zM545 -193q176 35 176 170q0 4 -1 11.5t-1 11.5h-105v281h273v-238q0 -166 -78.5 -247t-237.5 -93z" />
<glyph unicode="&#x2026;" horiz-adv-x="1622" d="M139 0v274h267v-274h-267zM678 0v274h266v-274h-266zM1217 0v274h266v-274h-266z" />
<glyph unicode="&#x202f;" horiz-adv-x="377" />
<glyph unicode="&#x2039;" horiz-adv-x="724" d="M90 532v17l340 450l188 -96l-270 -360l270 -363l-188 -96z" />
<glyph unicode="&#x203a;" horiz-adv-x="724" d="M109 178l270 361l-270 362l188 98l338 -450v-17l-338 -448z" />
<glyph unicode="&#x205f;" horiz-adv-x="472" />
<glyph unicode="&#x20ac;" horiz-adv-x="1474" d="M106 461v174h158q-2 27 -2 82q0 63 4 92h-160v174h193q63 214 217 344.5t365 130.5q91 0 167 -19.5t136 -57.5t106 -84t90 -109l-190 -141q-70 96 -141.5 141t-174.5 45q-107 0 -189.5 -66.5t-125.5 -183.5h440v-174h-479q-4 -54 -4 -92q0 -28 4 -82h479v-174h-442 q42 -122 129 -191t205 -69q66 0 121.5 24t98 63.5t93.5 106.5l180 -131q-63 -91 -129 -151.5t-160 -99t-206 -38.5q-223 0 -379.5 132t-216.5 354h-187z" />
<glyph unicode="&#x2122;" horiz-adv-x="1413" d="M53 1323v111h510v-111h-194v-520h-121v520h-195zM698 803v631h129l191 -299l190 299h125v-631h-116v448l-195 -303h-12l-195 303v-448h-117z" />
<glyph unicode="&#xe000;" horiz-adv-x="1085" d="M0 0v1085h1085v-1085h-1085z" />
</font>
</defs>
</svg>
