<?xml version="1.0" standalone="no"?>
<!DOCTYPE svg PUBLIC "-//W3C//DTD SVG 1.1//EN" "http://www.w3.org/Graphics/SVG/1.1/DTD/svg11.dtd" >
<svg xmlns="http://www.w3.org/2000/svg">
<metadata></metadata>
<defs>
<font id="gotham_proregular" horiz-adv-x="1024" >
<font-face units-per-em="2048" ascent="1638" descent="-410" />
<missing-glyph horiz-adv-x="614" />
<glyph horiz-adv-x="2048" />
<glyph horiz-adv-x="2048" />
<glyph unicode="&#xd;" horiz-adv-x="2048" />
<glyph unicode=" "  horiz-adv-x="614" />
<glyph unicode="&#x09;" horiz-adv-x="614" />
<glyph unicode="&#xa0;" horiz-adv-x="614" />
<glyph unicode="!" horiz-adv-x="555" d="M184 0v215h189v-215h-189zM186 1317v117h185v-117l-49 -911h-89z" />
<glyph unicode="&#x22;" horiz-adv-x="901" d="M133 877l62 557h190v-11l-166 -546h-86zM532 877l64 557h188v-11l-166 -546h-86z" />
<glyph unicode="#" horiz-adv-x="1433" d="M92 362v142h248l76 434h-244v141h266l62 355h143l-59 -355h389l61 355h144l-60 -355h221v-141h-245l-76 -434h242v-142h-265l-63 -362h-144l62 362h-389l-64 -362h-143l61 362h-223zM485 504h389l74 434h-389z" />
<glyph unicode="$" horiz-adv-x="1302" d="M115 215l92 123q97 -87 191.5 -135t205.5 -60v512q-230 55 -333 148t-103 254q0 158 120.5 263t309.5 114v118h131v-122q203 -18 391 -164l-88 -123q-139 119 -309 147v-504q233 -54 337.5 -148.5t104.5 -252.5q0 -163 -120.5 -268t-315.5 -117v-201h-131v205 q-265 23 -483 211zM326 1063q0 -61 22 -103.5t84 -79.5t172 -65v481q-127 -4 -202.5 -69.5t-75.5 -163.5zM723 137q130 6 207.5 72.5t77.5 169.5q0 95 -60.5 151.5t-224.5 96.5v-490z" />
<glyph unicode="%" horiz-adv-x="1708" d="M106 1083q0 151 92 259t236 108q141 0 231.5 -107.5t90.5 -259.5q0 -98 -40 -181t-115.5 -134t-170.5 -51q-143 0 -233.5 107t-90.5 259zM244 1083q0 -107 55 -179.5t135 -72.5q82 0 134.5 72.5t52.5 179.5q0 106 -56 179t-135 73q-83 0 -134.5 -72.5t-51.5 -179.5z M254 0l1053 1434h145l-1051 -1434h-147zM952 350q0 98 40 181.5t115.5 134.5t170.5 51q142 0 231.5 -107.5t89.5 -259.5q0 -151 -90.5 -258.5t-234.5 -107.5q-141 0 -231.5 107t-90.5 259zM1087 350q0 -107 55.5 -179.5t135.5 -72.5q83 0 134.5 72t51.5 180q0 107 -55 179.5 t-135 72.5q-82 0 -134.5 -73t-52.5 -179z" />
<glyph unicode="&#x26;" horiz-adv-x="1425" d="M92 385q0 278 346 414q-76 89 -109.5 161.5t-33.5 157.5q0 144 106 242t273 98q149 0 248.5 -95t99.5 -233q0 -252 -338 -372l328 -334q94 138 172 319l133 -61q-107 -229 -207 -360l250 -256l-123 -95l-225 232q-207 -223 -469 -223q-196 0 -323.5 112t-127.5 293z M256 387q0 -116 84 -193t215 -77q190 0 358 186l-383 395q-138 -51 -206 -132t-68 -179zM451 1114q0 -63 30.5 -119.5t112.5 -144.5q138 46 207 114t69 162q0 86 -57 142.5t-145 56.5q-96 0 -156.5 -59.5t-60.5 -151.5z" />
<glyph unicode="'" horiz-adv-x="501" d="M133 877l62 557h192v-11l-166 -546h-88z" />
<glyph unicode="(" horiz-adv-x="888" d="M139 588q0 279 145.5 499.5t422.5 376.5l67 -104q-237 -152 -356 -341t-119 -431t119 -431t356 -341l-67 -105q-277 156 -422.5 377t-145.5 500z" />
<glyph unicode=")" horiz-adv-x="888" d="M115 -184q237 152 356 341t119 431t-119 431t-356 341l67 104q277 -156 422.5 -376.5t145.5 -499.5t-145.5 -500t-422.5 -377z" />
<glyph unicode="*" horiz-adv-x="880" d="M141 1016l238 108l-238 111l56 94l211 -147l-21 256h107l-21 -256l211 147l55 -94l-237 -111l237 -108l-55 -96l-211 149l21 -256h-107l21 256l-211 -149z" />
<glyph unicode="+" horiz-adv-x="1310" d="M154 647v148h426v422h151v-422h426v-148h-426v-422h-151v422h-426z" />
<glyph unicode="," horiz-adv-x="501" d="M94 -178q71 26 104 63.5t33 94.5v20h-73v215h188v-184q0 -123 -54 -188.5t-173 -92.5z" />
<glyph unicode="-" horiz-adv-x="835" d="M133 532v166h569v-166h-569z" />
<glyph unicode="." horiz-adv-x="501" d="M158 0v215h188v-215h-188z" />
<glyph unicode="/" horiz-adv-x="1040" d="M-43 -262l950 1896h146l-951 -1896h-145z" />
<glyph unicode="0" horiz-adv-x="1464" d="M127 717q0 201 74 369t214.5 270t319.5 102q180 0 318.5 -101t211 -268.5t72.5 -371.5q0 -201 -73.5 -369.5t-213.5 -270.5t-319 -102q-136 0 -250.5 59t-191 160t-119.5 236t-43 287zM295 717q0 -117 31.5 -224.5t87.5 -189.5t139.5 -131t181.5 -49q130 0 230.5 83 t152 217t51.5 294q0 158 -53 292.5t-154.5 218t-230.5 83.5q-130 0 -231 -82.5t-153 -216.5t-52 -295z" />
<glyph unicode="1" horiz-adv-x="733" d="M57 1323l351 121h118v-1444h-159v1276l-271 -84z" />
<glyph unicode="2" horiz-adv-x="1226" d="M98 0v125l520 459q168 148 234 246t66 204q0 123 -84 199t-205 76q-118 0 -206 -59.5t-179 -186.5l-119 86q69 103 136 166.5t162.5 101t217.5 37.5q193 0 318.5 -115.5t125.5 -294.5q0 -78 -20 -143t-69 -132.5t-109.5 -129t-163.5 -152.5l-383 -340h760v-147h-1002z " />
<glyph unicode="3" horiz-adv-x="1255" d="M102 231l117 105q175 -213 420 -213q133 0 223 78.5t90 204.5q0 131 -110 203.5t-291 72.5h-92l-33 96l453 510h-701v146h916v-119l-451 -500q97 -8 180 -35.5t150 -75.5t105 -124t38 -172q0 -189 -138 -311t-341 -122q-173 0 -308 68t-227 188z" />
<glyph unicode="4" horiz-adv-x="1374" d="M88 457l811 987h141v-969h224v-135h-224v-340h-155v340h-756zM283 475h602v739z" />
<glyph unicode="5" horiz-adv-x="1253" d="M109 203l106 116q202 -196 408 -196q153 0 249.5 90.5t96.5 230.5q0 133 -100 217t-257 84q-150 0 -301 -81l-108 71l41 699h825v-150h-684l-31 -459q145 64 283 64q215 0 355.5 -120.5t140.5 -322.5q0 -210 -143.5 -340.5t-368.5 -130.5q-146 0 -277 62t-235 166z" />
<glyph unicode="6" horiz-adv-x="1325" d="M125 680q0 164 41 305.5t116 247t188.5 165.5t250.5 60q123 0 223.5 -41.5t200.5 -122.5l-94 -125q-84 71 -164 106.5t-174 35.5q-191 0 -305.5 -174t-114.5 -453v-6q149 219 407 219q134 0 246 -53.5t181 -156t69 -234.5q0 -206 -147.5 -342t-366.5 -136q-99 0 -182 24 t-153 77.5t-119 134.5t-76 200t-27 269zM322 440q0 -137 102.5 -229t259.5 -92q155 0 250.5 95t95.5 237q0 133 -98 220t-252 87q-156 0 -257 -95t-101 -223z" />
<glyph unicode="7" horiz-adv-x="1220" d="M139 1286v148h973v-121l-651 -1313h-180l647 1286h-789z" />
<glyph unicode="8" horiz-adv-x="1290" d="M106 389q0 123 80 213.5t215 138.5q-245 112 -245 334q0 108 67.5 195.5t179 135.5t242.5 48t242.5 -48t179.5 -137t68 -198q0 -217 -246 -330q135 -50 215 -139.5t80 -214.5q0 -120 -71 -213t-193.5 -143.5t-274.5 -50.5t-274.5 51t-193.5 144.5t-71 213.5zM270 389 q0 -113 102 -190.5t273 -77.5q172 0 273.5 78t101.5 194q0 119 -108 196t-267 77t-267 -78t-108 -199zM317 1061q0 -115 94.5 -188.5t233.5 -73.5t233.5 74t94.5 192q0 106 -94 177t-234 71t-234 -71t-94 -181z" />
<glyph unicode="9" horiz-adv-x="1325" d="M129 971q0 135 64.5 246t183.5 176t268 65q97 0 179 -23.5t152.5 -76.5t119.5 -134t76.5 -201t27.5 -271q0 -225 -74.5 -402t-210.5 -276t-311 -99q-130 0 -235 46.5t-207 130.5l94 124q90 -78 174 -115.5t178 -37.5q125 0 222.5 78t150.5 217t53 315v19 q-144 -230 -405 -230q-221 0 -360.5 126t-139.5 323zM295 975q0 -137 98 -225t254 -88q158 0 257.5 97.5t99.5 229.5q0 138 -103 232t-262 94q-156 0 -250 -99t-94 -241z" />
<glyph unicode=":" horiz-adv-x="522" d="M168 0v215h188v-215h-188zM168 844v215h188v-215h-188z" />
<glyph unicode=";" horiz-adv-x="522" d="M104 -178q71 27 104.5 64.5t33.5 93.5v20h-74v215h188v-184q0 -123 -54 -188.5t-173 -92.5zM168 844v215h188v-215h-188z" />
<glyph unicode="&#x3c;" horiz-adv-x="1310" d="M147 653v135l961 478v-158l-789 -385l789 -387v-160z" />
<glyph unicode="=" horiz-adv-x="1310" d="M184 406v151h942v-151h-942zM184 885v151h942v-151h-942z" />
<glyph unicode="&#x3e;" horiz-adv-x="1310" d="M203 176v158l788 385l-788 387v160l960 -478v-135z" />
<glyph unicode="?" horiz-adv-x="1099" d="M61 1214q95 114 211 176t271 62q205 0 331.5 -115t126.5 -295q0 -93 -33.5 -167.5t-93 -124t-134.5 -80t-165 -43.5l-20 -221h-104l-31 331l10 11q197 4 302.5 81t105.5 211q0 113 -82 190t-217 77q-207 0 -373 -193zM408 0v215h188v-215h-188z" />
<glyph unicode="@" horiz-adv-x="2007" d="M109 561q0 181 70 346t189.5 286t286 193t351.5 72q184 0 350.5 -67t284.5 -178t187.5 -259.5t69.5 -306.5q0 -125 -33 -224t-88 -158t-121.5 -89.5t-139.5 -30.5q-109 0 -183 46.5t-104 125.5q-146 -172 -338 -172q-154 0 -260.5 104t-106.5 269q0 106 41.5 202 t108.5 162.5t152 106t171 39.5q202 0 299 -170l27 141l137 -18l-82 -465q-14 -80 -14 -125q0 -78 45.5 -122t128.5 -44q119 0 203 108.5t84 313.5q0 140 -63 274.5t-170 238t-261 166.5t-325 63q-173 0 -327 -66t-262.5 -177t-171.5 -264t-63 -321q0 -136 39.5 -261 t114.5 -226.5t177 -177t233 -117t276 -41.5q149 0 268 33.5t242 105.5l33 -55q-253 -154 -543 -154q-129 0 -249.5 32.5t-220.5 90.5t-183 140.5t-140 180.5t-88.5 213t-31.5 236zM672 528q0 -119 69.5 -187.5t180.5 -68.5q132 0 233.5 112t101.5 257q0 112 -71 186t-178 74 q-132 0 -234 -109t-102 -264z" />
<glyph unicode="A" horiz-adv-x="1617" d="M80 0l653 1444h152l653 -1444h-174l-168 379h-780l-170 -379h-166zM479 524h654l-326 731z" />
<glyph unicode="B" horiz-adv-x="1478" d="M203 0v1434h610q251 0 375 -127q92 -95 92 -234q0 -128 -64 -208.5t-163 -123.5q307 -92 307 -350q0 -183 -141.5 -287t-378.5 -104h-637zM362 145h482q164 0 258 69.5t94 191.5q0 118 -97.5 181.5t-283.5 63.5h-453v-506zM362 795h424q151 0 240.5 67t89.5 193 q0 108 -83 170.5t-234 62.5h-437v-493z" />
<glyph unicode="C" horiz-adv-x="1511" d="M139 717q0 151 54.5 287t149 236t230.5 159t291 59q181 0 307.5 -58.5t247.5 -172.5l-106 -115q-100 95 -207 146t-244 51q-156 0 -283.5 -78t-199.5 -213.5t-72 -300.5q0 -164 72.5 -299.5t200 -214t282.5 -78.5q140 0 246.5 51t216.5 156l107 -113 q-120 -122 -254.5 -183t-319.5 -61q-203 0 -368.5 98.5t-258 268t-92.5 375.5z" />
<glyph unicode="D" horiz-adv-x="1601" d="M203 0v1434h497q166 0 309 -55t242 -150.5t155 -228t56 -283.5q0 -150 -56 -282t-155 -228t-242 -151.5t-309 -55.5h-497zM365 150h335q133 0 245 43.5t188 119t118.5 180t42.5 224.5q0 118 -42.5 222t-118.5 180.5t-188 120.5t-245 44h-335v-1134z" />
<glyph unicode="E" horiz-adv-x="1372" d="M203 0v1434h1036v-148h-874v-489h782v-148h-782v-502h884v-147h-1046z" />
<glyph unicode="F" horiz-adv-x="1343" d="M203 0v1434h1030v-150h-868v-512h776v-147h-776v-625h-162z" />
<glyph unicode="G" horiz-adv-x="1605" d="M139 717q0 147 52.5 281.5t145 236.5t228.5 162.5t293 60.5q173 0 297 -47t238 -143l-105 -123q-93 80 -193.5 122t-242.5 42q-155 0 -280.5 -80t-195 -215.5t-69.5 -296.5q0 -171 68.5 -306t198 -212.5t300.5 -77.5q118 0 227 40t187 103v357h-436v145h592v-571 q-109 -98 -257 -159t-319 -61q-165 0 -303.5 58t-231 158t-143.5 235.5t-51 290.5z" />
<glyph unicode="H" horiz-adv-x="1556" d="M203 0v1434h162v-637h827v637h162v-1434h-162v645h-827v-645h-162z" />
<glyph unicode="I" horiz-adv-x="595" d="M217 0v1434h162v-1434h-162z" />
<glyph unicode="J" horiz-adv-x="1132" d="M63 233l117 101q70 -105 145 -155t183 -50q126 0 203 89.5t77 254.5v961h164v-959q0 -246 -131 -377q-121 -118 -315 -118q-288 0 -443 253z" />
<glyph unicode="K" horiz-adv-x="1472" d="M203 0v1434h162v-856l823 856h209l-615 -627l641 -807h-202l-551 694l-305 -309v-385h-162z" />
<glyph unicode="L" horiz-adv-x="1267" d="M203 0v1434h162v-1284h806v-150h-968z" />
<glyph unicode="M" horiz-adv-x="1777" d="M203 0v1434h164l522 -783l522 783h164v-1434h-162v1161l-522 -768h-8l-523 766v-1159h-157z" />
<glyph unicode="N" horiz-adv-x="1617" d="M203 0v1434h151l903 -1149v1149h158v-1434h-129l-926 1176v-1176h-157z" />
<glyph unicode="O" horiz-adv-x="1740" d="M139 717q0 147 54 282t148.5 236.5t233 162t297.5 60.5q160 0 297.5 -60t231.5 -161t147.5 -236t53.5 -284q0 -118 -34 -229t-99 -203.5t-153.5 -162t-204 -108.5t-243.5 -39q-159 0 -297 60t-231.5 161.5t-147 236.5t-53.5 284zM307 717q0 -162 72 -297t202 -215 t291 -80t290 79t200.5 214t71.5 299q0 162 -72.5 297t-202.5 215t-291 80t-290 -79t-200 -214t-71 -299z" />
<glyph unicode="P" horiz-adv-x="1368" d="M203 0v1434h536q245 0 391 -123t146 -336q0 -113 -45 -203.5t-122.5 -147.5t-178.5 -87.5t-217 -30.5h-348v-506h-162zM365 653h354q178 0 285.5 87.5t107.5 232.5q0 150 -104 230.5t-281 80.5h-362v-631z" />
<glyph unicode="Q" horiz-adv-x="1740" d="M139 717q0 147 54 282t148.5 236.5t233 162t297.5 60.5q160 0 297.5 -60t231.5 -161t147.5 -236t53.5 -284q0 -135 -44.5 -259t-127.5 -222l190 -158l-111 -121l-188 172q-194 -154 -453 -154q-159 0 -297 60t-231.5 161.5t-147 236.5t-53.5 284zM307 717q0 -162 72 -297 t202 -215t291 -80q190 0 330 108l-266 228l108 121l265 -240q125 160 125 375q0 162 -72.5 297t-202.5 215t-291 80t-290 -79t-200 -214t-71 -299z" />
<glyph unicode="R" horiz-adv-x="1480" d="M203 0v1434h616q264 0 408 -144q110 -110 110 -286q0 -172 -106 -279t-283 -139l441 -586h-199l-416 557h-409v-557h-162zM365 702h440q164 0 266.5 80t102.5 219q0 132 -97 207.5t-270 75.5h-442v-582z" />
<glyph unicode="S" horiz-adv-x="1310" d="M109 209l100 119q116 -105 231 -154t260 -49q144 0 232 69t88 179q0 70 -30 116.5t-112.5 85.5t-230.5 70q-128 28 -215 62t-148.5 83.5t-89.5 116t-28 156.5q0 169 133.5 280t337.5 111q153 0 272.5 -43t231.5 -133l-94 -125q-190 156 -414 156q-137 0 -221 -67 t-84 -169q0 -71 31 -118t116.5 -86.5t241.5 -73.5q243 -53 355 -149t112 -261q0 -183 -137 -294t-353 -111q-329 0 -585 229z" />
<glyph unicode="T" horiz-adv-x="1327" d="M100 1284v150h1127v-150h-482v-1284h-163v1284h-482z" />
<glyph unicode="U" horiz-adv-x="1554" d="M180 600v834h162v-824q0 -231 115.5 -357t322.5 -126q202 0 317 121.5t115 351.5v834h162v-822q0 -307 -161.5 -471t-436.5 -164q-272 0 -434 162.5t-162 460.5z" />
<glyph unicode="V" horiz-adv-x="1536" d="M80 1434h180l510 -1235l512 1235h174l-616 -1444h-144z" />
<glyph unicode="W" horiz-adv-x="2267" d="M92 1434h176l410 -1194l393 1198h133l393 -1198l410 1194h170l-512 -1444h-137l-393 1163l-396 -1163h-135z" />
<glyph unicode="X" horiz-adv-x="1484" d="M94 0l551 731l-530 703h190l440 -586l437 586h188l-530 -701l551 -733h-193l-459 616l-458 -616h-187z" />
<glyph unicode="Y" horiz-adv-x="1466" d="M55 1434h197l483 -717l488 717h188l-596 -865v-569h-164v567z" />
<glyph unicode="Z" horiz-adv-x="1419" d="M137 0v109l928 1179h-897v146h1118v-109l-930 -1180h930v-145h-1149z" />
<glyph unicode="[" horiz-adv-x="899" d="M193 -266v1700h585v-123h-436v-1454h436v-123h-585z" />
<glyph unicode="\" horiz-adv-x="1040" d="M-12 1634h145l950 -1896h-145z" />
<glyph unicode="]" horiz-adv-x="899" d="M121 -143h438v1454h-438v123h586v-1700h-586v123z" />
<glyph unicode="^" d="M133 1010l318 428h122l318 -428h-139l-242 315l-242 -315h-135z" />
<glyph unicode="_" horiz-adv-x="1228" d="M-4 -199h1237v-129h-1237v129z" />
<glyph unicode="`" d="M295 1440l164 76l194 -297h-127z" />
<glyph unicode="a" horiz-adv-x="1185" d="M96 311q0 166 123.5 256t329.5 90q166 0 323 -45v33q0 140 -81.5 213.5t-231.5 73.5q-155 0 -321 -76l-48 129q98 45 187 67.5t198 22.5q226 0 343 -117q110 -110 110 -311v-647h-156v158q-142 -181 -380 -181q-103 0 -191 36.5t-146.5 114t-58.5 183.5zM256 315 q0 -96 77 -153.5t189 -57.5q148 0 250 80.5t102 204.5v98q-153 45 -309 45q-146 0 -227.5 -58.5t-81.5 -158.5z" />
<glyph unicode="b" horiz-adv-x="1359" d="M176 0v1495h158v-649q159 235 405 235q77 0 150.5 -23.5t137.5 -70.5t113 -112t77 -154.5t28 -192.5q0 -126 -43 -231.5t-114 -174.5t-161.5 -107t-187.5 -38q-249 0 -405 226v-203h-158zM328 528q0 -90 32 -167.5t85.5 -129.5t122.5 -82t143 -30q159 0 265.5 111 t106.5 300q0 183 -108.5 296.5t-263.5 113.5q-74 0 -143 -30t-122.5 -83t-85.5 -131t-32 -168z" />
<glyph unicode="c" horiz-adv-x="1169" d="M111 528q0 148 70.5 275t195.5 202.5t276 75.5q140 0 240.5 -50t183.5 -138l-100 -107q-71 74 -148.5 115t-177.5 41q-161 0 -270 -120t-109 -294q0 -172 112.5 -291.5t277.5 -119.5q171 0 319 159l104 -96q-88 -99 -190 -152t-242 -53q-151 0 -276 75t-195.5 202 t-70.5 276z" />
<glyph unicode="d" horiz-adv-x="1359" d="M115 530q0 125 43 231t114.5 175t162 107t186.5 38q250 0 405 -225v639h158v-1495h-158v213q-160 -236 -405 -236q-77 0 -150.5 23.5t-137.5 70.5t-113 112t-77 154.5t-28 192.5zM276 528q0 -182 108.5 -295.5t264.5 -113.5q74 0 143 30t122.5 83t85.5 131.5t32 168.5 q0 177 -115 292.5t-268 115.5q-159 0 -266 -111.5t-107 -300.5z" />
<glyph unicode="e" horiz-adv-x="1212" d="M111 528q0 152 65 278.5t181.5 200.5t260.5 74q152 0 266 -76t171 -202t57 -283q0 -30 -2 -55h-840q17 -162 123 -257t250 -95q192 0 334 149l98 -88q-86 -97 -190 -148t-246 -51q-145 0 -265 68.5t-191.5 196t-71.5 288.5zM270 592h682q-14 154 -101.5 255t-236.5 101 q-135 0 -231 -100.5t-113 -255.5z" />
<glyph unicode="f" horiz-adv-x="751" d="M90 920v137h146v92q0 180 92 272q82 82 227 82q100 0 174 -26v-138q-96 27 -154 27q-184 0 -184 -225v-86h336v-135h-334v-920h-157v920h-146z" />
<glyph unicode="g" horiz-adv-x="1359" d="M115 582q0 112 42 207.5t112 158.5t159 98t184 35q255 0 414 -213v191h158v-875q0 -239 -135 -374q-142 -142 -404 -142q-268 0 -481 148l72 123q187 -136 407 -136q179 0 282 97.5t103 279.5v125q-167 -223 -416 -223q-96 0 -185 35.5t-158.5 98.5t-111.5 158.5 t-42 207.5zM276 582q0 -156 108 -258.5t259 -102.5q101 0 189.5 44.5t144 129t55.5 189.5q0 157 -116 257.5t-273 100.5q-155 0 -261 -99t-106 -261z" />
<glyph unicode="h" horiz-adv-x="1261" d="M176 0v1495h158v-621q126 207 362 207q189 0 297.5 -116t108.5 -308v-657h-158v618q0 149 -77.5 234.5t-215.5 85.5t-227.5 -92t-89.5 -240v-606h-158z" />
<glyph unicode="i" horiz-adv-x="538" d="M180 1290v174h180v-174h-180zM190 0v1059h158v-1059h-158z" />
<glyph unicode="j" horiz-adv-x="538" d="M-8 -195q37 -6 78 -6q56 0 88 35.5t32 106.5v1118h158v-1120q0 -136 -67.5 -204.5t-190.5 -68.5q-54 0 -98 10v129zM180 1290v174h180v-174h-180z" />
<glyph unicode="k" horiz-adv-x="1165" d="M176 0v1495h158v-1032l571 596h197l-445 -455l459 -604h-188l-379 494l-215 -218v-276h-158z" />
<glyph unicode="l" horiz-adv-x="538" d="M190 0v1495h158v-1495h-158z" />
<glyph unicode="m" horiz-adv-x="1947" d="M176 0v1059h158v-178q29 44 58.5 76t71 62t95 46t117.5 16q123 0 208.5 -57.5t131.5 -153.5q137 211 373 211q183 0 288 -114.5t105 -311.5v-655h-158v618q0 153 -72 236.5t-202 83.5q-125 0 -209 -88t-84 -240v-610h-156v623q0 148 -72.5 231.5t-199.5 83.5t-211 -94.5 t-84 -239.5v-604h-158z" />
<glyph unicode="n" horiz-adv-x="1261" d="M176 0v1059h158v-185q126 207 362 207q189 0 297.5 -116t108.5 -308v-657h-158v618q0 149 -77.5 234.5t-215.5 85.5t-227.5 -92t-89.5 -240v-606h-158z" />
<glyph unicode="o" horiz-adv-x="1323" d="M111 528q0 149 71 275.5t198.5 202t283.5 75.5q155 0 282 -75t197.5 -201.5t70.5 -276.5q0 -148 -71.5 -275t-199.5 -202.5t-284 -75.5q-155 0 -281.5 75t-196.5 201.5t-70 276.5zM272 528q0 -171 113 -291t279 -120q169 0 279 119t110 292q0 172 -114 293t-280 121 q-169 0 -278 -120.5t-109 -293.5z" />
<glyph unicode="p" horiz-adv-x="1359" d="M176 -328v1387h158v-213q159 235 405 235q77 0 150.5 -23.5t137.5 -70.5t113 -112t77 -154.5t28 -192.5q0 -126 -43 -231.5t-114 -174.5t-161.5 -107t-187.5 -38q-249 0 -405 226v-531h-158zM328 528q0 -90 32 -167.5t85.5 -129.5t122.5 -82t143 -30q159 0 265.5 111 t106.5 300q0 183 -108.5 296.5t-263.5 113.5q-74 0 -143 -30t-122.5 -83t-85.5 -131t-32 -168z" />
<glyph unicode="q" horiz-adv-x="1359" d="M115 530q0 125 43 231t114.5 175t162 107t186.5 38q250 0 405 -225v203h158v-1387h-158v541q-160 -236 -405 -236q-77 0 -150.5 23.5t-137.5 70.5t-113 112t-77 154.5t-28 192.5zM276 528q0 -182 108.5 -295.5t264.5 -113.5q74 0 143 30t122.5 83t85.5 131.5t32 168.5 q0 177 -115 292.5t-268 115.5q-159 0 -266 -111.5t-107 -300.5z" />
<glyph unicode="r" horiz-adv-x="829" d="M176 0v1059h158v-277q61 138 174 220q105 76 238 75h20v-170h-12q-182 0 -301 -127.5t-119 -357.5v-422h-158z" />
<glyph unicode="s" horiz-adv-x="1019" d="M88 135l80 113q181 -135 367 -135q97 0 158 47t61 125q0 31 -15 56.5t-37 43t-60.5 34.5t-70.5 27.5t-82 24.5q-45 13 -72.5 21.5t-68.5 24t-67 30.5t-56 38.5t-46.5 49.5t-28 62t-11.5 77q0 135 101.5 219t259.5 84q96 0 197.5 -31t183.5 -85l-72 -119 q-159 102 -313 102q-93 0 -149 -44t-56 -114q0 -24 9 -44.5t31.5 -38t41.5 -29.5t58 -26.5t61.5 -21.5t70.5 -22q42 -12 71 -22t67.5 -26t64.5 -32t54 -39.5t44.5 -50t27.5 -61.5t11 -76q0 -147 -107 -232t-270 -85q-114 0 -231.5 41.5t-206.5 113.5z" />
<glyph unicode="t" horiz-adv-x="827" d="M84 920v139h147v319h158v-319h336v-139h-336v-619q0 -176 178 -176q79 0 154 37v-135q-85 -45 -191 -45q-136 0 -217.5 73t-81.5 226v639h-147z" />
<glyph unicode="u" horiz-adv-x="1261" d="M160 401v658h157v-619q0 -149 77 -234t216 -85q137 0 227.5 92.5t90.5 239.5v606h155v-1059h-155v184q-130 -207 -363 -207q-189 0 -297 116t-108 308z" />
<glyph unicode="v" horiz-adv-x="1202" d="M72 1059h174l356 -879l359 879h169l-460 -1067h-140z" />
<glyph unicode="w" horiz-adv-x="1763" d="M86 1059h168l278 -850l285 854h131l287 -854l278 850h164l-372 -1067h-138l-284 835l-287 -835h-139z" />
<glyph unicode="x" horiz-adv-x="1175" d="M80 0l416 539l-400 520h180l314 -410l313 410h176l-401 -516l418 -543h-183l-327 432l-330 -432h-176z" />
<glyph unicode="y" horiz-adv-x="1210" d="M70 1059h174l385 -883l340 883h168l-445 -1094q-67 -162 -148.5 -230.5t-203.5 -68.5q-116 0 -225 53l53 125q74 -39 166 -39q72 0 121.5 44t95.5 155z" />
<glyph unicode="z" horiz-adv-x="1138" d="M115 0v100l702 826h-678v133h893v-101l-704 -825h704v-133h-917z" />
<glyph unicode="{" horiz-adv-x="989" d="M115 526v123h53q133 0 187.5 60.5t54.5 185.5q0 18 -1 79.5t-1 76.5q0 68 10.5 118.5t39.5 98.5t78.5 83t128 64t187.5 49l25 -104q-108 -28 -171 -56t-96.5 -69t-43 -85t-9.5 -120q0 -20 1 -75.5t1 -77.5q0 -123 -54 -189.5t-159 -99.5q109 -36 161 -101t52 -188 q0 -22 -1 -78t-1 -76q0 -60 6 -98.5t24 -75t53.5 -61.5t92.5 -48.5t144 -45.5l-25 -105q-109 20 -187.5 49t-128 64t-78.5 83t-39.5 99t-10.5 119q0 15 1 76.5t1 79.5q0 125 -54.5 185t-187.5 60h-53z" />
<glyph unicode="|" horiz-adv-x="620" d="M244 -262v1896h133v-1896h-133z" />
<glyph unicode="}" horiz-adv-x="989" d="M111 -184q109 28 172 55.5t96.5 68.5t43 85t9.5 120q0 20 -1 76t-1 78q0 123 54 189.5t159 99.5q-109 36 -161 101t-52 188q0 22 1 77.5t1 75.5q0 76 -9.5 120t-42.5 85t-96.5 69t-172.5 56l26 104q109 -20 188 -49t128.5 -64t78 -82.5t39.5 -98.5t11 -119 q0 -15 -1 -76.5t-1 -79.5q0 -126 53.5 -186t185.5 -60h53v-123h-53q-132 0 -185.5 -60t-53.5 -185q0 -18 1 -79.5t1 -76.5q0 -85 -18 -146t-65.5 -114.5t-136.5 -91t-225 -62.5z" />
<glyph unicode="~" horiz-adv-x="968" d="M150 512q31 117 75.5 167t118.5 50q47 0 143.5 -42t130.5 -42q39 0 61 22t46 81l94 -27q-31 -117 -75 -167t-117 -50q-49 0 -146 42t-129 42q-39 0 -60.5 -22t-45.5 -81z" />
<glyph unicode="&#xa2;" horiz-adv-x="1189" d="M119 727q0 148 71 275t196.5 202.5t275.5 75.5h26l31 166h133l-37 -184q144 -39 270 -172l-102 -107q-103 106 -201 137l-157 -803q14 -2 43 -2q178 0 325 158l99 -92q-87 -99 -190.5 -153t-242.5 -54q-37 0 -55 2l-37 -188h-133l45 217q-161 58 -260.5 200t-99.5 322z M279 727q0 -128 64 -230.5t169 -150.5l154 793h-9q-160 0 -269 -119.5t-109 -292.5z" />
<glyph unicode="&#xa3;" horiz-adv-x="1318" d="M137 0v94l172 43v467h-172v141h172v222q0 235 129 364q123 123 324 123q151 0 254 -58t184 -163l-125 -98q-67 84 -138.5 127t-176.5 43q-122 0 -201 -76q-88 -85 -88 -262v-222h571v-141h-571v-461h727v-143h-1061z" />
<glyph unicode="&#xa5;" horiz-adv-x="1404" d="M55 1434h193l457 -701l460 701h185l-523 -762h373v-127h-420v-180h420v-127h-420v-238h-155v238h-420v127h420v180h-420v127h370z" />
<glyph unicode="&#xa8;" d="M240 1219v194h184v-194h-184zM600 1219v194h184v-194h-184z" />
<glyph unicode="&#xa9;" horiz-adv-x="1699" d="M109 717q0 149 58 285.5t157 236.5t237 159.5t291 59.5t290.5 -59t235.5 -158.5t155.5 -236t57.5 -287.5q0 -149 -58 -285.5t-157 -237t-237 -160t-291 -59.5q-204 0 -374.5 100t-267.5 270.5t-97 371.5zM176 713q0 -184 87.5 -338.5t242 -245t342.5 -90.5 q189 0 344.5 92t243.5 248t88 342q0 184 -87.5 338.5t-242 245t-342.5 90.5q-189 0 -344.5 -92t-243.5 -248t-88 -342zM477 729q0 162 110.5 276.5t274.5 114.5q96 0 163.5 -31.5t131.5 -91.5l-76 -82q-107 103 -221 103t-191 -85t-77 -206q0 -119 78.5 -204t191.5 -85 q67 0 117.5 25.5t107.5 77.5l74 -72q-65 -67 -135.5 -101t-167.5 -34q-162 0 -271.5 115t-109.5 280z" />
<glyph unicode="&#xab;" horiz-adv-x="1126" d="M98 522v17l332 436l121 -68l-277 -375l277 -378l-121 -70zM555 522v17l332 436l119 -68l-277 -375l277 -378l-119 -70z" />
<glyph unicode="&#xad;" horiz-adv-x="835" d="M133 532v166h569v-166h-569z" />
<glyph unicode="&#xae;" horiz-adv-x="1699" d="M109 717q0 149 58 285.5t157 236.5t237 159.5t291 59.5t290.5 -59t235.5 -158.5t155.5 -236t57.5 -287.5q0 -149 -58 -285.5t-157 -237t-237 -160t-291 -59.5q-204 0 -374.5 100t-267.5 270.5t-97 371.5zM176 713q0 -184 87.5 -338.5t242 -245t342.5 -90.5 q189 0 344.5 92t243.5 248t88 342q0 184 -87.5 338.5t-242 245t-342.5 90.5q-189 0 -344.5 -92t-243.5 -248t-88 -342zM559 358v760h340q145 0 225 -80q62 -59 62 -151q0 -89 -53.5 -145.5t-143.5 -77.5l236 -306h-140l-223 287h-190v-287h-113zM672 745h217q81 0 130.5 37 t49.5 103q0 60 -46.5 95.5t-127.5 35.5h-223v-271z" />
<glyph unicode="&#xb4;" d="M371 1219l194 297l164 -76l-231 -221h-127z" />
<glyph unicode="&#xb8;" d="M307 -248l185 268h124l-155 -337z" />
<glyph unicode="&#xbb;" horiz-adv-x="1126" d="M121 152l276 376l-276 377l119 70l331 -436v-17l-331 -438zM575 152l277 376l-277 377l121 70l332 -436v-17l-332 -438z" />
<glyph unicode="&#x2c6;" d="M225 1219l217 268h140l217 -268h-135l-154 137l-154 -137h-131z" />
<glyph unicode="&#x2da;" d="M299 1421q0 83 64 143t149 60q86 0 149.5 -61t63.5 -146q0 -83 -64 -143t-149 -60q-86 0 -149.5 61t-63.5 146zM385 1417q0 -51 38 -88t89 -37q52 0 89.5 38t37.5 91q0 51 -37.5 88t-89.5 37q-53 0 -90 -37.5t-37 -91.5z" />
<glyph unicode="&#x2dc;" d="M176 1227q31 115 76 165t119 50q49 0 145.5 -41t128.5 -41q39 0 61 21.5t46 78.5l96 -26q-31 -115 -76 -165t-119 -50q-49 0 -145.5 40.5t-128.5 40.5q-39 0 -61 -21.5t-46 -78.5z" />
<glyph unicode="&#x401;" horiz-adv-x="1372" d="M203 0v1434h1036v-148h-874v-489h782v-148h-782v-502h884v-147h-1046zM455 1561v194h184v-194h-184zM815 1561v194h184v-194h-184z" />
<glyph unicode="&#x402;" horiz-adv-x="1806" d="M98 1286v148h1137v-148h-549v-506q216 164 467 164q215 0 347 -128.5t132 -360.5q0 -236 -132 -369t-345 -133q-108 0 -211 41l37 139q66 -31 158 -31q59 0 114.5 19.5t104 59t77.5 110t29 162.5q0 153 -90 246.5t-239 93.5q-134 0 -240.5 -43t-208.5 -134v-616h-164 v1286h-424z" />
<glyph unicode="&#x403;" horiz-adv-x="1206" d="M203 0v1434h915v-148h-753v-1286h-162zM526 1561l195 297l164 -76l-232 -221h-127z" />
<glyph unicode="&#x404;" horiz-adv-x="1513" d="M139 717q0 151 54.5 287t149 236t230.5 159t291 59q94 0 174 -17t147 -51t119 -72.5t111 -94.5l-102 -111q-101 96 -207.5 147.5t-243.5 51.5q-216 0 -369.5 -145.5t-179.5 -368.5h721v-148h-723q23 -226 178 -376t373 -150q138 0 240 51.5t215 159.5l119 -107 q-122 -124 -258 -188t-320 -64q-203 0 -368.5 98.5t-258 268t-92.5 375.5z" />
<glyph unicode="&#x405;" horiz-adv-x="1310" d="M109 209l100 119q116 -105 231 -154t260 -49q144 0 232 69t88 179q0 70 -30 116.5t-112.5 85.5t-230.5 70q-128 28 -215 62t-148.5 83.5t-89.5 116t-28 156.5q0 169 133.5 280t337.5 111q153 0 272.5 -43t231.5 -133l-94 -125q-190 156 -414 156q-137 0 -221 -67 t-84 -169q0 -71 31 -118t116.5 -86.5t241.5 -73.5q243 -53 355 -149t112 -261q0 -183 -137 -294t-353 -111q-329 0 -585 229z" />
<glyph unicode="&#x406;" horiz-adv-x="595" d="M217 0v1434h162v-1434h-162z" />
<glyph unicode="&#x407;" horiz-adv-x="595" d="M27 1561v194h184v-194h-184zM217 0v1434h162v-1434h-162zM387 1561v194h184v-194h-184z" />
<glyph unicode="&#x408;" horiz-adv-x="1132" d="M63 233l117 101q70 -105 145 -155t183 -50q126 0 203 89.5t77 254.5v961h164v-959q0 -246 -131 -377q-121 -118 -315 -118q-288 0 -443 253z" />
<glyph unicode="&#x409;" horiz-adv-x="2365" d="M-10 18l33 132q48 -21 127 -21q28 0 51.5 6t55.5 30.5t56.5 66.5t50.5 121t43 186t28 270t11 365v260h908v-555h362q118 0 217 -24.5t176 -74t120.5 -132t43.5 -191.5q0 -211 -143.5 -334t-388.5 -123h-549v1286h-590v-156q0 -211 -12.5 -380t-33 -287.5t-53 -205.5 t-67 -139t-80 -82.5t-87 -41t-93.5 -10.5q-44 0 -99 11t-87 23zM1354 147h383q175 0 274.5 78.5t99.5 227.5q0 137 -101.5 208.5t-283.5 71.5h-372v-586z" />
<glyph unicode="&#x40a;" horiz-adv-x="2363" d="M203 0v1434h162v-594h825v594h164v-594h401q87 0 163 -15t141.5 -47t112 -79t73 -114.5t26.5 -150.5q0 -199 -135 -316.5t-369 -117.5h-577v690h-825v-690h-162zM1354 147h393q174 0 266 73.5t92 213.5q0 129 -94.5 196.5t-271.5 67.5h-385v-551z" />
<glyph unicode="&#x40b;" horiz-adv-x="1806" d="M98 1286v148h1135v-148h-547v-528q219 166 467 166q216 0 347.5 -110t131.5 -314v-500h-162v467q0 137 -90 221t-241 84q-133 0 -240.5 -44.5t-212.5 -139.5v-588h-162v1286h-426z" />
<glyph unicode="&#x40c;" horiz-adv-x="1472" d="M203 0v1434h162v-856l823 856h209l-615 -627l641 -807h-202l-551 694l-305 -309v-385h-162zM639 1561l195 297l163 -76l-231 -221h-127z" />
<glyph unicode="&#x40e;" horiz-adv-x="1492" d="M74 1434h184l528 -936l457 936h176l-567 -1133q-162 -326 -438 -326q-125 0 -242 60l64 129q79 -43 182 -43q174 0 287 215zM494 1804l110 23q41 -144 182 -144q142 0 183 144l110 -23q-19 -111 -98.5 -181.5t-194.5 -70.5t-194 70.5t-98 181.5z" />
<glyph unicode="&#x40f;" horiz-adv-x="1536" d="M203 0v1434h162v-1287h806v1287h162v-1434h-477v-319h-162v319h-491z" />
<glyph unicode="&#x410;" horiz-adv-x="1617" d="M80 0l653 1444h152l653 -1444h-174l-168 379h-780l-170 -379h-166zM479 524h654l-326 731z" />
<glyph unicode="&#x411;" horiz-adv-x="1449" d="M203 0v1434h1028v-148h-866v-440h423q117 0 214.5 -25t172 -75t116.5 -131.5t42 -186.5q0 -207 -142 -317.5t-386 -110.5h-602zM365 147h428q378 0 378 289q0 132 -102 199t-285 67h-419v-555z" />
<glyph unicode="&#x412;" horiz-adv-x="1478" d="M203 0v1434h610q251 0 375 -127q92 -95 92 -234q0 -128 -64 -208.5t-163 -123.5q307 -92 307 -350q0 -183 -141.5 -287t-378.5 -104h-637zM362 145h482q164 0 258 69.5t94 191.5q0 118 -97.5 181.5t-283.5 63.5h-453v-506zM362 795h424q151 0 240.5 67t89.5 193 q0 108 -83 170.5t-234 62.5h-437v-493z" />
<glyph unicode="&#x413;" horiz-adv-x="1206" d="M203 0v1434h915v-148h-753v-1286h-162z" />
<glyph unicode="&#x414;" horiz-adv-x="1544" d="M20 147h148q104 167 160.5 430.5t56.5 606.5v250h938v-1287h186l-24 -466h-135v319h-1164l-28 -319h-138v466zM350 147h811v1139h-620v-186q0 -283 -51.5 -545.5t-139.5 -407.5z" />
<glyph unicode="&#x415;" horiz-adv-x="1372" d="M203 0v1434h1036v-148h-874v-489h782v-148h-782v-502h884v-147h-1046z" />
<glyph unicode="&#x416;" horiz-adv-x="2230" d="M49 0l590 819l-553 615h201l747 -846v846h162v-846l748 846h200l-553 -615l590 -819h-201l-501 698l-283 -313v-385h-162v385l-284 313l-500 -698h-201z" />
<glyph unicode="&#x417;" horiz-adv-x="1302" d="M80 207l96 112q111 -105 231 -154.5t273 -49.5q137 0 235.5 76.5t98.5 199.5q0 133 -106 198.5t-281 65.5h-158v133h158q156 0 253 72.5t97 198.5q0 111 -91.5 183.5t-232.5 72.5q-243 0 -422 -162l-94 113q112 97 234 143.5t286 46.5q213 0 348.5 -108t135.5 -275 q0 -69 -22 -126.5t-60.5 -98t-82.5 -67.5t-97 -46q137 -41 219 -129t82 -223q0 -173 -140.5 -290.5t-361.5 -117.5q-182 0 -325.5 57t-272.5 175z" />
<glyph unicode="&#x418;" horiz-adv-x="1576" d="M203 0v1434h162v-1190l856 1190h153v-1434h-160v1190l-854 -1190h-157z" />
<glyph unicode="&#x419;" horiz-adv-x="1576" d="M203 0v1434h162v-1190l856 1190h153v-1434h-160v1190l-854 -1190h-157zM506 1804l110 23q41 -144 183 -144q141 0 182 144l111 -23q-19 -111 -98.5 -181.5t-194.5 -70.5t-194.5 70.5t-98.5 181.5z" />
<glyph unicode="&#x41a;" horiz-adv-x="1472" d="M203 0v1434h162v-856l823 856h209l-615 -627l641 -807h-202l-551 694l-305 -309v-385h-162z" />
<glyph unicode="&#x41b;" horiz-adv-x="1576" d="M-10 18l33 132q48 -21 127 -21q28 0 51.5 6t55.5 30.5t56.5 66.5t50.5 121t43 186t28 270t11 365v260h928v-1434h-162v1286h-610v-156q0 -211 -12.5 -380t-33 -287.5t-53 -205.5t-67 -139t-80 -82.5t-87 -41t-93.5 -10.5q-44 0 -99 11t-87 23z" />
<glyph unicode="&#x41c;" horiz-adv-x="1777" d="M203 0v1434h164l522 -783l522 783h164v-1434h-162v1161l-522 -768h-8l-523 766v-1159h-157z" />
<glyph unicode="&#x41d;" horiz-adv-x="1556" d="M203 0v1434h162v-637h827v637h162v-1434h-162v645h-827v-645h-162z" />
<glyph unicode="&#x41e;" horiz-adv-x="1740" d="M139 717q0 147 54 282t148.5 236.5t233 162t297.5 60.5q160 0 297.5 -60t231.5 -161t147.5 -236t53.5 -284q0 -118 -34 -229t-99 -203.5t-153.5 -162t-204 -108.5t-243.5 -39q-159 0 -297 60t-231.5 161.5t-147 236.5t-53.5 284zM307 717q0 -162 72 -297t202 -215 t291 -80t290 79t200.5 214t71.5 299q0 162 -72.5 297t-202.5 215t-291 80t-290 -79t-200 -214t-71 -299z" />
<glyph unicode="&#x41f;" horiz-adv-x="1536" d="M203 0v1434h1130v-1434h-162v1286h-806v-1286h-162z" />
<glyph unicode="&#x420;" horiz-adv-x="1368" d="M203 0v1434h536q245 0 391 -123t146 -336q0 -113 -45 -203.5t-122.5 -147.5t-178.5 -87.5t-217 -30.5h-348v-506h-162zM365 653h354q178 0 285.5 87.5t107.5 232.5q0 150 -104 230.5t-281 80.5h-362v-631z" />
<glyph unicode="&#x421;" horiz-adv-x="1511" d="M139 717q0 151 54.5 287t149 236t230.5 159t291 59q181 0 307.5 -58.5t247.5 -172.5l-106 -115q-100 95 -207 146t-244 51q-156 0 -283.5 -78t-199.5 -213.5t-72 -300.5q0 -164 72.5 -299.5t200 -214t282.5 -78.5q140 0 246.5 51t216.5 156l107 -113 q-120 -122 -254.5 -183t-319.5 -61q-203 0 -368.5 98.5t-258 268t-92.5 375.5z" />
<glyph unicode="&#x422;" horiz-adv-x="1327" d="M100 1286v148h1127v-148h-482v-1286h-163v1286h-482z" />
<glyph unicode="&#x423;" horiz-adv-x="1492" d="M74 1434h184l528 -936l457 936h176l-567 -1133q-162 -326 -438 -326q-125 0 -242 60l64 129q79 -43 182 -43q174 0 287 215z" />
<glyph unicode="&#x424;" horiz-adv-x="1837" d="M113 723q0 283 191.5 449.5t533.5 166.5v142h161v-142q342 0 533.5 -166.5t191.5 -449.5q0 -284 -191 -451.5t-534 -167.5v-157h-161v157q-343 0 -534 167.5t-191 451.5zM281 721q0 -227 145 -348t412 -121v940q-266 0 -411.5 -122t-145.5 -349zM999 252q267 0 412 121 t145 348t-145.5 349t-411.5 122v-940z" />
<glyph unicode="&#x425;" horiz-adv-x="1484" d="M94 0l551 731l-530 703h190l440 -586l437 586h188l-530 -701l551 -733h-193l-459 616l-458 -616h-187z" />
<glyph unicode="&#x426;" horiz-adv-x="1566" d="M203 0v1434h162v-1287h819v1287h162v-1287h186l-25 -466h-135v319h-1169z" />
<glyph unicode="&#x427;" horiz-adv-x="1423" d="M150 893v541h161v-514q0 -138 82.5 -217.5t231.5 -79.5q102 0 218 39.5t216 99.5v672h162v-1434h-162v612q-95 -54 -223 -97.5t-224 -43.5q-214 0 -338 108.5t-124 313.5z" />
<glyph unicode="&#x428;" horiz-adv-x="2258" d="M203 0v1434h162v-1287h684v1287h161v-1287h684v1287h162v-1434h-1853z" />
<glyph unicode="&#x429;" horiz-adv-x="2277" d="M203 0v1434h162v-1287h684v1287h161v-1287h684v1287h162v-1287h187l-25 -466h-135v319h-1880z" />
<glyph unicode="&#x42a;" horiz-adv-x="1640" d="M90 1286v148h539v-555h362q118 0 217 -24.5t176 -74t120.5 -132t43.5 -191.5q0 -211 -143.5 -334t-388.5 -123h-549v1286h-377zM629 147h383q175 0 274.5 78.5t99.5 227.5q0 137 -101.5 208.5t-283.5 71.5h-372v-586z" />
<glyph unicode="&#x42b;" horiz-adv-x="1832" d="M203 0v1434h162v-555h362q118 0 217 -24.5t176 -74t120.5 -132t43.5 -191.5q0 -211 -143.5 -334t-388.5 -123h-549zM365 147h383q175 0 274.5 78.5t99.5 227.5q0 137 -101.5 208.5t-283.5 71.5h-372v-586zM1468 0v1434h162v-1434h-162z" />
<glyph unicode="&#x42c;" horiz-adv-x="1376" d="M203 0v1434h162v-555h362q118 0 217 -24.5t176 -74t120.5 -132t43.5 -191.5q0 -211 -143.5 -334t-388.5 -123h-549zM365 147h383q175 0 274.5 78.5t99.5 227.5q0 137 -101.5 208.5t-283.5 71.5h-372v-586z" />
<glyph unicode="&#x42d;" horiz-adv-x="1513" d="M76 227l119 107q113 -108 214.5 -159.5t239.5 -51.5q218 0 373 150t178 376h-723v148h721q-26 223 -179.5 368.5t-369.5 145.5q-136 0 -242.5 -51.5t-207.5 -147.5l-103 111q59 56 111 94.5t119 72.5t147 51t174 17q155 0 291 -59t230.5 -159t149 -236t54.5 -287 q0 -206 -92.5 -375.5t-258 -268t-368.5 -98.5q-184 0 -319.5 64t-257.5 188z" />
<glyph unicode="&#x42e;" horiz-adv-x="2150" d="M203 0v1434h162v-639h290q16 187 104.5 337.5t238.5 238t335 87.5q199 0 354.5 -98t239.5 -266t84 -375t-85 -376.5t-241.5 -268.5t-355.5 -99q-141 0 -262.5 51t-208 141t-139.5 213.5t-64 266.5h-290v-647h-162zM819 717q0 -165 65.5 -301t183.5 -214.5t265 -78.5 t264.5 77.5t182.5 213.5t65 303q0 165 -66 301t-184.5 214.5t-265.5 78.5t-264 -77.5t-181.5 -213.5t-64.5 -303z" />
<glyph unicode="&#x42f;" horiz-adv-x="1484" d="M86 0l449 575q-178 32 -285 142t-107 284q0 85 28 160t81 127q68 68 176 107t242 39h612v-1434h-162v549h-411l-426 -549h-197zM305 989q0 -138 104.5 -220.5t270.5 -82.5h440v602h-440q-176 0 -275.5 -80.5t-99.5 -218.5z" />
<glyph unicode="&#x430;" horiz-adv-x="1185" d="M96 311q0 166 123.5 256t329.5 90q166 0 323 -45v33q0 140 -81.5 213.5t-231.5 73.5q-155 0 -321 -76l-48 129q98 45 187 67.5t198 22.5q226 0 343 -117q110 -110 110 -311v-647h-156v158q-142 -181 -380 -181q-103 0 -191 36.5t-146.5 114t-58.5 183.5zM256 315 q0 -96 77 -153.5t189 -57.5q148 0 250 80.5t102 204.5v98q-153 45 -309 45q-146 0 -227.5 -58.5t-81.5 -158.5z" />
<glyph unicode="&#x431;" horiz-adv-x="1325" d="M137 571q0 85 2.5 146t11.5 137.5t25 131.5t45.5 114.5t70.5 100.5t102 75.5t138 52.5l590 139l31 -133l-573 -141q-159 -40 -228.5 -129.5t-81.5 -247.5q61 103 171 166.5t268 63.5q136 0 253 -70.5t186 -192t69 -264.5q0 -146 -69.5 -271t-195 -199.5t-278.5 -74.5 q-243 0 -390 160.5t-147 435.5zM299 516q0 -166 110 -282.5t269 -116.5q162 0 268.5 115.5t106.5 283.5q0 166 -110 282.5t-269 116.5q-162 0 -268.5 -115.5t-106.5 -283.5z" />
<glyph unicode="&#x432;" horiz-adv-x="1200" d="M176 0v1059h512q158 0 252 -72t94 -192q0 -170 -176 -244q105 -29 169.5 -93t64.5 -169q0 -133 -105 -211t-280 -78h-531zM334 135h352q114 0 179 47.5t65 130.5q0 77 -68 120.5t-196 43.5h-332v-342zM334 604h325q98 0 156.5 44.5t58.5 125.5q0 68 -55 109t-155 41h-330 v-320z" />
<glyph unicode="&#x433;" horiz-adv-x="948" d="M176 0v1059h719v-139h-561v-920h-158z" />
<glyph unicode="&#x434;" horiz-adv-x="1230" d="M20 139h115q141 259 141 735v185h754v-920h160l-25 -403h-131v264h-856l-28 -264h-130v403zM303 139h569v781h-444v-148q0 -192 -34 -360t-91 -273z" />
<glyph unicode="&#x435;" horiz-adv-x="1212" d="M111 528q0 152 65 278.5t181.5 200.5t260.5 74q152 0 266 -76t171 -202t57 -283q0 -30 -2 -55h-840q17 -162 123 -257t250 -95q192 0 334 149l98 -88q-86 -97 -190 -148t-246 -51q-145 0 -265 68.5t-191.5 196t-71.5 288.5zM270 592h682q-14 154 -101.5 255t-236.5 101 q-135 0 -231 -100.5t-113 -255.5z" />
<glyph unicode="&#x436;" horiz-adv-x="1742" d="M41 0l434 606l-412 453h191l539 -615v615h157v-615l539 615h190l-411 -453l434 -606h-184l-353 494l-215 -236v-258h-157v258l-215 236l-353 -494h-184z" />
<glyph unicode="&#x437;" horiz-adv-x="1048" d="M74 133l80 117q161 -137 354 -137q109 0 185.5 50t76.5 138q0 81 -69.5 127.5t-196.5 46.5h-142v129h144q105 0 170 49.5t65 132.5q0 72 -64.5 115t-164.5 43q-84 0 -170 -26.5t-152 -79.5l-77 110q172 133 409 133q176 0 279.5 -78.5t103.5 -203.5q0 -92 -47.5 -152.5 t-122.5 -91.5q197 -69 197 -260q0 -133 -115 -226.5t-305 -93.5q-242 0 -438 158z" />
<glyph unicode="&#x438;" horiz-adv-x="1292" d="M176 0v1059h158v-838l629 838h153v-1059h-158v838l-630 -838h-152z" />
<glyph unicode="&#x439;" horiz-adv-x="1292" d="M176 0v1059h158v-838l629 838h153v-1059h-158v838l-630 -838h-152zM352 1460l109 23q41 -144 180 -144t180 144l109 -23q-19 -111 -97.5 -180.5t-191.5 -69.5t-191.5 69.5t-97.5 180.5z" />
<glyph unicode="&#x43a;" horiz-adv-x="1161" d="M176 0v1059h158v-610l579 610h195l-442 -459l454 -600h-186l-377 485l-223 -229v-256h-158z" />
<glyph unicode="&#x43b;" horiz-adv-x="1251" d="M-2 0l18 135q47 -14 76 -14q31 0 53 5t48.5 24.5t44.5 54.5t36 98t28.5 151.5t17 219t6.5 297.5v88h749v-1059h-157v920h-443v-25q0 -136 -5.5 -248.5t-15 -199t-25.5 -155t-33.5 -117t-42 -83t-48.5 -55.5t-55 -33t-59.5 -16t-65.5 -4q-61 0 -127 16z" />
<glyph unicode="&#x43c;" horiz-adv-x="1443" d="M176 0v1059h150l395 -557l395 557h152v-1059h-160v807l-391 -537l-387 537v-807h-154z" />
<glyph unicode="&#x43d;" horiz-adv-x="1277" d="M176 0v1059h158v-457h610v457h158v-1059h-158v463h-610v-463h-158z" />
<glyph unicode="&#x43e;" horiz-adv-x="1323" d="M111 528q0 149 71 275.5t198.5 202t283.5 75.5q155 0 282 -75t197.5 -201.5t70.5 -276.5q0 -148 -71.5 -275t-199.5 -202.5t-284 -75.5q-155 0 -281.5 75t-196.5 201.5t-70 276.5zM272 528q0 -171 113 -291t279 -120q169 0 279 119t110 292q0 172 -114 293t-280 121 q-169 0 -278 -120.5t-109 -293.5z" />
<glyph unicode="&#x43f;" horiz-adv-x="1269" d="M176 0v1059h918v-1059h-158v920h-602v-920h-158z" />
<glyph unicode="&#x440;" horiz-adv-x="1359" d="M176 -328v1387h158v-213q159 235 405 235q77 0 150.5 -23.5t137.5 -70.5t113 -112t77 -154.5t28 -192.5q0 -126 -43 -231.5t-114 -174.5t-161.5 -107t-187.5 -38q-249 0 -405 226v-531h-158zM328 528q0 -90 32 -167.5t85.5 -129.5t122.5 -82t143 -30q159 0 265.5 111 t106.5 300q0 183 -108.5 296.5t-263.5 113.5q-74 0 -143 -30t-122.5 -83t-85.5 -131t-32 -168z" />
<glyph unicode="&#x441;" horiz-adv-x="1169" d="M111 528q0 148 70.5 275t195.5 202.5t276 75.5q140 0 240.5 -50t183.5 -138l-100 -107q-71 74 -148.5 115t-177.5 41q-161 0 -270 -120t-109 -294q0 -172 112.5 -291.5t277.5 -119.5q171 0 319 159l104 -96q-88 -99 -190 -152t-242 -53q-151 0 -276 75t-195.5 202 t-70.5 276z" />
<glyph unicode="&#x442;" d="M53 920v139h918v-139h-379v-920h-160v920h-379z" />
<glyph unicode="&#x443;" horiz-adv-x="1210" d="M70 1059h174l385 -883l340 883h168l-445 -1094q-67 -162 -148.5 -230.5t-203.5 -68.5q-116 0 -225 53l53 125q74 -39 166 -39q72 0 121.5 44t95.5 155z" />
<glyph unicode="&#x444;" horiz-adv-x="1787" d="M119 532q0 255 118.5 402t311.5 147q83 0 143 -29.5t121 -84.5v467h160v-467q61 55 121 84.5t143 29.5q194 0 313 -148t119 -405q0 -254 -119.5 -402.5t-312.5 -148.5q-61 0 -112.5 17t-80 36.5t-71.5 55.5v-414h-160v414q-62 -52 -122.5 -80.5t-141.5 -28.5 q-193 0 -311.5 149t-118.5 406zM283 524q0 -196 73.5 -301.5t225.5 -105.5q135 0 231 104v615q-96 104 -231 104q-147 0 -223 -110.5t-76 -305.5zM973 221q101 -104 233 -104q152 0 225.5 106t73.5 305q0 193 -76 302.5t-223 109.5q-132 0 -233 -104v-615z" />
<glyph unicode="&#x445;" horiz-adv-x="1175" d="M80 0l416 539l-400 520h180l314 -410l313 410h176l-401 -516l418 -543h-183l-327 432l-330 -432h-176z" />
<glyph unicode="&#x446;" horiz-adv-x="1286" d="M176 0v1059h158v-920h594v920h157v-920h160l-24 -403h-131v264h-914z" />
<glyph unicode="&#x447;" horiz-adv-x="1181" d="M143 657v402h158v-379q0 -94 56 -148.5t157 -54.5q84 0 176.5 28t157.5 73v481h158v-1059h-158v436q-64 -36 -165.5 -66t-188.5 -30q-161 0 -256 82t-95 235z" />
<glyph unicode="&#x448;" horiz-adv-x="1859" d="M176 0v1059h158v-920h516v920h158v-920h516v920h159v-1059h-1507z" />
<glyph unicode="&#x449;" horiz-adv-x="1884" d="M176 0v1059h158v-920h516v920h158v-920h516v920h159v-920h160l-24 -403h-131v264h-1512z" />
<glyph unicode="&#x44a;" horiz-adv-x="1286" d="M41 920v139h477v-397h283q70 0 131.5 -11.5t114.5 -36.5t91 -61.5t59.5 -90t21.5 -118.5q0 -158 -109 -251t-291 -93h-459v920h-319zM518 139h287q120 0 187 51.5t67 149.5q0 91 -68.5 138.5t-191.5 47.5h-281v-387z" />
<glyph unicode="&#x44b;" horiz-adv-x="1558" d="M176 0v1059h158v-397h282q70 0 131.5 -11.5t114.5 -36.5t91 -61.5t59.5 -90t21.5 -118.5q0 -158 -108.5 -251t-290.5 -93h-459zM334 139h287q120 0 186.5 51.5t66.5 149.5q0 91 -68.5 138.5t-191.5 47.5h-280v-387zM1225 0v1059h157v-1059h-157z" />
<glyph unicode="&#x44c;" horiz-adv-x="1101" d="M176 0v1059h158v-397h282q70 0 131.5 -11.5t114.5 -36.5t91 -61.5t59.5 -90t21.5 -118.5q0 -158 -108.5 -251t-290.5 -93h-459zM334 139h287q120 0 186.5 51.5t66.5 149.5q0 91 -68.5 138.5t-191.5 47.5h-280v-387z" />
<glyph unicode="&#x44d;" horiz-adv-x="1169" d="M82 180l104 99q71 -78 148 -122t172 -44q151 0 261.5 101.5t127.5 252.5h-483v133h481q-15 143 -123.5 243.5t-255.5 100.5q-101 0 -179.5 -41.5t-148.5 -116.5l-92 103q80 91 183.5 141.5t246.5 50.5q151 0 274.5 -76.5t192 -203.5t68.5 -277q0 -147 -71 -273 t-196.5 -201t-275.5 -75q-145 0 -247 51.5t-187 153.5z" />
<glyph unicode="&#x44e;" horiz-adv-x="1720" d="M176 0v1059h158v-461h235q12 99 53.5 186.5t107.5 153.5t159 104.5t201 38.5q155 0 275.5 -75.5t183.5 -201t63 -276.5q0 -149 -63.5 -274.5t-185.5 -202t-278 -76.5q-216 0 -355.5 139.5t-160.5 350.5h-235v-465h-158zM729 528q0 -175 100 -293t261 -118 q165 0 261.5 117.5t96.5 293.5t-100.5 294t-262.5 118q-164 0 -260 -118t-96 -294z" />
<glyph unicode="&#x44f;" horiz-adv-x="1196" d="M82 0l324 410q-125 29 -204 112t-79 207q0 149 106.5 239.5t292.5 90.5h498v-1059h-158v385h-293q-260 -342 -293 -385h-194zM281 723q0 -95 70.5 -150t183.5 -55h327v402h-332q-118 0 -183.5 -53t-65.5 -144z" />
<glyph unicode="&#x451;" horiz-adv-x="1212" d="M111 528q0 152 65 278.5t181.5 200.5t260.5 74q152 0 266 -76t171 -202t57 -283q0 -30 -2 -55h-840q17 -162 123 -257t250 -95q192 0 334 149l98 -88q-86 -97 -190 -148t-246 -51q-145 0 -265 68.5t-191.5 196t-71.5 288.5zM270 592h682q-14 154 -101.5 255t-236.5 101 q-135 0 -231 -100.5t-113 -255.5zM334 1219v194h184v-194h-184zM694 1219v194h185v-194h-185z" />
<glyph unicode="&#x452;" horiz-adv-x="1261" d="M12 1171v127h164v197h158v-197h436v-127h-436v-321q130 211 368 211q190 0 300 -117.5t110 -308.5v-236q0 -191 -109.5 -307.5t-300.5 -116.5q-112 0 -208 41l30 134q67 -33 150 -33q121 0 200.5 88.5t79.5 232.5v158q0 147 -79.5 234.5t-217.5 87.5t-230.5 -95 t-92.5 -241v-582h-158v1171h-164z" />
<glyph unicode="&#x453;" horiz-adv-x="948" d="M176 0v1059h719v-139h-561v-920h-158zM418 1219l194 297l164 -76l-231 -221h-127z" />
<glyph unicode="&#x454;" horiz-adv-x="1169" d="M109 524q0 150 68 277t191.5 203.5t274.5 76.5q143 0 246.5 -50.5t183.5 -141.5l-92 -103q-70 75 -148.5 116.5t-179.5 41.5q-147 0 -255.5 -100.5t-123.5 -243.5h482v-133h-484q17 -150 128 -252t262 -102q95 0 171.5 44t147.5 122l104 -99q-85 -102 -187 -153.5 t-247 -51.5q-113 0 -214 44.5t-172.5 118.5t-113.5 175t-42 211z" />
<glyph unicode="&#x455;" horiz-adv-x="1019" d="M88 135l80 113q181 -135 367 -135q97 0 158 47t61 125q0 31 -15 56.5t-37 43t-60.5 34.5t-70.5 27.5t-82 24.5q-45 13 -72.5 21.5t-68.5 24t-67 30.5t-56 38.5t-46.5 49.5t-28 62t-11.5 77q0 135 101.5 219t259.5 84q96 0 197.5 -31t183.5 -85l-72 -119 q-159 102 -313 102q-93 0 -149 -44t-56 -114q0 -24 9 -44.5t31.5 -38t41.5 -29.5t58 -26.5t61.5 -21.5t70.5 -22q42 -12 71 -22t67.5 -26t64.5 -32t54 -39.5t44.5 -50t27.5 -61.5t11 -76q0 -147 -107 -232t-270 -85q-114 0 -231.5 41.5t-206.5 113.5z" />
<glyph unicode="&#x456;" horiz-adv-x="538" d="M180 1290v174h180v-174h-180zM190 0v1059h158v-1059h-158z" />
<glyph unicode="&#x457;" horiz-adv-x="538" d="M-2 1219v194h184v-194h-184zM190 0v1059h158v-1059h-158zM358 1219v194h185v-194h-185z" />
<glyph unicode="&#x458;" horiz-adv-x="538" d="M-8 -195q37 -6 78 -6q56 0 88 35.5t32 106.5v1118h158v-1120q0 -136 -67.5 -204.5t-190.5 -68.5q-54 0 -98 10v129zM180 1290v174h180v-174h-180z" />
<glyph unicode="&#x459;" horiz-adv-x="1843" d="M-2 0l18 135q47 -14 76 -14q31 0 53 5t48.5 24.5t44.5 54.5t36 98t28.5 151.5t17 219t6.5 297.5v88h749v-397h283q70 0 131.5 -11.5t114.5 -36.5t91 -61.5t59.5 -90t21.5 -118.5q0 -158 -109 -251t-291 -93h-458v920h-443v-25q0 -136 -5.5 -248.5t-15 -199t-25.5 -155 t-33.5 -117t-42 -83t-48.5 -55.5t-55 -33t-59.5 -16t-65.5 -4q-61 0 -127 16zM1075 139h287q120 0 187 51.5t67 149.5q0 91 -68.5 138.5t-191.5 47.5h-281v-387z" />
<glyph unicode="&#x45a;" horiz-adv-x="1867" d="M176 0v1059h158v-406h610v406h158v-406h284q88 0 161 -18.5t130.5 -55t90 -98.5t32.5 -143q0 -157 -107.5 -247.5t-287.5 -90.5h-461v516h-610v-516h-158zM1102 139h289q119 0 185 50t66 147q0 89 -68 135.5t-190 46.5h-282v-379z" />
<glyph unicode="&#x45b;" horiz-adv-x="1261" d="M12 1171v127h164v197h158v-197h436v-127h-436v-317q126 207 362 207q189 0 297.5 -116t108.5 -308v-637h-158v598q0 149 -77.5 234.5t-215.5 85.5t-227.5 -92t-89.5 -240v-586h-158v1171h-164z" />
<glyph unicode="&#x45c;" horiz-adv-x="1161" d="M176 0v1059h158v-610l579 610h195l-442 -459l454 -600h-186l-377 485l-223 -229v-256h-158zM524 1219l195 297l164 -76l-232 -221h-127z" />
<glyph unicode="&#x45e;" horiz-adv-x="1210" d="M70 1059h174l385 -883l340 883h168l-445 -1094q-67 -162 -148.5 -230.5t-203.5 -68.5q-116 0 -225 53l53 125q74 -39 166 -39q72 0 121.5 44t95.5 155zM340 1460l109 23q41 -144 180 -144t180 144l109 -23q-19 -111 -97.5 -180.5t-191.5 -69.5t-191.5 69.5t-97.5 180.5z " />
<glyph unicode="&#x45f;" horiz-adv-x="1273" d="M176 0v1059h158v-920h606v920h158v-1059h-377v-264h-156v264h-389z" />
<glyph unicode="&#x490;" horiz-adv-x="1206" d="M203 0v1434h749v319h140l26 -467h-753v-1286h-162z" />
<glyph unicode="&#x491;" horiz-adv-x="948" d="M176 0v1059h563v264h131l25 -403h-561v-920h-158z" />
<glyph unicode="&#x2000;" horiz-adv-x="929" />
<glyph unicode="&#x2001;" horiz-adv-x="1858" />
<glyph unicode="&#x2002;" horiz-adv-x="929" />
<glyph unicode="&#x2003;" horiz-adv-x="1858" />
<glyph unicode="&#x2004;" horiz-adv-x="619" />
<glyph unicode="&#x2005;" horiz-adv-x="464" />
<glyph unicode="&#x2006;" horiz-adv-x="309" />
<glyph unicode="&#x2007;" horiz-adv-x="309" />
<glyph unicode="&#x2008;" horiz-adv-x="232" />
<glyph unicode="&#x2009;" horiz-adv-x="371" />
<glyph unicode="&#x200a;" horiz-adv-x="103" />
<glyph unicode="&#x2010;" horiz-adv-x="835" d="M133 532v166h569v-166h-569z" />
<glyph unicode="&#x2011;" horiz-adv-x="835" d="M133 532v166h569v-166h-569z" />
<glyph unicode="&#x2012;" horiz-adv-x="835" d="M133 532v166h569v-166h-569z" />
<glyph unicode="&#x2013;" horiz-adv-x="1081" d="M133 537v157h815v-157h-815z" />
<glyph unicode="&#x2014;" horiz-adv-x="1839" d="M133 537v157h1573v-157h-1573z" />
<glyph unicode="&#x2018;" horiz-adv-x="501" d="M147 979v184q0 123 54 188.5t172 92.5l24 -72q-72 -26 -104.5 -64.5t-32.5 -97.5v-16h76v-215h-189z" />
<glyph unicode="&#x2019;" horiz-adv-x="501" d="M104 1040q71 27 104.5 64.5t33.5 93.5v21h-74v215h188v-185q0 -123 -54 -188t-173 -92z" />
<glyph unicode="&#x201a;" horiz-adv-x="501" d="M94 -178q71 26 104 63.5t33 94.5v20h-73v215h188v-184q0 -123 -54 -188.5t-173 -92.5z" />
<glyph unicode="&#x201c;" horiz-adv-x="911" d="M147 979v184q0 123 54 188.5t172 92.5l24 -72q-72 -26 -104.5 -64.5t-32.5 -97.5v-16h76v-215h-189zM557 979v184q0 123 53.5 188.5t171.5 92.5l25 -72q-72 -26 -104.5 -64.5t-32.5 -97.5v-16h73v-215h-186z" />
<glyph unicode="&#x201d;" horiz-adv-x="911" d="M104 1040q71 27 104.5 64.5t33.5 93.5v21h-74v215h188v-185q0 -123 -54 -188t-173 -92zM514 1040q71 26 104 63.5t33 94.5v21h-73v215h186v-185q0 -123 -53.5 -188t-171.5 -92z" />
<glyph unicode="&#x201e;" horiz-adv-x="911" d="M94 -178q71 26 104 63.5t33 94.5v20h-73v215h188v-184q0 -123 -54 -188.5t-173 -92.5zM504 -178q71 26 104 63.5t33 94.5v20h-74v215h187v-184q0 -123 -54 -188.5t-172 -92.5z" />
<glyph unicode="&#x2026;" horiz-adv-x="1480" d="M158 0v211h182v-211h-182zM649 0v211h182v-211h-182zM1141 0v211h184v-211h-184z" />
<glyph unicode="&#x202f;" horiz-adv-x="371" />
<glyph unicode="&#x2039;" horiz-adv-x="671" d="M98 522v17l332 436l121 -68l-277 -375l277 -378l-121 -70z" />
<glyph unicode="&#x203a;" horiz-adv-x="671" d="M121 152l276 376l-276 377l119 70l331 -436v-17l-331 -438z" />
<glyph unicode="&#x205f;" horiz-adv-x="464" />
<glyph unicode="&#x20ac;" horiz-adv-x="1474" d="M115 485v129h166q-5 41 -5 103q0 67 9 119h-170v127h192q60 221 211 358t352 137q170 0 287 -73t207 -207l-123 -88q-82 115 -167.5 169t-209.5 54q-134 0 -238.5 -96t-152.5 -254h526v-127h-553q-8 -44 -8 -119q0 -37 4 -103h557v-129h-530q46 -167 157 -265.5 t261 -98.5q115 0 199.5 59t164.5 176l117 -82q-94 -142 -209.5 -220.5t-277.5 -78.5q-215 0 -370 139.5t-210 370.5h-186z" />
<glyph unicode="&#x2122;" horiz-adv-x="1413" d="M53 1348v86h496v-86h-203v-545h-90v545h-203zM688 803v631h96l226 -347l223 347h94v-631h-88v483l-225 -342h-13l-223 342v-483h-90z" />
<glyph unicode="&#xe000;" horiz-adv-x="1054" d="M0 0v1055h1055v-1055h-1055z" />
</font>
</defs>
</svg>
