<svg width="19" height="19" viewBox="0 0 19 19" fill="none" xmlns="http://www.w3.org/2000/svg">
<g clip-path="url(#clip0_2924_9811)">
<path fill-rule="evenodd" clip-rule="evenodd" d="M9.4871 0C6.02188 0 2.80433 1.0227 0.133354 2.77773C-0.050262 5.96752 0.673528 9.26621 2.40507 12.266C4.13448 15.2594 6.62397 17.5332 9.47002 18.9701L9.4871 19L9.50418 18.9701C12.3502 17.5332 14.8397 15.2615 16.5691 12.266C18.3007 9.26621 19.0245 5.96539 18.8409 2.77773C16.1699 1.0227 12.9523 0 9.4871 0Z" fill="#E3A700"/>
<path fill-rule="evenodd" clip-rule="evenodd" d="M12.4399 6.88988C12.726 7.21014 12.726 7.72896 12.4399 8.04709L10.2429 10.4832C9.48922 11.397 9.01524 11.397 8.23167 10.4832L6.85668 8.95663C6.56844 8.63637 6.56844 8.11968 6.85668 7.79942C7.14278 7.47916 7.61036 7.47916 7.89646 7.79942L9.23942 9.28756L11.4022 6.88774C11.6905 6.56748 12.1559 6.56962 12.442 6.88774L12.4399 6.88988Z" fill="white"/>
</g>
<defs>
<clipPath id="clip0_2924_9811">
<rect width="19" height="19" fill="white"/>
</clipPath>
</defs>
</svg>
