<svg width="19" height="19" viewBox="0 0 19 19" fill="none" xmlns="http://www.w3.org/2000/svg">
<g clip-path="url(#clip0_2924_9827)">
<path fill-rule="evenodd" clip-rule="evenodd" d="M9.48698 0C6.02176 0 2.80421 1.0227 0.133232 2.77773C-0.050384 5.96752 0.673405 9.26621 2.40495 12.266C4.13436 15.2594 6.62385 17.5332 9.4699 18.9701L9.48698 19L9.50406 18.9701C12.3501 17.5332 14.8396 15.2615 16.569 12.266C18.3006 9.26621 19.0243 5.96539 18.8407 2.77773C16.1698 1.0227 12.9522 0 9.48698 0Z" fill="#A7A7A7"/>
<path fill-rule="evenodd" clip-rule="evenodd" d="M12.4398 6.88988C12.7259 7.21014 12.7259 7.72896 12.4398 8.04709L10.2428 10.4832C9.4891 11.397 9.01511 11.397 8.23154 10.4832L6.85656 8.95663C6.56832 8.63637 6.56832 8.11968 6.85656 7.79942C7.14266 7.47916 7.61024 7.47916 7.89634 7.79942L9.2393 9.28756L11.4021 6.88774C11.6904 6.56748 12.1558 6.56962 12.4419 6.88774L12.4398 6.88988Z" fill="white"/>
</g>
<defs>
<clipPath id="clip0_2924_9827">
<rect width="19" height="19" fill="white"/>
</clipPath>
</defs>
</svg>
