<svg width="38" height="38" viewBox="0 0 38 38" fill="none" xmlns="http://www.w3.org/2000/svg">
<g clip-path="url(#clip0_2924_9819)">
<path fill-rule="evenodd" clip-rule="evenodd" d="M18.9742 0C12.0438 0 5.60866 2.0454 0.266708 5.55546C-0.100524 11.935 1.34706 18.5324 4.81014 24.532C8.26896 30.5187 13.2479 35.0664 18.94 37.9402L18.9742 38L19.0084 37.9402C24.7005 35.0664 29.6795 30.523 33.1383 24.532C36.6014 18.5324 38.0489 11.9308 37.6817 5.55546C32.3398 2.0454 25.9046 0 18.9742 0Z" fill="#A7A7A7"/>
<path fill-rule="evenodd" clip-rule="evenodd" d="M24.8798 13.7798C25.452 14.4203 25.452 15.4579 24.8798 16.0942L20.4858 20.9664C18.9784 22.794 18.0305 22.794 16.4633 20.9664L13.7134 17.9133C13.1369 17.2727 13.1369 16.2394 13.7134 15.5988C14.2856 14.9583 15.2207 14.9583 15.7929 15.5988L18.4788 18.5751L22.8045 13.7755C23.381 13.135 24.3119 13.1392 24.8841 13.7755L24.8798 13.7798Z" fill="white"/>
</g>
<defs>
<clipPath id="clip0_2924_9819">
<rect width="38" height="38" fill="white"/>
</clipPath>
</defs>
</svg>
