<svg width="38" height="38" viewBox="0 0 38 38" fill="none" xmlns="http://www.w3.org/2000/svg">
<g clip-path="url(#clip0_2924_9803)">
<path fill-rule="evenodd" clip-rule="evenodd" d="M18.9741 0C12.0436 0 5.60854 2.0454 0.266586 5.55546C-0.100646 11.935 1.34693 18.5324 4.81002 24.532C8.26884 30.5187 13.2478 35.0664 18.9399 37.9402L18.9741 38L19.0082 37.9402C24.7003 35.0664 29.6793 30.523 33.1381 24.532C36.6012 18.5324 38.0488 11.9308 37.6816 5.55546C32.3396 2.0454 25.9045 0 18.9741 0Z" fill="#E3A700"/>
<path fill-rule="evenodd" clip-rule="evenodd" d="M24.8797 13.7798C25.4519 14.4203 25.4519 15.4579 24.8797 16.0942L20.4857 20.9664C18.9783 22.794 18.0304 22.794 16.4632 20.9664L13.7132 17.9133C13.1368 17.2727 13.1368 16.2394 13.7132 15.5988C14.2854 14.9583 15.2206 14.9583 15.7928 15.5988L18.4787 18.5751L22.8044 13.7755C23.3808 13.135 24.3117 13.1392 24.8839 13.7755L24.8797 13.7798Z" fill="white"/>
</g>
<defs>
<clipPath id="clip0_2924_9803">
<rect width="38" height="38" fill="white"/>
</clipPath>
</defs>
</svg>
