<?xml version="1.0" encoding="UTF-8"?>
<svg width="17px" height="19px" viewBox="0 0 17 19" version="1.1" xmlns="http://www.w3.org/2000/svg" xmlns:xlink="http://www.w3.org/1999/xlink">
    <!-- Generator: Sketch 51.2 (57519) - http://www.bohemiancoding.com/sketch -->
    <title>Group 21</title>
    <desc>Created with Sketch.</desc>
    <defs></defs>
    <g id="Page-1" stroke="none" stroke-width="1" fill="none" fill-rule="evenodd">
        <g id="Artboard-Copy-3" transform="translate(-254.000000, -603.000000)" fill="#888888">
            <g id="Group-4" transform="translate(20.000000, 594.000000)">
                <g id="Group-21" transform="translate(234.000000, 9.000000)">
                    <path d="M3.87322191,6.17420228 C3.65755217,6.17420228 3.48273108,6.34526654 3.48273108,6.55630163 L3.48273108,14.5119443 C3.48273108,14.7229793 3.65755217,14.8940436 3.87322191,14.8940436 L5.6016793,14.8940436 L5.6016793,17.5751218 C5.6016793,18.1971819 6.11702913,18.7015023 6.75279687,18.7015023 C7.38851834,18.7015023 7.90391443,18.1972271 7.90391443,17.5751218 L7.90391443,14.8940436 L9.51394314,14.8940436 L9.51394314,17.5751218 C9.51394314,18.1971819 10.029293,18.7015023 10.6650607,18.7015023 C11.3007822,18.7015023 11.8161783,18.1972271 11.8161783,17.5751218 L11.8161783,14.8940436 L13.5686452,14.8940436 C13.784315,14.8940436 13.9591361,14.7229793 13.9591361,14.5119443 L13.9591361,6.55630163 C13.9590898,6.34526654 13.7842687,6.17420228 13.568599,6.17420228 L3.87322191,6.17420228 Z" id="Shape"></path>
                    <path d="M1.841291,6.17234633 L1.841291,6.17234633 C1.20556953,6.17234633 0.690173443,6.67662151 0.690173443,7.29872688 L0.690173443,11.8736435 C0.690173443,12.4957036 1.20552327,13.0000241 1.841291,13.0000241 L1.841291,13.0000241 C2.47701248,13.0000241 2.99240857,12.4957489 2.99240857,11.8736435 L2.99240857,7.29872688 C2.9923623,6.67666678 2.47701248,6.17234633 1.841291,6.17234633 L1.841291,6.17234633 Z" id="Shape"></path>
                    <path d="M15.6005299,6.17234633 L15.6005299,6.17234633 C14.9648084,6.17234633 14.4494123,6.67662151 14.4494123,7.29872688 L14.4494123,11.8736435 C14.4494123,12.4957036 14.9647621,13.0000241 15.6005299,13.0000241 L15.6005299,13.0000241 C16.2362513,13.0000241 16.7516474,12.4957489 16.7516474,11.8736435 L16.7516474,7.29872688 C16.7516474,6.67666678 16.2362976,6.17234633 15.6005299,6.17234633 L15.6005299,6.17234633 Z" id="Shape"></path>
                    <path d="M3.95168091,5.61624035 L13.4672407,5.61624035 C13.7154783,5.61624035 13.9006156,5.39248521 13.8496358,5.15474255 C13.5348745,3.68682194 12.5797657,2.4497634 11.2837581,1.73513213 L12.0972151,0.298943743 C12.1522659,0.201710073 12.1163672,0.0791721088 12.0169982,0.0253042932 C11.9173978,-0.0286993236 11.7923537,0.00656372543 11.7373029,0.103797396 L10.9176931,1.55080462 C10.2463968,1.24597616 9.49826059,1.0757267 8.70946079,1.0757267 C7.92061472,1.0757267 7.17247852,1.24597616 6.50118217,1.55080462 L5.68157241,0.103752129 C5.62647531,0.00647319129 5.50124623,-0.0286087895 5.40192342,0.0252590261 C5.30255435,0.0791268418 5.26665566,0.201664806 5.32170649,0.298898476 L6.13516352,1.73508687 C4.83915586,2.4497634 3.88404703,3.68677667 3.56928579,5.15474255 C3.51825968,5.39248521 3.70339702,5.61624035 3.95168091,5.61624035 L3.95168091,5.61624035 Z M11.5487885,3.47587739 C11.5487885,3.71497806 11.350698,3.90885693 11.1063001,3.90885693 C10.8619484,3.90885693 10.6638117,3.71502333 10.6638117,3.47587739 C10.6638117,3.23677671 10.8619021,3.04289784 11.1063001,3.04289784 C11.350698,3.04289784 11.5487885,3.23677671 11.5487885,3.47587739 L11.5487885,3.47587739 Z M6.31252898,3.04289784 C6.55688066,3.04289784 6.7550174,3.23673145 6.7550174,3.47587739 C6.7550174,3.71497806 6.55692692,3.90885693 6.31252898,3.90885693 C6.0681773,3.90885693 5.87004055,3.71502333 5.87004055,3.47587739 C5.87004055,3.23677671 6.06813103,3.04289784 6.31252898,3.04289784 L6.31252898,3.04289784 Z" id="Shape"></path>
                </g>
            </g>
        </g>
    </g>
</svg>