<?xml version="1.0" encoding="UTF-8"?>
<svg width="14px" height="16px" viewBox="0 0 14 16" version="1.1" xmlns="http://www.w3.org/2000/svg" xmlns:xlink="http://www.w3.org/1999/xlink">
    <!-- Generator: Sketch 51.1 (57501) - http://www.bohemiancoding.com/sketch -->
    <title>Shape</title>
    <desc>Created with Sketch.</desc>
    <defs></defs>
    <g id="Page-1" stroke="none" stroke-width="1" fill="none" fill-rule="evenodd">
        <g id="android" fill="#DEDEDE" fill-rule="nonzero">
            <path d="M11.2,5.2 L2.8,5.2 C2.6,5.2 2.5,5.3 2.5,5.5 L2.5,12.2 C2.5,12.4 2.7,12.5 2.8,12.5 L4.3,12.5 L4.3,14.8 C4.3,15.3 4.7,15.7 5.3,15.7 C5.9,15.7 6.3,15.3 6.3,14.8 L6.3,12.5 L7.7,12.5 L7.7,14.8 C7.7,15.3 8.1,15.7 8.7,15.7 C9.3,15.7 9.7,15.3 9.7,14.8 L9.7,12.5 L11.2,12.5 C11.4,12.5 11.5,12.4 11.5,12.2 L11.5,5.5 C11.6,5.3 11.4,5.2 11.2,5.2 Z M1,5.2 C0.4,5.2 0,5.6 0,6.1 L0,10 C0,10.5 0.4,10.9 1,10.9 C1.6,10.9 2,10.5 2,10 L2,6.1 C2,5.6 1.6,5.2 1,5.2 Z M13,5.2 C12.4,5.2 12,5.6 12,6.1 L12,10 C12,10.5 12.4,10.9 13,10.9 C13.6,10.9 14,10.5 14,10 L14,6.1 C14,5.6 13.5,5.2 13,5.2 Z M2.9,4.7 L11.2,4.7 C11.4,4.7 11.6,4.5 11.5,4.3 C11.2,3.1 10.4,2 9.3,1.4 L10,0.3 C10,0.2 10,0.1 9.9,0.1 C9.8,-2.77555756e-17 9.7,-2.77555756e-17 9.6,0.1 L8.9,1.3 C8.3,1 7.7,0.9 7,0.9 C6.3,0.9 5.7,1 5.1,1.3 L4.4,0.1 C4.3,0 4.2,0 4.1,0 C4,0.1 4,0.2 4.1,0.3 L4.8,1.5 C3.7,2.1 2.8,3.1 2.6,4.4 C2.5,4.5 2.7,4.7 2.9,4.7 Z M9.1,2.6 C9.3,2.6 9.5,2.8 9.5,3 C9.5,3.2 9.3,3.3 9.1,3.3 C8.9,3.3 8.7,3.1 8.7,2.9 C8.7,2.7 8.9,2.6 9.1,2.6 Z M4.9,2.6 C5.1,2.6 5.3,2.8 5.3,3 C5.3,3.2 5.1,3.4 4.9,3.4 C4.7,3.4 4.5,3.2 4.5,3 C4.5,2.8 4.7,2.6 4.9,2.6 Z" id="Shape"></path>
        </g>
    </g>
</svg>