<?xml version="1.0" encoding="UTF-8"?>
<svg width="418px" height="512px" viewBox="0 0 418 512" version="1.1" xmlns="http://www.w3.org/2000/svg" xmlns:xlink="http://www.w3.org/1999/xlink">
    <!-- Generator: Sketch 51.1 (57501) - http://www.bohemiancoding.com/sketch -->
    <title>Shape</title>
    <desc>Created with Sketch.</desc>
    <defs></defs>
    <g id="Page-1" stroke="none" stroke-width="1" fill="none" fill-rule="evenodd">
        <g id="apple" fill="#888888" fill-rule="nonzero">
            <path d="M348.748,272.046 C348.102,207.205 401.628,176.108 404.019,174.563 C373.944,130.553 327.094,124.524 310.399,123.827 C270.528,119.79 232.601,147.301 212.366,147.301 C192.182,147.301 160.957,124.424 127.89,125.025 C84.432,125.671 44.361,150.294 21.984,189.215 C-23.168,267.565 10.421,383.635 54.429,447.178 C75.933,478.282 101.575,513.216 135.242,511.968 C167.663,510.674 179.923,490.989 219.12,490.989 C258.316,490.989 269.335,511.968 303.644,511.324 C338.532,510.676 360.635,479.625 381.991,448.426 C406.685,412.342 416.853,377.407 417.453,375.614 C416.678,375.26 349.422,349.495 348.748,272.046 Z M284.28,81.761 C302.149,60.082 314.21,30.005 310.92,0 C285.181,1.048 253.982,17.145 235.515,38.775 C218.945,57.963 204.44,88.588 208.327,117.993 C237.061,120.235 266.392,103.391 284.28,81.761 Z" id="Shape"></path>
        </g>
    </g>
</svg>