<?xml version="1.0" encoding="UTF-8"?>
<svg width="32px" height="42px" viewBox="0 0 32 42" version="1.1" xmlns="http://www.w3.org/2000/svg" xmlns:xlink="http://www.w3.org/1999/xlink">
    <!-- Generator: Sketch 44.1 (41455) - http://www.bohemiancoding.com/sketch -->
    <title>user (3)</title>
    <desc>Created with Sketch.</desc>
    <defs></defs>
    <g id="0" stroke="none" stroke-width="1" fill="none" fill-rule="evenodd" opacity="0.134001359">
        <g id="Artboard-Copy-4" transform="translate(-466.000000, -304.000000)" fill-rule="nonzero" fill="#000000">
            <g id="Group-3" transform="translate(439.000000, 197.000000)">
                <g id="user-(3)" transform="translate(27.000000, 107.000000)">
                    <path d="M25.7189744,27.219193 C25.6855795,27.2155906 20.8497231,27.3579649 20.1307077,22.1871345 C20.929641,21.6309006 21.6659692,20.9087953 22.3146667,20.0326082 C23.5766154,18.3280468 24.3897436,16.189731 24.6793846,13.8767836 C24.7789128,13.7869708 24.8612923,13.6752164 24.916759,13.5434854 C25.4408205,12.2978129 25.7065846,10.967731 25.7065846,9.59 C25.7065846,4.30209357 21.7089641,0 16.7949128,0 C15.5097436,0 14.2628923,0.295391813 13.0852923,0.878725146 C12.6360615,0.912947368 12.1958564,0.991789474 11.7737026,1.11345029 C9.75548718,1.69530994 8.11314872,3.18839766 7.14912821,5.31787135 C6.21325128,7.38545029 6.0288,9.81940351 6.62990769,12.1714854 C6.75692308,12.6683626 6.9184,13.1566433 7.10990769,13.6231462 C7.1617641,13.7493099 7.23905641,13.8569708 7.33185641,13.9455556 C7.80102564,17.5556725 9.52254359,20.5468421 11.8698667,22.1799298 C11.1486359,27.3595205 6.31450256,27.2157544 6.28118974,27.2193567 C2.80369231,27.3370877 0.0104205128,30.1946433 0.0104205128,33.6926784 L0.0104205128,40.9743977 C0.0104205128,41.4956725 0.433887179,41.9182105 0.956307692,41.9182105 L9.26244103,41.9182105 L22.7374769,41.9182105 L31.0437744,41.9182105 C31.5661128,41.9182105 31.9897436,41.4956725 31.9897436,40.9743977 L31.9897436,33.6926784 C31.9896615,30.1944795 29.1966359,27.3368421 25.7189744,27.219193 Z M12.2989128,2.92698246 C12.6441026,2.8274269 13.0086564,2.76839766 13.3824821,2.75161404 C13.5212308,2.74539181 13.6568615,2.70879532 13.7798564,2.6442807 C14.7374769,2.14224561 15.751959,1.8877076 16.7949949,1.8877076 C20.6656821,1.8877076 23.8148103,5.34292398 23.8148103,9.59 C23.8148103,9.71747368 23.8112,9.8442924 23.8056205,9.97061988 C23.0548513,9.20987135 22.0117333,8.73706433 20.8598154,8.73706433 L14.4129641,8.73706433 C14.0293744,8.73706433 13.6653128,8.61687719 13.36,8.3894386 C13.0993231,8.19532164 12.8978051,7.93439766 12.7774359,7.63491228 C12.5910154,7.17168421 12.1313641,6.88194152 11.6310154,6.91329825 C11.1288615,6.94522807 10.7062974,7.29318129 10.5794462,7.7794152 C10.2058667,9.21183626 9.46092308,10.5312749 8.43889231,11.6012515 C7.48791795,7.69607018 9.20418462,3.8191345 12.2989128,2.92698246 Z M11.4759385,19.2512281 C10.2450872,17.7508538 9.43901538,15.7247836 9.18350769,13.5066433 C10.3771077,12.4451813 11.3206974,11.124269 11.9350154,9.65909942 C12.0282256,9.74490058 12.1261128,9.82603509 12.2283487,9.90225731 C12.8630974,10.3749006 13.6184615,10.6248538 14.4130462,10.6248538 L20.8598974,10.6248538 C21.7720615,10.6248538 22.5582769,11.1707719 22.9091282,11.9520702 C22.9090462,11.9587836 22.9080615,11.9651696 22.9080615,11.971883 C22.9080615,17.2999064 19.8098051,21.6345848 16.0014769,21.6345848 C14.344041,21.6346667 12.7367385,20.7881988 11.4759385,19.2512281 Z M13.6493949,23.1067953 C14.3992615,23.3775439 15.1880205,23.5223743 16.0014769,23.5223743 C16.8084513,23.5223743 17.5968821,23.3822105 18.3516718,23.1117895 C18.6980103,24.9122222 19.7012513,26.4814503 21.1026051,27.5617427 L16.1356308,34.6197076 C16.1032205,34.6658012 16.0581744,34.6891345 16.0017231,34.6891345 C15.9453538,34.6891345 15.9003077,34.6657193 15.8679795,34.6197895 L10.8997744,27.5601871 C12.3012103,26.4786667 13.3041231,24.9082924 13.6493949,23.1067953 Z M30.0978051,40.0304211 L22.7374769,40.0304211 L9.26244103,40.0304211 L1.90219487,40.0304211 L1.90219487,33.6925146 C1.90219487,31.1608889 3.96635897,29.1012515 6.50354872,29.1012515 C6.53801026,29.1012515 8.06014359,29.0643275 9.26285128,28.5189825 L14.3195897,35.7045029 C14.7039179,36.2507485 15.332759,36.5768421 16.001641,36.5768421 L16.0017231,36.5768421 C16.6705231,36.5768421 17.2994462,36.2507485 17.6837744,35.7045029 L22.7396103,28.5201287 C24.1112615,29.1013333 25.4620718,29.1013333 25.4965333,29.1013333 C28.0337231,29.1013333 30.0978051,31.1609708 30.0978051,33.6925965 L30.0978051,40.0304211 Z" id="Shape"></path>
                </g>
            </g>
        </g>
    </g>
</svg>