<svg width="320" height="75" xmlns="http://www.w3.org/2000/svg"><defs><linearGradient x1="50%" y1="0%" x2="50%" y2="100%" id="a"><stop stop-color="#F70EF3" offset="0%"/><stop stop-color="#EC0606" offset="100%"/></linearGradient><linearGradient x1="50%" y1="0%" x2="50%" y2="100%" id="b"><stop stop-color="#00D2FF" offset="0%"/><stop stop-color="#00FE7F" offset="100%"/></linearGradient></defs><g fill="none" fill-rule="evenodd"><path fill="#131415" d="M0 5h320v70H0z"/><path fill="#FFF" d="M8 31h6v44H8z"/><path fill="#F614F1" d="M8 0h6v18H8zM317 42h3v18h-3z"/><path fill="#13FD82" d="M97 4h22v2H97z"/><path fill="#F714E9" d="M131 10h22v2h-22zM238 68h5v7h-5z"/><path fill="#13FC85" d="M247 73h5v2h-5z"/><g><path fill="#FEFB89" d="M129 23.054h157v33.892H129z"/><path fill="url(#a)" style="mix-blend-mode:lighten" d="M0 0h157v33.892H0z" transform="translate(128 21)"/><path fill="url(#b)" style="mix-blend-mode:lighten" d="M3 4.108h157V38H3z" transform="translate(128 21)"/><path fill="#FEFB89" d="M131.294 24.915l151.775-2.433.563 29.65-151.774 2.434z"/></g></g></svg>