<?xml version="1.0" encoding="UTF-8"?>
<svg width="318px" height="314px" viewBox="0 0 318 314" version="1.1" xmlns="http://www.w3.org/2000/svg" xmlns:xlink="http://www.w3.org/1999/xlink">
    <!-- Generator: Sketch 51.1 (57501) - http://www.bohemiancoding.com/sketch -->
    <title>Group</title>
    <desc>Created with Sketch.</desc>
    <defs></defs>
    <g id="Page-1" stroke="none" stroke-width="1" fill="none" fill-rule="evenodd">
        <g id="Group" fill="#FFFFFF" fill-rule="nonzero">
            <path d="M316.074834,282.881143 L276.963382,242.754645 L304.86629,226.21891 C307.046722,224.926303 308.315939,222.470756 308.13396,219.894367 C307.953305,217.317299 306.353881,215.073566 304.014632,214.11701 L179.586427,163.196833 C177.146594,162.197506 174.361994,162.786104 172.504491,164.691071 C170.646988,166.597395 170.07326,169.454166 171.046679,171.956556 L220.673172,299.623938 C221.606225,302.023137 223.793274,303.664694 226.305237,303.85071 C228.8172,304.038084 231.210712,302.735293 232.470002,300.49767 L248.585345,271.871576 L287.695473,311.998753 C288.927632,313.264205 290.599848,313.974324 292.34287,313.974324 C294.085892,313.974324 295.757446,313.264205 296.989605,311.998753 L316.074834,292.416838 C318.641722,289.783422 318.641722,285.514558 316.074834,282.881143 Z M292.34287,297.696568 L251.825221,256.124713 C250.583798,254.851114 248.908935,254.149142 247.177825,254.149142 C246.893277,254.149142 246.606082,254.168151 246.320872,254.206847 C244.293964,254.479761 242.507267,255.70448 241.486203,257.520512 L227.864957,281.717524 L188.922248,181.537737 L286.561252,221.495191 L262.973547,235.472187 C261.204055,236.519715 260.010277,238.352719 259.744258,240.432161 C259.477577,242.509565 260.167771,244.596474 261.613011,246.079171 L302.132644,287.651027 L292.34287,297.696568 Z" id="Shape"></path>
            <path d="M299.300876,127.733074 C292.5,127.733074 292.334946,132.33573 292.334946,141.464278 L292.334946,266.832161 C292.334946,280.761127 281.288674,292.093695 267.710819,292.093695 L43.6766019,292.093695 C30.0995259,292.093695 16.7453894,280.761127 16.7453894,266.832161 L16.7453894,36.9914409 C16.7453894,23.0624752 30.0995259,11.7299071 43.6766019,11.7299071 L165.877297,11.7299071 C174.774449,11.7299071 177.570106,10.7601666 177.570106,4.45174878 C177.570106,-1.85666905 174.774449,-2.5 165.877297,-2.5 L43.6766019,-2.5 C27.7095372,-2.5 21.4570714,1.36561853 15.1106058,7.48452107 C8.99896341,13.3770205 2.5,21.2166463 2.5,36.9914409 L2.5,266.832161 C2.5,283.614228 8.09430787,292.087957 15.1106058,297.880481 C21.538392,303.18714 28.6909566,306.5 43.6766019,306.5 L267.710819,306.5 C280.963724,306.5 284.921279,304.894944 290.87267,300.914095 C298.996767,295.479937 306.49955,285.39226 306.5,266.832161 L306.5,141.464278 C306.5,132.33573 306.101752,127.733074 299.300876,127.733074 Z" id="Shape" transform="translate(154.500000, 152.000000) rotate(90.000000) translate(-154.500000, -152.000000) "></path>
        </g>
    </g>
</svg>