<?xml version="1.0" encoding="UTF-8"?>
<svg width="17px" height="17px" viewBox="0 0 17 17" version="1.1" xmlns="http://www.w3.org/2000/svg" xmlns:xlink="http://www.w3.org/1999/xlink">
    <!-- Generator: Sketch 51.2 (57519) - http://www.bohemiancoding.com/sketch -->
    <title>Group</title>
    <desc>Created with Sketch.</desc>
    <defs></defs>
    <g id="Правка-основного-окна" stroke="none" stroke-width="1" fill="none" fill-rule="evenodd">
        <g id="Основное-окно" transform="translate(-1143.000000, -1214.000000)" fill="#DF3812" fill-rule="nonzero">
            <g id="Group" transform="translate(1143.000000, 1214.000000)">
                <path d="M14,7.18625217 L14,1.44458457 C14,0.648704993 13.3760835,0 12.6064434,0 L1.39355659,0 C0.628748666,0 0,0.645111929 0,1.44089782 L0,11.5591022 C0,12.355328 0.627888538,13 1.4024283,13 L7.03554687,13 L7.03554687,12.1 L1.4024283,12.1 C1.13028538,12.1 0.9,11.8634476 0.9,11.5591022 L0.9,1.44089782 C0.9,1.13775033 1.13048969,0.9 1.39355659,0.9 L12.6064434,0.9 C12.8708002,0.9 13.1,1.13781314 13.1,1.44458457 L13.1,7.18625217 L14,7.18625217 Z M14,1.44458457 C14,0.648704993 13.3760835,0 12.6064434,0 L1.39355659,0 C0.628748666,0 0,0.645111929 0,1.44089782 L0,11.5591022 C0,12.355328 0.627888538,13 1.4024283,13 L7.03554687,13 L7.03554687,12.1 L1.4024283,12.1 C1.13028538,12.1 0.9,11.8634476 0.9,11.5591022 L0.9,1.44089782 C0.9,1.13775033 1.13048969,0.9 1.39355659,0.9 L12.6064434,0.9 C12.8708002,0.9 13.1,1.13781314 13.1,1.44458457 L13.1,7.18625217 L14,7.18625217 L14,1.44458457 Z" id="Rectangle-5"></path>
                <path d="M9.55,16.2897764 L9.55,6.99161702 L16.1804523,12.9410955 L13.4724512,12.9305155 L14.606356,15.530787 L12.4338646,16.6141114 L11.308134,14.0325191 L9.55,16.2897764 Z M10.45,9.00838298 L10.45,13.6696251 L11.5281356,12.2854135 L12.8801305,15.3858886 L13.4396527,15.1068799 L12.0957888,12.0251301 L13.8195477,12.0318647 L10.45,9.00838298 Z" id="Shape"></path>
            </g>
        </g>
    </g>
</svg>