<?xml version="1.0" encoding="UTF-8"?>
<svg width="325px" height="35px" viewBox="0 0 325 35" version="1.1" xmlns="http://www.w3.org/2000/svg" xmlns:xlink="http://www.w3.org/1999/xlink">
    <!-- Generator: Sketch 44.1 (41455) - http://www.bohemiancoding.com/sketch -->
    <title>Group 12</title>
    <desc>Created with Sketch.</desc>
    <defs></defs>
    <g id="filters" stroke="none" stroke-width="1" fill="none" fill-rule="evenodd">
        <g id="Artboard" transform="translate(-37.000000, -33.000000)">
            <g id="Group-12" transform="translate(37.000000, 33.000000)">
                <g id="Group-11" transform="translate(0.500000, 0.000000)">
                    <g id="Group-5">
                        <g id="Group-2">
                            <path d="M17.1543031,0 C11.792395,0 5.3245933,1.25180851 5.26069203e-06,4.00712766 C5.26069203e-06,9.95787234 -0.0734924858,24.7829787 17.1543031,34.9125 C34.3824796,24.7829787 34.3093626,9.95787234 34.3093626,4.00712766 C28.9843938,1.25180851 22.5165921,0 17.1543031,0 L17.1543031,0 Z" id="Path" fill="#EEEEEE"></path>
                            <path d="M16.5285819,23.2947567 L26.9020736,9.41442168 C26.1419252,8.80953174 25.4751665,9.23645056 25.1081234,9.56696836 L25.0947303,9.56802771 L16.4453276,18.5008362 L13.1864628,14.6073648 C11.6317784,12.8241224 9.51820388,14.1843302 9.0244694,14.5438037 L16.5285819,23.2947567" id="Fill-11" fill="#FFFFFF"></path>
                        </g>
                    </g>
                </g>
                <g id="Group-7" transform="translate(230.500000, 0.000000)">
                    <path d="M17.1543031,0 C11.792395,0 5.3245933,1.25180851 5.26069203e-06,4.00712766 C5.26069203e-06,9.95787234 -0.0734924858,24.7829787 17.1543031,34.9125 C34.3824796,24.7829787 34.3093626,9.95787234 34.3093626,4.00712766 C28.9843938,1.25180851 22.5165921,0 17.1543031,0 L17.1543031,0 Z" id="Path" fill="#EEEEEE"></path>
                    <path d="M34.1418157,9 C33.5253379,16.1748203 30.6414931,26.9825384 17.1543031,34.9125 C3.66741131,26.9825384 0.783864592,16.1748203 0.167502217,9 L34.1418157,9 Z" id="Combined-Shape" fill="#68BC71"></path>
                    <path d="M16.5285819,23.2947567 L26.9020736,9.41442168 C26.1419252,8.80953174 25.4751665,9.23645056 25.1081234,9.56696836 L25.0947303,9.56802771 L16.4453276,18.5008362 L13.1864628,14.6073648 C11.6317784,12.8241224 9.51820388,14.1843302 9.0244694,14.5438037 L16.5285819,23.2947567" id="Fill-11" fill="#FFFFFF"></path>
                </g>
                <g id="Group-8" transform="translate(172.500000, 0.000000)">
                    <g id="Group-6">
                        <path d="M17.1543031,0 C11.792395,0 5.3245933,1.25180851 5.26069203e-06,4.00712766 C5.26069203e-06,9.95787234 -0.0734924858,24.7829787 17.1543031,34.9125 C34.3824796,24.7829787 34.3093626,9.95787234 34.3093626,4.00712766 C28.9843938,1.25180851 22.5165921,0 17.1543031,0 L17.1543031,0 Z" id="Path" fill="#EEEEEE"></path>
                        <path d="M32.5101975,17 C30.4941275,22.9530017 26.2191176,29.5827293 17.1543031,34.9125 C8.08968906,29.5827293 3.81487947,22.9530017 1.79895437,17 L32.5101975,17 Z" id="Combined-Shape" fill="#68BC71"></path>
                        <path d="M16.5285819,23.2947567 L26.9020736,9.41442168 C26.1419252,8.80953174 25.4751665,9.23645056 25.1081234,9.56696836 L25.0947303,9.56802771 L16.4453276,18.5008362 L13.1864628,14.6073648 C11.6317784,12.8241224 9.51820388,14.1843302 9.0244694,14.5438037 L16.5285819,23.2947567" id="Fill-11" fill="#FFFFFF"></path>
                    </g>
                </g>
                <g id="Group-10" transform="translate(56.500000, 0.000000)">
                    <g id="Group-4">
                        <path d="M17.1543031,0 C11.792395,0 5.3245933,1.25180851 5.26069203e-06,4.00712766 C5.26069203e-06,9.95787234 -0.0734924858,24.7829787 17.1543031,34.9125 C34.3824796,24.7829787 34.3093626,9.95787234 34.3093626,4.00712766 C28.9843938,1.25180851 22.5165921,0 17.1543031,0 L17.1543031,0 Z" id="Path" fill="#EEEEEE"></path>
                        <path d="M24.9433138,29 C22.8497815,31.07176 20.288308,33.0698228 17.1543031,34.9125 C14.0203676,33.0698228 11.4589633,31.07176 9.36549796,29 L24.9433138,29 Z" id="Combined-Shape" fill="#68BC71"></path>
                        <path d="M16.5285819,23.2947567 L26.9020736,9.41442168 C26.1419252,8.80953174 25.4751665,9.23645056 25.1081234,9.56696836 L25.0947303,9.56802771 L16.4453276,18.5008362 L13.1864628,14.6073648 C11.6317784,12.8241224 9.51820388,14.1843302 9.0244694,14.5438037 L16.5285819,23.2947567" id="Fill-11" fill="#FFFFFF"></path>
                    </g>
                </g>
                <g id="Group-9" transform="translate(112.500000, 0.000000)">
                    <path d="M17.1543031,0 C11.792395,0 5.3245933,1.25180851 5.26069203e-06,4.00712766 C5.26069203e-06,9.95787234 -0.0734924858,24.7829787 17.1543031,34.9125 C34.3824796,24.7829787 34.3093626,9.95787234 34.3093626,4.00712766 C28.9843938,1.25180851 22.5165921,0 17.1543031,0 L17.1543031,0 Z" id="Path" fill="#EEEEEE"></path>
                    <path d="M29.7119096,23 C27.1784575,27.1579577 23.2489933,31.3290509 17.1543031,34.9125 C11.0597477,31.3290509 7.13041818,27.1579577 4.59708393,23 L29.7119096,23 Z" id="Combined-Shape" fill="#68BC71"></path>
                    <path d="M16.5285819,23.2947567 L26.9020736,9.41442168 C26.1419252,8.80953174 25.4751665,9.23645056 25.1081234,9.56696836 L25.0947303,9.56802771 L16.4453276,18.5008362 L13.1864628,14.6073648 C11.6317784,12.8241224 9.51820388,14.1843302 9.0244694,14.5438037 L16.5285819,23.2947567" id="Fill-11" fill="#FFFFFF"></path>
                </g>
                <g id="Group-3" transform="translate(290.500000, 0.000000)">
                    <g id="Group">
                        <path d="M17.1543031,0 C11.792395,0 5.3245933,1.25180851 5.26069203e-06,4.00712766 C5.26069203e-06,9.95787234 -0.0734924858,24.7829787 17.1543031,34.9125 C34.3824796,24.7829787 34.3093626,9.95787234 34.3093626,4.00712766 C28.9843938,1.25180851 22.5165921,0 17.1543031,0 L17.1543031,0 Z" id="Path" fill="#68BC71"></path>
                        <path d="M16.5285819,23.2947567 L26.9020736,9.41442168 C26.1419252,8.80953174 25.4751665,9.23645056 25.1081234,9.56696836 L25.0947303,9.56802771 L16.4453276,18.5008362 L13.1864628,14.6073648 C11.6317784,12.8241224 9.51820388,14.1843302 9.0244694,14.5438037 L16.5285819,23.2947567" id="Fill-11" fill="#FFFFFF"></path>
                    </g>
                </g>
            </g>
        </g>
    </g>
</svg>