<?xml version="1.0" encoding="UTF-8"?>
<svg width="320px" height="130px" viewBox="0 0 320 130" version="1.1" xmlns="http://www.w3.org/2000/svg" xmlns:xlink="http://www.w3.org/1999/xlink">
    <title>Group 3</title>
    <defs>
        <linearGradient x1="77.0410156%" y1="100%" x2="77.0410156%" y2="-47.7423555%" id="linearGradient-1">
            <stop stop-color="#1F1730" offset="0%"></stop>
            <stop stop-color="#1F1730" offset="100%"></stop>
        </linearGradient>
        <linearGradient x1="50%" y1="100%" x2="50%" y2="-6.02123119%" id="linearGradient-2">
            <stop stop-color="#1F1730" offset="0%"></stop>
            <stop stop-color="#D5CFE2" offset="68.3675699%"></stop>
            <stop stop-color="#FFFFFF" offset="100%"></stop>
        </linearGradient>
    </defs>
    <g id="Halloween-2020" stroke="none" stroke-width="1" fill="none" fill-rule="evenodd">
        <g id="Artboard-Copy" transform="translate(0.000000, -8.000000)">
            <g id="Group-3" transform="translate(0.000000, 8.000000)">
                <rect id="Mask" fill="url(#linearGradient-1)" x="0" y="31" width="320" height="99"></rect>
                <g id="Group-2" transform="translate(183.000000, 0.000000)">
                    <path d="M137.000349,110.721704 L137.000001,113.270044 C136.470983,113.182518 136.039254,113.015732 135.862534,112.719169 C135.464041,112.050438 136.069398,111.389198 137.000349,110.721704 Z M137.00062,44.9165207 L136.999875,106.755521 L134.631707,107.378518 C132.703711,107.873128 130.729731,108.304239 129.064903,108.275757 L128.686361,108.260846 C127.713279,108.199675 126.925869,107.831253 127.006597,107.212521 C127.084261,106.617267 127.915749,105.956436 128.796457,105.419022 L128.796457,105.419022 L129.793335,104.817574 L130.497854,104.373062 L130.856698,104.134418 L131.205541,103.890624 L131.533593,103.646011 L131.735413,103.484619 L131.919999,103.326072 L132.084153,103.171652 C132.670161,102.589261 132.735328,102.126133 131.469134,102.107562 C130.774527,102.134918 130.022982,102.282873 129.298568,102.534878 L129.298568,102.534878 L129.183558,102.570947 L128.780177,102.709965 L128.297151,102.889908 L125.042149,104.165407 L124.042365,104.541107 L123.285023,104.81331 L122.532512,105.06975 L122.038528,105.228593 L121.5542,105.375391 L121.082532,105.508129 C121.005142,105.528968 120.928405,105.549137 120.852384,105.568595 L120.852384,105.568595 L120.405337,105.676463 C118.655485,106.07108 117.389683,106.007313 117.472966,104.904675 C117.528381,104.170985 118.611907,103.333861 119.776554,102.705578 C120.941282,102.077262 122.253851,101.560139 123.352481,100.89018 C123.91789,100.545386 124.453776,100.113449 124.462289,99.7402709 C124.468219,99.4803659 123.889615,99.425797 123.08981,99.4694133 L123.08981,99.4694133 L122.673156,99.4989075 L122.229727,99.5417895 L121.53646,99.6247037 L120.839721,99.7209981 L119.069297,99.9897087 L118.699294,100.03907 L118.611353,100.047832 C116.43885,100.220364 114.357163,100.221294 112.417903,100.050597 C108.537157,99.7315505 105.167419,98.857433 102.153725,97.7732491 C101.869867,97.67113 101.586919,97.5658114 101.304257,97.4581669 L101.304257,97.4581669 L100.456508,97.1291297 L98.3200676,96.27989 C95.5811649,95.2042892 92.6708665,94.1947976 89.0537698,94.0005998 C87.5208143,93.9183007 85.712838,94.106896 84.0211025,94.7287066 C82.4882125,95.292133 81.1980304,96.1510232 80.076791,97.0158247 C79.5632939,97.4118804 79.0682193,97.8187381 78.5780361,98.2294107 L78.5780361,98.2294107 L77.47767,99.156914 L76.7363503,99.7736689 C75.23906,101.001547 73.6335684,102.185156 71.5545366,103.135849 C67.9572795,104.780792 63.7785017,105.468573 60.2255674,105.598644 C59.4972408,105.625309 58.9598069,105.163383 59.3563424,104.708626 C59.752878,104.253868 60.5598377,103.904121 61.3185312,103.634527 L61.3185312,103.634527 L63.574092,102.844001 L64.2011665,102.61432 C64.3045364,102.575557 64.4072795,102.536514 64.5093127,102.497135 L64.5093127,102.497135 L65.1123268,102.256368 C66.8918178,101.519222 68.3873754,100.636171 69.1137955,99.2750874 C69.7517992,98.0796998 69.5817711,96.9866431 69.3299328,95.9550411 L69.3299328,95.9550411 L69.2196181,95.5125527 L69.1132445,95.0677473 C68.9464969,94.3231654 68.8506016,93.5591133 69.0977152,92.7265117 C69.7727063,90.4522655 73.0063467,87.9906724 76.7239898,86.3555907 C80.3722968,84.7510035 83.8630253,84.1993813 87.3571988,83.8345969 L87.3571988,83.8345969 L88.5222718,83.7187339 L90.8584845,83.500013 L92.0322748,83.3828978 C92.8165066,83.3007215 93.6044426,83.2087621 94.3978499,83.0975148 C100.874039,82.1894585 107.445205,79.1802574 112.795228,76.0471723 C114.236617,75.2030644 115.679535,74.2942674 116.518926,73.2870535 C117.358317,72.2798397 117.429153,71.1525004 116.252014,70.7569891 C115.479234,70.4973372 114.343833,70.5895989 113.21102,70.7765339 L113.21102,70.7765339 L112.646519,70.8766999 L111.328277,71.1313738 C110.448989,71.2961963 109.580485,71.430376 108.792984,71.4095759 C107.611733,71.3783758 106.681181,70.8585962 107.114183,70.0857554 C107.378059,69.6147887 108.052895,69.1854173 108.790002,68.8162523 L108.790002,68.8162523 L109.19614,68.6209723 L109.399911,68.5280202 C111.163896,67.7720873 113.002119,67.1245954 114.867867,66.6019994 L114.867867,66.6019994 L116.757789,66.0376774 L117.700459,65.7462098 L118.317189,65.5478122 C119.043495,65.3066692 119.775587,65.024329 120.324792,64.623931 C120.789071,64.2947225 121.044286,63.9131119 121.018741,63.5863028 C120.998512,63.4234832 120.877787,63.2925871 120.674832,63.2134202 C120.19269,63.0229384 119.282147,63.1028521 118.399118,63.240574 L118.399118,63.240574 L117.876249,63.3284434 L116.567411,63.5721253 C114.537196,63.9037503 112.593763,63.4778403 113.480592,62.0636424 C113.934759,61.4110559 114.757809,60.7856828 115.780832,60.315865 C116.796085,59.8527178 117.866929,59.4591138 118.958309,59.1479381 L118.958309,59.1479381 L119.773741,58.9059606 C120.58685,58.6550757 121.392429,58.3776554 122.185428,58.0753781 C122.836834,57.8280419 123.4338,57.5057051 123.9203,57.1386204 C124.585282,56.6044992 124.815526,55.8500324 124.105659,55.6123938 C123.846701,55.5257042 123.565883,55.4449988 123.273037,55.3667155 L123.273037,55.3667155 L121.67778,54.9588897 L121.225641,54.8345129 C120.03685,54.4928435 119.009564,54.0616905 118.773037,53.3130782 C118.517927,52.5056602 119.688704,51.49527 121.094695,50.6441384 L121.094695,50.6441384 L121.466028,50.4259549 L121.843335,50.2164258 L122.221919,50.0169802 C126.111919,48.0194542 131.838813,45.9040883 137.00062,44.9165207 Z" id="Combined-Shape" fill="#000000" opacity="0.149925595"></path>
                    <g id="Group-26">
                        <path d="M22.5192804,42.4151224 C22.7632097,42.2649783 23.0491822,42.1987351 23.3339276,42.2264158 C23.8972408,42.2947322 24.3993274,42.6159816 24.6991395,43.0999174 C25.1788327,43.8398175 25.1653475,44.7821134 25.152301,45.632064 C25.1388016,46.5112729 25.0852536,47.3891349 25.0437509,48.2672848 C24.9031835,49.9917201 24.9875973,51.7272165 25.294847,53.4296698 C25.4934527,54.3504191 25.8407739,55.3453218 26.6649442,55.7948271 C27.7275779,56.3743801 29.1095719,55.7291281 29.8072001,54.737008 C30.5048283,53.7448879 30.7158367,52.5023816 31.0161862,51.3257698 C31.3165357,50.149158 31.7825775,48.9187843 32.7842201,48.2383889 C34.0920032,47.3500325 35.9483523,47.7203522 37.1829999,48.7086946 C38.4176474,49.697037 39.1572205,51.1695734 39.7888873,52.6230081 C42.1334516,58.0177402 43.6027986,64.4128764 41.5920315,70.1491922 C39.7444662,75.4199254 36.2412199,80.1312947 37.4156122,86.0185864 C38.1336379,89.6180941 40.5053707,93.0350788 43.9596713,94.2329103 C45.730139,94.8468462 47.6419535,94.8542559 49.5136096,94.9248662 C51.3852657,94.9954766 53.3155428,95.1523091 54.9765018,96.0218411 C58.1285001,97.6719144 57.8814581,100.766431 58.0469947,103.825648 C58.0857912,104.542591 58.2329608,105.322486 58.7808192,105.78359 C59.3286777,106.244695 60.3987049,105.916552 60.7516827,105.292204 C62.4735939,102.246498 63.5998294,98.5170886 62.799474,95.0168527 C61.9899881,91.4766756 59.189358,88.9687197 57.1665383,86.1125523 C56.3252251,84.9246394 55.5861225,83.5952322 55.476253,82.1415416 C55.3549995,80.5372127 56.0254628,78.9536558 57.0010831,77.6776514 C60.3935719,73.2406778 65.9240421,70.5914585 70.4978391,67.6183534 C73.9663678,65.363705 77.2762439,62.7496079 79.9321595,59.5498169 C81.2782925,57.9539399 82.4137155,56.1901633 83.3102788,54.3022154 C83.6796567,53.5076508 84.7241321,49.0375664 85.9889657,49.2608798 C86.6116223,49.3708129 87.0450089,49.9436882 87.3157844,50.517587 C87.8419187,51.6327146 87.9942885,52.8870124 88.4143208,54.0466727 C88.8343424,55.2062547 89.6497289,56.3545996 90.8527825,56.6035003 C95.749527,57.6165914 93.2416972,48.1489825 93.3281552,45.9330207 C93.3002028,45.249959 93.4619747,44.5725544 93.795375,43.9765818 C95.5237917,41.4237308 97.3672853,46.0201846 97.9021079,47.1522745 C98.3244643,48.0463027 98.9811629,48.932605 99.9393572,49.1622477 C100.935343,49.400949 101.984725,48.8352986 102.619035,48.0277803 C104.363406,45.8070742 104.350943,42.4336376 104.727637,39.7716034 C104.763245,39.1405164 104.93984,38.5255822 105.244322,37.97242 C105.826206,37.2028459 106.813913,36.8637048 107.742954,37.1144841 C110.870561,37.8906329 110.43236,43.5875514 114.032917,43.1756097 C114.988034,43.066334 115.739946,42.3084268 116.283574,41.5119502 C118.943557,37.614734 118.501415,31.0299141 118.172918,26.5389689 C117.946284,23.4406281 117.07783,20.2769295 115.041012,17.9392466 C112.665516,15.2128602 108.833245,13.9273672 105.262721,14.4394086 C99.4856085,15.2678729 98.2449081,19.9844877 93.9303082,22.683723 C89.638957,25.3684163 85.22527,22.5612699 83.2648034,18.420832 C78.1765142,7.67450366 68.0825448,-1.33597343 55.5199525,0.163859628 C50.0873682,0.834118458 45.0519327,3.36871077 41.265267,7.33897209 C40.1163201,8.60573277 39.1199344,10.0040659 38.2967124,11.5050577 C36.847342,14.0746116 35.894783,16.917701 34.3718561,19.4368158 C33.3317744,21.1572436 31.912597,22.9188243 29.9281564,23.5439369 C27.32887,24.36271 24.7818052,22.7894093 22.9058721,21.1113641 C21.2244519,19.6074193 19.7634889,17.8454264 17.9295856,16.5335962 C15.5172874,14.7724713 12.5273755,14.0015024 9.56896436,14.3777539 C7.03386871,14.709744 4.73630219,16.0466697 3.18828041,18.0905956 C-0.700361883,23.1182278 -0.592982768,31.939444 1.18127723,37.4720563 C1.75991956,39.276414 2.95122847,41.2933598 4.8382376,41.3010893 C7.35324864,41.3113953 9.5340168,38.8339097 11.6159455,37.4164145 C12.4031306,36.880456 13.5456212,37.2831827 14.0802668,37.9935508 C14.4316115,38.506737 14.6474004,39.1011888 14.7073808,39.7211146 C14.8073795,40.7277834 14.8208804,41.7412344 14.7477338,42.750231 C14.67472,43.7604578 14.7514831,44.7759768 14.9755102,45.7635437 C15.2065069,46.7595285 15.8082114,47.6289228 16.6571392,48.1933055 C18.6040923,49.3664488 20.428904,47.7151388 20.9230836,45.837619 C21.1726337,44.8895376 21.5272706,43.020355 22.5192804,42.4151224 Z" id="Path" fill="url(#linearGradient-2)"></path>
                        <g id="Group-20" transform="translate(43.447619, 12.114286)" fill="#1F1730">
                            <path d="M5.08618059,1.18935659 C6.68360908,0.994132387 8.33881504,1.72988492 9.38617792,2.98963723 C10.4342044,4.24939121 10.7021149,6.00512361 10.5165003,7.64561699 C8.39111751,5.07426559 4.95986989,3.70872034 1.71269636,4.14127017 C2.19012442,2.56588271 3.48875123,1.3842402 5.08618059,1.18935659" id="Fill-30" transform="translate(6.141822, 4.401892) rotate(-13.000000) translate(-6.141822, -4.401892) "></path>
                            <path d="M20.1998726,7.64561694 C20.0142574,6.00512356 20.2825006,4.24939032 21.3301989,2.98963717 C22.3778972,1.72988401 24.032777,0.994132304 25.630211,1.18935649 C27.2276459,1.38424009 28.526609,2.56588175 29.003707,4.14127004 C25.7565222,3.70872024 22.3252627,5.07426552 20.1998726,7.64561694 Z" id="Fill-31" transform="translate(24.574581, 4.401892) rotate(13.000000) translate(-24.574581, -4.401892) "></path>
                            <path d="M18.5195797,17.9791855 C23.1571293,17.9791855 27.514041,16.4800039 31.2959836,13.848878 C29.4319905,22.1225172 23.260899,28.1966002 15.9353506,28.1966002 C7.1340971,28.1966002 -0.000728579145,19.4288231 -0.000728579145,8.61322202 C-0.000728579145,8.55850283 -0.000545953643,8.50383605 -0.000181410793,8.44922256 C4.74924847,14.3396048 11.29376,17.9791855 18.5195797,17.9791855 Z" id="Combined-Shape" transform="translate(15.647568, 18.322456) scale(-1, 1) translate(-15.647568, -18.322456) "></path>
                        </g>
                    </g>
                </g>
            </g>
        </g>
    </g>
</svg>