<?xml version="1.0" encoding="UTF-8"?>
<svg width="64px" height="60px" viewBox="0 0 64 60" version="1.1" xmlns="http://www.w3.org/2000/svg" xmlns:xlink="http://www.w3.org/1999/xlink">
    <!-- Generator: Sketch 51.1 (57501) - http://www.bohemiancoding.com/sketch -->
    <title>Shape</title>
    <desc>Created with Sketch.</desc>
    <defs></defs>
    <g id="Page-1" stroke="none" stroke-width="1" fill="none" fill-rule="evenodd">
        <g id="home" fill="#DEDEDE" fill-rule="nonzero">
            <path d="M2.765,31.28 C3.244,31.28 3.73,31.108 4.116,30.759 L10.373,25.086 L10.373,53.848 C10.373,57.179 13.082,59.889 16.414,59.889 L48.637,59.889 C51.968,59.889 54.678,57.179 54.678,53.848 L54.678,25.303 L60.628,30.753 C61.014,31.107 61.501,31.28 61.985,31.28 C62.532,31.28 63.075,31.061 63.472,30.629 C64.223,29.807 64.165,28.533 63.346,27.782 L33.886,0.795 C33.806,0.725 33.708,0.695 33.625,0.64 C33.511,0.562 33.402,0.481 33.279,0.432 C33.157,0.381 33.033,0.366 32.906,0.339 C32.78,0.315 32.657,0.282 32.529,0.282 C32.399,0.282 32.278,0.314 32.151,0.338 C32.024,0.362 31.9,0.377 31.778,0.428 C31.654,0.475 31.55,0.557 31.438,0.63 C31.349,0.688 31.25,0.715 31.171,0.789 L1.408,27.776 C0.586,28.523 0.522,29.797 1.268,30.621 C1.667,31.058 2.214,31.28 2.765,31.28 Z M50.648,21.916 L50.648,53.848 C50.648,54.957 49.744,55.861 48.635,55.861 L41.584,55.861 L38.1395039,55.86 C35.8920605,55.86 36.5395352,55.861 33.2085352,55.861 L30.9827862,55.861 C27.6507862,55.861 29.2484302,55.86 25.1701089,55.861 L23.464,55.86 L16.412,55.86 C15.303,55.86 14.397,54.957 14.397,53.847 L14.397,21.916 C14.397,21.77 14.345,21.645 14.316,21.509 L32.516,5.007 L50.7,21.661 C50.688,21.747 50.648,21.825 50.648,21.916 Z" id="Shape"></path>
        </g>
    </g>
</svg>