<?xml version="1.0" encoding="UTF-8"?>
<svg width="304px" height="481px" viewBox="0 0 304 481" version="1.1" xmlns="http://www.w3.org/2000/svg" xmlns:xlink="http://www.w3.org/1999/xlink">
    <!-- Generator: Sketch 51.1 (57501) - http://www.bohemiancoding.com/sketch -->
    <title>settings</title>
    <desc>Created with Sketch.</desc>
    <defs></defs>
    <g id="Page-1" stroke="none" stroke-width="1" fill="none" fill-rule="evenodd">
        <g id="settings" fill="#FFFFFF" fill-rule="nonzero">
            <path d="M248.15,234.1 L248.15,13.5 C248.15,6 242.15,0 234.65,0 C227.15,0 221.15,6 221.15,13.5 L221.15,234.1 C189.85,240.4 166.15,268.1 166.15,301.3 C166.15,334.5 189.85,362.2 221.15,368.5 L221.15,466.7 C221.15,474.2 227.15,480.2 234.65,480.2 C242.15,480.2 248.15,474.2 248.15,466.7 L248.15,368.5 C279.45,362.2 303.15,334.5 303.15,301.3 C303.15,268.2 279.55,240.4 248.15,234.1 Z M234.65,342.8 C211.75,342.8 193.15,324.2 193.15,301.3 C193.15,278.4 211.75,259.8 234.65,259.8 C257.55,259.8 276.15,278.4 276.15,301.3 C276.15,324.2 257.55,342.8 234.65,342.8 Z" id="Shape"></path>
            <path d="M82.85,120.9 L82.85,13.5 C82.85,6 76.85,0 69.35,0 C61.85,0 55.85,6 55.85,13.5 L55.85,120.9 C24.55,127.2 0.85,154.9 0.85,188.1 C0.85,221.3 24.55,249 55.85,255.3 L55.85,466.7 C55.85,474.2 61.85,480.2 69.35,480.2 C76.85,480.2 82.85,474.2 82.85,466.7 L82.85,255.2 C114.15,248.9 137.85,221.2 137.85,188 C137.85,154.8 114.15,127.2 82.85,120.9 Z M69.35,229.6 C46.45,229.6 27.85,211 27.85,188.1 C27.85,165.2 46.45,146.6 69.35,146.6 C92.25,146.6 110.85,165.2 110.85,188.1 C110.85,211 92.15,229.6 69.35,229.6 Z" id="Shape"></path>
        </g>
    </g>
</svg>