<?xml version="1.0" encoding="UTF-8"?>
<svg width="14px" height="15px" viewBox="0 0 14 15" version="1.1" xmlns="http://www.w3.org/2000/svg" xmlns:xlink="http://www.w3.org/1999/xlink">
    <!-- Generator: Sketch 51.2 (57519) - http://www.bohemiancoding.com/sketch -->
    <title>Group 14</title>
    <desc>Created with Sketch.</desc>
    <defs></defs>
    <g id="Правка-основного-окна" stroke="none" stroke-width="1" fill="none" fill-rule="evenodd">
        <g id="Artboard-Copy-12" transform="translate(-21.000000, -546.000000)">
            <g id="Group-18" transform="translate(16.000000, 444.000000)">
                <g id="Group-15" transform="translate(0.000000, 92.000000)">
                    <g id="Group-14" transform="translate(0.000000, 5.000000)">
                        <rect id="Rectangle-8" x="0" y="0" width="24" height="24"></rect>
                        <path d="M12.0000712,20 C11.9512262,20 11.9023338,19.9924966 11.8552451,19.9774898 C10.2724585,19.4734396 8.92492532,18.5066316 7.85000322,17.1039648 C7.00373644,15.9996413 6.32612492,14.625195 5.83610854,13.0188034 C5.00949368,10.3093153 5,7.89557512 5,7.79416103 C5,7.55112588 5.18569641,7.3477786 5.42906694,7.32441891 C5.46571255,7.32087956 9.15239393,6.94462339 11.7211468,5.0900528 C11.8874761,4.96990377 12.1127137,4.97004534 12.279043,5.09009999 C14.8470839,6.94462339 18.53424,7.32087956 18.5711704,7.3244661 C18.8143511,7.34806175 19,7.55131464 19,7.79416103 C19,7.89557512 18.9905063,10.3093153 18.1639389,13.0188506 C17.6738751,14.6252422 16.996311,15.9996885 16.1500442,17.104012 C15.0751696,18.5066787 13.7276364,19.4734868 12.1448498,19.9775369 C12.0977612,19.9924966 12.0489162,20 12.0000712,20 L12.0000712,20 Z M5.96299159,8.20817024 C6.00243784,9.00022889 6.15580827,10.8243611 6.75115704,12.7664243 C7.76721832,16.0805272 9.53285322,18.1872881 12.0000237,19.0308796 C14.4729379,18.1854004 16.240614,16.0714665 17.2553936,12.7449051 C17.8467076,10.80657 17.9984166,8.99631201 18.0372932,8.20821743 C16.973811,8.0539491 14.2190294,7.53187183 11.9999763,6.04756412 C9.78073325,7.53173026 7.02652128,8.05390191 5.96299159,8.20817024 L5.96299159,8.20817024 Z" id="Shape" fill="#67B279"></path>
                    </g>
                </g>
            </g>
        </g>
    </g>
</svg>