<?xml version="1.0" encoding="UTF-8"?>
<svg width="22px" height="22px" viewBox="0 0 22 22" version="1.1" xmlns="http://www.w3.org/2000/svg" xmlns:xlink="http://www.w3.org/1999/xlink">
    <!-- Generator: Sketch 51.2 (57519) - http://www.bohemiancoding.com/sketch -->
    <title>Group 6</title>
    <desc>Created with Sketch.</desc>
    <defs></defs>
    <g id="Page-1" stroke="none" stroke-width="1" fill="none" fill-rule="evenodd" opacity="0.5">
        <g id="Artboard-Copy-3" transform="translate(-281.000000, -18.000000)">
            <g id="Group-6" transform="translate(280.000000, 17.000000)">
                <rect id="Rectangle" x="0" y="0" width="24" height="24"></rect>
                <path d="M11.1451038,22.4 L12.8547721,22.4 C13.0363579,21.924761 13.2232512,21.3767938 13.4060677,20.7611409 C13.5501183,20.2759882 13.9266554,19.8946461 14.4097012,19.7445336 C14.8799159,19.5981921 15.3357574,19.4091408 15.7714237,19.1797976 C16.219473,18.943824 16.755732,18.9470245 17.2010089,19.1883705 C17.7657969,19.4945984 18.285,19.7497943 18.7495354,19.9575852 L19.9586827,18.7491978 C19.7502349,18.2829219 19.4955396,17.7645991 19.1892283,17.1999884 C18.9479296,16.754787 18.9447292,16.2185293 19.1806406,15.7705862 C19.4100342,15.3348067 19.5990842,14.8789564 19.7453519,14.4089767 C19.8955362,13.9256876 20.2768734,13.5491455 20.7618944,13.4051302 C21.3783172,13.2219483 21.9277903,13.0346194 22.4,12.8542003 L22.4,11.1444756 C21.9245044,10.9627569 21.376907,10.7759815 20.7611638,10.5931891 C20.276014,10.4491357 19.8946768,10.0725936 19.7445683,9.58954815 C19.5982248,9.11932472 19.4091748,8.66347439 19.1798374,8.22780164 C18.9438697,7.77975187 18.9470702,7.24349408 19.1884101,6.79821669 C19.4947561,6.23319616 19.7502182,5.7133721 19.9574534,5.24977554 L18.7497353,4.04126623 C18.2851839,4.24891604 17.7656751,4.5042652 17.2006463,4.81081136 C16.7554454,5.05211602 16.2191865,5.05531655 15.7712408,4.8193975 C15.335471,4.58999971 14.8796295,4.40094843 14.409655,4.25468173 C13.9263689,4.10449446 13.5498318,3.72315236 13.4057858,3.23801514 C13.2228633,2.62200518 13.0356331,2.07284506 12.8549231,1.6 L11.1457937,1.6 C10.9626882,2.07951762 10.778523,2.61718885 10.5983907,3.21992597 C10.4587249,3.71369173 10.0788716,4.10335846 9.5890608,4.25549508 C9.11885529,4.40175076 8.66301405,4.59071267 8.22743039,4.81991595 C7.77938108,5.0558895 7.24312216,5.05268898 6.79784523,4.81134305 C6.23286342,4.50501005 5.71307253,4.24955606 5.24950164,4.04232443 L4.04120197,5.25025206 C4.24885538,5.71482935 4.50421258,6.23437124 4.81077171,6.79943869 C5.05207039,7.24464003 5.05527082,7.7808978 4.81940615,8.22875194 C4.59010246,8.66453769 4.40114262,9.1203858 4.25493459,9.59045028 C4.10475029,10.0737395 3.72341308,10.4502816 3.23823094,10.5943446 C2.62220617,10.7772206 2.07362739,10.9642518 1.6,11.14525 L1.6,12.85465 C2.07623942,13.0366909 2.60982869,13.2191657 3.20672199,13.3966989 C3.71991986,13.537203 4.12216082,13.9360358 4.26205635,14.4313665 C4.40563248,14.8878691 4.58940187,15.3307422 4.80414436,15.7416816 C5.0632653,16.2084925 5.05786489,16.7771635 4.79869873,17.2233128 C4.49764796,17.7798986 4.24622627,18.2923735 4.04183894,18.7500895 L5.25083828,19.9598805 C5.71534497,19.7522543 6.23465528,19.4970125 6.79877259,19.1909617 C7.02027851,19.0702745 7.2683875,19.0067396 7.52063685,19.006109 L7.52192886,19.0061072 C7.76816068,19.006022 8.01071095,19.0658876 8.22875922,19.1806025 C8.66452904,19.4100003 9.12037054,19.5990516 9.590345,19.7453183 C10.0736311,19.8955056 10.4501682,20.2768477 10.5941806,20.7618716 C10.7773603,21.3783029 10.9646869,21.9277837 11.1451038,22.4 Z M12,8.4 L12.0007019,8.40000041 C13.9875756,8.40232466 15.5976753,10.0124244 15.6,12 C15.6,13.9882251 13.9882251,15.6 12,15.6 C10.0117749,15.6 8.4,13.9882251 8.4,12 C8.4,10.0117749 10.0117749,8.4 12,8.4 Z" id="Shape" stroke="#1E1E1E" stroke-width="1.2" fill-rule="nonzero"></path>
            </g>
        </g>
    </g>
</svg>