<?xml version="1.0" encoding="UTF-8"?>
<svg width="221px" height="246px" viewBox="0 0 221 246" version="1.1" xmlns="http://www.w3.org/2000/svg" xmlns:xlink="http://www.w3.org/1999/xlink">
    <!-- Generator: Sketch 51.1 (57501) - http://www.bohemiancoding.com/sketch -->
    <title>Shape</title>
    <desc>Created with Sketch.</desc>
    <defs></defs>
    <g id="Page-1" stroke="none" stroke-width="1" fill="none" fill-rule="evenodd">
        <g id="play-button" fill="#FFFFFF" fill-rule="nonzero">
            <path d="M206.778,98.852 L42.252,3.862 C33.521,-1.179 23.097,-1.177 14.366,3.861 C5.635,8.901 0.422,17.93 0.422,28.011 L0.422,217.991 C0.422,228.072 5.634,237.1 14.366,242.141 C18.731,244.662 23.518,245.921 28.307,245.921 C33.097,245.921 37.886,244.659 42.251,242.14 L206.779,147.151 C215.509,142.109 220.72,133.081 220.72,123 C220.72,112.92 215.508,103.892 206.778,98.852 Z M193.452,124.074 L28.925,219.063 C28.724,219.18 28.305,219.421 27.689,219.063 C27.071,218.706 27.071,218.224 27.071,217.992 L27.071,28.012 C27.071,27.78 27.071,27.298 27.689,26.941 C27.931,26.801 28.142,26.753 28.322,26.753 C28.602,26.753 28.804,26.87 28.927,26.941 L193.453,121.931 C193.654,122.047 194.071,122.288 194.071,123.002 C194.071,123.716 193.652,123.958 193.452,124.074 Z" id="Shape"></path>
        </g>
    </g>
</svg>