<svg height="18" width="27" xmlns="http://www.w3.org/2000/svg"><g fill="#fffc57" fill-rule="evenodd"><path d="M13.431 4.947c-.362 0-2.533 3.597-1.9 3.777.453.18 1.9-.54 1.9-.54s1.267.72 1.719.54-1.357-3.777-1.719-3.777zM4.485.032C6.065-.167 7.7.564 8.732 1.82c1.033 1.256 1.294 3.01 1.106 4.65-2.095-2.564-5.484-3.92-8.696-3.48C1.618 1.415 2.905.231 4.485.032M25.116 2.99c-3.212-.44-6.601.916-8.696 3.48-.188-1.64.073-3.394 1.106-4.65S20.193-.167 21.773.032c1.58.2 2.868 1.383 3.343 2.958"/><path d="M26.255 6.089c-1.016 1.399-2.792 2.464-4.965 3.199l.53 2.03-3.865.985-.33-2.14c-2.902.453-6.09.453-8.992 0l-.33 2.14-3.866-.986.531-2.03C2.796 8.554 1.02 7.489.003 6.09c0 0-.46 10.257 10.949 11.416l.266-1.287h3.822l.267 1.287C26.715 16.345 26.255 6.09 26.255 6.09"/></g></svg>