<svg viewBox="0 0 121 123" xmlns="http://www.w3.org/2000/svg"><g fill="none" fill-rule="evenodd"><g transform="translate(.306 .3)"><path d="M60.103 0C41.317 0 18.656 4.397 0 14.075c0 20.902-.257 72.974 60.103 108.554 60.362-35.58 60.106-87.652 60.106-108.554C101.552 4.397 78.89 0 60.103 0z" fill="#B8B8B8"/><path d="M60.041 0v122.592C1.552 88.08.039 38.078 0 16.039L0 14.075C18.656 4.397 41.317 0 60.103 0h-.062z" fill="#A7A7A7"/></g><path d="M60 37c-1 0-7 10-5.25 10.5C56 48 60 46 60 46s3.5 2 4.75 1.5S61 37 60 37zM30.731 21.357c5.19-.654 10.56 1.747 13.951 5.872 3.394 4.126 4.25 9.886 3.633 15.271C41.433 34.079 30.3 29.626 19.75 31.072c1.564-5.174 5.791-9.063 10.981-9.715M69.935 42.5c-.617-5.385.24-11.145 3.632-15.27 3.393-4.126 8.762-6.527 13.952-5.873 5.19.652 9.418 4.541 10.981 9.715C87.95 29.626 76.817 34.08 69.935 42.5z" fill="#FFF"/><path d="M102.242 41.25c-3.34 4.596-9.173 8.096-16.31 10.507l1.744 6.667-12.7 3.24-1.082-7.03c-9.534 1.486-20.004 1.486-29.537 0l-1.082 7.03-12.7-3.24 1.745-6.667c-7.137-2.411-12.97-5.911-16.312-10.507 0 0-1.507 33.691 35.965 37.5l.875-4.229h12.555l.876 4.229c37.472-3.809 35.963-37.5 35.963-37.5" fill="#FFF"/></g></svg>