<?xml version="1.0" encoding="UTF-8"?>
<svg width="213px" height="233px" viewBox="0 0 213 233" version="1.1" xmlns="http://www.w3.org/2000/svg" xmlns:xlink="http://www.w3.org/1999/xlink">
    <!-- Generator: Sketch 51.1 (57501) - http://www.bohemiancoding.com/sketch -->
    <title>Shape</title>
    <desc>Created with Sketch.</desc>
    <defs></defs>
    <g id="Page-1" stroke="none" stroke-width="1" fill="none" fill-rule="evenodd">
        <g id="like" transform="translate(106.500000, 116.500000) rotate(180.000000) translate(-106.500000, -116.500000) translate(-0.000000, 0.000000)" fill="#FFFFFF" fill-rule="nonzero">
            <path d="M8.79129951,128.634 C1.28166508,120.045 -1.36797148,106.542 2.87070253,95.33 C7.13736034,84.049 17.5549309,77.332 30.7337715,77.332 L84.6453095,77.332 C85.36903,76.754 85.2864039,76.61 85.1993758,76.467 C77.7111619,64.284 72.6832411,51.041 68.751925,39.7 C65.1906677,29.436 66.7762246,19.06 73.1025769,11.235 C78.7917878,4.201 87.8416965,0 97.3098259,0 C108.404876,0 118.715862,5.563 125.595163,15.264 C130.998381,22.887 135.67163,30.717 140.188699,38.289 C147.20664,50.06 153.8297,61.177 161.016361,67.518 C166.760865,72.584 183.750764,82.521 193.898309,88.457 C197.537004,90.587 200.769086,92.425 203.088033,93.843 C207.258786,96.393 212.539828,99.566 212.518421,106.273 L212.263635,186.098 C212.237331,194.339 205.641718,201.225 196.707566,202.471 L166.851155,206.629 C137.965451,223.668 110.076141,232.665 86.1198294,232.665 C79.462621,232.665 73.0467744,231.974 67.0723748,230.609 C52.8690168,227.369 42.7121356,221.286 36.896523,212.529 C33.2578719,207.053 31.9991174,201.523 31.8054823,196.845 C26.5623763,194.23 22.369591,190.105 19.6940757,184.832 C15.7216854,177.007 15.6568803,168.171 17.5464222,161.129 C7.62823176,152.76 5.73794051,138.778 8.79129951,128.634 Z M29.4565909,154.263 C31.8196597,155.419 32.9397185,158.006 31.7843376,160.207 C27.6493986,168.085 28.2924334,184.334 41.3989086,187.515 C43.8590433,188.113 45.460918,190.219 45.1427513,192.521 C44.159339,199.651 45.7392173,213.382 70.2372735,218.968 C75.1593467,220.091 80.4531836,220.665 86.0905246,220.665 C107.00621,220.665 132.612217,212.762 161.100077,195.708 C161.697179,195.351 162.375241,195.11 163.08158,195.012 L194.751579,190.609 C197.195934,190.268 199.096385,188.352 199.102684,186.098 L199.325765,106.273 C199.32913,105.069 162.689689,85.649 151.901293,76.131 C138.237163,64.078 128.473019,41.45 114.516862,21.758 C109.661981,14.913 103.271587,11.999 97.3362898,11.999 C86.1967201,11.999 76.5824553,22.272 81.3744999,36.103 C85.8095037,48.907 90.4154903,60.34 96.7371514,70.632 C101.880596,79.008 95.2036854,89.332 84.6542982,89.332 L30.7622201,89.332 C10.0242589,89.332 10.6843054,115.645 21.4418116,123.342 C23.2869012,124.662 23.848811,127.024 22.7470729,128.905 C18.8979884,135.477 19.6574448,149.471 29.4565909,154.263 Z" id="Shape"></path>
        </g>
    </g>
</svg>